<svg id="Layer_2" data-name="Layer 2" xmlns="http://www.w3.org/2000/svg" viewBox="0 0 1100.65 378.09"><title>nyc__homes</title><path d="M556.52,698.37a344.56,344.56,0,0,0,3.2-41c.07-3.84-.39-8.48-3.84-10.17a9.53,9.53,0,0,0-4.66-.63A9.67,9.67,0,0,0,546,648c-2.58,1.88-2.88,5.56-2.94,8.76l-.6,29.89-.15,7.33c0,2.75.62,3.82-2,4.38-4.16.9-10-.4-14.23-.72-.09-10.55-.49-21-.58-31.57a58.67,58.67,0,0,1,.8-12.57,28.22,28.22,0,0,1,17.28-20.45c8.73-3.25,19.28-1.34,26,5.08a18.47,18.47,0,0,1,3.46,4.36c2.9,5.15,2.61,11.43,2.23,17.33-.79,12.55.15,24.86-.64,37.41a293.49,293.49,0,0,1-32.48,1.17" transform="translate(-425 -575.03)" fill="none" stroke="#fff" stroke-linejoin="round" stroke-width="2"/><path d="M551.14,632.07q.36,7.18,1.31,14.3" transform="translate(-425 -575.03)" fill="none" stroke="#fff" stroke-linejoin="round" stroke-width="2"/><path d="M557.69,648.47q5.37-5.31,10.35-11" transform="translate(-425 -575.03)" fill="none" stroke="#fff" stroke-linejoin="round" stroke-width="2"/><path d="M535.26,638.49a33.22,33.22,0,0,1,9.8,9.53" transform="translate(-425 -575.03)" fill="none" stroke="#fff" stroke-linejoin="round" stroke-width="2"/><path d="M541.51,654.57a20.54,20.54,0,0,0-6.49.53c-2.73.68-5.54,1.93-8.24,1.16" transform="translate(-425 -575.03)" fill="none" stroke="#fff" stroke-linejoin="round" stroke-width="2"/><path d="M559.89,655.57c4.68.89,9.37-1.59,14.13-1.45" transform="translate(-425 -575.03)" fill="none" stroke="#fff" stroke-linejoin="round" stroke-width="2"/><path d="M526.08,675.82a63.83,63.83,0,0,0,13.1-.42c1.68-.18,2.69.21,4.37,0h14.77c4.77,0,10.67,0,15.44-.1" transform="translate(-425 -575.03)" fill="none" stroke="#fff" stroke-linejoin="round" stroke-width="2"/><path d="M620,715.55l59.85-1.4c6.8-.16,13.61-.32,20.4-.8,15.71-1.12,31.8-3.62,47.26-.6l.76-41.11a130.79,130.79,0,0,0-.42-16.8c-1-9.23-4-17.4-2.53-26.57-41-3.47-82.34,3.61-123.46,1.27C620,657.67,623.17,687.55,620,715.55Z" transform="translate(-425 -575.03)" fill="none" stroke="#fff" stroke-linejoin="round" stroke-width="2"/><path d="M632.07,630.37,629.5,714" transform="translate(-425 -575.03)" fill="none" stroke="#fff" stroke-linejoin="round" stroke-width="2"/><path d="M654,631.57l-3.51,82" transform="translate(-425 -575.03)" fill="none" stroke="#fff" stroke-linejoin="round" stroke-width="2"/><path d="M716,630l-2.38,83.56-2.1-1.94" transform="translate(-425 -575.03)" fill="none" stroke="#fff" stroke-linejoin="round" stroke-width="2"/><path d="M769.7,785.05l36.83-1.2c0,7.66.41,15.55.41,23.21a318.94,318.94,0,0,1-36.06-.31C770.88,799.62,769.7,792.18,769.7,785.05Z" transform="translate(-425 -575.03)" fill="none" stroke="#fff" stroke-linejoin="round" stroke-width="2"/><path d="M747.73,859.35c.09-24.43.86-49.63.95-74.06l-52.63-.48c-5.35,0-10.69-.1-16,.15-7.27.35-14.49,1.26-21.76,1.67-12.89.73-25.82-.1-38.71-1a559.3,559.3,0,0,1-1.23,72.08c10.9.93,21.9-.94,32.84-1.11,18.51-.28,37,4.12,55.42,2.84C719.91,858.56,734.86,855.75,747.73,859.35Z" transform="translate(-425 -575.03)" fill="none" stroke="#fff" stroke-linejoin="round" stroke-width="2"/><path d="M458.76,738c6.43-1.46,12-5.25,17.61-8.78a317.85,317.85,0,0,1,45.11-23.81c8.16-3.49,17.56,1,26.43,1.31a50,50,0,0,0,9.86-.26c2.93-.46,5.76-1.45,8.71-1.79a40.39,40.39,0,0,1,9.25.4c1.87,2.57,5.21,3.77,8,5.3l34.28,19c5.91,3.27,11.86,6.56,18.27,8.71,5.51,1.85,13.25.29,19,.66a14.67,14.67,0,0,1,.41,7.45c-1.93.6-4.89-.35-6.66-1.32a109.43,109.43,0,0,1-9.71,21.22c-16.77,0-34.1.3-50.87.3-6.86,0-13.72,0-20.58-.29-19.29-.82-38.69-3.94-57.81-1.27-4,.56-8,1.38-12,1.76a114.4,114.4,0,0,1-16.14,0l-25.76-1.23c-7.85-5.38-16.23-11.44-20-20.16a4.63,4.63,0,0,0-.53-4.8C443.15,739.58,451.16,737.83,458.76,738Z" transform="translate(-425 -575.03)" fill="none" stroke="#fff" stroke-linejoin="round" stroke-width="2"/><path d="M464.58,737.7c17.92,2.31,36.05,2.24,54.12,2.18l27.82-.11q16.32-.06,32.66-.1,28.94-.07,57.85-.07" transform="translate(-425 -575.03)" fill="none" stroke="#fff" stroke-linejoin="round" stroke-width="2"/><path d="M440.92,747.25c22.12-1.4,44.3-1.28,66.46-1.16l139,.73" transform="translate(-425 -575.03)" fill="none" stroke="#fff" stroke-linejoin="round" stroke-width="2"/><path d="M460.14,623.81Q458.45,665,457.5,706.3q.22,14.34.46,28.68" transform="translate(-425 -575.03)" fill="none" stroke="#fff" stroke-linejoin="round" stroke-width="2"/><path d="M456.58,670.22c-11.32-18-15.93-39.83-25.52-58.94" transform="translate(-425 -575.03)" fill="none" stroke="#fff" stroke-linejoin="round" stroke-width="2"/><path d="M430.62,611.82A21.64,21.64,0,0,0,426,612v-7.21c19.81.93,39.68,1.56,59.44-.17,12.36-1.07,24.7-1.76,37.1-2.26q63.11-2.58,126.26.38c9.86.46,19.7-1.92,29.54-2.59,6.34-.43,12.69-.86,19-.85,6.63,0,13.25.49,19.87.85a520.85,520.85,0,0,0,82.65-2.08c20.19-2.12,41.16.46,61.41,2-10.87,16.33-22.7,32.05-36.91,45.59-.39,29.93-.91,60.89-1.3,90.83-.24,19.11-.49,38.27,1.59,57.26,2.06,18.83-.89,37.92-1.12,56.86-.18,15.25-.37,30.54,1.25,45.71.78,7.37,2,14.74,1.73,22.15-.22,6.42-1.55,12.94-.18,19.23" transform="translate(-425 -575.03)" fill="none" stroke="#fff" stroke-linejoin="round" stroke-width="2"/><path d="M592.51,886.8c0,10.75,0,21.37,0,32.12a138.91,138.91,0,0,1,17.43-.36c.84-10.41,1.18-21.31,1.2-31.76-5.3,0-10.59-.47-15.89-.47,1.11-32.54,2.07-64.71,4-97.21a562.91,562.91,0,0,0-56.77-1.29q-1,60.87-5,121.63c16.95-.11,36.73-.07,53.68-.19" transform="translate(-425 -575.03)" fill="none" stroke="#fff" stroke-linejoin="round" stroke-width="2"/><path d="M523.29,907.65,529.49,786c-19.33,2.07-39.55-3.58-58.72-.34,1.44,25.86.36,52.62-1.65,78.44" transform="translate(-425 -575.03)" fill="none" stroke="#fff" stroke-linejoin="round" stroke-width="2"/><path d="M457.35,768.32l-2.84,97.58" transform="translate(-425 -575.03)" fill="none" stroke="#fff" stroke-linejoin="round" stroke-width="2"/><path d="M477.65,907.75q22.47,0,44.94-1.13" transform="translate(-425 -575.03)" fill="none" stroke="#fff" stroke-linejoin="round" stroke-width="2"/><path d="M573.48,812l12.12.32c.74-1.31-.51-2.83-1.65-3.82l-6.29-5.42a21.15,21.15,0,0,0-5.57-3.84,7.13,7.13,0,0,0-6.52.26,10.61,10.61,0,0,0-2.72,3c-2.14,3.1-5.39,6.57-6.52,10.09C562,812.57,567.71,811.74,573.48,812Z" transform="translate(-425 -575.03)" fill="none" stroke="#fff" stroke-linejoin="round" stroke-width="2"/><path d="M512,809.76c.81-1.65-.55-3.52-1.9-4.78a39.54,39.54,0,0,0-5.42-4.24c-2.28-1.47-5.1-2.75-7.63-1.76a9.67,9.67,0,0,0-2.35,1.5c-4,3.13-11.52,8.66-2.71,10.1C494.09,810.92,511.3,811.27,512,809.76Z" transform="translate(-425 -575.03)" fill="none" stroke="#fff" stroke-linejoin="round" stroke-width="2"/><path d="M454.74,863.81,452.8,931" transform="translate(-425 -575.03)" fill="none" stroke="#fff" stroke-linejoin="round" stroke-width="2"/><path d="M469.14,862.88q-1.08,29.28-2.66,58.55" transform="translate(-425 -575.03)" fill="none" stroke="#fff" stroke-linejoin="round" stroke-width="2"/><path d="M1197.16,576.06l286.94.61c-1.67,3.15-2.77,7.37-4.44,10.51-2.6,4.9-2.5,11.43-2.41,17q.35,23.36,1.91,46.66c1.92,28.71-2.87,57.5-1.06,86.21.22,3.53.48,7.05.73,10.57l1.4,19.51a185.38,185.38,0,0,1,36,18c2.78,0,5.65-.14,8.43-.14v5.3h-4.17a28.06,28.06,0,0,0-1.18,9.86,69.17,69.17,0,0,0-11,.26c.37,20.46.83,41.8,1.21,62.27.5,27.41.37,53.69,1,81.1" transform="translate(-425 -575.03)" fill="none" stroke="#fff" stroke-linecap="round" stroke-linejoin="round" stroke-width="2"/><path d="M1319.47,898.25a551.19,551.19,0,0,1-.09-81.07c7,1,14.59-1,21.62-1.19a73,73,0,0,1,14.19,1.45c-1.14,26.64-1.6,53-1.67,79.7" transform="translate(-425 -575.03)" fill="none" stroke="#fff" stroke-linecap="round" stroke-linejoin="round" stroke-width="2"/><path d="M1321,861.6a269.6,269.6,0,0,0,31.89-1.42" transform="translate(-425 -575.03)" fill="none" stroke="#fff" stroke-linecap="round" stroke-linejoin="round" stroke-width="2"/><path d="M1318.38,861.54h3.31" transform="translate(-425 -575.03)" fill="none" stroke="#fff" stroke-linecap="round" stroke-linejoin="round" stroke-width="2"/><path d="M1412.1,896c-.67-26.3-1.34-52.71,1.72-78.84,11.62-.53,23.37-.44,35-.1-.55,6.76-.87,13.7-1,20.47-.06,5,.14,10,.34,15l1.75,44.15" transform="translate(-425 -575.03)" fill="none" stroke="#fff" stroke-linecap="round" stroke-linejoin="round" stroke-width="2"/><path d="M1300.56,899.48q1.44-43.15-.76-86.33c-.07-1.36-2.24-2-3.6-2.1-4.77-.39-9.57-.4-14.36-.41h-11.58l-15.54,0c-5.9,0-11.81,0-17.69.44-15.17,1.18-30.59,5.42-45.34,1.7-3.27-.82-6.82.13-10.2,0,.91,29.41.86,58.93-.15,88.34,5.11-.17,11.25-.67,16.36-.42" transform="translate(-425 -575.03)" fill="none" stroke="#fff" stroke-linecap="round" stroke-linejoin="round" stroke-width="2"/><path d="M1167.67,939.88V929.61c0-25.06-.06-50.19,3-75.05,1.65-13.41-1.4-27.1-.57-40.59a5.31,5.31,0,0,1-2.5-.58c.2-4,.32-8.09.52-12.14a18.14,18.14,0,0,1-8.08-1.69c0-2.8,0-5.64,0-8.44,0-1.73,0-3.76.05-5.5a47.34,47.34,0,0,0,10.63-.7c0-1.06,0-2,0-3.06-1.73-.59-3.51-1.05-5.24-1.64,9.16-8.75,22.12-12.35,32-20.3-.06-20.55-.19-41.14-.25-61.68-.08-25.07.54-50.16,2.8-75.13.49-5.43,1-10.85,1.6-16.27.9-8.86-3.38-17.61-7.2-25.65a5.23,5.23,0,0,1-.77-3.27,2.6,2.6,0,0,1,3.61-1.62" transform="translate(-425 -575.03)" fill="none" stroke="#fff" stroke-linecap="round" stroke-linejoin="round" stroke-width="2"/><path d="M1223.61,669.83l41.53-2.34a4.16,4.16,0,0,1,2.55.4c1.07.71,1.24,2.17,1.31,3.44a593.56,593.56,0,0,1-.53,73.9c-.24,3.37-.5,6.73-.7,10.1-15.14-.12-29,0-44.19.18C1223.86,727.19,1223.33,698.15,1223.61,669.83Z" transform="translate(-425 -575.03)" fill="none" stroke="#fff" stroke-linecap="round" stroke-linejoin="round" stroke-width="2"/><path d="M1315.43,668.16l48.5-.87a699.43,699.43,0,0,1-3.85,88.74c-14.44.67-28.48,1.08-42.92,1.74C1316.7,727.62,1315.9,698.31,1315.43,668.16Z" transform="translate(-425 -575.03)" fill="none" stroke="#fff" stroke-linecap="round" stroke-linejoin="round" stroke-width="2"/><path d="M1409,758.89c15.33-1.09,30.26-1.55,45.63-1.79,5.09-29.2-1.18-59.22.08-88.83q-23.35,1.58-46.78,2C1409.59,700.6,1407.4,728.51,1409,758.89Z" transform="translate(-425 -575.03)" fill="none" stroke="#fff" stroke-linecap="round" stroke-linejoin="round" stroke-width="2"/><path d="M1273,927.4c.77-36,1.13-72,1.91-108-10.72,1.1-21.49,2.21-32.24,1.62-10.58-.59-20.1-3.16-30.64-2,.44,4.91-1,9.77-1.75,14.64-.9,5.93-.76,12-.62,18l1.8,75.41,18.49,0c-2,2-3.42,4.14-5.38,6.18,14.58-.45,29.19-.33,43.77.11C1269.8,931.62,1271.48,929.08,1273,927.4Z" transform="translate(-425 -575.03)" fill="none" stroke="#fff" stroke-linecap="round" stroke-linejoin="round" stroke-width="2"/><path d="M1232.83,926.28a257.3,257.3,0,0,0,36.73,0" transform="translate(-425 -575.03)" fill="none" stroke="#fff" stroke-linecap="round" stroke-linejoin="round" stroke-width="2"/><path d="M1243.08,922.87c-2.46-33.15-4.92-66.52-1.33-99.57" transform="translate(-425 -575.03)" fill="none" stroke="#fff" stroke-linecap="round" stroke-linejoin="round" stroke-width="2"/><path d="M1266.1,829a489,489,0,0,1-1,67.39H1252.8c-2.59-13.58-5.19-27.37-4-41.13.62-6.87.56-16.64,2.7-23.08,1-2.84,1.22-2.9,4.21-3.48A92.5,92.5,0,0,1,1266.1,829Z" transform="translate(-425 -575.03)" fill="none" stroke="#fff" stroke-linecap="round" stroke-linejoin="round" stroke-width="2"/><path d="M1221.68,828.42a35,35,0,0,1,11.58.59c.46,21.33.22,42.83-.38,64.16,0,.35-.09.78-.42.86s-.34-.67-.06-.48c-3.16,0-6.33-.4-9.49-.4C1223.19,871.82,1221.4,849.74,1221.68,828.42Z" transform="translate(-425 -575.03)" fill="none" stroke="#fff" stroke-linecap="round" stroke-linejoin="round" stroke-width="2"/><path d="M1171,785c58.92-8.77,118.72,5.25,178.28,4.8,13-.09,26.08-.89,39.11-1.42,44.59-1.82,89.24-.6,133.85.65" transform="translate(-425 -575.03)" fill="none" stroke="#fff" stroke-linecap="round" stroke-linejoin="round" stroke-width="2"/><path d="M1167.32,804c76.65-2,153.37-4,230-1.15,11.78.45,23.56,1,35.35.81,25.5-.44,51-4.47,76.42-2.89" transform="translate(-425 -575.03)" fill="none" stroke="#fff" stroke-linecap="round" stroke-linejoin="round" stroke-width="2"/><path d="M1315.18,900l.24,42.82L1496,944l-.77-46.24c-3.4-15.54,1.08-31.63,1-47.53-.06-12-3.21-24.42-.38-36.12-4.42,0-8.84,0-13.26-.13-31.82-1-63.66-1.46-95.51-1.55-24.88-.07-49.18-.27-74.06-1-.86,13.41-1.38,26.83-1.31,40.26,0,6.36.18,12.71.34,19.06.23,9,.93,18.07,1.15,27.09l35.82-.32,34.88-.32,107.41-1a71.83,71.83,0,0,0-15.9-5.7" transform="translate(-425 -575.03)" fill="none" stroke="#fff" stroke-linecap="round" stroke-linejoin="round" stroke-width="2"/><line x1="1054.84" y1="314.68" x2="1054.6" y2="239.08" fill="none" stroke="#fff" stroke-linecap="round" stroke-linejoin="round" stroke-width="2"/><line x1="907.06" y1="324.47" x2="907.3" y2="366.8" fill="none" stroke="#fff" stroke-linecap="round" stroke-linejoin="round" stroke-width="2"/><line x1="930.91" y1="323.74" x2="931.16" y2="366.07" fill="none" stroke="#fff" stroke-linecap="round" stroke-linejoin="round" stroke-width="2"/><line x1="949.27" y1="324.23" x2="949.51" y2="366.56" fill="none" stroke="#fff" stroke-linecap="round" stroke-linejoin="round" stroke-width="2"/><line x1="976.67" y1="323.49" x2="976.91" y2="366.8" fill="none" stroke="#fff" stroke-linecap="round" stroke-linejoin="round" stroke-width="2"/><line x1="1000.4" y1="323.74" x2="1000.65" y2="367.04" fill="none" stroke="#fff" stroke-linecap="round" stroke-linejoin="round" stroke-width="2"/><line x1="1036.37" y1="323.49" x2="1036.62" y2="366.8" fill="none" stroke="#fff" stroke-linecap="round" stroke-linejoin="round" stroke-width="2"/><line x1="1055.7" y1="322.27" x2="1055.95" y2="367.78" fill="none" stroke="#fff" stroke-linecap="round" stroke-linejoin="round" stroke-width="2"/><line x1="799.15" y1="136.05" x2="843.41" y2="135.36" fill="none" stroke="#fff" stroke-linecap="round" stroke-linejoin="round" stroke-width="2"/><line x1="891.13" y1="138.12" x2="937.82" y2="137.78" fill="none" stroke="#fff" stroke-linecap="round" stroke-linejoin="round" stroke-width="2"/><line x1="983.12" y1="139.16" x2="1030.15" y2="138.12" fill="none" stroke="#fff" stroke-linecap="round" stroke-linejoin="round" stroke-width="2"/><line x1="987.3" y1="286.43" x2="1022.68" y2="286.71" fill="none" stroke="#fff" stroke-linecap="round" stroke-linejoin="round" stroke-width="2"/><polyline points="768.7 2.88 485.97 4.26 482.59 11.02 490.47 11.02 770.16 12.14" fill="none" stroke="#fff" stroke-linecap="round" stroke-linejoin="round" stroke-width="2"/><path d="M913.67,586.71a13.26,13.26,0,0,0,8.3,10.1c-1,2.48-2,5.38-.74,7.73a14.59,14.59,0,0,0,2.1,2.49,26.32,26.32,0,0,1,4.11,6.86c1.42,3-.33,7.44-.33,10.75,0,15.62.58,31.26-.64,46.83-2.14,27.43,0,55,0,82.56,0,3.93.22,7.86.22,11.79-3.45,1.75-8.34,2.64-11.76,4.47l-45.3,24.17c.14,3.08,3.62,4.12,6.66,4.63s6.12-.33,9.12-1c23.6-5.5,48.21-2.59,72.43-1.67,27.67,1.05,55.36-.54,83-2.13,12.13-.7,24.92.15,37,.94a689.56,689.56,0,0,0,82.21.43" transform="translate(-425 -575.03)" fill="none" stroke="#fff" stroke-linecap="round" stroke-linejoin="round" stroke-width="2"/><path d="M1009.44,814.13c2.17,0,4.62.11,6.06,1.73,1.23,1.37,1.31,3.39,1.33,5.22q.33,34.33.68,68.67a5.11,5.11,0,0,1-.83,3.49c-1,1.11-2.63,1.16-4.1,1.13l-34.74-.77a269.59,269.59,0,0,1-2.23-57.06q.48-7,1.3-13.91c.62-5.23-.08-6.81,4.19-8.41C988.26,811.52,1001.71,814.16,1009.44,814.13Z" transform="translate(-425 -575.03)" fill="none" stroke="#fff" stroke-linecap="round" stroke-linejoin="round" stroke-width="2"/><path d="M1087.88,813.52a406.51,406.51,0,0,0,40.86-.44c0,27.77-.25,55-.27,82.78a214.07,214.07,0,0,0-40,2C1089.63,870.26,1088.49,841.11,1087.88,813.52Z" transform="translate(-425 -575.03)" fill="none" stroke="#fff" stroke-linecap="round" stroke-linejoin="round" stroke-width="2"/><path d="M949.37,670.18l43.59.75c-.71,29.51-1.08,58.82-1.79,88.32a360,360,0,0,1-43.48-4.17C947,741.31,947.87,685.05,949.37,670.18Z" transform="translate(-425 -575.03)" fill="none" stroke="#fff" stroke-linecap="round" stroke-linejoin="round" stroke-width="2"/><path d="M1042.62,672l40.84-.45c1.38,27.75,1.17,55.3.4,83.07a251.3,251.3,0,0,0-39.56,1.26C1045.11,728.09,1045,699.68,1042.62,672Z" transform="translate(-425 -575.03)" fill="none" stroke="#fff" stroke-linecap="round" stroke-linejoin="round" stroke-width="2"/><path d="M1135.33,669.07h39.18q.49,43.59.92,87.19c-13.61,0-27,.55-40.65.55C1132.07,727.3,1133.44,698.65,1135.33,669.07Z" transform="translate(-425 -575.03)" fill="none" stroke="#fff" stroke-linecap="round" stroke-linejoin="round" stroke-width="2"/><line x1="524.92" y1="140.39" x2="565.75" y2="139.84" fill="none" stroke="#fff" stroke-linecap="round" stroke-linejoin="round" stroke-width="2"/><line x1="620.93" y1="139.29" x2="659.01" y2="139.29" fill="none" stroke="#fff" stroke-linecap="round" stroke-linejoin="round" stroke-width="2"/><line x1="708.12" y1="138.18" x2="748.4" y2="138.74" fill="none" stroke="#fff" stroke-linecap="round" stroke-linejoin="round" stroke-width="2"/><polyline points="451.34 224.06 450.98 250.75 450.93 254.03 449.32 372.7 504.5 371.6 505.61 252.41" fill="none" stroke="#fff" stroke-linecap="round" stroke-linejoin="round" stroke-width="2"/><path d="M876.53,829.1H928.4" transform="translate(-425 -575.03)" fill="none" stroke="#fff" stroke-linecap="round" stroke-linejoin="round" stroke-width="2"/><path d="M919.43,846.47a6.53,6.53,0,0,0-4.35-3.21c-4.19-1.4-8.63-2.82-13-1.88a16.63,16.63,0,0,0-8.87,5.82,49.18,49.18,0,0,0-5.66,9.17c12.92.8,26-2.32,38.77-.17C923.93,853.19,922.14,849.18,919.43,846.47Z" transform="translate(-425 -575.03)" fill="none" stroke="#fff" stroke-linecap="round" stroke-linejoin="round" stroke-width="2"/><path d="M901.59,891.63l8.14-.6c1.15-.09,2.78.28,2.65,1.42-.09.8-1,1.16-1.84,1.3a19.26,19.26,0,0,1-7.71-.27c-1-.23-2.19-1.14-1.63-2" transform="translate(-425 -575.03)" fill="none" stroke="#fff" stroke-linecap="round" stroke-linejoin="round" stroke-width="2"/><path d="M929.5,946.63l222.78,5.49c1.79-42.1,3.59-84.22,3.41-126.36,0-3.93-.07-7.94-1.31-11.67-1.83-5.47-6.2-11-3.91-16.35" transform="translate(-425 -575.03)" fill="none" stroke="#fff" stroke-linecap="round" stroke-linejoin="round" stroke-width="2"/></svg>