<svg id="Layer_1_copy" data-name="Layer 1 copy" xmlns="http://www.w3.org/2000/svg" viewBox="0 0 434.89 280.98"><title>nyc_outline_1</title><g id="Map_1:_NYC_Boroughs_Besides_SI" data-name="Map 1: NYC Boroughs Besides SI"><path d="M494.69,70.86l2.53,1.28,3.9,1.93,1.74.89,1.09.58,1.15.52,2.19,1.09h.35l.17.13.23.19.29.17.26.17.29.15.3.12h.31l.32.17.26.15.14,0,.11.07.22.11.32.15.08.06.12,0,.8.43.11-.1.14-.1.41-.36-.19-.16-.19-.45.08-.18,0,0,.11,0,.1,0,.21.18.3-.31-.53-.31-.13-.07-.09-.07V77l0-.27.48-.23.12,0,.09,0,.08.11.08.09.25.36.43.2.36-.09,0-.38.34-.3.27.14.29-.12.77-.89,0-.6.35-.62,0-.08-.06-.11h-.12l-.23-.11-.06-.16.45-.52.17,0,.3.25.08.07.08.08h.42l.52-.17,0-.24-.46-.15-.09,0-.09,0-.47-.65.18-.23.38-.08.79.21h.1l.13,0,.38-.08.66-.57h1.24l.84-.9-.07-.28-.53-.14-.64-.11-.06-.11,0-.1-.11-.32.58-.7,1-.55.2,0,.25-.07.44-.53.62-.31.24,0,.24.16-.19.39.25.26.24,0,.73-.29.43-.09.09-.23.5.21-.94.76-.69.59-.46.38-1.14.94-.68.57,1.13.66.37.23,1.08.61.63.33.85-.68.37-.32,1,.69.87.59,2,1.25,1.07.55,1.07.53.73.3-.18.6-.17.53-.06.65L533,78l1.37.25,1.37.26,1.33.21.19,1,0,.42,0,.53,0,1.34V82l0,.11,0,.12,0,.11,0,.1.05.13.63,1.26.81,1.62,0,.11v.24l0,.12,0,.12,0,.12,0,.09,0,.11-.07.11,0,.11-.73,1-.1.74.5,2.5.42,2.19.47,0,.84.47,1.37.68,1.37.53,2.13,1.18,1.15.5,1.06.52,1.1.66,1.13.52,1.5.75.31.15.87.47,1,.49,2.56,1.23,1.66.8.32.15,1.42.91.16-.07v0l0,0,0-.07v-.08l0,0v0l0-.06v0h0l-.06-.06,0,0h0l-.06,0-.07,0h-.34l-.1,0h0l0,0h-.14l-.09-.07,0,0,0,0,0,0,0,0v-.05h0V102l0-.07v-.09l0-.07,0-.07,0-.11,0-.09v0l0-.07,0,0v0l0-.06-.07,0,0,0,0,0,0,0v-.12l.21-.37.74-.21,2.88,1.33,1.33.65.09,0,.11.07,1.41.83.86.37,1.29.57.78.29.32.25.54.24.12,0,.08.07,2,.83,1.76.77,1.32.58,1.75.79.59.25.94.39,1.47.77,1.52.66,2,.83.41.17.36.16,1.72.74,1.25.66,3.37,1.47,2,1,.5.23,1.35.6,1.81.83,1,.48.27.12,1.07.6-.43.66-.55.31-.41.71-1.85,1.65-.79-.36.46,1.4-2.28,3.37-1.38.9-.21.53-.46.82-1.67.73-.43-.42-1.33.45-.25.88-.68.8-.14.1v.15l-.21.08-.06.11v.18l-.19.25v.17l-.16.17v.07l-.06.09h0l-.08.14-.07.13-.09,0-.14.12h-.22l-.08-.07-.27.15-.12,0-.13,0-.37.17-.28.18.06.08-.13.07-.13-.09v.1l0,.05-.11,0-.1.15,0,.14.15.1-.07.11-.27-.1-.31.22-.08.06-.14,0-.21.6,0,.13v.15l0,.16.09.06-.11.06,0,.13-.1.12h-.09l0,.23-.33.21-.22-.13-.1-.16-.12-.12-.14.12-.14.07h-.12l-.11-.07-.07-.13-.1-.16-.09,0-.15,0,0,.12-.06.21-.25,0,0-.1-.09-.07-.06,0-.09.1-.1,0,.08-.15,0-.11-.11-.06-.07,0h-.12l-.08-.09-.1-.16-.06-.06-.26,0h-.15l-.16.12,0,.06-.15,0-.19,0-.08.06-.32-.11.11-.08v-.07l-.08-.06,0-.08.06,0,.11,0h.1l.14-.12.08,0,0-.12v-.12l0-.1-.1-.09-.26-.19,0-.18-.15-.12-.17-.13-.1-.26v-.1l-.23-.09-.12-.12,0-.12h-.1l-.07-.14-.12,0-.13-.07h-.1l0-.21-.18,0-.2-.06-.09-.06-.23-.12-.25-.19v-.19l.06-.09,0-.08-.15.15-.11-.07-.2-.11-.11-.09,0-.1-.11.05-.16,0-.2-.08v-.2l-.12.1-.21,0-.24,0-.19,0,0,.15.23,0,.23.09,0,.05h.1l.24.22,0,.06h0l.16,0-.1.11,0,.09.08.11-.18.07-.14.12-.16.09.18.08h.41l.15,0,.07,0v.06l.14.07.2,0,.09,0,0,0h.12l.14.07,0,.09v.12l0,.14-.06.06-.13,0-.12,0-.09.08-.11.08,0,.05-.1,0-.09.1v.13l-.14,0,0,.05V133l-.08.08h-.1l-.09,0-.1,0-.05,0-.14,0,.08.09v.08l-.06.06-.12,0-.1,0-.06.06-.18.07,0,0,.15,0,.16-.09.1,0,.07.06.14-.12.13-.08.16-.07.11,0,0-.06.05,0,.07-.09.1,0,0-.09.07,0,.06.06h.17l.16.05h.13l.06,0h.1l0,0,.15,0,.06.06.06.09,0,0,.13.09.09,0,.06,0h.1v.1l-.06.06,0,.1,0,.12-.06.08v.1l0,.12-.08,0,0,0-.13.05,0,.05.14,0h.07l.15,0,.12,0,.06.06v.05h-.07l-.06,0h-.12l0,0,.07,0,.13-.05.06.06,0,.14.11,0,.09,0v.1l.08.09,0,.08h.17l.12,0,.15.12.08.09.15,0,.11.06.07,0,.1,0,.07,0v.08l.08.11.08-.06.11,0,.12,0,.08.06h.12l0,0,.11,0,.07.11.07.18v.27l0,.18v.21l-.12.25,0,.56-.1.25,0,.24.12,0h.22l.07-.11.06-.11.12,0,.07,0,.19-.09.08-.08.18-.17h.19l.34.18.31,0h.17l.11,0,.06.11h.14l.11.11-.23.16.06.11-.11.2-.08.05.11,0,0,.21-.11.06,0,.16v.63l.23.09.15.1.3.1.24,0,.12-.14.24.14.14-.2h.29l.08-.2.09-.38,0-.15.44-.43.19-.11L582,138l.82-.81L583,137l.13-.29.26-.27.31-.09.38-.35.19-.11.08-.18.25-.18.14-.24.14-.08.1-.17,0-.21.2,0,.1,0,.09-.21.22-.15.16-.22.06-.18.15-.17.17-.26.36-.43.25-.27.22-.16.05-.13.13-.05.09-.11.27-.12.44-.44.11-.1.11-.05.17,0,.15,0,.24,0,.11,0h.21l.1,0,.07-.13,3-.28,1.41-1.65.91-2,.12-.81.64-.35-1.34-.7-.17-.37,1-1.17,1.26-.53,0-.36.22-.18.43,0,.26.14.26,0,.33-.09.15-.29.27-.12.28.05.77.08.49-.32,0-.24-.2-.28.1-.13.46-.13,1.24-.15.1,0,.11,0,.09,0,.09,0,.18,0,.09.06-.12.23,0,.34-.08.16-.31.09.15.71-.29.21-.26.13-.39,0-.46.13.6.91,1.64.49.74,0,.45.06.38.06.26,0,.26,0,.86.1.27.29.81.51.48.2.38,0,.21.09,0,.15.2.23v.19l0,.27-.1.3-.62,1h-.44l0,.71,0,.39-.23,0-.15.16,0,.14-.43.1-.29.24v.22l-.25-.12-.13-.07-.42.32-.35.42-.18.38.15.23-.28-.08-.32,0-.1.15-.07.14-.4.05-.19.26-.1.29-.18.48-.13.57.44.39.65.34.36-.23.37-.3.48-.36.37-.47h.29l.08.12-.09.1-.09.08,0,.1-.14.12h0l-.39.3,0,.18-.13.3,0,.28-.11.05-.09.37.36.6.3-.46.32-.4.2-.16.89-1.06.43-.49h.31l.48.2.19.28-.23.35-.29.12-.14,0-.15.19-.14,0-.17.11,0,.1.22.29-.06.21.49.28.26.14.06.21-.09.64-.17.28-.19.24,0,.26,0,.18-.17.28-.14.13-.21.08-.07.21-.12,0h-.24l-.13.05-.13.15-.09,0-.14.1-.08.05-.18.17-.06.08h-.15l-.2.06,0,0h-.25l-.21.13-.27.25-.36.4-.62.74,0,0h-.05v0h0l0,0,.25-.45.12-.29-.15-.39-.42-.23-.7-.07-1.18-.18-.38-.09h-.49l-.38-.14-1.35.2-.29,0-.36.08-.39,0-.73.38-.4.06-.86.72-.51.45-.39.51-.16.22-.13.22-.14.24-.14.25-.12.24L594,142l-.09.25-.07.26-.07.25-.07.26,0,.26,0,.26,0,.27,0,.26v.27l0,.27,0,.28,0,.27.05.25,0,.28.08.26.09.26.08.26.13.26-.78,1.38-.07.25-.36,0-.31.07-.1,0-.83,0-.14.1-.26.05-.4.07-.18.17-.11.12-.15.15,0,.16.18.11-.16.07h-.25l-.21.21-.11.25,0,.25-.23.18-.22.15-.22.16-.33.5-.31.5,0,.25,0,.28.05.25.06.25,0,.25.08.26,0,0,0,0,0,.05,0,0,0,0,0,.06v.07l0,.05v.05l0,0,0,.07v.05l0,0-.06.06-.18,0h-.34l-.07,0,0,0-.1-.14-1-.09-1.76,0-.22.13-.22.13-.22.16-.2.16-.18.16-.2.16-.15.17-.18.19-.15.19-.13.17-.37,0-.33-.35-.28.08-.63,1.08v.12l0,.13,0,.15,0,.13.05.13.06.11.07.13.1.12.08.11.18.1.15.1.15.12.13.1.15.12-.06,1.43-.84,1.73-1.68.65-.13.1-.11.08-.14.1-.1.13-.12.1-.09.1-.07.14-.1.13,0,.11-.07.13,0,.1,0,.09,0,.09,0,.09-.06.06-.06.06-.09.09-.1.29,0,0,0,0h-.07l-.06,0-.08,0h-.24l-.16-.08-.15-.1-.15-.1-.13-.1-.13-.11-.1-.12-.13-.12-.09-.14-.08-.13-.07-.14-.07-.13-.05-.16,0-.12,0-.15,0-.15v-.13l0-.14,0-.14,0-.14,0-.12v-.15l0-.12,0-.13,0-.13-.12-.38-.13-.37-.16-.37-.15-.36-.18-.35-.18-.38-.21-.35-.18-.35-.23-.35-.23-.36-.23-.36-.38-.89-.16-2v-.07l0-.09,0-.07.06-.06.06-.06.08,0,.08,0,.08-.06h.07l.11,0h.61l.08,0h0l.06-.07,0,0,0,0,0-.07,0-.07v-.12l-.07-.69-.08-.24-.05-.27,0-.24v-.32l0-.39,0-.47,0-.47,0-.41.06-.46.07-.25,0-.12v-.27l0,0-.07-.18-.11-.19-.07-.3,0-.35-.05-.42.05-.56,0-.28,0-.28.11-.25v0l.09-.25,0-.18-.09-.18,0-.11-.06-.08-.08-.09-.09-.07-.1-.09-.09-.06-.11-.05-.11-.06-.12,0-.14-.05-.11,0-.12,0h-.15l-.11,0-.11,0-.08,0-.1,0,0,0-.09.06-.06.07,0,.06,0,.07,0,.07.26,2-.46.11h-.58l-.24-.17-.21-.18-.24-.19-.4-.07-.41.1-.46.28-.08.19-.24.1-.11-.34-.39-.53-.39-.46-.31-.17-.18-.23-.57-.86-.21-.37-.22-.53-.09-.31-.26-.19-.2-.11,0-.36-.33-.23-.15-.1-.16-.07-.13-.1-.08-.06-.09,0-.09,0-.1,0-.09,0-.26,0h-.07l0,0h-.05v0l0,0,0,0h-.14l0,0,0,0v-.09l0,0v0h0l0,0-.06-.06-.07,0-.12-.12-.15-.13-.13-.09-.15-.1-.05,0,0,0h0l-.07,0h-.29l0,0,0,0,0-.13-.07-.16-.08-.13-.07-.14,0-.05,0,0,0-.05v0l0-.05v-.09l0,0h0l0,0,0,0h-.12l-.18,0h-.07l0,0,0,0,.07-.11.06-.09,0-.07h-.08l-.09.11-.16.07-.11.07,0,.11,0,.05,0,.06-.44.58-.16,0-.17.12h-.09l-.12,0h-.27l0,0,0-.06,0,0-.13.08-.68.66-1.54,1.55.12.05.57.32.52.14.34-.16.62.08-.13.3,1.32.72,1.06,2.5-.55,6.45-5.52-.87-.3.31-.5.64-.27.66v.1l0,.09-.06.08-.06.09-.06.09,0,0-.06.06,0,.05v.29l0,.06v0l0,.06,0,.07,0,0,0,.07v.1l.06.08.05,0h0l.09,0h.12l0,0-.05,0,0,0h-.06l-.07,0,0,.06v.07l0,0,0,0,0,.07,0,.12,0,.08,0,.05,0,.15.06.09.06.06.06.06h.1l.11,0,.12.05.13.07.11.09.12,0h.05l.08,0h.09l0,0,0,.08.09.06.11,0h.23l.11,0,0,0v0l-.13,0-.1,0h0l-.21.08,0,.09,0,.11.07,0,0,.07-.12,0h-.19L558,157l0,.17,0,.1.32.55.16.22.07.13.05.13v.15l.16.2.11.07H559l.14-.05.08,0,.09.09,0,.12-.17.09-.08,0-.09.13,0,.11,0,.1,0,.08,0,.09-.18.06-.11.11-.06.16-.14.12-.1,0-.09,0h0l-.11.08-.07.09v.17l0,.09,0,.08.09.06.11,0,.1,0v.05l0,0-.07,0-.07,0-.06,0-.1,0h-.12l0,0-.11.05-.09.11-.08.15,0,.16-.08.33,0,.24,0,.26v.17l0,.05v0l0,.06,0,0,.25.14.06,0,.09,0,.06-.06h0l.39-.29.16-.1.45-.16.16-.07.1,0,.37-.16v0l0-.06,0,0,.14.2h0l0-.05h0l-.37.16-.16.06-.29.12-.26.1-.16.07-.11.08,0,0-.14.1h0l-.15.12h0v0h.24l.52-.16h.12l0,0,.07,0,0,0,0,.06.11,0,.23-.08.15-.05,0,0,.08,0h0l.08,0h0l.08,0h.06l.07,0h.06l.05,0h0l.05,0,.06,0h.07l0,0,.08,0h.07l.05,0,0,0,.08,0,.05,0h.08l0,0,.07,0v0l-.06-.06,0,0,.11.12,0,.08,0,0,0-.08h0l-.08,0h0l-.08,0,0,0-.08,0,0,0h0l-.08,0-.08,0,0,0h-.07l-.06,0,0,0-.24.08h-.05l-.15,0v0l-.23.06-.36.15-.11,0,.27.42h.27l0,.07-.35.23.05.11-.1,0-.11.06-.08,0-.1,0-.32.16,0,.13,1.23-.48.24.28.13,0,1.05-.3,0,.08-1,.34-.29.12,0,.07H560l.73-.31h0l-.76.31h-.08v0l.07.12.39-.13,0,0-.38.1,0,.05.05.11.18-.06,0,0-.2.07.06.06.19.13,0,0,0,0v0l.16-.21.07-.09,0-.06,0,0,0-.07,0,0v0l.1-.1,0-.05h0l.06-.07.08.07v0l-.09-.06,0,0v0l-.05,0v0l0,0v0l-.15.17,0,.06v0l0,0,0,0-.06.07,0,.06v0l-.06,0v0l0,0v0h0l.2.11.29,0,0-.07v0l.07-.09,0-.06,0-.09.07-.09,0-.07,0,0,0-.09h0v0l0-.07.13-.17,0,0,0-.07v0l.06-.06v0l.06-.07v0l.06-.06v0l.05-.06-.06,0v0l.16.08v0l-.1,0,0,.07-.19.26v0l0,.07,0,0-.07.08-.06.09v0l0,.07-.09.13,0,.09h0l0,.07v0l0,0,0,.07,0,0,0,0-.07.09h.07l0,0,0,0,0,0,0,0h.12l.09,0,.06,0,0,0-.15-.1-.21,0,0,0,.23,0,.18.08,0-.09.15-.27.13-.17.1-.18.06-.09,0-.06v0l.14-.22,0-.09,0-.06,0,0,0-.07.14-.27.07-.08-.09,0v0l.16.08h-.07l-.11.22,0,0,0,.1,0,0,0,0v.05l0,0,0,.07,0,.07h0l0,.07v0l0,.07,0,.07,0,0,0,.06v0l-.06.06v0l0,.07,0,0,0,.07,0,.09h0l0,.09v0l-.06.06v0l0,.07v0l-.06.07.32.13,0,0-.29-.13,0,0,.09,0,.08.07.09,0,0,0V165l.11,0,.21-.33-.14,0,0,0,.09,0,.52-.86,0,0,.43-.66,0,0-.09,0,0,0,0,0,0,0,.13.07.07-.08-.55-.25-.18-.08,0,0,.16.08.54.24.07-.13.18.08-1,1.6,0,0-.14.24,0,0v.05l-.18.33h0v.07l-.14.24,0,0-.15.29,0,.07-.06.08v.08l-.16-.08.15-.29h0l-.12.23v0l-.08,0,.08-.13.07-.16h-.07l-.22-.09v0h0l.27.12h0l0,0v0l.11-.2-.32-.13,0,0,0,0,0,0-.06,0v0l-.18-.08,0-.05.07,0v-.05h0l0,0h-.07l0-.09.57.24-.06.07h0l0,0,.19-.36-.11,0v0h0v0h0l0,0h0l-.16,0-.19,0L561,165l-.17-.05-.14,0-.12,0-.13-.05v-.09h0l-.07,0h-.09l0,0h0l0,0v0l0,0,0,0h-.27l-.08,0-.05,0-.06,0-.05,0,0,.05,0,0h.44v-.05h.17v0l.07,0v0h-.29v0h-.08v0h-.32v.13l0,.05,0,0,0,.06,0,.05.07,0,.07,0h.16l.12,0,.09,0,.06.06,0,0v.07l.06.06,0,.06V166l0,.07,0,.08v.27l0,.07,0,.06-.06,0-.06.07h-.11l-.08,0h-.85l-.1,0-.1,0h-.34l-.12,0-.09,0-.12,0-.09,0-.09,0-.12-.29,0-.47v0l0,0v0l0,0h0l-.11-.07-.1-.09-.11-.07,0,0h0v0l0,0v-.1l0,0v0h0v0l-.05,0h-.07l-.61-.1h-.08l-.07,0h0l0,0,0,0v0h0l0,0h0v0l0,0v0l0,0,0,0v.09l0,0,0,.05h0l0,0,0,0h0l0,0h0l0,0h0l0,0,0,0v0h0v0h0v0h0l0,0,0,0h-.07v0h0l0,0h0l0,0,0,0h-.09l0,0h-.07v0h0l0,0,0,0,0,0v0l0,0v0l0,0v0h0v0h-.05l0,0h-.09l-.12,0-.11-.07-.13-.07-.43-.08-.54-.07,0,0v0l0,0v0h0v0h0v0l0,0v0l0,0v.12h.09l0,0h0l0,0h0l.06,0,0,0,.08,0h.24l.1,0h.07l0,0h.05l.07,0,0,.05.07,0,0,.06,0,.05,0,0,0,.05,0,.06,0,.08.07.06h.11l.56,0H556l0,0,0,.06,0,.07v0l0,0,0,0,0,.06,0,.06,0,.07,0,.06V166l0,0v.1l0,0v.05l0,.06v.08l0,.1,0,.1.06.11v.08l0,.1.07,0,.09.06.08.07,0,0,0,.06,0,.06v0l.13.39.77.06v0l-.71-.08.07.11.16.08.07,0,0,0,0,0,0,0,0,0-.06,0,0,0,0,0-.05,0,0,.07v.12l0,.06,0,.07,0,.1v.12l0,.15.06.11,0,0,.06.06.07.06v.13l0,.09,0,0,0,.06v.05l.63-.11v0h0l0,.08-.7.09v.1l0,0v.27l0,.05,0,.08,0,0v.08l0,0v.24h.19v0h-.2v.6l.17.42h.61v0h-.61l0,0,0,0h0l0,0h0v0l0,0v0l0,0v.11l.34,0H558l.09,0,0,0H558l0,0h-.44V172l-.2.48-1,.2,0,0,0,0h-.07v0h0l0,0-.08,0-.08,0h-.25l-.06,0-.1.06-.11.08-.12.07-.09.11-.08.06-.07.11-.06.08,0,.07,0,0v.1l0,0h0l0,.05-.11,0-.06.06,0,.07v.29l0,.17v.17l0,.14v.54l.06.1.06.06.06.06,0,.06,0,0-.06.06v.24l0,.18,0,.12,0,.13.11.07.06.08,0,0,0,.06h.27l.06,0h.07l.07,0,0,0v.05l0,0h-.1l-.09,0,0,0-.13,0h-.27l-.08,0h0l0,.09v.22h0l0,0H555l.07,0,.12,0h.28v0l-.06,0-.11,0h-.37l-.1,0,0,0,0,0,0,.11,0,.09,0,.12v.1l0,.06,0,0,0,0,0,.07-.06.06,0,.06,0,.1-.07.08v.12l0,.11,0,0,0,0h.19l.1,0h.12l0,0v0l-.05,0h-.44l0,0v.05l0,.11v.41h.14v0h-.15l0,.32,0,.1,0,.06v0l0,.05,0,0,0,0,0,0,0,0,0,0,0,0,0,0,0,0h-.07l0,.07v0l0,.07v.43l0,.08,0,.11,0,.05,0,0v0l0,.07.06.08V181l.06.22v.2l0,.06,0,0,0,0h0v0l0,.05V182l.06.09,0,.05.06.06,0,0,0,0h.07l0,0,0,0,0,0,0,0h0l0,0v0l0,0,0,0v.06l0,.05,0,0,0,0h0l0,0v.15l0,.09,0,.06,0,.15v.09l0,0,.51-.13,0,0-.53.12,0,.26.07,0,0,.06,0,0,.06.06,0,0v.05l.05,0,.61-.19h0l.28-.07,0,0-.28.08-.61.16,0,0,0,.06v0l0,.06H556l0,0v0l0,.05,0,0v0l0,.05.64-.18h0l-.66.17,0,.06,0,.08.11.09,0,.05.08.07.07,0,0,0,0,0,0,0v.06l0,.05,0,0,0,0v0l0,0-.06,0,.23-.06,0,0-.08,0,0,0-.2,0v.07l0,.13,0,.07.09,0,.06.06v0l.16,0,0,0-.18,0,0,.05v.12l0,.06,0,0,0,0,0,0h0l.05,0h.12v0l0,0,0,0h-.05l0,0,0,.07v0l0,.05,0,.11.05.1.06.06.07.06,0,0,.07,0h.39l0,.05-.06,0,0,0,0,0h-.2l0,0,0,0v.05h.1l0,0,0,0v0h-.13l0,.05,0,0h.22l.07,0,0,0,0,0,.06.08,0,.07v.05h0l0,0,0,0,0,0,0,0v.05l.06.06,0,.08.45.06.48.06.45.05.45.08.45.08.47.11.45.08.44.12,0,0v0h.07l0,0v0h0v.14l0,.09,0,.07v.07l0,0,0,0,0,0,0,0,0,0h0l-.07,0,0,0-.06-.06,0-.05,0-.06-1-.18,0,.19,1.07.19v0l.3.08-.33-.06v0l-2.08-.37v0l1,.18,0-.19-.14,0-.14,0-.14,0-.14,0-.14,0-.12,0-.12,0h-.39l-.12,0-.13,0h-.27l-.12,0-.14,0h-.1v0l0,0,0,0v.19l0,.06,0,.05-.21.06-.2.06-.21.09-.21.08h-.08l-.08,0-.08,0-.06.06-.08.06,0,.05-.06,0,0,0-.08,0-.08,0h-.08l-.07,0h-.1l0,0,0,0,0,0,0,0v.07l0,0v0l0,0,0,0,0,0,0,0,0,0,0,0,0,.05v0l0,0v.05l0,0v0l0,.05,0,0,.61,0,.5,0V190l-.48,0h0l-.6,0,0,.05-.06,0h0l-.08,0h-.1l0,0,0,0,0,0,0,0,0,0v.17l0,.08,0,.05,0,.08.75-.16v0l-.73.17,0,0,0,0,0,0,0,0,0,0v.12l0,0V191l-.06,0,0,0v.08l0,.08.07,0,.09,0,0,0,.1,0,.09,0,.09,0,.11.07.45,0,0,0h.1v0l1.19-.21v0l-1.1.2h-.1l0,0h-.1v0l-.38,0,0,0,0,0,0,0,0,0,0,0,0,0v.05l0,.05v0l-.06,0-.05,0-.08,0-.05,0-.18.06-.18,0-.2,0-.31.07-.3.05v.07l0,.09v.15l0,.1,0,.08.06.06.06.09.06.06.68.16.13-.19.18,0,0,0,.05,0,.08,0,.05,0h.07l.06,0,0,0,0-.05v0l0,0,0-.05,0-.05,0-.07,0-.08,0-.07,0-.06v0h0v0h0l0,0h0l.07.06,0,0v.05l0,.06,0,.08.05.08.06.08.06.06.09.07.09.06.09,0,.11,0,.09,0h.17l.1,0H558l0,0,0,0,0,0,0,0,.1-.06-.06-.15h0l.05.14.15,0,.1,0h.17l.05,0,0,0v-.24l0,0h0l0,0h0l0,0v.05l.07,0h0l0,0,.06-.07.1,0,.1,0v-.34l.12,0v.29h.1l0,0h.25l.1,0H560l.06-.06,0,0,0,0h.07l0,0h.07l.12,0h.22l.15,0,.18,0,0,0,.15-.12.21-.13.13,0,.06-.06.11-.06,0-.09.05-.13,0,0,.1,0,.14.05.13.07.14.05h.1l.17,0,.07,0h.1l0,0,.07,0,.13.05.15,0,.12,0,.11,0v0h0v.05l.09,0h.17l.06-.06,0-.07.07,0,0,0v0l.09.07.06.06.06.08.06.06.09.09,0,.1,0,.08,0,.08h.09l.09,0,.09.05.07,0v0l0,0v.12l.06.09,0,.15.05.13v.24l0,.11,0,.07,0,.08,0,0h.07l0,0v0h-.19l-.08,0,0,.06v.2l.06.08h.07l.09,0,.07,0h0v0l0,0h-.3l0,.09-.06.08,0,.13v.1l0,0h.08l.07,0h.1l.06,0,0,0v0h-.27l-.06.06,0,.07v.15l0,.12.05.13,0,0,.06.06.13,0,.12,0h.1l0,.06H565l-.11,0-.12,0-.09.08,0,0v0l0,.13,0,.15.1.12.1,0,.15,0h.12l.1,0v.05h-.07l-.11,0h-.09l-.08,0,0,0,0,.09,0,.07.1.29,0,.13,0,.1.15.54,0,.17V198l-.07.15-.09.06-.08.08-.19.8.2.93,0,0,.25.39.27.39.17.27.5.72.12.17.12.14.12.15.15.14.14.15.15.15.17.13.17.12.18.11,0,0,.16,0,.16.05.14,0,.17,0,.16,0,.19,0,.1,0,.08,0,.06-.09v-.11l0,0,0-.05.06,0H569l.07,0,.11,0,0,0,0,0h.05l.06,0h.17l0,0,0,.1.08.09.07,0,0,.06.09,0,.13.07.14.07.13.07.14,0,.13.08.13.09.09.07h.11l.15,0,.14,0,.13.09.1.14,0,0v.13l0,.11,0,.1.07.06.12.09.11.09.13.08.11.07.16.07.13.1.12,0,.15.1.16.08.13.07.13.07,1.08.63.09.07.12,0,.11,0h.05l.07,0,0,0,0,0,0,0,.09.18,0,.06.11.07.14,0,.13.07.07,0,.1.95v.12l-.08,0-.43.21-.49-.35-.75.21-.5-.21-1.5,1.24-.32.55-.54.13-.61,0-.29.24-.37.32-.24.4-.42,0,.23.48.09.21.08,0,0,.08H569l0,0h0l-.16-.32-.22-.43-.29,0H568l-.08,0-.05,0,0,0-.11,0-.11.06-.1,0-.13,0H567l-.12,0-.12,0-.14-.05-.11,0-.12-.07-.09,0,0,0,0,0h-.07l0,0,0,0h-.07l0,0,0,0v-.1l.2-.28,0-.09-.1-.07-.21.21-.05,0,.28-.29-.09-.09,0,0-.07-.11,0,0-.08-.11,0,0-.08-.11,0-.06,0,0-.19-.28-.06-.08h0l-.16,0v0h0l.18-.07.06,0,0,0-.14.05.08.11.24.31v0l.06.06,0,0,0,.06,0,.06,0,0,.07.06v.05l.12.17h0l-.09.08.13.1.1-.16.11-.1h.13l.05,0,0-.14-.14,0-.13-.05v0l.11.05v0l.18.08v-.07l-.09,0h-.09l-.12,0v0l-.08-.11,0-.06,0-.05-.05-.09h0l-.06-.08v0l-.29-.44h-.12l0,0,0,0-.1-.14,0,0h0l0,0,0,0,0-.06-.14-.19-.08-.09h0l-.11.05v0l.13-.05.2.25,0,0v.06l0,0,.05.08,0,0,.05.09h.1l0,.05.06.09,0,0,0,.06,0,0,0,.05,0,.06v0l.06.06,0,.06v0l0,.06h0l0,.08,0,.06v0l.06.06,0,.05.11,0,.07,0,.09,0,.08-.18-.34-.67,0-.08-.37-.5-.31-.45-.19,0-.06,0h0l0-.05,0,0,0,0,.05,0,0,0v-.13l0-.1-.06-.18-.14-.22,0,0,0-.1,0-.1,0-.06,0-.05-.07-.06-.06-.06v-.08l0-.05,0-.06-.06-.06h0l0,0,0,0v0l0,0v-.05l0,0,0-.06-.07,0,0-.06-.06,0-.69-.51-.14,0-.27-.39h-.12l-.11-.36-.16-.18,0,0h0l0,.1.24.58.08.11.1.14,0,0,0,0,.08.09,0,0,.07.06.06.06.06.06,0,0h0l0,0,0,.06h0l.06.06v0l.07.06,0,0h0l0,0,0,0,.06.08h0l.05,0,0,.06.1.11.23.34v0l0,0,.05.11,0,.05v0l0,.08,0,0,0,.06h0l.21.33.08.13v0l-.15.07,0-.05.15,0-.06-.1h0l0-.08,0,0,0,0,0,0,0-.08,0,0-.19-.3-.06-.08,0,0,0,0v0l-.06-.09,0,0,0-.08,0,0,0-.06,0,0-.06-.08,0,0,0,0h-.05l-.13-.12v0l-.07-.06,0,0-.06-.06,0,0,0,0-.17-.15,0,0,0,0-.17-.15,0-.05-.14-.18-.11-.19-.07-.15,0-.06V205l0,0,0-.05h0l0-.06,0-.07v-.08h0l0-.11-.12,0,0,0,.2,0v-.07l-.48.06.05.13,0,.08.05.13v0h0V205l0,.08,0,.08v.08l.07.16,0,0v.06l0,.08h0l-.17-.41-.16-.47,0-.13h0l-.13,0,.05.45.16.3v0l0,.06.12.41.05,0v0l.23.06v0l-.21-.06h-.07l0,.09.25.36.89.62,0,.28v.11l.14.05.08.09-.11.08v0l-.06.06,0,.07.05,0,.1.09,0,0,0,.09v0l0,.08,0,.14-.06.45-.05,0,0,.05,0,0v.14l0,0h0l0,0v.1h0v0l0,0v0l0,0v0l.13.19-.06.11,0,.43.25.33v0l0,0v0l0,0v0l0,0v.07l0,.06v.15l0,0v.08l0,.06.06.08,0,.05.06,0,.09.06.26-.07h0l0,0v0l0,0,0,0v0h0l0,0,.43-.08,0,.08.2,0,.21.35.31.47.08.09.09.43v.51l.25.51.42.41.24.39.05,0h.14l.07,0v-.08h0v0h0l1-.54.2-.11.25.22.22-.14h0l-.22.15-.16.1-.39.39,1.72.91,2.09.54,3.44,2.34,2.46,1.65.11.07.07.06,1.66,1.05.77.09H581l.08,0,0,0,.06,0,0,0,0,0v0l0,0v-.09l0,0,0,0,0,0h0l0,0-.05,0,0,0-.06-.06,0-.05,0,0v-.05l0,0v0h0l0,0h.07l0,0,0,0,.18.08.18.1.18.08.2.09,0,.12,0,.13,0,.12v.27l0,.12,0,.14,0,.12.37.43.16.46.11.36,0,.34v.15l-.2.43-.22.32-.44.29-.16.07-.55.22h-.78l-.13,0-.11,0-.1,0h-.1l-.09,0h-.1l-.16,0-.12.05-.13-.1-.16-.08-.16-.07-.15-.08-.17,0-.18-.06-.16-.05-.19,0-.19,0-.15-.1-.07-.18-.09,0-.08-.11-.33-.33,0-.23-.64-.38-.3-.54-.13-.2-.14-.19-.16-.2-.16-.17-.16-.2-.19-.18-.19-.16-.07,0-.29.28-.22-.13,0,0-.36-.26.23-.2-.19-.06-.69-.19-.16-.1-.94-.61-1.14-.83-2-2-1-.71-.17-.17v-.05l-.08-.06-.09-.07-.11-.07-.09,0-.11,0-.12,0-.15-.08-.23-.09-.26-.07-.24,0-.26,0-.18,0-.26.08-.25,0-.18.07h-.18l-.13.05,0,0-.06.08,0,.07,0,0v0l0,0,0,0h0l0,0h-.15l0,0,0-.08,0-.08,0-.07v-.1l-.1-.12-.21-.23-.22-.23-.21-.21-.19-.18-.21-.18,0,0,0,0,0,0-.09,0,.08-.06,0,0,0,0-.21-.16-.17-.15-.19-.16-.2-.13-.22-.16-.21-.16-.24-.14-.49-.45-.62-.6-.08-.23-.1-.24-.14-.22-.13-.24-.15-.25-.18-.22-.11-.17-.14-.17-.12-.17-.2-.23-.21-.2-.2-.24-.23-.21-.24-.18-.23-.22-.26-.19-.24-.16-.24-.17-.06,0-.12,0-.11,0-.14-.05-.12,0h-.34l-.14.22-.16,0v-.1l0,0,0,0h0l0,0h-.14l-.05,0h0l0,0,0,0,0-.05,0,0,0,0,0,0-.12-.05-.11,0h-.07l-.09,0h0l-.15,0h-.14l0,0,0,.05,0,0h0l0,0,0,0,0,0,0,0-.08,0-.1,0-.11,0-.14-.05-.1,0-.09,0-.09-.06-.09,0-.07,0-.11,0h-.1l-.08-.07-.08-.08-.09-.07-.09,0-.11-.07-.28-.09-.16-.06,0,0-.1,0h0l.06,0,0,0-.5-.33H552l-.09,0-.11,0-.19.75.12,0v0l-.07,0-.06,0h-.05v0l0,0-.14,0v0l.17,0,.16-.75-.29,0h0l-.19-.06h0l-.17,0-.43,0-.26,0-.19,0-.13-.12-.09-.29-.44-.17-.37-.09-.27,0-.12.13H548l-.15,0h0l0,.26h0l0-.26h-.29l-.23-.06h-.2l-.05.18h0v.07h0v.07h-.07l0-.07,0-.06h0l0-.19h-.15v.05l0,0h-.07l-.07,0-.36,0-.12,0h-.86l-.29,0-.13,0h-.31l-.18,0-.12,0-.16,0-.1,0,0,.09,0,.16-.39,0v-.19l-.08-.06-.1,0,0,.25h.07l0,.1-.07,0v.05h0l.12.39h.05v0l-1.14.12,0,0,1.07-.11-.09-.3-1,.09v0l1-.09v0l0-.08h-.07l0-.08,0,0,0-.27-.35,0h-.15l-.14,0h-.17l-.08,0,0,0,0,0v0h0v0h-.15l0,0-.07,0,0,.06h-.1l.07.16-.06,0-.08-.21-.14,0-.11.08v0l0,.11h-.06l-.07-.16-.28,0-.21,0v.1h0l0-.07H541l.12.44h0l-.1-.28,0,0,0-.15-.47,0-.14.08h-.24l-.1,0-.14,0-.15,0h-.3l-.08,0v0l0,0v.1h0l0,0,0-.08-.1,0h-.27l-.07,0-.3,0-.24,0-.21.06-.28.07-.65.06.24.6h0l-.06-.1-.06-.06,0-.05-.15-.36h-.13l-.12,0,.32.64h0l0,.1-.05,0-.06-.11h0l-.32-.65-.2,0-.13,0,.28.66,0,0-.28-.66-.12,0-.08,0,.23.62.09.19h0l-.29-.83h-.15l.16.47,0,0v.08h0l.08.21h0l-.08-.21h0l0-.08h0l-.06-.16h0l-.12-.29-.18,0,.15.39,0,0-.15-.39h0l0,0h-.05l0,0-.07.13,0,0h0l0,0h0l-.11,0L535,207l-.24-.07-.25-.09-.25-.09-.25-.07-.26-.07-.26-.07-.26-.05-.26,0-.27,0-.26,0-.26,0H532l-.25,0h-.27l-.25,0-.25,0-.25.05-.23.06-.26.08-.23.08-.21.08-.24.08-.24.13-.24.13-.25.15-.21.13-.23.16-.19.16-.23.18-.18.16-.2.18-.17.17-.65,1.27-.07.14,0,.14,0,.13,0,.14,0,.17v.29l0,.15,0,.15.05.16,0,.13.07.16.07.13.08.13.09.14.1.14-.16.66.09,1.38-.31.14,0,.12-.09-.05-.36,0-.36-.07-.35-.06-.38-.09-.35-.09-.35-.08-.32-.11-.34-.11-.35-.13-.34-.13-.32-.13-.31-.16-.31-.15-.32-.15-.72-.45-.7-.34-.29-.12-.32-.13-.15-.1-.16-.1-.15-.13-.08-.08-.1-.1-.58-1.14,0,0V210l0,0v-.11l0-.05,0,0,0-.16,0-.19v-.51l0-.18,0-.18,0-.17-.06-.19-.07-.15-.12-.15,0-.15v-.14l-.06-.23-.07-.16,0-.16-.06-.2-.1-.16,0-.28-.14-.17-.11-.19-.09-.31-.08-.23,0-.18-.14-.22-.1-.26-.08-.21-.11-.24-.1-.24,0-.15-.08-.23-.1-.12-.1-.16,0-.17,0-.17.06-.18.07-.26v-.39l-.08-.13V202l0-.11,0,0,.09-.1.07-.14,0-.11v-.27l.11-.18.15-.16.05,0,.21-.19.13-.07.09-.08v0h0l.18-.07.11-.08.07-.11v-.14l0-.12.1-.15.09-.21.21-.91-.07-.31.07-.28.15-.26-.05-.26,0-.08,0,0v-.72l0-.05,0-.06-.07,0-.06-.06-.07-.16,0-.18,0-.18,0-.17.26-.47v-.17l0-.07V195l0-.09,0-.06.06-.07.06-.06.08-.06.09-.06.08,0,1-.8.41-.08.31-.67.16-.07-.13-.22-.34-.16.07-.23.11-.25.06-.31.07-.4.17-.58.07-.25v-.27l0-.58.16-.09.07-.14,0-.1-.11,0-.09,0,0-.09,0,0,0-.07,0,0,0-.14v-.1l0-.14-.08-.13-.09-.17h-.05l-.27-.09,0-.15,0,0v0l.11-.1,0-.08.08-.06-.15-.25v-.36l.06-.17V187l-.07-.15,0-.21,0,0-.07-.06,0,0h-.07l0,0-.07,0,0,0,0-.05,0-.06,0,0,0,0v-.07l-.08-.53-.38-1.06-.2-.5-.23-.5v-.27l-.14-.61-.14-.29-.18-.62-.21-.62,0-.1-.07-.16-.06-.21-.14-.31v0l0-.05v-.54l0-.17v-.21l.3-1,.62-1,.06-.09,1.64-1.14.15,0,.76-.45,1.27-.84.4-.18.29-.26.22-.26,0-.14.08-.13.06-.21,0-.2v-.24l0-.2,0-.24,0-.16v-1l0-.19v-.2l0-.26V170l0-.24.13-.49-.07-.13.12-.25v-.27l0-.34.05-.28.14-.27,0,0,.09-.25v-.34l-.19-.15L524,167v-1.07l-.79-.07,0,.44,0,.1.08.11,0,.07v.1l0,.12.09,0,0-.12h0v.14l-.11,0v.13l-.08.15,0,0,.16.47-.08,0v.62h.1v-.12h0l0,.29h0l0-.14h-.1l-.09.25,0,.51v.31l0,.15v.17l-.07.11,0,.34-.08.42h.12l0-.24h0v.25l0,0v0h0v.08H523v0h.15l0,0H523l0,0,.11,0v0l-.12,0v.08H523v0H523v.1h.19v.17l0,.05h0V171H523V171h.16l0,0H523v.07h.12v0H523l0,.05.16,0h.07v0H523v.09l.12,0v0l-.1,0v0h.13v0h-.12v.08l.12,0v0h-.09v.07l.12,0h-.1v.08h.1v0h-.12v.07h.12v0h-.12v.07h.1v0h-.12V172l.12,0h0v0h-.05v0l-.1,0v.07l.12,0v0l-.09,0v.07h.1v.05l-.22,0v0h.19v0H523l0,0h.17l0,0H523v0h.19v.1h0v.07l-.12,0,0,0h-.16v.1l0,.18-.08.18-.09.23-.29.41,0,.06-.27.42-.42.32-.86.45-.6.34-1.05.59-.59.14-.22.3-.31.22-.14.12-.24.22.08.12-.47.76-.16,0-.08.08,0,.09h.1l-.07.28-.07-.06,0,.67-.08.5,0,.15,0,.18v.12l0,.08V180l.1.29,0,.08v.34l0,.17,0,.15,0,.11v.19l0,.1.06.08v.15l.15.27.17.93h.07L518,184h-.08l.38.89v.1l.07.26.08.13.09.43,0,.25v.15l.17.15.25.8.12.39v.1l0,.21-.05,0,0,.1.26.85V189l.09.16,0,.17.08.11-.07.11.05.25.08.24,0,.18-.17.36,0,.2,0,.16-.17.12,0,.14-.11.08,0,.14-.11.23,0,.15.11.09-.1.33-.22.1-.14,0h-.05l.05.11-.08.06v.07l-.13.05h-.22l-.12,0-.14.09h-.14l-.08.14-.09,0-.2.13-.19,0-.11,0h0l0,0,0,0-.14.07-.21.11h-.2l-.25,0,0,0-.05,0-.06,0-.26.37-.05.29v.26l-.51.72-.7.63-.17.26L514,196l0,.27-.17.11-.07.28-.46.41-.23.28-.25.17-.08.23-.44.53-.16.24-.16.22v.19l-.42.68-.24.28-.21.25-.2.28-.2.29-.19.25-.17.27-.17.28-.14.27-.12.13-.13,0-.14,0-.44.17-.16.19-.09.13-.21.38-.3.43-1,.05-.41-.17-.28-.49-.08-.52-.05-.11-.07-.16-.45-1.49-.63-.72-.74-.6-.84-.49-.2-.1-.28-.1-.08-.36-.09-.16L502,197l-.26,0-.25-.1-.3,0-.32-.08.1-.15.2,0,0,0h-.25l-.1-.09-.12-.05-.28.07-.15-.22h-.1l.14.17.05.17.25.07,0,.12v.1l0,.06,0,.11-.07.11-.47,0,.05,0,0,0v.15l.09,0-.06,0h-.63l-.49-.16-.75-.43-.63-.43-.12-.16-.22-.29L497,196l-.1.15,0,.18.35.18.4.39.35.23.4.19.34.14.5.23h.32l.14,0h.15l.16-.05h.09l.08,0,.05,0h.4l.54.12.19.11.26.07.3.12.15.1.22,0,.19.13.2.11.19.17.18.21.19.18.09.06.08.06.07.06.08,0,.07,0,.16.1.13.07.15.13.13.09.1.12.12.12.1.11.08.11.08.14.07.13.07.14.05.13,0,.09v.07l0,.11,0,.09-.07.09,0,.09-.06.06-.07.11-.06.07,0,0-.11.07-.06.07v.07l0,.07.1.11,0,.08,0,.08,0,.1v.1l-.06.07-.09.1-.09.08-.08.06-.09.08-.07.11-.06.09,0,.09-.07.11-.06,0-.1,0-.1,0-.09.09-.06.06,0,0,0,.09-.05.16-.06.09-.07.11h.19v.05h0v0h-.19l-.21.48h.22v0l-.25,0,0,0v.07l0,.05v0l0,0v.27h.3v.05l-.32,0,0,.14.55.07v0l-.55,0v0l0,0v.17l0,.06,0,0,0,.09,0,.1.11.07,0,.05,0,0v0l0,0,0,.05,0,0,0,0,.05,0,.61,0,.57-.05,0,.13-.59.07v0l-.54,0,.08.06v.1l.05.11.16.1.22.11.17.13.22.13.17.15.15.15.12.15v.22l0,.25v.24l-.12.25-.1.17v.22l.08.19.21.2.16.06.19.05.26.15.12.14,0,.29,0,.36-.08.15-.22.18-.35.19-.25,0-.24,0-.23,0-.2,0-.09.06-.06.06-.06-.06v-.17l0,0-.07,0-.06.06v.07l-.06,0h-.09l0,0-.07,0-.06-.08v-.08l0,0-.06-.08L503,210l-.13,0-.09.52-.12,0,.07-.55-.12,0-.11,0-.14,0-.14,0H502l-.17.24,0,.11-.08.16v.05l0,0,0,.07-.08,0-.16,0h-.05l-.39,0-.38-.07-.35-.06-.08-.09-.09,0-.18-.08-.41-.07-.37-.09-.41,0-.31,0-1.91-.22h-.12l-.07,0-.11,0-.19-.09-.32-.1-.26-.05h-.82l-.29-.05-.32-.13-.24-.14-.24-.14-.24-.16-.24-.17v0l.09-.08.09,0,.14,0,.16.1.12.1.15.12.16.08.13.1.16,0h.11l.09-.11v-.14l0-.12v-.12l-.16-.1-.22-.12-.17-.12-.11-.07-.24,0h-.29l-.16-.05-.16-.05-.14,0h-.1l-.14,0-.08-.07-.12,0-.05,0v.1l.11.09.18.1.09,0,.12.1.09.06.09.07v0l-.07,0-.16,0-1.34-.92-.25-.14-.19-.16-.17-.15-.17-.13-.22-.13-.19-.18,0,0,0-.07,0,0h.07l.05,0,0,.06.07,0,0,0,0,0,.07,0,0,0h.05l0,0,.06-.09,0,0,0,0H491v-.09l0-.06,0-.08V206l-.05,0-.07,0v-.1l0-.07v-.07l0,0,0-.05-.06-.06-.07,0-.12,0h-.24l-.1,0,0,0-.06.06,0,.07,0,0v0l0,.08,0,0v0l.06.09v.15l0,.08,0,.1,0,.06v0l0,0h0l0,0h0l0-.08-.13-.22-.07-.18-.06-.21,0-.18,0-.2,0-.16,0-.17,0-.29v-.24l0-.19,0-.09.05,0h.07l.07.06,0,.09v.32l0,.14,0,.14v.12l.05.11.09.07.14,0,.21,0,.22,0,.23-.62.4-1,.08-.2-.17-.84-.12-.55v-1.44l-.09.08,0,.12L491,201l-.07.08h-.12l-.22,0h-.22l-.11.1-.17,0-.23.08-.43.1v.05h.07l0,.08v0l0,0h.05l0,.06v.05l.07,0,.12.17h0v.1l.07,0v0l0,.06.09.19.09,0h.1l.09,0v.07l0,0-.06,0,0,0,0,.17v.56l0,.17v0l0,0h0v0h-.08l0,0h0v0l0-.2v-.22l0-.2,0-.2,0-.13-.05-.13-.05-.13-.08-.11-.08-.11-.07-.13-.1-.1-.11-.11-.1-.09-.13-.1-.13-.09-.13-.1-.13-.07-.16-.06-.16-.07-1.81-.69-.45-.15-2.31-.77-4.29-1.2-1.1-1.94-1.07-2.36-1.11-1.68-.63-.46-.52-.33L469,188.66l-.27.54-.19.4,1.94,1.05.93.48,2.45,1.48.16-.09.08.08-.15.07.28.32.14-.07.08.09-.16.07.06.06.32.42.17.1.69,1.66.5.18v.85l-.17.29,2.23,6.61-.67,1-2.2,2.12L472.31,209l-.11-.07-.15.13.11.09-.24.25-.91.2h-.08l-.3,0-.08,0-.67.1-.53.1-1.48-.43v-.39l-.7-.32-.77-.21-.2.48-2.9-.83.15-.46.12,0,0-.07,0-.49,0-.19,0-.25,0-.25-.07-.16-.24-.12-.42-.12-.23-.09-.37-.09H462l-.21,0h-.17l-.14,0h0l-.21-.06-.18,0-.18,0-.14,0-.2,0-.2,0-.3,0h-.41l-.14,0h-.9l-.14,0h-.54l-.07,0h-.1v.12h-.12v-.12h-.1l-.21,0h-.17l-.12,0h-.78l-.22,0-.17,0,0,0,0,0,0,0h-.07l0,0,0,.09.23.09,0,0H456l0,.06v0h-.08l-.06,0,0,0,0,0-.25-.09,0,.06-1.37-.55-.1-.22-.14,0h0l-.05,0-.07,0,0-.05,0,0,.08,0,.07,0v0l.14.07L454,205l-.42-.29-.23-.19-.13-.19-.11-.24L453,204l0,0,0-.15-.15-.15-.17-.13-.09-.06-.27-.27-.14-.17-.29-.29-.2-.21-.13-.27.21-.06-.09-.16-.08-.13-.16-.06-.19-.32.11-.08-.35-.5-.9.13-.21-.16-.17-.15-.2-.13-.11-.17-.13-.12-.1-.26.1-.27.19-.09.05-.16,0-.06-.54.47-.69.61,0,0-.2-.13,1.27-1.12-.26.12-.13-.09-.14,0h-.12l0,0-.06.06,0,.05-.06,0-.05,0-.09,0-.1,0-.13,0-.14-.07h0l-.09,0-.1-.12-.09,0-.19,0-.19-.06-.19,0-.35-.09-.3-.08,0,.38-.48,0-.08-1.06-.64-.09-.34,0,.08,1h.34l.05.54.44.25h0l.15.07v0l.16.07.06,0v0l.24.12h.05l0,0h0v0l-.2-.11,0,0-.25-.11-.06.08-.18-.08.06-.11-.44-.25-.05-.52h-.05v0l-.09,0h-.22l-.08-1h-.42l-.14,0-.18-.08-.13.05h-.22l-.09,0h-.31l-.15,0-.11,0-.1,0-.16,0-.41-.05h-.14l0,.25h-.2l0-.25H442l.05.66h-.17l0-.72,0-.88-.26,0-.15.17-.15.12h-.07l0,.47,0,.12.05.38,0,0,0,.15h0V198l-.08-.14v-.34l0-.2,0-.33h-.19v.37h-.1l-.07-.26V197h-.19l0,.2,0,.12v.34l.06.31-.12,0-.05-.3v-.34l-.09-.33h-.14V197l0,.12,0,.12-.06,0h-.05l-.11,0-.58,0-.44,0,0,0h-.06l0,.05-.12,0-.06-.06-.06-.21h-.17l0,.28,0,.28h-.1l0-.3-.07-.31h-.17v.07l0,.24H438l-.06-.23,0-.07-.19,0,0,.12,0,.22.08.55h-.1l-.08-.55-.08-.33h-.18v.08l0,.18,0,0v0h0v0l0,.05.06,0,.09.08,0,.07,0,0v0l0,0-.05,0h0v0l-.06,0,0,0-.05,0h-.07l-.33.08-1.49,0-.15,0-.05,0v0l-.47,0h-.64l-.37.05h-.17l-.08,0-.4-.09h-.76l-.33-.06h0l0,0,0,0,0,0v0l0-.07v0l0,0h-.05v0h0v0l0,0v.15l-.06,0,0,.06-.12.13h0l0,0-.25.18-.11-.1-.34.14-.26.12,0,.09H431v0h-.27l-.24.12.1.12h-.05l-.1-.11-.18.09,0,0-.13.07v.1h0v-.12h-.52l0,0,.11.09-.05,0-.08-.09h0l0,0,0,0h-.07l0,0-.05,0,.08.11,0,0-.1-.12,0,0-.05,0-.11.07.08.09-.13.05-.06-.08-.35.2-.13,0,0,0,0,0-.05,0,0,0,0,0-.08.05-.09.09-.14.09-.05,0-.09.06-.16.12-.06.06-.06,0,0,0,0,.05v0l0,.07-.06,0-.05,0-.06,0-.08.08-.11.08-.14.1-.06,0-.05,0,0,0,0,0,0,0-.38.25-.39.27-.06-.06-.21.09-.5.35.17.15-.11.05-.17-.13-.23.16-.13.07.08.09.07,0-.11.08v0l-.64.47-.14.07-.14.1-.05.06-.09.06,0,0,0,0,0,0,0,0h-.12l0,0,0,0v0l-.16.1-.22.15-.06,0h-.12l-.08.06,0,0,.12.05.09,0,.11.07.06,0,.08.09,0,0-.13-.09-.06-.06-.11-.05-.09,0-.07,0-.07,0-.09.1,0,0,.18.25-.08,0-.17-.15-.11-.07-.08-.06-.14-.07-.08.05-.11.08.06.09.15.12.1.09,0,.08v.07l-.08.08-1.32.67-.72.39-.05,0-.1.06-.08,0-.06-.06-.11.06h0l0,.05-.13.15-.14.09-.29.17-.22.11-.2.06-.16.05-.14.12-.14.07,0,0h-.08l-.05,0-.08.05-.08,0-.26.05-.2.06-.13,0-.18,0H417l0,0h-.05l-.09,0-.09,0h-.1l-.07,0-.09,0-.11-.07-.14,0-.42-.1-.47-.13-.21-.06-.37-.07-.35-.08-1.76-1.09-1.28-.89-3.3-2-.11-.06-.09-.07-.1-.09-.09-.06-1.37-1-.22-.31-.36-.72-.16-.46-.33-1-.41-.49-.4-.48-.68-.54-.41-.34-.84-.34-.86-.2-3.3-.39-.42-.22-.81-.39.22-.3.33-.33-.15-.1.27-.29-.38-.73-.38-.06-.24-.07-.13-.07-.12-.29-.55.1-1.37-2.75-.29-.45-.21-.42.05-.16-.75-.87-.65-1-.06-.09,0-.05,0-.06,0,0-.4-.68-.19-.67,0-.79.12-.51.11-.37-.29-.13h0l0,0,.07-.38.14-.1.14-.09.07-.28.16-.1.07-.79.1-.59.55-2,.21-.79v-.05l0-.09v-.05l0-.07.15-.58.06,0,.09-.37,0-.1.07-.41.47-2.52.09-.54.38-2.42v-.12l0-.07v0l.14-1.17.11-.9h.1l.05-.6h0l.06-.77h.07l.06-.57-.07,0,.08-.6.06,0,.05-.56h-.05l.07-.82.05,0,.06-.62h-.07l.06-.48,0-.12,0-.18V163l0-.17,0-.21.05-1.82.05-.41,0-.43.06-.74V159l.1-2.47.06-1,0-.61,0-.41.21-1.72.07-.14,0-.06,0-.07,0-.09,0-.12.08-.15.05-.17,0-.16,0-.17.62-1.45.09-.22.1-.33.31-.63.64-1,.52-.61.81-.76.66-.84,1-1.12.14-.12.09-.08.1-.18,0,0,.06,0,.09-.08L402,144l.06,0,.06,0,0-.12.16-.26v-.32l.15-.19,0,0,.91-1.14.5-.64.05-.26.3-.21.35-.43.11-.49,1.1-1.85.52-.32.3-.44.06-.09.07-.08.27-.15.38-.52,0,0,.06,0,.08,0,.14-.12.06-.09.07-.11,0-.06v0l0-.06.08,0,0-.06.08,0,.11-.05.23-.21.12-.12.12-.13,0-.09,0-.11v0l0-.09.1,0h.1l.11-.05.09-.13.09-.06.11-.1.07-.11.18-.17.18-.09.11-.05.13,0,.09-.11.08-.15.11-.1.16,0,.89-.77.92-.81.36-.35.42-.59.2-.2.44-.54-.14-.07.74-.72.33-.36,1.27-1.24,1.35-1.19.24.18.3-.21-.14-.27,0,0,1.15-1,.54.39.11-.08-.29-.42.05-.14,0-.09.13-.07.13,0,.09-.06v-.12l.48-.38.73-.67.86-.61,1.17-.84.28-.17.57-.46.8-.15.46-.4,1.78-1.35.11-.22,1.43-1.21h.1l.15-.17-.13-.07.08-.06,0,0h0l.06,0,.06,0,0,0v-.07l.5-.35.11-.08,1.3-1,.79.6.81-.68-.58-.47,0,0,0,0,.08-.06.05,0,0,0,.25.21-.16-.34,2.82-2.16.61-.55.06,0,0,0,.06-.06.06,0,0,0,0-.07,0,0,0-.07v-.17l.31-.38.6-.94.38-.59.33-.51.48-.93.79-1.89.47-.43-.19-1.1.3,0,.44-.45,1-.14.52-.88.7-1,.41-.93.52-.88,0-1.15v-.07l0-.06-.07-.14-.11-.21-.7-.85-.83-.83-.81-.92-.52-.51-1.08-.56-1.54-.24-1,1.07-.64.2-3.44,1.1-1.36,1-.06,0-.08,0-1.94-.46-.12,0-.07,0h-.12l-.31.07h-.1l0,0,0-.08-.11-.07-.09-.06h-.12l-.23-.09v0l0,0,0,0H427l-1-.48-.87-.64.05-.09-.14,0-.06-.06h-.05l-.08-.09,0,0,0,0v0l0,0h-.07l0,0-.09-.33-1.49-1.92,0,0,0,0,0,0,0-.08-.17-.17-.28-.35-.08-.06-.11-.07-.23-.11h-.05l-.06,0v0l-.05,0-.06,0-.12-.14-.07-.06-.06-.06-.11,0h-.22l-.08,0,0,0-.05,0h0l-.1,0v0H421l-.37-.13-.07,0-.13,0h-.22l0,0-.05,0h0l-.07,0h0v0l-.16,0-.16,0-.26-.07,0,0h0v.05h-.07l-.05,0h-.05l0,.07h-.07l-.08,0h-.17l1.81-1.68,3.66-5.15.82-1.18.59-.84.88-1.28.37-.57,1.21-2.06,1.24-2,.52-.88.69-1.19.74-1.29.32-.55.35-.5,0-.16-.05-.11,0-.08.42-.32,1.36-2.12.18-.36.3-.58,0,0v-.12l.08,0,3-5.1,0-.16-.23-.21.85-1.6.81-1.3.39.12.16,0,.59-1,2-3.23v0l0,0,0,0v0l-.05,0,0,0-.06-.06,0-.06,0,0,0,0v0h0l0,0v0l.13,0,.12,0h.25l.13-.07.64-1.28v-.09l.06-.07.07,0v-.1l1.06-2.42.08-.13.49-1.16h.1l0-.09-.05-.11.22-.6,0-.09,0-.12,0-.08,0-.16-.07-.47.3-.43.1,0,.09-.05.08-.06.06,0,.08-.06.06-.06v-.07l0,0v0l0,0,.06-.09.06-.08.09-.09.11-.07.09-.09.11,0h.15l0,0h.05l.06,0,.1-.18.6-.92.28.25,2.05.9,7.64,4.19,2.42.92.83.44L462.64,55l1.1.39.77.45,5.31,2.66,8.11,4,.07,0,.07,0,.49.23,1,.54.13.05.83.42,1.28.74,2,1,4,1.92.25.11h.07l.07,0h0l.2.13.65.33,1.14.57,1.06.5,1,.55.86.4,1.55.73h0" transform="translate(-250.9 -46.9)" fill="none" stroke="#0f26a6" stroke-miterlimit="10" stroke-width="0.25" fill-rule="evenodd"/><path d="M596.34,152.08l0,0,0,0v.05l.07.06h0v.09l0,0,0,0v0l.07.06,0,.05v.06l.07,0h.1l0,0v.1l0,0-.09.4-.06.18v.1l0,.11v.1h0v.1h0V154h.71v0h.13l0,0h.19V154h-.19l-.12,0v0l-.73,0v.43l0,.09v.07l-.06,0,0,0v0l0,.05,0,.09v0l0,.08,0,0-.06,0-.05,0,0,0v0l0,.07,0,.08,0,.1,0,.06,0,0v.05l0,0,.07,0h0l0,0v.05l0,.06v.07h0l0,.08,0,0,0,.23v0l0,.15h0v.2l-.16.39v.19l-.18,0h0v.08l0,.08h.08v0l.06,0h0l0,0,0,.05,0,.09,0,.06,0,.07,0,0v0h0l0,0h-.08l0,0,0,.07v.15l0,0v0l0,.05-.06,0v0l0,0,0,.08,0,0v.08l0,.15.67-.05.33,0v0l.13,0v0h.27v0h-.41v0l-1,.07v.05h.18l0,.08.54,0h.22l.09,0h.17l.17,0h0l.06,0,0,0,0,0v.15h.29l0,0H598l0,.07h-.08l-.12,0h0l-.13,0-.29,0-.28,0-.08,0h-.12l-.06,0,0,0,0,.07v0l0,.07,0,.08.39.56.51.58,0,0h.07l0,0h-.07l0,0h0l.22.26h0l0,0h0l.1,0,0,0v0l0,0v.08l.21.23.2.25,0,.06.06.06.08.08.44.4.29,0,.27.24,0,0,.16.06h.27l.08,0,.13,0,.07,0h.12l.17,0,.48,0h.29v0l-.2,0h-.07l.36.28,0,.1h.15l0,0h-.15v.05h.23l.31,0h0v.05l.11,0v0l.1,0h0l0,0h-.07l-.16.05.09.18h-.07l-.16,0-.27.05-.28.05h-.22l-.3,0h-.17l-.16,0,.07.28.1,0v0h-.1l0,.05v0l0,0,0,0H601l0,0h0l.07,0,0,0,.09.09,0,0,.07,0h0l0,0,0,0v0l.25,0v0l-.15,0,0,0h-.07l0,0-.06,0v0h0l.06.06v.1l0,0,0,.05-.13.05-.1,0-.09.06,0,0,0,.05,0,.13v.05l0,0,0,.08.09.09v.07l.51,1,.06.06,0,.05,0,0h.39l0,0v0l.1.17.84-.22.26.29.19-.09,0,0-.18.09,0,0,.18-.06h.1l0,0,.28-.07h0l.26-.08,0,0-.26.1,0,0,0,0v0l-.26.08v0l-.1,0-.18.06.22.28H604l.14.19.13,0-.11,0,.08.12.14-.1,0,0-.14.09,0,0,0,0,.14-.09h0l-.11.1h0l0,.18-.42,0-.35,0,0,.13,0,0,0-.18.39,0,0,0-.37,0,0,.07,0,0-.15,0-.42,0h-.07l-.08,0v0l-.11.08,1.11-.07h.17l.29,0,0,.08h.19v-.05h.1l.29,0,0,0h0v0l0,0-.27,0h0v0H605v0l-.05,0h-.42v0l.2.06.06,0v0h-.07v0l-.19-.06h-.07l0-.06-.52.06-.13-.05-1.11.05.13.24,1.26.05.1.24-.07.26,0,.32-.15.17-.47.16v.1l-.32,0-.1.1-.15.05V170h1.46l0,0h.1v0h.59v-.2h.29l0,.25h-.93l-.25.74,0,0,.23-.64h-.8l-.1.3h0l.11-.32h.85v0H603l0,.05-.27,0,0,.15h-.3l.11.63h-.31l0,.25,0,.15-.84.05-.12.27h0l.1-.28h.68l.05,0v0h.17v0h.83v0h-.78l-.17,0v0h-.76l-.08.23h0l-.08.2,0,.13,1.6-.11.12-.15h0l-.13.18-1.65.1-.07-.19.07-.13h-.06l-.15.29.15.12.08.46-.57.21v0l0,.08,0,0h.36v.27l-.35.08.18.33-.58.09v.07l.72,0,.14-.12,0-.05,3.27-.16h0v0l.08,0,.65,1-.08,0-.61-.92h0l.15.68h0l-.15-.66-.66,0,.15.66h0l-.13-.66-.64,0,.14.73h0l-.15-.71h-.61l.16.76h-.05l-.13-.75-.57,0,.17.81h0l-.17-.81-.49,0,.18.89h-.05l-.12-.68-.42,0,.15.81h0l-.2-.82.47,0,0-.17h0l-.12.11-.05,0-.69,0,.19,1.13h.2l-.12-.83h0l.13.82h.14v.07h-.34l0,.08h.29v0h-.31l.11.22.14.17h.22l-.07-.33h.08l0,.35h.56l-.08-.63h0l.09.62h.63l-.09-.72.05,0,.09.75h.73l-.13-.83h.08l.08.8h.75l-.1-.83,0,0,.12.85.49,0,.19-1.09.09,0-.21,1.2-.09,0v-.09l-3.56,0,.18.08.57,0v.05h-.17l2.53,0v.05l-2.46,0v.12H602v0h-.25v.12h.13v0h.1v0h.73v0l-.86,0v0h-.1v0l0,0v.07l0,0,0,.09,0,.11h0v-.08h0l0,.05,1.14-.12v.06l-1.26.11.07.16H602l0,0H602l-.33,0,0,.05.32,0,0,0h-.29l0,0,0,0H602l.17,0v.08h.66v-.05h.07l0,0H603l0-.1H603l-.06-.18h0l.06.19.15,0-.06-.18h.05l.06.2.17,0-.06-.2h0l.07.18h.15l-.06-.21.05,0,.06.21.17,0-.06-.2h.08l0,.22H604l0,0h.08l-.05-.18h.05l0,.18h.1v-.07h.07l0,0,0,0h0l0-.54h.2v.64h-.17v-.07h-.05l-1.24.12v.1l-.86,0v.14l0,.1,0,.09v.18l0,.1.07,0,0,0v.07h1.15l-.05-.38.05,0,0,.43h-1.18l0,.13h.29v0h-.29v.08h0V178l0,.08,0,0h.05l0,0,0,0,0,0v0l0,0h0v0l0,0v0l0,0v0l0,.06v0l0,0,0,0h0l0,.05v.17l0,.12h.32l0,0-.34,0,0,0,0,.06,0,.56h.24v0h-.25l0,.31.29,0h-.29l0,.24,0,.07-.48.89,0,.06-.22.33-.43.22.06.49-.74.34-.44-.3h0l-.09.05-.16.12,0,.22.09.35.1.12-.07.5-.22.15-.28-.07-.34-.84-.4.08H598l-.14-.07-.12-.1-.17-.32-.63.13,0,.08-.16.05-.08-.21.13-.05,0,.08.64-.13-.36-.63-.38,0-.78.4-.22-.26h.05l.16.17.75-.33-.1-.43-.36-.29.25-.73v-.35l0-.09,0-.1-.08-.33-.06-.21-.22-.3-.16-.18-.08-.08-.17,0-.32-.26-.5-.06-.55,0,0,0h-.12l.1,0-.06-.09,0-.25v-.15h0v-.08l-.14-.6h.34l0,0v-.07l-.09-.29h-.32v0l-.3,0v0l-.37,0v.07h0v.22l-.07,0,0-.23,0,0v-.05h-.05v-.07h.41v0H594v0l.36,0-.06-.09h-.29l-.07-.28h.36v-.07l-.2-.38,0,0-.07,0h-.21l-.1,0-.11,0,0-.06,0,0h-.15v0h.14v-.09l0-.07h0l.08,0h0l.1,0,.05,0,0-.08h-.35v0h.34l-.18-.5-.14-.29-.07,0h-.1l0,0H593v0h.44l-.21-.35-.07,0v-.1l0,0,0-.35,0-.1-.18-.25-.78,0,0-.18h-.17l0,.05h-.1v-.1h-.09v.07h0v0l0,.13h-.08l0-.15h0v0h0l0-.17h.08v.09l.1,0,0-.17H592v0h-.2l0,0H592v-.05l0-.11h.1l.56,0,0-.07v-.08l0-.08-.07,0,0-.18h.17v0l-.1-.41-.11-.31-.33-.62,0,0-.12,0-.17-.4-.33-.49-.18-.38-.25,0-.19,0,0-.06.44,0-.25-.65.08,0,0-.05v-.1h-.74v0l.51,0v-.08l0,0,0-.17-.12,0h-.07l0,0-.1,0,0,0,.15,0-.07-.16-.05,0,0-.16-.45,0v-.05l.52-.05h.1v-.05l0,0-.14-.05.15-.46h-.36l0,0h-.13l-.19,0v0l.24,0,0,0v0l.42,0,0-.16-.13,0,0-.12.34,0H591l0-.07v0l0-.53-.36,0,0,0,.39,0,0-.19.12-.23.14-.12v-.07l.3-.17,0-.13h0l0,.11.05-.09.15,0-.11-.19h0l.11.16.92-.22.75-.36,0-.47v-.15h-.51v0h-.58v0h-.39l0,.05h-.05l0-.12h.44v0h.31v0l.09,0v0h.19l0,0h.1v0h.43l-.13-.49h-.22l0,0,0,0h0v.07h-.05v.08h-.12l0-.18h.36v-.06H593v0l.24,0h-.1v0h.15v-.12h.19l0-.12v-.1h-.07l0,0h.07l-.1-.23v-.22h-.25v0l.25,0,0-.08h0V162l.86,0,0-.25-.14,0h-.17l0,0H594l0,0h0v.12h-.14v-.05l0,0v-.08h0v-.08h-.34V162h0v-.22h-.36l0,.2h0l0-.2h-.61l0,.2h-.05l0-.19h-.16v0h.17l0-.15h0l0,.13H593v-.13l0,0,0,.15.37,0,0-.13.07,0v.09l.53,0,0-.27-.59,0,0-.08-1,0v-.12l1,0v-.12h0v.1H593v-.05h.1v0h.17v0h0l0-.1h0v-.1h.05l.25,0,0-.33h-.12l.07.28h0l-.07-.28H593l.05.26H593l0-.26-.32,0,.05.25.22,0,0,0-.32,0,0,0h0l0-.25h-.2l0,0-.17,0v.2l.08,0v0l-.23,0v0h.1l0-.22h0l-.37,0,0,.23h.08l0,0-.28,0v0l.15,0-.06-.23-.4,0,.05.15-.77.09v0l-.3,0,0-.05.3,0,0,0,.74-.08v-.13l-.37,0v-.05l2.65-.14h0l-1.35.06-.06-.21-.17,0v0l.17,0v0l-.18,0,0,0,.2,0-2.73.16.07.32h0l-.08-.36h.1l-.13-.12,0,0,.1.11,0,0,2.64-.17-.12-.43-2.83.18,0,.13h0l-.06-.35h0l0,.2,2.85-.18,0-.2,1.43-.11-.06-.23-.39,0,0-.08-.29,0v.13h0l0-.12-.59,0,0,.25H592l0-.27-.29,0,.05.25h0l-.06-.25-.34,0,.05.23,0,0,0-.25-.32,0,.06.25h-.06l0-.25-.32,0,.05.25h0l-.06-.25-.44,0,.05.25H590l-.07-.28h.1l2.83-.18,0-.18-.35,0-.1-.65-1.77.1.1.51,0,0-.1-.51-.59,0,.08.5h-.05l-.11-.6,0,0v.08l2.43-.14v-.14l.33-.07-.32,0v0l-1.65.08v-.1h0v.08l1.92-.1,0,0-.42,0-.26,0-.18-.08-.07-.11h0v0l-1,0v0h0v-.22h0v.12l.94.07,0,0-.12-.31.83-.15.08-.18-.55-1.27-.23-.35-.54-.29,0-.14,0-.07.09-.06.18-.06.25.11.12-.15,0,0-.72-.18v-.07l.75.18.06-.18.08,0-.19-.05,0,0,0,0v0h0l0-.05h0l0,0,.12,0,0,0-1.52-.51,0,.05h0l.08-.16h0l0,.07,1.49.53.07-.13h.05l-.18-.11h0l.15.1.06-.07-.18-.1h0l.16.08.14-.12-.23,0V154h.07v0l.12,0-.11-.07,0-.13-.41-.29-.06,0h0l-.27.25-.06-.06.26-.22h.07l-.65-.46-.1-.09-.16.31-.12.27-.06,0,0-.07.24-.54.1,0,.1.07,1.06.77,0,0-1-.74.14-.1,0,0-.09.08.65.48.35-.33-.69-.49-.14.1v0h0l.28-.24,0,0-.11.1.86.64,0,0-.15-.1-.35.3.3.25.18-.19.23-.23.38.22.54-.3-.35-.25,0,0-.09-.07,0,0-.41-.29-.2.14,0,0,.3-.22.26-.2h0l-.34.28.38.29h0l.08.07.35.25.23-.2.15-.05.36-.1.34-.26.29-.39-.06-.08h0l0,0,0,0,0-.09.06.06h0l0,0h0l.06.08.1,0h.05l.12,0,.08,0h.37l.05,0,.1,0h.12l.05,0,.06,0,0,0,0,0h0" transform="translate(-250.9 -46.9)" fill="none" stroke="#0f26a6" stroke-miterlimit="10" stroke-width="0.25" fill-rule="evenodd"/><path d="M448.27,209.14l.33.14,0-.07.49.14h0l-.07.11-.16,0,0,0,.13.47.42-.06h.38l.14,0,.14,0h0l.13.05.08,0,.07,0,.05,0,.07,0,.07,0,.06,0,.05,0,.06,0,.14.11.06.05.05.05h0l0,0,0,0,.06.05.08.07.06.06,0,0v0l.07.07.08.11,0,0,.11.13.11.12.12.12.15.15.18.19.16.17.18.18.07.07.06.06.05.06.05.06.13.17.11.16.15.2.09.12.1.13.06.06.09.1.08.1.05,0,.11.11.1.1.05,0v0l0,0,.06.11.08.14.05.09,0,0,0,0,0,0,0,0,.05,0,0,0,.11.08,0,0,0,0,0,0h.05v0l0-.05,0-.06v0l0-.08v0h0v0h.15l0,0,0,0,0,.05,0,0,0,.05.06.12,0,0,0,0,.05,0,0,0,.07.09,0,0,0,0,0,0h.08l.06,0,.15.05.05,0,.07,0,.07,0,0,0h0l.08.07.11.08.1.08.06,0,.07.05.06,0,0,0,.12.06.13.06.11.06h0l.06,0h0l.14,0,.13.06.11.05.06,0,.09,0,.07,0h.07l.14,0h.15l.1,0,.12,0,.05,0,.11,0,.14,0,0,0,.11,0,.05,0,.08,0,.06,0,.15.05.16,0,.09,0,.1,0,.18,0,.15,0,.1,0h0l.08,0,.06,0,.06,0,.11,0,.15.05.13.06.14.06.19.08.16.07.11,0,.15.07.17.08.12.07.16.07.07,0,.07,0,.05,0,0,0,.11.09.05,0h.06l.05,0,.1,0,0,0,.05,0,.05,0,0,0,.13.12.19.16.1.09.12.09.13.11.09.06.13.1.12.1.12.08.07.06.06.05,0,0,.06.06,0,0,.11.11.11.1,0,.05.05,0,.11.08.05,0,0,0h0l0,0h0l0,0,.05,0,.08,0h0l0,0,0,0h0l0,.05,0,0,0,0,.06,0,.07,0,0,0h0l0,0v0l0,0,0,.06v0l0,0,0,0,.1.09,0,0,0,0,0,0,0,0,0,.09,0,0,0,0,.05.07.09.13.09.12.11.14.07.07.1.12.08.08.07.07.05,0,.13.09,0,0,0,0,.11.09.06.06.1.07.14.11.12.09,0,0,0,0h.06l.05,0,.07,0,.12,0h.08l.31.17.14.09.09.07.08.06h0l.07,0h0l.1.05.07,0,.06,0,.07.05.08.06.05,0,.06,0,.05.05.12.12.11.1.09.08.13.12.13.1.11.1.05,0h0l.07.06.09.11.13.14.14.18.11.13.05.05,0,.05.08.13.08.13.1.16.09.12v0l0,0,.06.12,0,.08,0,.05v.41l0,.12v.14l0,.08v.21l0,.11v.23h0v.21l0,.11,0,.18v.55l0,.18,0,.21v.14l0,0,0,0-.43.37-.23.14-.24.2-.21.26-.25.31-.37.18-.35.15-.2,0h0l-.31.12-.32.15-.16.07-.13.12,0,0-.15.06-.15,0-.16,0h-.12l-.1,0-.1,0h-.12l-.23-.05-.24,0-.23-.06-.22-.07-.2,0-.32-.1-.32-.08-.32-.08-.32-.06-.32-.06-.33-.06-.33,0-.33,0-.33,0-.33,0-2.16.24-9-3.35-.2-.09-.49-.1-.28-.15-.23,0-.25-.08-.37-.07-.44-.07-.29-.18h-.17l-.55-.19-.79-.32-.31-.27-.6-.4-.37-.64-.1-.39-.09-.21-.14-.65,0-.35v-.16l-.18-.89-.18-.37-.3-.37-.29-.19-.15,0h-.33l-.33-.09h-.28l-.21-.12-.27-.07-.15-.15-.09-.11-.29-3.41.52-1.32,1.8-3.75.52-.32.12-.07.12-.11.07-.08.81-.36,0,0h0l-.08-.15h0l0-.08.1,0,.05.08h0l.07.16h0l0,0,.08-.06-.05-.12h0l-.15-.28h.05l.15.27h0l.05.11.64-.16.05.11h.1l0,0,.32.09.2.07.32.11.2,0h.09l.12,0h.28l.22,0,.22-.08.15-.06.16,0,.07-.05-.26-.13.08-.05-.12-.1.09-.11.14.12-.11-.32-.13,0v0l-.5-.18.05-.09.18,0,0,0" transform="translate(-250.9 -46.9)" fill="none" stroke="#0f26a6" stroke-miterlimit="10" stroke-width="0.25" fill-rule="evenodd"/><path d="M272,327.77a1.53,1.53,0,0,0-1-1.57c2-2.57,3.66-5.44,5.64-8.05,1.36-2.95,4.36-3.95,6.52-6.44,2.5-.64.55.7,0,0,2.5-.64,5-.19,7.23-.12.2,0,.41.62.61.61s.59-.81.95-.84c1.34-.08,1.92-.43,3.05.84,1.48-2.58,5.58-.36,7.47.52.06-.23.11-.46.15-.7.94.37,2.87.18,2.16.87.33.25.55.15.64-.33-.11,1.6.16-.82.07.57.17-.54.16-.19.35-.4,0,0-.69-.77-.42-.44a3,3,0,0,1,.67.19c-.69,1.09-.36,2.61,1.09,2.68-.4.81-.24.83-.19,1.65a4.2,4.2,0,0,1,2-2c-.9,1-2.16,4.5.43,2.54a9.88,9.88,0,0,0-1.14,1.19,12.76,12.76,0,0,1,1.86.81,9.33,9.33,0,0,0-2,2.4c2.4-.81,2.12-2.23,4.55,0-.49-.74-1-1.46-1.52-2.17,1.74.16,2.12,2.2,3.64,2.81a29.11,29.11,0,0,0-2.84-3.89c2.5-.61,2.26,3.73,4.7,3.46l-3.82-4.59c.67.28,4.19,4.07,4.69,3.31.37-.56-3.37-3.43-3.86-3.85.4.29.9.45,1.33.7-.51-1.93-2.51-3.07-4-4.26,1,.21,1.88.77,2.86.33-.85-.78-1.66-1.62-2.44-2.47,2.29-.86,1.85,3.12,3.7,3.12,2.22,0-.38-3.51-.92-4.24,4.34-.2.61,8.6,5.75,8.2-2.31-2.12-3.56-8.65-.7-10.31-1.42-1.09,5.5-9,7.08-10.08s7.45-4.58,6-7.19c1.7-.32,3.19.78,4.59,1.58-4.06-2.67-3.89-7.58-2.22-11.62,2.2-5.34,5.39-7.86,11.31-6.9" transform="translate(-250.9 -46.9)" fill="none" stroke="#0f26a6" stroke-miterlimit="10" stroke-width="0.25" fill-rule="evenodd"/><path d="M346.09,273.68c3.19,2,11,2.67,9.39,8.11a2.11,2.11,0,0,1,1.14-2.28c2.38-.31.38,1.69,1.38,1.69l1-1c1,1,2,1,3,2a68.9,68.9,0,0,0,3,8c3,2,7,3,11,4,4,2,2,7,4,11l2,2c-2,1.87-1.69-1.69,0,0-2,1.87-6-.24-7.69,1.73-.46.54.07,1.84-.31,2.2s-3.21.07-4,.07c2,1.17,0,1.31-.43,2.23-.76,1.54,1.09,2.91-1.84,2.69.84.36,1.61.34,2.34,1.36.61.85.38,2,1.13,2.73.31-1.49-.45-3.09-.86-4.51a5.88,5.88,0,0,1,1.07-.3c-2.77,1.06-.66-1,.69-1.22a.2.2,0,0,1-.06.14c.06-1-.62-1.87.14-2.59.51-.49,2.53-.22,3.21-.23-1.85-3,5.1-2.93,6.49-1.66,2.55,2.32-1.87,1.61-1.43,4,.21,1.13,1.85,1.7,2.42,2.67s.42,2.32,1.28,3.29" transform="translate(-250.9 -46.9)" fill="none" stroke="#0f26a6" stroke-miterlimit="10" stroke-width="0.25" fill-rule="evenodd"/><path d="M416.52,94.23l.06,0,.07,0,0,0h0v.11l0,0,0,0h-.08l-.05,0,0,0,0,0v.11l0,.06,0,.05,0,0,.06,0,.06,0,.07,0,.07,0h.08l.14,0,.14,0,.15,0h.29l.14,0,.14,0,.13,0,.13,0,0,0,0,0,0,0,0,0,.05,0h0l.06,0h.51l.12,0,.11,0,.1,0,.52.2.18.1,0,0,.06,0h.32l.33.11.13.09.05,0,0,0,0,0,0,0,.09.07h0l0,.06.06,0,0,0,.05,0h.09l0,0h0l0,0,0,0,.06,0,0,0,0,0v0h.05v0h0v0l0,0h.08l0,0,0,0,.06,0v0l0,0v0h0v0l0,.25-.06.26-.06.25-.07.25-.08.25v.07l0,.07,0,.06,0,.07,0,0-.09.14-.09.14-.07.14-.06.15,0,.15,0,.15,0,.16v.47l0,.16,0,.16,0,.16.06.16.08.15.08.15.09.15.11.15.11.14.12.13.14.13.14.13.15.12.16.11.17.11.17.09h.12l.07,0,.08,0,.08,0h.22v0h.06l0,0h.12l.05,0h.09l0,0h.16l0,0,.05,0,0,0h0l0,0h0l0,0H424l0,0,0,0,.05,0,0,0,0,0,0,0,0,0v-.08l0,0v-.06h0v0h.16l.05,0v-.06h-.14l0,0,0,0,0,0v0l0,0v0h0v-.09h0v0h0l-.16-.14,0,0,0,0,0,0-.05,0h0l0,0h0l-.09-.07-.07-.06-.06-.06-.05,0,0,0,0,0h-.06l0-.06,0,0,0,0-.21,0h0l0,0v0l.21,0v-.16h0l0,0v0l0,0v-.06l0,0v0h0v0l0,0h0v0h0l0,0v0h0v0l0,0v0l0,0v0h0v-.05h0v-.07h0l0,0v0l0,0h0v0l0,0,0,0,0-.06,0,0v-.07h0v0h0v0H423v0h0v0h.05l0,0h0l0,0,0,0h.07l0,0h.23l.06,0,0,0,.09.06,0,0h.06l.1.08.12.07.12.07,0,.06.05,0,.11.07.09.07.1.05h.13l.08,0,.09.09.05,0,0,0H425l0,0h0l.06,0,.14.1.18.11.1,0,.06,0,0,0,.12.08.07.07.09,0,0,.09-.07.08-.08,0-.1.09,0,0-.05,0,0,0v0l0,0,0,.08-.06,0,0,0,0,0,0,.08,0,.11,0,.11-.07.1,0,.12v.11h0l0,.06h0l0,0,0,.07.06.1,0,.1.06.08.08.09h.23v0H426l0,0v0h0l0,0,0,0h.16l0,0v0l0,0,0,0-.06,0-.05,0-.07-.06,0,0,0,0v0l0,0,0,0h.05l.05,0,.05,0,0,0h0v0h.06l0,0v-.07h.06l0,0,0,0,.05,0,.07,0h.06l0,0,0,0,0,0,0,0h.1l0-.05.14-.09h0l.3-.32h0l.33-.35.1,0-.33.35h0l-.31.32h0v.08l.22-.12h.06l.1,0,.08,0,.09-.06.15,0,.15,0H428l.13,0,.09,0,.06,0h.13l.09,0,.15,0,.14,0,.12,0h.17l.07,0h.13l.17.06.15,0h.12l.17,0h.17l.1,0,.15,0,.23.06.23.07.2.08.12.06.44.21.52.27,0,0,.26.13.12.07.41.17.11.07.19.09.07,0,.05,0,.07.06.06,0,.06,0,.08,0h.07l.12,0,.21.08.15.08.14.07.27.18.25.19.54.4.08,0,.07.07.11.09.08.09.06.06,0,0,.06.06,0,.06h0v0l0,0,.05.09v0l0,0,0,0,0,0v0l0,0,0,0v0l0,0v0l0,0,0,.05.1.09.08.11.07.13,0,.07,0,0v0l0,.12,0,.1,0,.08v0l0,0v.16l0,.11v.47h0v0h0v.08h0l0,0h-.05l0,0h-.05l0,0,0,0,0,0v0l0,0,0,.06h0l0,0,0,0-.06.07h0l0,0h0l0,0,0,0,0,0,0,0v0l0,0,0,0v0l0,0v0l0,0v0l0,0,0,0,0,.06,0,0,0,.06h0v.05l0,0v.11h0l0,0,0,0,0,.07,0,0v.05l0,0,0,0v0l0,0v0l-.05.07v.09h0v0l0,0v0h0l0,0v0l0,0v0h0l0,0v0l0,0h0l0,0,0,0v0l0,0h0l0,0,0,0,0,0v0h0v0l0,0,0,0,0,0,0,0h-.05l0,0h0l0,0-.09-.07-.08,0-.08-.06-.06,0-.05,0h-.05l-.08,0,0,0,0,0v.1l.05,0h0l0,0v0l.29.19v0h0l.05,0,0,0-.05.06,0,0v0h0v0h0l0,0,0,0,0,0v0l0,0v0h-.19l0,0,0,0v0h0v.14l0,0h0v.05l0,0,0,0,0,.07v0l0,0-.07.08,0,0v0l0,.07,0,0,0,0h0l0,0-.06,0,0,0h0l0,0,0,0-.07,0,0,0v0h0v0h0v0h0v0l0,0,0,0h0l0,0v.1l0,0h0l0,0h0v0l0,0,.08.05-.24.19-.17.15-.21.19-.37.31-.27.23-.18.16.22.14v0l-.46.42-.48.43-.66.6-.54.48-.12.12h-.17l-.18,0h-.31l-.73-.07h0l.49.3.06.16.05.2-.78-.51,0,0h-.25l-.24,0v0h0v.07h-.24v0h-.36l0,0,0,.05v.1l0,0,0,0h0l0,0,.05,0,.07,0h0l.08,0,.06,0,0,0h.35l0,0h.05l0,0,0,0v.32h0v.08l0,0h0l-.05,0-.06,0h0l-.06,0,0,0,0,0-.08.1,0,0-.07.08v0l0,.06v0l0,0v.06l0,0h0l.08.06-.1.08,0,0-.1.09-.08.08,0,0,0,0,0,0h-.07l-.06,0h0v0l-.05,0-.09.07-.06,0,0,0,0,0h0l-.1.06,0,0h0l-.24.16-.1,0h-.05l0,0-.08,0-.18.1h0l0,0-.1.06H426l0,0h0l0,0-.1,0h-.06l0,0h-.14l-.06,0-.25.06-.09,0-.12.08-.06.05h0l-.08.08-.06.05,0,0V118l-.08.06,0,0,0,0h0l0,0h0l0,0v0h0l0,0-.06,0-.05,0-.07.06-.09,0,0,0,0,0v0l0,0v.07l0,0,0,0v0h0v0l0,0v0h0v0l.05,0-.07.06,0,0-.16.13-.33.24-.28.2.1.05,0,0,0,.05,0,0v0l0,0,0,0v0l0,0,0,0h0l0,0,0,0,0,0h-.05l0,0,0,0V120l0,0h0l0,0,0,0h0l0,0,0,0-.08.06h0l-.13.1,0,0-.17.12,0,0-.16.12-.21.15-.15.11-.17.13-.1.07-.06,0-.07,0,0,0h0l0,0h0l-.32-.21-.35-.22-.24-.15h0l-.1-.06-.07,0,0,0,0,0h0l0,0,.17.12.07,0,0,0,0,0h0l.13.08,0,0,.14.09,0,0,0,0,.08.05.09.07h0l-.08-.06-.09-.06-.06,0-.14-.09-.5-.33.08-.06h0l-.1-.06h0l-.14-.09-.05,0v0l0,0v0l-.06-.08-.06-.18v0l-.14-.33-.1-.26-.14-.25-.07-.14-.06,0h-.06l0,0H419l-.09,0h0l0,0h0l-.05,0-.09.14-.05.09-.05.06,0,.1,0,.07,0,0,0,0h0v0l0,0h0l0,0h0v0h0v0h-.06l-.05,0v0h0v0h-.05v0h0v0h0v0l0,0,0,0h0v0h0v0l0,0h0l0,0h0v0h-.08v0h-.05l0,0,0,0,0,0h0v0h0v0l0,0,0,0v.06l.05,0,0,0v0l0,0,.06,0h.05l0,0h0v0h0l0,0h.07v0l0,0,0,0h0l0,0,0,0,0,0,0,0v0h0v0l0,0h.05l0,0v0h0l0,0,0,0h0l0,0,.05,0H419l0,0v.08h0v0l0,0v0l0,0h0l0,0,0,0,.05,0,0,0,0,0h0l0,0h0l-.05,0,0,0,0,0h0v0l0,0v.06l0,0v0l0,0h-.05l0,0h.1v0l.06,0v0l0,0-.06.13-.41.72-.11,0-.14.11-.08,0h-.05l-.09,0h-.08l-.06,0,0,0,0,0v.07l0,.08,0,.09-.05,0h-.43l0,0,0,0,0,0-.12.06-.05.09h-.12l0,0,0,0h0l-.1.07h-.07l0,0-.06,0H417l-.07,0-.06.4,0,.05-.05,0-.06.32,0,.4h0l.22-.2,0,0h0l.15-.14h0l.21-.21.14-.13h0l.12-.12h0l.12-.13h0l.12-.12.22.13-.12.13h0l-.12.13,0,0-.11.12-.08,0-.35.34h0l-.15.14h-.05l0,0-.06.06,0,0,0,.06,0,0h0v0h0l0,0-.2.16-.44.38-.25.22-.13.12-.38.35-.47.42-.31.29-.67.63-.73.7-.38.39-.51.51-.08.06,0,0-.07.06-.06.06-.06.07,0,0,0,0-.08.07-.1.11,0,.05-.08.08-.13.14-.11.11-.07.06,0,0-.16.17,0,0-.12.13,0,0-.17.17,0,0,0,0-.23.24-.35.37,0,0-.41.4-.36.36-.35.33-.33.33-.23.25-.25.24-.2.21-.22.23-.54.54-.28.28-.13.13-.3.29-.05.06-.05.06-.06.06,0,0-1.29,1.27-.07.07-.09.1-.08.08-.32.32-.1.1-.07.07-.08.09-.08.09-.1.11-.09.11-.12.15-.1.14-.1.13-.1.13-.13.2-.1.15-.09.15-.15.27-.11.19L403,139l-.1.16,0,.07,0,.05-.1.16-.09.15-.05.08-.06.11-.09.16,0,0,0,0,0,.07-.16.22-.14.16-.44.57-.24.3-.3.37-.54.66-.58.7-1.12,1.37-.3.42-.24.29-.13.15-.17.21-.16.19-.11.14-.08.1-.12.15-.19.23-.23.25-.24.28-.19.25-.15.2-.18.24-.16.23-.05.08L396,148l-.18.27,0,0v.07l0,0h-.15v.12l0,0h-.13v.05l0,0v0l0,0h0l0,0v0l-.05.06V149l0,0h-.05l0,0,0,0-.06.1,0,0-.06.2,0,.07-.06.19,0,.12,0,0,0,.07,0,0V150h0l-.1.27,0,.13v.06l0,.05-.11.38v.05l0,0-.05.19v.08l-.07.31,0,.06v0h0v0l0,0v0l0,0v.08h0v0l0,0h0v0l0,.12v0h0v0l0,0v.11h0l0,0h0v0l0,.23,0,.43h0l-.06.58h0v.32l0,.32-.09,1.94,0,.35,0,0v0h0v.1l0,.06,0,0v0h0V157h0v.1l0,0v.18h-.07v0h0v0h0l0,0v.07h0v.17h0l0,.29h0v0h0v.06h0l0,0v.08l0,.06v.28h0v0l0,0v.07h0v.35h0v.24l0,.95h-.08l0,.27,0,.51-.07.87v0l-.1.79-.09.79,0,.21,0,.08,0,.37-.05.5-.1,1v.07h0l0,.3,0,.21,0,.16-.05.44V167l0,.15,0,.26v.15l0,.18-.06.52v.06l0,.24,0,.19-.07.56v.09l-.05.45,0,0,0,.32.18,0,0,.16,0,.14v.11l0,.08-.2,1.35-.13.78-.14.84-.17.85-.25,1.24-.16,0v0h0v.06l0,0v0l0,0,0,0v0l0,0v0l0,0v.1l0,0v.15l0,0v.12l0,.12,0,.05v.09l0,0v0h0v0l0,0V177l0,.07v.09l0,0,0,.06.21,0-.06.31,0,.07v.06l0,.07v0l-.25.94-.19.71-.09.27-.1.35-.16.49-.12.33-.16.42-.25.74-.11.46-.05.21-.13.52-.08.49,0,.71,0,0v.52l.51,1.55.24.44.07.12.09.13v0l.09.18.17.24.33.5.26.4.92,1.41.06.07,0,0v0l0,0,0,0,0,.05,0,0,.09.15,0,.07.12.19,0,.07v0l0,0,0,0,.05.08v0l.05.1h0l0,0,0,.05,0,.06.09.16,0,.06.09.18v0l0,0v0l.05.1v0l0,0,0,.08v0l0,0,.11.2,0,.08.06.11,0,0,0,.05,0,.07,0,.05.06.18h0l.11.32.05.11,0,.13h0l-.11.09,0,.1,0,.08.07.18,0,0,.1.25.07.32.09.38.05.18.05.21,0,.07.06.27,0,.11V196l0,.32.12.07.1.06v.66l0,.4v.19l0,.43-.12.53-.16.73-.19.87-.44,2,0,.09-.51,1.08,0,0-.37.35-.26.25-.1.1-.22.21,0,0,0,0,.06,0,0,0-.07,0,0,0h0l0,0h0l-.25.25-.05,0-.15.14-.32.12-1,.33-.46.16-.34.11-.2.07-.12,0-.2.07-.1,0-.4.14-.23.07h0l-.2.06-.3.11-.34.13-.21.08h0l-.31.12-.37.17-.24.12L386,207l-.3.14-.11.05-.25.12-.35.15-.47.21-.08,0-.1,0-.15.08h0l.09.1-.43.21-.08-.09-.44.23-.33.31-.49.47-.62.6-.62.59h0l0,.05v0l.08,0,1.08.71,0,0h0l-.15.15h0l-1.13-.71-.15.21-.32.46,0,.05-.25.37-.16.23-.1.15v0l-.09.13-.06.09-.08.12-.22.25h0l0,0-.25.3,0,0-.1.08-.08.06-.47.38-1.17.93-.9.72h-.24l0,0h-.07l-.08,0-.05,0-.05,0h0l0,0h0l0,0-.14,0-.14.05-.11,0h-.14l-.07,0-.06,0h-.11l-.06,0-.28.08-.09,0h-.08l-.05,0-.4.11-.11,0-.22.07-.26.08-.24.07-.24.08-.2.06-.11,0-.07,0,0,0-.15.07-.05,0-.11,0-.16.08-.13.06-.1,0-.12.06-.15.07-.07,0-.07.05-.06,0-.05.05-.06.06-.07.06-.08.09-.07.07-.19.17v0l-.2.27-.57,1.46,0,.35.06.9,0,.66.12.57,1.37-.13h.11v0h0l.2.75v0h-.05l-.83.06v.13l0,.07,0,.06,0,0-.06.05-.06,0-.08,0-.08,0-.08,0,.3,1.06.09,1,.2.14,0,0,0-.15h-.06l-.06-.43h0v0h.09v0h0l.06.43h-.07l0,.18,0,0,.17.11-.11.11-.15-.1,0,0-.17-.11h0l.11.08-.08.09.07,0,.07,0,.06.05.05,0,0,.05,0,.06,0,.06v.07l-.08,1-.16.29-.48.23-.37.64-.59.65-.66.52-.53.42-.47.35-.64.47-.82.6-1.14.67-1.22.72-.8.6-.93.69-1,.72-.92.69-.71.68-.48.47-.33.29-.81.69-.95.73-.89.68-.87.69-.88.69-1.7,1.35-1.69,1.34-2.05,1.24-.21.13-.68.43,0,0-1,.64-.52.33-.44.27-.06,0-.57.36-.39.24-.17.1,0,0-.07,0,0,0-.06,0-.08.05-.37.25-.47.38-.15.07h0l-.78.69,0,.06-.62.57-.54.53-.48.4-.21.13h0l-.35.2-.92.48-.81.65-.1.08,0,0-.73.59-.34.27,0,0-.47.37-.92.71-1.56,1.2-.38.29-.6.47L330,258.58l-.34.28-.08.06-.1.09-.22.18.17.12-.11.08v0h0l0,0h0l0,0-.07.06-.05,0-.05,0,0,0,0,0h0l0,0v0l-.07,0v0h0v0l0,0-.05,0h0l0,0h0l-.07.06-.31.25,0,0h0l0,0h0v0h0v0l-.09.06-.09.09-.13.11,0,0,0,0h0l-.12.11h0l-.07.07h0l0,0,0,0,0,0-.1.09-.05,0-.07.07-.05,0h0l-.1.09h0l-.29.24,0,0h0l0,0h0l-.06,0-.12.11-.07.06-.06.05-.14.12-.2.17v0l-.09.09-.1.09h0l-.06.05-.11.11-.09.09-.28.29-.08-.05,0,0h-.08l-.07.08-.05.05-.17.19.4.29h0v0l0,0,0,0v0l0,0,0,0h0l0,0h0l0,0h0l0,0-.11-.08h0l-.27-.17h0l0,0-.11.12-.15.15.16.1,0,0-.13.14-.13.13-.23.24-.24.26-.07.08-.36.39.15.1,0,0-.06.05-.31.33-.23.59-.05.13-.08.21-.13.3-.11.32-.22.53v0l.1,0h0l0,0v0h0l-.13.32h0l.05,0-.05.12-.06,0h0v0l-.13.33,0,0h0l-.14,0-.49,1v.06l0,.17v.13l0,.15V270l0,.1v.09l0,.08,0,.09h0v0l0,.17h0l0,.24v.14l0,0v.13l0,0,0,.18-.19,1.21v.16l0,.26v0l-.05.88h0l-.49-.06-1.92-1.23-.09.15,0,0h0l.46.3,0,0-.48-.31h0l0,0-.11.28h0l.05,0h0l.37.2,0,0-.38-.2h0l0,0h0l-.05.2v.13l0-.1h.05l0,.05.27.1v0l0,0-.27-.1v0h0v.16l.1,0h0l.17,0h.1v0h0l0,0,.07.06h0l.84.53,0,0,.2.13.28.18.42-.4-.16-.13h0l.2.17-.39.38,0,0,0,0,.06,0,0,0,0,0-.18.16,0,0,0,0-.06,0,0,0,0,0-.06.06-.32-.22,0,.05h0l0,0,0,0v.09l0,.05-.05,0-.06,0-.07,0h-.05l-.09,0,0,0-1.12-.71v.52l0,.2,0,.24v.09l0,.23,0,.15v.19l0,.24,0,.25v.21l0,.15v.19l0,0v0l0,0v.06h0v0h0v0l0,0v0h0v0l0,0h0l0,0,0,0,0,0,0,0,0,0,0,0,0,0h0l0,0h0v0h0l0,0,0,0h-.09l0,0,0,0h0v0l0,.53,0,.53v.37l0,.4v.1l.05.57,0,.07,0,0,0,0,0,0,0,.07.05.09,0,.06.06.09,0,.07.05.08.05.07.1.12.11.11.09.12.12.13.1.11.09.1,0,0,.14.15.11.11h0l.17.18,0,.05.05.07,0,.07.07.11,0,.08,0,.05.09.16h0l.05.1.07.16,0,.13,0,.17v0l0,.1v.51l0,.12v.1l-.06.2,0,.11-.07.19v0l-.05.14-.09.27-.14.39h0V285h0l0,0h-.05l-.1.31.13,0h.09v0h0v0l-.36.94-.11.3-.07.2-.06.16-.05.16-.08.21v0h-.06l-.12.3,0,.1,0,.1-.06.18-.06.15v0l-.06.15-.11.26-.08.2-.07.16v0l0,.05v0l0,.06-.14.32,0,0-.12.26,0,.11-.07.17-.14.32-.09.2-.09.21-.25.58-.89,2.07-.23.54-.24.54-.25.53-.25.53-.27.52-.27.53-.35.63-.35.63-.37.63-.37.62-.39.63-.39.61-.4.61-.42.61,0,.05,0,0,0,.06,0,.07,0,0,0,.06h0l-1,1.48h0l-.33.47-.15.23-.13.18-.07,0-.27.37-.2.26-.13.13-.08.07-.26.23-.17.13-.27.18-.11.06-.25.14-.46.23-.29.13-.15.06-.12,0-.14,0h-.36l-.16,0-.33,0-.22,0-.56-.06h-.14l-1-.11-.34,0h-.07v.1l-.24,0-1.06-.1,0,.53-2.48-.19-.79-.06-1.17-.09-2.81-.22-2.2-.18h0l-.29,0-.08,0,0,0v0l0-1h0l0,0,0,0,0,0h-.22l-.63,0h-.53l-.57,0h-.87l-.38,0H288.7l-.18,0H287.4l-1.23,0-.36-.05-.18,0h-.33l-.29,0h-.82l-.87,0-.29,0-.89,0-.85,0-1.13.11-.29.06-.35.08h0l-.23.07h-.05l-.08,0,0,0-.09,0-.15,0-.11.06-.12,0-.09,0-.09,0-.1,0-.08,0-.06,0-.06,0-.09,0v0l0,0-.07,0h0l0,0,0-.06-.4.12-.09,0v0l0,0,0,0,0,0-.21.08-.15.06-.24.07-.22.07-.32.09-.11,0h-.05l-.45.15.06.1-.14.05h0l.07.11,0,0h0l.21.33-.63.21h0l.91,1.22-.37.15-.91.37-.68-.87h0l-.09,0-.05,0-.52-.32-.17.07.37.47-.08,0,0,0,.47.59h0l-.09,0-.21.09h0l-.16-.22h0l-.14.06h0l-.07-.08h0l.13-.06h0l-1.06-1.34-.39.17-.07,0h0l-.29.12.2.25.11,0,0,0-.12,0,1.14,1.44-.36.15-1.34-1.73-.43.18-.37.17-.38.15-.11,0-.4.16,0,0-.07,0-.14.06-.47.2-.34.15-.19.08-.14-.17-.3.13-.14.05-.24.11.32.36h0l0,0,.44.56h0l0,0,.37.48.08.1-.06,0,0,0,.05,0,0,.05h0l.14.18-.29.12h0l-.12-.16h0v0l0,0h0v0h0l.08,0,0,0-.17.08-.35-.44-.12-.15-.17-.21-.15-.17-.11-.13,0-.05-.06-.11h0l-.23-.29,0,0-.31.12-.34.13-.44.17h0l-.13.15-.07.08-.09.09-.38.15-.61.24-1.11.44h-.05l-.21,0,.61,1.2,1.37-.33.16.34-1.36.32.19.38-.39.1-1-2-2.07.17-.17,0,.06.26h-.25l.06.29h.11l0,.16v.06h-.06v.07h0l0,.06h0l0,.07,0,0h0v0h0v0h0v0h0l0,0,0,0,0,.08h0v0l0,0,0,.07h0l0,0h0l.1.32,0,0h0l0-.06-.07-.26-.06-.24,0-.14,0-.1,0-.09,0-.08,0-.05-.29,0,0,.28v.07l0,0h-.1v0l0-.12,0-.11,0-.1H260l0,.07,0,0v.08l0,.12,0,.09v0l0,0-.06,0,0,0h0l0-.08,0-.06,0-.14v-.09h-.33v.12l0,.1.05.21.06.23,0,.17-.11.06h0l-.11,0,0-.06,0-.08,0-.1v0l-.07-.13V312l-.06-.18,0-.13,0-.07-.29,0v.08l0,.21v.29l0,0-.1,0,0,0,0,0-.06-.11-.06-.12,0-.08,0-.08v-.06l0-.07v0h-.13l-.14,0v.05l0,.15v.36l0,.3v.12l0,0h-.09l0-.05v-.73l0-.23-.29,0,0,.17,0,.12,0,.12-.06.08-.08,0,0,0-.07-.07h0l0,0,.06-.1.05,0,0-.08h0v0h0l0-.07h0l0-.08h0v0h-.08v-.06h0v-.19h.09V311l-.52-.17-.29.56,0,.05h0l-.08.14h0l0,.1-.05.07-.1.19-.12,0v0l.27-.51h0l0,0-.17-.12h0l0,0h0l-.08.07-.14.12-.18.16,0,0h0v0l-.08.1-.05,0v0h0l.08-.08h0l.09-.07.09-.07h0l.11-.1,0,0h0l.12-.1-.39-.29L256,311l-.08.06-.07.06-.07.07-.12.08-.11.08-.11.1,0,0,.11-.11h0l0,0h0l0,0h0l0,0v0h0l.09-.07.1-.09.16-.13,0,0,0-.05-.17-.12h0l-.24-.18-.2.17-.62-.68-.13-.15-.13-.18-.24-.28,0,0-.12-.17L254,309l-.14-.19,0,0-.31-.47-.09-.14-.11-.2-.14-.24h0l-.12-.19h0l0-.07,0,0-.08-.16,0-.08-.06-.12,0-.12,0-.11,0-.07v-.09h0v-.24h-.14v.05l-.15,0v-.12l.16,0v.05h.13v-.14h0v-.08l0-.09,0-.08,0-.05,0-.07h0v0h0l.11-.2-.28-.12-.12.19.13.06-.08.13h0l0,0,.06-.08-.14-.06-.06.1h0l.21-.33-.83,0-.22-.41,1.57.07.07-.11-.07,0h-.05l0,0h-.59l0,0h0l-.09.1-1-.4,0,0,0-.07-.25-1.84v0l.27-.61.23-.52,0,0h.1l.1,0,0,0v0h0l0,0,0,0,0,0h.32l.06,0,0,0,0,0-.05,0,0,0h0v0H252v0H252l0,0,0,0h0v0l0,0,0,0,0,0h.18l0,0,0,0h0v.05h0v.07h.05v-.05l.24-.38.37-.61h0l0-.09-.6-.24,0,0-.2-.08,0,0h0l0,0v0l.25-.55.27-.59.37-.84.29-.66.18-.39.27-.62.08-.18.16-.4.19-.54.14-.37.13-.36.27-.67,0,0h0v.08l-.21.57,1.53.53.18-.38,0-.14v-.14l0-.14.06-.14.07-.08,0,0,.11-.09.13-.07.17-.4-.29-.09-.48-.17-.88-.29-.2.57-.05.12h-.07l.05-.13.23-.63.22-.57.34-.93.06-.17h0l.15-.41.16-.44.37-1,.37-1,.32-.85.4-1.09,0,0h.09l.89.28v0l.36.11v0l.15.05.73.23V287l0,0,0,0h0l.32.09,2,.62.33-.77v0l.1-.25.05-.11.14-.35v0l.12-.3-.72-.22.11-.28-.76-.23,0,0-.35-.09h0l-1.72-.53h0l-.18-.06v0l-.88-.26.18-.45,2.38.72,1.29.39.68.2.26-.69-3.67-1.12.17-.43,3.24,1,.11-.29-.18,0v0l-.49-.15,0-.08h.07v0l.4.11v0l.19.06,0-.06.75.2.13-.36.3-.79.35-.86.34-.84.32-.81.38-1,.4-1h0l-.38-.21-.47-.16-2.38-.67-.87-.25-.51-.14,0-.07,0-.11.05-.17.07-.17.05-.11,1.07.31,1.18.33,1.42.39,1.06.29.63-2.36-4-1,.1-.2.38-1.18.45-1.47v0l.07,0,0,0,3.78,1,.28-1.06.07-.27.32-1.14.23-.92-.69-.15-3.41-.65.07-.36,4.15.78,0-.07h.2l0,0,0,0v-.11l0,0,0,0,0,0,0,0,0,0,.14-.53-1.58-.36.09-.36,1.58.35.1-.35.3-1.07.25-.91-.05,0,0-.06,0,0v0l0,0v-.13l0,0,0,0h.06l0-.06h0l.22-.83.22-.83.16-.62-.81-.18.07-.28,0,0,0,0,0,0v-.05h.12l.79.18.12-.45.16-.62-.15,0-.07,0-.26,0-.85-.2-.12-.09-.13,0h0l.05-.28-.05-.05,0-.07.09,0,.12-.42,0-.13.22-.81-.94-.19,0-.09-.68-.15v-.07l.12,0h0l1.46.32.14,0,.88.2,1.45.31.2-.07v0l0-.05v-.05l0,0,.06-.09.13-.33.18-.46L273,257l.22-.53.1-.27.17-.51-.19-.05v0l-.5-.14.14-.4h0l-3.35-.94,0,0v0l.15-.44,0,0h.07l.05,0,3.26.93,0,0,.13-.36h.06l.47.14.18.05.26-.68.2-.54v0l-.27-.09-.84-.26-.05,0,.15-.38-.48-.13h0v0l0,0,0,.05,0,.06,0,.07,0,0,0,.06,0,.06,0,.07h0l.15.05v0l-.4-.11v0l.15,0h0l0-.11,0-.07v0l0-.07,0,0,0-.06,0-.05v0l0,0-.64-.18h0v0l0,0v.05l0,.06,0,.07,0,.05v0l-.05.16,0,0,.15,0v0l-.45-.12v0l.2.06h0l.05-.15,0,0,0-.11,0-.1V252l0,0-.73-.21,0,0,0,.07v.05l0,.07,0,.05,0,.09v0l0,.09,0,0,.15,0v0l-.45-.12v0l.21,0,0-.12v0l0-.11,0-.05,0-.09,0-.08,0,0-.75-.21-.16.47v0l.15,0v0l-.22-.06.17-.52,0,0v0l0,0,.17-.44v0l0,0h.06l1.42.4,0,0,.55.16v0l.24.08v0l.64.19,0-.09,0-.08,0-.05,0-.08v0l0-.08v0l0-.08,0,0v-.07l0-.1-2.86-.82,0,0,0,0v0l.15-.44,0,0h0l.05,0,2.91.82.28-.78-.56-.16v0h0v0h0v0l-.54-.15v0h.07v0l-1.92-.55,0,0v0l.16-.45,0,0h.09l2.91.83.3-.82h0v0l-.12,0h0l-.45-.12h0l-.14,0v0l-2.17-.62,0,0,0,0v0l.16-.42,0,0h.08l1.48.43.77-1.31.42.06.29-.49-2-1.25.22-.37,1.94,1.27.58-1,0-.06.12-.2.07,0,.18-.29-.29-.14-.48-.3,0,0,.48.3.12.05v0l-.41-.24h0l-.1-.07h0l-.08,0h0l.08-.08.07.05h0l.09.06,0,0,.3.19.1.07,0,0-.11-.06-.84-.54,0,0,1.06.68.1-.18-.48-.31,0,0,0,0h0l-1.27-.8,0,0,0,0,0,0-.1-.07.12-.11-.07-.05.09-.08.16.11-.16.16.06,0h0l1.24.81h0l.06,0,.17-.17.42.27.67-1.13.22-.36.32-.54.23-.39-.15-.1.24-.23.16.1.29-.29h0l-.16-.1.23-.23.16.1.31-.29.26-.25.17-.16.21-.21.62-.6.17-.16L281,238,281,238l.2-.2.65-.62.25.17.69-.68-.2-.14-.39-.27.41-.38-2.4-1.54,0,0,0,0,0,0,.79-.76h.12l.16.1,2.25,1.45.5-.49.37.24.17-.16-.34-.22-.21-.14.08-.07.09-.09-.12-.09h0l-.07-.06.08,0,.07.06h0l.11.09,0,0,.55.36.17-.17-.45-.29.17-.15.4-.37.34-.33.42-.41.43.29.75-.72-2.74-1.8,0,0v0l.17-.16h.07l2.73,1.79.69-.66.43-.41-2.77-1.79.24-.23,2.77,1.78.69-.67-2.7-1.74.33-.34-.14-.09h-.1l0,.05-.08-.05.11-.11h.1l2.51,1.63.42.26,1,.65.42-.15,0,0,.18-.17.12-.12,0,0,.47-.45L288,226.85v0l.38-.37h0l3.51,2.27.11.07.28.18.52-.5,0-.11,0,0,0,0,0-.05v-.05l0,0,0,0,.05,0h.21l.07,0,.06,0,.07-.08.12-.12,0,0v0l-4.06-2.62,0-.05,0,0,.28-.27.05,0h.06l0,0,3.89,2.55h0l.1.06.58-.56.57-.55-4-2.63,0,0v0l.32-.3h.06l0,0,4,2.61.57-.55.6-.59-4.07-2.62v-.05l.3-.28h.11l3,2,.08-.07-.15-.1.23-.21.14.1.54-.53-3.05-2,.44-.43,3.05,2,.72-.7-.17-.11.19-.18.17.11.57-.56-.41-.26.08-.07-.11-.1,0,0-.12-.08,0,0-.09-.06.17-.17h0l.06-.06.08,0-.06.07.12.08,0,0,.16.06h0l.39.26.3-.3.18,0h0l0,0,0,0v-.05l-.09-.14.05,0v0l-2.61-1.68.34-.33,2.61,1.69.55-.52-1.26-.81-1-.62.18-.17,2.21,1.43.12,0,.11.07.55-.52-.07,0H301l-.08.07-.14-.08,0,0-.2-.13,0,0-.11-.08.09-.1,0,0-.9-.61-.08.08,0,0,.09.06-.06.07-1.48-.94.07-.08.11.07h0l.08-.08-.08-.05h0l.05,0h0l-.07,0,.13-.12.06,0,.6.38,2,1.31.12-.1.08-.14.1-.13.11-.08.12-.08.15-.09.12,0,0,0,.1-.15,1.24-1.24.06,0,.07,0,.09,0,.08,0,.21-.1.37-.47-.09,0h-.28l0,0,0-.08.5-.51.11-.1,1-.94.84-.81.26.06.46,0,.49-.48.76-.74.75-.73h0l0,0,.15-.14.36-.34v0l-.47-.06-.07,0-.17-.05h-.48l-.12,0-.13-.05-.13,0-.13,0h-.28l-.12,0-.11,0-.15,0-.16,0h-.3l-.13,0-.13-.05-.11,0,0,0-.05,0h0l-.06.06-.26,0,.22-.21,3.43.43-.05-.12,0-.13,0-.05v-.17l.9-.89.26-.3h0l.12-.17v0l0,0,.16-.22-.07,0,0-.06.07,0,.11-.17.07-.08.07-.07,2.37-2.38.37-.38.24-.24.83-.83.26-.25-.79-1.12-.41.13-1,.83-.06,0,1-.85.49-.15.07-.15h.08l.06,0-.14.21.75,1,.58-.6-.14-.09.05-.05-.06,0-.07.07h0l0,0,.07-.07-.55-.35-.06.05-.06,0,.14-.13.06,0-.06,0,.07.05.51.32h0l.06,0,.05-.05.14.09.14-.13.47-.48-1.45-.31-.24.16-.06,0v-.05l.22-.14.9.2.69.12,1.56-1.57,2.27-2.28.78-.78.83-.84.17-.18.58-.58.69-.69.17-.16.5-.47.14-.14,1.27-1.25,1.68-1.65.83-.82,1.58-1.59.76-.75.2-.2.76-.77.08-.07v-.08l.05-.06.36-.31.47-.48.3-.3.21-.21.21-.22.3-.31.29-.28.57-.54.34-.34.08-.1.2-.18.11-.15.17-.15.11-.06.3-.33.27-.23.13-.18.1-.09,0,0,.19-.21.09-.08v0l.53-.52.64-.61.21-.25.15-.1.21-.1,0-.08.15-.18.15-.13,0-.07.29-.28.25-.22.3-.31,1.06-1,.42-.36.54-.5.19-.18.35-.32.75-.71,0,0,.28-.23.12-.14.3-.24.17-.13,0-.09.15-.21.07-.1.31-.31.15-.12.05-.05v0l.29-.3.13-.12v-.06l.15-.14.11-.08,0-.06.06-.08.07,0,0-.07.13-.17.25-.3.45-.43.15-.15.06,0,.14-.18.08-.1.23-.25.19-.2.17-.15.23-.22.2-.2.2-.21.08-.05.38-.4.15-.15.22-.19.29-.3h0l.23-.22.4-.4,0,0,1.32-1.42.31-.31,1.2-1,.44-.3.07-.06.58-.4,1.09-.8.25-.19.9-.73.6-.47.8-.64.73-.57.22.15.7-.64.11-.11.07-.06.25-.19-.1-.07-.06-.05-.07.05-.15-.12.45-.36.14.11-.33.27.07,0,.11.08.44-.36-.15-.1.14-.12.18-.15-.16-.81,0-.06-.14-.09-.2.2-.85-.54.52-.5.84.54-.21.2.17.11.06.06,0,.07.14.69v0l.15.11.54-.51.09-.23.06-.09.1-.09.22-.19-.36-.22,0,0,.11-.12-1.27-.82h0l-.32-.2,0,0h0l0,0h0l0,0v0h0l0,0,0,0,.71-.74.21-.22,0,0,2.65-2.79.3-.32.39.23,1.07-1.12.15.09h0l0,0,1.48.9.58-.6.2.11.13-.13h0l0,0,.13-.13.15-.14.09-.08.08-.06.05,0,.12-.07,0,0,0,0,.06,0,.05,0,.61-.6,1.06-1.19,1.34-1.41.45-.39.19-.25.24-.17.18-.19.39-.41.21-.18.09-.19.17-.16,0-.13.08-.15.1-.18.16-.18.09-.1.13-.08.08-.07.18-.16.1-.12.05-.07.07-.12.05-.05.13-.09.09-.11.11-.05.67-1.24.17-.25,0,0,.09-.13,0-.11.05-.08,0-.12,0-.08,0-.16v0l0-.05,0-.1,0,0h0l.05-.09.06-.24.08-.15.06-.07.08,0h.23l-.1,0-.08,0h0l-.06,0-.05-.1.72-1.24.05-.08.32-.63.15-.27.18-.29.14-.18.2-.35.2-.33.11-.13.13-.24.16-.16.1-.08.07-.06.29-.43.19-.23.2-.3.19-.28.1-.17.18-.18.09-.14.13-.21.2-.31.17-.12.1,0,.07-.07.07-.12,0,0,0,0,.25-.28.05-.1.11-.1.14-.13.06-.09L381,136l.15-.08.11-.12.15-.16.17-.25.1-.13.11-.13.09-.1.13-.17h0l0-.15,0-.06v-.24l.05-.08v-.08l.05-.15v-.05l0-.13,0-.35v-.08l0,0v-.13l0-.13,0-.1V133l0-.1.05,0,0,0,0-.1v-.16l0-.16,0-.08-.15-.22h0v-.06h0l0-.07,0-.05,0,0,.07,0h0l.13-.1,0-.12-.05-.17,0-.12,0-.12,0-.1L382,131l-.07-.21-.05-.25,0-.19.06-.2.05-.09L382,130l.09-.11.07-.31.08-.2,0-.07.07-.27,0-.09,0-.09v-.17l.06-.36v-.23l.08-.1v-.18l0-.08v-.24l0,0-.07-.08,0-.05v-.06l0-.15,0-.08v-.11l-.05-.21v0h0v0l0-.1.06,0v0h0l0-.08v0l0,0h.07v0l0,0,0,0v0l0-.07,0,0,0-.05.07-.09v0h0l0,0v0l.06-.08.07-.07.09-.07.09-.07h0l.45-.35h.2l0,0,0,0,0,0h0v0l0,0h.08l0,0,.07,0,0-.06,0,0v-.08h0l0,0h0v.09l0,0h0v-.08h0l0-.09,0-.08,0,0h.1l.1,0,0,0h.05l.07,0,.1,0,.06,0v0h.07l0,0,.06,0,.1-.09h0l0,0h.05l.06-.06h0l0,0,0,0v0h.1v0H385l0,0,0,0,0,0h.15l.13-.05,0,0,.06,0,0,0h.06l.08,0,.15,0h.13v-.06l0,0h0l.05,0H386l0,0h.1l0,0,0,0h.11l0,0,0,0,0,0h.06l0,0,0,0,.07,0h.05v-.07l0,0h.09l.08,0,.07,0,0,0,.06-.1.12,0,.12,0h.27l.17,0,.65-.33,0,0,.35-.25.31-.24.21-.11.67-.55.3-.24.09-.16.16-.13.25-.29.08-.11.07-.08h0l.16-.21.16-.13.1-.19.06-.08.34-.35.06-.06v-.08l.09-.13.16-.11.16-.23,0,0h.07l.14-.2.22-.23.15-.2.11-.18.11-.16.24-.22.09,0,.11-.11.12-.14.27-.18.14,0,.12-.13.35-.31.07-.09.13-.15.09,0,.19-.17.13-.2.22-.24.42-.38,0,0,.26-.29.1-.06.05-.12.19-.27.72-.49.18-.11.28-.16h0v0l0,0,0,0,0-.07.37-.36.36-.31.09-.18.1-.17.12-.1.24-.11,0,0,0,0,0-.07.58-.67.83-.71.6-.48,1.23-1.17.16-.15.23-.2.3-.27.16-.29.19-.08.07-.08.17-.1.1-.07,0-.21.12-.19.13-.06h.11l.28-.34.09-.06v-.1l.14-.13.08,0,0-.08.07-.11.13-.12h.09l.21-.22.1-.16.43-.51.29-.3-.12-.06h0l-.18-.09.11-.15.25.13,0,0,.08,0,.09-.12h0l.17-.19.08-.16.07-.22,0-.16v-.12l.24-.53v-.07l0,0-.07,0,0,0-.16-.1-.06,0h0l-.07.08h0l-.05.06,0,0-.06.07H406l.18-.21h0l0,0,.08-.09,0,0h0l.18.11.06,0v0l.07,0v-.06l0,0,0-.23,0-.07-.06,0-.13,0-.1,0,0,0v-.09l.11-.1.17,0h.13l.18-.2-.35-.22.22-.34.11,0-.18.29.29.17,0-.07.06-.08,0,0v-.16l0-.09-.1-.1,0,0,.05-.34.18-.36.15-.25.06-.23.25-.48.22-.24.3-.29.23-.26.2-.39.26-.27.3-.41.34-.24.28-.33,1.23-1.42.17-.08.94-1,.25-.31.27-.21.65-.38.41-.28.29-.19.16-.05.1,0,.61,0,1-.53.46-.32.12-.08.07,0,.09,0h0" transform="translate(-250.9 -46.9)" fill="none" stroke="#0f26a6" stroke-miterlimit="10" stroke-width="0.25" fill-rule="evenodd"/><path d="M370.11,236.45,369,237l-.43.2-.59.47-.95.76-.69.65-1,1L363,241.79l-.53.42-.08.06-.33.28-.43.37L360.36,244l-.08.06-.64.53-.73.61-.6.5-.46.38-.43.22-.57.29-.38.2L355,248l-.34.14-.35.22-.1.06-.52.48-.15.2-.11.32-.56.58-.91.63-.16.11-.07.05-.06,0-.06,0-.1.06-1.07.64-1.51.92h-.17l-.95.68L346,254.47l-.44.27-1.09.64-1.05.51-.11,0-.51.17,0,.12-.82.52-.52.27-.73.29-.65.37,0,0h0l0,0,0,0,0,0-.05,0h-.25l0,0,0,0-.26.19-.25-.21.24-.17,0,0v0l0,0v-.07l0,0h0l0,0h.06l0,0,.44-.63.71-.7,1.06-.69.22-.33.6-.87.13-.19.8-.74.12.06.72-.41,1.25-1,1.26-1,.7-.55.77-.61.53-.42.11-.16.05,0,.05,0,.05,0,.06-.05,0,0,.17-.14.56-.46,1.76-1.45.1,0,.1-.1.06,0,.14-.13.07,0,.45-.26-.08-.08.42-.28.17.15.79-.55.63-.44.37-.47.44-.52,1.07-.94.06-.1.33-.2.57-.48.66-.53,1.18-.66.15,0,.45-.41,1.83-1.63,1.86-1.53,1.06-1,.09,0,0-.1.12,0,.07,0,.18-.17.19-.18-.18-.13.11-.13.2.13,0,0,.19,0,.2-.45.11-.11.62-.61v-.07l.08,0,.16-.07.45-.27.4-.14,1.24-.75.62-.47.39-.34.68-.34,1.08-.18.67,0,.48-.25.48-.37h.13l.13.07.07.13-.3.33-.2.33-.13.79,0,.81-.11.36-.11.23-.14.22-.77.67-.51.6-.16.09-.06,0-.79.23" transform="translate(-250.9 -46.9)" fill="none" stroke="#0f26a6" stroke-miterlimit="10" stroke-width="0.25" fill-rule="evenodd"/><path d="M405.14,198.56l.18.56.09.3.2.39.27.52.24.39,0,.07,1.33.92.12.08.1.07.08,0h0l.1.06,1.16.7.1,0,1.59,1,.27.29,1.12,1.06,1,2.12.58,1.7-.14.91L412.29,211l-.92.9-.33.17-.24,0-1.21.7.16.17-1.09.72-.26-.18,0,0-1.05.22-.41.11-.48.25-.2.11-.09.29.1.09-5.43,4.19-.12-.09-.32.28-.5.92-.85,1.55-.34.24-1.43.69h0l-.08.08-.09.08h-.18l-.09,0-.26.15-.28.05-.29,0-.24,0-.1-.06h0l-.12-.05-.2,0-.46.06-2.14,1-.28.1h-.64l-.44,0-.5-.21-.82-.7-1.37-1.17-.4-.32-.53-.28-2.1-.79-3.09-1-.42-.61-.47-.53-.17-.35-.06-.39.1-.39.1-.21.15-.15.27-.58.09-.25.12-.3,4.19-3.46.69-.52.53-.66.21.07.21-.15,1-.72,1-.54.15.08,1.36-.3.08,0,.08,0,1.17.78h.18l.66.31.94.18.6.14.15.06.18.07.33.12.22,0,.21,0,.08-.12,0-.14v-.22l.08-.1,0-.12,0-.13,0-.09,0-.19v-.09l0-.13-.14-.09-.22-.09-.14-.06,0-.05.08,0,.32.08.17.07.3,0,.21.06.17.08h.06l0,0,0-.06-.75-.14-.34-.14-.27,0h-.15l0,.14.07.07H396l.09,0,.16.18,0,.22-.08.34-.15.17-.1.1-.11,0-.19,0h0l-.12-.05-.15,0h-.1l-.12-.05h-.18l-.1,0h-.08l-.09,0-.1,0h-.07l-.12,0h-.18l-.11,0,0,0v-.09l0-.07.37-.29.14-.13.41-.32.07,0,.06,0,.17-.16-.88-.25-.24-.23-.31-.33,0-.72v-.17l0-.08,0-.08.05-.07,0-.06,1.52-1.47.19-.33,0-.07.27-.4.08-.09.07-.09.06-.1.06-.1,0-.11,0-.11,0-.11.11-.42.07-.34v0l0-.63-.05-.4-.05-.3-.06-.22h-.23v0l-.45,0,0-.12.45,0,0,0,.23,0v0h-.09l-.14-.45.05-.56.47-1,.68-1.15,0-.07,0-.06,0-.06.08,0,.17-.13-.68-.46.22-.2.06,0-.17.16.62.42.18-.15-.23-.16h0l.23.15.06-.05-.23-.15.21-.17-.36-.25,0,0-.05,0-.2.16-.07,0,.26-.21.46.33,1.06-1,.1-.11.08-.11.13-.09.31-.14h.3l1.23.24,2.29.56.58.44.3.22.62,1" transform="translate(-250.9 -46.9)" fill="#0f26a6" fill-opacity="0" fill-rule="evenodd"/><path d="M442.61,101.42l-.52.87-.4.94-.69,1-.54.87-1,.14-.43.46-.3,0-.05-.1,0-.1-.05-.08,0-.05v-.06l0-.07,0,0,0,0v-.08l0-.06,0,0v0l-.09-.17-.08-.17-.08-.14,0-.06,0-.07h0v0l0,0v0l0,0,0,0v0l0,0,0,0-.07-.1-.06-.11-.07-.08-.06-.08-.06-.09h0v0h0l-.08-.09h0v0l-.1-.1-.09-.12-.11-.1L437,103l-.1-.09-.08-.07-.06-.07-.12-.12-.05,0-.08-.07-.09-.06-.1-.07-.05,0-.05,0,0,0-.07,0v0h0v0l0,0-.22-.14,0,0h-.08l0,0h-.05l0,0h-.06l0,0h0l0,0,0,0h0l0,0,0,0,0,0h-.08v0h0v0l-.08-.05-.07,0-.09,0h0l-.05,0h-.08v0h-.36l0,0,0,0h-.1v0h-.05v0h-.09l0,0v0h-.12l-.7-.36,0,0h0v0H433l-.15-.08-.12-.06h0l-.25-.12,0,0-1.63-.82h-.07l0,0,0,0v0h-.08l0,0h0l0,0-.07,0-.05,0v0h0l-.06,0,.07,0,.05,0,1.37-1,3.44-1.1.65-.19,1-1.08,1.56.25,1.05.55.52.49.82.93.82.83.7.86.12.22.08.14,0,0v.07l0,1.16" transform="translate(-250.9 -46.9)" fill="none" stroke="#0f26a6" stroke-miterlimit="10" stroke-width="0.25" fill-rule="evenodd"/><path d="M272.2,327.77l-5-2.42c.68-1.86,3.62.26,4.58,1.23" transform="translate(-250.9 -46.9)" fill="none" stroke="#0f26a6" stroke-miterlimit="10" stroke-width="0.25" fill-rule="evenodd"/><path d="M273.16,322.91l-.28.25-2.6-1.44.65-.69.4-.42,2.68,1.51-.71.68-.14.11" transform="translate(-250.9 -46.9)" fill="none" stroke="#0f26a6" stroke-miterlimit="10" stroke-width="0.25" fill-rule="evenodd"/><path d="M271.79,324.75l-.36.46-2.86-1.61.45-.49.5-.52,2.75,1.54-.48.62" transform="translate(-250.9 -46.9)" fill="none" stroke="#0f26a6" stroke-miterlimit="10" stroke-width="0.25" fill-rule="evenodd"/><path d="M277.29,318.41l-.88,1.1L273.66,318l1-1,2.67,1.44" transform="translate(-250.9 -46.9)" fill="none" stroke="#0f26a6" stroke-miterlimit="10" stroke-width="0.25" fill-rule="evenodd"/><path d="M265.72,326.9c.64-1.51,2.53.17,3.58.68" transform="translate(-250.9 -46.9)" fill="none" stroke="#0f26a6" stroke-miterlimit="10" stroke-width="0.25" fill-rule="evenodd"/><path d="M278,317.51l0,0-2.51-1.42.93-1,2.49,1.39-.87,1" transform="translate(-250.9 -46.9)" fill="none" stroke="#0f26a6" stroke-miterlimit="10" stroke-width="0.25" fill-rule="evenodd"/><path d="M328.49,296.2l-.05,0-.71-1.3.15,0,.67,1.24-.06.05" transform="translate(-250.9 -46.9)" fill="none" stroke="#0f26a6" stroke-miterlimit="10" stroke-width="0.25" fill-rule="evenodd"/><path d="M334.14,282v0l.35,0v.05l0,.08-.42-.06v0l-1.22-.15v0l-.4-.06V282h-.12v0l-.38,0v.09h-.15v-.26h.16v.12l.39,0v-.14l.53.07v0l1.28.17" transform="translate(-250.9 -46.9)" fill="none" stroke="#0f26a6" stroke-miterlimit="10" stroke-width="0.25" fill-rule="evenodd"/><path d="M334.73,284.07l0,.14-.07,0h-.09l0-.07-.39,0-.33.11,0,0-.12.11-.08-.05.07-.07-.32,0-.3.11-.11.1-.08-.06.12-.11,0,0,.27-.09,0-.07.08,0,0,0,.36,0,.35-.12.48,0h.1" transform="translate(-250.9 -46.9)" fill="none" stroke="#0f26a6" stroke-miterlimit="10" stroke-width="0.25" fill-rule="evenodd"/><path d="M274.29,319.28l1.06.56.11-.11-.07,0,.05-.06.19.12-.17.19,0,0-.09.16-1.22-.7.11-.15" transform="translate(-250.9 -46.9)" fill="none" stroke="#0f26a6" stroke-miterlimit="10" stroke-width="0.25" fill-rule="evenodd"/><path d="M300.56,312.15l-.11,0,.11-.37,1.9.23,0,.14-1.74-.22-.08.24h-.06" transform="translate(-250.9 -46.9)" fill="none" stroke="#0f26a6" stroke-miterlimit="10" stroke-width="0.25" fill-rule="evenodd"/><path d="M324,298.59l.72.55-.06.05-.71-.55h0l-.14-.09.13-.12.08-.08.14.09,0,0-.1.1" transform="translate(-250.9 -46.9)" fill="none" stroke="#0f26a6" stroke-miterlimit="10" stroke-width="0.25" fill-rule="evenodd"/><path d="M325.27,297.79l.61.5,0,0-.56-.47,0,0-.32-.26.14-.1.27.21-.07.06" transform="translate(-250.9 -46.9)" fill="none" stroke="#0f26a6" stroke-miterlimit="10" stroke-width="0.25" fill-rule="evenodd"/><path d="M327.74,295.81l.56.54-.06,0-.55-.56-.09.06-.13-.12.16-.1.12-.07.12.12-.13.09" transform="translate(-250.9 -46.9)" fill="none" stroke="#0f26a6" stroke-miterlimit="10" stroke-width="0.25" fill-rule="evenodd"/><path d="M327.37,296.33l-.13.06-.66-.62.12-.07.67.63" transform="translate(-250.9 -46.9)" fill="none" stroke="#0f26a6" stroke-miterlimit="10" stroke-width="0.25" fill-rule="evenodd"/><path d="M283,312.37l0,0-.51-.29.27-.34.38.31.22.16-.33.14" transform="translate(-250.9 -46.9)" fill="none" stroke="#0f26a6" stroke-miterlimit="10" stroke-width="0.25" fill-rule="evenodd"/><path d="M331.86,291.81l.43.38-.11.13-.47-.43v-.06l.05,0,.07,0,0,0" transform="translate(-250.9 -46.9)" fill="none" stroke="#0f26a6" stroke-miterlimit="10" stroke-width="0.25" fill-rule="evenodd"/><path d="M379.17,234.06l-.16.2.17.09-.08.1-.36-.18.07-.1.15.07.16-.2.05,0" transform="translate(-250.9 -46.9)" fill="none" stroke="#0f26a6" stroke-miterlimit="10" stroke-width="0.25" fill-rule="evenodd"/><path d="M328.84,295.89l-.07.1-.37-.33.11-.07.33.3" transform="translate(-250.9 -46.9)" fill="none" stroke="#0f26a6" stroke-miterlimit="10" stroke-width="0.25" fill-rule="evenodd"/><path d="M344,260.43l.17.12,0,0-.18-.13-.1.09-.14-.08.25-.23.14.09-.1.1" transform="translate(-250.9 -46.9)" fill="none" stroke="#0f26a6" stroke-miterlimit="10" stroke-width="0.25" fill-rule="evenodd"/><path d="M283.54,311.36l-.21.18h0l0,0-.13-.08.23-.22.07,0,.09.07h0" transform="translate(-250.9 -46.9)" fill="none" stroke="#0f26a6" stroke-miterlimit="10" stroke-width="0.25" fill-rule="evenodd"/><path d="M339.06,265.52l-.09.09-.13-.05.05-.11.17.07" transform="translate(-250.9 -46.9)" fill="none" stroke="#0f26a6" stroke-miterlimit="10" stroke-width="0.25" fill-rule="evenodd"/><path d="M420.58,93.17l0,.07,0,0,0,0v0l0-.06,0-.07.07,0-.06.06h0" transform="translate(-250.9 -46.9)" fill="none" stroke="#0f26a6" stroke-miterlimit="10" stroke-width="0.25" fill-rule="evenodd"/><path d="M384.38,319.62c-.81-1.92-2.34-3.43-3.45-5.17,1.24.08-.56-.79.28-1.47s2.79-.78,4.87-.23c-2.79-1.25-1.07,0,0,0a7.35,7.35,0,0,1-4.06-7.28c.25-4.39,2.62-3.94,6-2.27-.08-.24.08-.53.08-.76.2,0-.51-.1-.61-.14.12,0,.6.12.69.17A123.55,123.55,0,0,1,365,287.2c-2-3-1-10-7.92-9.34,1.46-.34,3.24-.67,4.82-1l-.29-.15c2.95-.4,4.42-2.78,6.63-4.44a1.86,1.86,0,0,0-2.12-.25,3.48,3.48,0,0,1,.63.26c-4.16,6.46-11.38,3.68-17.25,1.66-3.27-1.13-6-2-9.47-1.38-3,.53-7.2.55-2.82-2.3-1.33-.71.46-1.59.53-1.86a1.73,1.73,0,0,0-.58-.32,7.37,7.37,0,0,1,2.92-2.07,1.8,1.8,0,0,1-.38-.16.27.27,0,0,0,.06.21c-.3-.15-.12-.27-.79-.48a3.38,3.38,0,0,0,1.67.05,6.72,6.72,0,0,0-1-.4,6,6,0,0,0,1.89.06c-.26-.05-.69-.24-.89-.3.31,0,.67-.18,1-.21-.38-.17-.76-.39-1.15-.52l1.51.53a.52.52,0,0,0,.1-.18c-1.18-.49-1.25-.81.09-.88-1.85-.57.65-3.1,1.89-3.35,1.43-.29,3.24.83,4.47,1.4a.71.71,0,0,0-.29,0,1.32,1.32,0,0,0,1.8.12,21.09,21.09,0,0,1-4.16-2.1c.55-.52.29-.53.21-.44a5.5,5.5,0,0,1,.67-.11,2.32,2.32,0,0,1-.57-.22c.82-.37,1.4-.36,1.5.34,9.55-6.39,15.71-19.08,27.73-21.43a.79.79,0,0,1-.2-.25c.78-.52,4.78.48,5.25-2.59a2.43,2.43,0,0,0-.6-.17c.4,0,.45,0,.71,0A3,3,0,0,1,377,233.2c-1-4,3-9,7-6,9,6,18-5,25.82-7.5-.56-.84,3.62-3.43,4.56-3.46a2.19,2.19,0,0,1-.39.29c8-3.33,16,1.67,21.29,7.75l-.28.05a4.5,4.5,0,0,1,.56.44l-.28,0c.14.05.25.13.38.19a.2.2,0,0,0-.27,0c.12.19.22.38.32.57-.56.41-1.7,1.08-1.88,1.23a3.66,3.66,0,0,0-.57,0c0,.09.23.06.17.17a3.42,3.42,0,0,0-.63.09.36.36,0,0,0,.18.12c-2.2.89-6.45.64-8,2.94,3.94-1.93,8.66-.87,12.53-2.91a15.18,15.18,0,0,1-2.62,1.05c.49.5,1,1,1.51,1.51a4.87,4.87,0,0,1-1,.55,11.83,11.83,0,0,0,1.24-.51l-1.16.62c.93-.91,2.93,1.22,3.7-1.1a5.7,5.7,0,0,1,1.39,1.24,1.37,1.37,0,0,0-1.92.23c1.33,1.32-.67,3.32,1.33,4.32l-1.71,1.7a2.56,2.56,0,0,1,.33,3.54c.55-.89,1.68-4.33,3.1-3.44s-.4,4.62-1.17,5.49c1.75.39,4.66,1.25,6.24.16.34-.27-.2.34-.25.38a11.9,11.9,0,0,1,2.53.3c-1-.4-1.44-1.62-.17-1.9-.53-1.9.37-4.13-.52-5.89l.49.23s-.11-.37-.16-.35c.14,0,.14.28.19.35.93-1.36,7.59-.83,8.72.13-.26-.94-.69-2,.22-2.47a5.7,5.7,0,0,0-1.2-.88c2.36.65,4.36,2.65,6.36,1.65,3-1,6-3,9-3,1,0,1-1,1.76-1.84-1.48.68-5,4.92-1.71,4.82-.42,0,.06,0,0,0-2.17.14-3.78,1.8-5.75,2.52a5.82,5.82,0,0,0,2.87.28,21.89,21.89,0,0,0-3.24,0C472,244.2,483,246.2,487,254.2c0,1-2,2-3.78,0-.1.2-.22.38-.32.58a3,3,0,0,1,2.2,2.14c-3.1,1.33-7.1.33-8.1,2.33s2,4,2.81,6.17c.16-.15.32-.3.47-.46a1.19,1.19,0,0,1-.42.47c.1.1.64-.36.05.1a2.82,2.82,0,0,0,1.83-1.09,3.77,3.77,0,0,0-1.07-.6,1.26,1.26,0,0,1,.28-.19c.65.88,1.55.64,1.94-.37l.37.26c-.6.2-.87.65-1.41.92a4.53,4.53,0,0,0,1.24.71c-.36-.25-1.51-.81-2.2.07l1.93,1.37c-.75-.67-1.66-1.41-2.59-.82,2.41,1.29,4.58,3.39,7.31,4,.08-.37,0-.08-.18-.37.26.17.43.13.21.37a.65.65,0,0,1,.69.2,1.78,1.78,0,0,0-.56-.1c.72.7,5.09,2.08,4.58-.27-.32-1.51-3-.13-3.67-.23a17.71,17.71,0,0,0,6.8.28c1.32-.26,5.06-2.55,5.52-2.21a.15.15,0,0,1-.23.06c-.07-2.31,5-2.38,6.63-2.57-.8-.87-.48-.53-.25-1.49-1.33.32-2,1.06-3.61.83.39-.12-.75.06-.4.08-3.32.93-6.14-2.19-8-4.53.66.31.49,0,.84.57-.45-.09-.42-.29-.84-.57,1.57-.3-1.81-2.28.57-2.1.06-3-2-2.68-3.22-3.73a1.78,1.78,0,0,0,1.94.05.19.19,0,0,1-.23-.09c1.94-.72,3.65-7.45,1.87-8.25a.46.46,0,0,0,.36-.25,2.65,2.65,0,0,0-.53-.27c1.34-1.36-1.16-.74-2-.67a4.8,4.8,0,0,1,2.39-.26,3.83,3.83,0,0,0-3.51-.18,2,2,0,0,1,0-.48,8.15,8.15,0,0,0,3.89.2,17.69,17.69,0,0,0-2.87-.48,15.45,15.45,0,0,1,3,.23c0-1.05-.63-1.87-1.73-1.69a4.44,4.44,0,0,0,2.5-.34C496,240.2,494,238.2,491,240.2c-1,0-2-1-3.21-2.79a4,4,0,0,1,0,.63c-1.63-.79-1.85-2.61-2.72-4a2.45,2.45,0,0,0,0,.27c-.29-.32,0-.31-.51-.43a3.5,3.5,0,0,0,.08.65c0-.25-.12-.48-.14-.73,2.43-2.58,6.43-.58,9.62-2.18-.19.08-.71.17-.9.25.57.05.2,0,.9-.25-1.19-.4-2.19-.4-2.19-1.4s0-2,3-2c0-2-2-4,1-5.43.41.78-.47,1,0,0,.41.78,3,3.12,4,2.9s.58-1.81,1.67-2.53c1.34-.87,2.74-.35,3.92.31.85.48,2.44,2.72,3,.81l.59.49a11.35,11.35,0,0,0-.36-1.42c.42,1,.38.7,1.26,1l-.59-1.94c.31.82.8,2.68,1.85,2.56.65-.08.21-2,1.88-1.87-.16-.35-.07-.74-.22-1.09a26.3,26.3,0,0,1,3.63-.46,17.81,17.81,0,0,1-3.39.58,2.85,2.85,0,0,0,2.7,1c-.82,2.87,2.83,7.27-1,9,.42.07.85.28,1.22.34a3.89,3.89,0,0,0-.9-.11,14.22,14.22,0,0,1-.06,2c1-1.77,5.72,2.23,7.89,1.12-2.18-1.1.74-2.59,1.7-2.85.54-.15,4.58-.44,2.07-1.65,2.7,3.39,2.57-7.16-.23-4.47.2-.16.62-.42.88-.6a.83.83,0,0,0-.44-.19,2.79,2.79,0,0,1-1,.32c.15,0,.21,0,.19.05a2.11,2.11,0,0,1,.69-.63c1,.79,4.09,1.55,3.85-.12.92.11,5.25,1.42,4.27-.91.57.85.34.4,1,.59a2.64,2.64,0,0,1-.31-.71c.08.08.56.51.63.6a1,1,0,0,0,0-.61c.86.33.6.58.8-.4.16.14.19.38.3.54a.36.36,0,0,1,.14-.1c-.15-.12-.2-.43-.26-.6a1.24,1.24,0,0,1,.31.56c.85-.92,2.76-1.24,3-2.1" transform="translate(-250.9 -46.9)" fill="none" stroke="#0f26a6" stroke-miterlimit="10" stroke-width="0.25" fill-rule="evenodd"/><path d="M540.65,222.23a2.38,2.38,0,0,1,0,.54c1.57-.45,2.07,1.21,3.2,2,.63.43.78,1.06,1.66.54-.08.07-.3.34-.4.36s.56-.24.55-.24-.3.22-.37.32a1.67,1.67,0,0,1,.65.75c0-.19.43-.38.57-.48-.15.12-.38.47-.56.51,1,.67,3,.67,2.88,2.6a3.12,3.12,0,0,0,.5-.76s-.29.62-.43.82l.16.18s1.13-.28.74-.19c.17,0,1.17-1,1.17-1,3,1,5,3,7.55,3.59,0-.15.23-.47.27-.54-.09.15-.11.44-.24.55a6.37,6.37,0,0,1,1.24.53s.21-.43.2-.43a2.05,2.05,0,0,1-.15.44,1.68,1.68,0,0,0,1-.1s-.08.33,0,.32c.38-.22.37-.13.64-.59a2.18,2.18,0,0,1-.22.54c.18-.15.18-.23.37-.57,0,.16-.08.32-.13.59.18-.14.2-.32.36-.52a1.42,1.42,0,0,1-.13.51c.22-.11.08-.11.29-.31,0,0-.08.16-.07.25.28-.09.18-.08.38-.34,0,0,0,.06,0,0l-.06.23h0c.06-.13.26-.41.35-.62a1.74,1.74,0,0,1-.2.58,4.36,4.36,0,0,1,.5-.74c0,.16-.16.33-.16.48a1.48,1.48,0,0,0,2,.62c.06,0,0,.24,0,.26,1-.06,1.72.53,2.2.22,0,0,0,0,0,0,.36.33.2.35.64.23.72.57,2,1.81,2.71,1a4.44,4.44,0,0,1-.48.5c.73.43,1.23.85,1.84.18,0,0,.11,0,.09.06a3.72,3.72,0,0,1-.46.51c1,.63,2.17.51,3,1,0,0,0,0,0,0v0s-.22-.11-.23-.06c1,2.46-3,5.46.35,7.27l.18.11a3.57,3.57,0,0,0-.65.64c3.09-1.56,6.09-.56,9.09-.56a7.21,7.21,0,0,0,6.38,0l-2.45-.9c1.2.13,2.94,1.59,4.06,1.07s1.7-3,0-2.62c0,0,.21-.19.06-.21,1.93,1.34,1-2.79-1.92-2.11,2.88-.25,5.88-2.25,8.88-1.25,4,3,4,8,6,12,0,1-1,3-4.78,2,.29-.46-1.58-2.11-2.2-2.7,2,4.66,6,8.66,8.77,14.07.81,0,1.5-.16,1.66-.59l.36.46a13.19,13.19,0,0,0-2,.19C607,265.2,607,267.2,607,269.2a21.86,21.86,0,0,1,3,5c3,3,5,7,8.4,9.76,0,0,0,0,0,0a5.94,5.94,0,0,0,1.58.21c4,4,5,9,10,12-1,2,3,2,2,3.73,0-.05.07,0,.07,0-2.08-2.76-2.08-6.76-5-7.58-2.54-.74.41-1.14,0,0-2.54-.74-3.55-4.56-4.84-6.53-.66-1-1.55-2.35-1.41-3.63a1.07,1.07,0,0,1,.94-.91s0-.11,0-.11c-.66-.53,0-2.32-1-3.23a1.28,1.28,0,0,1,.79-1.05s0,0,0,0c4.43-1.72,1.43-4.72,1.8-7.7a3.39,3.39,0,0,0-1-.13l0-.14c3.58-1.75,6.58-7.75,10.52-1.67.61.53,1.06,1.29.21,1.59.65.32.68.4,1.3.35.2.95,1.36,2.08,1.52,2.88a2.46,2.46,0,0,0-.73-1.94,1.14,1.14,0,0,0,.24-.54,1.78,1.78,0,0,1,1.63,1.54c0,.75-1.65.61-.72,1.72-.16-.77-.15-1,.6-1.33.2.62.55-.21.94-.64-.07-.16-.3-.17-.32-.23,17.39,13.52,32.39,28.52,48.1,42" transform="translate(-250.9 -46.9)" fill="none" stroke="#0f26a6" stroke-miterlimit="10" stroke-width="0.25" fill-rule="evenodd"/><path d="M634.86,267.53l1.35,1.24-.19-.07-.1-.1-.11.07-.25,0h-.25l-.34.12-.22.08-.24-.06,0-.06-.1-.1-.12-.22v-.16l0-.07.06-.1-.18-.15,0-.18.06-.07.11,0,.19,0h.1l.09-.08.11,0,.1-.06" transform="translate(-250.9 -46.9)" fill="none" stroke="#0f26a6" stroke-miterlimit="10" stroke-width="0.25" fill-rule="evenodd"/><path d="M637.37,269.86l.38.34-.07,0-.08,0-.07-.11-.09-.09-.14.22-.29.11,0-.11-.06-.36-.11-.37.09-.06.46.43" transform="translate(-250.9 -46.9)" fill="none" stroke="#0f26a6" stroke-miterlimit="10" stroke-width="0.25" fill-rule="evenodd"/><path d="M466.72,230l.06.06v0l.06,0-.05,0-.07,0,0,0,0,0v0h0" transform="translate(-250.9 -46.9)" fill="none" stroke="#0f26a6" stroke-miterlimit="10" stroke-width="0.25" fill-rule="evenodd"/></g></svg>