<svg id="Layer_1" data-name="Layer 1" xmlns="http://www.w3.org/2000/svg" xmlns:xlink="http://www.w3.org/1999/xlink" viewBox="0 0 1071.89 275.88"><defs><pattern id="Polka_Dots" data-name="Polka Dots" width="18.11" height="18.11" patternTransform="translate(2.26 4.02) scale(0.25)" patternUnits="userSpaceOnUse" viewBox="0 0 18.11 18.11"><rect width="18.11" height="18.11" fill="none"/><circle cx="18.11" cy="13.58" r="2.53" fill="#0f26a6"/><circle cx="9.06" cy="18.11" r="2.53" fill="#0f26a6"/><circle cy="13.58" r="2.53" fill="#0f26a6"/><circle cx="18.11" cy="4.53" r="2.53" fill="#0f26a6"/><circle cx="9.06" cy="9.06" r="2.53" fill="#0f26a6"/><circle cy="4.53" r="2.53" fill="#0f26a6"/><circle cx="9.06" r="2.53" fill="#0f26a6"/></pattern><pattern id="Polka_Dots-3" data-name="Polka Dots" width="18.11" height="18.11" patternTransform="translate(3.81 2.75) scale(0.2)" patternUnits="userSpaceOnUse" viewBox="0 0 18.11 18.11"><rect width="18.11" height="18.11" fill="none"/><circle cx="18.11" cy="13.58" r="2.53" fill="#0f26a6"/><circle cx="9.06" cy="18.11" r="2.53" fill="#0f26a6"/><circle cy="13.58" r="2.53" fill="#0f26a6"/><circle cx="18.11" cy="4.53" r="2.53" fill="#0f26a6"/><circle cx="9.06" cy="9.06" r="2.53" fill="#0f26a6"/><circle cy="4.53" r="2.53" fill="#0f26a6"/><circle cx="9.06" r="2.53" fill="#0f26a6"/></pattern><pattern id="Polka_Dots-5" data-name="Polka Dots" width="18.11" height="18.11" patternTransform="translate(5.8 7.62) scale(0.25)" patternUnits="userSpaceOnUse" viewBox="0 0 18.11 18.11"><rect width="18.11" height="18.11" fill="none"/><circle cx="18.11" cy="13.58" r="2.53" fill="#0f26a6"/><circle cx="9.06" cy="18.11" r="2.53" fill="#0f26a6"/><circle cy="13.58" r="2.53" fill="#0f26a6"/><circle cx="18.11" cy="4.53" r="2.53" fill="#0f26a6"/><circle cx="9.06" cy="9.06" r="2.53" fill="#0f26a6"/><circle cy="4.53" r="2.53" fill="#0f26a6"/><circle cx="9.06" r="2.53" fill="#0f26a6"/></pattern><pattern id="Polka_Dots-7" data-name="Polka Dots" width="18.11" height="18.11" patternTransform="translate(4.26 6.37) scale(0.25)" patternUnits="userSpaceOnUse" viewBox="0 0 18.11 18.11"><rect width="18.11" height="18.11" fill="none"/><circle cx="18.11" cy="13.58" r="2.53" fill="#0f26a6"/><circle cx="9.06" cy="18.11" r="2.53" fill="#0f26a6"/><circle cy="13.58" r="2.53" fill="#0f26a6"/><circle cx="18.11" cy="4.53" r="2.53" fill="#0f26a6"/><circle cx="9.06" cy="9.06" r="2.53" fill="#0f26a6"/><circle cy="4.53" r="2.53" fill="#0f26a6"/><circle cx="9.06" r="2.53" fill="#0f26a6"/></pattern><pattern id="Polka_Dots-9" data-name="Polka Dots" width="18.11" height="18.11" patternTransform="translate(7.32 5.12) scale(0.25)" patternUnits="userSpaceOnUse" viewBox="0 0 18.11 18.11"><rect width="18.11" height="18.11" fill="none"/><circle cx="18.11" cy="13.58" r="2.53" fill="#0f26a6"/><circle cx="9.06" cy="18.11" r="2.53" fill="#0f26a6"/><circle cy="13.58" r="2.53" fill="#0f26a6"/><circle cx="18.11" cy="4.53" r="2.53" fill="#0f26a6"/><circle cx="9.06" cy="9.06" r="2.53" fill="#0f26a6"/><circle cy="4.53" r="2.53" fill="#0f26a6"/><circle cx="9.06" r="2.53" fill="#0f26a6"/></pattern><pattern id="Diagonal_Dash" data-name="Diagonal Dash" width="19" height="19" patternUnits="userSpaceOnUse" viewBox="0 0 19 19"><rect width="19" height="19" fill="none"/><line x1="19" y1="38" x2="38" y2="19" fill="none" stroke="#364fd9"/><line y1="38" x2="19" y2="19" fill="none" stroke="#364fd9"/><line x1="-19" y1="38" y2="19" fill="none" stroke="#364fd9"/><line x1="19" y1="19" x2="38" fill="none" stroke="#364fd9"/><line y1="19" x2="19" fill="none" stroke="#364fd9"/><line x1="-19" y1="19" fill="none" stroke="#364fd9"/><line x1="19" x2="38" y2="-19" fill="none" stroke="#364fd9"/><line x2="19" y2="-19" fill="none" stroke="#364fd9"/><line x1="-19" y2="-19" fill="none" stroke="#364fd9"/></pattern></defs><title>year_borough_chart</title><g id="figure_1" data-name="figure 1"><g id="axes_1" data-name="axes 1"><g id="patch_3" data-name="patch 3"><path d="M268.4,646.05H440.81v-28H268.4Z" transform="translate(-230.96 -393.55)" fill-opacity="0.75" stroke="#0f26a6" fill="url(#Polka_Dots)"/></g><g id="patch_9" data-name="patch 9"><path d="M268.4,590.05H439.51v-28H268.4Z" transform="translate(-230.96 -393.55)" fill-opacity="0.75" stroke="#364fd9" fill="url(#Polka_Dots-3)"/></g><g id="patch_15" data-name="patch 15"><path d="M268.4,534.05H427.33v-28H268.4Z" transform="translate(-230.96 -393.55)" fill-opacity="0.75" stroke="#364fd9" fill="url(#Polka_Dots-5)"/></g><g id="patch_21" data-name="patch 21"><path d="M268.4,478.05H387v-28H268.4Z" transform="translate(-230.96 -393.55)" fill-opacity="0.75" stroke="#364fd9" fill="url(#Polka_Dots-7)"/></g><g id="patch_27" data-name="patch 27"><path d="M268.4,422.05H371v-28H268.4Z" transform="translate(-230.96 -393.55)" fill-opacity="0.75" stroke="#364fd9" fill="url(#Polka_Dots-9)"/></g><g id="patch_28" data-name="patch 28"><path d="M440.81,646.05H553.87v-28H440.81Z" transform="translate(-230.96 -393.55)" fill="none" stroke="#364fd9"/></g><g id="patch_34" data-name="patch 34"><path d="M439.51,590.05h99.58v-28H439.51Z" transform="translate(-230.96 -393.55)" fill="none" stroke="#364fd9"/></g><g id="patch_40" data-name="patch 40"><path d="M427.33,534.05h95.56v-28H427.33Z" transform="translate(-230.96 -393.55)" fill="none" stroke="#364fd9"/></g><g id="patch_46" data-name="patch 46"><path d="M387,478.05h71.1v-28H387Z" transform="translate(-230.96 -393.55)" fill="none" stroke="#364fd9"/></g><g id="patch_52" data-name="patch 52"><path d="M371,422.05h65.23v-28H371Z" transform="translate(-230.96 -393.55)" fill="none" stroke="#364fd9"/></g><g id="patch_53" data-name="patch 53"><path d="M553.87,646.05h59.25v-28H553.87Z" transform="translate(-230.96 -393.55)" fill-opacity="0.75" stroke="#364fd9" fill="url(#Diagonal_Dash)"/></g><g id="patch_59" data-name="patch 59"><path d="M539.09,590.05h61.85v-28H539.09Z" transform="translate(-230.96 -393.55)" fill-opacity="0.75" stroke="#364fd9" fill="url(#Diagonal_Dash)"/></g><g id="patch_65" data-name="patch 65"><path d="M522.89,534.05h68.49v-28H522.89Z" transform="translate(-230.96 -393.55)" fill-opacity="0.75" stroke="#364fd9" fill="url(#Diagonal_Dash)"/></g><g id="patch_71" data-name="patch 71"><path d="M458.1,478.05h40.55v-28H458.1Z" transform="translate(-230.96 -393.55)" fill-opacity="0.75" stroke="#364fd9" fill="url(#Diagonal_Dash)"/></g><g id="patch_77" data-name="patch 77"><path d="M436.25,422.05H470.6v-28H436.25Z" transform="translate(-230.96 -393.55)" fill-opacity="0.75" stroke="#364fd9" fill="url(#Diagonal_Dash)"/></g><g id="patch_78" data-name="patch 78"><path d="M613.12,646.05H640.4v-28H613.12Z" transform="translate(-230.96 -393.55)" fill="#364fd9" fill-opacity="0.75" stroke="#364fd9"/></g><g id="patch_84" data-name="patch 84"><path d="M600.94,590.05h19.35v-28H600.94Z" transform="translate(-230.96 -393.55)" fill="#364fd9" fill-opacity="0.75" stroke="#364fd9"/></g><g id="patch_90" data-name="patch 90"><path d="M591.38,534.05h16.85v-28H591.38Z" transform="translate(-230.96 -393.55)" fill="#364fd9" fill-opacity="0.75" stroke="#364fd9"/></g><g id="patch_96" data-name="patch 96"><path d="M498.65,478.05h11.41v-28H498.65Z" transform="translate(-230.96 -393.55)" fill="#364fd9" fill-opacity="0.75" stroke="#364fd9"/></g><g id="patch_97" data-name="patch 97"><path d="M268.4,468.72h0" transform="translate(-230.96 -393.55)" fill="#0f26a6" fill-opacity="0.75" stroke="#000" stroke-width="0.1"/></g><g id="patch_102" data-name="patch 102"><path d="M470.6,422.05h16.09v-28H470.6Z" transform="translate(-230.96 -393.55)" fill="#364fd9" fill-opacity="0.75" stroke="#364fd9"/></g><g id="matplotlib.axis_1" data-name="matplotlib.axis 1"><g id="xtick_1" data-name="xtick 1"><g id="text_1" data-name="text 1"><path id="ArialMT-30" d="M266,665.78a6.36,6.36,0,0,1,.26-2,2.45,2.45,0,0,1,.77-1.19,2,2,0,0,1,1.3-.42,2,2,0,0,1,1,.23,1.92,1.92,0,0,1,.72.67,3.32,3.32,0,0,1,.44,1.06,6.87,6.87,0,0,1,.17,1.69,6.7,6.7,0,0,1-.26,2,2.56,2.56,0,0,1-.78,1.19,2,2,0,0,1-1.3.42,1.93,1.93,0,0,1-1.62-.74A4.64,4.64,0,0,1,266,665.78Zm.9,0a4.56,4.56,0,0,0,.41,2.35,1.19,1.19,0,0,0,2,0,6.94,6.94,0,0,0,0-4.7,1.25,1.25,0,0,0-1-.58,1.14,1.14,0,0,0-1,.52A4.54,4.54,0,0,0,266.94,665.78Z" transform="translate(-230.96 -393.55)" fill="#364fd9"/></g></g><g id="xtick_2" data-name="xtick 2"><g id="text_2" data-name="text 2"><path id="ArialMT-35" d="M314.83,667.44l.92-.08a1.63,1.63,0,0,0,.48,1,1.28,1.28,0,0,0,.9.34,1.39,1.39,0,0,0,1.07-.48,1.77,1.77,0,0,0,.44-1.27,1.62,1.62,0,0,0-.42-1.18,1.47,1.47,0,0,0-1.1-.44,1.52,1.52,0,0,0-.77.2,1.37,1.37,0,0,0-.54.5l-.82-.11.69-3.68h3.56v.84h-2.86L316,665a2.32,2.32,0,0,1,1.35-.45,2.12,2.12,0,0,1,1.58.65,2.27,2.27,0,0,1,.65,1.67,2.63,2.63,0,0,1-.57,1.68,2.29,2.29,0,0,1-1.88.86,2.32,2.32,0,0,1-1.59-.54A2.13,2.13,0,0,1,314.83,667.44Z" transform="translate(-230.96 -393.55)" fill="#364fd9"/><path id="ArialMT-30-2" data-name="ArialMT-30" d="M320.39,665.78a6.66,6.66,0,0,1,.26-2,2.53,2.53,0,0,1,.78-1.19,2,2,0,0,1,1.3-.42,2.06,2.06,0,0,1,1,.23,1.82,1.82,0,0,1,.71.67,3.56,3.56,0,0,1,.45,1.06,6.94,6.94,0,0,1,.16,1.69,6.7,6.7,0,0,1-.26,2A2.55,2.55,0,0,1,324,669a2,2,0,0,1-1.3.42,2,2,0,0,1-1.63-.74A4.71,4.71,0,0,1,320.39,665.78Zm.91,0a4.45,4.45,0,0,0,.41,2.35,1.18,1.18,0,0,0,2,0,6.78,6.78,0,0,0,0-4.7,1.22,1.22,0,0,0-1-.58,1.11,1.11,0,0,0-1,.52A4.54,4.54,0,0,0,321.3,665.78Z" transform="translate(-230.96 -393.55)" fill="#364fd9"/><path id="ArialMT-30-3" data-name="ArialMT-30" d="M326,665.78a6.33,6.33,0,0,1,.27-2,2.45,2.45,0,0,1,.77-1.19,2,2,0,0,1,1.3-.42,2.06,2.06,0,0,1,1,.23,1.92,1.92,0,0,1,.72.67,3.84,3.84,0,0,1,.44,1.06,6.94,6.94,0,0,1,.16,1.69,6.4,6.4,0,0,1-.26,2,2.55,2.55,0,0,1-.77,1.19,2,2,0,0,1-1.3.42,2,2,0,0,1-1.63-.74A4.71,4.71,0,0,1,326,665.78Zm.91,0a4.45,4.45,0,0,0,.41,2.35,1.2,1.2,0,0,0,1,.58,1.22,1.22,0,0,0,1-.58,6.94,6.94,0,0,0,0-4.7,1.25,1.25,0,0,0-1-.58,1.11,1.11,0,0,0-1,.52A4.54,4.54,0,0,0,326.86,665.78Z" transform="translate(-230.96 -393.55)" fill="#364fd9"/></g></g><g id="xtick_3" data-name="xtick 3"><g id="text_3" data-name="text 3"><path id="ArialMT-31" d="M369.71,669.31h-.87v-5.6a4.69,4.69,0,0,1-.84.61,5.89,5.89,0,0,1-.92.45v-.85a5.32,5.32,0,0,0,1.29-.84,3.33,3.33,0,0,0,.78-1h.56Z" transform="translate(-230.96 -393.55)" fill="#364fd9"/><path id="ArialMT-30-4" data-name="ArialMT-30" d="M372,665.78a6.36,6.36,0,0,1,.26-2,2.45,2.45,0,0,1,.77-1.19,2,2,0,0,1,1.3-.42,2.06,2.06,0,0,1,1,.23,1.92,1.92,0,0,1,.72.67,3.32,3.32,0,0,1,.44,1.06,6.94,6.94,0,0,1,.16,1.69,6.4,6.4,0,0,1-.26,2,2.55,2.55,0,0,1-.77,1.19,2,2,0,0,1-1.3.42,2,2,0,0,1-1.63-.74A4.71,4.71,0,0,1,372,665.78Zm.9,0a4.56,4.56,0,0,0,.41,2.35,1.19,1.19,0,0,0,2,0,6.94,6.94,0,0,0,0-4.7,1.25,1.25,0,0,0-1-.58,1.12,1.12,0,0,0-1,.52A4.54,4.54,0,0,0,372.87,665.78Z" transform="translate(-230.96 -393.55)" fill="#364fd9"/><path id="ArialMT-30-5" data-name="ArialMT-30" d="M377.53,665.78a6.36,6.36,0,0,1,.26-2,2.45,2.45,0,0,1,.77-1.19,2,2,0,0,1,1.3-.42,2,2,0,0,1,1,.23,1.92,1.92,0,0,1,.72.67,3.32,3.32,0,0,1,.44,1.06,6.87,6.87,0,0,1,.17,1.69,6.7,6.7,0,0,1-.26,2,2.56,2.56,0,0,1-.78,1.19,2,2,0,0,1-1.3.42,1.93,1.93,0,0,1-1.62-.74A4.64,4.64,0,0,1,377.53,665.78Zm.9,0a4.56,4.56,0,0,0,.41,2.35,1.19,1.19,0,0,0,2,0,6.94,6.94,0,0,0,0-4.7,1.25,1.25,0,0,0-1-.58,1.14,1.14,0,0,0-1,.52A4.54,4.54,0,0,0,378.43,665.78Z" transform="translate(-230.96 -393.55)" fill="#364fd9"/><path id="ArialMT-30-6" data-name="ArialMT-30" d="M383.09,665.78a6.66,6.66,0,0,1,.26-2,2.39,2.39,0,0,1,.78-1.19,2,2,0,0,1,1.29-.42,2,2,0,0,1,1,.23,1.92,1.92,0,0,1,.72.67,3.56,3.56,0,0,1,.45,1.06,7.48,7.48,0,0,1,.16,1.69,6.7,6.7,0,0,1-.26,2,2.49,2.49,0,0,1-.78,1.19,2,2,0,0,1-1.3.42,1.93,1.93,0,0,1-1.62-.74A4.71,4.71,0,0,1,383.09,665.78Zm.9,0a4.43,4.43,0,0,0,.42,2.35,1.18,1.18,0,0,0,2,0,6.94,6.94,0,0,0,0-4.7,1.24,1.24,0,0,0-1-.58,1.11,1.11,0,0,0-1,.52A4.43,4.43,0,0,0,384,665.78Z" transform="translate(-230.96 -393.55)" fill="#364fd9"/></g></g><g id="xtick_4" data-name="xtick 4"><g id="text_4" data-name="text 4"><path id="ArialMT-31-2" data-name="ArialMT-31" d="M424.07,669.31h-.88v-5.6a4.58,4.58,0,0,1-.83.61,6,6,0,0,1-.93.45v-.85a5.32,5.32,0,0,0,1.29-.84,3.33,3.33,0,0,0,.78-1h.57Z" transform="translate(-230.96 -393.55)" fill="#364fd9"/><path id="ArialMT-35-2" data-name="ArialMT-35" d="M426.32,667.44l.92-.08a1.63,1.63,0,0,0,.48,1,1.28,1.28,0,0,0,.9.34,1.39,1.39,0,0,0,1.07-.48,1.77,1.77,0,0,0,.44-1.27,1.62,1.62,0,0,0-.42-1.18,1.47,1.47,0,0,0-1.1-.44,1.52,1.52,0,0,0-.77.2,1.37,1.37,0,0,0-.54.5l-.82-.11.69-3.68h3.56v.84h-2.86l-.38,1.93a2.32,2.32,0,0,1,1.35-.45,2.12,2.12,0,0,1,1.58.65,2.27,2.27,0,0,1,.65,1.67,2.63,2.63,0,0,1-.57,1.68,2.29,2.29,0,0,1-1.88.86,2.32,2.32,0,0,1-1.59-.54A2.13,2.13,0,0,1,426.32,667.44Z" transform="translate(-230.96 -393.55)" fill="#364fd9"/><path id="ArialMT-30-7" data-name="ArialMT-30" d="M431.88,665.78a6.66,6.66,0,0,1,.26-2,2.53,2.53,0,0,1,.78-1.19,2,2,0,0,1,1.29-.42,2.08,2.08,0,0,1,1,.23,1.9,1.9,0,0,1,.71.67,3.56,3.56,0,0,1,.45,1.06,6.94,6.94,0,0,1,.16,1.69,6.7,6.7,0,0,1-.26,2,2.55,2.55,0,0,1-.77,1.19,2,2,0,0,1-1.31.42,1.94,1.94,0,0,1-1.62-.74A4.71,4.71,0,0,1,431.88,665.78Zm.91,0a4.45,4.45,0,0,0,.41,2.35,1.18,1.18,0,0,0,2,0,6.78,6.78,0,0,0,0-4.7,1.22,1.22,0,0,0-1-.58,1.11,1.11,0,0,0-1,.52A4.54,4.54,0,0,0,432.79,665.78Z" transform="translate(-230.96 -393.55)" fill="#364fd9"/><path id="ArialMT-30-8" data-name="ArialMT-30" d="M437.44,665.78a6.66,6.66,0,0,1,.26-2,2.53,2.53,0,0,1,.78-1.19,2,2,0,0,1,1.3-.42,2.06,2.06,0,0,1,1,.23,1.82,1.82,0,0,1,.71.67,3.56,3.56,0,0,1,.45,1.06,6.94,6.94,0,0,1,.16,1.69,6.7,6.7,0,0,1-.26,2,2.55,2.55,0,0,1-.77,1.19,2,2,0,0,1-1.3.42,2,2,0,0,1-1.63-.74A4.71,4.71,0,0,1,437.44,665.78Zm.91,0a4.45,4.45,0,0,0,.41,2.35,1.2,1.2,0,0,0,1,.58,1.22,1.22,0,0,0,1-.58,6.94,6.94,0,0,0,0-4.7,1.25,1.25,0,0,0-1-.58,1.11,1.11,0,0,0-1,.52A4.54,4.54,0,0,0,438.35,665.78Z" transform="translate(-230.96 -393.55)" fill="#364fd9"/></g></g><g id="xtick_5" data-name="xtick 5"><g id="text_5" data-name="text 5"><path id="ArialMT-32" d="M479.73,668.47v.84H475a1.6,1.6,0,0,1,.1-.61,3.33,3.33,0,0,1,.58-1,9.7,9.7,0,0,1,1.15-1.08,9.75,9.75,0,0,0,1.58-1.52,1.84,1.84,0,0,0,.41-1.06,1.17,1.17,0,0,0-.38-.88,1.32,1.32,0,0,0-1-.36,1.37,1.37,0,0,0-1,.38,1.43,1.43,0,0,0-.39,1.06l-.9-.09a2.25,2.25,0,0,1,.69-1.55,2.42,2.42,0,0,1,1.63-.52,2.26,2.26,0,0,1,1.63.57,1.87,1.87,0,0,1,.6,1.41,2.3,2.3,0,0,1-.17.85,3.19,3.19,0,0,1-.59.87,13,13,0,0,1-1.35,1.26q-.8.66-1,.9a3.09,3.09,0,0,0-.37.48Z" transform="translate(-230.96 -393.55)" fill="#364fd9"/><path id="ArialMT-30-9" data-name="ArialMT-30" d="M480.67,665.78a6.33,6.33,0,0,1,.27-2,2.45,2.45,0,0,1,.77-1.19,2,2,0,0,1,1.3-.42,2.06,2.06,0,0,1,1,.23,1.92,1.92,0,0,1,.72.67,3.56,3.56,0,0,1,.44,1.06,6.94,6.94,0,0,1,.16,1.69,6.4,6.4,0,0,1-.26,2,2.55,2.55,0,0,1-.77,1.19,2,2,0,0,1-1.3.42,2,2,0,0,1-1.63-.74A4.71,4.71,0,0,1,480.67,665.78Zm.91,0a4.56,4.56,0,0,0,.41,2.35,1.21,1.21,0,0,0,1,.58,1.22,1.22,0,0,0,1-.58,6.94,6.94,0,0,0,0-4.7,1.25,1.25,0,0,0-1-.58,1.12,1.12,0,0,0-1,.52A4.54,4.54,0,0,0,481.58,665.78Z" transform="translate(-230.96 -393.55)" fill="#364fd9"/><path id="ArialMT-30-10" data-name="ArialMT-30" d="M486.24,665.78a6.36,6.36,0,0,1,.26-2,2.45,2.45,0,0,1,.77-1.19,2,2,0,0,1,1.3-.42,2.06,2.06,0,0,1,1,.23,1.92,1.92,0,0,1,.72.67,3.32,3.32,0,0,1,.44,1.06,6.94,6.94,0,0,1,.16,1.69,6.4,6.4,0,0,1-.26,2,2.55,2.55,0,0,1-.77,1.19,2,2,0,0,1-1.3.42,2,2,0,0,1-1.63-.74A4.71,4.71,0,0,1,486.24,665.78Zm.9,0a4.56,4.56,0,0,0,.41,2.35,1.19,1.19,0,0,0,2,0,6.94,6.94,0,0,0,0-4.7,1.25,1.25,0,0,0-1-.58,1.12,1.12,0,0,0-1,.52A4.54,4.54,0,0,0,487.14,665.78Z" transform="translate(-230.96 -393.55)" fill="#364fd9"/><path id="ArialMT-30-11" data-name="ArialMT-30" d="M491.8,665.78a6.36,6.36,0,0,1,.26-2,2.45,2.45,0,0,1,.77-1.19,2,2,0,0,1,1.3-.42,2,2,0,0,1,1,.23,1.92,1.92,0,0,1,.72.67,3.32,3.32,0,0,1,.44,1.06,6.87,6.87,0,0,1,.17,1.69,6.7,6.7,0,0,1-.26,2,2.56,2.56,0,0,1-.78,1.19,2,2,0,0,1-1.3.42,1.93,1.93,0,0,1-1.62-.74A4.64,4.64,0,0,1,491.8,665.78Zm.9,0a4.56,4.56,0,0,0,.41,2.35,1.19,1.19,0,0,0,2,0,6.94,6.94,0,0,0,0-4.7,1.25,1.25,0,0,0-1-.58,1.14,1.14,0,0,0-1,.52A4.54,4.54,0,0,0,492.7,665.78Z" transform="translate(-230.96 -393.55)" fill="#364fd9"/></g></g><g id="xtick_6" data-name="xtick 6"><g id="text_6" data-name="text 6"><path id="ArialMT-32-2" data-name="ArialMT-32" d="M534.09,668.47v.84h-4.74a1.61,1.61,0,0,1,.11-.61,3.29,3.29,0,0,1,.57-1,9.16,9.16,0,0,1,1.16-1.08,10,10,0,0,0,1.57-1.52,1.78,1.78,0,0,0,.41-1.06,1.16,1.16,0,0,0-.37-.88,1.34,1.34,0,0,0-1-.36,1.38,1.38,0,0,0-1,.38,1.51,1.51,0,0,0-.39,1.06l-.9-.09a2.22,2.22,0,0,1,.7-1.55,2.38,2.38,0,0,1,1.63-.52,2.28,2.28,0,0,1,1.63.57,1.87,1.87,0,0,1,.6,1.41,2.13,2.13,0,0,1-.18.85,3.37,3.37,0,0,1-.58.87,13.39,13.39,0,0,1-1.36,1.26,13,13,0,0,0-1,.9,2.58,2.58,0,0,0-.37.48Z" transform="translate(-230.96 -393.55)" fill="#364fd9"/><path id="ArialMT-35-3" data-name="ArialMT-35" d="M535,667.44l.92-.08a1.63,1.63,0,0,0,.48,1,1.28,1.28,0,0,0,.9.34,1.39,1.39,0,0,0,1.07-.48,1.77,1.77,0,0,0,.44-1.27,1.62,1.62,0,0,0-.42-1.18,1.59,1.59,0,0,0-1.87-.24,1.37,1.37,0,0,0-.54.5l-.82-.11.69-3.68h3.56v.84h-2.86L536.2,665a2.32,2.32,0,0,1,1.35-.45,2.12,2.12,0,0,1,1.58.65,2.26,2.26,0,0,1,.64,1.67,2.62,2.62,0,0,1-.56,1.68,2.29,2.29,0,0,1-1.88.86,2.37,2.37,0,0,1-1.6-.54A2.16,2.16,0,0,1,535,667.44Z" transform="translate(-230.96 -393.55)" fill="#364fd9"/><path id="ArialMT-30-12" data-name="ArialMT-30" d="M540.59,665.78a6.66,6.66,0,0,1,.26-2,2.46,2.46,0,0,1,.78-1.19,2,2,0,0,1,1.29-.42,2,2,0,0,1,1,.23,1.92,1.92,0,0,1,.72.67,3.56,3.56,0,0,1,.45,1.06,7.48,7.48,0,0,1,.16,1.69,6.7,6.7,0,0,1-.26,2,2.49,2.49,0,0,1-.78,1.19,2,2,0,0,1-1.3.42,1.93,1.93,0,0,1-1.62-.74A4.71,4.71,0,0,1,540.59,665.78Zm.9,0a4.43,4.43,0,0,0,.42,2.35,1.18,1.18,0,0,0,2,0,6.94,6.94,0,0,0,0-4.7,1.24,1.24,0,0,0-1-.58,1.11,1.11,0,0,0-1,.52A4.43,4.43,0,0,0,541.49,665.78Z" transform="translate(-230.96 -393.55)" fill="#364fd9"/><path id="ArialMT-30-13" data-name="ArialMT-30" d="M546.15,665.78a6.66,6.66,0,0,1,.26-2,2.53,2.53,0,0,1,.78-1.19,2,2,0,0,1,1.29-.42,2.08,2.08,0,0,1,1,.23,1.9,1.9,0,0,1,.71.67,3.56,3.56,0,0,1,.45,1.06,6.94,6.94,0,0,1,.16,1.69,6.7,6.7,0,0,1-.26,2,2.55,2.55,0,0,1-.77,1.19,2,2,0,0,1-1.31.42,1.94,1.94,0,0,1-1.62-.74A4.71,4.71,0,0,1,546.15,665.78Zm.91,0a4.45,4.45,0,0,0,.41,2.35,1.18,1.18,0,0,0,2,0,6.78,6.78,0,0,0,0-4.7,1.22,1.22,0,0,0-1-.58,1.11,1.11,0,0,0-1,.52A4.54,4.54,0,0,0,547.06,665.78Z" transform="translate(-230.96 -393.55)" fill="#364fd9"/></g></g><g id="xtick_7" data-name="xtick 7"><g id="text_7" data-name="text 7"><path id="ArialMT-33" d="M583.83,667.42l.87-.11a2,2,0,0,0,.52,1.07,1.27,1.27,0,0,0,.89.33,1.39,1.39,0,0,0,1-.43,1.42,1.42,0,0,0,.43-1.06,1.35,1.35,0,0,0-.39-1,1.39,1.39,0,0,0-1-.39,2.71,2.71,0,0,0-.62.09l.1-.77h.14a1.78,1.78,0,0,0,1-.29,1,1,0,0,0,.45-.9,1,1,0,0,0-.33-.8,1.13,1.13,0,0,0-.84-.32,1.19,1.19,0,0,0-.86.32,1.66,1.66,0,0,0-.44,1l-.88-.16a2.25,2.25,0,0,1,.74-1.37,2.12,2.12,0,0,1,1.42-.48,2.32,2.32,0,0,1,1.08.25,1.77,1.77,0,0,1,.75.68,1.81,1.81,0,0,1,.26.93,1.48,1.48,0,0,1-.25.84,1.71,1.71,0,0,1-.73.61,1.63,1.63,0,0,1,1,.6,1.84,1.84,0,0,1,.35,1.16,2.11,2.11,0,0,1-.68,1.59,2.43,2.43,0,0,1-1.73.65,2.24,2.24,0,0,1-1.56-.56A2.13,2.13,0,0,1,583.83,667.42Z" transform="translate(-230.96 -393.55)" fill="#364fd9"/><path id="ArialMT-30-14" data-name="ArialMT-30" d="M589.38,665.78a6.66,6.66,0,0,1,.26-2,2.53,2.53,0,0,1,.78-1.19,2,2,0,0,1,1.3-.42,2.06,2.06,0,0,1,1,.23,1.82,1.82,0,0,1,.71.67,3.56,3.56,0,0,1,.45,1.06,6.94,6.94,0,0,1,.16,1.69,6.7,6.7,0,0,1-.26,2A2.55,2.55,0,0,1,593,669a2,2,0,0,1-1.3.42,2,2,0,0,1-1.63-.74A4.71,4.71,0,0,1,589.38,665.78Zm.91,0a4.45,4.45,0,0,0,.41,2.35,1.18,1.18,0,0,0,2,0,6.78,6.78,0,0,0,0-4.7,1.22,1.22,0,0,0-1-.58,1.11,1.11,0,0,0-1,.52A4.54,4.54,0,0,0,590.29,665.78Z" transform="translate(-230.96 -393.55)" fill="#364fd9"/><path id="ArialMT-30-15" data-name="ArialMT-30" d="M594.94,665.78a6.33,6.33,0,0,1,.27-2,2.45,2.45,0,0,1,.77-1.19,2,2,0,0,1,1.3-.42,2.06,2.06,0,0,1,1,.23,1.92,1.92,0,0,1,.72.67,3.56,3.56,0,0,1,.44,1.06,6.94,6.94,0,0,1,.16,1.69,6.4,6.4,0,0,1-.26,2,2.55,2.55,0,0,1-.77,1.19,2,2,0,0,1-1.3.42,2,2,0,0,1-1.63-.74A4.71,4.71,0,0,1,594.94,665.78Zm.91,0a4.56,4.56,0,0,0,.41,2.35,1.21,1.21,0,0,0,1,.58,1.22,1.22,0,0,0,1-.58,6.94,6.94,0,0,0,0-4.7,1.25,1.25,0,0,0-1-.58,1.12,1.12,0,0,0-1,.52A4.54,4.54,0,0,0,595.85,665.78Z" transform="translate(-230.96 -393.55)" fill="#364fd9"/><path id="ArialMT-30-16" data-name="ArialMT-30" d="M600.51,665.78a6.36,6.36,0,0,1,.26-2,2.45,2.45,0,0,1,.77-1.19,2,2,0,0,1,1.3-.42,2.06,2.06,0,0,1,1,.23,1.92,1.92,0,0,1,.72.67,3.32,3.32,0,0,1,.44,1.06,6.94,6.94,0,0,1,.16,1.69,6.4,6.4,0,0,1-.26,2,2.55,2.55,0,0,1-.77,1.19,2,2,0,0,1-1.3.42,2,2,0,0,1-1.63-.74A4.71,4.71,0,0,1,600.51,665.78Zm.9,0a4.56,4.56,0,0,0,.41,2.35,1.19,1.19,0,0,0,2,0,6.94,6.94,0,0,0,0-4.7,1.25,1.25,0,0,0-1-.58,1.12,1.12,0,0,0-1,.52A4.54,4.54,0,0,0,601.41,665.78Z" transform="translate(-230.96 -393.55)" fill="#364fd9"/></g></g><g id="xtick_8" data-name="xtick 8"><g id="text_8" data-name="text 8"><path id="ArialMT-33-2" data-name="ArialMT-33" d="M638.18,667.42l.88-.11a2,2,0,0,0,.51,1.07,1.29,1.29,0,0,0,.89.33,1.43,1.43,0,0,0,1-.43,1.46,1.46,0,0,0,.43-1.06,1.36,1.36,0,0,0-.4-1,1.37,1.37,0,0,0-1-.39,2.79,2.79,0,0,0-.62.09l.1-.77h.14a1.76,1.76,0,0,0,1-.29,1,1,0,0,0,.45-.9,1.08,1.08,0,0,0-.32-.8,1.14,1.14,0,0,0-.85-.32,1.15,1.15,0,0,0-.85.32,1.6,1.6,0,0,0-.44,1l-.88-.16a2.29,2.29,0,0,1,.73-1.37,2.12,2.12,0,0,1,1.42-.48,2.32,2.32,0,0,1,1.08.25,1.71,1.71,0,0,1,.75.68,1.73,1.73,0,0,1,.27.93,1.56,1.56,0,0,1-.25.84,1.74,1.74,0,0,1-.74.61,1.69,1.69,0,0,1,1,.6,1.9,1.9,0,0,1,.35,1.16,2.12,2.12,0,0,1-.69,1.59,2.4,2.4,0,0,1-1.72.65,2.29,2.29,0,0,1-1.57-.56A2.21,2.21,0,0,1,638.18,667.42Z" transform="translate(-230.96 -393.55)" fill="#364fd9"/><path id="ArialMT-35-4" data-name="ArialMT-35" d="M643.74,667.44l.92-.08a1.63,1.63,0,0,0,.48,1,1.26,1.26,0,0,0,.9.34,1.39,1.39,0,0,0,1.07-.48,1.82,1.82,0,0,0,.44-1.27,1.62,1.62,0,0,0-.42-1.18,1.48,1.48,0,0,0-1.11-.44,1.55,1.55,0,0,0-.77.2,1.41,1.41,0,0,0-.53.5l-.83-.11.7-3.68h3.56v.84h-2.86L644.9,665a2.33,2.33,0,0,1,1.36-.45,2.12,2.12,0,0,1,1.58.65,2.26,2.26,0,0,1,.64,1.67,2.68,2.68,0,0,1-.56,1.68,2.29,2.29,0,0,1-1.88.86,2.35,2.35,0,0,1-1.6-.54A2.16,2.16,0,0,1,643.74,667.44Z" transform="translate(-230.96 -393.55)" fill="#364fd9"/><path id="ArialMT-30-17" data-name="ArialMT-30" d="M649.3,665.78a6.66,6.66,0,0,1,.26-2,2.45,2.45,0,0,1,.77-1.19,2,2,0,0,1,1.3-.42,2,2,0,0,1,1,.23,1.92,1.92,0,0,1,.72.67,3.56,3.56,0,0,1,.45,1.06,7.48,7.48,0,0,1,.16,1.69,6.7,6.7,0,0,1-.26,2,2.56,2.56,0,0,1-.78,1.19,2,2,0,0,1-1.3.42,1.93,1.93,0,0,1-1.62-.74A4.64,4.64,0,0,1,649.3,665.78Zm.9,0a4.56,4.56,0,0,0,.41,2.35,1.22,1.22,0,0,0,1,.58,1.2,1.2,0,0,0,1-.58,6.94,6.94,0,0,0,0-4.7,1.24,1.24,0,0,0-1-.58,1.11,1.11,0,0,0-1,.52A4.43,4.43,0,0,0,650.2,665.78Z" transform="translate(-230.96 -393.55)" fill="#364fd9"/><path id="ArialMT-30-18" data-name="ArialMT-30" d="M654.86,665.78a6.66,6.66,0,0,1,.26-2,2.46,2.46,0,0,1,.78-1.19,2,2,0,0,1,1.29-.42,2,2,0,0,1,1,.23,1.92,1.92,0,0,1,.72.67,3.56,3.56,0,0,1,.45,1.06,7.48,7.48,0,0,1,.16,1.69,6.7,6.7,0,0,1-.26,2,2.49,2.49,0,0,1-.78,1.19,2,2,0,0,1-1.3.42,1.93,1.93,0,0,1-1.62-.74A4.71,4.71,0,0,1,654.86,665.78Zm.9,0a4.43,4.43,0,0,0,.42,2.35,1.18,1.18,0,0,0,2,0,6.94,6.94,0,0,0,0-4.7,1.24,1.24,0,0,0-1-.58,1.11,1.11,0,0,0-1,.52A4.43,4.43,0,0,0,655.76,665.78Z" transform="translate(-230.96 -393.55)" fill="#364fd9"/></g></g><g id="text_9" data-name="text 9"><path id="ArialMT-20" d="M462.31,682.46" transform="translate(-230.96 -393.55)" fill="#364fd9"/></g></g><g id="matplotlib.axis_2" data-name="matplotlib.axis 2"><g id="ytick_1" data-name="ytick 1"><g id="text_10" data-name="text 10"><path id="ArialMT-32-3" data-name="ArialMT-32" d="M235.69,639.46v.84H231a1.81,1.81,0,0,1,.1-.61,3.33,3.33,0,0,1,.58-1,9.67,9.67,0,0,1,1.15-1.09,9.37,9.37,0,0,0,1.58-1.51,1.84,1.84,0,0,0,.41-1.06,1.16,1.16,0,0,0-.37-.88,1.52,1.52,0,0,0-2,0,1.43,1.43,0,0,0-.39,1.06l-.9-.1a2.25,2.25,0,0,1,.69-1.54,2.42,2.42,0,0,1,1.63-.53,2.26,2.26,0,0,1,1.63.57,1.9,1.9,0,0,1,.6,1.42,2.12,2.12,0,0,1-.17.85,3.34,3.34,0,0,1-.59.87,13,13,0,0,1-1.35,1.26q-.8.66-1,.9a3.09,3.09,0,0,0-.37.48Z" transform="translate(-230.96 -393.55)" fill="#364fd9"/><path id="ArialMT-30-19" data-name="ArialMT-30" d="M236.64,636.77a6.32,6.32,0,0,1,.26-2,2.53,2.53,0,0,1,.77-1.2,2,2,0,0,1,1.3-.42,2.07,2.07,0,0,1,1,.24,1.89,1.89,0,0,1,.72.66,3.48,3.48,0,0,1,.44,1.07,6.94,6.94,0,0,1,.16,1.69,6.3,6.3,0,0,1-.26,2,2.53,2.53,0,0,1-.77,1.2,2.19,2.19,0,0,1-2.93-.32A4.75,4.75,0,0,1,236.64,636.77Zm.9,0a4.56,4.56,0,0,0,.41,2.35,1.18,1.18,0,0,0,2,0,6.91,6.91,0,0,0,0-4.69,1.23,1.23,0,0,0-1-.58,1.14,1.14,0,0,0-1,.51A4.58,4.58,0,0,0,237.54,636.77Z" transform="translate(-230.96 -393.55)" fill="#364fd9"/><path id="ArialMT-31-3" data-name="ArialMT-31" d="M245.51,640.3h-.88v-5.6a5.11,5.11,0,0,1-.83.61,6.41,6.41,0,0,1-.93.45v-.85a5.32,5.32,0,0,0,1.29-.84,3.23,3.23,0,0,0,.78-1h.57Z" transform="translate(-230.96 -393.55)" fill="#364fd9"/><path id="ArialMT-37" d="M247.82,634.08v-.85h4.63v.69a9.62,9.62,0,0,0-1.35,1.93,11.56,11.56,0,0,0-1,2.48,9.09,9.09,0,0,0-.34,2h-.9a8.89,8.89,0,0,1,.33-2,10.88,10.88,0,0,1,.91-2.31,10.48,10.48,0,0,1,1.26-1.87Z" transform="translate(-230.96 -393.55)" fill="#364fd9"/></g></g><g id="ytick_2" data-name="ytick 2"><g id="text_11" data-name="text 11"><path id="ArialMT-32-4" data-name="ArialMT-32" d="M235.69,581.12V582H231a1.77,1.77,0,0,1,.1-.61,3.37,3.37,0,0,1,.58-1,9.7,9.7,0,0,1,1.15-1.08,9.34,9.34,0,0,0,1.58-1.52,1.82,1.82,0,0,0,.41-1,1.16,1.16,0,0,0-.37-.88,1.36,1.36,0,0,0-1-.36,1.33,1.33,0,0,0-1,.38,1.39,1.39,0,0,0-.39,1.05l-.9-.09a2.23,2.23,0,0,1,.69-1.54,2.42,2.42,0,0,1,1.63-.53,2.26,2.26,0,0,1,1.63.57,1.87,1.87,0,0,1,.6,1.42,2.07,2.07,0,0,1-.17.84,3.22,3.22,0,0,1-.59.88,15.72,15.72,0,0,1-1.35,1.26q-.8.66-1,.9a2.63,2.63,0,0,0-.37.47Z" transform="translate(-230.96 -393.55)" fill="#364fd9"/><path id="ArialMT-30-20" data-name="ArialMT-30" d="M236.64,578.44a6.43,6.43,0,0,1,.26-2.05,2.55,2.55,0,0,1,.77-1.19,2,2,0,0,1,1.3-.42,2.18,2.18,0,0,1,1,.23,2,2,0,0,1,.72.67,3.38,3.38,0,0,1,.44,1.07,6.89,6.89,0,0,1,.16,1.69,6.34,6.34,0,0,1-.26,2,2.58,2.58,0,0,1-.77,1.2,2.19,2.19,0,0,1-2.93-.32A4.75,4.75,0,0,1,236.64,578.44Zm.9,0a4.54,4.54,0,0,0,.41,2.34,1.18,1.18,0,0,0,2,0,6.91,6.91,0,0,0,0-4.69,1.23,1.23,0,0,0-1-.58,1.14,1.14,0,0,0-1,.51A4.58,4.58,0,0,0,237.54,578.44Z" transform="translate(-230.96 -393.55)" fill="#364fd9"/><path id="ArialMT-31-4" data-name="ArialMT-31" d="M245.51,582h-.88v-5.6a4.58,4.58,0,0,1-.83.6,6.59,6.59,0,0,1-.93.46v-.85a5.32,5.32,0,0,0,1.29-.84,3.23,3.23,0,0,0,.78-1h.57Z" transform="translate(-230.96 -393.55)" fill="#364fd9"/><path id="ArialMT-38" d="M249.11,578.09a1.73,1.73,0,0,1-.81-.58,1.44,1.44,0,0,1-.26-.89,1.72,1.72,0,0,1,.56-1.31,2.37,2.37,0,0,1,3,0,1.79,1.79,0,0,1,.57,1.33,1.44,1.44,0,0,1-.26.87,1.72,1.72,0,0,1-.79.57,1.83,1.83,0,0,1,1.35,1.83,2.05,2.05,0,0,1-.65,1.54,2.37,2.37,0,0,1-1.71.63,2.34,2.34,0,0,1-1.71-.63,2.1,2.1,0,0,1-.65-1.56,1.91,1.91,0,0,1,.35-1.17A1.76,1.76,0,0,1,249.11,578.09Zm-.17-1.49a1.12,1.12,0,0,0,.32.83,1.28,1.28,0,0,0,1.69,0,1.13,1.13,0,0,0,0-1.6,1.13,1.13,0,0,0-.83-.33,1.16,1.16,0,0,0-.83.32A1.07,1.07,0,0,0,248.94,576.6Zm-.29,3.3a1.58,1.58,0,0,0,.18.73,1.26,1.26,0,0,0,.53.54,1.57,1.57,0,0,0,.76.2,1.43,1.43,0,0,0,1-.41,1.39,1.39,0,0,0,.41-1,1.42,1.42,0,0,0-.42-1,1.46,1.46,0,0,0-1.06-.41,1.36,1.36,0,0,0-1,.41A1.39,1.39,0,0,0,248.65,579.9Z" transform="translate(-230.96 -393.55)" fill="#364fd9"/></g></g><g id="ytick_3" data-name="ytick 3"><g id="text_12" data-name="text 12"><path id="ArialMT-32-5" data-name="ArialMT-32" d="M235.69,522.79v.84H231a1.81,1.81,0,0,1,.1-.61,3.33,3.33,0,0,1,.58-.95,9.7,9.7,0,0,1,1.15-1.08,9.75,9.75,0,0,0,1.58-1.52,1.82,1.82,0,0,0,.41-1.06,1.18,1.18,0,0,0-.37-.88,1.36,1.36,0,0,0-1-.36,1.34,1.34,0,0,0-1,.39,1.39,1.39,0,0,0-.39,1.05l-.9-.09a2.21,2.21,0,0,1,.69-1.54,2.37,2.37,0,0,1,1.63-.53,2.26,2.26,0,0,1,1.63.57,1.87,1.87,0,0,1,.6,1.41,2.12,2.12,0,0,1-.17.85,3,3,0,0,1-.59.87,13,13,0,0,1-1.35,1.26c-.53.44-.87.75-1,.9a3.09,3.09,0,0,0-.37.48Z" transform="translate(-230.96 -393.55)" fill="#364fd9"/><path id="ArialMT-30-21" data-name="ArialMT-30" d="M236.64,520.1a6.4,6.4,0,0,1,.26-2,2.5,2.5,0,0,1,.77-1.19,2,2,0,0,1,1.3-.42,2.06,2.06,0,0,1,1,.23,1.92,1.92,0,0,1,.72.67,3.32,3.32,0,0,1,.44,1.06,6.94,6.94,0,0,1,.16,1.69,6.4,6.4,0,0,1-.26,2,2.55,2.55,0,0,1-.77,1.19,1.94,1.94,0,0,1-1.3.43,2,2,0,0,1-1.63-.75A4.71,4.71,0,0,1,236.64,520.1Zm.9,0a4.56,4.56,0,0,0,.41,2.35,1.19,1.19,0,0,0,2,0,4.56,4.56,0,0,0,.41-2.35,4.49,4.49,0,0,0-.41-2.34,1.24,1.24,0,0,0-1-.59,1.15,1.15,0,0,0-1,.52A4.54,4.54,0,0,0,237.54,520.1Z" transform="translate(-230.96 -393.55)" fill="#364fd9"/><path id="ArialMT-31-5" data-name="ArialMT-31" d="M245.51,523.63h-.88V518a4.58,4.58,0,0,1-.83.61,6.41,6.41,0,0,1-.93.45v-.85a5.32,5.32,0,0,0,1.29-.84,3.2,3.2,0,0,0,.78-.95h.57Z" transform="translate(-230.96 -393.55)" fill="#364fd9"/><path id="ArialMT-39" d="M247.89,522l.85-.08a1.42,1.42,0,0,0,.41.87,1.16,1.16,0,0,0,.77.26,1.36,1.36,0,0,0,.71-.18,1.49,1.49,0,0,0,.5-.5,2.86,2.86,0,0,0,.33-.83,4.43,4.43,0,0,0,.13-1.08v-.17a2.24,2.24,0,0,1-.72.68,2.05,2.05,0,0,1-2.5-.39,2.35,2.35,0,0,1-.61-1.7,2.4,2.4,0,0,1,.64-1.75,2.16,2.16,0,0,1,1.61-.66,2.33,2.33,0,0,1,1.28.37,2.4,2.4,0,0,1,.88,1.07,5.33,5.33,0,0,1,.3,2,6.45,6.45,0,0,1-.3,2.18,2.59,2.59,0,0,1-.89,1.24,2.31,2.31,0,0,1-1.38.43,2,2,0,0,1-1.37-.47A2,2,0,0,1,247.89,522Zm3.6-3.16a1.74,1.74,0,0,0-.4-1.2,1.26,1.26,0,0,0-1-.45,1.34,1.34,0,0,0-1,.48,1.77,1.77,0,0,0-.44,1.24,1.53,1.53,0,0,0,.41,1.11,1.36,1.36,0,0,0,1,.43,1.31,1.31,0,0,0,1-.43A1.68,1.68,0,0,0,251.49,518.82Z" transform="translate(-230.96 -393.55)" fill="#364fd9"/></g></g><g id="ytick_4" data-name="ytick 4"><g id="text_13" data-name="text 13"><path id="ArialMT-32-6" data-name="ArialMT-32" d="M235.69,464.46v.84H231a1.81,1.81,0,0,1,.1-.61,3.33,3.33,0,0,1,.58-.95,9.67,9.67,0,0,1,1.15-1.09,9.37,9.37,0,0,0,1.58-1.51,1.84,1.84,0,0,0,.41-1.06,1.16,1.16,0,0,0-.37-.88,1.52,1.52,0,0,0-2,0,1.43,1.43,0,0,0-.39,1.06l-.9-.1a2.25,2.25,0,0,1,.69-1.54,2.42,2.42,0,0,1,1.63-.53,2.26,2.26,0,0,1,1.63.57,1.9,1.9,0,0,1,.6,1.42,2.12,2.12,0,0,1-.17.85,3.34,3.34,0,0,1-.59.87,13,13,0,0,1-1.35,1.26q-.8.66-1,.9a3.09,3.09,0,0,0-.37.48Z" transform="translate(-230.96 -393.55)" fill="#364fd9"/><path id="ArialMT-30-22" data-name="ArialMT-30" d="M236.64,461.77a6.32,6.32,0,0,1,.26-2,2.53,2.53,0,0,1,.77-1.2,2,2,0,0,1,1.3-.42,2.07,2.07,0,0,1,1,.24,1.89,1.89,0,0,1,.72.66,3.48,3.48,0,0,1,.44,1.07,6.94,6.94,0,0,1,.16,1.69,6.3,6.3,0,0,1-.26,2,2.53,2.53,0,0,1-.77,1.2,2.19,2.19,0,0,1-2.93-.32A4.75,4.75,0,0,1,236.64,461.77Zm.9,0a4.56,4.56,0,0,0,.41,2.35,1.18,1.18,0,0,0,2,0,6.91,6.91,0,0,0,0-4.69,1.23,1.23,0,0,0-1-.58,1.14,1.14,0,0,0-1,.51A4.58,4.58,0,0,0,237.54,461.77Z" transform="translate(-230.96 -393.55)" fill="#364fd9"/><path id="ArialMT-32-7" data-name="ArialMT-32" d="M246.82,464.46v.84h-4.73a1.43,1.43,0,0,1,.1-.61,3.29,3.29,0,0,1,.57-.95,9.13,9.13,0,0,1,1.16-1.09,9.62,9.62,0,0,0,1.57-1.51,1.78,1.78,0,0,0,.41-1.06,1.16,1.16,0,0,0-.37-.88,1.34,1.34,0,0,0-1-.36,1.38,1.38,0,0,0-1,.38,1.51,1.51,0,0,0-.39,1.06l-.9-.1a2.21,2.21,0,0,1,.7-1.54,2.39,2.39,0,0,1,1.63-.53,2.28,2.28,0,0,1,1.63.57,1.9,1.9,0,0,1,.6,1.42,2.13,2.13,0,0,1-.18.85,3.55,3.55,0,0,1-.58.87,13.39,13.39,0,0,1-1.36,1.26,13,13,0,0,0-1,.9,2.58,2.58,0,0,0-.37.48Z" transform="translate(-230.96 -393.55)" fill="#364fd9"/><path id="ArialMT-30-23" data-name="ArialMT-30" d="M247.76,461.77a6.61,6.61,0,0,1,.26-2,2.47,2.47,0,0,1,.78-1.2,2,2,0,0,1,1.29-.42,2,2,0,0,1,1,.24,1.89,1.89,0,0,1,.72.66,3.75,3.75,0,0,1,.45,1.07,7.48,7.48,0,0,1,.16,1.69,6.59,6.59,0,0,1-.26,2,2.47,2.47,0,0,1-.78,1.2,2.18,2.18,0,0,1-2.92-.32A4.75,4.75,0,0,1,247.76,461.77Zm.9,0a4.56,4.56,0,0,0,.41,2.35,1.22,1.22,0,0,0,1,.58,1.19,1.19,0,0,0,1-.59,6.91,6.91,0,0,0,0-4.69,1.21,1.21,0,0,0-1-.58,1.12,1.12,0,0,0-1,.51A4.47,4.47,0,0,0,248.66,461.77Z" transform="translate(-230.96 -393.55)" fill="#364fd9"/></g></g><g id="ytick_5" data-name="ytick 5"><g id="text_14" data-name="text 14"><path id="ArialMT-32-8" data-name="ArialMT-32" d="M235.69,406.12V407H231a1.77,1.77,0,0,1,.1-.61,3.37,3.37,0,0,1,.58-1,9.7,9.7,0,0,1,1.15-1.08,9.34,9.34,0,0,0,1.58-1.52,1.82,1.82,0,0,0,.41-1.05,1.16,1.16,0,0,0-.37-.88,1.36,1.36,0,0,0-1-.36,1.33,1.33,0,0,0-1,.38,1.39,1.39,0,0,0-.39,1.05l-.9-.09a2.23,2.23,0,0,1,.69-1.54,2.42,2.42,0,0,1,1.63-.53,2.26,2.26,0,0,1,1.63.57,1.87,1.87,0,0,1,.6,1.42,2.07,2.07,0,0,1-.17.84,3.22,3.22,0,0,1-.59.88,15.72,15.72,0,0,1-1.35,1.26q-.8.66-1,.9a2.63,2.63,0,0,0-.37.47Z" transform="translate(-230.96 -393.55)" fill="#364fd9"/><path id="ArialMT-30-24" data-name="ArialMT-30" d="M236.64,403.44a6.43,6.43,0,0,1,.26-2.05,2.55,2.55,0,0,1,.77-1.19,2,2,0,0,1,1.3-.42,2.18,2.18,0,0,1,1,.23,2,2,0,0,1,.72.67,3.38,3.38,0,0,1,.44,1.07,6.89,6.89,0,0,1,.16,1.69,6.34,6.34,0,0,1-.26,2,2.58,2.58,0,0,1-.77,1.2,2.19,2.19,0,0,1-2.93-.32A4.75,4.75,0,0,1,236.64,403.44Zm.9,0a4.54,4.54,0,0,0,.41,2.34,1.18,1.18,0,0,0,2,0,6.91,6.91,0,0,0,0-4.69,1.23,1.23,0,0,0-1-.58,1.14,1.14,0,0,0-1,.51A4.58,4.58,0,0,0,237.54,403.44Z" transform="translate(-230.96 -393.55)" fill="#364fd9"/><path id="ArialMT-32-9" data-name="ArialMT-32" d="M246.82,406.12V407h-4.73a1.4,1.4,0,0,1,.1-.61,3.33,3.33,0,0,1,.57-1,9.16,9.16,0,0,1,1.16-1.08,9.58,9.58,0,0,0,1.57-1.52,1.75,1.75,0,0,0,.41-1.05,1.16,1.16,0,0,0-.37-.88,1.52,1.52,0,0,0-2,0,1.47,1.47,0,0,0-.39,1.05l-.9-.09a2.19,2.19,0,0,1,.7-1.54,2.39,2.39,0,0,1,1.63-.53,2.28,2.28,0,0,1,1.63.57,1.87,1.87,0,0,1,.6,1.42,2.08,2.08,0,0,1-.18.84,3.41,3.41,0,0,1-.58.88,16.21,16.21,0,0,1-1.36,1.26,13,13,0,0,0-1,.9,2.24,2.24,0,0,0-.37.47Z" transform="translate(-230.96 -393.55)" fill="#364fd9"/><path id="ArialMT-31-6" data-name="ArialMT-31" d="M251.07,407h-.88v-5.6a4.58,4.58,0,0,1-.83.6,6.1,6.1,0,0,1-.93.46v-.85a5.32,5.32,0,0,0,1.29-.84,3.23,3.23,0,0,0,.78-1h.57Z" transform="translate(-230.96 -393.55)" fill="#364fd9"/></g></g></g></g></g><line x1="1052.54" y1="144.95" x2="1071.54" y2="125.95" fill="none" stroke="#364fd9"/></svg>