<?xml version="1.0" encoding="utf-8"?>
<!-- Generator: Adobe Illustrator 24.0.2, SVG Export Plug-In . SVG Version: 6.00 Build 0)  -->
<svg version="1.1" id="Layer_1" xmlns="http://www.w3.org/2000/svg" xmlns:xlink="http://www.w3.org/1999/xlink" x="0px" y="0px"
	 viewBox="0 0 173.7 147.3" style="enable-background:new 0 0 173.7 147.3;" xml:space="preserve">
<style type="text/css">
	
		.st0{fill-rule:evenodd;clip-rule:evenodd;fill:#0F26A6;fill-opacity:0.95;stroke:#232323;stroke-width:0.74;stroke-linecap:square;stroke-linejoin:bevel;stroke-opacity:0;}
</style>
<title>bronx</title>
<g id="Map_1:_NYC_Boroughs_Besides_SI">
	<path class="st0" d="M68.7,12.8l2.2,0.6l3.4,1l1.6,0.5l1,0.3l1,0.3l1.9,0.6h0.3l0.1,0.1l0.2,0.1l0.2,0.1l0.2,0.1l0.3,0.1l0.3,0.1
		l0.2-0.1l0.3,0.1l0.2,0.1h0.1l0.1,0.1l0.2,0.1l0.3,0.1h0.1h0.1l0.7,0.2l0.1-0.1l0.1-0.1l0.3-0.3l-0.2-0.1l-0.2-0.3l0-0.2l0,0h0.2
		l0.2,0.1l0.2-0.3l-0.5-0.2H84l-0.1-0.1v-0.2l0-0.1V15l0.4-0.2h0.1h0.1l0.1,0.1l0.1,0.1l0.3,0.3l0.4,0.1l0.3-0.1v-0.3l0.2-0.3
		l0.3,0.1l0.2-0.1l0.5-0.8l-0.1-0.5l0.2-0.6l0-0.1l-0.1-0.1h-0.1h-0.2l-0.1-0.1l0.3-0.5h0.1L87,12h0.1h0.1l0.3-0.1l0.4-0.2v-0.2
		l-0.4-0.1h-0.2h-0.1L86.7,11l0.1-0.2l0.3-0.1l0.7,0.1h0.1H88l0.3-0.1l0.4-0.5l1-0.2L90.3,9l-0.1-0.2h-0.5h-0.5l0-0.1l0-0.1L89,8.4
		l0.4-0.7l0.8-0.6l0.1-0.1L90.4,7l0.3-0.5l0.5-0.4h0.2l0.2,0.1l-0.1,0.3l0.2,0.2h0.2l0.5-0.3l0.3-0.1l0.1-0.2l0.4,0.1l-0.6,0.8
		l-0.5,0.6l-0.3,0.4L91,8.8l-0.5,0.6l1,0.4l0.3,0.1l1,0.3l0.5,0.2L94,9.7l0.2-0.3l1,0.4l0.8,0.3l1.8,0.7l0.9,0.3l1,0.3l0.6,0.1
		l-0.1,0.5l0,0.4v0.5h0.5h3.5l0.3,0.8l0.1,0.3l0,0.5l0.2,1.1v0.1l0,0.1V16l0,0.1l0,0.1v0.1l0.7,0.9l0.9,1.2v0.1v0.1v0.1v0.1v0.1V19
		v0.1v0.1v0.1l0,0.1l-0.4,0.9v0.6l0.8,2l0.6,1.7l0.4-0.1l0.8,0.2l1.2,0.4l1.2,0.2l1.9,0.7l1,0.2l0.9,0.3l1,0.4l1,0.3l1.3,0.4
		l0.3,0.1l0.8,0.3l0.8,0.3l2.3,0.6l1.5,0.4l0.3,0.1l1.3,0.5l0.1-0.1v-0.1l0,0v-0.1l0,0l0,0l0,0l0,0l0,0l0,0h0l0,0h-0.2h-0.1l0,0
		h-0.1H125h0h-0.1l0,0l0,0h-0.1h-0.1h0h0l0,0l0,0l0,0l0,0v-0.1v-0.1v-0.1v-0.1v-0.1V29l0,0l0,0l0,0h-0.1l0,0l0,0l0,0v-0.1l0.1-0.3
		l0.6-0.3l2.5,0.7l1.2,0.3h0.1h0.1l1.3,0.5l0.7,0.2l1.1,0.3l0.7,0.1l0.3,0.1l0.5,0.1h0.1h0.1l1.7,0.4l1.5,0.4l1.1,0.3l1.5,0.4
		l0.5,0.1l0.8,0.2l1.3,0.4l1.3,0.3l1.8,0.4l0.3,0.1l0.3,0.1l1.5,0.4l1.1,0.4l3,0.7l1.8,0.5l0.5,0.1l1.2,0.3l1.6,0.4l0.9,0.2l0.2,0.1
		l1,0.3l-0.2,0.6l-0.4,0.4l-0.2,0.6l-1.3,1.6l-0.7-0.2l0.6,1.1l-1.4,3.1l-1,0.9l-0.1,0.5l-0.3,0.7l-1.2,0.8l-0.4-0.3l-1,0.6
		l-0.1,0.8l-0.4,0.7l-0.1,0.1v0.1l-0.1,0.1v0.1v0.1l-0.1,0.2v0.1l-0.1,0.2v0.1v0.1l0,0v0.1v0.1h-0.1l-0.1,0.1h-0.2h-0.1l-0.2,0.2
		h-0.1l-0.1,0.1l-0.3,0.2l-0.2,0.2l0.1,0.1l-0.1,0.1h-0.1v-0.4l0,0h-0.1v0.1V51h0.1l0,0.1h-0.2l-0.2,0.2v0.1h-0.1l-0.1,0.5l0.1,0.1
		v0.1v0.1h0.1l-0.1,0.1v0.1l-0.1,0.1h-0.1v0.2l-0.2,0.2l-0.2-0.1l-0.1-0.1l-0.1-0.1l-0.1,0.1l-0.1,0.1h-0.1l-0.1-0.1l-0.1-0.1
		l-0.1-0.1h-0.1l-0.5,0.2v0.1v0.2l-0.2,0.1l-0.1-0.1l-0.1-0.1l0,0l-0.1,0.1l0,0v-0.1l0-0.1h-0.1l0,0h-0.1l-0.1-0.1l-0.1-0.1
		l-0.1-0.1h-0.2H145l-0.1,0.1v0.1h-0.1h-0.2h0h-0.3l0-0.1v-0.1l-0.1-0.1h0h0h0l0.1-0.1h0v-0.2v-0.1h-0.1l-0.2-0.1L144,52l-0.1-0.1
		l-0.1-0.1l-0.1-0.2v-0.1l-0.2-0.1l-0.1-0.1v-0.1h-0.1v-0.1h-0.1H143h-0.1V51h-0.1h-0.2h-0.1l-0.2-0.3l-0.2-0.1v-0.1v-0.1v-0.1
		l-0.1,0.1h-0.1l-0.2-0.1h-0.1v-0.1l-0.1,0.1h-0.2h-0.1l0-0.2l-0.1,0.1h-0.2h-0.2h-0.2l0.1,0.1l0.2-0.1h0.2l0,0h0.1l0.2,0.1v0.1h0.1
		h0.1v0.1v0.1l0.1,0.1l-0.1,0.1l-0.1,0.1l-0.1,0.1h0.1l0.2-0.1h0.1h0.1h0.1v0.1h0.1l0.2-0.1h0.1l0,0h0.1h0.1l0.1,0.1v0.2v0.1h-0.1
		h-0.1l-0.1,0.1l-0.1,0.1v0.2H142l-0.1,0.1l0,0.1l0,0h-0.1V52l0,0l-0.1,0.1h-0.1l0,0.1h-0.1l0,0h-0.3l0.1,0.1v0.1l0,0h-0.1h-0.1l0,0
		l-0.1,0.1l0,0h0.1l0.1-0.1h0.1l0,0l0.1-0.1l0.1-0.1l0.1-0.1h0.1v-0.1h0l0-0.1h0.1v-0.1h0.1v0.1l0.1-0.1h0.1h0.1l0.1,0.1h0.1h0h0.1
		h0.1h0v0.1l0.1,0.1h0.1h0.1h0.1V52l0,0l0,0.1v0.1v0.1v0.1v0.1v0.1v0.1H143v0.1h0.2l0.1-0.1h0.1l0,0.1l0,0h0h0h-0.1l0,0h0h0.1h0.1
		v0.1h0.1h0.1v0.1l0.1,0.1l0,0h0.2l0.1,0.1l0.1,0.1l0.1-0.1l0.1,0.1h0.1l0.1-0.1h0.1V53l0.1,0.1v-0.1h0.1h0.1h0.1h0.1l0,0h0.1
		l0.1,0.1l0.1,0.1v0.2l0,0.1v0.2l-0.1,0.2l0.1,0.5v0.2v0.2h0.1l0.2-0.1l0-0.1v-0.1h0.1h0.1l0.1-0.1l0.1-0.1l0.1-0.1l0.2-0.1l0.3,0.1
		h0.2l0.2-0.1h0.1v0.1h0.1l0.1,0.1l-0.2,0.2l0.1,0.1l-0.1,0.2l0,0.1h0.1v0.2l-0.1,0.1v0.1v0.2l0,0.1v0.2h0.2l0.1,0.1h0.3h0.5v-0.1
		l0.2,0.1l0.1-0.2h0.2v-0.2v0.3v-0.1l0.3-0.4l0.1-0.1l0-0.2l0.5-0.8L150,54v-0.3l0.2-0.3l0.3-0.1l0.2-0.3l0.1-0.1v-0.2l0.2-0.2
		l0.1-0.2l0.1-0.1l0-0.2v-0.2h0.1l0.1-0.1v-0.2l0.1-0.2l0.1-0.2v-0.2l0.1-0.1l0.1-0.2l0.3-0.4l0.1-0.3l0.1-0.1v-0.1l0.1-0.1l0-0.1
		l0.2-0.1l0.3-0.4l0.1-0.1l0.1-0.1h0.1h0.1h0.2h0.1h0.1h0.1h0.1v-0.1l2.4-0.6l0.9-1.5l0.4-1.8v-0.7l0.5-0.4l-1.2-0.4l-0.2-0.3
		l0.6-1.1l0.9-0.6v-0.3l0.1-0.2l0.3-0.1l0.2,0.1h0.2l0.3-0.1l0.1-0.3l0.2-0.1h0.3l0.6-0.1l0.4-0.3v-0.2l-0.2-0.2v-0.1l0.4-0.2l1-0.3
		h0.1h0.1h0.1h0.1h0.1h0.1l-0.1,0.2l0.1,0.3l0,0.1l-0.2,0.1l0.2,0.6l-0.2,0.2l-0.2,0.1h-0.3l-0.3,0.2l0.6,0.7l1.4,0.1l0.6-0.1h0.4
		h0.3h0.2h0.2h0.7l0.2,0.2l0.8,0.3l0.4,0.1h0.3h0.2v0.1l0.2,0.2v0.1v0.2v0.3L168,44h-0.4l0.1,0.6v0.3h-0.2l-0.1,0.1v0.1l-0.3,0.1
		l-0.2,0.2v0.2h-0.2h-0.1l-0.3,0.3l-0.2,0.4l-0.1,0.3l0.2,0.1h-0.2l-0.2,0.1l-0.1,0.1v0.1l-0.3,0.1l-0.1,0.2v0.3l-0.1,0.4v0.5
		l0.4,0.3l0.6,0.1l0.3-0.2l0.2-0.3l0.4-0.3l0.2-0.5h0.2l0.1,0.1l-0.1,0.1v0.1v0.1l-0.1,0.1l0,0l-0.3,0.3v0.2V49l0.1,0.2l-0.1,0.1
		v0.3l0.4,0.5l0.2-0.4l0.2-0.4l0.1-0.1l0.6-1l0.3-0.5h0.3l0.4,0.1l0.2,0.2l-0.1,0.3l-0.2,0.1h0l-0.1,0.2h-0.1l-0.1,0.1v0.1l0.2,0.2
		v0.2l0.4,0.2l0.2,0.1l0.1,0.1V50l-0.1,0.3l-0.1,0.2v0.2l0.1,0.1l-0.1,0.3l-0.1,0.1l-0.1,0.1v0.1l-0.1,0.1h-0.2H169l0,0.2h-0.1
		l-0.1,0.1h0l-0.1,0.2v0.1h-0.1l-0.2,0.1l0,0h-0.2l-0.2,0.1l-0.2,0.2l-0.2,0.4l-0.4,0.7h-0.1l0,0l0.2-0.4v-0.2l-0.2-0.3l-0.4-0.1
		h-0.5h-1h-0.3l-0.4,0.1l-0.3-0.1l-1.1,0.3h-0.2l-0.3,0.1l-0.3,0.1l-0.5,0.4l-0.3,0.1l-0.6,0.7l-0.3,0.4l-0.3,0.5l-0.1,0.2l-0.1,0.2
		l-0.1,0.2v0.2l-0.1,0.2v0.2l0,0.2v0.2v0.2v0.4v0.2V58l0,0.2v0.2l0.1,0.2l0,0.2l0.1,0.2l0.1,0.2l0.1,0.2l0.1,0.2l0.1,0.2l0.1,0.2
		l0.1,0.2l-0.4,1.2v0.2h-0.3l-0.2,0.1l-0.1,0.1l-0.7,0.1l-0.1,0.1l-0.2,0.1l-0.3,0.1l-0.1,0.2l-0.1,0.1l-0.1,0.1v0.1l0.1,0.1L158,63
		h-0.2l-0.1,0.2l-0.1,0.2l0.1,0.2l-0.3,0.1l-0.1,0.1l-0.2,0.2l-0.2,0.4l-0.2,0.5v0.2l0,0.2l0.1,0.2l0.1,0.2l0.1,0.2l0.1,0.2h0h0h0
		v0.1l0,0v0.1l0,0v0.1l0,0l0,0l0,0v0.1l-0.1,0.1l0,0l0,0h-0.2h-0.1h0l-0.1-0.1h-0.8l-1.4,0.3l-0.2,0.1l-0.1,0.1l-0.1,0.1l-0.1,0.2
		l-0.1,0.1l-0.1,0.2l-0.1,0.2l-0.1,0.2l-0.1,0.2l-0.1,0.2h-0.3l-0.3-0.2l-0.2,0.1l-0.4,1l0,0.1v0.1v0.1l0,0.1l0.1,0.1l0.1,0.1
		l0.1,0.1l0.1,0.1l0.1,0.1h0.1l0.1,0.1l0.1,0.1l0.1,0.1l0.1,0.1l0.2,1.2l-0.4,1.5l-1.3,0.8l-0.1,0.1l-0.1,0.1l-0.1,0.1l-0.1,0.1
		l-0.1,0.1v0.1l0,0.1l0,0.1v0.1l0,0.1v0.2v0.1v0.1v0.1v0.1v0.1l0,0.3l0,0l0,0l0,0h0h-0.1h-0.1h0h-0.4l-0.1-0.1l-0.1-0.1h-0.1
		l-0.1-0.1l-0.1-0.1l-0.1-0.1l-0.1-0.1l-0.1-0.1l-0.1-0.1l-0.1-0.1l-0.1-0.1l-0.1-0.1v-0.1v-0.1l0-0.1v-0.1v-0.4v-0.1v-0.1v-0.1
		l0-0.1l-0.2-0.3l-0.2-0.3l-0.2-0.3l-0.2-0.3l-0.2-0.3l-0.2-0.3l-0.2-0.3l-0.3,0.2l-0.2-0.3l-0.2-0.2l-0.2-0.2l-0.4-0.7l-0.4-1.6
		v-0.1v-0.1l0,0v-0.1l0,0l0.1-0.1h0l0.1-0.1h0.1h0.1h0.1h0.1h0.1h0.1h0.1h0h0l0,0h0l0,0l0,0v-0.1v-0.6l-0.2-0.6l-0.1-0.2l0-0.2
		l0-0.2v-0.3l-0.1-0.3l-0.1-0.4l-0.1-0.4V65v-0.4v-0.2v-0.2v-0.1l0,0l-0.1-0.1l-0.1-0.1l-0.1-0.2l-0.1-0.3l-0.1-0.3v-0.4V62v-0.2
		v-0.1l0-0.2l0-0.1l-0.1-0.2h-0.1l-0.1-0.1l-0.1-0.1l-0.1-0.1H145h-0.1l-0.1-0.1h-0.1h-0.1h-0.3h-0.1h-0.1l0,0.1H144l0,0.1l0,0.1
		v0.1l0,0v0.1v0.1l0.5,1.6l-0.3,0.2l-0.5,0.1l-0.2-0.1l-0.2-0.1l-0.2-0.1h-0.3l-0.3,0.1l-0.3,0.3l0,0.2l-0.2,0.1l-0.1-0.2l-0.4-0.4
		l-0.4-0.3l-0.3-0.1l-0.2-0.1l-0.6-0.6l-0.2-0.3l-0.3-0.4l-0.1-0.2l-0.2-0.1h-0.2l0-0.3l-0.3-0.1h-0.1l-0.1-0.1l-0.1-0.1h-0.1h-0.1
		h-0.1h-0.1h-0.4l0,0l0,0l0,0l0,0l0,0h-0.1l0,0l0,0V60l0,0l0,0l0,0l0,0l-0.1-0.1l-0.1-0.1l-0.1-0.1l-0.1-0.1l-0.1-0.1l0,0l0,0h-0.2
		l0,0h-0.1l0,0l0,0l0-0.1l-0.1-0.1l-0.1-0.1l-0.1-0.1l0,0v-0.1l0,0l0,0l0,0v-0.1l0,0l0,0l0,0h-0.7h-0.1h-0.1v-0.1V59l0-0.1v-0.1h0
		V59l-0.1,0.1v0.1v0.1l0,0l0.1,0.1l-0.3,0.5l-0.1,0.1l-0.1,0.1h-0.2h-0.1h-0.1H134h0v-0.1l0,0v-0.1l-0.1,0.1l-0.5,0.6l-1,1.5
		l0.1,0.1l0.5,0.2l0.4,0.1l0.3-0.2h0.5l0,0.2l1.2,0.4l1.2,1.9l0.5,5.3l-4.6,0.1l-0.2,0.3L132,71l-0.1,0.6v0.1v0.1v0.1v0.1l0,0.1l0,0
		V72l0,0v0.1v0.1v0.1v0.1l0,0v0.1v0.1v0.1l0,0v0.1l0,0.1h0l0,0h0.1l0,0h0l0,0l0,0h0l0,0h-0.1v0.1v0.1v0.1V73l0,0V73v0.1v0.1l0.1,0.1
		l0,0h0.1h0.1h0.1h0.1h0.1h0.1l0,0h0h0.1l0,0v0.1l0.1,0.1h0.1h0.1h0.1l0,0h0.1l0,0l0,0H133h-0.1l0,0l-0.2,0.1v0.1v0.1l0.1,0.1l0,0
		h-0.3l-0.1,0.1v0.1l0,0.1l0.3,0.4l0.2,0.2l0.1,0.1l0.1,0.1v0.1l0.1,0.1h0.1h0.1h0.1h0.1l0.1,0.1v0.1l-0.1,0.1l0,0.1l-0.1,0.1v0.1
		l0,0.1l0,0v0.1l-0.1,0.1l-0.1,0.1V76l-0.1,0.1l-0.1,0.1h-0.1h0l-0.1,0.1l0,0.1v0.2l0,0.1h0.1h0.1h0.1l0,0l0,0h0h0h-0.1h0H133h-0.1
		l0,0l-0.1,0.1l0,0.1v0.1V77v0.3v0.2v0.2v0.1v0.1v0.1l0,0h0L133,78h0.1h0.1V78l0.3-0.3l0.1-0.1l0.3-0.2l0.1-0.1l0.1-0.1l0.3-0.2l0,0
		l0,0l0,0l0.2,0.1h0h0l0,0l-0.3,0.2l-0.1,0.1l-0.2,0.1l-0.2,0.1l-0.1,0.1l-0.1,0.1l0,0l-0.1,0.1h0l-0.1,0.1l0,0l0,0h0.1h0l0.4-0.2
		v-0.1h0h0h0l0,0h0h0.1l0.2-0.1l0.1-0.1l0,0l0,0h0l0-0.1l0,0l0.1-0.1l0,0h0l0,0l0,0h0h0l0,0h0l0,0h0h0l0,0l0,0h0l0,0v-0.1l0,0h0.1
		h-0.1l0,0l0.1,0.1l0,0l0,0h0l0,0h0l0,0h-0.1l0,0h-0.1l0,0l0,0l0,0h-0.1l0,0h0l0,0l-0.2,0.1l0,0l-0.1,0.1l0,0l-0.2,0.1l-0.3,0.2
		h-0.1l0.3,0.3h0.2l0.1,0.1l-0.3,0.2l0,0.1H134l-0.1,0.1h0l-0.1,0.1l-0.2,0.2l0,0.1l0.9-0.6l0.2,0.2h0.1l0.8-0.4v0.1l-0.8,0.4
		l-0.2,0.2l0,0l0,0l0.6-0.3l0,0l-0.6,0.4h-0.1l0,0l0.1,0.1L135,79l0,0l-0.3,0.1v0.1h0l0.1-0.1l0,0l-0.1,0.1v0.1l0.2,0.1l0,0l0,0l0,0
		l0.1-0.2l0,0l0-0.1l0,0l0,0V79l0,0l0,0v-0.1v-0.1l0,0l0-0.1l0.1,0.1h-0.1l0,0v0.1l0,0l0,0l0,0l-0.1,0.2v0.1l0,0l0,0l0,0l0,0v0.1
		v0.1l0,0v0.1l0,0l0,0l0,0l0.2,0.1h0.2v-0.1l0,0v-0.1v-0.1l0,0v-0.1V79l0-0.1l0,0v-0.1l0,0l0,0v-0.1l0.1-0.1l0,0v-0.1v-0.1l0,0
		l0-0.1l0,0v-0.1v-0.1h-0.1l0,0l0.1,0.1h-0.1v0.1l-0.1,0.2l0,0v0.1l0,0l0,0.1v0.1l0,0V79l0,0.1v0.1v0.1l0,0l0,0l0,0v0.1v0.1l0,0l0,0
		v0.1h0l0,0l0,0l0,0h0h0.1h0h0.1l0,0l-0.1-0.1h-0.2l0,0h0.2h0.1v-0.1l0.1-0.2L136,79l0.1-0.2v-0.1l0,0l0.1-0.2v-0.1v-0.1v-0.1
		l0.1-0.2v-0.1h-0.1l0,0h0.1l0,0l0,0l-0.1,0.2l0,0l0,0v0.1v0.1l0,0l0,0l0,0v0.1v0.1v0.1v0.1v0.1l0,0.1l0,0v0.1l0,0v0.1l0,0v0.1v0.1
		V79l0,0l0,0.1v0.1l0,0l0,0l0.3,0.1l0,0l-0.3-0.1l0,0h0.1h0.1h0.1l0,0l0,0l0,0h0.1l0.1-0.3h-0.1l0,0h0.1l0.3-0.8l0,0l0.3-0.6l0,0
		H137l0,0h0.1l0-0.1l-0.5-0.1l-0.1-0.1l0,0h0.1l0.5,0.1l0-0.1h0.1l-0.6,1.4l0,0l-0.1,0.2l0,0l0,0l-0.1,0.3v0.1l-0.1,0.2l0,0
		l-0.1,0.2v0.1v0.1l0,0h-0.1l0.1-0.3l0,0l0,0.2v0.1h0v-0.1l0-0.1l0,0l0,0h-0.2l0,0l0,0h0.2l0,0l0,0l0,0l0-0.2l-0.3-0.1v0.1H136l0,0
		h-0.2l0,0h0l0,0l0,0l0,0l0,0v-0.1l0.5,0.1l0,0.1h0l0.1-0.3h-0.1l0,0l0,0l0,0l0,0h-0.2h-0.1H136h-0.1h-0.2h-0.1v-0.1h0h0h-0.1l0,0
		l0,0l0,0l0,0l0,0l0,0l0,0h0h-0.1h0l0,0h0l0,0l0,0l0,0v0.1h0.1l0.3-0.1l0,0h0.1l0,0h0l0,0h-0.2l0,0l0,0l0,0h-0.1l-0.2,0.1v0.1l0,0h0
		v0.1h0l0,0h0h0.1h0h0.1h0.1h0.1l0,0l0,0l0,0l0,0.1v0.1l0,0v1.4v0.1v0.1V81l0,0V81l0,0v0.1l0,0h0v0.1h-0.2h0h-0.2h0h-0.1h0h-0.1h0
		l0,0h-0.1l0,0h-0.1h-0.1h-0.1h-0.1h-0.3h-0.1h-0.1H134H134l-0.1-0.2l-0.1-0.4l0,0l0,0l0,0l0,0l-0.1-0.1h-0.1l-0.1-0.1l0,0l0,0l0,0
		l0,0l0,0l0,0l0,0l0,0l0,0h-0.7h-0.1l0,0l0,0l0,0l0,0l0,0l0,0l0,0v0.1l0,0l0,0l0,0l0,0l0,0h0l0,0h-0.4l0,0l0,0l0,0l0,0l0,0l0,0l0,0
		l0,0l0,0l0,0l0,0l0,0l0,0h-0.1l0,0l0,0l0,0l0,0l0,0h-0.1l0,0l0,0l0,0l0,0l0,0l0,0l0,0v-0.1H132l0,0h-0.1h-0.1h-0.1h-0.4h-0.5l0,0
		l0,0l0,0l0,0l0,0v0.1l0,0l0,0l0,0l0,0l0,0h0l0,0l0,0l0-0.1l0,0h0.1h0.1h0.1h0.1h0.1h0.1h0l0,0.1l0,0h0v0.1l0,0l0,0.1h0l0,0h0.1
		l0.5-0.1l0,0l0,0l0,0l0,0v0.1l0,0h0l0,0.1l0,0v0.1l0,0v0.1l0,0l0,0V81l0,0.1l0,0.1v0.1v0.1l0.1,0.1l0,0.1h0.1l0.1,0.1l0,0l0,0v0.1
		v0.1l0.2,0.3h0.6l0,0h-0.6l0.1,0.1h0.1h0.1l0,0v0.9l0,0v0.1l0,0l0,0l0,0v0.1v0.1v0.1v0.1v0.1l0,0.1v0.1h0.1v0.1h0v0.1v0.1v0.1l0,0
		l0,0.1l0.5-0.2l0,0h0l0,0l-0.5,0.2v0.1V84l0,0l0,0v0.1l0,0l0,0.1v0.1l0,0l0,0l0,0l0,0v0.6l0,0h0.1l0,0h0.1l0,0h-0.2V85l0,0.2
		l0.2,0.3l0.5-0.1l0,0l-0.5,0.1l0,0h0.6l0,0l0,0l0,0l0,0v0.1l0,0h0.3h0.1l0,0h0.1l0,0h-0.1l0,0h-0.1l-0.3,0.1v0.1l-0.1,0.4l-0.8,0.3
		l0,0l0,0h-0.1l0,0.1h-0.1h-0.1H133h0l0,0l-0.1,0.1l-0.1,0.1l-0.1,0.1l-0.1,0.1l-0.1,0.1v0.1v0.1v0.1l0,0l0,0v0.5l0,0l0,0v0.1
		l-0.1,0.1h0V88l0,0V88v0.1v0.1v0.2v0.1v0.1l0,0.1V89v0.1l0.1,0.1l0,0l0,0.1l0,0h0v0.1v0.1l0,0.1l0,0.1l0,0.1h0.1l0,0.1h0h0h0.1h0.1
		h0.1l0,0h0.1l0,0l0,0h0h-0.1H133h-0.1h-0.1l-0.1,0.1h-0.1v0.1V90v0.1l0,0l0,0l0,0h0.1h0h0.2h0h0.3l0,0l0,0l0,0h-0.2H133h-0.1h-0.1
		l0,0h0v0.1v0.2l0.1,0.1l0,0h0v0.1l0,0v0.1v0.1v0.1v0.1l0,0.1l0,0h0.2h0.1h0.1h0l0,0l0,0h-0.1h-0.1L133,91l0,0l0,0v0.2v0.1v0.1v0.1
		h0.1l0,0H133l0,0.2l0.1,0.1l0,0l0,0l0,0l0,0h0l0,0h0l0,0l0,0l0,0l0,0v0.1l0,0l0,0v0.1V92v0.1v0.1v0.1l0,0v0.1h0v0.1l0,0v0.1l0,0.1
		v0.1l0.1,0.2l0,0v0.1l0,0v0.1h0l0,0l0,0l0,0V93V93v0.1v0.1h0l0,0.1l0,0l0,0l0,0h0.1l0,0l0,0l0,0l0,0l0,0l0,0v0.1l0,0v0.1l0,0l0,0
		l0,0h0v0.1v0.1v0.1v0.1v0.1l0,0l0.4-0.2l0,0l-0.4,0.2l0.1,0.2h0l0,0h0h0V94h0l0,0l0.5-0.2l0,0l0.2-0.1l-0.2,0.1L134,94l0,0l0,0h0
		v0.1l0,0l0,0h0.1v0.1l0,0l0,0l0,0l0,0l0.5-0.2l0,0l-0.5,0.2h0l0,0.1l0.1,0.1l0.1,0.1l0,0.1h0.1l0,0l0,0v0.1l0,0v0.1l0,0h0l0,0v0.1
		v0.1l0.2-0.1v0.1h-0.1l0,0l-0.2,0.1v0.1v0.1l0,0.1h0.1l0,0l0,0l0.1-0.1l0,0l-0.1,0.1l0,0v0l0,0l0,0l0,0h0l0,0l0,0l0,0h0h0v0l0,0h0
		l0,0v0v0.1l0,0v0l0.1,0.1l0,0h0.1l0,0h0.2h0h0.1h1.1l0,0v0l0,0l0,0h0l0,0l0,0h0l0,0l0,0h0.1l0,0l0,0l0,0l0,0l0,0l0,0l0,0h0h0.1h0
		h-0.2h0.1l0,0v0v0l0,0v0l0,0l0,0v0v0h0v0l0,0h0.4h0.5h0.4h0.7h0.4h0.4h0.4h0.1l0,0l0,0l0,0l0,0v0.1v0.1v0.1l0,0l0,0l0,0l0,0h0l0,0
		l0,0h-0.1h0l0,0l0,0l0,0h-0.8v0.1h0.9l0,0h0.3l0,0h-0.5l0,0h-1.7l0,0h0.8v-0.1H138h-0.1h-0.3h-0.1h-0.1h-0.1h-0.1h-0.1H137h-0.1
		h-0.2l0,0l0,0l0,0l0,0l0,0l0,0v0l0,0v0.1l0,0l0,0l-0.2,0.1l-0.2,0.1l-0.1,0.1l-0.2,0.1H136h0l0,0h0h0v0v0h0h-0.1h0h-0.1h-0.1l0,0
		l0,0l0,0l0,0l0,0l0,0v0.1l0,0l0,0l0,0l0,0l0,0l0,0l0,0l0,0l0,0l0,0v0l0,0l0,0l0,0v0l0,0l0.5,0l0,0l0.4,0l0,0l-0.4,0.1l0,0l-0.5,0.1
		l0,0v0l0,0h0h0l0,0h0l0,0l0,0l0,0V97l0,0v0l0,0.1l0.6-0.2l0,0l-0.6,0.2v0l0,0l0,0h0v0l0,0v4.6v0l0,0v0v0.1h0.1h0.1l0,0h0.1h0.1h0.1
		l0.1,0l0.3-0.1l0,0h0.1l0,0l0.9-0.3l0,0l-0.9,0.3h-0.1l0,0h-0.1l0,0l-0.3,0.1l0,0h0l0,0l0,0l0,0l0,0l0,0l0,0l0,0v0h0l0,0l-0.1,0
		l-0.1,0.1l-0.1,0l-0.2,0.1l-0.2,0.5l-0.2,0.1v0.2v0.1l0,0.1l0,0v0.1l0,0h0.1h0.6l0.1-0.2h0.1l0,0l0,0l0,0h0.1h0l0,0l0,0l0,0l0,0v0
		l0,0l0,0V103v-0.2l0,0l0,0l0,0l0,0l0,0l0,0v0v0l0,0v0.1v0h0.1h0.1l0.1,0h0.1h0.1h0.4h0l0,0l0,0l0,0l0,0h0.1l-0.1-0.1h0l0,0.1l0.1,0
		h0.1h0.1h0l0,0l0,0l0,0l0,0V103l0,0h0.6l0,0v0l0,0l0,0l0,0l0-0.1l0.1,0h0.1v-0.3h0.1l0,0.2h0.1h0h0.1h0h0.1h0l0-0.1l0,0l0,0h0.1h0
		h0.1l0.2,0h0.1l0.1,0l0,0l0.1-0.1l0.1-0.1l0.1-0.1h0l0.1,0v-0.1v-0.1v0h0.1h0.1l0.1,0h0.1h0.1h0.1h0.4h0.1h0l0,0h0.1h0.2h0.1v0l0,0
		v0h0.1h0.1h0.1l0-0.1v0h0l0,0l0,0h0.1l0.1,0l0,0l0.1,0l0.1,0v0.1l0,0l0,0h0.1v0h0.1h0l0,0v0v0.1l0.1,0.1l0,0.1l0.1,0.1v0.1v0.1v0.1
		v0.1v0h0.1h0v0H143H143l0,0v0.1v0.1v0.1l0,0.1h0h0.1h0.1l0,0l0,0h0.1l0,0l0,0l0,0.1v0.1v0.1v0.1h0h0.1h0h0.1l0,0l0,0l0,0h-0.1l0,0
		h-0.1v0v0.1v0.1v0.1l0.1,0.1h0h0h0.1h0.1h0.1l0,0h-0.1l-0.1,0h-0.1v0.1v0l0,0.1l0.1,0.1h0.1h0.1h0.1h0.1h0.1l0,0h0H144h-0.1l0,0
		l0,0v0.1l0.1,0.2l0,0.1v0.1l0.2,0.4v0.2v0.1v0.1l-0.1,0.1l0,0l0,0.7l0.3,0.7l0,0l0.3,0.3l0.3,0.3l0.2,0.2l0.5,0.5l0.1,0.1l0.1,0.1
		l0.1,0.1l0.1,0.1l0.1,0.1l0.1,0.1l0.2,0.1l0.1,0.1l0.2,0.1l0,0l0.1,0h0.4h0.1h0.1h0.1h0.1v-0.1v-0.1l0,0l0,0v0h0.1h0h0.1h0l0,0l0,0
		h0h0.1l0,0v0.1h0.1l0,0l0,0h0.1h0.1l0.1,0h0.1h0.1l0.1,0l0.1,0h0.1h0.1h0h0.1h0.1h0.1l0.1,0.1v0l0,0v0v0.2h0l0.1,0.1h0.1l0.1,0
		l0.1,0l0.1,0h0.1l0.1,0l0.1,0h0.1l0.1,0h0.1l1,0.4h0.1h0.1h0.1l0,0h0l0,0l0,0l0,0l0.1,0.1h0l0.1,0h0.1h0.1h0.1l0.2,0.7v0.1h-0.1
		l-0.3,0.2l-0.5-0.2l-0.6,0.3l-0.4-0.1l-1,1.2l-0.2,0.5l-0.4,0.2l-0.5,0.1l-0.2,0.3l-0.2,0.3l-0.2,0.4l-0.3,0.1l0.2,0.4l0.1,0.1h0
		l0,0.1H149l0,0l-0.2-0.2l-0.2-0.3h-0.3h0h-0.1h0l0,0h0h0h0l-0.1,0.1l-0.1,0l-0.1,0h-0.1h-0.1h-0.1h-0.1h-0.2H147h-0.1h-0.1h-0.1h0
		l0,0h-0.1l0,0l0,0h0l0,0l0,0l0,0l0,0l0,0l0.1-0.2v-0.1l-0.1,0l-0.1,0.2l0,0l0.2-0.3l-0.1-0.1l0,0l-0.1-0.1l0,0l-0.1-0.1l0,0
		l-0.1-0.1v0l0,0l-0.2-0.2l-0.1-0.1l0,0l-0.1,0l0,0l0,0l0.1-0.1h0l-0.1,0.1l0.1,0.1l0.2,0.2l0,0h0l0,0l0,0v0l0,0l0.1,0.1l0,0
		l0.1,0.1h0l-0.1,0.1l0.1,0l0-0.1l0.1-0.1h0.1v0v-0.1h-0.1l0,0h-0.1l0,0h0.1l0,0h0.1v0h-0.1h-0.1h-0.1l-0.1-0.1l0,0v0h0l0,0l0,0
		h-0.1l0,0l-0.3-0.3h-0.1l0,0l0,0l-0.1-0.1l0,0l0,0l0,0l0,0l0,0l0,0l-0.1-0.1v-0.1l0,0l-0.1,0.1l0,0l0.1-0.1l0.2,0.2l0,0l0,0l0,0h0
		l0,0l0,0h0.1l0,0l0.1,0.1v0l0,0v0l0,0h0l0,0v0v0l0,0l0,0h0l0,0l0,0h0l0,0h0.1h0.1h0.1l0-0.2l-0.4-0.5l-0.1,0l-0.4-0.3l-0.3-0.3
		h-0.1h0l0,0l0,0v0l0,0l0,0l0,0l0,0v-0.1v-0.1l-0.1-0.1l-0.1-0.2l0,0l0-0.1v-0.1l0,0l0,0l0,0v0l0,0l0,0l0,0h0l0,0l0,0l0,0l0,0l0,0v0
		h0h0l0,0h-0.1l-0.6-0.3h-0.1l-0.3-0.3h-0.1l-0.1-0.3l-0.2-0.1l0,0v0.1l0,0l0.3,0.4l0.1,0.1l0.1,0.1l0,0l0,0l0.1,0l0,0l0,0l0,0l0,0
		h0l0,0l0,0l0,0l0,0l0,0v0l0,0h0l0,0v0l0,0h0l0,0l0,0l0.1,0l0,0l0,0l0.1,0.1l0.2,0.2l0,0l0,0l0.1,0.1v0l0,0l0,0.1l0,0l0,0l0,0
		l0.2,0.2l0.1,0.1l0,0l-0.1,0.1v0h0.1l0-0.1l0,0l0,0l0,0v0l0,0l0,0l0,0l-0.2-0.2l-0.1,0l0,0l-0.1-0.1l-0.1-0.1l0-0.1l0,0h0l0,0h-0.1
		l0,0l0,0l0,0l-0.1-0.1h-0.1l0,0l-0.1,0l0,0l0,0l-0.1-0.1l0,0l0,0l-0.2-0.1h0l-0.1-0.1l-0.1-0.1l-0.1-0.1v0l0,0l0,0l0,0l0,0v0v0l0,0
		v0v-0.1h-0.1l0,0l0.2,0v0l-0.4,0.1v0.1v0.1l0.1,0.1v0.1l0,0v0l0,0l0,0h0l0.1,0.1l0,0v0h0l0,0l-0.2-0.3l-0.2-0.4v-0.1l0,0h-0.1
		l0.1,0.4l0.2,0.2l0,0l0,0l0.2,0.3l0,0l0,0h0.2l0,0h-0.2h-0.1v0.1l0.3,0.2l0.8,0.4v0.2v0.8h0.1h0.1l-0.1,0.1l0,0l0,0.1v0h0l0.1,0.1
		l0,0v0.1v0v0.1v0.1v0.4l0,0l0,0v0l0,0v0l0,0v0l0,0l0,0v0.1l0,0v0.1l0.1,0.1l0,0.1l0.1,0.3l0.3,0.3l0,0l0,0v0l0,0l0,0l0,0v0.1v0v0v0
		h0v0v0h0h0.1l0.2-0.1l0,0h0l0,0l0,0l0,0l0,0l0,0l0.9,0.5v0.1h0.2l0.2,0.2l0.3,0.3l0.1,0.1l0.2,0.3l0.1,0.4l0.3,0.4l0.4,0.3l0.2,0.3
		h0.1h0.2v-0.1l0,0l0,0l0.7-0.6l0.1-0.1l0.2,0.1l0.2-0.1l0,0l-0.2,0.1l-0.1,0.1l-0.2,0.4l1.5,0.5l1.8,0.1l3.1,1.4l2.2,1h0.1h0
		l1.5,0.6h0.6h0.1h0.1h0.1h0l0,0h0l0,0l0,0l0,0l0,0v-0.1l0,0l0,0l0,0h0l0,0l0,0h-0.1l0,0l0,0l0,0v0l0,0l0,0h0l0,0h0l0.2,0.1h0.2h0.2
		l0.2,0l0,0.1v0.1l0,0.1v0.1v0.1v0.3l0.3,0.3l0.2,0.4l0.1,0.3v0.3v0.1l-0.1,0.4l-0.1,0.3l-0.3,0.3l-0.1,0.1l-0.4,0.2l-0.5-0.2h-0.1
		h-0.3h-0.1l-0.1,0l-0.1,0.1l-0.1,0l-0.1,0l-0.1,0H159h-0.2h-0.1h-0.1h-0.3l-0.1-0.1l-0.1-0.1H158l-0.1,0l-0.3-0.2v-0.2l-0.6-0.2
		l-0.3-0.4l-0.1-0.1l-0.1-0.1l-0.1-0.1l-0.2-0.1l-0.2-0.1l-0.2-0.1l-0.2-0.1h-0.1l-0.2,0.3l-0.2-0.1l0,0l-0.3-0.1l0.1-0.2h-0.2h-0.6
		l-0.1-0.1l-0.8-0.4l-1.1-0.5l-1.9-1.4l-0.9-0.4l-0.1-0.1l0,0l-0.1,0h-0.1H149h-0.1h-0.1h-0.1h-0.1l-0.2,0h-0.4h-0.2h-0.1l-0.2,0.1
		l-0.2,0.1l-0.2,0.1l-0.1,0h-0.1v0l0,0.1v-0.1l0,0l0,0l0,0l0,0h0l0,0h-0.1h0l0,0v-0.1l0-0.1v0l-0.1-0.1l-0.2-0.2l-0.2-0.1l-0.2-0.1
		l-0.2-0.1l-0.2-0.1l0,0l0,0l0,0l-0.1,0l0,0l0,0l0,0l-0.2-0.1l-0.2-0.1l-0.2-0.1l-0.2-0.1l-0.2-0.1l-0.2-0.1l-0.2-0.1l-0.5-0.3
		l-0.6-0.4l-0.1-0.2l-0.1-0.2l-0.1-0.2l-0.2-0.1l-0.1-0.2l-0.2-0.2l-0.1-0.1l-0.1-0.1l-0.1-0.1l-0.2-0.1l-0.2-0.1l-0.2-0.1l-0.2-0.1
		l-0.2-0.1l-0.2-0.1l-0.2-0.1l-0.2-0.1l-0.2-0.1h-0.1h-0.1h-0.1h-0.1h-0.1h-0.1H139h-0.1l-0.1,0.2h-0.1v0l0,0l0,0l0,0l0,0l0,0h-0.1
		h0h0l0,0l0,0l0,0l0,0l0,0l0,0h-0.1h-0.1h0h-0.1H138H138h0l0,0l0,0v0l0,0l0,0l0,0l0,0l0,0h0h-0.1h-0.2h-0.1h-0.1h-0.1h-0.1h-0.1H137
		l-0.1,0h-0.1h-0.1h-0.1h-0.1l-0.2,0h-0.2l0,0l-0.1,0l0,0v0l0,0l-0.5-0.2h-0.1h-0.1h-0.3v0.6h0.1l0,0h-0.1h0l0,0l0,0l0,0H135l0,0
		h0.1v-0.6h-0.9h-0.2h-0.2h-0.4h-0.4l-0.1-0.1l-0.1-0.2l-0.4-0.1h-0.3l-0.2,0.1l-0.1,0.1h-0.1l-0.4,0.1h-0.1l0,0v0.2l0,0v-0.2l0,0
		h-0.5h0v0.2l0,0l0,0l0,0l0,0v-0.1l0,0v0l0,0v-0.1h-0.1l0,0v0h-0.1h-0.1h-0.3h-0.1h-0.2l-0.2,0l-0.3,0.1l-0.2,0h-0.1H129h-0.1h-0.2
		l-0.1,0h-0.1v0l0,0.1v0.1h-0.3V116H128h-0.1l0.1,0.2l0,0l0,0.1H128l0,0l0,0l0.1,0.3h0l0,0l-0.9,0.3v0l0.9-0.2l-0.1-0.2l-0.8,0.2
		l0,0l0.8-0.2v0l0,0h0l0-0.1h0l-0.1-0.2h-0.3h-0.1h-0.1h-0.1h-0.1l0,0l0,0l0,0l0,0l0,0h-0.1l0,0h0v0h-0.1l0.1,0.1l0,0l-0.1-0.2h-0.1
		l-0.1,0.1l0,0l0,0.1h0l-0.1-0.1h-0.2h-0.1v0.1h0l0-0.1H126l0.2,0.3h0l-0.1-0.2l0,0l-0.1-0.1l-0.4,0.1l-0.1,0.1h-0.1h-0.1h-0.1h-0.1
		H125h-0.1h-0.1h-0.1l0,0l0,0l0,0v0.1l0,0h0v-0.1h-0.4h-0.1h-0.1H124h-0.2l-0.2,0.1l-0.2,0.1l-0.2,0.1l-0.5,0.1l0.3,0.4l0,0v-0.1h0
		l0,0l-0.2-0.3h-0.1h-0.1l0.3,0.5l0,0l0,0.1h0v-0.1l0,0l-0.4-0.5l-0.2,0l-0.1,0l0.3,0.5l0,0l-0.3-0.5h-0.1h0l0.3,0.5l0.1,0.1h0
		l-0.3-0.6H122h0l0.2,0.4l0,0v0.1l0,0l0.1,0.2h0l-0.1-0.1l0,0h0l0,0v-0.1l0,0l-0.1-0.2l-0.1,0l0.2,0.3l0,0l-0.2-0.3l0,0h0h0l0,0
		l0,0.1l0,0l0,0h-0.1l-0.2,0H121h-0.2h-0.2h-0.2h-0.2H120h-0.2h-0.2h-0.2h-0.2l-0.2,0h-0.2h-0.2l-0.2,0.1H118l-0.2,0.1l-0.2,0.1
		l-0.2,0.1l-0.2,0.1l-0.2,0.1l-0.2,0.1l-0.2,0.1l-0.2,0.1l-0.2,0.1l-0.2,0.1l-0.1,0.1l-0.2,0.2l-0.1,0.1l-0.1,0.2l-0.1,0.2l-0.1,0.2
		l-0.1,0.2l-0.3,1.1l0,0.1v0.1v1v0.1v0.1v0.1l0,0.1v0.1l0.1,0.1l0,0.1l0.1,0.1l0.1,0.1l0.1,0.1l0.1,0.1v0.5l0.3,1.1l-0.4,0.1v0.1
		h-0.1h-0.3h-0.3h-0.3H114h-0.3h-0.3l-0.3,0h-0.3l-0.3-0.1l-0.3,0l-0.3-0.1l-0.3-0.1l-0.3-0.1l-0.3-0.1l-0.6-0.2l-0.6-0.2h-0.3
		l-0.3-0.2l-0.1,0l-0.1-0.1l-0.1-0.1h-0.1l-0.1-0.1l-0.6-0.8l0,0l0,0l0,0v-0.1l0,0v-0.4V122l0-0.1l0-0.1v-0.1l-0.1-0.1l-0.1-0.1
		l-0.1-0.1l-0.1-0.1v-0.1v-0.1l0,0l-0.1-0.2l-0.1-0.1l-0.1-0.1l-0.1-0.1l-0.1-0.1l-0.1-0.2l-0.1-0.1l-0.1-0.1l-0.1-0.2l-0.1-0.2
		l-0.1-0.1l-0.3-0.4l-0.1-0.2l-0.1-0.2l-0.1-0.2l-0.1-0.2V118l-0.1-0.2l-0.1-0.1l-0.1-0.1l0-0.1v-0.3l0-0.2l0-0.2v-0.2l-0.1-0.1
		v-0.1v-0.1v-0.1l0,0v-0.1l0-0.1v-0.1v-0.1l0,0v-0.1l0-0.2l0.1-0.1l0,0l0.1-0.2l0.1-0.1l0-0.1l0,0l0,0l0.1-0.1l0.1-0.1v-0.1v-0.1
		v-0.1l0.1-0.1v-0.2v-0.8l-0.1-0.2V113l0.1-0.2l-0.1-0.2v0v0v-0.1l0,0v-0.1v0V112l0,0v0l0,0h0v0h0l-0.1-0.1v-0.1l-0.1-0.1v-0.1
		l0.1-0.4v-0.1v-0.1v-0.1v-0.1v-0.1v-0.1v-0.1l0,0l0-0.1h0.1l0,0l0.7-0.8l0.3-0.1l0.2-0.6l0.1-0.1l-0.1-0.2l-0.3-0.1v-0.2l0.1-0.2
		v-0.6l0-0.5v-0.2v-0.2L107,106l0.1-0.1v-0.1v-0.1H107h-0.1v-0.1l0,0l0,0h0v-0.2v-0.1l-0.1-0.1l-0.1-0.1l0,0h-0.2l-0.1-0.1l0,0v0
		l0.1-0.1l0-0.1l0.1,0l-0.1-0.2l-0.1-0.3v-0.1v-0.1l-0.1-0.1l-0.1-0.1l0,0h0h0h-0.1l0,0h0l0,0v0l0,0l0,0v-0.1l-0.1-0.4l-0.5-0.8
		l-0.2-0.4l-0.3-0.4l0-0.2l-0.2-0.5l-0.2-0.2l-0.2-0.5l-0.2-0.5l0-0.1l-0.1-0.1l-0.1-0.2l-0.2-0.2l0,0v0l0-0.2v0v-0.1v-0.1v-0.1
		v-0.2l0.1-0.9l0.4-0.9v-0.1l1.2-1.2h0.1l0.6-0.5l0.9-0.9l0.3-0.2l0.2-0.3l0.1-0.2l0-0.1v-0.1V93v-0.2l0-0.2l-0.1-0.2v-0.3V92v-0.1
		l0-0.1v-0.2v-0.2v-0.2V91v-0.2l-0.1-0.7v-0.2l0-0.4l-0.1-0.1v-0.2v-0.2l0-0.3v-0.2l0.1-0.2l0,0l0-0.2v-0.3l-0.2-0.1h-0.7l-0.1-0.9
		h-0.6v0.4v0.1l0.1,0.1v0.1v0.1l0,0.1h0.1v-0.1l0,0v0.1h-0.1l0,0.1l0,0.1l0,0l0.2,0.4l0,0l0.1,0.4v0.1h0.1v-0.8V88l0,0v-0.1h-0.1
		l0,0.2l0,0.4v0.3v0.1V89v0.1v0.3v0.3h0.1v-0.2l0,0l0,0.2l0,0l0,0l0,0l0,0v0.1l0,0h-0.2v0.1h0.1l0,0h-0.1l0,0h0.1l0,0h-0.1v0.1l0,0
		l0,0l0,0V90h0.2l0-0.3l0,0l0.1,0.4v0.1l0,0l0,0l0-0.1h-0.1l0,0h0.1h-0.1v0.1h0.1l0,0h-0.1l0,0l0,0h0.1h0.1l0,0h-0.1v0.1h0.4l0,0
		h-0.1v0.1h0.1l0,0h-0.1v0.1h0.1l0,0h-0.1l0,0h0.1l0,0h-0.1v0.1h0.1l0,0h-0.1v0.1h0.1h-0.1l0,0h0.1l0,0h-0.1v0.1h0.1l0,0l0,0l0,0h0
		l0,0h0v0.1h0.1h-0.1l0,0h0.1l0,0h-0.2l0,0h0.2l0,0h-0.2l0,0h0.1l0,0h-0.1l0,0h0.1v0.1l0,0l0,0h-0.1h-0.1v0.1v0.1V91v0.2l-0.2,0.4
		l0,0l-0.1,0.4l-0.3,0.3l-0.6,0.5l-0.4,0.4l-0.8,0.6l-0.5,0.2l-0.1,0.3l-0.2,0.2l-0.1,0.1l-0.2,0.2l0.1,0.1l-0.3,0.7h-0.1l0,0.1v0.1
		h0.1V96h-0.1l0.1,0.5V97v0.1l0.1,0.1v0.1v0v0l0.1,0.2l0,0l0.1,0.3v0.1l0,0.1l0,0.1v0.2v0.1h0v0.1l0.2,0.2l0.3,0.7h0.1l0.4,0.9l0,0
		l0.4,0.7v0.1l0.1,0.2l0.1,0.1l0.1,0.3l0,0.2v0.1l0.1,0.1l0.3,0.6l0.1,0.3v0.1v0.2v0v0.1l0.3,0.6v0.1l0.1,0.1v0.1l0.1,0.1v0.1
		l0.1,0.2l0.1,0.2v0.1l-0.1,0.3l0.1,0.2v0.1l-0.1,0.1v0.1l0,0.1v0.1l0,0.2l0,0.1h0.1v0.3l-0.2,0.1h-0.1h0l0.1,0.1v0.1v0h-0.1l-0.2,0
		H105l-0.1,0.1h-0.1l0,0.1h-0.1l-0.1,0.1l-0.1,0h-0.1l0,0l0,0l0,0l-0.1,0.1L104,108l-0.1,0l-0.2,0l0,0l0,0l0,0l-0.2,0.4v0.2l0,0.2
		l-0.3,0.6l-0.5,0.6l-0.1,0.2l-0.2,0.2v0.2l-0.1,0.1v0.3l-0.3,0.4l-0.1,0.3l-0.2,0.2v0.2l-0.3,0.5l-0.1,0.2l-0.1,0.2v0.1l-0.2,0.6
		l-0.1,0.2l-0.1,0.3l-0.1,0.2l-0.1,0.3l-0.1,0.2l-0.1,0.2l-0.1,0.2l-0.1,0.2l-0.1,0.1h-0.1h-0.1l-0.3,0.2l-0.1,0.2l-0.1,0.1
		l-0.1,0.3l-0.2,0.4l-0.8,0.2l-0.4,0l-0.3-0.4l-0.2,0.8l0-0.1l-0.1-0.1l-0.6-1.1L96,116l-0.7-0.4l-0.8-0.3l-0.2,0l-0.2,0l-0.1-0.3
		l-0.1-0.1l-1.1-0.4h-0.2l-0.2,0l-0.2,0.1h-0.3l0-0.1l0.2,0l0,0h-0.2l-0.1-0.1h-0.1l-0.2,0.1l-0.2-0.2h-0.1l0.1,0.1l0,0.1h0.2v0.1
		v0.1v0.1l0.1,0l0,0.1l-0.4,0.1l0,0l0,0v0.1h0.1l0,0h-0.1l-0.5,0.1l-0.4,0l-0.7-0.2l-0.6-0.3l-0.1-0.1l-0.2-0.2h-0.2l-0.1,0.1
		l0.1,0.1l0.3,0.1l0.4,0.2l0.3,0.1l0.3,0.1l0.3,0.1l0.4,0.1h0.1h0.1h0.1l0.1,0h0.1l0.1,0h0.1h0l0,0h0.1h0.7l0.2,0.1h0.2l0.3,0l0.1,0
		h0.2l0.2,0.1l0.2,0.1l0.2,0.1l0.2,0.1l0.2,0.1h0.1l0.1,0h0.1h0.1l0,0l0.1,0h0.1l0.1,0.1l0.1,0.1l0.1,0.1l0.1,0.1l0.1,0.1l0.1,0.1
		l0.1,0.1l0.1,0.1l0,0.1l0.1,0.1v0.1v0.1v0.1v0.1l0,0.1v0.1v0.1v0.1l0,0.1l0,0l-0.1,0.1v0.1v0.1l0,0l0.1,0.1v0v0.1l0,0.1v0.1v0.1
		l0,0.1l-0.1,0.1v0l-0.1,0.1v0.1v0.1v0.1v0.1h-0.1l-0.1,0h-0.1l-0.1,0.1l0,0v0v0.1v0.1v0.1v0.1h0.1v0l0,0l0,0h-0.1l0,0l-0.1,0.4h0.2
		l0,0H95l0,0l0,0v0l0,0l0,0l0,0v0.1l0,0v0.1h0.2l0,0l-0.2,0v0.1h0.4l0,0H95l0,0v0.5v0h0l0,0v0.1v0.1h0.1v0l0,0l0,0l0,0l0,0v0h0h0
		l0.5-0.1l0,0l0.5-0.1v0.1l-0.5,0.1l0,0l-0.4,0.1h0.1v0.1l0,0.1l0.1,0l0.2,0.1l0.2,0l0.2,0.1l0.1,0.1l0.1,0.1l0.1,0.1l0,0.2l0,0.2
		v0.2l-0.1,0.2l0,0.2v0.2l0.1,0.1l0.2,0.1h0.1H97l0.3,0.1l0.1,0.1v0.2v0.3v0.1l-0.2,0.2l-0.3,0.2l-0.2,0.1h-0.2h-0.2l-0.2,0.1l0,0.1
		v0v0v-0.1v0l0,0h-0.1l0,0.1l0,0l0,0l0,0h0h0h0l0,0v-0.1l0,0l0,0h-0.1h-0.1v0.5h-0.1v-0.4h-0.1h-0.1h-0.1h-0.1l-0.2,0l-0.1,0.2v0.1
		l0,0.1l0,0v0v0.1h-0.1h-0.1l0,0h-0.3h-0.3h-0.3h-0.1l-0.1,0h-0.2H93h-0.3h-0.3h-0.2l-1.6,0.1h-0.1h-0.1l-0.1,0h-0.3h-0.2h-0.3h-0.1
		h-0.2h-0.3l-0.3-0.1l-0.2-0.1l-0.2-0.1l-0.2-0.1l-0.2-0.1v0v-0.1h0.1h-0.3l0.1,0.1l0.1,0.1l0.1,0l0.1,0.1l0.1,0h0.1h0.1l0-0.1v-0.1
		v-0.1v-0.1l-0.1-0.1l-0.2,0l-0.2-0.1l-0.1,0h-0.2l-0.1,0h-0.2h-0.1h-0.1h-0.1h-0.1h-0.1h-0.1h-0.1h0l0,0.1l0.1,0.1l0.1,0h0.1h0.1
		l0.1,0l0.1,0v0h0h-0.1l-1.2-0.6l-0.2-0.1l-0.2-0.1l-0.2-0.1l-0.1-0.1l-0.2-0.1l-0.2-0.1l0,0l0,0h0h0l0,0h0h0h0l0,0l0,0l0,0h0l0,0
		l0-0.1l0,0l0,0l0,0h0v-0.1v0h0v-0.1l0,0v0l0,0v-0.1h0h0l0,0V123h0h-0.1h-0.3l0,0h-0.1l0,0l0,0v0.1l0,0v0.1l0,0l0,0l0,0v0.1l0,0v0.1
		v0v0l0,0l0,0h0h-0.1v0l-0.1-0.2l-0.1-0.1l-0.1-0.2l-0.1-0.1v-0.1v-0.3v-0.2v-0.2v-0.2v0h0.1H84v0.2v0.1v0.1v0.2l0.1,0.1h0.1h0.1
		h0.2h0.2l0.1-0.5l0.2-0.9l0-0.2l-0.3-0.7l-0.2-0.4l-0.2-1.2v0.1v0.1v0.1l0,0.1h-0.1h-0.2h-0.2l-0.1,0.1h-0.1l-0.2,0.1l-0.3,0.1v0
		l0,0h0l0,0h0.2l0,0l0,0h0l0.1,0.1l0,0l0,0l0,0h0.1l0,0h0.1l0.1,0.1h0.2l0,0l0,0l0,0l0,0l0,0v0l0,0v0.1v0.2v0.1v0.1v0.2l0,0l0,0
		h-0.1l0,0v-0.2l0-0.2v-0.2l-0.1-0.2l0-0.1l0-0.1l-0.1-0.1l-0.1-0.1l-0.1-0.1l-0.1-0.1l-0.1-0.1l-0.1,0l-0.1-0.1l-0.1-0.1h-0.1
		l-0.1,0l-0.1,0h-0.1h-0.1l-1.6-0.3l-0.4-0.1l-2-0.3l-3.6-0.3l-1.2-1.4l-1.2-0.9l-1.1-1.2l-0.6-0.3l-0.5-0.2l-5.4-1.4l-0.1,0.5
		l-0.1,0.4l1.7,0.6L67,114l2.2,0.8l0.1-0.1l0.1,0.1l-0.1,0.1l0.3,0.2l0.1-0.1l0.1,0.1l-0.1,0.1l0,0l0.3,0.3l0.2,0.1l0.8,1.2l0.4,0.1
		l0.1,0.7l-0.1,0.3l2.7,5l-0.4,0.9l-1.5,2l-2,2.5h-0.1l-0.1,0.1l0.1,0l-0.1,0.2l-0.7,0.3h-0.1l-0.2,0.1l0,0l-0.5,0.2l-0.4,0.1
		l-1.3-0.1V129l-0.6-0.1l-0.6-0.1l-0.1,0.4l-2.5-0.3l0.1-0.4h0.1v-0.1l-0.1-0.4l0-0.2l0-0.2l-0.1-0.2l-0.1-0.1l-0.2,0l-0.4,0H62
		h-0.3h-0.1h-0.2h-0.1H61h-0.2h-0.1l-0.1,0h-0.1l-0.1,0h-0.2l-0.2,0h-0.2h-0.2h-0.1h-0.1h-0.1h-0.1h-0.2h-0.1h-0.1h-0.1h0h-0.1h-0.1
		H58v0.1h-0.1v-0.1h-0.1h-0.2h-0.1h-0.1h-0.1l-0.1,0l-0.4,0h-0.2l-0.1,0l0,0l0,0l0,0l0,0l0,0l0,0v0.1l0.2,0l0,0h0.1l0,0l0,0l0,0h0
		l0,0l0,0l-0.2,0v0.1l-1.2-0.3l-0.1-0.1h-0.1l0,0l0,0H55v0l0,0h0h0l0,0l0,0h0.1l-0.1-0.2l-0.4-0.2l-0.2-0.1l-0.1-0.1l-0.1-0.2
		l-0.1-0.1l0,0l-0.1-0.1l-0.1-0.1l-0.2-0.1h-0.1l-0.3-0.2l-0.1-0.1l-0.3-0.2l-0.2-0.2l-0.1-0.2l0.1-0.1l-0.1-0.1l-0.1-0.1h-0.1
		l-0.2-0.2l0.1-0.1l-0.4-0.4l-0.7,0.2l-0.2-0.1l-0.1-0.1l-0.2-0.1l-0.1-0.1l-0.1-0.1l-0.1-0.2v-0.2l0.1-0.1v-0.1v0l-0.4,0.5
		l-0.5,0.6l0,0l-0.2-0.1l0.9-1.1l-0.2,0.1l-0.1,0h-0.1l0,0h0l0,0v0h0l0,0h0h-0.1h-0.1h-0.1h-0.1l0,0h-0.1l-0.1,0h-0.1h-0.1H49h-0.2
		h-0.3h-0.3l0.1,0.3h-0.4l-0.2-0.8h-0.5l-0.3,0l0.2,0.8l0.3,0l0.1,0.4l0.4,0.1l0.1,0l0,0h0.1l0,0h0l0.2,0.1l0,0l0,0l0,0l-0.2,0h0
		l-0.2-0.1v0.1l-0.1,0l0-0.1l-0.4-0.1l-0.1-0.4h0h-0.1l0,0h-0.2l-0.2-0.8h-0.2h-0.2h-0.1h-0.2h-0.1h-0.1H46h-0.1h-0.1h-0.4h-0.1
		h-0.1h-0.4h-0.1l0.1,0.2h-0.2l0-0.2h-0.1l0.1,0.5h-0.1l-0.1-0.6l-0.2-0.7h-0.2l-0.1,0.2l-0.1,0.1l0,0l0.1,0.4l0,0.1l0.1,0.3v0
		l0,0.1h0V123l-0.1-0.1l-0.1-0.3v-0.2l-0.1-0.3h-0.1v0.1l0,0.2h-0.1l-0.1-0.2v-0.1h-0.2l0,0.1v0.1l0.1,0.3l0.1,0.3h-0.1l-0.1-0.2
		l-0.1-0.3l-0.1-0.3h-0.1v0.1v0.1v0.1l0,0h-0.9l-0.5,0h-0.3l0,0h0v0.1h-0.1l-0.1,0l-0.1-0.2H41v0.2l0.1,0.2H41l-0.1-0.2l-0.1-0.2
		h-0.1v0v0.2h-0.1l-0.1-0.2v-0.1h-0.1v0.1v0.2l0.1,0.5h-0.1l-0.1-0.4l-0.1-0.3h-0.1H40v0v1.3l0,0l0,0l0,0h0l0,0l0.1,0v0.1l0,0l0,0
		l0,0l0,0l0,0l0,0l0,0h-0.1l-0.3,0.1l-1.2,0.2h-0.1l0,0l0,0l-0.4,0.1l-0.2,0h-0.3l-0.3,0.1h-0.1h-0.1h-0.3h0h-0.2l0,0l-0.3,0.1h-0.3
		l0,0l0,0l0,0l0,0l0,0v-0.1h-0.1l0,0l0,0l0,0v0.1l0,0l0,0.1l-0.1,0.1l0,0l0,0l-0.2,0.2l-0.1,0l-0.3,0.1l-0.2,0.1l0,0h0.2l0,0H35
		l-0.2,0.1l0.1,0.1h0l-0.1-0.1l-0.1,0.1h0l-0.1,0.1v0.1l0,0v-0.1l0,0l-0.2,0l0,0h-0.1h-0.1l0,0l0,0l0.1,0.1l0,0l-0.1-0.1l0,0v0l0,0
		h0l0,0h0l0.1,0.1l0,0l-0.1-0.1l0,0h0l-0.1,0.1h0.1l-0.1,0.1l0,0l-0.6,1l-0.1,0.1l0,0l0,0l0,0l0,0l0,0h-0.1v0.1L33,127l0,0l0,0
		l-0.1,0.1l0,0.1h0l0,0v0l0,0v0v0h0l0,0l-0.1,0.1l-0.1,0.1l-0.1,0.1l0,0l0,0l0,0v0v0l-0.3,0.2l-0.3,0.3l0,0l-0.2,0.1l-0.4,0.4
		l0.1,0.1l-0.1,0.1l-0.1-0.1l-0.2,0.2l-0.1,0.1h0.1h0.1l-0.1,0.1l-0.5,0.5l-0.1,0.1l-0.1,0.1l-0.1,0v0.1l0,0l0,0l0,0l0,0l0,0l0,0
		l0,0l0,0l0,0l-0.1,0.1l-0.2,0.1v0H30l0,0l-0.1,0.1h0h0.1h0.1h0.1h0.1l0.1,0.1l0,0l-0.1,0h-0.1h-0.1h-0.1H30h0l-0.1,0.1l0,0l0.2,0.2
		H30l-0.2-0.1h-0.1l-0.1,0h-0.1l-0.1,0l-0.1,0.1l0.1,0l0.1,0.1l0.1,0.1l0,0v0.1l0,0.1l-1,0.7l-0.5,0.4h0h-0.1h0h-0.1h-0.1h0l0,0
		l-0.1,0.1l-0.1,0.1l-0.2,0.2l-0.2,0.1l-0.2,0.1l-0.1,0.1l-0.1,0.1l-0.1,0.1l0,0h0l0,0h-0.1h-0.1l-0.2,0.1l-0.2,0.1h-0.1l-0.1,0.1
		h-0.1h-0.1l0,0h-0.3h0h-0.1h-0.1h-0.1h-0.4l-0.4,0h-0.2H24h-0.3l-1.6-0.6l-1.2-0.5l-3-1.2l-0.1,0h-0.1l-0.1,0l-0.1,0l-1.3-0.6
		l-0.2-0.2l-0.4-0.6l-0.2-0.4l-0.4-0.8l-0.4-0.3l-0.4-0.3l-0.6-0.3l-0.4-0.2l-0.8-0.2h-0.7l-2.7,0.1l-0.4-0.1L8,126.6l0.1-0.3
		l0.2-0.3l-1.1,0.7l0.2-0.3L7.1,126H6.7H6.6H6.4l-0.1-0.2l-0.4,0.2l-1.5-2l-0.3-0.3l-0.2-0.3v-0.1l-0.8-0.6l-0.7-0.7l0-0.1l0,0l0,0
		v0l-0.4-0.5l-0.3-0.5l-0.1-0.6v-0.4v-0.3H1.3l0,0l0,0V119l0.1-0.1l0.1-0.1v-0.3l0.1-0.1l-0.1-0.6v-0.5l0.2-1.7v-0.7v-0.1v-0.1v-0.5
		l0,0v-0.3v-0.1v-0.4v-2.1v-0.5l0-2v-0.2l0,0l-0.1-1V107h0v-0.5l0,0l0-0.6h0v-0.5H1.7v-0.5v0v-0.5h0l0-0.7h0l0-0.5h0v-0.4v-0.1v-0.2
		v-0.2v-0.2V102l-0.2-1.5v-0.3v-0.3l-0.1-0.6v-0.5v-0.1l-0.3-2l-0.1-0.8v-0.5L0.8,95l-0.1-1.4v-0.1v-0.1l0,0v-0.1v-0.1v-0.1v-0.1
		v-0.1v-0.1L1,91.4v-0.2v-0.3l0.2-0.6l0.4-0.9l0.3-0.6l0.5-0.7l0.4-0.8l0.6-1l0.1-0.1l0.1-0.1V86V86l0,0l0.1-0.1l0.1-0.2h0l0-0.1
		v-0.1L4,85.3L3.9,85L4,84.9l0,0l0.6-1.1l0.3-0.6V83l0.2-0.2l0.2-0.4v-0.6L6,80.1l0.4-0.3l0.2-0.4l0-0.1v-0.1l0.2-0.1L7,78.6h0l0,0
		h0l0.1-0.1v-0.1v-0.1l0-0.1l0,0l0,0h0l0,0l0-0.1l0.1-0.1l0.1-0.2l0.1-0.1l0.1-0.1v-0.1v-0.1l0,0v-0.1l0,0l0,0h0.1h0.1L8,77.3H8
		v-0.1l0-0.1l0.1-0.2l0.1-0.1l0.1-0.1l0.1-0.1l0.1-0.1v-0.1l0.1-0.1l0.1-0.1l0.6-0.8l0.6-0.8l0.2-0.3l0.3-0.6l0.2-0.2l0.3-0.5
		l0.3-0.4l0.5-0.7l0.2-0.3l0.8-1.2l0.9-1.1l0.2,0.1l0.2-0.2l-0.1-0.2h0l0.8-1l0.5,0.2l0.1-0.1l-0.3-0.3v-0.1v-0.1l0.1-0.1h0.1
		l0.1-0.1v-0.1l0.3-0.4l0.5-0.6l0.6-0.6l0.8-0.9l0.2-0.2l0.4-0.4l0.6-0.2l0.3-0.4l1.2-1.3l0-0.2l1-1.2h0.1l0.1-0.1h-0.1l0-0.1l0,0h0
		h0v-0.1l0,0v-0.1l0.4-0.4l0.1-0.1l0.9-1l0.7,0.4l0.5-0.7l-0.5-0.3l0,0l0,0l0-0.1l0,0l0,0l0.2,0.1l-0.2-0.3l2-2.2l0.4-0.6l0,0v-0.1
		v-0.1l0,0l0,0l0,0v-0.1l0,0v-0.1v-0.1l0.2-0.4l0.3-0.8l0.2-0.5l0.2-0.5l0.2-0.8l0.4-1.6l0.3-0.4l-0.3-0.9l0.2-0.1l0.3-0.5l0.8-0.2
		l0.3-0.8l0.7-1.2l0.2-0.8l0.3-0.8l-0.2-0.9l0,0l0,0l-0.1-0.1L30.4,44l-0.7-0.6l-0.8-0.6l-0.8-0.6l-0.5-0.3l-0.9-0.3h-1.3l-0.6,1
		l-0.5,0.2l-2.6,1.4l-1,1l0,0.1l0,0l-1.7-0.1h-0.1h-0.1h-0.1l-0.2,0.1h-0.1l0-0.1l-0.1-0.1H18h-0.1h-0.2l0,0l0,0l0,0l0,0l-0.9-0.2
		l-0.8-0.4v-0.1H16v-0.1h0h-0.1h0l0,0l0,0h0v-0.1L15.7,44l-1.5-1.3l0,0l0,0l0,0h0L14,42.6l-0.3-0.2l-0.1-0.1h-0.1h-0.2l0,0h-0.1
		v-0.5h-0.1l0,0l-0.1-0.1L13,41.6h-0.1h-0.1h-0.1h-0.1h-0.1l0,0h-0.1l0,0l0,0h-0.3l0,0H12h0l0,0h-0.6l0,0l0,0h-0.1h-0.1h-0.1h-0.2h0
		l0,0l0,0l0,0h0v0.1h0h-0.1h-0.1l1.2-1.6l2.2-4.7l0.5-1l0.4-0.8l0.5-1.1l0-0.6l0.7-1.8l0.7-1.8l0.3-0.8l0.4-1.1l0.4-1.2l0.2-0.5
		l0.2-0.5V24l0-0.1l0-0.1l0.3-0.3l0.8-1.9l0.1-0.3l0.2-0.5l0,0v-0.1l0.1-0.1l1.7-4.6L21.1,16l-0.2-0.1l0.5-1.4l0.5-1.1h0.3l0.1-0.1
		l0.3-0.9l1.1-2.9l0,0l0,0l0,0l0,0l0,0h0V9.3h0V9.3V9.2l0,0l0,0h0.1h0.1H24h0.1l0.1-0.1L24.5,8V7.9h0l0,0V7.8l0.5-2.1l0.1-0.1l0.2-1
		h0.1V4.5l0-0.1l0.1-0.5V3.8V3.7l0-0.1V3.5l-0.1-0.4l0.2-0.4h0.1l0.1-0.1l0.1-0.1l0-0.1l0,0V2.5V2.5l0,0l0,0l0-0.1l0-0.1V2.2
		l0.1-0.1L26,2.1L26.1,2h0h0l0,0h0l0,0l0.1-0.2L26.7,1l0.3,0.1l1.8,0.5l6.8,2.3l2.1,0.4l0.8,0.3l2.1,0.7l1,0.1l0.7,0.3l4.7,1.4
		L54,9.1h0h0.1l0.4,0.1l0.9,0.3h0.1l0.7,0.2l1.1,0.4l1.8,0.5l3.5,1h0.2H63h0l0,0h0.2l0.6,0.2l1,0.3l0.9,0.3l0.9,0.3l0.7,0.2l1.4,0.4
		l0,0"/>
	<path class="st0" d="M163,64.3L163,64.3L163,64.3l0.1,0.1h0v0.1l0,0l0,0l0,0l0,0.1l0,0l0,0h0.1l0,0.1v0.1l0,0v0.3v0.1v0.1v0.1v0.1
		l0,0v0.1l0,0v0.2l0,0l0.6-0.1h0.1l0,0h0.2l0,0l-0.2,0.1l0,0H164l-0.6,0.1v0.1l0,0v0.1v0.1v0.1l0,0V66V66v0.1l0,0l0,0v0.1v0.1l0,0
		v0.1l0,0l0,0l0,0v0.5l0,0v0.1v0.1l0,0l0,0V67h0.1l0,0l0,0V67l0,0h0v0.1l0,0v0.2l0,0v0.1l0,0v0.2l-0.1,0.3v0.2h-0.1l0,0v0.1l0,0h0
		l0,0l0,0l0,0l0,0v0.1v0.1v0.1l0,0l0,0l0,0h0l0,0l0,0v0.2l0,0v0.1h0l0,0l0,0l0,0.1l0,0v0.1l0.1,0.1l0.5-0.1l0,0l0.2-0.1l0,0h0.1
		l0.2-0.1l0,0l-0.2,0.1h-0.1l0,0l-0.8,0.2l0,0l0,0h0.1l0,0l0.4-0.1h0.1l0,0l0,0h0.1h0.1h0.1h0.1l0,0l0,0l0,0v0.1l0,0h0.2l0,0h-0.2
		l0,0h-0.1h-0.1l0,0h-0.1l-0.2,0.1l-0.2,0.1h-0.1h-0.1l0,0l0,0V69v0.1l0,0v0.1l0.4,0.4l0.5,0.4l0,0h0l0,0l0,0l0,0l0.2,0.2l0,0h0.1
		l0,0l0,0l0,0l0,0l0,0l0.2,0.2l0.2,0.2l0,0h0.1h0.1l0.4,0.3h0.3l0.2,0.1l0,0h0.1h0.1h0.1h0.1l0.1-0.1h0.1h0.1h0.1h0.4h0.1l0.2-0.1
		l0,0l-0.2,0.1l0,0l0.3,0.2l0,0.1h0.1l0,0H168l0,0h0.2l0.3-0.1l0,0h0.1h0.1l0,0l0,0l-0.1,0.1l0.1,0.1h-0.1h-0.1l-0.2,0.1l-0.2,0.1
		l-0.2,0.1l-0.2,0.1h-0.1h-0.1l0.1,0.2h0.1l0,0h0.9v0.1l0,0l0,0h0.2l0,0l0.1,0.1v0.1l0,0l0,0l0,0l0.2-0.1l0,0h-0.1h-0.1l0,0h0l0,0
		l0,0l0,0v0.1l0,0l0,0l0,0l-0.1,0.1l-0.1,0.1l0,0l0,0V72l0,0.1v0.1l0.1,0.1l0,0.1v0.1l0.6,0.7v0.1l0,0h0h0.1h0.1l0,0h0.2l0,0
		l0.1,0.1l0.7-0.3l0.2,0.2l0.1-0.1l0,0l-0.1,0.1v0.1l0.1-0.1l0,0l0,0l0,0l0.2-0.1l0,0l0,0l0,0l0.2-0.1l0,0l-0.2,0.1l0,0l0,0l0,0
		l-0.2,0.1l0,0h-0.1l-0.2,0.1l0.2,0.2h0.1l0,0l0.2,0.1l0.1-0.1l-0.1,0.1l0.1,0.1l0.1-0.1l0,0l-0.1,0.1l0,0l0,0l0.1-0.1l0,0l-0.1,0.1
		v2.2l-0.3,0.1l-0.3,0.1l0,0.1l0,0l0-0.1l0.3-0.1l0,0l-0.3,0.1l0,0l0,0h-0.1L170,76h-0.1v0.1l0,0l-0.1,0.1l0.9-0.2h0.2l0.2-0.1v0.1
		h0.2v-0.1h0.1l0.2-0.1l0,0l0,0l0,0l0,0h-0.2v0.1l0.3-0.1h0l0,0l0,0l0,0l0,0h-0.1h0h-0.2l0,0h0.2l0,0h-0.1l0,0h-0.2h-0.1v-0.1
		l-0.4,0.1h0.4l-0.9,0.2l0.2,0.2l1-0.1l0.1,0.2v0.2l0.1,0.3l-0.1,0.1l-0.4,0.2v0.1l-0.3,0.1v0.1l-0.1,0.1v0.1v0.1l1.2-0.2l0,0h0.1
		l0,0l0.5-0.1v-0.2h0.2l0.1,0.2l-0.7,0.1l-0.1,0.6l0,0l0.1-0.6l-0.7,0.1V78l0,0v-0.3l0.7-0.1v0.2L171,78l0,0h-0.2v0.1l-0.2,0.1
		l0.2,0.5h-0.2v0.2V79l-0.7,0.2v0.2l0,0v-0.2l0.6-0.1l0,0l0,0l0,0h0.1l0,0l0.7-0.1l0,0l-0.6,0.1h-0.1l0,0l-0.6,0.1v0.2l0,0v0.2v0.1
		l1.3-0.3l0.1-0.1l0,0l-0.1,0.2l-1.3,0.3v-0.1v-0.1l0,0l-0.1,0.3l0.1,0.1l0.2,0.4l-0.4,0.3l0,0v0.1l0,0h0.1h0.1l0,0l0,0v0.1v0.2
		l-0.3,0.1l0.2,0.2l-0.5,0.1v0.1l0.5-0.1l0.1-0.1v-0.1l2.6-0.6l0,0v-0.1l0,0l0.7,0.7l0,0l-0.6-0.7l0,0l0.2,0.5l0,0l-0.2-0.5
		l-0.5,0.1l0.2,0.5l0,0l-0.2-0.5l-0.5,0.1l0.2,0.6l0,0l-0.2-0.6l-0.5,0.1l0.2,0.6l0,0l-0.2-0.6l-0.5,0.1l0.3,0.6h0l-0.2-0.6
		l-0.4,0.1l0.3,0.7l0,0l-0.2-0.5l-0.4,0.1l0.3,0.6h0l-0.2-0.6l0.4-0.1v-0.1l0,0l-0.1,0.1l0,0l-0.6,0.1l0.3,0.9h0.2l-0.2-0.6l0,0
		l0.2,0.6h0.1V82l-0.3,0.1v0.1h0.2l0,0h-0.2l0.1,0.1l0.1,0.1h0.2l-0.1-0.3l0,0l0.1,0.3l0.5-0.1l-0.2-0.5l0,0l0.1,0.5l0.5-0.1
		l-0.2-0.6l0,0l0.2,0.6l0.6-0.1l-0.2-0.6l0,0l0.2,0.6l0.6-0.1l-0.2-0.7l0,0l0.2,0.7l0.4-0.1V81h0.1v1h-0.1v-0.1l-2.9,0.5l0.2,0.1
		l0.5-0.1l0,0h-0.2l0,0l2.1-0.4l0,0l-2,0.4l0,0.1l0.2-0.1l0,0h-0.2v0.1h0.1l0,0h0.1l0,0l0.6-0.1l0,0l-0.7,0.1l0,0h-0.1v0.1l0,0l0,0
		l0,0.1v0.1l0,0.1l0,0l0,0l0,0l0,0l0.9-0.2l0,0l-1,0.3V83h0.2l0,0l0,0l-0.3,0.1l0,0l0.3-0.1l0,0l0,0l0,0l0,0l0,0l-0.2,0.1l0,0h0.2
		l0.1-0.1v0.1l0.5-0.1l0,0l0,0l0,0h0.1v-0.1l0,0l-0.1-0.1l0,0l0.1,0.1h0.1l-0.1-0.1l0,0l0.1,0.1h0.1l-0.1-0.1h0l0.1,0.2h0.1
		l-0.1-0.1h0l0.1,0.2h0.2l-0.1-0.2l0,0l0.1,0.2l0,0l0,0h0.1l-0.1-0.1l0,0l0.1,0.1h0.1l0,0h0.1l0,0l0,0l0,0l-0.1-0.4h0.1l0.1,0.5
		h-0.2v-0.1l0,0l0,0l-1,0.3v0.1l-0.7,0.1v0.3v0.1l0,0l0,0.1l0,0l0,0l0,0.1l0.9-0.2l-0.1-0.3h0l0.1,0.3l-1,0.2V84h0.2l0,0l-0.2,0.1
		v0.1l0.2-0.1l0,0h-0.2v0.1v0.1l0,0l0,0h0l0,0v0.1l0,0l0,0l0,0v0.1l0,0v0.1l0,0l0,0l0,0l0,0l0,0v0.1v0.1v0.1h0.3h-0.3l0,0v0.1
		l0.1,0.5h0.2l0,0h-0.2v0.3h0.2h-0.2v0.2l-0.3,0.8v0.1l-0.2,0.3l-0.3,0.2l0.1,0.4l-0.5,0.4l-0.4-0.2l0,0l-0.1,0.1l-0.1,0.1v0.2
		l0.1,0.3l0.1,0.1v0.4L169,89h-0.2l-0.4-0.6l-0.3,0.1l-0.5,0.1h-0.1l-0.1-0.1l0.9,0.3l-0.5,0.2l0,0l-0.1,0.1l-0.1-0.1h0.1l0,0
		l0.5-0.2l-0.4-0.5h-0.3l-0.6,0.4l-0.2-0.1h0l0.2,0.1l0.5-0.4l-0.1-0.3l-0.3-0.2l0.1-0.6v-0.3v-0.1v-0.1l-0.2-0.3l-0.1-0.1l-0.2-0.2
		l-0.2-0.1h-0.1h-0.1l-0.3-0.1h-0.4l-0.5,0.1l0,0h-0.1l0,0h0.1l0-0.1l-0.1-0.2v-0.1v-0.1h0v-0.1l-0.2-0.4l0.3-0.1l0,0v-0.1l-0.1-0.2
		l-0.3,0.1l0,0h-0.2l0,0l-0.3,0.1v0.1l0,0l0,0.2h-0.1l-0.1-0.2l0,0l0,0l0,0v-0.1l0.3-0.1l0,0l0.2-0.1l0,0h0.3v-0.1l-0.2,0.1
		l-0.1-0.2l0.3-0.1v-0.1l-0.2-0.3l0,0l0,0h-0.1h-0.1h-0.1h-0.1h0l0,0h-0.1l0,0h0.1v-0.1v-0.1l0,0h0.1l0,0h0.1l0,0v-0.1l-0.3,0.1l0,0
		l0.3-0.1l-0.2-0.4l-0.2-0.2H164H164l0,0l-0.4,0.1l0,0l0.4-0.1l-0.2-0.3l0,0v-0.1v-0.1l-0.1-0.3v-0.1l-0.2-0.2l-0.6,0.1l0-0.1h-0.1
		l0,0h-0.3v-0.1h-0.1v-0.4l0,0l0,0l0,0v0.1h-0.1v-0.1l0,0l0,0l0-0.2h0v0.1h0.1l0-0.1h0.2l0,0h-0.2l0,0h0.2v-0.1v-0.1h0.1l0.5-0.1
		v-0.1l0,0v-0.1h-0.1l0-0.1h0.1l0,0l-0.1-0.3l-0.1-0.2l-0.4-0.4V80h-0.1l-0.2-0.3l-0.3-0.3l-0.2-0.3h-0.2l-0.1,0.1l0-0.1l0.4-0.1
		l-0.3-0.5h0.1l0,0l0,0v-0.1h-0.1l-0.5,0.1l0,0l0.4-0.1v-0.1l0,0l0-0.1h-0.1h0l0,0h-0.1l0,0h0.1l-0.1-0.1l0,0l-0.1-0.1l-0.4,0.1V78
		l0.4-0.1h0.1l0,0l0,0h-0.1l0.1-0.4h-0.3l0,0h-0.3l0,0h0.2l0,0l0,0l0.3-0.1v-0.1h-0.1v-0.1l0.3-0.1h0v-0.1l0,0l0-0.5l-0.3,0.1l0,0
		l0.3-0.1v-0.2l0.1-0.2l0.1-0.1v-0.4l0.2-0.2l0-0.1l0,0v0.1v-0.1l0.1-0.1l-0.1-0.1l0,0l0.1,0.1l0.7-0.3l0.5-0.4l-0.1-0.4v-0.1
		l-0.3,0.1l0,0h-0.1l0,0l-0.5,0.1l-0.3,0.1l0,0l0,0v-0.1l0.3-0.1v0.1l0.2-0.1h0.1l0,0h0.1l0,0h0.1l0,0h0.3l-0.2-0.4h-0.2l0,0l0,0
		l0,0v0.1h0V74H162l0-0.2h0.3v-0.1h-0.1l0,0h0.2h-0.1v0.1h0.1v-0.1l0.2-0.1v-0.1v-0.1h0l0,0h0l-0.1-0.2l0-0.2h-0.2l0,0h0.2v-0.1
		h-0.2l0.2-0.1v-0.2l0.7-0.1l0-0.2H163l0,0l-0.1,0.1l0,0h0.1v0.1l0,0v0.1h-0.1l0,0l0,0v-0.1l0,0v-0.1l-0.3,0.1l0,0.2l0,0v-0.2h-0.3
		v0.2l0,0l0-0.2l-0.5,0.1v0.1l0,0l0-0.1h-0.1l0,0h0.1v-0.1h0v0.1l0.5-0.1v-0.1l0,0v0.1h0.3v-0.1h0v0.1l0.4-0.1l-0.1-0.2l-0.5,0.1
		v-0.1l-0.8,0.1v-0.1l0.8-0.1v-0.1h0v0.1h-0.2l0,0h0.1l0,0h0.1l0,0l0,0v-0.1l0,0v-0.1l0,0l0.2-0.1l-0.1-0.2h-0.1l0.1,0.2l0,0
		l-0.1-0.2l-0.3,0.1l0.1,0.2h-0.1l-0.1-0.2l-0.3,0.1l0.1,0.2l0.2-0.1l0,0l-0.3,0.1l0,0l0,0l0,0l-0.1-0.2l-0.2,0.1l0,0h-0.1l0,0.1h0
		l0,0l-0.2,0.1l0,0h0.1l-0.1-0.2l0,0l-0.3,0.1l0.1,0.2h0.1l0,0h-0.2l0,0h0.1l-0.1-0.2l-0.3,0.1l0,0.1l-0.6,0.2l0,0l-0.2,0.1v-0.1
		h0.2l0,0l0.6-0.2v-0.1l-0.3,0.1v-0.1l2.1-0.5l0,0l-1.1,0.3l-0.1-0.2l-0.1,0.1l0,0h0.1v-0.1l-0.2,0.1l0,0h0.1l0,0l-2.2,0.5l0.1,0.3
		l0,0l-0.1-0.3h0.1l-0.1-0.1l0,0l0.1,0.1l0,0l2.1-0.5l-0.2-0.3l-2.9,0.3v0.1l0,0l-0.1-0.3h0v0.1l2.3-0.6l-0.1-0.2l1.1-0.3l-0.1-0.2
		l-0.3,0.1l0,0H161v0.1l0,0v-0.1l-0.5,0.1l0.1,0.2h0l-0.1-0.2l-0.2,0.1l0.1,0.2h0l-0.1-0.2l-0.3,0.1L160,71l0,0l-0.1-0.2h-0.3
		l0.1,0.2l0,0l-0.1-0.2h-0.3l0.1,0.2l0,0l-0.1-0.2l-0.4,0.1l0.1,0.2h0l-0.1-0.2h0.1l2.3-0.6l0-0.1l-0.3,0.1l-0.2-0.5l-1.4,0.3
		l0.1,0.4l0,0l-0.2-0.4l-0.5,0.1l0.2,0.4h0l-0.2-0.5h0v0.1l1.9-0.5v0.1l0.3-0.1l-0.3,0.1l0,0l-1.3,0.3l0-0.1h0v0.1l1.5-0.4l0,0
		l-0.3,0.1h-0.2h-0.2l-0.1-0.1l0,0l-0.8,0.1l0,0l0,0v-0.2l0,0v0.1l0.8-0.1l0,0l0,0l-0.1-0.2l0.6-0.2l0-0.2l-0.6-0.9l-0.2-0.3
		l-0.5-0.2v-0.2h0.1l0.1-0.1l0.2,0.1l0.1-0.1v-0.1h-0.6v-0.1h0.6V67h0h-0.1l0,0l0,0l0,0l0,0V67l0,0l0,0h0.1l0,0l-1.3-0.2v0.1l0,0
		l0-0.1l0,0v0.1L160,67v-0.1l0,0l-0.1-0.1l0.2,0.1v-0.1l-0.1-0.1l0.1,0.1l0.1-0.1h-0.2l0,0h0h0.1H160l-0.1-0.1l-0.4-0.2l0,0l0,0
		l-0.2,0.2h-0.1l0.2-0.2l0,0v-0.1l-0.6-0.3l-0.1-0.1l-0.1,0.3l-0.1,0.2h0v-0.1l0.1-0.5h0.1L159,66l1,0.5L159,66l0.1-0.1l0,0
		l-0.1,0.1l0.6,0.3l0.2-0.3l-0.6-0.3l-0.1,0.1l0,0l0.2-0.2l0,0l-0.1,0.1l0.8,0.4l0,0l-0.1-0.1l-0.2,0.3l0.3,0.1l0.1-0.2l0.2-0.2
		l0.3,0.1l0.4-0.3l-0.3-0.2l0,0h-0.1l0,0l-0.4-0.2l-0.1,0.1l0,0l0.2-0.2l0.2-0.2l0,0l-0.2,0.3l0.4,0.2l0,0h0.1l0,0l0.3,0.1l0.2-0.2
		l0.1-0.1l0.3-0.1l0.2-0.3l0.2-0.3l-0.1-0.1l0,0v-0.1l0.1,0.1l0,0l0,0v0.1l0.1-0.1l0,0h0.1h0.1h0.1l0.1-0.1h0.1l0,0h0.1l0,0h0l0,0
		l0,0l0,0l0,0"/>
	<path class="st0" d="M50.8,131.9l0.3,0.1v-0.1l0.4,0l0,0v0.1h-0.2l0,0l0.2,0.4l0.3-0.1h0.3h0.1h0.1l0,0h0.1h0.1h0.1h0h0.1h0.1l0,0
		h0h0.1l0.1,0.1h0h0.1h0.2h0h0.1h0.1l0,0l0,0l0.1,0l0.1,0.1l0,0l0.1,0.1l0.1,0.1l0.1,0.1l0.1,0.1l0.2,0.1l0.1,0.1l0.2,0.1l0.1,0h0.1
		l0,0l0,0l0.1,0.1l0.1,0.1l0.1,0.1l0.1,0.1l0.1,0.1l0,0l0.1,0.1l0.1,0.1l0,0l0.1,0.1l0.1,0.1h0l0,0l0,0l0.1,0.1l0.1,0.1l0.1,0.1l0,0
		l0,0l0,0l0,0l0,0l0,0l0.1,0l0,0h0.1l0,0l0,0v0l0,0v-0.1l0,0l0,0l0,0l0,0l0,0h0.1l0,0l0,0l0,0l0,0l0,0l0.1,0.1l0,0l0,0l0,0l0,0
		l0.1,0.1l0,0l0,0h0.8h0.1l0,0h0.1h0.1h0.1l0.1,0.1h0.1h0.1H58h0l0,0h0.1h0.1h0.1h0.1h0.1h0.1h0.1h0.5h0.1h0.1h0.1h0.1l0,0h0.1h1.1
		H61h0.1h0.1h0.1h0.2h0.1h0.1H62h0.1h0.1h0.1h0.1h0.1l0,0l0,0l0.1,0.1h0h0.1h0.1l0,0l0,0l0,0l0,0l0.1,0.1l0.2,0.1l0.1,0.1l0.1,0.1
		l0.1,0.1h0.1l0.1,0.1l0.1,0.1h0.1h0.1h0l0,0h0l0,0l0.1,0.1l0.1,0.1l0,0l0,0h0.1l0,0l0,0l0,0l0,0l0,0l0,0l0,0h0.1h0.1l0,0l0,0l0,0
		l0,0l0,0h0.1h0.1h0l0,0l0,0l0,0l0,0l0,0l0,0l0.1,0.1l0,0l0,0l0,0l0,0v0.1l0,0l0,0v0l0.1,0.1l0.1,0.1l0.1,0.1h0.1l0.1,0.1h0.1l0.1,0
		h0l0.1,0l0,0l0,0l0.1,0.1l0,0l0.1,0l0.1,0.1l0.1,0l0,0h0.4l0.3,0.1l0.1,0l0.1,0h0.1h0.1H67h0.1h0.1h0.1h0.1h0h0l0,0l0.1,0.1
		l0.1,0.1h0.1l0.1,0.1l0.1,0.1l0.1,0.1l0,0l0,0l0.1,0l0.1,0.1l0.1,0.1l0.1,0.1l0.1,0.1h0l0,0l0.1,0.1l0.1,0.1l0.1,0.1l0.1,0.1l0,0
		l0,0l0.1,0.1v0.1l0,0v0.1v0.1l0,0l0,0v0.1v0.1v0.1v0.1v0.3v0.1l0,0v4.2v0.1v0.1v0.3v0.1v0.1v0.1l0.1,0.2v0.1l0,0l-0.3,0.4l-0.2,0.1
		l-0.2,0.2l-0.1,0.2l-0.2,0.3l-0.3,0.2l-0.3,0.2h-0.2l0,0l-0.2,0.1L67,146l-0.1,0.1l-0.1,0.1l0,0l-0.1,0.1l-0.1,0h-0.1h-0.1h-0.1
		h-0.1h-0.5h-0.2h-0.2h-0.2h-0.3h-0.3H63h-0.3h-0.3l-1.7,0.5l-7.8-1.4h-0.2h1.6l-0.2-0.1h-0.2h-0.2H53l-0.3-0.1h-0.1l-0.5-0.1
		l-0.7-0.1l-0.3-0.2l-0.5-0.2l-0.4-0.5l-0.1-0.3l-0.1-0.1l-0.2-0.5l-0.1-0.3v-0.1l-0.3-0.7l-0.2-0.3l-0.3-0.3l-0.3-0.1h-0.1
		l-0.3,0.1h-0.3h-0.2l-0.2-0.1h-0.2l-0.1-0.1l-0.1-0.1l-0.7-2.7l0.2-1.2l0.9-3.3l0.4-0.3l0.1-0.1l0.1-0.1l0-0.1l0.6-0.4l0,0l0,0
		l-0.1-0.1l0,0l-0.1,0h0.1l0,0.1l0,0l0.1,0.1h0l0.1-0.1l-0.1-0.1l0,0l-0.2-0.2l0,0l0.2,0.2l0,0l0.1,0.1l0.5-0.2l0,0.1h0.1h0.3H50
		h0.3h0.2h0.1h0.2l0.2-0.1l0.2-0.1l0.1-0.1l0.1-0.1l0,0l-0.2-0.1h0.1l-0.1-0.1l0.1-0.1l0.1,0.1l-0.1-0.2H51l0,0l-0.4-0.1v-0.1
		L50.8,131.9L50.8,131.9"/>
</g>
</svg>
