<svg xmlns="http://www.w3.org/2000/svg" xmlns:xlink="http://www.w3.org/1999/xlink" viewBox="0 0 268.59 227.76"><defs><linearGradient id="linear-gradient" x1="226.9" y1="237.65" x2="488.91" y2="237.65" gradientUnits="userSpaceOnUse"><stop offset="0" stop-color="#fff"/><stop offset="1"/></linearGradient><pattern id="New_Pattern" data-name="New Pattern" width="71" height="71" patternTransform="translate(0.9 8.76) scale(0.2)" patternUnits="userSpaceOnUse" viewBox="0 0 71 71"><rect width="71" height="71" fill="none"/><line x1="71.14" y1="141.86" x2="141.86" y2="71.14" fill="none" stroke="#0f26a6" stroke-linecap="square" stroke-linejoin="bevel" stroke-width="1.3"/><line x1="0.14" y1="141.86" x2="70.86" y2="71.14" fill="none" stroke="#0f26a6" stroke-linecap="square" stroke-linejoin="bevel" stroke-width="1.3"/><line x1="-70.86" y1="141.86" x2="-0.14" y2="71.14" fill="none" stroke="#0f26a6" stroke-linecap="square" stroke-linejoin="bevel" stroke-width="1.3"/><line x1="71.14" y1="70.86" x2="141.86" y2="0.14" fill="none" stroke="#0f26a6" stroke-linecap="square" stroke-linejoin="bevel" stroke-width="1.3"/><line x1="0.14" y1="70.86" x2="70.86" y2="0.14" fill="none" stroke="#0f26a6" stroke-linecap="square" stroke-linejoin="bevel" stroke-width="1.3"/><line x1="-70.86" y1="70.86" x2="-0.14" y2="0.14" fill="none" stroke="#0f26a6" stroke-linecap="square" stroke-linejoin="bevel" stroke-width="1.3"/><line x1="71.14" y1="-0.14" x2="141.86" y2="-70.86" fill="none" stroke="#0f26a6" stroke-linecap="square" stroke-linejoin="bevel" stroke-width="1.3"/><line x1="0.14" y1="-0.14" x2="70.86" y2="-70.86" fill="none" stroke="#0f26a6" stroke-linecap="square" stroke-linejoin="bevel" stroke-width="1.3"/><line x1="-70.86" y1="-0.14" x2="-0.14" y2="-70.86" fill="none" stroke="#0f26a6" stroke-linecap="square" stroke-linejoin="bevel" stroke-width="1.3"/></pattern><linearGradient id="linear-gradient-2" x1="111.77" y1="138.72" x2="211.03" y2="138.72" xlink:href="#linear-gradient"/><linearGradient id="linear-gradient-3" x1="165.51" y1="148.85" x2="205.29" y2="148.85" xlink:href="#linear-gradient"/><linearGradient id="linear-gradient-4" x1="77.23" y1="216.33" x2="93.54" y2="216.33" xlink:href="#linear-gradient"/><linearGradient id="linear-gradient-5" x1="181.8" y1="169.78" x2="220.6" y2="169.78" xlink:href="#linear-gradient"/><linearGradient id="linear-gradient-6" x1="6.84" y1="118.3" x2="201.38" y2="118.3" xlink:href="#linear-gradient"/><linearGradient id="linear-gradient-7" x1="2.11" y1="96.3" x2="165.37" y2="96.3" xlink:href="#linear-gradient"/><linearGradient id="linear-gradient-8" x1="56.48" y1="123.39" x2="234.4" y2="123.39" xlink:href="#linear-gradient"/><linearGradient id="linear-gradient-9" x1="29.2" y1="57.57" x2="144.57" y2="57.57" xlink:href="#linear-gradient"/><linearGradient id="linear-gradient-10" x1="39.16" y1="41.55" x2="102.96" y2="41.55" xlink:href="#linear-gradient"/><linearGradient id="linear-gradient-11" x1="26.88" y1="25.23" x2="72.25" y2="25.23" xlink:href="#linear-gradient"/><linearGradient id="linear-gradient-12" x1="338.01" y1="311.9" x2="338.01" y2="311.9" xlink:href="#linear-gradient"/></defs><title>bronx_symbol</title><g id="Layer_1" data-name="Layer 1"><g id="Map_1:_NYC_Boroughs_Besides_SI" data-name="Map 1: NYC Boroughs Besides SI"><path d="M332.47,153.49l3.48,1,5.3,1.58,2.4.72,1.51.48,1.54.41,3,.89.43,0,.24.12.36.17.36.17.41.14.38.12.41.1.38-.1.43.14.36.12.17.05.19.07.32.1.4.12.12,0,.17.05,1.11.33.12-.14.12-.17.43-.53-.27-.17-.33-.5.07-.26v-.05l.17,0,.14,0,.31.16.29-.45-.74-.29-.17,0-.14-.05-.05-.28-.07-.27-.08-.33.56-.41.14,0,.12,0,.12.12.14.09.41.41.55.12.43-.14,0-.51.36-.45.38.12.32-.24.79-1.27-.12-.75.33-.89-.09-.09-.1-.12-.17.05-.28-.08-.15-.19.46-.79h.21l.44.26.12.08.14.07.5-.07L362,152v-.32l-.6-.07-.12,0-.15,0-.74-.7.22-.33.43-.17,1.05.07.12,0,.15,0,.48-.22.67-.84L365,149l.86-1.32-.14-.31-.7-.1-.84,0-.07-.12-.07-.14-.22-.34.58-1,1.17-.94.24-.1.29-.14.43-.77.7-.53.34-.09.31.17-.12.52.33.27h.34l.84-.53.5-.19.1-.31.65.14-1,1.15-.74.89-.48.58-1.23,1.44-.72.88,1.56.58.51.19,1.48.53.89.29.91-1.06.39-.5,1.46.67,1.2.55,2.71,1.13,1.49.45,1.49.44,1,.21-.1.79-.1.72.08.82.84,0h1.77l1.78,0,1.7,0,.46,1.18.12.5.07.7.26,1.65.05.15,0,.12.07.14,0,.12.07.15.1.12,1.05,1.44,1.39,1.87.05.14,0,.15,0,.14,0,.17v.14l0,.15,0,.14,0,.14-.05.15,0,.14-.7,1.34.05,1,1.17,3,1,2.64.6-.12,1.15.39,1.88.55,1.82.36,2.92,1,1.56.36,1.47.43,1.53.55,1.54.43,2,.6.41.12,1.22.39,1.3.41,3.5,1,2.25.65.44.12,2,.84.17-.15v0l0-.07v-.1l0-.07v0l0-.05-.05-.07,0,0h0l-.07-.07-.1,0-.09,0-.1,0h-.19l0,0-.12,0h-.07l-.14.05,0,0-.05,0h-.19l-.12-.05-.07-.05-.05,0-.05,0,0-.07v0l0-.09,0-.12v-.12l0-.07.05-.1.05-.14,0-.12v-.05l0-.07-.05-.05v0l-.07,0-.07-.05-.05,0,0,0,0-.05v0l0-.05v0l0,0,.17-.53.91-.41,3.89,1,1.82.51.15.05.14,0,2,.72,1.15.32,1.73.4,1.05.2.48.24.7.19.17,0,.12,0,2.64.62,2.4.58,1.75.43,2.37.62.82.2,1.25.26,2,.65,2.06.48,2.67.62.55.12.5.12,2.31.53,1.72.55,4.56,1.13,2.74.74.69.17,1.83.43,2.47.67,1.42.36.33.1,1.49.5-.38.94-.63.53-.36,1-2,2.47-1.1-.24.91,1.63L466,201.21l-1.52,1.44-.14.7-.41,1.15-1.94,1.27-.62-.43-1.56.84-.12,1.17-.68,1.16-.14.16v.17l-.22.17-.07.17.07.21-.19.36,0,.22-.15.24v.1l-.07.12-.07,0,0,.19-.07.19-.12,0-.15.17-.26,0-.12-.05-.31.24h-.17l-.14.08-.44.31-.31.26.1.1L456,212l-.16-.07v.12l0,0-.14,0-.09.2,0,.19.24.09-.07.15-.38-.05L455,213l-.07.12h-.17l-.17.79.1.15,0,.16,0,.24.15.08-.12.07.07.14-.1.19-.12,0,0,.26-.36.34-.29-.12-.17-.17-.19-.12-.14.17-.15.14-.17.05-.14-.1-.12-.16-.14-.15-.12,0-.2.07,0,.14,0,.27-.29.09-.09-.09-.15-.07-.09,0-.1.15-.09,0,0-.21-.07-.12-.14-.05-.1,0-.14,0-.12-.1-.15-.17-.12-.07h-.31l-.19,0-.17.19-.05.09-.16.05h-.27l-.09.07-.41,0,.09-.12,0-.1-.12-.07-.07-.07,0-.08.17,0,.12,0,.17-.14.07-.1,0-.14,0-.15-.05-.12-.14-.09-.38-.2-.1-.19-.22-.14-.24-.12-.16-.29-.05-.12-.31-.07-.17-.15v-.12h-.14l-.1-.14-.17,0-.19,0-.1,0v-.28l-.24.07-.26,0-.12-.07-.31-.09-.39-.2v-.21l.08-.15-.08-.09-.16.21-.15,0-.26-.1-.17-.1-.07-.14-.1.12-.24,0-.26,0,0-.24-.14.17h-.26l-.32,0h-.24l.1.17.26-.07.34,0,0,.1.12,0,.33.19,0,.1h.09l.19,0-.07.14,0,.12.12.12-.19.12-.19.19-.17.17.24,0,.31-.07.2,0,.19-.07.09,0,.05.08.17,0,.26-.09.12,0,0,0,.14,0,.17.05.1.1,0,.16v.17l-.07.1-.15,0-.14.07-.12.12-.12.12,0,.07h-.12l-.1.14,0,.1,0,.07-.16,0,0,.07,0,.05-.1.12-.12.05-.07.09-.15.05,0,.07-.2,0,.12.07,0,.12-.05.1-.17,0-.12.07-.05.1-.21.1.07.07.17-.07.17-.15.14-.07.1.07.14-.17.14-.12.2-.12.12-.07,0-.09.07-.05.05-.1.12-.07,0-.1.09,0,.08.07.24,0,.19,0,.14,0,.1,0h.14l.05,0,.17,0,.12,0,.07.07,0,.07.2.1.14,0,.1,0,.09,0v0l.05.07-.05.12,0,.1v.14l-.05.14.05.12-.05.15-.1.07,0,.07-.17.1,0,0,.17,0,.09,0,.22-.1.14,0,.1.08,0,0-.09,0-.08,0-.14,0,0,.07.12,0,.12-.1.09.07v.17l.15,0,.14,0,0,.12.12.1.08.07h.36l.21.1.15.12.16-.08.15.08h.07l.14-.08.1,0,0,.07.12.14.1-.09.12-.07.17,0,.12,0,.14,0,0,.05.12-.09.12.12.12.24.05.33.09.19,0,.32-.1.31.1.69-.05.36v.32h.14l.29,0,.05-.17.05-.12.17,0,.09,0,.22-.14.09-.12.2-.24.24,0,.43.12h.41l.21-.05.17,0,.07.15.19,0,.15.1-.24.26.09.12-.09.27-.07.09.12.05,0,.24-.12.12,0,.19,0,.24.07.24.05.31.31.08.19.09.41.05.31,0,.1-.24.33.15.15-.27.36-.09.07-.24,0-.5-.07-.2.48-.64.19-.17,0-.31.87-1.2.19-.27.07-.41.26-.4.39-.2.41-.5.21-.17,0-.26.31-.27.09-.33.17-.12.1-.24v-.29l.24-.07.12-.1.07-.26.24-.24.14-.29.05-.26.15-.24.14-.39.38-.62L462,211l.24-.24,0-.17.17-.1.09-.17.29-.19.48-.67.1-.14.12-.1.23-.05.17,0,.29,0,.14-.05.2-.05h.07l.12.05.07-.19,3.72-1,1.44-2.38.7-2.71-.05-1,.74-.6-1.82-.55-.34-.46,1-1.65,1.46-1-.07-.48.26-.29.5-.12.39.09H473l.39-.16.12-.41.29-.22h.4l1,0,.56-.53v-.31l-.32-.29.1-.19.55-.29,1.54-.46.12,0,.14,0,.12,0,.12,0,.22-.1.14.1-.12.29.1.4-.07.22L478,195l.36.87-.32.33-.31.19-.5.05-.53.26.94,1,2.18.21.91-.17.58,0h.5l.34,0,.33,0,1.11-.05.38.29,1.15.48.63.14.5-.07.26.07.08.19.31.24,0,.24.1.34L487,200l-.56,1.39-.52.1.14.88.07.51h-.29l-.16.24,0,.19-.53.22-.28.36,0,.26-.31-.07-.19,0-.46.46-.34.62-.16.53.26.21-.38,0-.39.12-.09.21,0,.2-.51.14-.16.34-.08.4-.12.65,0,.75.64.4.92.24.38-.36.38-.45.56-.53.36-.7.36,0,.12.12-.1.16-.07.1v.12l-.17.19-.07,0-.41.43v.26l-.1.39.12.33-.14.1v.48l.58.67.26-.65.31-.57.22-.24.89-1.54.4-.7.41,0,.65.12.31.31-.22.5-.33.22-.19,0-.17.27-.17,0-.17.2.05.12.34.28-.05.29.69.24.36.1.15.26v.82l-.15.43-.16.31v.36l.09.22-.17.38-.16.19-.22.17-.05.24-.14.07h-.12l-.19,0-.15.09-.12.22h-.12l-.14.17-.1.09-.21.24-.05.1-.17.05-.26.12,0,0-.28.07-.27.19-.29.39-.36.6-.6,1.05,0,0h-.05l0,0h0v0h0l.24-.62.07-.39-.27-.48-.6-.19-.88.07-1.54.05-.48,0-.62.09-.51-.07-1.65.53-.36,0-.43.22-.48.12-.84.62-.48.15-.94,1.12-.53.65-.38.75-.15.31-.14.31-.12.34-.1.33-.09.31-.07.34-.08.33,0,.34-.05.34v.67l0,.33,0,.34.05.34.07.33.07.34.1.33.09.34.12.31.15.31.14.34.17.31.19.31.19.29-.67,1.9V229l-.48.05-.36.12-.12.12-1,.19-.17.17-.26.12-.53.19-.17.24-.14.17-.15.24,0,.22.21.09-.17.1-.31,0-.21.31-.1.36.1.31-.24.26-.24.24-.27.24-.29.7-.26.72.07.31.1.31.12.32.12.31.12.31.14.31.07,0,.08,0,.07,0,.05.07,0,.05,0,.07,0,0,0,.07v.07l0,.07,0,.07,0,.05v.07l-.09.08L469,237l-.07,0-.07,0h-.19l-.08,0-.09,0-.07,0-.15-.14-1.22.07-2.19.43-.26.22-.24.24-.24.21-.22.24-.19.24-.19.27-.19.26-.17.27-.14.26-.12.26-.48.1-.48-.36-.34.14-.57,1.52,0,.16.05.15.07.17.1.14.1.17.09.14.12.15.15.12.14.12.22.09.21.1.22.09.19.12.22.12.26,1.8-.7,2.38-1.94,1.17-.17.15-.12.14-.14.15-.12.16-.1.17-.09.17-.08.17-.07.17-.05.16,0,.2v.12l0,.12-.05.12,0,.09-.07.12-.05.1-.07.09-.1.41-.05.07,0,.05-.08.05-.07,0-.09.05-.1,0-.1,0-.09,0-.22-.07-.21-.1-.2-.09-.21-.1-.17-.12-.17-.12-.17-.14-.14-.12-.14-.17-.12-.14-.12-.17-.08-.17-.09-.17,0-.17-.05-.16-.05-.2v-.69l0-.17,0-.17-.07-.14-.05-.17-.26-.43-.24-.43-.29-.44-.26-.43-.31-.41-.32-.4-.31-.41-.33-.41-.36-.41-.36-.38-.36-.38-.68-1.06-.64-2.42v-.1l0-.1.05-.09,0-.1.07-.07.07-.1.07-.07.12-.05.1-.07.12-.05.12,0,.12,0h.21l.12,0,.1,0,.1,0L453,239l.07-.07.07-.05.05-.07,0-.1,0-.07,0-.07v-.1l0-.07-.27-.84-.16-.29-.1-.33-.05-.31-.05-.41-.12-.48-.16-.58-.15-.57-.05-.53,0-.6,0-.34,0-.12v-.12l-.07-.24,0,0-.15-.2-.16-.21-.17-.39-.12-.43-.12-.48-.07-.72,0-.36,0-.38.07-.34,0-.05,0-.33-.08-.22-.14-.24-.1-.09-.09-.1-.12-.09-.12-.08-.15-.07-.14-.07-.14-.05-.17,0-.15,0-.16,0h-.51l-.14,0-.12.05-.12.07-.1.07-.07.07-.07.08-.07.09,0,.1,0,.09,0,.1.74,2.42-.52.27-.75.12-.31-.15-.31-.19-.36-.19h-.5l-.48.21-.53.44-.07.26-.27.19-.21-.38-.63-.6-.6-.48-.41-.17-.28-.22-.89-1-.36-.41-.41-.62-.17-.38-.38-.17-.27-.1,0-.45-.44-.22-.21-.07-.22-.1-.19-.07-.12-.05-.12,0-.12,0-.12,0h-.12l-.36,0h0l0,0h-.05l0,0,0,0h0v0l0,0h-.05l0,0h0v0h-.05l0,0h0v0l0,0V226l0,0,0,0v0l0,0v0l0,0,0,0-.1-.05-.07,0-.19-.12-.2-.1-.21-.12-.19-.1-.08,0-.07,0h0l-.07,0-.07,0h-.07l-.07,0h0l0,0h-.1l0,0,0,0h0v0l-.12-.17-.12-.16-.12-.15-.12-.17-.07,0-.05-.05,0-.07-.05-.05v-.15l0,0,0,0,0,0-.05,0,0,0h0l-.05,0h-.05l-.22.1-.07,0-.05-.05,0-.07.07-.14.05-.12v-.08l-.1,0-.07.12-.22.14-.09.12,0,.12,0,.05.1.07-.46.82-.16.12-.2.17-.12,0-.16,0-.12,0-.1,0h-.1l0,0-.05-.07,0,0-.14.12-.72,1-1.56,2.28.14.05.79.26.67.07.39-.28.81,0-.09.41,1.8.62,1.89,2.91L438,241l-7.15.15-.29.43-.48.94-.19.88,0,.12,0,.12,0,.15-.08.12-.07.09-.05.08,0,.09,0,.07,0,.08v.07l.05.12v.19l0,0,0,.1,0,.07-.05.07,0,.1,0,.09.12.12,0,0,.05,0,.12,0,.1-.05h0l0,0,0,.05-.08,0-.07.05-.09,0,0,.07v.1l0,.07-.05.05V246l.07.1.05.05.07.16.1.1.07.07.12.05.12,0h.14l.17,0,.17,0,.17.09.14,0,.07-.05.08-.07h0l.1,0,0,0,.1.12.09.05.17,0,.09,0,.1,0,.1,0,.14,0,0,0v.05L432,247l-.12,0-.05,0-.26.14v.12l0,.12.1.05,0,.07-.15,0h-.24l-.14.12,0,.21.08.12.52.6.24.27.12.14.12.15,0,.19.24.21.12,0h.14l.14-.07.12,0,.15.1,0,.14-.16.15-.08.07-.12.19v.12l0,0,.07.12v.21l-.21.12-.12.15,0,.21-.19.22-.12,0-.1,0-.07,0v0l-.09.09-.08.15V252l.08.07.14.08.14,0h.12l0,0v.07l-.07,0-.1,0H432l-.1,0h-.12l-.14,0h0l-.15.12-.07.12-.05.21-.05.24,0,.41,0,.31,0,.34,0,.22,0,.07,0,0,.07,0,.07.05.31.12.12,0,.1,0,.07-.09h0l.41-.46.22-.14.5-.31.19-.12.12-.1.41-.26,0-.05-.1,0,.05-.05.24.22-.05,0-.07-.07H434l-.43.29-.19.12-.34.21-.29.2-.19.12-.12.14.05,0-.15.15,0,0-.17.22,0,0,0,0h.17l.07,0,.1,0,.6-.29.09,0,.07,0h.08l0,0,.08,0,.07.07.12-.07.26-.15L434,254l.05,0,.1-.05.05,0,.07-.05.05,0,.09,0,.05,0,.1-.07,0,0,.08-.05.07,0,.07,0,0,0,.07,0,0,0,.09-.07.08,0,.07,0,.05,0,.09-.05,0,0,.09,0,.05,0,.1-.07-.1-.1.05,0,.12.14.09.07,0,0-.08-.08h0l-.1.05,0,0-.1,0-.05,0-.07.05-.05,0,0,0-.09,0-.1.07-.05,0-.07,0-.05,0h0l-.29.17-.05,0-.19.12-.26.15-.46.26-.12.07.43.46.34-.05.07.07-.41.39.1.09-.14.07-.12.1-.1.07-.1,0-.38.26.1.17,1.44-.89.38.32.14-.05,1.25-.65.07.12-1.17.62-.34.24v.08l0,0,.86-.55.05,0-.89.53-.09.05v0l.12.12.48-.24h0l-.48.24.07.07.08.1.24-.12,0,0-.24.1.07.1.31.12,0-.05v0l0,0,.15-.29,0-.12.05-.1,0,0,0-.1,0-.07v0l.07-.15,0,0,0-.05,0,0,.05-.1.14,0v0l-.12-.05,0,.08v0l0,.07v0l-.05,0-.12.27-.05.09,0,0,0,.07,0,0v0l-.05.09-.05.1,0,.1h0v0l0,0v.05h0v0l.26.12.36-.05,0-.1,0,0,0-.12,0-.1,0-.09.05-.15.05-.09v0l0-.12,0,0v0l.05-.09.09-.24,0,0v0l0-.1,0,0,.05-.1v0l0-.12.05-.1,0,0,0-.12-.09,0,.21,0v0l-.09,0-.05.1-.17.36,0,0,0,.1,0,0-.05.12,0,0-.05.12,0,.09-.07.2,0,.12v0l-.05.07,0,.05,0,.07v0l0,.07,0,.05,0,.07v0l0,.1h0l.05.05,0,0,.05,0,.05,0h.07l.05,0h.07l.09,0,.1,0,0-.07-.21-.07-.27,0,0,0,.29,0,.24.07.05-.12.14-.36.1-.24.09-.26.05-.12,0-.1h0l.12-.33,0-.12,0-.1,0-.09.12-.41.05-.12-.12,0v0l.24.05v0H438l-.1.31,0,.05-.05.12,0,.07,0,.05v0l0,0,0,0,0,.1v0l-.05.07v0l0,.09v0l0,.09-.05.1v0l0,.1v0l-.05.12v0l-.05.09v0l-.05.07v0l-.05.1v0l0,.12-.05.12v0l-.05.09v0l-.05.09.41.1,0,0-.41-.07v0l.12.05.12,0,.12.07v0l0,0V257l.15,0,.19-.45-.19,0,0,0,.14,0,.46-1.2,0,0,.39-.93-.12-.05v-.05h0l0,0,.19,0,.05-.12L438,254l-.24-.1,0,0,.22.07.74.17.05-.17.26.05-.93,2.25,0,0-.12.33,0,.05,0,0-.15.46h0l0,.07-.09.33,0,0v0l-.14.36v0l0,.07-.05.15,0,.07-.19,0,0,0,.12-.41h0l-.07.31v0h0v0h-.07l0-.17.08-.19,0,0h-.05l-.33-.07,0,0,.39.07v0h0l.05,0h0v0l.1-.26-.43-.1,0,.05,0,0,0,0-.09,0,0,.05-.24-.07,0-.07.07,0,0-.05-.08,0,0,0-.1,0,0-.12.74.17,0,.12h.05l.17-.46-.15,0,0,0,0,0h0l0,0h-.53l-.22,0-.24,0h-.17l-.16,0-.17,0v-.12h-.07l-.08,0h-.09l0,0h0l0,0,0,0,0,0,0,0,0,0-.08,0h-.09l-.1,0-.09,0-.08,0-.07.05-.05.05-.07.07,0,.05,0,.07.1,0,.46-.1v-.05l.19,0,0,0,.07,0v.05l-.36.07,0,0-.12,0v0l-.15,0-.26.05,0,.07,0,.09,0,.05.05.07.07.05.07.07.1,0,.07,0,.1,0,.09,0h0l.14,0,.12,0,.12,0,.05.05.05,0v0l.07.07.07.07.05.1v.09l0,.1,0,.1,0,.07,0,.09v.17l0,.1,0,.07-.07.1-.05.07H436l0,0h0l-.08,0h-.09l-.07,0-.1,0h-.19l-.1,0-.09,0-.08,0h-.19l-.07,0-.1,0-.07,0-.12,0-.14.05-.12,0-.15,0h-.28l-.15,0-.14,0-.15,0-.12,0-.16-.33-.17-.63,0,0v0l0,0,0,0h0l-.17-.08-.14-.07-.17-.09h0l0,0v0l0,0v0h0v0l0-.05,0,0v0l0,0v0l0,0h-.05l0,0h-.89l-.12,0-.1,0h0v0h0v0l0,0,0,0,0,0h0l0,0v0l0,0v.05l0,0v.08l0,0-.05,0-.05.05-.05,0,0,0h-.2l0,0h0l0,0v-.05h0v0h0l0,0v0h0v0h0l0,0,0,0-.05,0h-.19l-.05,0,0,0,0,0H430l0,0h-.07l-.05,0h-.05l-.05,0,0,0,0,0,0,0,0,0v-.05l0,0,0,0v-.07h-.05v0h-.1l-.05,0h-.07l-.17,0-.16,0L429,258h-.57l-.7,0,0,0v.05l0,0v0l0,0h0v0h0v0l0,0,0,0v0l0,0v.07l0,.05h.12l0,0h0l0,0,0,0,.07-.07.08,0,.07,0,.12,0,.09,0h.2l.09,0h.07l.08,0,.07,0,.07.05.07.05.07,0,0,.08.05,0,0,.08.08.07.07.07.09.07h0l0,0,.05,0h0l.75-.09h0l0,0,0,0,0,.05,0,.1V259l.07,0h0l.08.08,0,.07.1.09v.05l0,.07.05.08.05.07,0,0v.29l.08.12.07.12.07.12.05.1.09.12.08,0,.14.05.1.07,0,0,.05,0,.07.08v.07l.27.43,1-.07v.05l-.94,0,.17.12.19.05.1,0,0,0,0,0v.05l-.05.07-.07.05-.05.07-.05.05,0,.05-.05.09v.1l0,.05,0,.09-.05.12,0,.12,0,.15.07.19.1.1.07,0,.1.08.07,0,.05.08,0,.09v.1l0,.07,0,.07.07.05.74-.26v0l.08,0,0,.05-.86.31,0,.05,0,.07,0,.05,0,.07,0,.09,0,.08,0,.09.05.07.07.1,0,0,0,.07,0,.05,0,0,0,.07,0,.08v.14l.14,0,.1,0h0l0,.05h0l-.12,0-.12,0,.07.38.05.36.29.48.77-.09,0,0-.77.1,0,0,0,0h.07l0,0,0,0v.07l0,0,0,0v.15l.44-.08,0,0,.14,0v0l.12,0v0l-.12,0v0l-.14,0v0l-.43.05,0,.22-.14.64-1.25.48,0,0-.05.07h-.1l0,0,0,0-.08.08L432,268l-.12,0h-.1l-.07.05-.07.05-.12.09-.14.15-.1.12-.1.14-.12.1,0,.14L431,269v.08l.05,0,0,.08v0l0,0,0,0-.05,0-.09.1-.07.09-.05.12v.07l.05.1,0,.19,0,.22v.21l0,.17,0,.17,0,.19,0,.19.05.12.07.12.12.08.07,0,.05.08v0l-.07.08v.12l0,.16.07.22.07.19.05.15.14,0,.1.1.07.05.07,0,.1,0,.14,0h.1l0,0,.1,0h.07l.05.05v.05l-.07.05h-.24l-.07,0-.12,0-.2,0-.16.05-.1.05,0,0,0,.1v.09l0,.12,0,.08,0,.07h.51l.07,0h.14l.05,0,0,0-.05.05H432l-.17,0-.19.05-.12.05,0,0-.08.07,0,.12,0,.15v.14l0,.1.1.07,0,0,0,.07v.08l0,.09-.07.1v.12l-.05.12,0,.14.08.15,0,0,.08,0h.09l.14,0h.1l.12,0h.05l0,0v0l-.07,0-.12,0-.19,0-.19,0,0,0,0,0v.08l0,.14v.1l0,.14,0,.1v.09l0,.1.16,0,0,0-.17,0,.07.41.07.12.05.07.05.05,0,.05.05.05h0l0,0h.1l0,.05,0,0,0,0-.07.05-.05.07v0l0,.1v.09l0,.15,0,.12,0,.12v.09l.05.1.07.09.05.08,0,0v0l0,.07.07.12.05.12.09.26v.05l0,.05,0,.1,0,.07,0,.07.07.05.05,0,.05,0v0l0,.05v.14l0,.07,0,.12.07.15.08.09.07.08.07,0,.05,0,0,0h0l0,0h.05l0,0v0l0,0,0,0-.05,0h-.05v.07l0,.05,0,.05,0,.07.05.05.05.05h0l0,0h0v.05l0,0v.15l0,.09v.1l.07.14,0,.15.05,0,.62-.29.05.07-.65.27.12.29.1,0,.05,0,.07.05.07.05.05.07.05.05,0,0,.72-.33v0l.34-.17,0,.05-.33.17v0l-.72.36h0l.05.07.05.07.05.05h0l.05,0h.07l.05,0v.09l0,0,0,0v.1l.8-.36v0l-.77.36,0,.05.07.1.14.09.07.07.12.05.08,0,0,0h.05l.07.05,0,.07,0,0,.05,0,.05,0v0l0,.05-.07.1.29-.15.07.07-.09,0,0,0-.26.12v.1l.05.14,0,.08.12,0,.1.08,0,0,.2-.09,0,0-.22.1,0,0,0,.05,0,.1,0,.07.05.05.07,0,.05,0,.05,0,0,0,.07-.05h.1l0,0,0,.05v0l-.05.05h-.07l-.05,0-.05.05,0,.07v.05l.05.07,0,.1.09.12.1.07.07.05.1,0,.07,0h.09l.08,0,.09-.05.1,0h.07l.05,0,0,0,0,.07,0,0-.05.05-.07,0-.1,0-.07,0h-.05l0,.05,0,.05h.12l0-.05h.05v.05l0,0-.1.05-.05.05,0,0,.07.05h.1l.09-.05h.07l.1,0,0,0,.05.05.07.09,0,.07v.08h0l0,0,0,.08-.05,0,0,.08.05,0,.07.08.08.07.6,0,.57,0,.6,0h1.18l.57,0,.6,0,.58,0H442l0,0h0l0,0,0,0,0,0v.17l0,.1,0,.12v.05l0,0v.05l-.05.05,0,0-.05.05-.05,0,0,0-.1-.05-.07-.05-.07-.07-.08-.07,0-.08-1.32,0v.24l1.39,0v.05H442v0h-.41v0l-2.68,0v-.05l1.29,0v-.24h-.55l-.19,0h-.14l-.17,0-.17,0-.17,0-.17,0-.14.05-.17.05-.14.05-.17,0-.17,0-.17,0h-.19l-.05,0,0,0-.05,0,0,0v0l0,0V287l0,0v.07l0,.07.05.05.05,0-.27.14-.24.12-.24.15-.26.14-.1.05-.07.05-.09.07-.08.07-.07.1,0,0-.05.1-.07.05-.1.07-.09.05-.1,0-.1,0,0,0-.05,0-.05,0-.05,0,0,0v.05l0,0v0l0,.05,0,0,0,0,0,0,0,.05.07,0,.05,0,.05.05,0,0,.05.05v.17l0,0,0,0,0,.07.76-.09v0l.63-.07v.05l-.6.07h0l-.76.1-.05.05-.05.07-.07.05-.07,0h-.08l0,0-.08.05,0,0,0,0,0,.05,0,.07v.09l0,.1.05.07,0,.1.05.07.91-.36,0,0-.91.36,0,.08.07,0,.05,0,0,.05,0,0,0,0v.15l0,.05,0,.07,0,.07,0,.07.08.07.09.08.12,0h.05l.12,0,.14,0,.12.05.15,0,.53-.16v0l.12,0,0,0,1.44-.5,0,0-1.34.51,0,0-.1.05,0,0-.12,0v0l-.48.12.08,0,0,0,.05.05.07,0,0,.05.05.05,0,.05v.12l0,.07-.05,0-.07.07-.09.05-.22.09-.22.12-.21.1-.39.12-.36.14v.2l0,.12.05.09,0,.1.08.09.07.07.09.1.1.07.89.05.12-.29.21,0,.05,0,.07-.05.08-.05.09,0L437,293l.08-.05,0-.05,0,0,0-.08v-.12l0-.07,0-.09,0-.1v-.1l0-.09,0,0,0,0h0l0,0h.07l.07,0,.07.08.05.07,0,.05.08.09.09.1.1.07.09.07.12.07.12.05.12.05.15,0,.14,0,.1,0h.31l.07,0,.05-.05,0,0,.05-.05,0-.05.12-.07-.1-.19.05,0,.09.17.2-.05h.09l.1,0,.12,0,.07,0,.05,0,0,0v-.05l0-.07v-.12l0,0v0h0l0,0,.05,0,0,.08.08,0,0,0,0-.05.07-.1.12-.07.12-.07-.05-.41h.15l0,.36.12,0,.08,0,.21-.07.1-.05.09,0,.08-.05.07-.1,0-.07,0-.05h.07l.07,0h.08l.19,0,.26-.07.17-.07.22-.07,0,0,.15-.17.24-.21.14-.07.07-.08.12-.09.05-.15,0-.16,0-.05.15,0,.19,0,.17.08.17,0,.14-.05.19-.05h.22l.07,0,.07.05.19,0h.34l.14,0,0-.07h.07l0,.07.12,0h.09l.15,0,0-.09,0-.07.07,0,.05.05v.07l.12.05.09.07.1.07.1.08.09.07.07.14.08.1.07.07H447l.09.05.15,0,.07.05v.05l0,.07,0,.12.1.12.07.17.1.14,0,.1v.09l0,.12,0,.15,0,.09.07.08.05,0H448l.05.05v.05l-.12,0-.15,0,0,.05-.05.09v.12l0,.12.1.1.09,0,.1,0h.1l0,0,0,0,0,.05H448l-.21,0-.05,0-.07.12,0,.12,0,.17.05.12.07.05.09,0h.1l.1,0,.09,0,0,0v.05l-.08,0-.12,0,0,0h-.1l-.05.09,0,.1.05.19,0,.17.12.14.05,0,.09.05.15-.05.14,0,.15,0,0,.07-.12.05-.12.05-.14,0-.1.12,0,0,0,.07.07.17.1.19.14.1.15-.05.17,0,.14,0h.14l0,.05-.12,0-.12.05-.12,0-.07.07,0,.08v.14l0,.1.17.31.07.17.05.09.31.65.07.24v.17l0,.21-.1.1-.1.1,0,1.05.45,1.13,0,0,.4.46.44.43.26.29.79.79.19.19.17.15.22.16.19.15.22.17.24.12.21.14.27.12.24.1,0,0,.2.05h.21l.19,0h.8l.09-.07.05-.12,0-.07v-.07l0-.05,0-.05,0-.07.1,0,.09,0,.15.05.07,0,.05,0,0,0,.1-.05.21,0,.05,0v.14l.12.1.07.05.1.05.12,0,.16.07.2.05.19.05.17.05.19.07.17.09.12,0,.12,0,0,0h.17l.19,0,.2.1.16.12.05.07v0l0,.12v.27l.09.05.17.09.17.1.17.07.16.05.2.07.21.07.15.07.21.05.19.07.22.08.19.07,1.47.55.14,0,.14,0,.17,0h.07l.05,0,.07,0,.05,0,.07.05.12.21.08.05.14.05.19.05.19,0,.1,0,.33,1.15,0,.15-.1.07-.48.36-.69-.31-.91.41-.68-.15-1.6,1.9-.29.74-.65.29-.74.17-.34.38-.36.5-.24.56-.5.12.38.55.17.21.09,0,0,.07-.09.05h0l0,0-.27-.36-.36-.5-.41.1h-.09l-.1,0-.07,0-.09,0-.08.05-.07,0,0,.05-.12.1-.12.07-.14.07-.14.05-.15,0-.14,0-.17,0H454l-.17,0-.14-.05-.15,0,0,0-.05,0,0,0h-.07l0,0,0,0,0,0h-.1l0,0,0,0,0-.05,0-.05v-.05l.16-.38.05-.12-.17-.07-.21.29-.07,0,.28-.41-.12-.09,0-.05-.12-.12-.05,0-.09-.12-.05,0-.12-.12-.05-.05,0,0-.32-.31-.12-.1,0,0-.17.09,0,0,.07,0,.22-.15.07,0h0l-.14.09.12.12.36.36.09.08.05,0,0,.05.09.07,0,.05.09.07.05.05.17.17.07,0-.1.15.2.05.07-.2.14-.14.15,0,.07-.07.05-.17-.2-.05,0,0-.19,0,0,0,.15,0,.24,0,0-.07-.14,0-.1,0v0l-.17-.05v0l-.12-.12-.07-.08-.05,0-.07-.08,0,0-.1-.1v0l-.46-.5-.14,0,0,0,0,0,0,0-.17-.14,0,0,0,0h0l0,0,0,0-.07-.05-.22-.21-.09-.08h-.05l-.12.08.17-.12.29.26,0,0,.08.05,0,0,.08.08,0,0,.12.1.12,0,.08.07.09.1.05.05.05.07,0,0,.07,0v0l.08.07.07.07.07.07v0l.07,0v0l.07.07h0l.05.07h0l0,.07v0l.07,0,.12,0,.12,0,.12,0,0-.22-.55-.79-.07-.07-.58-.53-.5-.5h-.24l-.07,0,0,0-.07,0-.07-.07.07-.05,0,0,.05,0,0,0,0-.15-.07-.12-.12-.21-.22-.26-.05,0-.05-.12-.07-.09-.05-.08-.07-.07-.07-.07-.1-.05,0-.07-.05-.07-.07-.07-.08-.05,0,0,0,0,0,0v0l0,0,0-.07-.05-.08,0,0-.07-.05-.1-.05-.07,0-1-.48-.2-.05-.4-.43-.15,0-.24-.41-.21-.19-.05,0,0,0,.08.12.4.65.12.14.15.14.07.05,0,0,.09.07.08,0h0l.05.05,0,0,.07,0,0,0,.07,0,0,0,0,0,0,0,.07.05.05,0,0,.05,0,0,.09.05.05.05.05,0,0,0,.08,0,.09.07H450l.05,0,.17.14.36.36,0,0,0,0,.12.12.05.05,0,0,.1.09,0,0,.07.07v0l.34.34.14.16v0l0,0-.22.1,0,0,.16-.09-.09-.1,0,0-.07-.07,0,0-.05-.07,0,0-.1-.07,0,0-.29-.31-.1-.09,0,0-.07-.09,0,0-.09-.09,0,0-.07-.09-.05,0-.07-.07,0,0-.1-.08-.05,0,0,0-.07,0-.2-.12,0,0-.1-.07,0,0-.1-.08,0,0-.08,0-.21-.17,0,0,0,0-.24-.17-.08-.05-.21-.19-.19-.19-.12-.19,0-.05,0,0-.05-.08v0l-.05-.05v0l-.05-.05,0-.07,0,0,0-.07,0,0,0-.1-.17.05,0-.05.24-.07,0-.07-.55.17.07.14.05.1.09.16h0v0l0,.07v0l0,.08.05.09h0l.05.1.12.19v0l.05.08.05.09h0l-.29-.48-.31-.55-.07-.14h0l-.17,0,.19.56.24.33,0,0,0,.07.24.5.07,0v-.07l.32.07,0,.05-.26,0-.1,0,0,.12.38.38,1.27.6.1.33,0,.1,0,.05.19.05.12.07-.12.12,0,.05-.07.09,0,.07.07.05.12.1.05,0,0,.1,0,.07.05.12v.17l0,.6,0,0,0,.07,0,.05,0,.05v.12l0,.05.05,0v0l0,0v.1l0,0,0,.05V312l0,0,.19.21-.05.17.14.5.41.36v.05l0,.05v.07l0,0,0,0,0,.08v.19l0,.07.05.1,0,.07,0,.07.07.07.1.07.1,0,.09.05.34-.17,0,0,0,0,.05,0,0,0,0,0,0,.05h0l.05,0,.53-.19.05.1.26-.07.34.38.48.53.12.07.21.53.12.65.43.57.63.46.38.4.07,0,.1,0h.1l.09,0,0,0v0l0,0v0l0,0h0l1.1-.89.22-.17.33.2.27-.22,0,0-.24.22-.19.17-.38.6,2.35.74,2.73.22,4.85,2.16,3.48,1.56.14,0,.12.05,2.31,1,1,0,.1,0,.12,0,.09,0,.1-.05.07,0,.07-.05.07-.07,0,0,.05-.05,0,0v-.05l0-.05,0,0v0l0-.05,0,0-.05-.05,0,0-.05,0-.07,0-.07,0-.07,0-.05-.07-.07-.05,0,0v0l0,0,0,0,0,0,0,0h0l0,0h.07l.24.1.26.07.24.07.27.05.07.17.07.14,0,.17,0,.17,0,.16v.34l0,.17.56.45.28.53.24.43.08.43,0,.2-.14.57-.24.46-.48.45-.17.12-.65.39-1,.21-.17,0h-.39l-.14,0-.12,0-.17.09-.14.1-.19-.1-.22,0-.19-.07-.22,0-.24,0-.24,0-.21,0h-.48l-.22-.12-.12-.19-.12,0-.14-.09-.48-.34v-.34l-.89-.28-.48-.63-.22-.21-.21-.22-.24-.21-.24-.2-.27-.19-.26-.19-.26-.19h-.12l-.29.43-.31-.14-.05.07-.51-.24.24-.31-.26,0-.89-.09-.21-.08-1.32-.55-1.63-.81-3-2.14-1.34-.65-.24-.17v-.07l-.12-.07-.12-.05-.14-.07-.15,0-.14,0-.15,0-.21,0-.29-.08-.33,0-.34,0-.31.05-.24.07-.31.17-.29.12-.24.12-.19.07-.15.08-.05.07-.07.12v.07l0,.05,0,0,0,0,0,0-.05,0,0,0h-.22l0,0-.1-.09-.05-.1,0-.09,0-.1-.15-.14-.31-.24-.34-.24-.28-.22L451,319l-.29-.17,0,0,0,0-.08.07-.09-.05.07-.07h0l.05,0-.31-.2-.24-.14-.29-.14-.26-.15-.31-.14-.32-.15-.31-.12-.69-.48-.91-.59-.2-.27-.19-.26-.19-.27-.22-.26-.26-.26-.24-.27-.19-.19-.22-.19-.19-.17-.31-.24-.29-.24-.34-.22-.31-.21-.33-.19-.36-.2-.34-.19-.34-.17-.33-.14-.12-.05-.15,0-.16-.05h-.32l-.14,0-.12,0-.17.05-.14.31-.19,0v0l0-.05,0,0,0-.05,0,0-.05,0h-.05l-.05,0h-.05l0,0h-.15l-.07,0-.05,0,0,0,0-.05,0,0-.05,0-.16-.05-.15,0h-.09l-.12,0h0l-.17,0H439l-.07,0,0,.08-.05,0,0,.08h0l-.05,0,0,0-.05,0-.05-.05-.09,0-.12,0h-.17l-.17,0-.14,0h-.12l-.12-.05-.12,0-.1,0h-.14l-.15,0-.09-.07-.15-.07-.09,0-.15-.05-.14-.05-.36-.07-.24-.05,0,.05-.12.07h-.07l.05-.07-.05,0-.69-.29-.15,0-.12,0h-.48l-.05,1h.15v.05h-.12l-.05,0h-.05l0,0,0-.05H434v0h.21l0-1h-.39l-.26-.05h-.29l-.55.05-.31,0-.27,0-.17-.1-.19-.33-.57-.15h-.48l-.34.07-.12.17-.21.05-.68.12-.16.07h-.05l0,.34h0l0-.34-.09,0-.27,0-.31,0-.21,0h0l0,.24,0,0V312h0l0,.09h-.07l0-.09h0v-.08l0,0,0-.24-.14,0-.08,0v.07l-.07,0-.05,0-.09,0-.43,0-.15,0-.36,0-.33.07-.41.09-.36.1-.17,0-.17.05-.19,0-.24,0-.14.1-.2.07-.09.07-.05.12,0,.2-.51,0,0-.21-.12-.1h-.14l.12.31h.07l.07.12-.1,0,.05.09h0l.24.46.05,0,0,0-1.44.39,0,0,1.32-.38-.17-.34-1.22.32,0,0,1.22-.33-.05-.08,0-.07h-.1l0-.12,0,0-.09-.34-.43.05-.22,0h-.17l-.12,0-.09,0-.1,0,0,0v.05h0v.05h0l0,0-.07,0h-.05l-.05,0h-.09l0,0-.12.05.09.19h0l-.17-.24-.19,0-.12.09,0,0,.08.14-.05,0-.12-.2-.36.05-.24.07,0,.12-.07,0-.07-.1-.19,0,.26.5-.07,0-.17-.31,0,0-.09-.19-.58.14-.14.12-.22,0h-.09l-.15.05-.17,0-.16,0-.12,0-.15,0-.12,0-.09.08v0l0,.08v0l0,0,0,0h-.05l0,0-.05-.09h-.12l-.17,0-.17,0-.12,0-.36.1-.29.1-.26.09-.34.17-.79.22.43.69h0l-.08-.12-.09-.05,0-.07-.29-.43-.11.05-.17,0,.55.74h0l.07.12-.07,0-.07-.12h0l-.55-.74-.24.1-.16.07.5.74-.05,0L415,315l-.14.05-.1,0,.41.74,0,0,.12.24,0,0-.56-1-.09.05-.07,0,.31.53-.05,0,.05.1h0l.15.26H415l-.14-.24h0l0-.09h0l-.12-.2.05,0-.22-.34-.19.08.27.48-.05,0-.27-.48-.07,0-.05,0-.07.05-.05,0,0,.17-.05,0,0,0h-.26l-.31-.08-.34,0-.33-.05-.32-.05-.33,0-.34,0-.33,0H411l-.34,0-.34,0-.33,0-.31,0-.34.08-.34.07-.31.07-.31.1-.31.12-.29.12-.31.12-.26.14-.29.14-.27.17-.26.17-.26.22-.29.21-.27.22-.26.24-.24.24-.24.24-.22.26-.19.24-.19.26-.19.29-.53,1.73-.05.19-.05.17,0,.19v.39l0,.19.05.17.05.19.07.19.07.17.1.17.12.16.12.17.12.17.14.14.17.15,0,.86.44,1.7-.36.24,0,.17-.12,0-.45,0h-.94l-.46,0-.45,0-.46,0-.45-.05-.46-.07-.46-.08-.45-.09-.43-.1-.43-.12-.44-.12-.43-.14-1-.39-.93-.26-.43-.12-.41-.09-.22-.08-.21-.09-.19-.12-.15-.1-.14-.07-1-1.32,0,0,0-.05,0,0,0-.05v-.1l0-.05,0,0,0-.22,0-.22v-.24l-.05-.21,0-.22-.08-.21-.09-.22-.1-.22-.09-.19-.15-.19-.17-.14-.07-.2,0-.09v-.1l-.15-.26-.09-.19-.1-.2-.14-.24-.15-.16-.14-.36-.19-.17-.17-.22-.19-.36-.15-.29-.12-.21-.21-.24-.17-.29-.14-.29-.2-.26-.19-.26-.05-.2-.14-.26-.17-.12-.14-.19-.07-.22v-.21l0-.24.05-.34-.05-.26-.07-.24-.12-.15,0-.14,0-.1.05-.17,0,0,.07-.17.1-.17v-.17l0-.14v0l-.05-.14.09-.26.2-.22,0-.07.2-.29.16-.12.08-.12,0-.05.05,0,.17-.12.14-.1.07-.17,0-.12v-.24l.12-.19,0-.29.07-1.19-.14-.34,0-.38.12-.39-.12-.29-.05-.07-.07-.09,0-.08-.05-.09,0-.1,0-.09,0-.1,0-.1v-.09l0-.07,0-.08-.05-.07-.07-.07-.07-.05-.07,0-.1,0-.09-.22-.12-.19-.1-.22-.07-.21.21-.63,0-.12,0-.09v-.24l0-.1.05-.1,0-.12.07-.09.09-.07.1-.1.1-.07,1.05-1.25.51-.19.24-.91.16-.12-.21-.27-.43-.09,0-.31.1-.32v-.93l.07-.75,0-.36-.05-.33-.07-.75.17-.14.05-.17-.05-.14-.14,0-.15,0,0-.12,0,0,.05-.07-.09,0,0-.2v-.31l-.12-.14-.17-.19h-.07l-.34-.08-.09-.16-.05-.05,0-.07.1-.15-.07-.09.09-.08-.24-.28-.07-.46,0-.19v-.1l-.12-.19-.1-.24-.07-.05-.07,0-.1,0-.07,0h-.07l-.08,0-.07,0-.07,0-.05-.05-.05-.05v-.17l-.24-.62-.69-1.22-.36-.6-.38-.6-.08-.34-.31-.72-.24-.34-.38-.72-.39-.76-.07-.12-.12-.17-.12-.24-.24-.39,0,0v-.08l-.07-.33,0-.07v-.1l0-.17,0-.21,0-.27.17-1.32.55-1.39,0-.14,1.82-1.8.17-.07.86-.72,1.42-1.37.43-.31.34-.39.19-.38.05-.14,0-.22,0-.26,0-.27-.09-.29-.07-.26,0-.26v-.24l0-.27,0-.24,0-.24-.1-.24,0-.26,0-.24-.07-.27,0-.33-.17-1.13,0-.31.07-.63-.14-.16.09-.34-.05-.34-.07-.43V269l.12-.36,0-.05.07-.31,0-.45-.31-.15h-.39l-.24-1.32-1,.08,0,.55.1.12.1.12v.09l0,.12.07.15h.15l0-.15,0,0,0,.19-.14,0,0,.14-.07.22-.05,0,.32.55-.08.07.12.6,0,.15h.12l0-.15h0l0,.39h0v-.17H390l0,.33,0,.63.05.41.07.19,0,.21-.05.15.05.45,0,.53.17,0-.05-.29h0l.07.26h0v.08h0v-.05h0l0,.09h0l-.26,0v.07l.19,0v0l-.19,0v.08h.16v0h-.16l0,.1.07,0,0,0-.1,0,0,.12.24,0-.07-.41h0l.12.6,0,.07h0l0-.05,0-.17-.24,0v.07l.24,0v0l-.24,0,0,.1.17,0v0l-.17,0v0l0,0,.22,0,.1,0v0l-.15,0,0,.12.14,0v.05h-.12v0h.17v0l-.17,0,0,.09.15,0,0,0-.14,0,0,.09.15,0v0l-.12,0,0,.09.12,0v0l-.14,0,0,.09.14,0v0l-.14,0,0,.09.15,0v0l-.17,0,.05.09h.12v0l.07,0v.05h-.07v0l-.12,0,0,.1h.12v0h-.09v.1l.12,0,0,.05-.26,0v.05l.24,0v0l-.24.05,0,0,.22,0,0,0-.24,0v.05l.24,0,0,.12h.05l0,.09h-.15v0l-.17,0v.12l.1.22-.07.24,0,.31-.31.58,0,.07-.24.62-.46.48-1,.77-.67.55-1.2,1-.7.31-.21.44-.34.31-.17.21-.21.32.09.12-.41,1.1-.19,0-.07.15,0,.09h.14l-.05.36-.09-.07.12.87v.64l.07.17.07.24.07.12,0,.1,0,.07.22.36.07.09.07.41,0,.22.07.19.07.1,0,.26v.12l.1.07,0,.19.26.34.41,1.13.1,0,.55,1.35-.07,0,.65,1.06,0,.12.17.31.12.14.21.51.1.33,0,.17.24.15.51,1,.21.43.05.14V295l-.07.05.09.14.51,1,0,.21.17.2,0,.21.12.12-.05.12.12.34.14.29V298l-.12.48.07.26,0,.19-.19.17,0,.19-.09.12v.19l-.07.32.07.16.14.1-.05.41-.26.21-.17,0-.07.05.1.12-.08.09,0,.1-.14.07-.27.07-.17,0-.14.14-.19.05,0,.17h-.14l-.22.21-.21.08-.15,0h-.07l0,0-.08,0-.12.15-.26.19-.24.05-.31.09-.07,0,0,0-.07.08-.24.55,0,.33.07.36-.48,1-.75,1-.16.36-.29.29,0,.33-.19.17,0,.38-.48.63-.24.38-.27.27-.07.31-.41.76-.17.34-.12.31v.24l-.36,1-.24.39-.21.38-.19.38-.2.41-.16.36-.15.39-.14.36-.15.38-.11.19-.15.05-.17,0-.52.31-.17.26-.1.19-.19.53-.26.6-1.25.27-.53-.1-.48-.55-.19-.67-.1-.12-.12-.17-.89-1.78-1-.77-1.08-.57-1.15-.43-.26-.08-.36-.09-.19-.43-.15-.17-1.72-.65h-.34l-.34-.07-.36.09-.43,0,.07-.22.24-.07V310l-.31.08L368,310h-.14l-.31.14-.27-.24h-.12l.22.17.07.24h.34l0,.17.05.12-.05.12.1.09-.07.17-.55.14,0,0,0,0,0,.16.12.05-.07.05-.12,0-.67.12-.65-.07-1.05-.38-.87-.41-.19-.17-.33-.31-.29-.07-.12.21.12.22.45.17.6.38.48.22.55.14.46.12.67.17.19,0,.22,0,.19-.05.19-.07.17-.05.12,0,.12-.08.05,0,.07,0,.1-.05h.07l.1,0h.14l.72,0,.26.09.34.05.41.1.21.07.29,0,.27.12.26.09.29.19.29.2.26.19.1.07.12.05.12.07.12.05.09,0,.19.07.2.08.19.09.19.12.17.1.16.12.15.14.14.12.15.15.12.14.09.17.1.14,0,.15v.09l0,.15-.05.12-.05.12,0,.12-.05.07-.07.17-.05.09-.07.07-.12.12-.05.1,0,.1,0,.09.14.12.07.07.08.1,0,.12.05.12-.05.12-.1.14-.09.12-.1.1-.09.12-.08.12,0,.17,0,.12,0,.12-.09.07-.12.07-.12.1-.1.09-.05.1,0,.05V318l0,.19-.07.12-.08.17.27,0v.05h-.05v0l-.17,0v0h-.07l-.17.65.31,0v0l-.33.05v0l0,.05,0,.05,0,.07,0,.05,0,0,0,.1v.07l0,.05v.14l.38-.07,0,.07-.38.08v.19l.7-.05v.05l-.7.05v0l0,.05v.12l0,.09,0,0,.05.05,0,.1.05.14.14.05.05.07v0l0,.05,0,0,.05,0,.05.05,0,0,.07,0,.77-.17v0l.72-.17.07.17-.72.19v0l-.7.14.12,0,0,.14.09.12.2.07.31.12.24.1.31.14.24.15.22.14.19.17.07.26.07.32.07.31-.12.31-.07.26,0,.29.16.22.29.19.24.05.24.05.36.12.17.14.05.36.05.45-.08.22-.24.29-.4.29-.32.14-.31,0-.26.08-.27.12-.07.07-.07.09-.1-.07v-.21l-.07-.08h-.09l-.08.1v.1l0,0-.08,0h-.07l-.05,0-.09,0-.1-.12,0-.08,0,0-.09-.1-.07-.07-.22-.05,0,.67h-.16l0-.69h-.17l-.14,0-.17,0h-.19l-.29.05-.14.36,0,.14-.08.19v.05l0,.1,0,.09-.1,0h-.29l-.48.07h-.48l-.45,0-.15-.07-.09-.05-.27-.07h-1l-.52,0-.39,0-2.47.17h-.24l-.14,0-.24-.07-.43,0h-.36l-.41,0-.22,0h0l-.36.07-.39,0-.43-.07-.33-.12-.34-.15-.34-.14-.33-.15,0,0,.07-.12.12,0h.2l.21.1.17.09.22.1.21.1.19.07h.22l.12-.05.1-.14,0-.17v-.15l-.05-.16-.19-.1-.31-.07-.26-.15-.15-.07h-.29l-.16.05-.22,0h0l-.2,0-.21,0-.19,0-.12,0-.17-.05-.15,0h-.14l-.07,0,.05.09.16.1.22.1.12,0,.19.1.12,0,.12.08v.07l-.07,0-.19.05-1.9-.84-.36-.12-.26-.17-.24-.14-.24-.12-.31-.14-.27-.17-.05,0v-.07l.08,0,.07,0,.09,0,.05,0,.07,0,.08,0,.07.08.09,0,.05.05h.07l0-.07.05-.1,0-.05.05,0h.09l.1,0v-.12l-.07-.08-.05-.07,0-.07,0-.1,0-.07v-.19l-.05,0-.07,0-.08-.05,0-.09,0-.1,0-.1v-.07l-.07-.05-.1,0h-.48l-.07,0-.12.07-.05.05,0,.07,0,.1,0,.05,0,.07,0,.07.05.07v0l.09.09.05.1,0,.09.05.1.05.1.07.07v.05l0,0-.08,0,0,0h-.07l-.07-.07-.19-.27-.12-.19-.12-.26-.1-.22-.1-.24v-.46l0-.33-.05-.31,0-.24v-.15l0-.05.1,0,.1.05v.33l0,.2,0,.16v.2l0,.14.07.14.15,0,.16,0,.27,0,.29,0,.16-.84.27-1.4.05-.26-.41-1-.27-.67-.31-1.82-.07.14,0,.17-.05.09-.07.12-.12.05h-.29l-.26.07-.15.15-.21,0-.27.12-.53.24,0,0,.05,0,.09.08v0H355l.07,0,.07.07v.05l.1.05.14.16.08,0,0,.05,0,0,.1,0v.05l.07,0,.17.22.09,0h.27v.1l-.05.05-.05,0-.05,0,.05.24.05.22,0,.24,0,.24,0,.22v0h0v0h0v0H356l0,0,0,0,0-.26-.05-.24-.09-.27-.1-.24-.07-.17-.07-.14-.1-.14-.12-.15-.12-.12-.14-.12-.15-.12-.14-.12-.17-.09-.17-.1-.19-.07-.17-.07-.21-.08-.19,0-.2-.05-2.44-.46-.63-.12-3-.45-5.67-.53-1.8-2.21L338,311.9l-1.77-1.85-.89-.43-.75-.34-8.35-2.11-.19.74-.17.56,2.64.88,1.3.41,3.43,1.32.17-.14.12.09-.19.12.43.31.17-.12.09.1-.17.1.1.07.48.48.26.09,1.2,1.92.7.12.17,1.08-.15.39,4.25,7.82-.62,1.42L338,328.07,335,332l-.16-.07-.15.19.17.08-.26.36-1.11.45-.09,0-.36.14-.1.05-.81.28-.68.27-1.94-.24-.1-.48-.93-.24-1-.1-.12.65-3.87-.41.12-.6h.17l0-.09-.12-.6-.05-.24-.1-.29-.07-.34-.12-.16-.36-.1-.53-.05-.31-.07-.5,0-.24,0-.29,0-.19,0h-.24l-.27,0h-.24l-.21.08h-.2l-.24.09-.26.07-.34.08-.26,0-.26.05h-.2l-.24,0-.19,0h-.19l-.29.08-.21,0-.2,0-.16,0h-.05l-.22.05-.24,0h-.21l0,.15-.14,0-.05-.14-.1,0-.28,0-.22,0-.14,0-.17.05-.24.05-.58.07-.26.05-.22.07-.05,0h0l-.05,0,0,0,0,0,0,0-.05.12.31.07,0,0,.05,0h.1l0,.07V332l-.07,0h-.1l0-.07,0,0-.31-.07-.05.09-1.85-.38-.17-.22-.19-.05,0,0-.07,0h-.1l-.05-.09,0-.05.09,0,.07,0,.05.05v0l.19.05-.19-.24-.6-.29-.31-.19-.22-.22-.16-.26-.12-.17-.05-.05-.12-.17-.19-.14-.24-.14-.12-.08-.41-.26-.22-.17-.4-.31-.34-.24-.19-.29.24-.12-.17-.19-.1-.14-.24-.05-.31-.36.15-.1-.58-.57-1.1.36-.29-.12-.24-.17-.29-.12-.17-.17-.19-.14-.17-.32.05-.36.22-.16,0-.22,0-.07-.6.72v0l-.72.89,0,.05-.26-.12,1.34-1.68-.31.19-.19-.07-.17-.05h-.1l-.07.05-.05.05,0,.07-.07.07-.05.05-.05,0h-.12l-.14,0-.17-.05-.17-.05h0l-.15,0-.14-.1-.12,0-.24,0-.24,0H301l-.46,0-.38,0,0,0,.12.47-.6.08-.33-1.35-.84,0-.43,0,.31,1.19.43-.07.19.7.63.19.24.07,0,0,.22.07.09,0v0l.36.09h.05l0,.07-.05,0-.26-.1-.08,0-.33-.12,0,.12-.24-.07.07-.12-.65-.22-.19-.65h0v0h-.12l-.28.05-.32-1.25-.26,0h-.26l-.2,0-.26-.07-.12.09h-.12l-.17,0h-.14l-.17,0-.19,0-.19,0h-.17l-.1,0h-.21l-.53,0h-.19l.09.33-.26,0-.07-.31h-.15l.22.81-.19,0-.22-.87-.24-1.1-.31,0-.15.24-.16.19h-.08l.15.58.05.14.16.48,0,.08.05.16h-.05l-.05-.16-.12-.17-.09-.43-.1-.24-.12-.41-.24.05.05.19.05.26-.15,0-.14-.32v-.14l-.24.05.05.21,0,.17.1.41.14.41-.14,0-.12-.36-.12-.43-.17-.41L292,324l0,.1,0,.16v.15l-.08.05h-.19l-.77.09-.52,0,0,0-.05,0-.05.09h-.14l-.1-.07-.14-.24-.19,0,0,.36.1.36-.12,0-.1-.36-.16-.36h-.22l0,.1.05.31h-.14l-.1-.27,0-.12-.24,0,0,.14,0,.27.19.69-.1,0-.24-.67-.17-.4-.09,0-.12,0,0,.09V325l0,.05v.05h0l.05.07.1,0,.12.1,0,.09,0,0v.07l-.1,0,0,0v0l-.08.05.05.05-.07,0-.05,0h0l-.41.19-1.85.36-.21,0,0,.05v0l-.58.12-.33.08-.46.09-.46.17h-.09l-.12,0-.12,0-.48,0-.1,0-.38.05-.48.1h-.46l0,0-.05-.05,0,0,0-.05,0-.07v-.05l0,0h-.05l0,0h0l0,0h0v0l0,.05,0,.07,0,.05v.05l-.07.07-.05.09-.1.17,0,0,0,0-.29.26-.12-.07-.41.24-.28.22.07.07.29,0-.34,0-.26.22.14.14,0,0-.14-.12-.22.17-.07-.05-.14.12,0,.14h0l0-.17-.07,0-.27.07,0,0-.12,0-.07,0-.1.05h0l.14.12-.05,0-.12-.12h0l-.05,0,0,.05-.08.05,0,.05-.08,0,.15.1-.05,0-.14-.09,0,0-.05,0-.12.09.1.1-.14.1-.1-.08-.41.32-.14.12,0,0,0,0-.05,0,0,0,0,.05-.1.1-.07.09-.17.17,0,.05-.09.09-.17.2-.1.09-.05.05,0,.07,0,0,0,.05,0,.07-.05.07-.07,0-.05.05-.12.12-.1.09-.14.17-.09.07,0,.05-.05.05,0,.05-.05.07-.41.38-.43.44-.09-.05-.24.14-.56.55.22.15-.1.09-.24-.12-.24.24-.14.15.1.07.09.05-.12.12-.72.74-.14.14-.15.15-.07.09-.07.1,0,0,0,.05-.05.05,0,0,0,0h-.12l0,0v.05l0,0-.2.17-.24.24-.07.05,0,0-.07,0h-.05l-.1.1.1,0,.12,0,.14.05.15.05.09.05.12.09,0,.05-.19-.09-.1-.05-.17-.05-.09,0-.1,0-.1,0-.12.14.08.05.28.24-.09.1-.27-.15-.14-.09-.12-.05-.17-.07-.09.09-.12.15.09.07.19.12.17.09,0,.08,0,.07V337l-.09.12-1.49,1.12-.84.65-.07,0-.12.1-.1.07-.07,0-.12.08-.07,0,0,.05-.14.22-.14.14-.34.29-.24.17-.26.12-.17.12-.14.17-.17.14h0l-.09.05-.05,0-.12.1-.07.05-.29.12-.26.12-.15.09-.21.1-.12,0h-.34l-.14,0-.12,0h-.1l-.1,0h0l-.14,0h-.2l-.55-.05-.6-.05h-.29l-.48,0-.45,0-2.45-1-1.82-.82-4.59-1.82-.14-.07-.12-.05-.17-.1-.12,0-1.94-1-.36-.31-.6-.81-.29-.58-.65-1.2-.62-.53L247,332l-1-.53-.58-.33-1.15-.24-1.1-.05-4.25.24-.6-.19-1.08-.32.21-.4.34-.48-.22-.12.27-.41-.63-.84-.5,0-.31,0-.17-.05-.24-.33-.67.24-2.3-3.15-.46-.5-.38-.48,0-.22-1.13-.93-1-1.11-.1-.09,0-.05-.08-.07,0-.07-.65-.75-.41-.81-.22-1,.05-.68,0-.5-.41-.1h0l-.05,0,0-.5.16-.15.17-.14v-.38l.22-.15-.1-1,0-.76.26-2.64.07-1,0-.07v-.26l.09-.77,0-.07,0-.48-.08-.12v-.53l0-3.26v-.72l-.07-3.12v-.07l0-.07,0-.1,0-.07-.09-1.49-.07-1.18.12,0,0-.74-.07,0-.08-1,.08-.05,0-.74-.1,0-.05-.77.08,0-.08-.72h-.07l-.09-1,.09,0-.07-.79-.07,0,0-.62v-.12l0-.24v-.17l0-.17,0-.24v-.26l-.34-2.28,0-.53,0-.55-.09-1,0-.12,0-.12L227.4,283l-.17-1.29-.09-.77-.12-.5-.12-2.24L227,278v-.2l.05-.09,0-.17.05-.21,0-.22,0-.22v-.21l.46-2,0-.29.07-.43.24-.84.6-1.39.53-.91.84-1.13.65-1.18.93-1.63.17-.17.1-.12.07-.26,0-.07.07-.05.1-.12.12-.26.07-.05.05-.07,0-.15.12-.38-.07-.39.15-.26,0,0,.89-1.66.48-.89v-.33l.36-.34.31-.6,0-.67,1-2.57.6-.53.26-.6.08-.12,0-.12.32-.24.36-.76,0,0,.08-.05.09,0,.15-.19.07-.12.05-.14,0-.12v0l.05-.07.07-.07,0-.07.09-.07.12-.1.24-.29.15-.19.09-.22v-.09l.05-.17v-.05l0-.12.1-.05,0,0,.1,0,.12-.08.12-.21.07-.1.12-.14.07-.14.19-.24.19-.15.15-.12.14-.07.07-.17.08-.19.14-.14.17-.12,1-1.16,1-1.22.34-.53.41-.84.24-.29.4-.76-.16-.08.74-1,.33-.53,1.32-1.85,1.44-1.77.34.17.36-.34-.26-.31-.05,0,1.25-1.53.74.36.12-.12-.46-.46,0-.19,0-.12.14-.1.17-.07.09-.09,0-.15.5-.6.8-1,.93-1,1.27-1.32.31-.27.63-.69,1-.39.5-.6,1.92-2.09.1-.28,1.53-1.83.12,0,.15-.24-.17-.08.07-.09.05,0,.1,0,0-.05.05-.07,0-.07v0l0-.05.57-.57.12-.1,1.42-1.53,1.12.6.87-1.06-.84-.46,0,0,0,0,.07-.09.07,0,0,0,.36.19-.26-.38,3.07-3.34.62-.84.08-.07.07-.05,0-.07,0-.07.05-.07,0-.07,0-.08v-.24l0-.07.34-.55.55-1.32.33-.82.29-.72.38-1.27.6-2.54.48-.65-.48-1.32.36-.14.46-.67,1.25-.39.48-1.22.67-1.37.29-1.27.45-1.2-.28-1.46v-.08l0,0-.12-.17-.22-.24-1.05-.94-1.23-.84-1.22-1-.77-.5-1.46-.46-2,0-1,1.56-.77.39-4.08,2.13L258,203.35l-.05.05-.07.07-2.57-.15h-.12l-.12,0-.14.05-.36.14-.12,0-.05,0-.1-.1-.14-.07-.12-.05-.17,0-.29,0,0-.05,0,0,0,0-.07,0-1.3-.41-1.22-.63v-.12l-.17,0-.07-.07h-.09l-.1-.07-.07-.08,0,0,0-.05h-.07l-.08-.07-.16-.39-2.31-2.06-.05-.05,0-.05,0,0-.09-.07-.22-.2-.43-.38-.12-.07-.17-.05-.29-.07v0h-.05l-.09,0v0l-.1-.05-.07,0-.17-.14-.09-.08-.12,0-.12,0-.15,0-.14,0-.1,0,0,0-.07,0h-.14l0,0h0l0,0-.5-.07-.07,0-.22-.05H244l0,0h-.14l-.07,0-.05,0,0,0h-.12l0,0h-.19l-.24,0-.31,0,0,0h0v.07l-.07,0-.07,0h-.07l0,.1-.07,0-.09,0-.22,0,1.9-2.5,3.43-7.29.76-1.63.58-1.23.84-1.77.34-.82,1.05-2.85,1.08-2.81.48-1.22.6-1.64.65-1.77.29-.77.31-.72,0-.21-.09-.1-.05-.12.45-.48,1.2-3,.17-.48.24-.79,0-.05v0l0-.05,0,0,.07-.07,2.59-7.06-.07-.19-.34-.21.72-2.21L260,154l.5.05.19-.07.53-1.44,1.75-4.49V148l0,0,0-.05,0-.05-.05,0-.07-.05-.08,0-.07-.07-.05,0v0l0,0v0l0,0v-.05l0,0,0,0,.15-.05.14-.07.17-.05.17,0,.12-.12.55-1.73-.05-.14.07-.1H264l0-.07,0,0,.82-3.29.07-.17.34-1.53.12-.07,0-.1-.07-.12.14-.79.05-.12-.07-.17-.05-.09-.09-.17-.2-.6.29-.63.1,0,.09-.1.1-.07.1-.07.07-.1.05-.1v-.12l0,0,0,0,.05-.15.09-.12.07-.12.1-.12.12-.09.12-.12.1,0,.07,0,.07,0,.07,0,.05,0,.07-.24.58-1.3.38.24,2.78.7,10.56,3.55,3.22.6,1.12.41,3.22,1,1.49.24,1.08.41,7.24,2.16,11.09,3.21.07,0,.1,0,.67.22,1.41.43.2.05,1.12.33,1.78.65,2.69.77,5.42,1.53.34.1.12,0,0,0h.08l.28.09.87.29,1.58.46,1.44.4,1.42.46,1.15.29,2.11.6h0" transform="translate(-226.24 -133.62)" fill-opacity="0" stroke="#0f26a6" stroke-linecap="square" stroke-linejoin="bevel" stroke-width="1.3" fill-rule="evenodd" fill="url(#linear-gradient)"/><path d="M478.18,233h.12v.05l.1.07h.07v.09l0,0,0,0v0l.1.1,0,0,0,.1h.19l.08,0,0,.12,0,.05,0,.51,0,.24,0,.12v.14l.05.14h-.07l0,.1h0l.05.29h0l.91-.15v0l.15,0v0l.24-.05,0,.09-.24.05,0,0h-.15v0l-.91.15,0,.14,0,.07.05.1,0,.07,0,.12,0,.12v.1l-.07,0v.08l0,0-.05,0,0,.12,0,.07,0,.07-.05.08,0,0-.05.05-.05,0v0l0,.08.05.09.05.12.07.07,0,0,0,.07h.05l.07,0h.05l.07,0,0,.07,0,0,0,.09h.07l.05.1,0,0,.09.29,0,.07.07.17h.05l.09.26-.11.5,0,.24-.22.08h0l0,.09.08.07h.07l0,0h.07l.07,0,0,0,0,.07,0,.1v.07l0,.07v.08l0,0-.08.05-.07,0,0,0v.1l0,.09v.07l0,0,0,0,0,.07,0,.07v.1l.1.09,0,0,0,.07.1.19.81-.19v0l.39-.1v0l.17-.08v0l.33-.07,0,.07-.34.07,0,0-.15.05v0l-1.22.31,0,.05.1,0,.12,0,.07.07.67-.14.15,0h.21l.24,0,.22,0,.07,0,.07,0,0,0,.05.05.05.07,0,.1.38-.05v0l-.38.07-.05.08-.09,0-.15.05-.05,0-.16,0-.36.1-.34.1-.1,0-.09.05-.07,0-.05,0,0,.05V242l0,.07.07.09.6.63.77.62.07-.05.1,0,0,0-.1.05h0l-.07,0,.36.28h0l.07,0h.17l.05.05,0,0V244l.32.24.31.29.07.07.07.05.15.09.62.41.38,0,.39.24.07,0,.19,0h.15l.19,0,.12-.05.14-.07.1,0,.14,0h.22l.62-.05.1,0v0l.24,0,0,0-.24,0-.09,0,.5.26.07.15.19-.05,0,.05-.19,0,0,.05.26-.05.41-.1h0l0,.05.12,0,.12-.05h.05l-.05,0-.22.08.15.21-.08.05-.19.1-.33.12-.34.12-.26,0-.39.1-.21.05-.22-.05.15.36.12,0,0,.07-.12,0,.05.07,0,0,0,.05h.31l.09,0,.1.08.07.07.07,0,.08,0v0h0l.29-.1v0l-.19.07-.1,0,0,0h-.12l.09.07v.12l0,0,0,.05,0,0-.15.12-.14.09-.05.08-.05,0,0,.08.07.16v.1l.09.12.1.07.05.1.86,1.1.07.07.05,0,.1,0,.09,0h.1l.07,0,.1,0h.09l.07,0,.05,0,.15.19,1-.46.41.29.22-.14.05,0-.22.15.07.05.22-.15,0,0,.1,0,0,0,.32-.16,0,0,.07-.05h0l.31-.17.05.05-.31.17v0l-.08,0-.31.17v0l-.12,0-.21.14.36.29.12,0h0l0,0,.24.19.15-.07h0l-.14.1.12.12.14-.15.05,0-.17.14.05,0h.05l.17-.15,0,0-.12.14h0v.24l-.5.12-.46.12.08.17h-.05l0-.19.46-.12v-.05l-.48.14,0,.08,0,0-.19,0-.53.15-.1,0-.09,0v.07l-.1.12,1.37-.34.21,0,.36-.08.05.1.27-.07,0-.07.1,0,.38-.09,0-.05h0l0,0v0l0,0-.36.1-.05,0v0l.46-.09.07,0h.05l0,0v0l0,0-.14,0-.1,0-.28.07,0,0,.26,0,0,0,.05,0v0h-.1v0l-.24,0-.1,0,0-.08-.62.17-.2,0-1.39.31.22.26,1.61-.21.16.26,0,.36.12.38-.14.27-.58.29.05.14-.41.12-.07.14-.22.08.07.26,0,.14,1.8-.33v0l.12,0v0l.74-.14-.07-.24.38-.07.1.29-1.15.24-.15,1h-.07l.15-.87-1,.19-.07.39h0l.05-.43,1.06-.2,0,0-1.85.33,0,.05-.34.05.07.17-.38.07.26.74-.38.1.09.29.05.16-1,.27-.1.36h.05l.07-.36.87-.15v0l.07,0v0l.19,0v0l1.06-.17v0l-1,.16,0,0-.24,0,0,0-1,.17-.05.29,0,0-.05.27.05.14,2-.45.12-.24,0,0-.12.24-2.07.48-.09-.22,0-.19h-.1l-.12.41.22.12.21.55-.67.41,0,.07,0,.07,0,0h.17l.12,0,.1,0,.07,0,0,.07.07.27-.45.19.31.36-.7.21v.1l.89-.19.15-.17,0-.07,4.06-.94h0l0-.05.09,0,1,1.1-.08.05-1-1h-.05l.34.84h0l-.31-.82-.84.19.31.82h-.05l-.31-.79-.79.16.33.89h0l-.34-.86-.77.17.39.91-.08,0-.36-.93-.69.16.38,1-.05,0-.38-1-.62.14.45,1.08-.07,0-.31-.82-.53.12.38,1,0,0-.41-1,.57-.15-.07-.19h-.05l-.12.17-.07,0-.86.19.5,1.36.24,0-.33-1h0l.36,1,.17-.05,0,.09-.44.08.05.09.34-.05.05.05-.39.07.17.22.24.19.26-.05-.14-.4.07,0,.12.41.7-.12-.24-.77H490l.26.77.82-.14-.32-.94h.08l.28.91.92-.17-.32-1,.05,0,.31,1,.94-.19-.31-1h.05l.31,1,.62-.12v-1.39h.12v1.56h-.12v-.12l-4.49.82.27.07.72-.15,0,.08-.26,0,.05,0,3.16-.57,0,0-3.12.57.05.15.31-.05,0,0-.31.07,0,.17.17,0v-.05l.1,0,0,0,.91-.17,0,.05-1.11.22v0l-.09,0,0,.07,0,.05V262l-.07.05v.12l.07.14.07,0-.05-.1h.08l0,.07,1.42-.38,0,.05-1.54.4.1.22.34-.1h0l0,0,0,0,0,0,0,0-.41.1.05.07.38-.09v0h-.05v0h0v0l-.31.1,0,0,.1,0,.17,0,.09,0,.22-.05.05.1.79-.15,0-.07h.1l0,.05.1,0-.05-.12.1,0-.12-.21h0l.12.21.19-.07-.12-.22h.05l.12.22.21-.07-.12-.22,0,0,.12.24.19-.05-.14-.24.07,0,.12.24.22-.05-.12-.27.07,0,.12.26.07,0,.05,0,.09,0-.12-.21.05,0,.12.24.1-.05,0-.07.1,0,0,.07v0h.05l-.15-.67.22,0,.19.81-.24,0,0-.12h-.05v0l-1.54.43,0,.12-1.06.2,0,.21v.24l0,.1,0,.09.07.12.1.05.05,0,.05.09,1.41-.29-.14-.45.05,0,.16.53-1.46.27.05.16.38-.07v0l-.38.07,0,.07.39-.07v0l-.39.07.05.17.05.1.05,0,.07,0h.05l0,0v.08l0,0,0,0,0,0,0,.05v0l0,.07,0,0,0,0v0l0,.05-.05,0,0,0v0l-.05,0V265l0,.08,0,.09,0,.15.41-.08-.41.1.05,0,0,.08.14.72.31-.08,0,0-.32.05,0,.41.33-.05v0l-.33.05,0,.29,0,.1-.41,1.22-.05.1-.21.45-.48.36.19.65-.87.55-.6-.29,0,0-.12.09-.17.17.05.29.14.41.17.14.05.62-.26.27-.36,0-.6-1-.51.17-.74.17-.22-.08-.16-.09-.29-.36-.75.31.05.1-.17.07-.19-.24.19-.07.08.09.74-.33-.6-.7-.48,0-.89.68-.33-.27.07,0,.24.17.84-.6-.19-.48-.51-.32.12-1-.07-.41,0-.15,0-.12-.22-.4-.1-.22-.33-.36-.27-.17-.12-.09h-.21l-.43-.24-.65,0-.72.07,0,0-.12,0h0l.14-.05-.1-.1-.14-.31,0-.07v-.12l.07,0,0-.1-.29-.72.43-.07.05,0-.05-.09-.16-.34-.41.07,0,0-.36.07,0,0-.43.07,0,.09h.05l.07.29H480l-.07-.26,0,0,0-.07h-.07l0-.07.51-.1,0,0,.31,0,0-.05.45-.07L481,264l-.36.08-.12-.32.43-.12v-.09l-.34-.41-.07-.07h-.19l-.14,0h-.15l-.12,0-.09-.05v0l-.22,0v0l.19-.05v-.12l.05-.07,0-.05.07,0,.07-.05.12-.05,0,0,0-.12-.41.12,0-.05.43-.09-.31-.58-.26-.34-.1,0-.12,0,0,0-.55.12v0l.55-.12-.34-.41H479l-.05-.09.07-.07-.14-.43-.1-.12-.29-.29-1,.21-.07-.19-.24,0,0,.07h-.09l-.05-.1H477l0,.07,0,0,0,.05h0l0,.16H477l0-.16h0l0-.05h0l-.05-.24h.07l0,.12.12,0-.05-.21.27-.07,0-.05-.26.05v-.05l.24-.05,0-.07,0-.12.12,0,.69-.14,0-.12,0-.07-.05-.1-.09,0-.07-.2.19,0,0,0,0-.05-.22-.48-.21-.36-.56-.69,0-.05h-.17l-.31-.46-.5-.52-.32-.44-.31.08-.24.07-.05-.07.56-.17-.46-.77.1,0-.05-.1,0,0,0-.08-.15,0-.74.17,0-.05.65-.15,0-.09,0,0-.09-.21h-.15l-.07,0-.05,0-.14,0,0-.05.2-.05-.1-.17h-.07l-.12-.16-.53.12,0-.08.64-.16.12-.05,0,0,0-.05-.17,0,.07-.6-.43.09v0l-.15,0h-.26V253l.31,0h0v-.05l.5-.12,0-.19-.17,0-.05-.14.41-.09h.07l0-.1v0l-.1-.68-.48,0,0,0,.5,0-.05-.27.1-.29.12-.19,0-.07.33-.31-.09-.15h0l.1.12,0-.12.17-.09-.17-.22.08,0,.14.19,1.13-.5.84-.6-.12-.58-.05-.19-.53.07v0l-.12,0v0l-.72.12v0l-.48.09,0,0-.08,0-.07-.17.55-.1,0,0,.38,0,0-.05.14,0v0l.24,0,0,0,.12,0,0,0,.51-.1-.27-.55-.24.05-.07,0v0h-.07v.09l-.07,0,0,.09-.16,0-.1-.22.46-.1v0h-.12l0,0,.31-.05v0l-.12,0v.07l.17,0,0-.15.26-.05v-.14l0-.12-.09,0,0,0,.1,0-.19-.24,0-.29-.31,0,.29,0,0-.1-.29.07,0,0,.31-.05-.05-.36,1.06-.19-.1-.31-.16,0v0l-.22,0,0,0h.12v.05h.05l0,.14-.17,0,0-.05h0l0-.07h0l-.05-.12-.41.07.05.26h-.05l-.07-.24-.43.07.07.24h-.07l-.07-.24-.77.12.07.24h-.07l0-.21-.24,0V246l.22,0-.05-.17h.05l.05.15.79-.12-.05-.17.05,0,.05.2.45-.08-.05-.14h.08l0,.12.68-.1-.1-.33-.74.14-.05-.09-1.25.21,0-.17,1.27-.19,0-.17,0,0,0,.12-.38.07,0-.07.15,0v0l.19,0v0h-.05l0-.12h.07l-.05-.12.07,0,.32-.09-.15-.38-.14,0,.14.34h-.05l-.14-.34-.46.12.15.29-.1,0-.12-.28-.41.07.12.31.29-.1,0,.08-.41.14-.05-.07.1,0h-.05l-.1-.31-.26.07,0,0-.21.05.07.24.09,0V245l-.26.07,0,0,.14-.05-.12-.29h0l-.48.15.09.26.12,0,0,0-.34.08,0,0,.16-.05-.12-.28-.48.12.08.19-.94.26,0,0-.38.1,0-.05.36-.1,0,0,.94-.27-.07-.14-.44.1v0l3.29-.77,0,0-1.68.4-.12-.26-.22.07,0,0,.24-.05,0-.07-.24,0,.22-.07v0l-3.38.84.17.38h-.05l-.19-.43.12,0-.17-.12,0,0,.17.1,0,0,3.27-.79-.22-.52-3.55.86.05.12-.05,0-.17-.43h0l.1.24,3.55-.86-.1-.24,1.78-.46-.12-.29-.48.15-.05-.1-.36.1,0,.14h0l0-.14-.74.17.12.31-.08,0-.12-.31-.36.07.12.31h0l-.14-.31-.41.12.12.29,0,0-.14-.31-.41.1.15.31-.05,0-.15-.31-.4.1.12.31h0l-.12-.31-.57.14.12.31-.08,0-.16-.36.12,0,3.52-.84-.09-.21-.43.09-.27-.76-2.18.5.24.62h-.05l-.26-.6-.72.17.21.63h-.05l-.28-.75h0l0,.07,3-.69,0-.19.41-.15-.38.12,0-.05-2,.51,0-.15h0l0,.08,2.38-.53,0,0-.52.12h-.34l-.24,0-.12-.15h-.05v0l-1.22.14,0,.07-.05,0,0-.32h0l0,.17,1.2-.14,0,0,.05,0-.22-.39,1-.36.07-.26-1-1.44-.36-.41-.75-.24,0-.19v-.1l.12-.07.19-.14.33.12.15-.24,0,0-1-.05v-.09l1,0,0-.24.08-.07-.22,0V237h-.05v0h.05v-.07l.07,0,0-.07.16,0,0,0-2-.31,0,.07h-.05l.07-.24h.05l0,.12,2,.31.07-.16,0,0,0,0-.24-.08,0,0,.24.07.05-.07-.24-.07v0l.24.07.14-.19-.26.09-.05,0,.1,0v0l.17-.05-.15-.07-.09-.14-.58-.29-.05.07h0l-.29.36-.07-.05.26-.36.05,0,.05-.05-.92-.43-.14-.08-.12.44-.12.36-.09,0,0-.12.21-.72.12,0,.17.09,1.49.72v0l-1.44-.72.12-.15.07.05-.09.1.91.45.36-.48-1-.48-.14.17v0h0l.31-.36h0l0,0-.12.17,1.2.58,0,0-.19-.09-.39.48.43.21.2-.26.21-.34.55.2.6-.51-.5-.24,0,0-.12,0,0,0-.58-.28-.21.21,0,0,.34-.34.28-.33.05,0-.38.43.57.27h0l.12,0,0,0,.51.24.24-.31.19-.1.43-.22.36-.4.29-.53-.1-.1h0l-.05,0,0,0-.1-.07,0,0,.1.1,0,0,.05,0v0l.07.09.12-.07.05,0,.15,0,.12-.07h.09l.12,0,.12-.05.15,0,0,0h.1l.1,0,.09,0,.05,0,0,0,.05-.05,0,.05h0" transform="translate(-226.24 -133.62)" fill-opacity="0" stroke="#0f26a6" stroke-linecap="square" stroke-linejoin="bevel" stroke-width="1.3" fill-rule="evenodd" fill="url(#New_Pattern)"/><path d="M304.79,337.51l.44.09,0-.09.64.07h0l-.06.15-.21,0,0,0,.28.56.5-.17.48-.07.19,0,.18,0h0l.18,0,.1,0,.09,0,.08,0,.09,0,.1,0,.08,0,.07,0,.09,0,.2.1.08.05.08.05h.06l0,0,.05,0,.08.05.12.07.09.06,0,0,0,0,.09.08.13.11.06,0,.17.14.17.13.17.13.22.15.27.21.24.17.27.18.1.07.08.07.08.06.08.07.19.18.19.18.23.22.14.12.15.14.08.07.14.11.13.1.07.06.16.11.15.1.07.05,0,0,0,0,.1.13.14.16.08.1,0,0,0,.05.05,0,.06,0,.06,0,.07,0,.15.07.07,0h0l.05,0h.06v0l0,0,0-.06-.05-.08h0l0-.1v-.14h0v0h.17l0,0,0,0,0,0,.05.06.05.06.09.13.05.06,0,0,.07.06,0,0,.1.09,0,0,0,0,0,0h.18l.21,0,.06,0,.1,0,.1,0h.05l.12.07.15.08.14.08.09,0,.1.05.08,0,.06,0,.17,0,.16.05.16.05h.16l.19,0,.17,0,.15,0h.09l.11,0H318l.14,0,.16,0h.22l.17,0h.07l.14,0h.06l.11,0h.08l.2,0,.21,0h1l.08,0,.14,0,.2,0,.18,0,.19.05.25.06.22.05.15,0,.21,0,.22.06.17.06.21.06.1,0,.1,0,.07,0,.05,0,.16.09.08,0,0,0h0l.07,0,.14,0h.05l.06,0,.08,0,.06,0,.2.12.28.16.14.08.16.09.2.11.12.06.19.1.17.09.17.09.1,0,.08.05,0,0,.08.07,0,0,.16.1.16.11.08,0,.07.05.16.07.06,0,.06,0,0,0,.05,0h0l0,0,.07,0,.11,0h0l0,0,.06,0,0,0,.05,0,0,0,.06,0,.08,0,.1,0h.05l0,0,0,0,0,0,.05.06,0,0,0,0,.05,0,.14.09.06.05.05,0,0,.05,0,0,.07.1,0,.05,0,0,.08.09.14.13.14.14.17.15.09.07.16.12.11.09.12.07.07,0,.17.09.08,0,.06,0,.15.1.09.06.15.07.2.11.16.08,0,0,0,0h.5l.43.13.19.09.13.07.11.06h0l.09,0h0l.13,0,.1,0,.08,0,.11.05.11.05.08,0,.07,0,.07.05.19.12.16.1.13.09.19.11.18.11.16.09.07.05h0l.1.07.14.12.19.15.22.19.17.13.06.06.05.05.13.15.13.15.17.17.13.14,0,0,0,0,.1.14.06.09,0,0,0,0v0l0,.09,0,.22,0,.06,0,.07.05.14.06.18,0,.1,0,.13,0,.07v.34l0,.05,0,.1h0l0,.08,0,.18,0,.15v.23l0,.24,0,.23.05.22.07.23.09.25,0,.06v.17l0,.06-.46.56-.26.22-.26.31-.2.38-.25.44-.42.3-.4.27-.25.07h0l-.36.21-.37.26-.18.13-.15.18,0,0-.17.11-.18.07-.2.06-.15,0-.12,0-.12,0-.15,0h-.31l-.3,0-.31,0-.3,0H330l-.42,0-.42,0-.42,0h-1.27l-.42,0-.42,0-.42,0-.41.05-2.68.77-12-2.22-.27-.07h-.64l-.38-.13-.29.08-.33-.05h-1.05l-.4-.16-.22,0-.74-.11-1.05-.23-.45-.27-.85-.37-.61-.73-.21-.46-.15-.25-.32-.79-.13-.42,0-.2-.42-1.09-.3-.42-.47-.4-.4-.17-.21,0-.41.09-.43,0-.35.06-.29-.11-.35,0-.23-.15L299,352l-1.12-4.21.36-1.79,1.43-5.1.58-.52.13-.11.13-.17.08-.11.93-.64,0,0h0l-.14-.18h0l-.09-.08.13-.06.08.09-.06,0,.13.18,0,0,0,0,.09-.09-.09-.14h0l-.24-.31.06,0,.25.3h0l.09.13.76-.34.09.13.06,0h.06l.08,0,.41,0,.27,0,.43.07h.26l.11,0,.15,0,.36-.07.26-.11.26-.14.17-.11.19-.1.07-.08-.35-.1.09-.08-.17-.11.09-.15.2.11-.21-.37-.17,0v0l-.67-.11,0-.12h.25l0,.07" transform="translate(-226.24 -133.62)" fill-opacity="0" stroke="#0f26a6" stroke-linecap="square" stroke-linejoin="bevel" stroke-width="1.3" fill-rule="evenodd" fill="url(#New_Pattern)"/></g><line x1="111.77" y1="178.28" x2="211.03" y2="99.17" stroke="#0f26a6" stroke-linecap="square" stroke-linejoin="bevel" stroke-width="1.3" fill="url(#linear-gradient-2)"/><line x1="165.51" y1="163.11" x2="205.29" y2="134.58" stroke="#0f26a6" stroke-linecap="square" stroke-linejoin="bevel" stroke-width="1.3" fill="url(#linear-gradient-3)"/><line x1="77.23" y1="222.17" x2="93.54" y2="210.48" stroke="#0f26a6" stroke-linecap="square" stroke-linejoin="bevel" stroke-width="1.3" fill="url(#linear-gradient-4)"/><line x1="181.8" y1="182.24" x2="220.6" y2="157.33" stroke="#0f26a6" stroke-linecap="square" stroke-linejoin="bevel" stroke-width="1.3" fill="url(#linear-gradient-5)"/></g><g id="Layer_2" data-name="Layer 2"><line x1="6.84" y1="191.35" x2="201.38" y2="45.25" stroke="#0f26a6" stroke-linecap="square" stroke-linejoin="bevel" fill="url(#linear-gradient-6)"/><line x1="2.11" y1="157.33" x2="165.37" y2="35.27" stroke="#0f26a6" stroke-linecap="square" stroke-linejoin="bevel" fill="url(#linear-gradient-7)"/><line x1="56.48" y1="193.2" x2="234.4" y2="53.58" stroke="#0f26a6" stroke-linecap="square" stroke-linejoin="bevel" fill="url(#linear-gradient-8)"/><line x1="29.2" y1="99.07" x2="144.57" y2="16.08" stroke="#0f26a6" stroke-linecap="square" stroke-linejoin="bevel" fill="url(#linear-gradient-9)"/><line x1="39.16" y1="64.11" x2="102.96" y2="18.98" stroke="#0f26a6" stroke-linecap="square" stroke-linejoin="bevel" fill="url(#linear-gradient-10)"/><line x1="26.88" y1="40.57" x2="72.25" y2="9.89" stroke="#0f26a6" stroke-linecap="square" stroke-linejoin="bevel" fill="url(#linear-gradient-11)"/><path d="M338,311.9" transform="translate(-226.24 -133.62)" stroke="#0f26a6" stroke-linecap="square" stroke-linejoin="bevel" fill-rule="evenodd" fill="url(#linear-gradient-12)"/></g></svg>