<svg id="Layer_1" data-name="Layer 1" xmlns="http://www.w3.org/2000/svg" viewBox="0 0 377.36 307.46"><title>brooklyn_symbol</title><g id="Map_1:_NYC_Boroughs_Besides_SI" data-name="Map 1: NYC Boroughs Besides SI"><path d="M393.73,146.78l.19,0h.29l.17,0,.09,0,.29.05h.14l.29,0,.12,0,.27,0,.24,0,.55.12.12,0h.07l.07,0,.12,0,.1,0,.19,0,.31.07.36.08h.07l.07,0,.12,0h0l.05,0v0h0l0,.05h.05v0h.09v0l0,0,.09,0,.17.05.31.1,1.63.43.24.1.08,0,.14,0,.31.12.31.12.15.05.57.24.29.12.17.05.24.12.74.26.43.17,0,0,.31.12.51.22.05-.07,0-.05,1,.34.63.21h.07l.05,0,.07,0,.07,0h0l0,.05h0l0,0,.12,0,.07.05h.05l0,0h.1l0,0,.12,0,.14.07.05,0,.12,0,.15.27-.41.74,0,0-.4.77-.17.36-.36.65,0,.21,0,.36.12.89.05.26.84-.09-.05-.19-.19-1.32.07-.12.24-.46v0l0,0,0-.05,0,0,0-.08,0-.09.05-.07,0,0,0-.09.17-.32.09-.19.15-.07.55.19.53-.93.07,0,0,0-.05.1.24.07,0-.07.07,0,.29.07v.05l0,.07.24.09.05-.09h.1v.05l-.46.93.12.75.29.09v0l0-.05,0-.1,0-.07.05-.12.07-.12.07-.12.05-.07.05-.12.07-.17,0-.05,0,0,0,0,.09-.07,0,0,.07-.08,0,0,.08-.08,0,0,0-.05h.08v0h0l0,0v0h.14l.05,0,.07,0,.12,0,.19.07,1.66.68.17,0,.07,0,.12.05.17.1.12,0,.12.05.07,0,.79.36.5.33,0,0,.24.19.36.24.07,0-.1.07v0l0,.07.12.17.17.15.1-.08.45.63.27.41.26.67-.29.07,0,.07.17.38.19,0h0v0l.05.07.15.34.16-.08.15.22.09.14.05.08-.21.07.57,1.44.87,1.65.14.27.12.17,1.49,1.22.64.46.82.72,0,0,1.44.79.32.22.33.14.17,0,.5.14.87.24.81.24h0l.62.17.48.14.14,0,.22,0,1,.2h0v0l0,0h.12l.69.09.43.05h.05l.05,0v0l.41.07.43,0,.19,0,.51.09.4,0h0l.05,0,0,0,.38.05.24,0,.08.05.14,0,.24.07.12,0,0,0,.17.05.67.14.72.15.15,0,.72.1.74.26.31.12.15.07.09,0,0,0-.05,0v0l.05,0h0l.12.07.17.12.09.05.15.1.09,0,0,.08,0,0,.1.1.14.12.39.34.72.74.29.36.31.38.05.08.14.16.19.29,0,.05,0,0h.05l0,0,0,0v.05l0,.12.1,1.34v.15l1.08,2.3,2.87,6.48,1.44-.36v.07l.2.41v0h-.08l.12.19.12.17.15.22,0,.09v.12l0,.36-.05.12-.05.22-.07.31-.12.48,0,.07-.12.22-.08.14-.09.08-.12.07-.12,0h-.17l-1.92.53-.41,0-3.6.92h-.09v0h0v0l0,0h0v0h-.24l-.08,0,0,0-.05,0-.07,0,0,0-.05-.05h0v0h-.1l0,0h-.05l0,0-.15.12,0,0-.17.12,0,0,0,0,0,0,0,0h0v.12l0,0,0,0,0,0h0l-.68.33-.07.05-.05.07,0,0,0,0,0,0,0,.05,0,.05v.09l0,0v0l.33.67v0l0,0v.1l0,0,.34.7v.19l0,.07,0,0,0,.07-.05.09,0,.08,0,0,0,.05,0,0,0,0h0l0,0,0,0h0l0,0h-.05l-1.32.31-2.15.53h-.29l-.1,0h-.07l-.07,0-.07,0-.15.07-.14.07-.1,0-.07,0-.05,0-.05,0,0,.05-.1,0v0h0l0,0v.17l0,.07,0,.07.05.07,0,0h0v0h0l.7-.12.29.62.07,0,0,0,.2,0,.12.21.09.2-.21,0,.33.72-.38.51-.17.07-.07,0-.1.07-.6.14-.86.24-.17,0,0,0h-.05l0,0h0v0l0,0v0l0,0,0,0,1.11,2.57-2.45.62.19.48,2.5-.67.43,1,.26.62.46,1,.4,1,.2.36.24.1h0v0l0,0v.17l0,0,0,.05,0,.05,0,0,0,.05.05,0,.14.1,0,0,0,0,0,0,0,0v0l.27,0,0-.05,0,0v-.1l0,0v0l0,0,.12-.07,0,0v0l0,0-.24-.53-.55-1.27-.55-1.25-.29-.7L435,196l1.2-.36.05,0,0,0,0,0h0v0l0,0,0,0v-.07l0,0,0,0v0h0l0,0h0l-1.35.33-.38-.79,0-.05,0-.05v-.16l0-.08,0,0v0l0,0,0,0,0,0,.07,0,1.92-.48.19,0,0,0h.05v0h0l0,0,0-.08h0l0,0v0h0v-.05l-.63-1.32-.33-.79-.17-.45.36-.53,1.68-.43,0,0,1.06-.28.1-.08,0,0,1.46-.36-.84-1.87v-.12l0,0,0,0,0-.05,0,0,0,0,.1-.07,0-.05.05,0,.07,0,.05-.05.07,0,.05,0,.07,0,.15-.07.09-.05.22-.12.1-.05,0,0H441l0,0h0l.05,0h.12l3.86-1,0,0,1.44-.34.27,0,.05,0h.07l.05,0H447l.05,0h.07l.05,0h.07l0,0h.24l0,0h.07l0,0,0,0h0l0,0,0,0h0l.05,0,0,0,.05,0,0,0,0,0h0l0,0,0,0,0,0,.05,0h0l0,0,.05,0,0,0,.05,0,0,0,0,0h0l0,0,0,.05,0,0,0,0,0,0,0,0,0,0,0,0h0l0,0v0l.05,0v0l.05,0,0,0,.05,0,0,0,.05,0,0,0h0v0h0l0,0,0,0,.05,0,0,0,0,0,0,0h0l0,0,0,0,0,0,0,0,0,0,0,0,0,0v0l0,0,0,0,0,0v0l0,0,0,0,0,0,0,0v0l0,0,0,0h0l0,0v0l0,0v0l0,0v0l0,0v0l0,0h0l.12.24.1.24.12.41h.07l0,0,0,0,.05.12,0,.07-.36.17-.09,0h-.1l-.05,0,0,0-.05.05-.07.05-.27.07.05.14-1.29.31-.53.58-.43.46-.1,0,.07.12.12.22,0,.09,0,0v.07l.05.07.07.1.05,0,.09.07.1.15.07.09,0,.15,0,.16.1.29,0,0h.05l0,0,0,.05,0,.09v.24l.5,0,0,.19,1.63,1.1,1.63,1,.74,2,.51,1.34.57.46.19.09.68.36-2.07,2.07.82.48,1.32.76,1.34.8.72.43.63.38.67.39.67.38.67.41,0,0,.62.36.67.41.67.38.63.39.07,0,.65.38.64.39.7.41,1.32.79,1.34.79,1.35.79,1.32.79,1.34.8-2,1.94,1.35.79,1.32.79,1.34.79-2,2,1.39.74,2.71,1.54,1.37.76,1.37.77.81.46.53.31.79.43.58.34.72.4.65.36.65.36.72.41.62.34.72.43-1,1-.2.15-1.6,1.7,1.36.77,1.37.77.77.43.57.33,1.37.8,1.3.74.55.36.38.22.2.12.07,0-.89.94,2.66,5.21-1.34.55,8.37,9.88.1.12.07-.19,0-.07.09-.22v0l.15-.26.14-.24.38-.56.39-.52.28-.39.12-.14.46-.53.46-.5.24-.27,1.34-1.39.05.05.19.22.1.12,1,1.1,1.27,1.41.27.32,1.68-1,1.84-1.2.87-.53,1,1.37,1-.72,1.44-.93.38-.24,1.44-.6,5-1.92,1.34-2.14,2.74-2.11,2-1.51,2.9-2.21.1-.09.21-.1,9.7-5.4,7.17-1.34,2-.36.91.74-.5,1.25.16.26,1,4.9.15.69.14.58.24,1.2.27,1.2.16.77.15.57.31,1.18.48,1.65.26.92.48,1.92.17,1.41.34,2.23,0,.1,0,.14.5,2.16,1.85-.38.76-.22.84-.24.2.82.38,1.46.79,3.19.07.34,0,.14.75-.07.93-.07.17.62.41,1.68.57,2.31.56,2.3.14.55.31,1.25.15.57.52,2.19.72,2.8L565,269l1.66-.24,1.68-.24.58,2.24,0,.16,0,.12.05.15,0,.14.7,2.69.24,1.06,0,.16.41,1.61L571,279l.15.6.76,3-.76.09-.87.12-1.7.27-1.61.26.55,2.54.17.58.17.62.57,2.28-1.63.39-1.56.24-1.65.24-1.61.69-1,.55-2.57,1.2.87,1.2-.55.22,0,0v.12l0,0,0,.09,0,0v0l0,0,0,.05v0l0,0,0,0,0,0-.05,0v0h0v0h0v0h0v.07h0v0l0,0v0h-.05v.09l-.12.07h0v0h0v0h0l0,0v.05l0,.05.05.07,0,.07.07.05.1.07.07.05.09,0,.08.17-.05.26h0v0h0V296l0,0h0l0,.05,0,0,0,0,0,0v0h0v0h-.09l-.1-.1h0l0,0h-.07l0,0v.12h0l.12.19.12.19.14.2.15.19.17.17.19.16.09.08,1.64.67.26,0,.29,0,.26,0,.27.05.26.05.22.24.45.64.07.08.08.09.07.12.88,1.06.17.24,1.61,2.13,3.24,4.3-.36.21-.22.41-.07,1-.21,1.18-.24.79-1,1.87L569.2,319l-.44.17-.43.14-.45.12-.46.12-.48.12-.46.1-.48.07-.48.07-.45.05-.48.05-.51,0-.48,0-.45,0-.48.05-.46,0-.48.08-.45,0-.41.08-.41.07-1.58.6-.77.45-.86.92-1.08.69-1.27.84-.39.34L552,325.63l.91.88-.14.12-1-.88-.38.19-.53,0L548.44,324l-2.23-4.25-.19-1.42-1.08-1.41-1-.82-.7-.19-.74-.07-.24.05-.82-.27L540,313.56l-.08-.12-.07-.07-.12-.1-4.89-6.65-.1-.14-5.28-7.13v0l-.09.05-.12-.1-.55.22-.15.24.87,1.15.24.05,4.24,5.68.07.34V307l.29.41,4.71,6.6.09.14.07.1.08.09.12.2.14.16.12.17.14.17.12.22.07.19.12.09.1,0,.22.24-.24.4-.08.2-.07.19,0,.21,0,.2,0,.21v.19l0,.2,0,.21,0,.19.05.2.1.19.07.19.31-.05.24.17.38,1.08,1.47,1.54.09.26,1.83,2.66.07.39.41.31.33.17.63.81v1.13l.33.5.22.17.46.36,1.67.53.92.29.16.14-1.1.67-1.2.77-.6.41h0l-.15-.1.89-.57-.65-.89-.36.17-.38.12-.36.14-.14.05-.32.1L545,330,543,331l-1.37,1-.22.1-.21.07-.24.1-.22,0-.24.08-.26,0-.24.05h-.24l-.38-.1-.34-.14-.36-.12-.34-.14-.33-.17-.34-.15-.31-.19-.31-.17-.31-.19-.29-.19-.29-.22-.29-.28-.29-.29-.28-.29-.32-.26-.33-.27-1.13-.81-.1-.1-.12-.1-.12-.07-.12-.07-.14-.05-.14-.05-.17,0-.15,0-.16,0h-.44l-.21,0h-.24l-.22,0-.24-.08-.12-.07-.09-.09-.17-.15,0,0,0-.07-.07,0-.05,0,0-.05,0-.07v-.2l0,0-.4-.2-.48-.52-.05-.12,0-.12-.07-.1-.1-.12-.09-.1-.12-.09-.12-.07-.12-.1-.15-.05-.14-.07-.17-.05-.07,0-.12,0,0,0v0l0,0,0-.1,0,0v-.05l0,0h0l0-.05,0-.05,0,0,0-.05,0,0,0,0-.15,0v0l-.07,0,0,0v0l0-.07v0h0l0,0v0l0,0,0,0,0-.05V324l0,0h-.07l0,0,0,0-.05-.05-.07,0-.07,0-.12,0-.12,0,0-.05,0,0,0-.09v-.1l0-.07-.05-.07-.07-.1,0-.1-.05-.09,0-.1-.1-.07,0-.1-.07-.07v-.07l0,0,.07.1.1,0,0,.05.05.05H527l0,0,.12,0,0,.05h.07l0,0,.05,0h0l.07,0,.1-.07.09-.05.1-.07.07-.1,0-.09,0-.1.05-.07v0l0-.08v-.12l0-.09,0-.1,0-.09h0v0l-.1-.05-.09,0,0,0-.07-.05-.05,0,0,0,0,0h-.07v0l0,.08h-.07l-.07,0h-.12l-.05,0h0l0,0-.05-.05-.07,0h-.08l0,0h0l-.05-.1-.1,0-.12,0h-.21l0,0-.05,0,0,0,0,0-.05,0-.07,0-.12-.05h-.1l0,0h-.09l0,0-.09,0-.05-.05h0l-.08-.07h0l-.07-.05-.07-.07v0l0,0,0-.05V321l0,0v-.07l0,0v-.07l0,0v0l0,0-.07-.07v0l0-.05,0,0-.07-.08v0h0l0,0,0,0,0-.05-.07-.07,0-.05,0,0-.08-.1-.07-.07,0-.05,0,0-.1-.08,0,0,0,0-.05-.1,0-.05v0l-.07-.07-.1-.09v-.05l0-.1,0-.07,0,0,.05-.05,0-.1,0-.07,0-.07-1-.53-.58-.24-.24-.24-.17-.24-.31-.14-.33.09-.17.22-.31,0-.24-.07-.24.14-.34.34-.41.17-.48.12-1.39-.17-.29-.26-.48-.58v-.12l-.14-.12-.29-.19-.86-.7-.12-.19-.75-.65,0-.14-.1-.05,0-.09-.07-.08,0,0,0-.1-.14-.14,0-.05.08,0-.05-.17-.1,0,0-.05,0,0-.12-.05-.16-.27-.08-.31.05-.17-.05-.12,0-.12-.1-.55,0-.19.14-.1.15-.14,0-.12.05-.14-.12-.1-.07-.1,0-.12v0l0-.15,0-.19-.12-.12-.12-.05-.12,0h-.21l-.1-.05h-.1l-.09.05-.05,0-.14-.07-.36-.17-.39-.05,0,0,0-.05,0,0-.05,0v0l0,0,0,0,0-.05,0-.05h0v-.19l0,0,0,0-.12-.05-.05-.05,0,0,0-.05h0l0-.07-.17-.15-.12-.05-.05-.09-.14-.15-.05,0,0,0,0,0-.05,0h0l0,0,0,0H511l0,0h0l0,0h-.05l0,0,0,0h0l0,0,0,0,0,0h0l0,0-.05,0,0,0-.05-.05,0,0,0,0,0-.05,0,0h0l0,0h0l0,0,0,0h0l0,0-.05,0,0,0,0,0,0,0v0l0,0v0h0l0,0,0,0,0,0,0,0h0l0,0-.05,0,0,0-.05,0h0l0,0,0,0h-.05l0,0h0l-.05,0h-.19v0h0v0l.34.31-.36.24-.36-.31h-.12l0,0h-.05l0,0,0,0,0,0,0,0,0-.05,0,0h0v0h0v0h0l0,0h0l0,0h-.07l0,0h0l0,0h-.12v0h0l0,0h0l0,0v0h0l0,0,0,0v0l0,0,0,0,0,0v0l0,0,0,0h0v0l0,0h0l0,0v0h0v.09l0,0v.07l0,0v.05l0,0v.05l0,.05v0l0,.05,0,0,0,0v.05l0,0,0,0,.07.08.07.09h0l.08.1.07.07v0l.07.08.05,0,.05,0,.07.05,0,.05,0,.05,0,0,0,0,.07,0,.05.05.07,0,.05.05.05,0,0,0,.05.05,0,0,0,.05.05,0,0,.05,0,0,0,0,0,0,.1.12.05,0,0,0,.05.05,0,0,0,0,.05.05,0,0,.05,0,.07.05,0,0,.05,0,0,0,.07.07.07.05h0l0,0,0,0,0,0,0,0v0l0,0h0l0,0,0,0v0l0,0,0,.05,0,0,.05.05,0,.05.05,0,0,.05h0l0,.05,0,0,0,.05.07.05,0,0,.05.08.07,0,.05.05.07.05.05.05,0,0,.05,0,0,0,0,.05,0,0,.05.05-.24.15,0,0,0,.05.12.21.38.48.22.24.5.63,0,0,0,0-.44-.53-.55-.67-.19-.29,0,0,0-.05.07-.07.12-.07.22-.12h.09l.08,0,0,0h.05v0l0,0,.12-.15.17-.09h0l0,0,.07,0h0l.05,0,0,0v0l0,0,0,0,0,0,0,0h.1l0,0v-.07l0,0,0,0,0-.05v0l.07,0,0-.05,0-.1.05,0,0-.05h.14l.07.1,0,0,0,.07,0,0,.05,0,0,.07v0l0,0,0,0h.12v0l0,0v.22l0,.05v.12l0,0,0,.1,0,.05-.07.07h-.08l0,0,0,0h-.2l-.09,0-.07,0-.08-.08v-.12l0,0,.07,0h0l0,0,0,0v0h0l-.1,0h-.07l0,0h0l-.05.07,0,.05v.09l0,.05v.05l.05.07,0,.05.08.05.12,0,.12,0h.14l.1,0,.12,0h.21l0,.05,0,0,0,.08v0l0,.05v.41l0,0,0,0,0,.07-.08,0,0,0,0,0-.1.07-.1.05,0,0v0h0v0l.08,0v0h0v0h.14l.1,0h0l.07,0h.12v0l.05,0,0,.05.07.07.09.05.05.07,0,0,0,.08.05.07h0l0,.07,0,0v0h.07l.07.09.08.08,0,0,0,.05v0l0,0,0,.05,0,0,.05.07,0,0,0,.05,0,0,0,0,0,.05h0v0l0,0,0,0-.05,0h0l0,0h0l0,.07,0,0-.07,0-.1,0-.07,0-.05,0-.09,0,0,0h0l-.08.05h0l0,0-.07,0,0,0,0,0,0,0,0-.07,0,0h0l0-.05h0l-.08,0h0v.05l.05.05,0,0,0,.05.1.07,0,0,.05,0,0,0,0,0h0l.05,0H514l.12-.05.1,0,.12-.07.1-.05h0l.1,0,.12-.08h0l0,0,0,0,0,0,0,0,0,.07,0,0,.07.05,0,0,0,0,0,.07,0,0v0l0,0h0l.07.05.05.05v.09l0,.1V317l0,0,0,.05,0,0,.07.1.05.09,0,.1v0l0,.05,0,0v.07l.05.05,0,0h.17v-.07l0,0v0h0l0,0,.07.1,0,0,0,0,0,.05h0v.07h0l.07,0,0,0,0,0,.07.12.19.08h0v0h0l.07.07v.05h0l0,.07v0l.07.09,0,0,.12.07,0,.09,0,.1,0,.05.12,0,0,0h0l0,0,0,.05,0,.09.1.08h.31l0,0,0,0,0,0,0,0h.08l0,0h0l0,0,0,.05.05,0h0l0,0,.07,0,0,.05h.05l0,0h.07l.1,0,.05.05.07,0,.12,0,.12,0,.1,0,.07,0,.05,0,.07.05.12,0,.05.05,0,0v0l.1.05.07,0,.05,0,.09,0,0,0,.07,0,0,0,.07.05,0,0,.41.29,1.18.84,1.12,1,1.08.94,1.11.93,1.15,1.13.86.82,0,.31.4.77,1.44,1.34.39.36.14.05.19,0,.41-.17.07,0,.05-.24.17-.05.17,0,.19.15.12,0,.1.08.19.24.29.48-.32.52,0,.17.28.1,1.11,1.05,1.2,1.63-.63,1.06-.81.67-.36.58-.12.21-.24.17-.41.27-.29.14-.33.26-.51.17-.33.19-.6.41-.51.31-.36.36-.07.17-.26.43-1,.72-.63.39-.31.12h-.33l-.27.09-.36.15-.19.17-.12.12-.74.33-.29.1-.53.26-.36.34-.43.5-.34.38-.19.7-.05.62.58.56-1.06.62,2.55,2.33-.91.62-1,.67-2.59-2.3-1.06.7-.53-.36-.14,0-.12,0h-.41l-.14,0-.12,0-1.8.57-1.37.79-3.86,2.91-1.92,3.24-2.74,2h-.12l-.09-.08-.12,0h-.15l-.33.12-.12,0-.77.31-1.06.52-.21.1-.2.12-.21.12L501,357l-.39.24-.26.07-.27,0-.09-.07,0-.05.05-.05,0,0,0-.08-.09,0-.08-.05h-.07l-.12,0-.19,0-.77-.38-.36-.19-2-.86-7.06-3.15-1.2-.55-1.41-.62-1.44-.6-.77-.17-.65-.31-.1-.05-.11,0-.41-.19-.12-.05h0l0,0-.12-.08-.08,0,0,0-.43-.2-.91-.43-.27-.12-1.25-.6-1.48-.69-1.42-.67h0l-.05,0-1.49-.53-1.46-.69-1.32-.65-1.06-.43-.62-.24-1.56-.77-1.39-.67-1.68-.72-.29-.12-.26-.12-.29-.12-.27-.15-.24-.14-.24-.17-.24-.17-1.34-1-.07-.07-.1,0-.12-.05-.09,0-.12,0-.12,0h-.17l-.17,0-.19,0-.17,0-.17.05-.17.07-.14,0-.14.1-.15.07-.12.1-.12.12-.36.21-.07.08-.05.09-.05.1,0,.09v.2l0,.12,0,.09.05.07.07.1.07.07.07.1,1.08.41.07.07.08.05,0,.07.05.07,0,.07v.17l0,.07,1.85.84,1,.41.24.07,10.32,4.56,1.66.74,6.52,3,1.25.55.17-.19,0,0,0,0-.79-.38-1.27-.67-.82-.41,0,0,.05,0,.17-.17v0l-.14.17.16.07h0l.14.08,0,0,.14.07.05,0,.14.07h0l.14.07,0,0,.15.08h0l.15.09h0l.15.07,0,0,.14.07h0l.14.07,0,0,.14.07,0,0,.15.07h.05l.14.08,0,0,.15.07,0,0,.15.07h0l.14.07,0,0,.14.08h0l.12.07h0l.12.07,0,0,.12.05.05,0,.12,0,0,0h0l.12.07.12,0,0,0,.12.07.12-.14h0l-.15.17.1.05.17-.15h0l-.14.15.17.07.12.07.07,0,.09,0,0,0,.12,0,0,0,.15.07.14.07.12-.14h0l-.14.17-.91-.46-.07.1-.05,0-.15.15.46.21.24.1.36.19-.26.29.09,0,.05-.05.07,0,.55-.75.22.1v0l-.19-.09-.58.77.17.07-.17-.07-.05.07.2.07v0l-.12,0,0,0-.21-.1h0l-.05.08h0l.21.09v0l-.24-.1-.07,0,0,.09v.1l0,.09,0,.1,0,.07.05.1,0,.07.07.1.09,0,.1,0,.1,0h.19l.12,0,.07,0,.1,0,.09-.05,0,0h.09l0,0h0l0,0,0,0v.07l0,.12,0,.12,0,.12.05.12.07.12.08.09.09.12.1.1.12.09h.07l.1,0H489l.17.05.14,0,.17.05.14.07.12.07.15.07.12.1.09.1.1.09.09.12.05.1.41,1.27.05.07.07.05.07.05.1.05.07,0h.31l.1,0,.07-.05h.09l0,0,0,0h0l.05,0,.05,0h0l.05,0h0l.05,0,0,0h.12l.05,0h.09l0,0h.24l0,0h0l0,0h.08l0,0H493l0,0h0l0,0h.09l.19,0,.2,0,.19,0,0,0h.29l0,0h.17l0,0h.07l.05,0v0h0l0,0h0v0h0l.07,0h.07l.07,0,.07,0H495l.07,0h.14l.12,0h0l.12,0h.05l.09,0,.17,0,.26.05.15,0h0l.07,0h0l.12.07.05,0,.07,0h.69l.12,0,.12,0,.15.07.07.07.1.12.14.05.1,0h.07l.12,0,.07,0,0,0v0l0,0,.12.21,0,.07.12.29v.1l0,0v.41l0,0,0,.05v0l0,0v-.09l.05-.08,0,0h0v0l0,.05.14.29.05,0,0,0,0,0v0l0,0v.08l0,0,0,0h.05l0,0,0,0,0,0,.05.05.05,0,0,0h.07l0,0,.08.07.16.19,0,.07,0,.05,0,.05,0,.05,0,0,0,0,0,0,0,.05v.05l0,.07,0,.05,0,0h0l0,0h0l0,0,0,0,0,0,0,0,0,0v0l0,0h.05l0,.09v.1l0,.09-.1.2,0,.07v.09l0,.05,0,0,.05.05,0,0,0,.07v0l-.05.05v0l-.07,0h0l-.05,0,0,.05,0,.05-.07.09-.05.07-.05.05,0,.07v.05l-.05.07v.08l0,0,0,0-.05,0,0,0,0,0,0,.07v0l0,.07,0,0v.21l0,.1,0,.09,0,.05v.1l0,.07,0,.05-.08.09-.07.08-.07,0-.1.08-.07.07-.05,0,0,0v0l0,.05-.05,0h-.05l0,0-.05,0,0,0v.05l0,0,.05,0h0l0,.05.05.07,0,.05,0,0-.05,0,0,0-.05,0,0,0,0,0,.05,0v0l0,.07,0,0,0,0h-.07l0,0,0,0,0,0,0,.07v0l-.05.05-.05.07,0,.05,0,.12,0,.12v.24l0,.1V367l0,0,.05.05.05.1,0,.12.08.21,0,0,0,.1v.16l0,.08v.07l0,.05v.07l0,.07v.14l0,.05,0,0h0v0l0,0,0,0,0,0,0,.07v.07l0,.1v.07l0,0,.07,0,.05,0,0,0,.05,0h.07l0,0v0l0,0h.07v.05l.07.05.05,0v0l0,.05-.05.05-.05,0,0,.05v.05h0l0,0,.07,0,0,0,0,.07v.05l0,.05,0,.07v.05l0,0,.05,0,.05,0H499v.1l0,0-.05,0,.05,0,0,0h.05l.05,0,0,.07v.27l0,0,0,.08,0,0,.05.05,0,.05.07.14.07.1,0,0v.1l0,0,.05.05,0,.05v0l0,0-.05,0v0l0,0,0,0h-.05l0,0,0,0-.05,0,0,0h-.07l0,0,0,0,0,0,0,0,0,0,0,.05,0,.05.05.05.07,0,0,0,0,.08.05.07,0,.05,0,0v.05l0,0,.05,0,.12,0,.07,0h.05l.11,0,.05,0,0,0v.1l0,0H500v-.07l0,0,0,0h.07l.07,0,.12.05.15.07.17.1.16.12.24.12.15.07.14.07.12.05.15.07.09.05.12.05.15.05.09,0,.12.05.1,0,.12,0,.09,0h.12l.12,0h.12l.08,0h.43l.07,0h.19l.1,0,.09,0,.1,0h.31l.1,0,.14,0,.12,0h.15l.16,0h.1l.12,0,.07,0h.1l.12,0,.09,0,.12,0,.22.1.22.07.21.07.19.08.12.07.05,0,.15.05.09.07.15.07.14.1.17.1.12.07.07,0,.07.05.05,0,.07.08.07,0,0,0,0,0v0l0,.07,0,.07.07.1.1.07.09.09.1.08.05.07,0,.09,0,.1v0l-.05,0-.1,0,0,.05v.12l0,.05,0,0,0,0,0,0-.08,0-.07,0-.07,0,0,.07-.05.07,0,.1-.07.12-.05.07-.07.07-.07.05h-.15l-.07,0-.07,0-.07,0,0,.05h-.07l0-.05V376h0l-.07,0,0,0h-.05l0,.05,0,0-.05,0,0,.07,0,0-.27.05-.12,0h-.09l0,0v-.05l0-.05,0,0,0,0,0,0-.05,0-.05,0,0,0-.05.05-.07.05-.09.07-.15.07-.12.08-.17.09-.14.07-.05,0-.07.05-.07,0h-.34l-.07,0-.07,0,0,0h-.16l-.05,0-.12,0-.1.07-.07,0-.1,0-.09,0-.12,0-.1.05-.09.07-.1.05-.1,0h-.12l-.14,0-.07,0h-.1l-.07,0,0,.05-.07.07v.14l0,.05.08.07,0,0v0l0,0,0,0,0,0,0,.07h.05l0,0,0,0,0,0,0-.05,0,0h.1l.12,0,.14,0,.07,0h0l0,0,0,.07,0,0v.05l0,0,0,0h0v0l0,0h.05l.05,0h.05l.07,0,.05,0,0,0,.1,0,0,0,.1-.05.1,0h.09l.07,0,.05,0,0,0,0,0,.1,0h.24l0,0,0-.05.05,0,.07,0,.07-.05.05-.07.09,0,.08,0,0,0,.1,0h.26l.1-.05.19-.07.17-.08.12,0,.12,0h.05l0,0,.05.05h.07l.05,0,0,0,.05,0,0,0v0l0,0,.05,0h.09l0-.05v0l0,0v0l.05,0,.1-.07.12-.07.07,0h.22l0,0,.05,0,.07-.1.05,0,.05,0h.09l0,0,.05,0h.07l.08,0,.07,0,.05,0,.12,0,0,0v-.05l-.07,0L508,376l-.12-.05,0,0v0l0,0,0-.05,0-.05,0,0,0,0H508l.1,0,.07,0,.17.1.09,0h.15l.09,0,.1,0,.12,0,.05,0,.12.07.07.05.14.05.07,0v.05l0,0,.1.07.12.07.07.07.14.08.12.07.12.05.1,0,.1,0,0,0,.05.05.07.07,0,.05,0,.05,0,.09v.1l0,.12,0,.12,0,.1,0,.09,0,.07,0,.08v.12l0,0,0,.1,0,.07,0,0-.09.1-.05.07-.1.09-.09.12-.1.1-.05.1-.07.07-.05.07,0,.1-.12.14-.15.14-.21.17-.17.15-.12.12-.15.09-.09.05-.12.07-.15.07-.14.08-.1.07-.07,0-.07,0-.17.1-.17.14-.19.12-.19.15-.17.12-.24.19-.21.21-.15.15-.09.05-.05,0h0v0l0,0,0-.05,0,0v0l.07-.07,0-.05.05-.05v-.07l0-.05h-.05l-.07,0-.05,0v0h.29l.05,0,0-.05.05-.05,0-.05,0,0h0l0,0v-.07h0v-.05h0l-.08,0h0l-.12,0-.05.05-.07.05,0,.05,0,0,0,.07-.07.05,0,0,0,.07,0,.05-.07,0-.07,0-.12,0,0,0h0v.05l0,.07-.07.14,0,.12-.05.17,0,.07,0,0,0,.05,0,0,0,.05,0,.05,0,0,.05,0,.09.05.07,0,0,0h-.22l-.07,0-.05,0,0,0,0,0,0,0h0l.05.05,0,0,.05,0h0l.05,0,0-.05,0,0,0-.05h.1v0l0,.08,0,0v0l0,.05-.05,0v.1l0,.05V383l0,0-.07,0,0,0-.05,0h-.12l0,0h0l0,.07,0,.08,0,.12v.24l0,.14,0,.12v0l0,.05-.05.05v.07l0,.1v.07l0,.07-.05.07,0,.08,0,.07,0,0v.05l0,0,0,.08,0,.07-.05.07,0,.07-.05.05-.07.05-.07,0-.12,0-.08,0-.09,0h-.07l-.05,0-.05.05,0,0,0,0,0,.07-.07.14,0,.05,0,.05,0,0-.1.05-.05,0,0,0h-.1l-.05,0-.07,0-.07,0h-.05l-.05,0h0v0l-.07,0-.05,0h-.05l-.07.05,0,0h-.05l-.05,0H503l0,0H503l-.05,0,0,0-.05,0-.07,0h-.07l-.05,0-.09,0-.12,0-.08,0-.07,0-.12,0h-.07l0,0-.1,0h-.19l-.07,0h-.08l-.07,0-.09,0-.1,0,0,0-.05,0h-.07l-.05,0-.07.05-.05,0-.07,0-.05,0-.07,0-.05,0-.07.05-.07.07-.05,0-.09,0-.05,0-.07,0-.08.08-.09.09-.07.05-.1,0-.14.07-.1,0-.12.05-.09,0-.12.07-.1.05h-.07l-.1,0-.07,0h-.34l-.07,0,0,0-.07,0-.05,0-.05,0h-.14l-.1,0-.07,0-.07,0-.12,0-.1,0-.05,0-.05,0h-.07l-.12,0h-.09l-.12,0-.1,0h-.05l-.05,0-.07.05-.09,0H497l-.07,0h-.19l0,0,0,0h-.05l-.12,0-.12,0-.14.05-.12,0-.12,0-.05,0-.05,0-.05,0-.07,0-.07,0h-.07l-.08,0h-.21l-.07,0-.1.05-.07,0,0,.05h0l0,.05-.05,0,0,0-.29,0-.1,0-.24-.07-.19,0-.05,0-.07,0-.17,0-.07,0-.1-.05-.36-.17-.12,0h-.07v0l-.05,0h0l-.1-.05,0,0h-.12l-.1,0-.05.05-.05,0h-.09l-.12,0-.12,0,0,0,0,0-.07,0-.12,0h-.17l-.05,0-.05,0,0,0v0h0l0,0v0l0,0,0,0,0,0v-.05h0v0l0,0,0,0-.05-.05,0,0,0,0,0,0-.05-.07-.05-.1-.07-.05-.07-.07-.07-.14-.12-.15-.1-.19-.09-.1-.17-.09-.07-.05-.12-.24-.08-.12-.12-.26-.07-.15-.12-.26-.07-.12V385L490,385l.05-.07.17-.17.21-.28.08-.17,0-.15V384l0,0,.07-.26,0-.17,0-.24,0-.19V383l0-.14,0-.1,0-.14.05-.12,0-.12v-.1l0-.07,0-.1,0-.12,0-.09,0-.1,0-.07,0-.1v-.14l0-.17v-.09l0-.05.05,0,0,0,0-.07,0-.12.05-.05,0-.05.08,0,0,0,.05-.09,0-.17,0-.48,0-.17,0,0,.07-.05v-.12l0,0h-.17l-.12-.07-.12-.09-.05-.05,0-.07v0l.05-.07.05-.07,0-.07-.05,0-.14-.1-.24-.09-.07-.05-.07-.07-.17-.17-.1-.1,0,0-.1,0-.09-.05-.08-.07,0,0v-.05h0v-.09l0,0-.08,0-.09-.05h-.07l-.08,0-.09-.07-.07-.09-.05-.17,0-.17,0-.1v0h.05l0,.05h0l.05,0,0-.07v-.43l0-.07-.12-.07-.12,0-.1-.05,0,0,0-.05,0,0h0l-.15,0v0l-.33.1-.12.05h0l-.07,0-.27-.21-.07-.05-.12-.12,0,0h0l0,0-.22.14-.07.05.05,0-.05.05,2.3,2.26,0,0,0,0,0,0-.05,0-.05,0-.05,0,0,0,0,0-.05,0,0-.05.1-.05h0l.09-.07,0,0-.12-.09-2.21-2.16h-.05l-.14.12,0,0,.27-.19,0,0,.05-.05v0l.19-.12-.1-.07-.16.15h0l-.07,0h0l-.27.17h0l.17-.12v0l-.05,0h0l0-.05,0,0-.05-.05,0,0-.08-.05,0,0,0,0-.17-.14-.17.14,0,0,.21-.17,0,0v0l.16.14.2.17.14.12,0-.05,0,0,.1-.05.19-.12-.24-.24-.26-.15-2.67-2.35v0h0l-3-2.71-.08.05.08,0,.24.22,0,0,0,0,0,0,0,0,0,0,0,0-.07-.05-.21.12h0l0-.05.07-.07.05.05.07-.05-.07-.05.07-.05.07,0-.14-.14-1.8-1.63v-.1L479,369H479l.34-.24.46-.28-.15-.12-.45.28-.34.22-.05,0,.36-.22-.26-.24-.34.22,0-.05.34-.22.41-.29-.15-.12-.45.29-.31.19,0,0,.31-.17.24-.17-.09-.1-.1,0-.24-.22-.19.15-.17-.12.22-.15-.12-.12.07-.05,0,0-.07,0,0,0-.07.07-.17,0-.19-.1-.14-.09,0-.15,0-.07v-.17l-.12-.05-.12.08-.08,0H477l-.24-.36-.26.12-.15.09-.33-.31-.15.1.1.09.33.32,0,0-.32-.29-.43.27,1.3,1.12,0,.05-.76-.65-.63.44V368l1,.82.21.19.67.55.2-.14,0,0-.33.24h0l.08-.07-.68-.57-.24-.17-1-.84,0-.22.62-.45-.24-.17-.29.21-.57.36-.05,0-.34.19,0,0,.07.31,1,1.08,0,0,0,0,.7.5.14.07.34,0,.12.12.93.26.89.82.39.48.12,0,.12.12.16.07.2.27.07,0,2.4,2.3.62.29v0l.22.12,1.22.81-.24.22.1.07,0,.07,0,.1,0,.12,0,0,.14.12.2-.17.09.08,0,0-.1,0-.09,0,.12.1-.08,0,.53.38.6.51.22-.15h0l.17-.12.07.05-.16.1-.22.14.07.07.05.07.14.08.39.55.48.14.21-.07.22.22-.1.09.53.48.12,0,.12.14.07.15,0,.16,0,.12,0,1.13.21,0-.12.92h.08l.26.76v.39l-.05.05-.05,0,0,.08v0h0v0l0,.41h.05l.07.46h0v0l0,.51,0,.28,0,0,0,.19h0l.26,1.61,0,.14,0,.07,0,.24,0,0,0,.41.07,0,0,.12v0l-.24.17-.08,0-.07-.09,0,0h0l0-.05-1.85.46-1.61.4-1.63.41-.88.22h-.08l-.07,0-.19-.53.1-.17-.17-.4-.31-.65-.17-.19-.1-.19-.24-.34-.17-.14-.45,0h-1.32l-.27,0-.24,0h-.26l-.26,0-.27,0-.26,0-.24.05-.27.07-.14-.29-.31.07-.1-.24-.07-.17,0,0-.17,0-.09,0h0l-.12,0-.07.07L476,386l-.09.05-.31.14h-.05l-.1,0h-.16l-.08.08-.12-.05-.91.55.07.17-.09.09v.05l.14.31.31.29h0l.79.67.31.27.07.16.15,0,.24.58,0,0,.24.38h.05l.07.15.12,0,.29.58,0,.12-1,.29-.07-.12-.33.09,0,0-3.21.79-2.81-.43-1.06-.17-.4-.07-.43-.1-.22-.1.05,0-.29-.34-.12.07-2-1.87.12-.1-.17-.12-.07-.07-.1.07-1-.93-.45-.41-.05-.07-.58-.6-.14-.05-.7-.65.05,0-.1-.12.12-.07,0-.1.19-.17-.17-.14.17-.07-.1-.22-.09-.55.14-.36.58-1.54-.68-.12-.16,0,.38-1.18-.1,0-.38,1.22.62.12,0,.12-.7-.14.08-.1h-.05l.09-.26-.31-.05-.09.21-.08,0,.12-.26.36.07.29-.91-.26,0,0-.05.17,0,.05-.12h.07l-.05.17.17,0,.34-1.18.19,0,.38-.6-.19-.15,1-.67.15-.07,1.13-.6-.15-.14.19-.1.15.1.29-.22.16-.19.12-.17-.14-.43-.31-1.47-.22-1.05.07-.05.12-.1,0-.28-.12,0,0,0-.12-.84.1-.07,1.29-.82.56-.33-.41-.46-.17.14,0,0,0,0-.08-.05.22-.16-.1,0-.09,0-.12,0H466l-.12.05-.09.05-.08.05-.09.05-.05,0,0,.05v0l0,.09-.1.07h-.19l-.55.39-.34.19-1,.65-.29.19-.84.57,0,.05.48-.33.38-.24,0,0-.08,0,.44.38-.1.12.05-.12-.41-.36-.5.34.67.53.21-.12,0,0-.41.26,0,0,.16-.1-.67-.52-.21.12.07.09-.1,0,.72,1,.22-.07,0,0-.24.1-.77-1.08-.07.05-.07-.07.07-.05-.07,0-.22.14,1.61,2.91-1.82,1.17.09.1,0,0,.17.09-.08,0,0,0-.12.1.07.05,0,0-.16-.12v0l-.08-.08-2.23,1.52-.09.12,0,.14.65.57v0l0,0v.05l-.26.77.1,0,.21-.62H460l-.53,1.58h0l.29-.93h-.1l-.26.79v0l0,0h0v0h0l-.88.6.81.72.17-.1-.34.22.12-.1-.81-.72-.55.34h0l0,0h0l-.12,0,1.37,1.22.17-.12,0,0-.41.26-.07-.1.17-.09-1.3-1.18-.57.39,1.75,1.56.19-.12,0,0-.43.29,0,0,.19-.12-1.75-1.58-.1.05-.09.05h-.05v.09l0,.34.51.62.33.31.32.2.36.26.19.31v.05l1.13,1,1.67,1.48-.19.15,2.76,2.47.19.05.15-.07,1.17,1.05L465,392l.84.76.8.12,0,0,0,0,.09.12.08-.12,0,0,.07-.22h0v0h0l.22.07h0l-.16-.05-.08.22h0v0l-.07.1,0,0v0l.15.12,0,0,.17.14.57-.43-.28-.24,0,0,.31.26-.6.48,0,.05,0,0,.12.08.14.09.22-.14.07,0,0,0,.14-.12-.22-.15.36-.26,0,0-.31.22v0l.16.12h0l.41-.33,0,0-.55.41,0,0-.05.07h0l-.07.05h0l-.22.15.12.07.07.05.1,0,0,0h.1l.12,0,.12,0,.38-.48.29-.41.07,0-.26.34.21.09,0,.08-.24-.12-.08.09-.31.39.07,0,.12,0h.34l.07,0H469l.19,0,.24,0,.31,0H470l.29,0h.36l.31,0,0-.14-.43,0-.62,0-.27,0,0,0-.41-.15,0-.05.05,0,0,0,.38.12.1,0v-.08l.41.05.36,0,.31,0v0l.14,0v-.08h0l0-.19-.14,0-.84-.12-.2,0,0,0h-.14l-.05,0h-.12l-.05,0h-.07l-.1.1-.19,0,.07-.28h0l-.08.24.15,0,.05-.24h0l0,.12,0,0h0l.1,0h0l.2,0h.07l.21.05h.12l.05,0h.12l0,0h.14l.08,0h.12l.07,0h.09l.05,0H471l.05,0h.19l.07,0h.32l.07,0H472l.07,0,0,0,0-.12h0l0,.22,0,0h.1l0-.21h0l0,.26-.19,0v-.1H472l-.82-.07,0,.09-.05.32h.07l.77.09H472l.19,0,0-.1h0l0,.14h0v0l-.29,0-.36-.05-.43-.05v.1l.12,0v0l1,.15.29.05,0-.24,0-.48h0v0l.07,0h.19l.05,0H473l.05,0h.22l.05,0h.19l.07,0h.19l.1,0H474l.05,0h.17l.07,0h.19l.07,0h.2l0,0h.2l0,0h.2l0,0h.2l0,0h.05l0-.12h.05l0,.26h0v-.07l0,0h-.05l-.91.09h-.14l-.05,0h-.19l0,0H474l-.05,0h-.22l0,0h-.2l0,0h-.15l-.21,0h0l-.48.05,0,.48,0,0h.1l.05,0h.45l.07,0h.46l.05,0h.45l.05,0h.48l.15,0h0l0-.12h0l0,.14-1.53.1h-.05l-.6.05h-.19l0,.17.1,0,.14,0,.22,0,.24,0h.1l.14-.05.17,0,.14,0,.12-.05.1,0h.09l.05,0h.05l.07.05.05,0,.07,0,.1,0,.14,0,.17,0,.14.1.1.05.14.09,0,.1.07.1.12.09h.08l.09,0,.1,0,.05-.05,0-.07.1-.05H476l.14-.07.19-.09.05-.08-.05-.09.12-.07.15-.05.09-.05.1-.07.17-.05h.12l.14,0,0-.08.07,0h.09l.08,0,.07,0,.09,0,.15-.1-.07-.05,0-.07h.17l.17,0,.1,0,.12.07.07.08.14,0,.12-.09.12-.1.12-.07H479l.19.05h.12l.12,0,.05,0,.15.05.12-.07.12-.1.24,0,.16,0,.15,0,.14,0,.15,0,.14-.05h.07l.07-.05.1,0,.07,0v-.07l.1,0,.09,0h.1l.07-.05.15,0,0,.05.08,0,.07,0,.19,0,.31,0,.15,0,.07,0,.45.08.41-.08.36-.09.24-.15.1,0,.14,0,.14.08.15,0,0,.08.15,0,.28,0,.1.05.05.07v.08l.05,0,0-.09.08-.12,0-.08.12,0,.12,0,.08,0,.21-.08.1-.19.14,0,.12,0h.07l.12-.05,0-.07.12,0,.12-.12.12,0H487l.28-.15.12-.12h.27l.19,0,.05,0h.12l.36-.17.21,0,.29,0,.19,0,.08.08.19-.1h.17l.26.05H490l.17-.12.22-.07.24,0,.19,0h.33l.53-.17.55-.22.34-.07.26-.07.17,0H493l0,0h.12l.09,0h.1l.09,0,.1,0,.1,0,.12,0,.09,0,.12.05.12.07.12.08.15.09.14.12.12,0,.1-.15,0,0,0,0h.05l.05,0,.1,0,.09,0,.15,0h.14l.05,0h.09l0,0-.05,0,0,0h0l.05,0,.07,0h.07l.05,0h.07l.12.05.14.07.05,0h.05l0,0h.19l.19,0,.15,0,.12,0,.14,0,.14,0,.08,0h.09l0,0,.07,0h.14l.05,0,0,0,.05,0h.1l.09,0,.05,0,.07,0,.08,0,0,0h.12l.08,0h.12l.09,0,.12,0,.15,0,.09,0,.1,0,.12,0h.07l.1,0h.09l.12,0h.15l.09,0h.05l.07,0v0l0,0,0,0v0l0,0h0l0,0h.29l.05,0,0,0h.05l.07,0h.08l0,0,.05,0,.05,0h.05l0,0h.07l.14,0h.07l.12,0,.12,0h.1l.22.07.12,0,.09,0,.17,0h.38l0,0,0,0,0,0h0l0,0h0l.05,0,0,0,.05-.05.07-.07.07-.1.07-.05.07-.05,0,0h.15l0,0,0,0,.07,0,.07,0h.19l.08,0,.12,0,.24.05.19,0,.14,0,.12,0,.1,0h.05l.09,0h.31l.08,0,.12,0,.09,0h.1l.07,0,.07,0,.05,0,.07,0h.1l.14-.05.12,0,.05,0,.05,0h.12l.05,0h.24l.28,0h.1l0,0,0,0h0v0l.07,0,.07,0,0,0h0l.05,0h0l0,0h.05v-.05l0-.07v-.05l0-.07,0-.05,0,0,0-.05.1-.05,0-.05.1-.07h0l0-.07.07,0,0,0,.05,0,.07,0,.07,0,.08,0,.07,0,.07,0,.07,0,.1,0,.07,0,.12-.05.07,0,.12,0,.1,0h.14l.1,0,.05,0h.16l.08,0,.07,0,.09-.05.1,0,.05,0,.05,0,.07,0,.07-.05h.07l.07,0,.1,0h.1l.07-.05.07,0,.1-.05,0,0,.08,0h.07l.07,0h.05l.05,0,.16-.1.08-.05h0l0,0h.19l0,0h0v0l0,0v-.17l.05-.05,0,0,0-.05.05-.05.05,0,0,0,.05,0,.07,0,.07,0h0l0,0,.31-.07.17-.05.07,0,.07,0,0,0,0,0,0,0h0l0,0h.1l.05,0,0,0,0-.05,0,0,0,0,.05,0,.07,0h.07l.07,0,.24-.12.1-.05.12,0,.12,0,.14,0,.2-.05h.88l.12.05.12,0,.08,0h.09l.12,0h.17l.21.05.15,0h.14l.15,0h.14l.12,0,.14,0h.15l.21,0h.22l.17,0H518l.48,0h.22l.16,0h.17l.07,0,.08,0h.24l.07,0,.07-.05.07,0,.05-.05,0-.05,0-.05,0,0v0l0,0v0h0l0,0v0h0l1-.31,1.77,1.68.48.79-.52.77.09.52-.79.8,0,.26.07.24.07.24.1.24.12.24.12.24.14.24.15.22.16.21.1.05.07.05.05.07,0,.07,0,.07,0,.1,0,.07v.39l0,.14,0,.17.08.14,0,.14.1.15.1.12.09.14.07.15,0,.14,0,.17,0,.14,0,.12v.22l0,.09,0,.1,0,.12.05.1.1.09.07.07.1.08,0,.07,0,.07,0,0v.07l0,.07,0,.07,0,.08,0,.09,0,.07.05,0,0,.07.07.05,0,.05.05.05,0,.05,0,0,0,.05v.05l0,.07,0,.05v.14l0,.08,0,.07,0,.05,0,.07,0,.07.05.07V400l-.05.07,0,.08v.57l0,.27,0,.28.07.27,0,.29.1.26.09.26.12.27.15.26.14.27.17.24.19.24.19.24.1.14.07.14.07.15.05.14,0,.14,0,.17,0,.15,0,.16,0,.15,0,.17,0,.14,0,.29v.29l0,.28,0,.29,0,.29,0,.29.07.29,1.54,4.65.88-.14,0,0-.89.15.31,1.13.65,1,.7-.09h0l.07.33-.67.1.1.38,0,.32.38.4,0,0,0,.07,0,.17v.31l-.19.22-.12.4.14.51,0,.24,0,.21.1.39.1.36.09.36.12.36.15.36.14.36.19.36.17.36.19.33.22.34.24.33.07,0,.07.07.07.1,0,.07,0,.1,0,.07,2.11,2.74-5.39,8.61-3.68,1-.21.27.21.53-.6.14-.21,0-.22,0h-.69l-.22,0-.24,0-.21,0-.22.05-.19.07-.22.07-.19.1-.19.09-.17.12-.17.1-.17.14-4,.89-2.73.1-.07,0-.08,0h-.12l-.26,0-.19,0-.19,0-.2,0-.21,0h-.39l-.21,0-.19,0-.2,0-.19.05-.07.09-.1.08-.09.07-.12.07-.1.07-.14.05-.12,0-.15,0-.19,0-.21,0H510l-.22,0-.19,0-.22-.05-1.27-.07h-.14l-.12,0-.15,0-.11,0-.1.05-.12.07-.1.05-.07.09-.07.08-.29.12-.31.09-.29.12-.31.07-.31.1-.34.05-.31.07-.31.05-.36.05-.34.07-.31.07-.34.1-.31.09-.33.1-.24.09-.24.1-.22.07-.19.05-.22.07-.21,0-.22,0-.24,0h-.43l-.24,0H500l-.09-.38-.1-.38-.12-.39-.14-.38-.15-.36-.16-.36-.17-.39-.19-.36-.22-.36-.22-.33-.21-.36-.17-.12-.14-.12-.15-.12-.12-.14-.09-.15-.1-.17-.1-.14-.07-.22-.05-.19,0-.21-.05-.22v-.62l0-.22.05-.22.05-.19.07-.21.1-.2.09-.21.12-.19.12-.17.17-.75.14-.74,0-.26v-.27l0-.24,0-.26,0-.24-.05-.27-.07-.24-.09-.24-.1-.26-.12-.21-.12-.24-.43-.8-.05,0-.05-.08v-.07l0-.09,0-.08v0l0-.05-.05-.07-.26-.32-.17-.21-.17-.22-.17-.17-.17-.14-.24-.26-.16-.2-.17-.21-.07-.1,0-.05,0,0v-.12l0-.05,0-.05.07-.09.12-.12.07-.12.07-.22,0-.17v-.14l0-.07,0-.07-.12-.22-.07-.1-.12-.16-.12-.17-.08-.12,0-.1v-.07l0-.07,0-.05,0-.05v0l0-.12-.05-.07-.07-.09-.15-.17-.14-.22-.14-.14-.1-.12-.07-.1-.1-.17-.14-.14-.07-.07-.1-.07-.1-.05-.24.14-.07,0-.17.1-.16.1,0,0-.17.1-.05,0-.5.34-.12-.12.17-.12.05,0,.28-.2.22-.14,0,0,.15-.07h0v0l.15-.1,0,0,.29-.17,0,0-.05,0,0-.05,0,0-.15,0-.12-.05-.12-.07-.09,0-.1-.1-.07-.07-.07-.07-.1-.05-.1,0-.09,0h-.1l-.12,0-.09,0-.08,0-.09.34-.1,0h0l.12-.29-.12,0-.1.27h0v0h-.1l-.43.17-.1-.14-.38.14-1.08.43.1.12-.12.05-.08,0,0,0,.12-.05-.07-.14.45-.17.05,0,1.06-.4.07.14.48-.19.12-.29v0l0,0-.21-.05-.1-.05-.07,0-.12,0h-.07l-.07,0h-.08l-.16,0h-.48l-.2.05-.12,0-.09,0-.1,0h-.05l-.12,0-.09.05-.05,0-.1,0-.07.05h-.09l-.05,0,0,0v0l-.09.1-.17.12-.12.07-.1.07,0,0-.08.05-.09.07-.07.05-.05,0,0,.05,0,0h-.17l-.05,0,0,0,0,0-.05,0,0,0-.05,0,0,0v0l0,0-.1,0h-.33l-.12,0-.12,0h-.31l-.12,0h-.12l-.08,0h-.07l-.07,0-.1,0-.07,0-.07.05-.05,0-.05,0h-.14l-.17,0h-.09l0,0-.14,0-.07,0,0,0h0l-.07,0-.08,0,0,0v.1l0,0,0,0-.19,0h-.36l-.24,0h-.12l-.07,0-.07,0,0,0,0,0,0,0,0,0v.05h0v0h-.05v0h0l-.12-.07-.89-.22-.41-.24-.12,0h-.14l-1.13-.46h-.05l0,0v0h0v0l0,0h.05l0,0,0,0,0,0v0l0,0,0-.15-.05-.14-.05-.14-.21-.1-.22-.07-.19-.07-.15,0h-.12l-.12,0-.14,0-.12,0-.12,0-.12,0-.14.07-.12.1-.1.07-.1.09-.09.12-.07.1,0,.12-.05.12,0,.07.05.05.07.05.08,0,.07,0,.09,0,.08,0h.09l0,0,.07,0h.17l.07,0H480l.07,0,.05,0,.05,0,.05.05,0,0,0,0,.17.17,0,.1-.1,0-.05,0v.07l-.05,0,0,0-.34,0h-.34l-.43.07-.48.07-.21,0-.29,0-.34.05-.26,0-.27.05-.36.09-.28.1-.34.1-.46.19-.19.07-.16.05-.39.14-.36.12-.24.07-.41.1-.28.1-.34.07-.29.07-.12,0-.26.08-.19.07-.17.05-.17,0h-.34l-.16,0-.15,0-.14-.05-.15,0-.14-.08-.14-.07-.12-.07-.1-.1-.12-.09-.1-.07-.14-.1,0-.1,0,0-.1-.48v-.07l0-.12,0-.1,0-.09.05-.1v-.14h0v0l0,0,0,0v0h0v0l0,0h.07l.05,0,.07,0,.07,0,0,0,.05-.1,0-.05v0l0-.08,0,0,0-.05,0-.05,0,0v0l0-.07-.07-.17,0-.09,0,0-.05-.14,0-.12,0-.07-.05-.17,0-.19,0-.17-.05-.1-.05-.12v-.09l0-.1,0-.12,0-.21v-.1l0-.12,0-.17,0-.17v-.14l0,0v0l0,0,0,0v-.05h0l0,0h0v0l.05-.12,0-.09.08-.2,0-.09,0-.1,0,0v-.07h0l0,0v-.07h0l0-.05v-.17l0-.14v0l0,0,0,0,0,0,0,0,0,0v0l0-.17v-.12l0,0v0l0-.05,0,0v0h.05v-.05l0-.05,0,0v0l0,0,.05,0v0h-.05l0,0,0-.05,0,0,0-.05.05-.05,0,0,0,0h0l0,0v-.07l0,0,0-.05v-.14l0-.17V415l0,0,0,0,0-.05,0,0v0l0,0v-.05l0,0v-.12l0-.05,0-.05v-.24l.05-.24,0-.1v0l0-.05v-.24l-.09-.15,0,0,0-.05,0,0v-.07l0,0v0l0,0-.09-.16v0l0,0,0-.05,0-.05,0-.05v-.16l0,0v-.14l0,0,.05,0v-.14l0-.05,0,0,0,0v-.05l0-.07V412l0-.07-.05-.09v-.07h0v0l0,0,0,0h-.1v0h0v-.05h0v-.12l0,0,0,0v0l0,0v0l-.05-.09v-.15l0,0v-.05l0,0v0l0,0v-.34h0v0l0,0-.05,0,0,0v0h0v0h0v0h0v0l0,0,0,0v-.16l0,0,0,0v0l0,0V410l0,0,0-.07,0,0v-.15l0,0v0h0v0h0v-.05h0v-.33l0,0v0h0v0l-.05-.09,0,0v-.19l0-.05,0-.07v-.07h0v-.1l0-.05,0-.07v-.07l0,0v-.08h0v0l0,0v-.05l0,0v-.09h0v-.05l0-.07v-.07l0-.05v-.1l0,0v0l0,0v0l0,0h0l0,0h0l0,0h0v0l-.05-.1,0,0,0,0v0l0,0v0l0,0v-.08l0,0v-.05l0-.05v-.07l0,0V407l0,0v0h0v0l0,0,0,0,0,0h0l0,0,0,0v0l0,0v0l0,0v0l0,0v-.05l0,0v0h0v0h0v-.1h0v0l0,0,0,0,0,0,0,0v0l0,0,0,0,0,0v0l0,0,0,0v0l0,0v0l0,0v0l0,0,0,0v0l0,0,0,0,0,0-.12-.09,0,0-.05,0,0,0,0,0h0l0,0,0,0,0,0v0h0v0h0l0,0,0,0,0,0h0v-.05h-.05l0,0h0v0h0l-.05-.05,0,0-.05-.05,0,0v-.1l0,0v0h0v0h0v0h0l0,0h0v0h0v0l0,0v0l0,0v0h0v0h0v0h0v0l0,0v0l0,0v0l0,0h0v0h0l0,0v0h0v-.05l0-.07v-.12l0,0v-.07h0v0l0,0h0l0,0-.05,0v0l0,0,0,0,0,0,0,0v-.22l0,0v0l0,0,0,0,0,0,0,0,0,0-.05,0,0-.05h0v0h0v0h0v0l0,0v0l0,0v0l0-.05v0h0v-.07h0v-.08h0v0h-.15l-.05,0h0l-.05,0h-.07v0h-.05l0,0v0h0l0,0h-.07l0,0,0,0,0,0,0,0,0,0-.05,0,0,0-.05,0,0,0,0,0,0,0,0,0v0l0,0v0l0,0v0h0v0l0,0h0v-.05h0v0h0l-.05,0H466l0,0h0v0h0v0l0,0v-.08h0v0h0v-.05h0l0,0V402l0,0h0v0h0v-.05l0,0v0h0v-.05h0l0,0,0,0h0v0h0v-.05h0l0,0v0l0,0,0,0v0h0l0,0h-.08v-.1l0,0,0,0,0,0v0l0,0,0,0,0,0,0-.05,0,0h0v0h-.12l0,0h0v0h0v0h-.05v0l0,0v0h0v-.16h0v0h0l0,0v0l0,0,0,0v0l0,0,0-.05v0l0-.1,0,0v0l0,0h0v0h0v0l0,0v0h0l0-.05,0,0,0-.05v0h0v-.05l0,0,0-.05v-.05h0l0,0h0l0,0h0l0,0,0,0,0,0-.07,0v0h0v-.05h0v0l0,0h-.07l0,0h0l0-.05-.05-.09,0,0-.17-.12-.05,0-.07-.08-.07,0-.07,0-.1,0-.09-.05,0,0,0-.05-.07-.05-.05,0h-.07l-.05,0L463,399h-.05l-.09,0-.1,0-.07-.07h-.15l0,0-.05,0h0v0h0l0,0h-.05l0,0h0l0,0h0l0,0H462l-.05-.1,0,0,0,0h0l-.05,0-.05,0h0l-.05,0v0l0,0,0,0h0l-.1,0-.05,0,0,0v-.05h0v-.07l0,0,0,0,0,0h-.1l0,0h-.1l-.09,0h0l0,0-.05,0h0l0-.05,0,0v0l0,0-.05,0-.05,0h-.12l0,0h0v0l0,0-.05,0-.14-.05-.12,0-.07,0-.05,0,0-.05-.05,0,0,0-.09,0,0,0,0,0h0v0l0-.12,0,0,0,0,0,0,0,0-.05-.07-.07-.07,0-.05-.07-.1,0,0h-.15v0l0,0h-.07l0,0,0,0,0-.05h-.05l0,0h0l-.05,0h0l0,0V397l0,0H459l0,0h0v0l0-.05-.09-.1,0,0-.09-.05-.05-.05-.07,0-.12-.05,0,0,0,0v0l-.05,0,0,0h-.07l-.07.05h-.05l-.12-.05,0,0h-.09v0l-.07,0,0,0,0,0h0l-.05,0h-.07l-.1,0h0l0,0,0,0h0l-.1,0,0,0,0,0h.07l0,0h0l0,0h-.12l0,0,0,0,0,0h-.05l0,0h0l0,0v.07l0,0H457v0h.12v0H457l-.14,0,0,0h0l0-.07,0,0v0h0l0,0h-.05l-.07,0h-.27l0,0h-.07l0,0h0l0-.05,0,0h.05v0h0l0,0h-.1l-.05.05,0,0h0l-.05,0h0v0l0-.05,0,0,0,0-.07,0h-.1v0l-.05,0h0l0,0h0l0,0h0v0l.05,0,0-.05.05-.07,0,0v0l0,0-.05-.05,0,0-.08,0-.07-.05-.05,0h-.07v0l0,.05h0l0,0h-.12l-.05,0,0,0v0l0,0h0l-.05,0-.05,0,0,0-.08,0h0l-.05,0-.05,0,0,0v-.05l0,0h0l-.05,0h-.09l-.07,0h-.15l-.07,0,0,0,0,0V395H454l0,0h-.07l-.05,0,0,0,0-.05-.07,0,0,0,0,0h0l0,0h-.14l0,0,0,0v0l0,0h-.17l0,0h0v0l0,0h0l.05,0v-.05l0,0,0,0-.1-.1-.07-.05,0,0h0l-.05,0h0v0h0v.05l0,0v0l0,0h-.1l0,0,0,0v0l0,0-.05,0h-.05l0,0h0l0-.05h0l0,0h0l0,0h0l-.05.05-.07,0-.05,0v0h0l0,0h0v0h0v0h-.1v0l0,0,0,0,0,0h0l-.07,0,0,0h-.07l-.07,0,0,0,0,0,0,0,0,0h-.07l0,0,0,0-.1,0,0,0,0,0v.05l0,0,0,0h0v0h0v0h-.07l0,0h0l0,0h-.07l0,0v0h0l-.05,0h-.05l0,0H451l-.05.05v0l-.05.07-.05,0,0,0-.1,0-.07,0-.1.07,0,0,0,.05,0,0v0l0,.05v.07l0,0,0,0,0,0h0v0h0l0,0h0v0h-.1l0,0v.1H450l0,0,0,.05v.09l0,0v0h0l0,0h-.05v0l-.05.05,0,0v.05h.12v.07l0,0,0,0h0v0l0,0,0,0v.12h0l0,0h0v.05h0v0l0,0v0l0,0,0,0h-.07l0,0h-.09v0l0,0-.05.05,0,0v0l.05.07,0,.05v.07l0,0,0,0v.05h0l0,0h-.08l0,0,0,0h0v.07l0,.07v.05l0,0,0,0,0,0v.05l-.05.07-.05.1-.05.1v0l0,0h0v0l0,0v.07h0l0,0,0,0v0l0,0v0h0l0,0h0l0,0h0v0l0,.05v0l0,0h0l0,0h-.05l0,0,0,0,0,0,0,0h-.07l-.05,0h-.05l0,0h-.1l0,0,0,0h0l0,0v0l0,0h0l-.05,0,0,0h0l0,0v0l0,0h0l0,0h-.05l0,0h-.1l-.05,0h0v0h0v-.07h0l0,0h-.16l0,0,0,0h-.07l0,0h0l-.05,0h0l0,0h0l0,0h-.05l-.07-.05-.1-.05-.07,0-.05,0,0,0,0-.05,0-.05,0-.05,0,0-.05,0h0l-.08,0,0,0-.05,0-.1-.09-.07-.07-.1-.05-.14-.05-.12-.1-.12,0-.07,0-.12-.14h0l0-.07h0v0h0l0,0-.1,0h-.05l-.16-.07-.05,0h-.05l-.07-.05-.05,0h0l0,0-.12,0h0v0h0l0,0-.08-.07,0,0,0,0-.05,0-.07-.08-.08,0-.19-.12h0l-.07,0-.05-.05-.12-.12,0,0,0,0-.05-.05,0,0,0-.05,0,0-.07,0,0,0-.07,0-.17-.07,0,0-.12-.05,0,0-.07,0,0,0,0,0h0v0l-.12-.09-.09-.1h0l0,0,0,0,0,0,0-.08,0,0,0,0,0-.05,0,0,0,0,0,0-.05,0-.12,0,0,0h0l0,0-.14-.09-.22-.15-.07-.05-.14-.12-.08,0,0,0h0l0,0-.12,0,0,0h0l0,0,0,0,0,0,0,0v-.09h0v0h0v0l0,0,0,0,0,0v0l0-.09,0,0,0,0,0,0h0l0,0h-.31l-.24,0h-.05l0,0-.07,0h0l0,0h-.05v0h0v0h0v0l-.05-.07,0-.05-.05-.14v0l0,0v-.05l0,0,0,0,0,0,0,0,0,0h0l0,0h0l-.05,0h-.05l0,0h-.24l-.17-.07-.16-.1-.08,0,0,0-.08,0,0,0v0l0,0-.05-.05,0,0,0-.07-.05-.05,0-.07v-.07l0-.05v-.09l0-.08,0,0v-.12l0-.08,0,0,0-.05.1-.07.07-.05h.1l0,0v0l0-.05v0l0,0,0-.05.05,0h0l0,0,.05,0,.07,0,.1-.07.19-.15.07-.05,0,0v-.1l0,0,0,0v0l0-.05-.07,0-.05,0h0l0,0v0h0v-.1l0,0,0,0,0,0-.05,0,0,0-.05,0-.05,0h-.21l0,0,0,0-.05.07,0,0,0,0-.08.05-.07,0-.05,0h0l-.08,0,0,0-.08,0-.07.05-.07,0,0,0-.05,0h0l-.08,0-.14-.07,0,0,0,0v-.07l0-.05v-.07l0-.1,0,0,0,0,0,0h-.05l0,0,0,0-.05.05,0,.07,0,.08,0,0-.05.07-.05.05-.07.05h0l-.1.05-.07,0h-.07l-.08,0-.09,0h-.1l-.07,0,0,0-.09,0-.05-.05-.07-.05,0,0-.05-.05,0,0h0l0-.05,0,0,0,0h-.05l-.07.05,0,0,0,0h-.09l-.1,0-.05,0,0,.05v.05l0,.05-.05,0,0,.08-.1.09-.14.07,0,.05-.07.07-.05.05,0,.05,0,.05-.08.09-.09.1-.07.1-.05,0-.1.08-.07,0-.1.05-.07,0-.05,0,0,0,0,0,0,.07,0,.08-.07.12-.05.09,0,.1-.05.17V393l0,0,0,0,.07,0,.09,0h.22l.1,0,.07,0,.05,0,0,0,0,.07,0,.1,0,.09,0,.1.07.12.12.12.1.12.05.07,0,.05.07.09.1.1,0,0h.07l.1.12.07.08.07.09.12.12.1.07.12.1.09,0,.1.05h.07l.05,0h0l.07,0,.1,0,.07.08.05,0,0,0,0,0,0,0,.07,0,0,0,.08,0,0,0,.19.12.12.09.05,0,0,.07v.05l0,0,0,0,0,0h.1l0,0,0-.05.07-.07.05,0h.26l.34.05.09,0h.17v0h.05l0,0,0,0,.05.05,0,0,0,.05.05.05,0,0,0,.07.12,0,.1,0,.05,0,0,0,0,.05,0,.07,0,.1,0,0-.07.1,0,0h.05l.1,0,.09-.05,0,.07,0,.08v0h0l0,0,0,0,0,0,0,0v.08l0,0,.07.05.07,0,0,0,.05,0h.16l.05,0h.12l.05,0,.07,0h.1l.05,0,.09.07.12,0,.1,0h.07l.05,0v0l0,0V397l0-.12,0,0h.05v0h0v0h.07l0,0h0l.09,0,.05,0,.07,0,.08.05,0,0v.12l0,0,0,0h0l0,0,0,0v0l.05,0,0,.05.08,0h.09l0,0,.05,0,.05,0h.09l.05,0,.07,0,.15,0h.14l.1,0h0l0,0v.14l0,0h0l0,0,0,0,0,0,.05.05h.07l.05,0h.1l0,0,0,0,0,0h0l.07,0,.05,0,.09.08.1.07.07,0,.07,0,0,.05v0h.07l.05,0,0,0v0l0,0-.05,0v0h.05l0,0h0l0,0,.1.07,0,0,.05.05.07.07,0,.05,0,.07,0,0,0,0,0,0h0l.05,0v0h0l0,0,0,0,0,0h.07l.05,0,0,0,0,.05.07,0,.05,0,.07,0,.09.05h0l.05,0,0,0,0,0v0h0l0,0,0,0,0,0,.07.05,0,.05,0,0v.07l0,0v0l0,0h0l0,0h.1l0,0v0l.05,0,.05.05.07.07.05,0,.09,0,.05,0h0l.1.09h.05v0l0,.07v0h0l.05.08,0,0,0,0h0l0,0,.07,0v0h0l.15.12.07,0,.05.05.05.05h0l.05,0,.09.05.12.05.1.05.07,0,.05.05h0l.05,0,0,0,.16.09.08.08h0l.07.07.07.07.12.1.05,0,0,0v0l.07.1.05.05v0l0,0,.05.1,0,0,0,0h0l0,0v0h0l0,0,0,0,0,0,.14.07.17.12.07.05,0,0,0,0,.07.05.2.17.21.16.05.05,0,0,.05.07h0l0,0,.1.12.14.17,0,0,.05,0,0,0,.08,0h.07l.12.05,0,0h.05l0,0,.08,0v0l0,0h0l0,0,.05.09.07.07,0,.05,0,.05,0,.05v.05h0v0h0l0,0h0l0,.05h.05l0,0,0,0h0l.1.1,0,0,.24.17.12.07.12.1.05,0,.07.05,0,0,.05,0,0,0,0,.05.07.1.1.12,0,0,0,0,0,0,.05,0,0,0,.05,0h0l0,0,.05,0,0,0v0l0,0,0,0,0,0,0,0v0l0,.07,0,.05,0,.12,0,.07,0,.05v0l0,0,.16.19,0,.14,0,0v0l0,0v0l0,0,0,0,0,0,.05,0,0,0v0h0v.09l0,0h0v0h.05l0,0,0,0,0,0,0,.05,0,0,0,0,0,0,.05,0,0,0,0,0,0,.05,0,0,0,.05.05.07,0,0h0v0l0,0v0h.12v.05h0l0,.07v0h0v0h.15v0h.07v0h.05v0h0v0l0,0h0v0H453l.05,0,0,0h.05l.05,0,0,0h.05l0,0h.05l.05,0h.07l.05,0h.07l.07,0h.07l.07,0H454v0h.32l0,0,.05,0h0l0,0,0,0,.05,0h.07l.05,0,.05,0,.07,0h.1l0,0h.19l0,0h.05l0,0h0v0h0l0,0v0h0v0l0,0v0l0,0,0,0,0,0,0,0v0l0,0h0l0,0,0,0h0l0,0h.07v0h.05l0,0,0,0v0h0l0,0v0h0l0,0,0,0h0l0,0h0l0,0h0v0h0l0,0,.1.09,0,0,0,0,0,0,0,0,.07,0h0v0l.19.12.17.1.12.09.07.05h0v.05l0,0v0l.1,0,.07.08.19.09,0,0,0,0,.07,0h0v0l0,0,0,0,.07,0,0,.08.07.07.1.07,0,.05,0,0,.05.05,0,0v0l0,.07,0,0,.05.1v0l0,0,.05.05,0,0,.05.05,0,0h0v0l.09,0,.05,0,.05,0,.12,0,0,0h.05l.07,0,.05,0h.05l0,0h0l0,0,0,0,.05,0,0,0h0v0l0,0,.05,0,0,0,0,0,0,0,0,0,.07.1h0v0l0,0,.05,0,0,0h0v0l0,0,0,0,0,0,0,.05,0,.07.15.22v0l0,.05,0,0,0,0,.12.14.09.12.08.1.09.07v0h0l.07.05.05,0,0,0v0l.07.17,0,.07,0,0v0l0,0v0h0l0,0,0,0,0,0v0l0,.05v0l0,0h0l.12.05.12,0,.05,0,.05,0,0,0,.05.07,0,0,0,0,.05.07,0,0,0,0h0v0h0v0l0,0,0,0,0,0h0v0h.14l0,0V413l0,.05.05,0,0,.05v0l0,0v0l.05,0,0,0,0,0v0l0,0h.07l0,0,0,0,.07.05,0,.05,0,0,.05.05v.22l0,0v.07l0,0V414h0v0h.08l0,0h0l0,0h0l0,0h0l0,0,0,0,0,0,.05,0h.12l0,0h0l0,0v.05l0,0,0,0v0l.05,0,0,0h.05l0,0,0,.05,0,0,0,0,0,0,.05.05H463l.07,0h.05l0,0h0v0l0,0,0,0,.07.05h.14l.05,0h.07v0l0,0h0l0,0h0v0l0,0v0h0l.1,0h.07l0,0h.07l0,0v0H464l0,0,0,0v0h.1v0l0,0,0,0,0,0h.15l.09,0,.05,0,0,0h.05l0,0,0,0,.05,0,.05,0,0,.05h0l.05,0,0,0,0,0v0l0,0h0l.05,0,0,0,0,0v0h0l0,0h0l0,0v.07l.05.07.1.08.07.07.09.07.1.07h.17l.05,0h0l0,0,0,0h0l0,0h0v0l0,0,0,.05.05.14,0,.1v.05l0,0,0,0,0,0h0v0h0l0,.05v0l0,.05V417h-.1v0l0,0v.12h0l0,0,0-.05v0h.12l0,0,0,.12,0,.05,0,0,0,0,0,0H466l0,0h0l.07,0,0-.05,0-.05v0h.05l0,0v0l0,.08v0l0,.05v.05l0,.1,0,.09,0,.1v.05l-.05,0,0,.05,0,0v0l0,0-.05.05-.1.1-.07.05-.07,0-.05,0,0,0,0,0-.05,0-.24.1-.19.09-.22.1-.17.09-.31.12-.21.12L464,419l-.22.07-.26.12-.27.12-.28.12-.12.07-.32.15-.09,0h0l0,.05,0,0,0,0,0,0h0l0,0v.05h-.08v0H462l-.05,0-.05,0-.12.07-.09,0-.05,0-.1.05-.07,0-.1.05-.09,0-.1,0,0,0-.12,0-.12.07-.22.12-.19.15-.19.12-.17.17-.19.14-.15.17-.14.17-.14.16-.12.2-.12.16-.1.2-.05.12.12.12,0,0-.05-.05,0,0-.05,0,0,0,0,0-.07,0h0l-.09,0-.12.07-.07.08-.1,0-.1,0-.07.08-.09,0-.17.07-.12.05h-.07l-.05,0-.1,0-.07.05-.07,0,0,0-.07.05-.24.19-.07-.09h-.17l-.15-.12,0-.07-.15,0,0,0-.17-.1-.22,0-.19.07H456l-.14.07h-.29l0,0h-.08v.07l.24,0v0l-.21,0v.07h-.07v-.05h-.08v0l.1,0,0-.05v0h-.12V423h-.15l-.07,0-.12.12-.14.05-.12,0-.17,0-.19,0,0,.07-.07,0,.19.19,0,0,.07.05.07-.05.05.05-.14.09,0-.05,0,0-.08-.05-.19-.17-.07.05.05.07-.12.1,0,0,.12.22.08.07-.05,0-.07-.09-.12-.2-.05,0-.07,0-.05,0-.15,0h-.52l-.08,0,0,0-.43-.07,0,.05.05,0-.05.05,0,0v0l-.05,0-.12.14-.1,0,.19-.24,0,0-.07,0,0,0H452l-.09-.07-.24-.24v-.05l-.1,0-.19,0-.17,0h-.28l-.2.09h0l-.22.1-.1-.05-.21-.07-.36,0-.36,0-.29.07-.29.14-.07.1h0l-.09-.07-.08-.1h-.09v0l0,0,.07.1v.05h0l-.38.14-.7.12h-.36l-.19-.07-.07,0-.05,0-.15-.1-.21-.07-.05-.07v-.08l-.1,0,0-.05-.32-.29.08-.19-.24,0-.1-.1-.1-.14-.14-.12v-.12l-.14,0-.27-.22-.12-.09.05-.1-.17,0-.07-.07-.14-.12-.12-.12,0-.08,0,0-.12.07-.2-.17-.16-.17.12-.07-.05-.05-.1,0-.21-.12-.07,0-.2-.19.12-.07-.09-.07-.1-.08-.12-.07-.09-.09-.12-.12,0,0h0l-.05,0,.34.32,0,0-.41-.36.05,0,.05,0,0,0,0,0H443l0,0-.09-.09-.07-.1-.12,0-.08,0-.09.08-.53.31.48-.34h0l0,0,.07-.05,0-.07.07,0v0l-.14-.15.1,0,0-.05-.12-.22-.07.05-.14.07-.05.05h0l-.09.07,0,0-.12.07h0l-.12.07,0,0-.12.07-.27.15.15.14v0l-.1,0-.29-.28.1-.05.14.12.17-.12.07,0,.27-.14.12-.1h0l.22-.14v0l.19-.12-.15-.16.1-.08,0,0-.05,0,0,0-.12,0-.21.15-.27.14-.24.17,0,0-.22-.19,0,0,.14.14.12-.07h0l.1-.07.05,0,.12-.07,0,0,.07,0,.17-.07,0,0v0l0,0,0,0,0,0v0h0l0,0,0,0,.05,0,0,0-.22-.22-.07,0-.05,0-.21-.36,1.17-.77.29-.17.55-.33,0,0,0,0,.51-.34.55-.34.55-.36.58-.33.52-.34.58-.36.5-.33.53-.36.53-.36h0l-.21-.22-.24-.19-.1.07-.05,0-.12.07,0,0-.12.1-.05,0-.12.07,0,0-.12.08-.1.07,0,0-.24.17,0,0-.26.17,0,0-.09.05,0,0-.24.17v0l-.5.32-.94.57,0,0-.28.16-.22.15-.36.21-.53.36-.57.36-.53.36-.94.63,0,.05-.72.45-.36-.26h0l-.07,0v0l0,0,0,0,0,0,0,0h0l.26.19h0l-.19-.14h-.05l-.12.1-.07,0,0,0-.05.05-.05,0,0,0-.1.08-.09.07,0,0,.1.07v0l-.19-.17h0l0,0h0l.1.07.09-.07,0,0,0-.05.07,0,0,0,0,0,.05,0,.07-.07.12-.07,0,0-.12-.1,0-.05,0,0,.07-.08h0l-.12-.09-.31-.17-.07.05-.19.14-.05,0,0,0-.05,0-.05,0-.12.09v0l.1.07,0,0-.12-.12.24-.16.05,0,.29-.19-.07,0-.05,0-.07-.05-.22.15-.67.48,0,0,.12-.09-.14-.12,0,0,.15.15.12-.1-.15-.12h0l.14.1.12-.08-.14-.09,0,0,.15.12.09-.09-.12-.1v0l.15.12.12-.1-.15-.12,0,0,.14.14,0,0,0,0,0,0,.05,0h0l-.05,0h0l.05,0,.07-.05-.36-.14-.22-.07v0l-.24-.05-.24,0-.55-.12-.22-.07-.24-.1-.14-.1,0,.1,0,0,.22.12.19.08v0l.26,0,.46.12,0,.05-.36-.09-.36,0-.48-.26-.21-.17-.31-.24-.12-.14-.05-.08h0l-.26-.19.05-.05.29.24.09,0,.22.21-.1.05.22.17.09-.07-.14-.12-.24-.27-.12-.21.14-.17,0,0-.2.05,0-.05-.2.05,0,.12h-.07l-.08-.55h.08l0,.38.2,0-.15-.38,0-.08h-.2v0h0l-.05-.53h.1l0,.48.2,0,.07-.48,0-.24v-.34h-.05v0h0v0h-.17v.55h-.05v-.6h.29l0,0h.05l0-.07h-.41l0,0,.44,0,0-.1-.5,0V414h.4v0l.1,0,.14-.17-.09-.07-.19.12v0h-.08v0h-.07l0-.53,0,0,0,.48h.1v0l.12,0-.08-.05.05-.31.12-.48-.09,0-.2.34-.07,0,.19-.31.08-.05v-.43l0-.26v-.22H437v.22l0,.36v.33l.08,0,0-.12.05-.36,0-.12,0-.07,0-.1v0l0-.19h-.12v.12l0,0,0,0v-.19l0,0v-.17l.05,0-.05.26.12,0v-.1l0-.17.14.12.05-.05-.07,0,0,0h0l-.09-.07h0l-.14-.12h0l.05-.05,0,0,.05,0,0,0,0,0-.14.1.09.07h0l0,.05,0,.05,0,0,0,.05.12-.17,0,0,.15-.22h0l-.14-.07,0-.05h0l-.14.17-.05,0,.05-.07,0,0,.05,0,0-.05,0,0,0,0,.05,0,0,0,0,0,.15.07.07-.17.07-.05v0h0l-.12,0h0l-.12,0h-.05v0l0,0h0l0,0,0,0,0-.07v0l0-.05h0l0,.07,0,.07.09,0,0,0v0l.05,0,.09,0h0l.09,0,.22-.39-.05,0h-.09v0H438l-.17,0,0,.19-.05,0,0,0v0l.07-.24,0,0,0-.12.05,0-.08.24.15,0,.17,0h.09l0-.07,0-.12-.05-.09,0-.12H438l0,0h-.24v0l.24,0,.2,0,0-.07-.12-.17,0-.1,0-.12v-.09l0-.15-.1-.17,0-.12,0-.12-.12-.16-.34.21,0,.07h0v0l0,.07v0l.05.08.05.12v0l0,0,0,.05,0,0,.05.12-.05,0-.12-.22v0l-.05-.1,0-.09-.07-.17-.12,0,0,0-.28.14-.12-.12.26-.14.05,0-.17-.14-.17-.19,0-.05,0,0,0,.05h0l.05.07h0l.05.08,0,0,0,0,.09.1,0,0,0,0v0l0,0,0,0,.48-.28-.12-.12-.16-.15-.15-.09L437,408l-.16-.09-.1,0h-.05l-.26.15,0,0,0,0,.07.07h0l.08.07.09.1,0,0-.05,0-.05,0v0l-.07-.08h0l-.07-.09h0l-.07-.07v0l-.08-.07.05,0,.07.07.2-.12-.08,0-.12,0-.09.09,0,0-.19-.05,0,0L436,408l-.08.05-.11.09-.17.1-.12.07.07.1v0l0,0-.08-.07-.07-.08h0l0,0,.07.05.05-.05.07,0,.15-.1.14-.1,0,0,.08,0,0-.05,0,0-.1,0h-.19l-.09,0v0h-.17l-.12,0h-.19l-.15,0-.14,0-.05.24h-.22v.14h0V408l.24,0,0-.09v-.12l.17-.05.12,0,.17,0,.36.05.23,0,.08,0,.26.07.12-.07,0,0,0,0,0,0-.07,0-.24-.12-.22,0-.28,0-.24,0-.24,0-.24,0-.32.05h-.07l-.05,0-.12-.05-.14-.12-.07-.07-.07-.08-.1,0-.07,0-.1,0h-.07l-.1,0h-.09l.07.12h0l0,.07,0,0,0-.07-.28.12,0-.05.24-.1-.07-.14-.14,0-.08-.05-.12.05-.24.12,0,.07,0,.17,0,.07v.05l.05.15.12.4.05.2.14.21.15.12.14.15.17.16.34.56.28.5.17.36.15.17.12.29h0l.14,0-.14-.29,0,0,0,0h.05l0,.07.26.58h0l-.14-.24h-.08l-.09.05h0l.1.19,0,.05v.05l.1.07.1.07,0,.14.1.32,0,.07,0,.05.05,0V412l.21,0,.07.05.1.09.1.1,0,0-.12,0-.09,0-.1.05-.09,0-.08.24.72-.24v.19l0,0h-.12v0h-.17v-.05h0l-.34.12.1.17-.1.05-.07,0,0,0,0,.08.36-.1,0,0,.07,0,0,0,.21-.08v0h.05l-.05.24h0l0-.17-.28.09-.1.51h0l.09-.51-.31.1-.05,0,.05.12-.14.05,0,.1-.05,0,0,.12h.1v-.09h0l.08.28h-.05l0-.16v0l-.14,0,0,.07,0,.17.1.07.12.05.07.57,0,.22,0,.14h.14l0,.17.33,1.75-.14,0,.24.36h0l.09,0,.15.1.07.1.17.24.16.24,0,.21.12-.05.09.12.84-.33,0-.05,0,.07-.84.34-.07,0,.1.15h-.22l0,.09.17,0,.07.07.12.14.08.1,0,0,1.15-.29,0,.05-1.16.28,0,0,.1.24,1.12,1.24,0,.1-.34.05-.57.09-.91.12-1.13.15,0,.29,0,.09.07.1,0,0,0,.29.05.07.12.1.24,0,0-.16.43,0,0,0,.46,0,1.65-.19v0l-1.65.2-.48,0,0,0h-.14v0l-.07,0v0l-.12,0,0,.1.87,0,1.56-.19.09,0,.1-.12.48,0,.17-.07h.19l.36,0,.19,0,.17,0,.21,0,.15.07.12,0,.09.07.15.07.07.07.12.1.07.07.07.17h0l0,.22,0,.16v.08l0,.07,0,.07,0,.05.05,0h.09v.05h-.12l-.07.22,0,0,.38,0V423l-.43,0v-.08l0,0,0,.07-.17.05.22.43h.26l.29-.1.19-.24.19,0,.24,0,.12,0,.08.05,0-.05.05,0,.05-.07-.36-.39h-.1v-.26h.14v.24l.32.31.09.1,0,0,0,0-.05.05,0,0-.08,0,0,.07.07.05.05.05.14.09h.15l0,0,.24.14.22.12.17.1.14.09,0,.1v.05l.17.09.33.22.15-.12-.08,0-.48-.27.08-.07,0,0,.82.43.91.48.19.09-.07.08-.22-.12-1.13-.56-.12.15.1.05.1.07.09.05-.05,0,.32.17.36.19.21.1.17.07.17.07.12.08.07.07.07.05,0,.07,0,0,0,0h.07v0l0,0,0,0,.12,0,.05,0,0,0h.05l.1,0h.07l.1,0h.09l.05,0,.12,0,.12,0,.19.05h.07l.08,0,0,0,0,0,0,0v0l.07,0h0l.1,0h.07l.05,0h.31l.07,0,.05,0h.05l0,0,.08,0,0,0,.05,0h.12l.05,0,.07,0H449l0,0h0v0h.27l.07,0,.05,0,0,0h.22l.1,0h0l0,0H450l0,0,.07,0h.24l.14,0,.12.05.1,0,.1,0,0,0,.05,0h.36l.17,0h.16l.05,0h.19l.1,0,.09,0h.27l.07,0,.1,0,.07,0h.31l.1,0,.14,0,.07,0h.41l.05,0,.05,0h.19l0,0,0,.05,0,0,.08,0h.07l.07,0,.12-.05.07,0,.1,0,.07,0h0l.07,0,.07,0,.07,0h.2l0,0,0,0,.07,0,.08,0h.09l.07,0,.05,0h.05l0,0,0,0,.05,0h0l.05,0,.07,0,.1,0,0,0,.08,0,0,0,.05-.05,0,0h.09v0l0,0,0,0,0,0,.09,0,.08,0h.07v0l0,0,.07,0,0-.07h.05v0l.07,0h0l0,0h.14l.07,0h.1v0l.07,0h.07l.05,0,0,0h0l.12,0,0-.05,0,0,0-.05v0l.05,0,0,0v0h0l.29,0v0l-.1,0,0,0,0,0,0-.1h0l.05.05,0-.07.07,0,0-.05.1,0,.05,0,.07,0,.05,0,.07,0h.07l.07,0,.05-.05.07,0,.08,0h0l.07,0,.17-.05H459v0l0,0v.05l-.05,0v0h0l0,0,0,0,0,0,.05,0v0l0,0v0h0l0,0,0,0h.05l.1,0,.05,0,.07,0,.07,0h0l.08-.07,0,0,0,0h.15l0,0v0l0,0h.1v0l0,0,0,0h.17l.09,0,.12.05.07-.05.05,0h.07l0,0,0-.05h.07l0,0h0l.05-.05h.1l0,0h.1v-.05l.07-.05,0,0h0v-.1l0,0v0l0,0,0,0h0l0,0h.12l0,0h.05l0,0h.05l0,0h.07l0,0h.07l.1,0,.1,0,.07,0,.12,0,.12,0,.07,0,.07,0,.07,0,.08,0,0,0h.05l.05,0,.09,0,0,0,.07,0h.05l0,0,0,0,.05,0,.05,0h.05l0,0,.05,0h.19v0l0,0,0-.07,0,0,0,0,.05,0H464l0,0,.05,0h.33v0l0,0h.12l0,0H465l.05,0h0v0h0l0,0,.05,0h.05l0,0h.1l0,0h0l.05,0,.14,0h.1l0,0,0,0h0l0,0h.05l.05,0,.21.07.05,0,0,0,0,0h.05l.05,0,0,0,.1.05.05,0h.09l0,0h0l0,0,.05,0,.07,0,.07,0,.07,0h.15l.07,0,.07,0,0,0v0l0,0,0,0h.16l.12,0,.1,0,.12.05.12,0,.14,0,.12.05.12.07.12.08.1.07.14.09.1.1.12.1.09.09.32.24,0,.34,0,.07,0,.07v.07l0,.08,0,.07.05.07.05.05,0,.07v.17l0,.07,0,.29v.09l.05.05.05,0h.07l0,0,0,0v.05l0,.05v.12h-.21l0,0,0,.05-.12.15-.05.12,0,.07v.09l0,0v.05h0l0,0,0,0,0,.05v0l0,.05,0,.07-.05.1v0l0,.05,0,0h.15l0,0v0l0,0h0l-.07,0H469l0,0,0,0v.16l0,.1,0,0,0,.05,0,0,0,0h.08l0,0,0,0,0,0h.07l0,0,.08.1.07.05.05.05,0,0,0,.08,0,0,0,0,0,.05-.05,0,0,0-.15,0-.07,0,0,0-.05,0-.05,0,0,.05-.09.1-.12.09-.08.05-.19.05-.14.05h-.07l0,0,0,0v0l0,0,.09-.05.05-.05v-.07l-.05,0h-.05l0,0,0,.05v0l0,0-.07,0h-.1l-.24,0-.19.05-.12.05-.1,0h0l-.08,0-.07,0h-.07l-.14.07h-.41l-.05,0h-.19l-.07,0-.05,0-.05,0-.05,0h0l-.05,0v0h0l0,0h0l0,0h-.05l0,0v0l0,0v0l0,0h0l-.07,0h-.05l0,0-.07.05,0,0h-.08l-.16,0h-.05l-.07,0,0,0v0l0,0,0,0v0H465l0,0h0v0l.05,0,0-.05v-.1l0,0v0l0-.05,0,0,0,0-.05,0,0,0h-.05l0,0,0,0v0h0l-.05.05h-.07v0h0l-.05,0h-.1l-.09,0h-.07l-.05,0-.12,0-.1,0H464l0,0-.05,0,0,0,0,0-.07,0h-.07l-.08,0h-.07l0,0h0v0l0,0h-.34l-.09,0h-.07l-.05,0-.07,0-.05,0,0,0,0,0,0,0v-.05l0,0,0-.05-.09-.12-.08,0-.07-.05h-.05l-.07,0-.14-.05-.1-.07-.07,0h-.07l-.24,0-.12,0-.05,0-.05,0h-.07l0,0,0,0,0-.08-.05,0-.07,0-.07,0-.32,0h-.09l-.05,0v0h0l0,.07.38.22.39.26.05.05,0,.05.05.05,0,0-.05,0v0l.05.05.07,0,.1,0h.14l.07,0,.07,0,.12-.1.12,0h.05l.05,0,0,0,.05,0v0h0l0,0v.1l0,0,0,0,0,0,.07,0,.09,0,0,0h0l0,0h0l0,0,0,0H463l0,0v0l0,.05,0,0v0h0l0,0,.05,0h0v.08l0,0v0l0,0h.05l0,0,.05,0h.05l0,0,.05,0h0l.05,0h0l0,0h.05l0,0,0,0h.24l0,0,0,0,0,0h0l0,0,0,0,0,0,0,0v0l0,0,0,0h.17l.07,0h.08l.12,0h.07l.07,0,.07,0,.07,0,.08-.05,0-.07.08,0,0,0h.15l.07,0,.14.07.08,0h0l.12.05.27,0h.05l.07,0,0,0,0-.08,0,0v0h0l0,0-.05,0,0,0,0-.05,0,0,0,0h0l0,0h.1l0,0,0,0v0l0,0,.05,0h0l0,0,0,0h.05l0,0,0,0,.07-.07,0-.07v0l0,0,0,0,0,0v0l.05,0,0,0v0l0,.05,0,0h.05l0,0h.21l.1,0h.07l0,0,.05,0h0l.08,0h0l0,0v0l.05,0,0,0,.05,0,.17-.12.16-.1.15-.05,0,0h.12l0,0h0l.05,0h.19l.07,0h.12l.05,0h0l.05,0,0,.05v0l0,0,0,0,0,.07,0,.05,0,.05,0,0v0l-.07,0,0,0,0,0h0l0,0h.05l.05,0v-.1l0,0v-.05l0,0h0l.05,0v-.16l0-.08,0,0,0,0h.1l0,0,0,0,.05,0h.07l.08,0,0,0,0,0,.12-.09.09-.05,0,0h0l0,0,0,0v0h.05l.05,0,.07,0,.05,0,.07,0,.12.05.05,0,0,0,0,0h-.2l-.07,0-.07,0h-.07l-.07,0,0,0v0h0v0l.07,0h.17l0,0h.05l0,0h.09l.17,0,.19,0h.1l0,0v-.05h0v0h0l.05,0,0,0,0,0h0l.05,0h0l0,0,.05,0,.12.1.09,0,.15.07.07,0,0,0,.05.08.07.14.1.17.12.24,0,.12,0,0V430l0,.1-.1.14-.1.19-.09.2-.05.07v0l-.05,0,0,0-.05,0H471l-.07,0-.24,0h-.41l-.29,0h-.64l-.24,0h-.41l-.24,0-.36,0-.29.05-.33.07-.17,0-.17,0h-.1l-.09,0-.24-.05-.24,0-.12,0-.22,0-.21,0-.1,0-.1,0-.24,0-.52.22-.17,0-.07,0-.36-.05-.34-.05-.17,0-.21,0-.27,0-.41-.07-.21,0-.12,0-.19,0-.2,0h-.12l-.14,0-.14-.07-.2-.08-.16,0-.17-.05-.22,0-.19-.05-.24-.07-.17-.07-.14-.05-.12,0-.22-.05h-.64l-.1,0-.12,0-.14-.05-.46-.14-.17-.05-.14-.05h-.05l-.17-.07-.17-.07-.31-.1-.21-.07-.24,0-.22-.07-.29-.1-.19-.07-.24-.05-.17,0-.24-.05-.24,0-.24,0-.17,0-.16-.05-.2,0-.19-.07-.24-.07-.26-.08-.24-.07-.39-.12-.21-.07-.19-.05-.2-.05-.31-.07-.24-.07-.21-.05-.24,0-.31,0-.27-.05L451,428l-.32,0-.21-.07-.29,0-.22,0-.16,0-.1,0-.12,0h-.17l-.19,0-.19,0h-.15l-.19,0h-.41l-.24,0-.16,0h-.46l-.22,0H447l-.19,0-.24,0-.24,0-.62,0-.05,0v.07l0,0h0l0,0v0l0,0-.62,0-.51-.08h0l-1.49,0-2,.09-2.19.19,0,.1h-.05l0-.07-.32,0-1.27.22-.17,0-.14,0-.14.05-.15.07-.12.07-.12.1-.07.07-.05.07,0,.08v.09h0v0h0l0,0h0l.12,0h.08v.05l0,0,0,0,0,.07h-.17l-.14-.05h0l-.08.1-.21,0-.17,0-.93-.16h0l0-.12h-.1l0,0,0,0,0,0v0l0,0v-.05l0,0v0h0v0h0l0,0,0,0v0h0l0,0-.09,0-.1-.05h-.12l.1.43-.82-.1v-.07l.65.05.05,0-.05-.29-.58.14,0,0h0l0,0,0,0-.05,0,0,0-.07.05h-.07l-.1,0h-.16l-.08,0-.07,0h-.26l-.1,0-.12,0h-.09l-.12-.05-.27-.07-.17,0-.16-.07v.19l-.41,0-.89,0v-.19l-.29,0,0-.07-.15,0-.16,0,0,.07,0,.19-1.32-.12,0-.21v-.05l-.31,0-.43,0v0h-.07v.17h.09v.24h-.26l0-.24h.12v-.21l-.62-.08h-.07l0,0h0l0,0h0l0,0,0,0,0,0v.12h0v.22h0v.12h.07v.05l.22,0v0h0v.12h-.45l-.39,0v-.05h.39v0h.09v-.05h0v-.29l-.41,0,0-.12-.05,0h-.1l-.62,0v.29h0v.1h.09v0h.36l.12,0h.07v0H425v-.19l-1,0v-.05l1,0v-.05h0v.22h.05v-.1h0v-.31H425l0-.17-.07,0h-.36V428h-.92l-.12-.09h-.4l0,.4h-.26l0-.28-.15-.12h-.41l.15.31-.34,0v0l0,.07h0v.07h-.28v-.05H422l.12,0v-.05l0-.05,0,0,0-.05H421V428H420l0,.29H420V428h-1.29v.22l0,.09v.12h.82v0h-.31l-.15,0h-.55v-.05h.14v-.21h-.07V428h-.12V428h-.38l0,.33v.05h.29v0h-.31l-.12,0h-.1v-.05h.22l0-.05v-.24l0-.09h-.41v.05l0,.19v0l.05,0v0l0,.07-.09,0-.1,0v0l.1,0,0,0-.05-.24,0-.07h-.05l0-.05h-.07l-.24,0-.1-.34-.09,0-.05-.17-1.75.17.93.74h-.21l-1-.72-.63,0,.89.65-.24,0-.91-.67-.62,0,.81.62h-.24l-.53-.36-.31-.24-.69,0,.79.6h-.24l-.84-.6-.7,0,.79.6h-.26l-.81-.62-.72,0,.84.62-.24,0-.92-.67-.69,0,.84.64H410l-.94-.67-.7,0,.87.67H409l-.93-.65h-.63l.84.63h-.24l-.84-.6-.62,0,.79.62H407l-.81-.62-1.63.07-2.19.24-1.22.12-1.68.17-2.33.22-1.84.16.12.56,0,.12.22,1.1.79-.07,1-.07.69-.08,1.66-.14,1.7-.14.7-.08.57.12,2.47.46,1.88.36,1.75.34,1.75.33,1.61.31,1.94.36.58.12,1.05,0,1.66,0,1.61,0,2.44-.05,1.71,0,1.7,0,1.7,0,2.55-.05,1.7,0v-.14h-.05v0H430l-1.49.05,0-.22,0,0,0,.17v0l2.14-.05h.14v0h.05v0h.1v.07h.16v0h.48v.09h-.48v-.05l-.16,0v.07l1.36,0v-.24h.05l0,.24h.09v-.24h.07v.24h.12l.05-.1.05-.07.1-.05h.21l0,.05.05.09,0,.08.1.33.79,2.57.05.05.31,1,0,.5.26.91h.07l1.06,3.43v.19l-.7.84-.09.08-2.88.12-.46,0-2.64.08H429l0,0,0,.05,0,.48h-.2l0-.39-.12-.14-.46-.14-.76-.24-.87-.22-.43,0-.17.07-.07.09,0,.08-.07.19,0,.33,0,0h-.15l0-.22h0v0h-.09l-1.37.05-2.45.07-6.38.21,0,0,0,0v0l0,0,0,0v0h0v0l0,0h.05v-.05l0,0,0,0,0,0h0l-.05,0H415l-.26,0-.27-.08-.41-.07-.31-.07-.33-.07-.29,0-.34,0-.21,0H412l-.22,0-.19,0-.07,0-.07,0-.05,0-.05.05.14.72,0,0v.05l0,0h-.1l0,0-.05-.34,0-.07-.07-.05-.34-.05-.31,0-.31,0h-.65l-.17,0-.17,0-.14,0-.17,0-.09.08-.08,0-.07.08-.07.09-.05.07,0,.1v.1h.07l.38,0,.05,0,0,.09,0,.05-1.32.17h-.24l0,0h-.22l-.31,0-1.22.14-1.66.17-.5.05-.77.17-.26.07-.7.17h-.48l-.22.05-.4,0-.51.05-.43,0-.48.08h-.36l-.48,0-.58.05-.31.12-.21.12-.34.09h-.36l-.34-.07-.28-.07-.29,0h-.89l-.12,0-.17.05-.09-.05-.05.05,0,.27-.1,0,0-.05,0-.33-.08-.08-.48-.07h-1.32l-1,.07-.94.12-.24.1-.05.07.15.6-.05.07h-.05l-.07,0-.17-.58-.17-.05-1.13,0-1.34.07-.89.1-.41.07-.4.12-.15.07,0,.07.05.79-.08.08-.07,0-.07-.7,0,0-.53-.07-.79-.05-.69.05-.51,0h-.36l-.21,0H382l-2.18.27-1,.09-.7.05-1.68.15-1,.09-1,.07-1.68.15-2.13.12-.34.12-.07.07.12.31-.05.1h-.07l0,0-.16-.33-.17,0-.29,0-.72,0-.36,0-.31.05-.53.12-.21.07-.17.05-.24.05-.46.19,0,.05.45.88-.07.08h0l-.5-.92-.36-.07-.36,0h-.46L364,447l-.41.1-.43.14-.05.07-.05.17.43.84,0,.07,0,.08-.07,0-.07,0-.43-.94-.12-.17-.15-.09h-.4l-1.2.09-.8.19-.38.1-.36.17,0,.12.21.62.05.43-.07.08-.07,0-.05-.05-.05-.12v-.19l-.05-.17,0-.26-.07-.26-.05-.08-.5,0-.51,0-.72.08-.79.12-.79.21-.34.15.12.84v.14h-.09l-.05-.07,0-.12V449l-.17-.29-.14-.17-.43-.12h-.53l-1.13.12h0l-.24.05-.27.05-.24.07-.24.07-.24.07-.24.1.17.86-.05.1-.12.05-.69-.05,0-.07.65,0,.05-.14,0-.1-.07-.29V449l0-.05-.05-.05-.05,0-.05-.05-.07,0-.1,0-.12,0-.12,0-.24-.05-.24,0-.21,0h-.24l-.24,0h-.24l-.22.05-.24,0-.65.19-.12.05-.43.24-.14.07,0,.1.1.14.14.12.12,0,.34.05.05,0h.05l0,0,0,0-.09.07h-.24l-.31-.05-.39-.36-.05-.24,0-.21-.17,0-.41,0h-.57l-.72.1-.53.14-.55.15-.36.09-.36,0v.1l.05.07.05.07.12.05.4,0h.17l.07,0,0,0,0,0-.67,0-.15-.08-.12-.12-.09-.33-.05-.07H343l-.6,0-.45.05-1.08.19.48,2.24.62-.08,0,.12-.63.1.22,1-.15,0-.24-1-.6.07,0-.12.62-.07-.48-2.23-3.57.36-.36,0-.94.05,0,.14h-.07l-.07-.09-.58.05-.72,0-.46.05-.45.05-.48.07-1.06.15.07.36-.09,0-.05-.07-.07-.15-.05-.14-.19,0h-.17l-.41.05-.38,0-.51.07-.52.07-.39,0-.21.05-.46.07-.45.12,0,.36,0,.24-.12,0-.07-.31-.07-.31-.6,0-.65.05-.6.1-.58.05-.16,0-.41.05-.36.05-.43.12,0,.24-.07.07-.07,0,0-.12-.05-.12-.17-.07h-.26l-.6,0h-.08l-.62,0-.7,0-.5.07-.22,0-.24,0-.35.07,0,.24,0,.22-.1.07-.12-.14,0-.22-.05-.17-.41-.07-.46-.07h-.4l-.75.05h-.79l-.26,0h-.1l-.26,0-.22.05-.07.07v.15l0,.12-.09,0-.05-.26-.14-.07-.27-.07-.31-.08-.26-.07-.36,0-.2,0-.31,0h-.29l-.64,0h-.44l-.69.05-.05,0,0,.12h-.1l-.05-.05v-.07l0,0-.05,0-.38,0-.36,0h-.39l-.36,0-.38,0-.27.05-.26.05-.24,0-.26.08-1,.24-.19,0-.1.1.15,1-.19,0-.22-1.29-.05-.56-.21-.88-.24-1.16-4.18-2.06-3.41-.94-3.81-.64-1.13-.08-1.17,0-1.16-.36-.79-.27-1.34-1.12-.22-.17-.55-1.37-.24-1.73-.62-1.61-.39-.48,0-.07v-.09l.12-.24.1-.27.09-.26.07-.27.84-1.43.19-.24.2-.24.21-.22.22-.24.24-.19.26-.22.24-.19.29-.19.26-.19.29-.17.29-.15.29-.14.29-.14.28-.05.29-.05.29-.07.29-.07.29-.1.26-.1.26-.12.27-.12.19-.09L295,432l.19-.12.17-.12,0,0,.24-.16.26-.12.29-.15.26-.12.29-.09.29-.12.31-.08.29-.07.31-.07,1.75-.22.8-.12,2.18.24,1.54.24,1.87.53,1.34.12.62-.05,1.2,0,.8.16.16,0,.2,0,1.65,0,.29-.1.31-.09.29-.08.31,0,.31-.05.31-.05.34-.05.31,0,.1,0h.09l.1,0,.1,0,.09,0,.07.07.08.05,0,.07.05.07,0,.07v.17l-.2.7,0,.05,0,.07v.12l0,.05,0,.07,0,.05.07,0,0,.05,10.29,2.28.6.12.14,0,.15,0h.14l.17,0h.17l.14,0,.15-.05.16,0,.15-.05.67-.07.6-.09,1.2.38.21,0,.24.27.82.38,1,.05.53-.1.28-.14.68-.17,0,0-.41.12,0,0,.62-.17.12,0,0,0H334l-.24.07,0,0,.17,0,.17,0,0-.1,1.25-1.22-.09-.08-.12-.09-.12-.07L335,434l-.15,0,.43-.51,1.13-1.17.5-.36,0-.1,0-.12-.21-.82-1.44.89-.19.17-.17.19-.17.17-.14.19-.12.19-.12.22-.12.19-.1.22-.19.62-.1.15,0,.07-.17.17h-.07l0,0h0l0,0,0,0v0l-.24.17v0l0,0h0l-.05,0h-.12l0,0h-.05l0,0-.05,0-.07-.05-.1-.05-.1,0-.07,0h-.12l-.09,0-.1,0-.1,0-.57-.34-.43-.38-.72-.36H330l-.46-.44-2.25-.67-.77-.09-.22-.22.12-.31-.09-.19-.17-.05-.05-.22.05-.19.24-.22,2.45-4.27,0-.09,0-.12,0-.1V426l.05-.12.05-.1.05-.1-1.27.48-3.08,1.4-.09,0-.07.05-.1.07-.05.08-.07,0-.07,0-.1,0-.09,0,0,0h-.05l0,0,0,0,0,.05v0l-.07,0-.05,0h-.07l-.07,0-.24.17-.29.14-.26.14-.29.15-.31.12-.29.12-.31.12-.32.09h-.09l-.1,0-.09,0-.08,0-.07.05-.05.07,0,.05-.08,0-.07,0-.07,0-.1,0h-.09l-.1,0-.07,0-.09.05-.08.05-.07.07,0,.05,0,.05,0,0-.05.05-.07,0-.08,0h-.26l-.55.09-.29.05-.31-.12-.91-.1-1.2-.31-.77-.33-4.27-.84-.22-.17-.21-.67,0-.91.15-.24.19-.15.26-.21.22-.1.24-.19.19-.07.22-.1.16-.12.15-.1.21-.19.34-.14.29-.15.36-.24.33-.14.27-.1.36,0,.31-.1v-.19l-.36,0-.7,0-1.13-.08-.31-.24h-.43v-.12l.34,0-.22-.55.15-.31.35-.24.7-.1.36-.1.24,0,.65,0h.12l.12-.05,3.45-1.61,3.72-1.73-.09-.09-2.47,1.08-.12-.17,2.85-1.37-.24-.33-1.37.67-.64.31,0,0-.24.09,0,0-.12.07v0l.77-.36-.05-.08.19-.07-.07-.07-.77.36,0,0-4.06,1.89-.31.17,0,0,0-.07,4.39-2v0l.7-.34.5-.26-.05-.07-.79-.94-8.61,4.29,0,.65v.05l-.12.1-.12.07-.14,0-.1-.05-.12-.12,0-.26-.08-.46,0-.16.19-.17,4.51-2.18,0-.08-.07,0-1.32-1.44-1,.46-.41-.53,2-1-.07-.1-.77.34-.05-.07.77-.34-.12-.19-.07-.1-.07-.05-.08-.07-.09-.07-.12-.12-.05-.07,0-.1,0-.05.07,0,.1,0,.05.05.12.12.09.05.07,0,.1,0,.1-.07.07-.09,1.05-1.11,1.18-.6,0-.09,0-.1v-.12l0-.1,0-.09-.07-.1-.08-.07-1.48.79-.12-.14,1.29-.63.22-.14-.48-.36-1.83.77-1.08.62-.19,0-.17,0h-.19l-.16,0-.2,0h-.16l-.2,0-.12,0-.09-.05-.1,0-.09-.08-.08-.07-.07-.09,0-.08,0-.09v-.1l0-.09.34-.34.69-.43.65-.41.5-.24-.48-.43-.09-.12-.07-.12-.08-.12,0-.12,0-.14,0-.12.5-.39.41-.21,1.06-.41-.27-.12-3,1.34-1.25.46-.41.14-1-1.68-.53-.79,0,0-.17-.29-.43-.51-.24-.38-.26-.36-.24-.36-.29-.36-.29-.36-.31-.36-.31-.34-.32-.33-.36-.34-.33-.31-.38-.31,0,0-.41-.31-1.36-1.05-.82-.63-3.94-2.47L296.1,399l-1.32-.82-.72-.36-.29-.17-.31-.17-.41-.21-.43-.24-.46-.22-.53-.24-.53-.24-.52-.24-.32-.14-.28-.12-.36-.14-.56-.22-1.12-.38-.05,0-1.66-.48-1.41-.41-1-.21-1-.19-.53-.1-.55-.07-.53-.07-.55-.05-.55,0-.53-.05-.74,0-.53.07-.07.05-1.47-.34,0-.07-.36-.29-.2-.12-.57-.38-.63-.32-.26-.12-.26-.09-.29-.1-.27-.09-.28-.08-.29,0-.29-.05-.31-.05-.29,0-6.57-.84-7.51-.94-1.35-.29-1.48-.77-.24-.12-.77-.5-.65-.45-.12-.05-.48-.17-1.06-.77-1.58-1.37-.36-.31-.86-.84-.17-.17-.12-.21-.12-.19-.07-.17L249,383l-.12-.17-.12-.17-.12-.14-.14-.17-.17-.12-.17-.14-.19-.12-.17-.12-.09-.05-.08,0-.09-.05-.15,0-.12,0-.14-.05-.1-.05-.12-.07-.09-.07-.43-.34-.08-.1-.07-.09-.17-.36-.16-.39-.15-.38-.12-.38-.12-.39-.09-.24-.1-.26-.14-.24L245,378l-.14-.24-.17-.24-.19-.22-.19-.21-.22-.22-.22-.19-.24-.22-2.3-2-.38-.36-.48-.53-.39-.6-.64-1-.68-1.25-.26-.58-.17-.5-.45-2.59-.24-1-.29-1.23-.19-.86-.46-2.18-.1-.17-.09-.17-.07-.17-.08-.17,0-.16-.05-.2v-.67l0-.31,0-.29,0-.36-.15-1.13-.14-.64.09-.63,0-.81v-.1l-.07-.21-.07-.24-.08-.22,0-.24,0-.22,0-.24,0-.24V354l0-.19,0-.19.22-1,.12-.57.07-1.15.14-1.32.24-2.4,0-.15.21-1.53.05-.24.34-1.06,0-.17v-.33l0-.17,0-.17,0-.17.08-.16.09-.15.1-.14.12-.15.12-.14.17-.36.67-1.49.24-.52.43-.94,1.13-2.45,1.56-3.24.48-1,.6-1.22.67-1.41.53-1.06.64-1.27-3.52-1.08.14-.27,3.53,1.08.21-.4.24-.41.24-.39.27-.38.19-.29.22-.29.24-.28.21-.27-.48-.55-.67-.38-.7-.58.08-.38,4.05-3.87-.14-.09.84-.79,2.16,1.32.4-.36.63.38.12-.12-.43-.26-.12-.08.4-.38.08-.05.12.07.4.24h.15l.55-.55,1.94-1.94,2.59,1.58.17-.12-.29-.21.53-.51.07.05-.5.43,0,0,.22.16.84.58.14-.14.34-.34.07,0-.48.45.46.27.81-.89,1.3-1.25,1.78-1.92-6.32-3.81-.33-.19.62-.58.36.22,6.26,3.72.63-.53.55.33.41-.38.31-.29.1-.09.48-.46.38-.38-1.78-1.28.29-.5-1-2.13,1.25-1.47-.65-.41-.38.36-1.15-.67.33-.31-.12,0,.29-.26.14,0,.29-.26,1.13.67-.34.31,0,0,0,0,.58.36.45-.45.08.05,0-.05.32-.31,0,0,.05-.07-2.26-1.27.15-.17,2.23,1.34.65-.29.28.17.12-.09,1,.6.08-.05.31-.29-4.56-2.81.26-.19,4.51,2.76.2,0,1.94,1.15.36-.31.12,0,.07,0-.07-.05V306l-.19-.14,0-.05.22.12.1-.09.12.07.12-.29-.53-.29-1.78-1.17.15-.12,1.77,1.17.51.31.16-.16,0,0-5.21-3.21.38-.32.1.22.38.26.41.05.29.07.1.1.07.14,1.61,1h.16l.29-.09.15-.1.71-.67.08-.26-3.65-2.26.26-.26,1.73,1.17.31,0,.1,0,.46-.16.62-.6.07-.29.17-.14-1.22-.82.33-.38,1.34.79h.46l.07.05v.21l.24.15.41,0,.41.1H276l.36.31.31-.07.1,0-.1.14.12.1.24,0h.14l.08.17.14.21.14.22.08.09.19,0,.91-.72-3.86-2.21.36-.4,3.93,2.3,1.32-1.27-.57-.29.09-.12-4.32-2.69.17-.17,4.42,2.5.62-.53.48.27.48-.51-4.92-3.17.36-.31.55-.53,5,2.93.77-.74L279.37,293l.15-.14-.36-.22.31-.26.36.22,0,.09,4.44,2.4.19-.21.94-1-5.47-3.31,1.39-1,2.06-1.41,2.76,1.72.63-.4,2.16,1.29,1.12.72.77-.74.55-.67-5.25-3.32,1.56-.81h.91l4.37,2.76,2.95,1.7.05-.05,1.44-1.29.57-.55-5.25-3.32-.17-.43,1.63-1.12,1.59-.2,4.53,2.76.86-.79.29.17,2.26,1.34.17-.14.07-.07-.19-.12h0l0,0-.22-.12-.21-.14-.34-.19,0,0-.08,0v0h0l-.34-.19-.31-.19,0-.07-.22-.15-.65-.4-.28-.17h-.08l-.07,0-.31-.19-.31-.17-.05,0h0l.24-.24.29-.34.84.43,1.56.87.67.38.58.36h0l.12.1,0,0,.6-.6-.75-.41-.62-.33-.24-.15,0,0-.15-.07-.17-.1-.07.07,0,.07-.05,0,.12.07-.34.34-.91-.56-.22-.12.36-.33.17.1.15-.12h0l-.41-.24-.09.07,0,.07,0,0,.12.08-.36.33-.51-.31-.6-.38.36-.32.17.1.14-.12,0,0-.55-.32v0l-.7-.38-.77-.46-1.27-.77-.43-.26-.1-.05V281l.1-.09h.05l.6.36.09-.1,0-.05,0,0-.12-.07.36-.34,1.08.65-.33.33-.17-.09-.15.14.46.27.17-.12-.19-.12.36-.34,1.08.67-.34.34-.14-.1-.17.15.29.16.09-.09.12.07.05-.05h.17l.09-.09,0-.1,0-.05-.12-.09.12-.1-.24-.14.24-.24,0-.1-.05,0,.05,0-.17-.1h.05l-.07-.05,0,0h.34l0,1.12.14.1,2.28,1.37h0l.05-.05,1.15.69.41-.45-2.16-1.37.51-.55-1.73-1.1.74-.75,6.72,3.91.36-.31.05,0,.14.09.17-.14.46-.41-.1,0L311,283l.39-.36-.1-.05-.05,0,.48-.44.24-.24.31-.28-6.12-3.75,1.23-.6.38,0,0,0h.77l.74-.43-.46-.29,1.4-.67,1.27.17.79-.82.93-1,0-.72.19-.24-.15-.05,0,.14,0,0v.05l-.05,0-.05.26-.14.75v0h-.12l.17-.67.12-.65.19-.24.58-.62-.29-.15-.17-.09,0-.15,0-.14,0-.24.27-1.08.07-.29.26-1.15-.26-.36-.12-.12-.26.34-.7,1.15-.57,1.17v0l-.51,1.1-.72,1.42-1.37-.41-.64,1.06-1.44-.41-1.23,2.23-.53.14-.91-.28.12-.27-.64-.17-.75-.21-1.27-.34-.67,0-.1.09-.6-.17-.19.22-.07,0-.46,1h0l-1,2.07-.1,0-.07.12,0,0,0,0h0v.1l0,0,0,0H299l0,0v0h-.05l0,0h0v0l0,0v0l0,0v0h0l0,0,0,0H299l.08-.12-.1,0,.26-.58.8-1.72.09-.2.39-.81,1.32-2.71,1-2.12-1.22-.36-1.08,2L299.45,274l-.33,0-1.35,2.79-.45-.2,1.29-2.59-5,.12-3,6.22-7.61.93-2.09-.5-1-.77-.81-1.05-1.25-8.19-.34-1.24-1-1,.82.05,2.49,1,1.49,10.1.19.72.17.22.82.12.16-1.11,6.6-.48,2.55-5.18.93-.07,0-.77-.39-.22h-.65l.08-.93-1.2-.15-.15-.57.19-.53-.21-.31L286,272.05l-.34,0,0-.14,4.48-1.54-.05-.09,0-.07-.05-.08L290,270l-.08,0-.09-.07-.1-.05-.12,0-.09,0-.12,0h-.12l-.12,0H289l-.1,0-.12,0-.1.05-.07.07-.86-.39-.84-.36-.07.05-.1.05-.09,0-.1,0h-.31l-.12-.05-.51-.34-1.46,1.28-.22-.12,1.52-1.28.43-.38.45-.38-.64-.46-2.45,2.09-.17-.12,2.52-2.16.1.05,2.28-2-.7-.48-1.08.87-2.09,1.72-2.18-1.36,3.14-2.72-.69-.48-.87.75-2.28,1.94L278.6,268l-1.12-.55,2.76-2.45-.05,0-.84-.74-.07,0,0,0-.14.12,0,0-.12.12-.07,0-.05,0,.1-.15.07,0,.14-.12,0,0,.1-.07-.58-.43,0-.05-.05,0,0-.05v0l0,0,0-.05.22-.53.05-.17v-.12l0-.07.05-.05v0l.17-.12-.12-.07.26-.24-.55-.38-.09,0-.05,0-.15,0-.19.17.17.1.1-.08.16.1-.38.36-.17-.1.1-.12L278,262l-.43.38h0l0,0h-.1l0,0h0l0,0v0l0,0v-.05l.86-.72,0,0v-.05l0,0,0,0,0,0-.12-.31,0,0v0l0-.05,0,0,0,0,.05,0h0l0,0h.74l.07-.12.05-.12.07-.14,0-.12,0-.12V260l0-.15-.05-.12H279v-.09l-2.06.05,0-.12h-1.16l-.33-.89,1.56-.07-.1-1.06-.09,0-.05-.08.07-.09H277l.05,0,0,0,1.08-.08,0,0,0-.86h-.33l0,.07h0l0-.05h0l-.53,0-.05.05h0l-.05-.05-.82,0-.12.12-.21-.17.19-.17.07.05.14.1h.29l.05-.05.07.05.17,0h.1l0-.05h0l.05.05h.26v0l.05,0v0h0l.05.05h.26l.08-.05,0,0h.29l0-.19h.26v-.31h-.12l-.07-.05-.36-.43-1.54.1h-.12l0,0,0,0h0l0,0v-.09l.48-1.13.38-.19.27-.15-.12-.12,2.28-1.36.14.12.14-.1.2.07,1.1-.67.12-.07L284,249.9l-.21-.24.43-.26.38-.22,3.7-2.25.36.28.91.92,0,.09L286,250.38l.88.89-.48.38.24.17,1.32.91L290,251l2.28-2,1.68-1.44-.75-.69-1.25-1.27-1.8,1.08-.28-.22,1.82-1.1,4.2-2.57.14-.1.17-.09.48-.29.31-.17.1,0,.09.07.1,0,.12,0,.07,0,.31-.1,1-.38,1,.43,1,.17.41-.92.05-.14,1.13-1.49.74-1.1,1.39-1.3.75-1.22.79-1.46,1.82.5.19-.43,1.64.45.45-.86L309,232.79l-1.15-.69.27-.67,0-.05,0,0,.1-.24.36-.7.48-.91.58-1.39.31-.41.14-.16.79-1.06.7-1.15.5-.84.24-.39.1-.12v0l-.19-.38.07-.24.33-.15.2-.17.33.12.12-.21.12,0,.19-.36-.19-.07.89-1.63.65-1.25,0-.07.91-1.51h.24l.36-.29,0-.36v-.22l-.12,0,1-1.35.15-.19.21-.29.39-.5.14-.17,1.49-2,.22-.31.24-.28.11-.24.05-.05,0,0,.4-.26.24-.26-.33-.24-.27-.15.22-.26.19-.29.12-.07-.12-.1,0,0v0l0,0,.15-.12-.15-.15.12-.07.12-.1.12-.07,1.3-.31.09,0,.05.12v0l.15,0h0l.17-.07-.07-.14.21-.05,1.27,0h.22l.31-.12.39,0h.31l0,.53.29.33.17.22.79.14.86,0,.41-.58.31-.12.43-.77.05,0,.1-.12h.24l1.08.24.26.15h.27l.24,0,.14,0,.53.22.53,0,.19,0,0-1,.6-.12,1.25-.07.62,0h.08l.09,0,.1,0,.07,0,.07,0,.05.07,0,0,0,.07h.17l.19-.17,0-.5,3.07-.36,1.29-.1,1.06-.07,0,.12,0,.19.07,0,.19-.05h.31v0l.46-.09.17,0v.07l.5.05v-.05l.17,0h.07l2.54.34,0-1,.31.1h.94l0,.17,1.23,0V207l.4,0,.1,0v-.24l.12,0,.05-.09h.24l0,0,.24,0v0l-.24-.05-.33.72.24,0,.26.08.19-.68h.08l-.2.68.24,0h.1l.19-.64H350l-.19.67h0l.07-.24.33.05.05-.22h-.05l0-.07.05,0,.07-.21-.07,0,0-.05h.05l0-.19v0l-.84-.12,0,0,.81.15,0,0h.07l0,.08,0,0,0,.19,0,0v.05h-.05l-.07.21h.05l0,.07,0,0-.07.22h.05l-.32,1,.12.19h.17l.29.36.22.27,0,.07v0l.27.34,1.19.19.05-.09.12,0h.1l-.53,1.85.26.09.12-.07.29.31.15-.31.4-.79,1.06-2.09.5.12-1.72,3.46.5.55.53.33.33.24,1.13-1.55.39.14-1.13,1.7-.05.07-.05.05.19.07.15,0,.41.14,0,0,.19.07.17-.27,1.54.58-1.9,2.81-.36.5v.12l0,.07,0,.05.05.05.07,0,.05,0,.07,0,.07,0h.24l.07,0,.08,0,0-.05.34-.52,1.56-2.38.36-.22.41.41h.24l.38.34,0,.05.48.43.67.6.62.38.34-.14-.41-.55-.67-.6-.5-.46h-.12l-.34-.31,0-.17-.41-.38,1-.24.55.45.07,0,2.31,2,.76.69.29.1.36-.22-.05-.21L361,214.41l.07,0L359.56,213l.86-.57.58.48,4.87,4,.6-.5-4.78-4-1.27-1.08.31-.28,1.52.93,4.65,2.93.58-.46-.1-.24-4.49-2.83-1.51-1,.27-.21,1.27.81.65.1.28-.29-.14-.36-4.34-2.66-2.23-1.42.48-.43,1.8,1.05,1.53-.84-1.34-.88-2.43-1.78.72-.62,2,1.6,1.61,1.13.91.67.89.63.22-.12.16-1.75-.09-.22-3.07-3.41.79-.45,3,3.29.24-.1.51.77-.41,2.68.58.08,0,.79,4.63,2.85.19-.16,0-.94-1.53-1-1.73-1.08.1-1.63-.1-2-.6-1-.41-.7-.07-1-.1-1.3.6-1.53v-.22l-.14-.09-.55-.12-.19-.12.16-.12h.29l.29,0,.1-.28-.2-.05-.12-.1.05-.09.17-.12.48-.15.07-.12-.79-.36,0,0,.17,0,.1.05.19,0,.43.12.05-.14.1-.12-.1-.05.1-.31.16,0,.1-.2,0-.11.36-1,0-.1.09,0-.09-.05,0-.22-.2,0,.05-.08,0-.07,0-.05,0-.09.08-.1,0,0,0-.09.05-.07.1,0h0l.1-.22.21.08.1,0,.05,0v-.05l0-.15h0l-.19,0,.11-.27-.62-.24.84-1.85.7-1.56.62-1.34.53-1.13.14,0,.07-.12,0-.17.26-.43,0,0-.22-.12.91-1.34.29-.41.05-.1,0,0,0,0h0l0-.05.36-.45.17.07.05,0,.1-.07.19-.19-.07,0-.05,0,0-.1.44-.46,0,0,.29-.24v0h.12l.19.07.74-.62-.28-.22-.22-.36v-.5l.12-.38.1-.15.28-.36.15-.09,1,.6.16-.2.1-.12-.22-.12.22-.19-.12-.09.07-.07.15-.17.07-.07.07-.08.24-.26.07-.14.05-.12.79-1.08.05-.05.17,0,0-.05.82-.81.38-.67.89-2,.05-.08.29-.55.12-.19.19-.19v0l.43-1.36-.81-.51.38-.31.24.17.41.22.24-.15.43-.14,1.32.26.12.12,2.9.91.79.24.34,0,.17-.05.19-.41,0-.69-.58-.24-.14,0-.15-.36-3,.14-.32-1.15-1.39.19-1,0,0-.63,0-.81.22-.17L381,168l.51-1.37.21-1.08-.24-1.48-.24-1V163l0-.17-.24-1.27-.43-1-.05-.1,0,0-.08-.19-.5-1.27-.41-1-.07-.36-.07-.48.05-.27-.08-.33,0-.34.07-.26.2-.36.16-.46.2-.24.12-.21.26-.24.34-.53.69-.77,1.23-1.32v0l.09-.1.07-.07.24-.22.1-.09,0,0h0l0-.07.07-.08.09-.07,0,0,.07-.1.07-.07.15-.14,0-.05.08-.12,0-.05h0l0,0,.05,0,.1,0,0,0,0,0,.05-.05.12-.12,0,0,.05,0,.17-.12.12-.1.05,0,.12-.1.21-.14.05,0,.1-.05,0,0,.12-.07.07-.05.2-.14.09-.08,0,0,.07,0h0l.05,0,.1-.05.07-.07.05,0,.24-.16,0-.05.05-.05.1,0,.12-.07.12-.09.17-.1.33-.19.12-.07.08,0,.16-.1.1,0,.14-.09.15-.07.24-.12.48-.24.12,0,.24-.12h0l0,0h.05l.22,0,2.06-.26h0l.05,0h.09l.6-.1.51,0,.21,0,.08,0h.38l.19,0h.1" transform="translate(-235.12 -146.05)" fill="#eb5f2a" fill-opacity="0" stroke="#0f26a6" stroke-linecap="square" stroke-linejoin="bevel" stroke-width="1.3" fill-rule="evenodd"/><path d="M456,398.59l-.1.05-.05.05v0h0l.09,0h.46l.05,0,.14,0,.1,0,.05,0,0,0h.05l.07,0H457l.05,0h.29l0,0,0,0,0,0,0,0h.05l0,0h.09l0,0,0,0h.14v0h0l0,0v0l0,0,0,0,0,0,0,0h.1l0,0v0h.24l.07,0,0,0,.05,0h0v0l0,0v0l0,0v0l0,0,0,0,0,0,0,0,.07.09v0h0l-.07,0v0l0,0v.05l.1.07,0,0h0l0,0h.05l0,0h0l0,0,.1.07.05,0h0l.05,0h0l0,0v0h0l0,0,.07,0,0,.05.05,0,.09,0,.05,0,.07,0,.08,0h0l0,0,.07.05.05,0h0l0,0h.05v0H460l0,0h0l0,0,0,0h0l0,0,0,0,0,0,.05,0,0,0,0,0,.09,0,.05,0,.05,0,0,0,.05,0,0,0h.05l.05,0,.1,0,0,0,.08.05h0l.07.05,0,0,0,0,0,0h0l0,0,.05,0h.05l0,0h.05l0,0,.07,0,.1,0,.14,0,.08,0,0,0,.05,0,0,0,0,0,0,0,0,0h.05l.05,0H462l0,0h.24l0,0h0l0,0h0v0l0,0,0,0h0l.05,0,0,.12v.1l0,0v.2l0,0v.07l0,.05v.05l0,0v.05l0,0,0,.05,0,.05v.05l0,0,0,.05,0,.05,0,0,0,.05,0,0,0,.05,0,0,.05,0,0,.05.1.09v0h0l0,0h0l0,0h.05l0,0h0v0h0v0h0l0,0h0v0h0v.05l0,0,0,0,.15.15,0,0,0,0h0l0,0,0,0v0h0v0h0l0,0h0l0,0h0v0h0v0h0v0h0v0h0v0l.07.12v0l0,.05,0,.05,0,.05,0,0v0l0,0,.05.05,0,.05,0,0,0,0,0,0,0,.05h0l0,0,0,0,0,0,0,0,0,0,0,0,0,0,0,0,0,0,.05,0,.07.07.07.08.07,0v0l0,0h0l0,0h0v0h0l.05,0v0h0l0,0H465v0h0l.1,0h0v0h0l0,.09v0l0,0,0,0,0,0h0v0h.12l0,0h0l0,0,0,0,0,0,0,0,0,0,0,0h0l.12.07h0v0h0v0h0v0l0,0v.05l0,0v0h0v0l0,0v.07l0,0,0,0,0,.05,0,0,0,.07.09.1.05.07.05.05.05.07.07.14.1.12.09.12.05.12.07.1.07.1v0l0,0v0l0,.05,0,0v0l0,.12v0h0v0l0,0,0,0,0,0,0,.05,0,0,0,0,0,0,0,0,0,0,0,0,0,0,0,0h0l0,0h0v0h.07l0,0h.07v0h0l0,0v0l0,0,0,0,0,0,0,0,0,0h0l0,0v0h0v0l0,0v0l0,0,0,.14.05.22v.05l0,0v0l0,0,0,.09,0,0v0l0,0h0v0l0,0v0l0,0v0l0,0h0l0,0,.07.05h0l0,0v0h0v.07l0,.07v0h0v0l0,0v0l0,0v.05l0,0v.14h0v0l0,0v.24l0,.05v0l0,.05v.14l0,0v.19h0l0,0,0,0v0l0,0,0,0,0,0v0l0,0v0h0V410h0v.16h0l0,0v0l0,0v0l0,0,0,0v.05l0,0v.32l0,0v.07l0,0v0l0,0v0l0,0V411l0,.09v.05l0,0v0l0,.05,0,0v.05l0,0v.05l0,0v0l0,.08,0,.09v.07l0,0v.21l0,0v0l0,0,0,0v0l0,0h0v0h.05v0h.15l.07,0h.12l.07,0h0v0l0,.05,0,0-.05,0-.07.05-.1,0-.12.05-.14,0-.1,0-.09,0-.12,0-.07,0h0v0l0,0-.05,0-.22.07-.07,0h-.05l0,0,0,0,0,0h-.05l-.09.05-.19.09-.15.05-.07.05-.07,0-.05,0-.19.07-.12.05-.12,0H466l0,0h-.72l-.08,0h0l0,0h0l0,0h0l0,0h-.12l-.07,0-.07,0-.22-.05,0,0h0l0,0,0,.05h0l0-.07v0h0l0,0-.08,0-.07,0-.07,0v0l0,0h0l-.05,0,0,0h0v0l0,0h-.07l0,0h0l0-.05h0l-.07-.07-.07-.05-.05,0-.05,0,0,0,0,0h0l-.05,0,0,0-.05,0-.05,0-.07,0-.07-.05-.05,0,0,0h0v0l0,0V412l0,0h0l0,0h-.07v0l0,0v0l0,0v0l0,0,0,0,0,0,0,0v0l0,0,0,0,0,0,0,0,0,0h0l0,0v0h0l0,0-.05,0h0l-.15-.07,0,0v0l0,0,0,0h0l-.05,0h0l0,0v-.05h0v-.07l0,0v0h-.05l0,0,0,0-.05,0,0,0,0,0v-.21h0v-.05l0,0v0h0v-.05l0-.09v-.15l0,0v0l0,0v0h0v0h0v0h0l0,0,0,0v0l0,0,0,0,0-.05,0,0,0-.05-.05-.07-.05-.05,0-.07v0h0v0l0,0,0,0,0,0,0,0,0,0v0l0,0,0,0,0-.05,0,0-.05-.05,0,0,0,0-.05,0,0,0,0-.05,0,0,0-.05-.05-.05,0,0,0-.05,0,0-.05-.05,0,0,0,0,0,0,0,0,0,0,0,0h0l0,0-.05,0,0,0-.05,0,0,0-.05-.05-.05,0-.07-.08-.05,0,0-.05,0-.05-.05-.05-.07-.07-.05-.05-.05-.05-.05,0,0-.05-.05-.05,0-.05-.09-.07-.07-.1-.08-.09-.07-.07-.07-.08,0-.07,0,0,0,0,0,0h0l0,0,0,0h0v0l-.12,0,0,0,0,0h0l0,0,0,0h-.05l0,0,0,0h-.05l0,0H459l-.19-.09h-.05l0,0,0,0h0v0h0l-.05-.09-.07-.1v0l0,0,0,0h0v0h0v0h-.15v0h-.09l0,0h0v0h0l0,0,0,0-.1-.1v0h0l0,0,0,0v0h0v0h0l-.05,0-.05,0,0,0h0v0h0l0,0,0,0,0,0h-.05v0h0v0l0,0v-.07h0v0h0v0h0l-.05,0h0l0,0h0l0,0h0l0,0,0,0-.1-.07-.05,0-.05,0,0,0-.14-.09h0v0h0l0,0h0l0,0h-.05l0,0h0l-.07-.07,0,0,0,0,0,0,0,0h-.05l0,0-.05,0-.05,0,0-.05-.05,0,0,0,0,0,0,0h-.05l0,0h0v0h0l0,0h0l0,0,0,0h0l0,0h-.12v0h-.05v0h0v0h0v0h-.07V405h0v0h0v0l-.07-.05h-.07v0h0v0h0v0l0,0,0,0-.05,0h0l0,0h-.09l0,0h-.09v0h0l0-.07-.05,0,0,0-.05,0,0,0v0l0,0h0l0,0h0l0,0h-.21l0,0h0l0,0h0l0,0h-.1v0h-.07v-.16l0,0v-.07l0-.14v0l0,0v0l0,0,0,0h0v0h0v0h-.05v0H454l0,0h0l0,0h0l0-.1-.08-.07,0-.05-.08-.07,0,0h0l0,0h-.14l0,0v0l0,0v0l0,0v0h0v0l0,0,0,0,0,0,0,0-.05,0,0-.05,0,0h0l0,0,0,0H453l0,0h-.1v0l0-.07v0l0,0,0,0v0l0,0,0,0,0,0h-.07l0,0h-.05l0,0h0v0h0v0h0v0h0v0h0v0h0v0h0v0h0v0l0,0v0l0,0v-.08l0,0v0l0-.05v0l0-.05,0-.05v0l0,0,0-.05v-.12l0,0v0l0,0,0-.05,0,0,0-.05,0,0,0,0,0-.05v0l0,0,0,0,0,0,0,0,0,0,0,0v0l0,0v0l-.07-.12,0,0h0l0,0h0v0h-.1l0,0,0,0v-.07h0V401l0,0v-.07l0,0,0,0v-.14l0,0v0l0,0,0-.07,0-.08.05-.09,0,0,0,0,0,0,0,0,0,0,0,0,0,0,0,0h0l.08,0,0,0,0-.05.05-.05,0,0,.05,0,0,0,0,0,.14-.12.08,0,.19-.12.21-.12.2-.1.21-.12.22-.1.17-.07.24-.12.09-.05.05,0v-.07l0,0v-.07h0l0,0,.07,0h.05l0,0h.05l0,0,.05,0h.1l.14,0h.48l.05,0,0,0v0l0,0h.09l0,0,0,0h0l0,0h.07l.15,0h0l.05,0,0,0,0,0,0,0h0v0h0" transform="translate(-235.12 -146.05)" fill="#eb5f2a" fill-opacity="0" stroke="#0f26a6" stroke-linecap="square" stroke-linejoin="bevel" stroke-width="1.3" fill-rule="evenodd"/><path d="M611.76,355.28h0l0,0v-.07l-.05,0h0l0,0,0,0v-.05h.05l0,0,.05,0v-.1l0,0,0,0,0-.05v0l0-.05v0l0,0h0l0,0h.05l-.05.62h0" transform="translate(-235.12 -146.05)" fill="#eb5f2a" fill-opacity="0" stroke="#0f26a6" stroke-linecap="square" stroke-linejoin="bevel" stroke-width="1.3" fill-rule="evenodd"/></g></svg>