<?xml version="1.0" encoding="utf-8"?>
<!-- Generator: Adobe Illustrator 24.0.2, SVG Export Plug-In . SVG Version: 6.00 Build 0)  -->
<svg version="1.1" id="Layer_1" xmlns="http://www.w3.org/2000/svg" xmlns:xlink="http://www.w3.org/1999/xlink" x="0px" y="0px"
	 viewBox="0 0 278.6 226.9" style="enable-background:new 0 0 278.6 226.9;" xml:space="preserve">
<style type="text/css">
	
		.st0{fill-rule:evenodd;clip-rule:evenodd;fill:#0F26A6;fill-opacity:0.95;stroke:#232323;stroke-width:0.74;stroke-linecap:square;stroke-linejoin:bevel;stroke-opacity:0;}
</style>
<title>brooklyn</title>
<g id="Map_1:_NYC_Boroughs_Besides_SI">
	<path class="st0" d="M117.1,0.4h0.2h0.2h0.1h0.1h0.2h0.1h0.2h0.1h0.2h0.2l0.4,0.1h0.1h0.1l0,0h0.1h0.1h0.1l0.2,0.1l0.3,0.1l0,0h0.1
		h0.1l0,0h0l0,0l0,0l0,0l0,0h0.1l0,0l0,0h0.1h0.1l0.2,0.1l1.2,0.3l0.2,0.1h0.1l0.1,0.1l0.2,0.1l0.2,0.1h0.1l0.4,0.2l0.2,0.1h0.1
		l0.2,0.1l0.5,0.2l0.3,0.1l0,0l0.2,0.1l0.4,0.2V2.2l0,0l0.7,0.2l0.5,0.2h0h0h0h0.1l0,0h0l0,0l0,0h0.1h0.1l0,0h0.1l0,0h0.1l0.1,0.1h0
		h0.1l0.1,0.2L127,3.4v0.1L126.7,4l-0.1,0.3l-0.3,0.5v0.2v0.3l0.1,0.6V6h0.6V5.8l-0.1-1V4.8l0.2-0.3V4.4l0,0V4.3l0,0l0-0.1V4.2V4.2
		l0,0l0-0.1l0.1-0.2l0.1-0.1l0.1-0.1l0.4,0.1l0.4-0.7l0,0l0,0v0.1h0.2l0,0h0h0.2l0,0v0.1l0.2,0.1V3.3h0.7l0,0L129.3,4l0.1,0.6h0.2
		l0,0V4.5V4.4V4.3l0-0.1l0-0.1V4.1l0-0.1l0-0.1l0,0l0,0l0,0l0.1-0.1l0,0l0-0.1l0,0V3.8l0,0l0,0h0l0,0l0,0V3.7h0.1h0l0,0l0.1,0.1h0.1
		l1.2,0.5l0.1,0.1l0,0h0.1l0.1,0.1h0.1l0.1,0.1h0l0.6,0.2l0.4,0.3l0,0l0.2,0.1l0.3,0.2h0l-0.1,0.1l0,0v0.1l0.1,0.1l0.1,0.1l0.1-0.1
		l0.3,0.5l0.2,0.3l0.2,0.5l-0.2,0.1l0,0l0.1,0.3h0.1l0,0l0,0v0.1l0.1,0.2h0.1l0.1,0.2l0,0.1l0,0.1h-0.2l0.4,1.1L136,10l0.1,0.2
		l0.1,0.1l1.1,0.9l0.5,0.3l0.6,0.5l0,0l1,0.6l0.2,0.1l0.3,0.1h0.1l0.4,0.1l0.6,0.2l0.6,0.2l0,0l0.5,0.1l0.4,0.1h0.1h0.2l0.8,0.1l0,0
		l0,0h0.1l0.5,0.1h0.3h0l0,0l0,0l0.3,0.1h0.3h0.1l0.4,0.1h0.3l0,0h0l0,0h0.3h0.2l0,0l0.1,0.1h0.2h0.1h0.1l0.5,0.1l0.5,0.1h0.7
		l0.5,0.1l0.5,0.2l0.2,0.1h0.1h0.1l0,0l0,0l0,0l0,0l0,0l0.1,0.1l0.1,0.1l0.1,0.1l0.1,0.1l0,0.1l0,0v0.1l0.1,0.1l0.1,0.1l0.3,0.2
		l0.6,0.6l0.2,0.3l0.2,0.3v0.1l0.1,0.1l0.1,0.2v0.1l0,0l0,0l0,0V17l0.1,1v0.1l0.8,1.7l2.1,4.8l1.1-0.3l0,0l0.1,0.3l0,0l0.1,0.1
		l0.1,0.1l0.1,0.2v0.1v0.1v0.3v0.1l0,0.1l0,0.2l-0.1,0.4l0,0l-0.1,0.2l-0.1,0.1h-0.1l-0.1,0.1h-0.1H156l-1.4,0.4h-0.3l-2.7,0.7h-0.1
		l0,0l0,0l0,0l0,0h-0.1h0l0,0h0l0,0l0,0l0,0h-0.2l0,0l-0.1,0.1l-0.1,0.1l0,0l0,0l0,0v0.1l0,0l0,0l0,0l0,0l0,0l-0.5,0.2l0,0.1h0v0.1
		l0,0l0,0l0,0v0.1l0,0l0,0l0,0l0.2,0.5l0,0v0.1l0.2,0.5v0.1l0,0v0.1v0.1v0.1l0,0v0.1l0,0l0,0l0,0l0,0h0l0,0l0,0l-1,0.2l-1.6,0.4
		h-0.3h0h-0.1h0l-0.1,0.1h-0.1h-0.1l0,0l0,0l0,0h0h0l0,0l0,0v2.4l0,0v0.1l0,0v0.1l0,0l0.5-0.1l0.2,0.5l0,0v0.1h0.2l0.1,0.2l0.1,0.1
		h-0.2l0.3,0.6l-0.3,0.4l-0.1,0.1l0,0l-0.1,0.1l-0.5,0.1l-0.6,0.2h-0.1l0,0l0,0l0,0l0,0l0,0v0.1l0.8,1.9l-1.8,0.5l0.1,0.3l1.8-0.5
		l0.3,0.7l0.2,0.4l0.3,0.7l0.3,0.8l0.1,0.3l0.2,0.1l0,0v0.1l0,0l0,0l0,0l0,0v0.1h0l0,0l0.1,0.1h0l0,0l0,0l0,0v0.1l0.2-0.1l0,0v0.3
		l0,0l0,0l0.1-0.1l0,0l0,0l0,0l-0.2-0.4l-0.4-0.9l-0.4-0.9l-0.2-0.5l-0.5-1.2l0.9-0.3l0,0h0l0,0l0,0l0,0l0,0l0,0l0,0l0,0l0,0l0,0h0
		l-1,0.2l-0.3-0.6l0,0l0,0l0,0v-0.4l0,0v-0.1l0,0l0,0l0,0h0h0l1.4-0.4h0.1h0l0,0l0,0l0,0l0,0v-0.1l0,0l0,0l0,0l0,0l0,0l-0.5-1
		l-0.2-0.6l-0.1-0.3l0.3-0.4l1.2-0.3l0,0l0.8-0.2h0.1l0,0l1.1-0.3l-0.6-1.4v-0.1l0,0l0,0l0,0l0,0l0-0.1h0l0,0h0h0l0,0h0h0l0.1-0.1
		h0.1l0.1-0.1h0.1l0,0l0,0l0,0h0.1l0,0h0.1l2.9-0.7l0,0l1.1-0.2h0.2h0l0,0h0.1l0,0l0,0h0h0.2l0,0l0,0h0.1l0,0l0,0l0,0l0,0l0,0l0,0
		l0,0l0,0l0,0l0,0l0,0l0,0l0,0l0,0l0,0l0,0l0,0l0,0l0,0l0,0l0,0l0,0l0,0l0,0l0,0l0,0l0,0l0,0l0,0l0,0l0,0l0,0l0,0l0,0l0,0l0,0h0l0,0
		l0,0l0,0l0,0h0l0,0l0,0l0,0l0,0l0,0l0,0l0,0l0,0l0,0l0,0l0,0l0,0l0,0l0,0l0,0l0,0l0,0l0,0l0,0l0,0l0,0l0,0l0,0l0,0l0,0v0.1l0,0l0,0
		l0,0l0.1,0.2l0.1,0.2l0.1,0.3h0l0,0l0,0l0,0.1v0.1l-0.3,0.1h-0.1h0l0,0l0,0l0,0h0l-0.2,0.1v0.1l-1,0.2l-0.4,0.4l-0.3,0.3h-0.1
		l0,0.1l0.1,0.1V32V32l0,0.1l0,0.1l0,0l0,0l0.1,0.1v0.1v0.1l0,0.1l0.1,0.2l0,0h0l0,0l0,0v0.1V33h0.4v0.1l1.2,0.8l1.2,0.7l0.5,1.4
		l0.4,1l0.4,0.3l0.1,0.1l0.5,0.3l-1.5,1.5l0.6,0.4l1,0.6l1,0.6l0.5,0.3l0.5,0.3l0.5,0.3L163,42l0.5,0.3l0,0l0.5,0.3l0.5,0.3l0.5,0.3
		l0.5,0.3h0l0.5,0.3l0.5,0.3l0.5,0.3l1,0.6l1,0.6l1,0.6l1,0.6l1,0.6l-1.5,1.4l1,0.6l1,0.6l1,0.6l-1.5,1.5l1,0.5l2,1.1l1,0.5l1,0.6
		l0.6,0.3l0.4,0.2l0.6,0.3l0.4,0.2l0.5,0.3l0.5,0.3l0.5,0.3l0.5,0.3l0.5,0.2l0.6,0.3l-0.8,0.7l-0.1,0.1l-1.2,1.3l1,0.5l1,0.6
		l0.5,0.3l0.5,0.3l1,0.6l1,0.5l0.4,0.3l0.3,0.2l0.1,0.1l0.1,0l-0.7,0.7l2,3.9l-1,0.4l6.2,7.3l0.1,0.1l0-0.1l0,0l0.1-0.2l0,0l0.1-0.2
		l0.1-0.2l0.3-0.4l0.3-0.4l0.2-0.3l0.1-0.1l0.3-0.4l0.3-0.4l0.2-0.2l1-1v0l0.1,0.2l0.1,0.1l0.7,0.8l0.9,1l0.2,0.2l1.2-0.7l1.4-0.9
		l0.6-0.4l0.7,1l0.7-0.5l1.1-0.7l0.3-0.2l1-0.5l3.7-1.4l1-1.6l2-1.6l1.5-1.1l2.1-1.6l0.1-0.1l0.2-0.1l7.1-4l5.3-1l1.5-0.3l0.7,0.6
		l-0.4,0.9l0.1,0.2l0.7,3.6l0.1,0.5l0.1,0.4l0.2,0.9l0.2,0.9l0.1,0.5l0.1,0.4l0.2,0.9l0.3,1.2l0.2,0.7l0.4,1.4l0.1,1l0.2,1.6v0.1
		v0.1l0.4,1.6l1.4-0.3l0.6-0.1l0.6-0.2l0.2,0.6l0.3,1.1l0.6,2.4l0,0.2l0,0.1l0.5,0l0.7-0.1l0.1,0.5l0.3,1.2l2.3,2.5l0.4,1.7l0.1,0.4
		l0.2,0.9l0.1,0.4l0.4,1.6l0.5,2.1l1.2-0.2l1.2-0.2l1.2-0.2l0.4,1.6v0.1v0.1v0.1v0.1l0.5,2l0.2,0.8l0,0.1l0.3,1.2l0.4,1.6l0.1,0.5
		l0.6,2.2l-0.6,0.1l-0.6,0.1l-1.3,0.2l-1.2,0.2l0.4,1.9l0.1,0.4l0.1,0.5l0.4,1.7l-1.2,0.3l-1.2,0.2l-1.2,0.2l-1.2,0.5l-0.7,0.4
		l-1.9,0.9l0.6,0.9l-0.4,0.2l0,0v0.1l0,0v0.1l0,0v0l0,0l0,0l0,0l0,0h-0.1v0l0,0v0l0,0l0,0v0.2l-0.1,0.1l0,0l0,0l0,0l0,0l0,0l0,0l0,0
		l0,0l0,0.1l0,0l0,0h0h0.1h0l0.1,0.1v0.2l0,0l0,0v0.1l0,0l0,0v0v0.4l0,0l0,0h-0.1l-0.1-0.1l0,0l0,0h0l0,0l0,0l0,0l0,0l0,0l0,0
		l0.1,0.1l0.1,0.1l0.1,0.1l0.1,0.1l0.1,0.1l0.1,0.1l0.1,0.1l1.2,0.5h0.2h0.2h0.2h0.2l0.2,0l0.2,0.2l0.3,0.5v0l0,0.1l0.1,0.1l0.6,0.8
		l0.1,0.2l1.2,1.6l2.4,3.2l-0.3,0.1l-0.2,0.3l0,0.7l-0.1,0.9l-0.2,0.6l-0.7,1.4l1.6,4.8l-0.3,0.1l-0.3,0.1l-0.3,0.1l-0.3,0.1
		L245,128l-0.3,0.1l-0.4,0.1H244l-0.4,0l-0.4,0h-0.4h-0.4h-0.3h-0.3l-0.4,0h-0.3l-0.3,0l-0.3,0h-0.3l-1.2,0.5l-0.5,0.3l-0.6,0.7
		l-0.8,0.5l-0.9,0.6l-0.3,0.2l-1.9,1l0.7,0.6l-0.1,0.1l-0.7-0.6l-0.3,0.1h-0.4l-1.8-1.4l-1.6-3.1l-0.1-1.1l-0.8-1l-0.8-0.6l-0.5-0.1
		h-0.5h-0.2l-0.6-0.2l-1.1-1.5l-0.1-0.1v0l-0.1-0.1l-3.6-4.9l-0.1-0.1l-3.9-5.3h-0.1l-0.1-0.1l-0.4,0.2l-0.1,0.2l0.6,0.8l0.2,0
		l3.1,4.2l0,0.2v0.4l0.2,0.3l3.5,4.9l0.1,0.1l0,0.1l0,0.1l0.1,0.1l0.1,0.1l0.1,0.1l0.1,0.1l0.1,0.1v0.1l0.1,0.1h0.1l0.2,0.2
		l-0.2,0.3l0,0.1v0.1v0.1v0.1v0.1v0.1v0.2v0.1v0.1v0.1l0,0.1l0.1,0.1l0.2,0l0.2,0.1l0.3,0.8l1.1,1.2l0.1,0.2l1.4,2l0,0.3l0.3,0.2
		l0.2,0.1l0.5,0.6v0.9l0.2,0.4l0.2,0.1l0.3,0.3l1.2,0.4l0.7,0.2l0.1,0.1l-0.8,0.5l-0.9,0.6l-0.5,0.3l0,0l-0.1-0.1l0.6-0.4l-0.5-0.6
		l-0.3,0.1l-0.3,0.1l-0.3,0.1h-0.1l-0.2,0.1l-0.2,0.1l-1.4,0.7l-1,0.7l-0.1,0.1h-0.2l-0.2,0.1h-0.2l-0.2,0h-0.2h-0.2H225l-0.3-0.1
		l-0.3-0.1l-0.3-0.1L224,137l-0.3-0.1l-0.2-0.1l-0.2-0.1l-0.2-0.1l-0.2-0.1l-0.2-0.1l-0.2-0.2l-0.2-0.2l-0.2-0.2l-0.2-0.2l-0.2-0.2
		l-0.2-0.2l-0.8-0.6l-0.1-0.1l-0.1,0l-0.1-0.1l-0.1,0H220h-0.1h-0.1h-0.1h-0.1H219h-0.2h-0.2h-0.2l-0.1-0.1l-0.1,0l-0.1-0.1l0,0h0
		l0,0h0l0,0v0v-0.1l0,0l-0.3-0.1l-0.4-0.4v-0.1l0-0.1v-0.1l-0.1-0.1l-0.1-0.1l-0.1-0.1l-0.1,0l-0.1-0.1l-0.1,0l-0.1,0h-0.1h0h-0.1
		l0,0l0,0l0,0v-0.1l0,0l0,0l0,0l0,0l0,0l0,0l0,0l0,0l0,0h-0.1h0l0,0l0,0l0,0l0,0h0l0,0l0,0l0,0v0v0l0,0l0,0l0,0l0,0l0,0l0,0l0,0l0,0
		l0,0h-0.1h-0.1h-0.6l0,0v-0.2v0V132V132v-0.1v-0.1l0-0.1l-0.1,0v-0.1l0,0l0,0l0,0l0,0l0,0h0.1l0,0l0,0h0v0h0.1l0,0h0.1l0,0l0.1,0
		l0.1-0.1l0,0v-0.1v-0.1v-0.1v-0.1v-0.1v-0.1V131v-0.1l0,0l0,0H216h0l0,0h0l0,0h-0.1l0,0v0.1h0h-0.1l0,0l0,0h0h0h0h-0.1l0,0v-0.1h0
		h-0.1h-0.2l0,0h0l0,0l0,0h0h-0.1h-0.1h-0.1l0,0h-0.1l0,0l0,0h0l0,0l0,0l0-0.1l0,0l0,0l0,0v-0.1v0v0v0l0,0l0,0l0-0.1l0,0v0v-0.1h0
		l0,0l0,0h0l0,0l0,0l0,0l0,0l0-0.1h0l0,0l0-0.1l0,0l0,0l0-0.1v0l0,0l0-0.1l-0.1,0v-0.1l0-0.1l0,0l0,0v-0.1v0l0,0l-0.7-0.4l-0.4-0.2
		l-0.2-0.2l-0.1-0.2l-0.2-0.1l-0.3,0.1l-0.1,0.1h-0.2h-0.2l-0.2,0.1l-0.2,0.3l-0.3,0.1l-0.3,0.1l-1-0.1l-0.2-0.2l-0.4-0.4v-0.1
		l-0.1-0.1l-0.2-0.1l-0.6-0.5l-0.1-0.1l-0.5-0.5V127h-0.1V127l0,0l0,0l0,0v-0.1l-0.1-0.1v0h0l0-0.1H207v0l0,0l-0.1,0l-0.1-0.2v-0.2
		v-0.1v-0.1v-0.1l-0.1-0.4v-0.1l0.1-0.1l0.1-0.1V125v-0.1l-0.1-0.1l0-0.1l0-0.1l0,0v-0.1v-0.1l-0.1-0.1h-0.1h-0.1h-0.9h-0.1h-0.1
		h-0.1l0,0h-0.1l-0.3-0.1h-0.3l0,0v0l0,0l0,0l0,0l0,0l0,0v0l0,0l0,0l0,0V124l0,0h-0.1l0,0v0l0,0l0,0l0,0l-0.1-0.1l-0.1,0v0l-0.1-0.1
		l0,0l0,0l0,0l0,0l0,0l0,0l0,0l0,0l0,0l0,0h-0.7l0,0l0,0l0,0l0,0l0,0l0,0l0,0l0,0l0,0v0l0,0l0,0l0,0l0,0l0,0l0,0l0,0h0l0,0l0,0l0,0
		l0,0l0,0l0,0l0,0l0,0l0,0l0,0l0,0l0,0l0,0l0,0l0,0l0,0l0,0l0,0l0,0l0,0h0h-0.2l0,0h0l0.3,0.2l-0.3,0.2l-0.3-0.2H203l0,0h0l0,0l0,0
		l0,0l0,0l0,0l0,0l0,0l0,0l0,0l0,0l0,0h-1.3l0,0l0,0l0,0l0,0l0,0l0,0l0,0l0,0l0,0l0,0l0,0l0,0l0,0l0,0l0,0l0,0l0,0v0.1l0,0v0l0,0v0
		l0,0l0,0l0,0v-3.1l0,0l0,0l0,0l0,0l0,0.1l0,0l0,0v0l0,0.1v0.1h0l0,0l0,0h0l0,0l0,0l0,0l0,0l0,0h0v0l0,0l0,0l0,0l0,0l0,0l0,0l0,0
		l0,0l0,0l0,0l0.1,0.1l0,0l0,0l0,0l0,0l0,0l0,0l0,0h0h0l0,0l0,0l0,0h0l0,0l0,0l0,0l0,0l0,0l0,0l0,0l0,0l0,0l0,0l0,0l0,0l0,0l0,0l0,0
		l0,0l0,0l0,0l0,0l0,0l0,0l0,0v0l0,0l0,0v0h0l0,0l0,0l0,0l0,0v0l0,0l-0.2,0.1l0,0v0l0.1,0.1l0.3,0.4l0.1,0.2l0.4,0.5l0,0l0,0
		l-0.3-0.4l-0.4-0.5l-0.1-0.2l0,0l0,0h0l0.1,0l0.2-0.1h0.1h0h0l0,0v0l0.1-0.1l0.1-0.1h0.1h0.1l0,0l0,0v0l0,0l0,0l0,0l0,0l0,0h0.1
		v-0.1l0,0h0v-0.1h0v0v-0.1h0h0h0.1v0v0l0,0h0l0,0l0,0v0l0,0l0,0h0.1l0,0l0,0v0.2l0,0v0.1l0,0v0.1h0h-0.1l0,0l0,0h-0.1h-0.1l0,0
		h-0.1v0v-0.1l0,0l0,0l0,0l0,0l0,0v0h-0.2l0,0v0l0,0v0.1l0,0v0.1l0,0h0h0.1h0.1h0.1l0,0h0.1h0.2l0,0l0,0l0,0l0,0v0.4l0,0l0,0v0.1v0
		l0,0l0,0l0,0l0,0l-0.1,0l0,0l0,0l0,0l0,0v0l0,0l0,0h0.1h0.1l0,0h0h0.1l0,0l0,0l0,0h0l0.1,0l0,0l0,0l0,0v0l0,0l0,0l0,0l0,0h0v0.1
		h0.1l0,0l0,0l0,0l0,0v0l0,0v0l0,0h0l0,0l0,0l0,0l0,0l0,0l0,0H204l0,0l0,0h0h-0.1h0l0,0h-0.1h0l0,0l0,0l0,0l0,0l0,0l0,0l0,0l0,0l0,0
		l0,0l0,0l0,0v0l0,0h-0.1l0,0l0,0l0,0v0l0,0l0,0l0,0l0,0h0l0,0h0.2l0.1,0l0.1,0h0.1l0.1,0l0,0h0.1l0,0h0.1h0l0,0l0,0l0,0l0,0l0,0
		l0,0l0,0l0,0l0,0v0l0,0l0,0l0,0l0,0h0.1l0,0v0.1v0.1v0.1h0l0,0l0,0.1v0.1v0.1l0,0l0,0v0.1l0,0l0,0h0.1v0l0,0l0,0l0,0h0l0,0.1l0,0
		l0,0v0l0,0v3.3l0,0h0h0h0l0,0.1l0.1,0l0,0l0,0l0,0v0l0,0l0,0l0,0v0v0l0,0l0.1,0v0.1v0.1h0.1l0,0l0,0v0l0,0l0.1,0h0.2l0,0l0,0l0,0
		l0,0l0,0l0,0h0.1h0l0,0l0,0l0,0l0,0l0,0h0.1l0,0h0l0,0l0,0h0.1l0,0h0h0.1l0.1,0h0.1h0l0,0h0.1h0.1l0,0v0l0,0h0.1l0,0l0,0h0.1l0,0h0
		l0,0h0l0,0l0.3,0.2l0.9,0.6l0.8,0.8l0.8,0.7l0.8,0.7l0.9,0.8l0.6,0.6v0.2l0.3,0.6l1.1,1l0.3,0.3h0.1h0.1l0.3-0.1v0l0-0.2h0.1h0.1
		l0.1,0.1h0.1l0.1,0.1l0.1,0.2l0.2,0.3l-0.2,0.4v0.1l0.2,0.1l0.8,0.8l0.9,1.2l-0.5,0.8l-0.6,0.5l-0.3,0.4l3.5,1.1l-0.2,0.1l-0.3,0.2
		l-0.2,0.1l-0.2,0.2l-0.4,0.1l-0.2,0.1l-0.5,0.3l-0.4,0.2l-0.3,0.3l-0.1,0.1l-0.2,0.3l-0.8,0.5l-0.5,0.3l-0.2,0.1h-0.2l0,0l-0.2,0.1
		l-0.3,0.1l-0.1,0.1l-0.1,0.1l-0.5,0.3l-0.2,0l-0.4,0.2l-0.3,0.2l-0.3,0.4l-0.3,0.3l-0.1,0.5v0.4l0.4,0.4l-0.8,0.5l1.9,1.7l-0.7,0.5
		l-0.7,0.5l-1.9-1.7l-0.8,0.5l-0.4-0.3h-0.1h-0.1h-0.3h-0.1h-0.1l-1.3,0.4l-1,0.6l-2.8,2.1l-1.4,2.4l-2,1.5h-0.1l0,0h-0.1h-0.1
		l-0.2,0.1h-0.1l-0.6,0.2l-0.8,0.4l-0.1,0.1l-0.2,0.1l-0.1,0.1l-0.1,0.1l-0.3,0.2h-0.2h-0.2h0l0,0l0,0l0,0v0h-0.1h0h-0.1h-0.1
		l-0.6-0.3l-0.3-0.1l-1.4-0.6l-5.2-2.3l-0.9-0.4l-1-0.5l-1.1-0.5l-0.6-0.1l-0.5-0.2h-0.1h-0.1l-0.3-0.1h-0.1l0,0h0H183h0l0,0l0,0
		l-0.3-0.1l-0.7-0.3l-0.2-0.1l-0.9-0.4l-1.2-0.8l-1-0.5l0,0l0,0l-1.1-0.4l-1.1-0.5l-1-0.5l-0.8-0.3l-0.5-0.2l-1.2-0.6l-1-0.5
		l-1.2-0.5l-0.2-0.1l-0.2-0.1l-0.2-0.1l-0.2-0.1l-0.2-0.1l-0.2-0.1l-0.2-0.1l-1-0.7l-0.1,0h-0.1h-0.1l-0.1,0h-0.1H168h-0.1h-0.1
		h-0.1l-0.1,0h-0.1l-0.1,0h-0.1H167l-0.1,0.1l-0.1,0.1l-0.1,0.1l-0.3,0.2v0l0,0.1v0.1v0.1v0.2v0.1v0.1l0,0.1v0l0.1,0.1l0.8,0.3h0v0
		v0l0,0v0v0.1v0l0,0l1.4,0.6l0.7,0.3l0.2,0l7.6,3.4l1.2,0.5l4.8,2.2l0.9,0.4l0.1-0.1l0,0l0,0l-0.5-0.3l-1-0.5l-0.6-0.3l0,0h0
		l0.1-0.1l0,0l-0.1,0.1h0.1l0,0l0.1,0.1h0.1l0,0l0.1,0l0,0l0.1,0.1l0,0l0.1,0l0,0l0.1,0l0,0l0.1,0l0.1,0.1l0,0l0.1,0l0,0l0.1,0l0,0
		l0.1,0.1l0,0l0.1,0l0,0h0.1l0,0l0.1,0.1l0,0l0.1,0.1l0,0h0.1l0,0h0.1l0,0h0.1l0,0h0.1l0,0l0.1,0l0,0l0,0h0.1l0.1,0l0,0l0.1,0
		l0.1-0.1l0,0l-0.1,0.1l0.1,0l0.1-0.1l0,0l-0.1,0.1h0.1l0.1,0l0,0h0.1l0,0l0.1,0l0,0l0.1,0h0.1l0.1-0.1l0,0l-0.1,0.1l-0.7-0.3l0,0h0
		l-0.1,0.1l0.3,0.2l0.2,0.1l0.3,0.1l-0.2,0.2h0l0,0l0,0l0.4-0.6l0.2,0.1l0,0l-0.1-0.1l-0.4,0.6l0.1,0l-0.1,0v0l0.1,0.1l0,0h-0.1l0,0
		l-0.2-0.1l0,0l0,0l0,0l0.2,0.1l0,0l-0.2-0.1h0v0.2v0.1v0.1v0.1h0l0,0l0.1,0h0.1h0.1h0.1h0.1h0.1h0.1h0h0.9l0,0l0,0v0.1v0.1v0.1v0.1
		v0.1l0,0.1l0,0.1l0.1,0.1l0.1,0.1l0.1,0.1h0.1h0.1h0h0.1h0.1h0.1l0.1,0l0.1,0h0.1l0.1,0l0.1,0.1l0.1,0.1l0.1,0.1l0.1,0.1l0,0.1
		l0.3,0.9l0,0l0,0l0,0h0.1h0.1h0.2h0.1h0h0.1l0,0l0,0h0l0,0h0l0,0l0,0l0,0h0h0.1l0,0h0.1h0h0.2l0,0h0l0,0h0.1l0,0h0.2l0,0h0.1h0.1
		h0.1h0.1l0,0h0.1l0,0h0.2l0,0h0l0,0h0.1h0h0.6h0h0.1h0.1h0.1h0.1h0.1h0h0.1h0.1h0.2h0.1l0,0l0,0l0.1,0.1l0,0h0h0.6h0.1h0.1l0,0.1
		l0.1,0.1l0.1,0h0h0.1h0.1h0l0,0l0,0l0.1,0.2v0l0.1,0.2v0.1l0,0v0.2l0,0l0,0l0,0l0,0l0,0v0v0l0,0l0,0l0,0v0l0.1,0.2l0,0l0,0v0.1l0,0
		l0,0l0,0l0,0v0h0h0h0l0,0l0,0l0.1,0.1v0.1v0v0.1l0,0v0.1l0,0v0h0.1l0,0l0,0l0,0l0,0l0,0l0,0h0v0.1v0.1l0,0.1v0.1l0,0l0,0l0,0l0,0
		l0,0v0h0l0,0v0.1v0h-0.1l0,0l0,0l0,0.1l0,0l0,0l0,0v0l0,0l0,0l0,0l0,0l0,0l0,0h0v0l0,0v0v0.2v0.1v0.1l0,0v0.1l0,0l0,0.1h0v0l-0.1,0
		l0,0l0,0l0,0l0,0l0,0l0,0h-0.1l0,0l0,0l0,0l0,0l0,0l0,0v0v0l0,0l0,0l0,0l0,0l0,0l0,0l0,0v0.1l0,0l0,0h0l0,0l0,0l0,0l0,0v0v0l0,0
		l0,0v0.1v0.1v0.2v0.1l0,0l0,0h0v0l0,0.1l0,0.1v0v0.1v0.2v0v0.2l0,0l0,0l0,0h0l0,0l0,0l0,0l0,0v0.1l0,0l0,0l0,0h0l0,0h0h0.1l0,0l0,0
		h0.2l0,0v0l0,0v0.1h0l0,0l0,0v3.7l0,0h0v0.1l0,0l0,0v0.1h0l0,0l0,0l0,0v0l0,0l0,0l0,0l0,0h0l0,0l0,0v0.2l0,0v0l0,0l0,0v0l0,0.1
		l0,0.1l0,0l0,0l0,0l0,0l0,0l0,0l0,0l0,0l0,0l0,0l0,0l0,0l0,0l0,0h0l0,0l0,0l0,0l0,0l0,0l0,0l0,0h0l0,0l0,0v0.1l0,0v0v0.1l0,0h0h0.1
		l0,0h0h0.1l0,0l0,0v0.1h0.1v-0.1l0,0h0.4h0h0.1l0.1,0l0.1,0.1l0.1,0.1l0.2,0.1h0.1l0.1,0.1h0.1h0.1h0l0.1,0h0.1h0.1h0.1l0,0h0.1
		h0.1h0.1h0.1h0.1h0h0.3h0h0.2h0h0.1h0.1h0.1l0,0h0.2h0.1h0.1h0.1h0.1h0.1h0.1h0.1h0.1l0.1,0l0.2,0l0.2,0.1l0.1,0l0.1,0h0.1l0,0
		l0.1,0h0.1l0.1,0l0.1,0.1l0.1,0.1h0.1h0.1l0,0l0,0h0l0.1,0l0,0l0,0l0,0v0.1h0l0.1,0.1l0,0l0.1,0.1v0v0.1v0.1l0,0l0,0l0,0l0,0v0.2
		l0,0l0,0l0,0h0h0l0,0l0,0.1l0,0l0,0.1l0,0.1l0,0l0,0h0h-0.1H201h0h0l0,0h0v2.1l0,0h-0.2l0,0l0,0l0,0l0,0l0,0l-0.2,0h-0.1h-0.1v0
		l0,0l0,0l0,0h-0.1l0,0h0l0,0l-0.1,0l-0.1,0.1h-0.1l-0.1,0.1h-0.1h0h0h-0.1h-0.2h0l0,0h0H199l0,0H199h-0.1h-0.1h-0.1h-0.1h-0.1v0
		h-0.1h0h-0.1h-0.1h-0.1h-0.5l0,0l0,0.1v0l0,0v0.6h0l0,0v0.1l0,0l0,0h0l0,0v0h0.1h0.1h0.1h0.1l0,0v0.1l0,0v0l0,0l0,0l0,0l0,0h0.1
		l0,0l0,0h0.1l0,0h0.1h0.1h0.1h0.1l0,0l0,0h0.1h0.2l0,0l0,0l0,0l0,0h0.1l0,0h0h0h0h0.1h0.2h0.1h0.1l0.1,0h0.1h0.1l0,0l0,0l0,0l0,0
		h0.1l0,0l0,0l0,0l0,0l0,0l0,0h0l0,0l0,0l0,0l0,0h0l0,0l0.1,0h0h0.2l0,0l0,0l0.1-0.1l0,0h0.1l0,0h0h0l0,0h0l0,0h0.1l0,0v-1h0h0h-0.1
		l0,0v-0.1l0,0v0h0.1l0.1,0l0.1,0h0.1h0.1h0.1h0.1h0.1h0.1l0.1,0l0,0h0.1h0l0,0v0h0.1h0.1l0,0l0.1,0.1l0.1,0l0.1,0h0.1h0.1l0,0v0h0
		l0,0v0v0.1v0.1v0.1v0.1v0.1v0.2v0.1v0l0,0l-0.1,0.1v0.1l-0.1,0.1l-0.1,0.1l-0.1,0.1h0l0,0.1v0l0,0.1l-0.1,0.1l-0.1,0.1l-0.1,0.1
		l-0.1,0.1l-0.1,0.1l-0.1,0.1l-0.1,0h-0.1l-0.1,0.1l-0.1,0l0.8,0.4h0l-0.1,0l-0.1,0.1l-0.1,0.1l-0.1,0.1l-0.1,0.1l-0.1,0.1l-0.2,0.1
		l-0.2,0.1l-0.1,0.1h0l0,0l0,0l0,0l0,0l0,0v0l0,0h0l0,0l0,0v-0.1l0,0h0l0,0l0,0h0.2h0v0l0,0l0,0h0l0,0l0,0l0,0l0,0h-0.1l0,0h-0.1
		l0,0l0,0l0,0l0,0v0v0l0,0v0l0,0l0,0h-0.1l-0.1,0l0,0l0,0l0,0v0v0.1v0.1v0.1v0l0,0l0,0l0,0v0l0,0l0,0l0,0h0.1v0l0,0l0,0l0,0l0,0h0h0
		h0l0,0l0,0l0,0l0,0l0,0l0,0l0,0h0v0l0,0l0,0h0.1v0.1l0,0l0,0v0l0,0l0,0v0v0.1l0,0h0l0,0l0,0h-0.1h0v0l0,0v0.1v0.1v0.2v0.1l0,0l0,0
		v0l0,0v0.1v0.1v0.1v0v0v0.1l0,0v0v0.1v0l0,0v0H200l0,0h-0.1h0h-0.1l0,0l0,0h0l0,0l0,0v0v0.1h0l0,0l0,0l-0.1,0l0,0l0,0h-0.1l0,0l0,0
		h-0.1l0,0h0l0,0h-0.1l0,0h0v0l0,0l0,0h-0.1l0,0l0,0h0l0,0h0l0,0H199h-0.1h-0.1h-0.1h0h-0.1l0,0h-0.1h0h-0.1l0,0h-0.1h-0.1h-0.1h0
		l0,0h-0.1v0l0,0l0,0l0,0l0,0h0h0l0,0h0l0,0h0l0,0h0l-0.1,0.1h0v0h-0.1h-0.1h-0.1h-0.1h-0.1H197h0l0,0h-2.3l0,0l0,0h0l0,0l0,0h-0.1
		h-0.1h-0.1h0h-0.1h-0.1l0,0h0h-0.2h-0.1h-0.1l0,0h-0.1l0,0h-0.2l0,0h-0.1h-0.1H193h-0.1h-0.1h0l0,0h0h0h-0.3l0,0h-0.1h-0.1l0,0l0,0
		l0,0l0,0h-0.3l-0.2,0h-0.1l0,0h-0.1h-0.1h-0.1h-0.1l-0.3-0.1h-0.1h-0.1l0,0l0,0l0,0h-0.1h0h-0.1h-0.1h0l0,0h-0.1h-0.1h-0.1l0,0l0,0
		l0,0H190l0,0l0,0l0,0l0,0l0,0l0,0l0,0l0,0l0,0l0,0h0l0,0l0,0l0,0l0,0V176h0l0,0l0-0.1l-0.1-0.1l-0.1-0.1l0-0.1l-0.1-0.1l0,0
		l-0.1-0.2l0-0.1l-0.1-0.2l-0.1-0.1l-0.1-0.2l0-0.1v-0.1v0v-0.1v0l0.1-0.1l0.2-0.2l0-0.1v-0.1v-0.1l0,0l0.1-0.2v-0.1v-0.2v-0.1V173
		l0,0v-0.2v-0.1v-0.1v-0.1v0l0,0v-0.1v-0.1v-0.1v-0.1V172v-0.2v-0.1l0,0h0v-0.1v-0.1h0v0h0l0,0v-0.1l0-0.1V171v-0.1v0l0,0v0v0l0,0
		l0,0l0,0h-0.1l-0.1-0.1l-0.1-0.1l0,0l0,0l0,0v0l0-0.1l0,0v0l-0.1-0.1l-0.2-0.1h0l-0.1,0l-0.1-0.1l-0.1-0.1l0,0l0,0l0,0l-0.1,0v0
		l0,0l0,0v-0.1v0l0,0h-0.1l0,0h-0.1l-0.1,0v-0.1l0-0.1v-0.2h-0.8l0,0h0.1v-0.1v-0.3v-0.1h-0.1h-0.1l-0.1,0l0,0l0,0l0,0h0l-0.1,0l0,0
		l-0.2,0.1H187h-0.1l-0.2-0.2l0,0l-0.1-0.1l0,0l0,0l-0.2,0.1v0l0,0l0,0l1.7,1.7l0,0l0,0l0,0l0,0h0l0,0l0,0l0,0l0,0h0l0,0h0.1l0,0
		l-0.1-0.1l-1.7-1.6l0,0l-0.1,0.1l0,0l0.2-0.1h0l0,0l0.1-0.1v0l-0.1,0.1h-0.1l0,0l-0.2,0.1l0,0l0.1-0.1l0,0l0,0l0,0l0,0l0,0v0l0,0
		l0,0l0,0h0l-0.1-0.1l-0.1,0.1l0,0l0.2-0.1l0,0l0,0l0.1,0.1l0.1,0.1l0.1,0.1h0l0,0h0.1l0.1-0.1l-0.2-0.2l-0.2-0.1l-2-1.7l0,0l-2.2-2
		h0h0l0.2,0.2l0,0l0,0l0,0l0,0l0,0v0h-0.1l-0.1,0.1l0,0l0,0l0.1,0l0,0l0,0v0v0h0.1l-0.1-0.1l-1.4-1.2v-0.1l-0.2,0.2l0,0l0.2-0.2
		l0.3-0.2l-0.1-0.1l-0.3,0.2l-0.3,0.2l0,0l0.3-0.2l-0.2-0.2l-0.3,0.2v0l0.2-0.1l0.3-0.2l-0.1-0.1l-0.3,0.2l-0.2,0.1l0,0l0.2-0.1
		l0.2-0.1l-0.1-0.1h-0.1l-0.2-0.2l-0.1,0.1l-0.1-0.1l0.2-0.1l-0.1-0.1h0l0,0h0v0l0,0H180l-0.1-0.1l-0.1-0.1v-0.3h-0.1h-0.1h0h-0.1
		l-0.2-0.3l-0.2,0.1l-0.1,0.1l-0.2-0.2l-0.1,0l0.1,0.1l0.3,0.2l0,0l-0.2-0.2l-0.3,0.2l1,0.8l0,0l-0.5-0.5l-0.5,0.3v0.1l0.7,0.6
		l0.2,0.1l0.5,0.4l0.1-0.1l0,0l-0.2,0.2l0,0l0.1,0l-0.5-0.4l-0.2-0.1l-0.7-0.6v-0.2l0.5-0.3l-0.2-0.1l-0.2,0.1l-0.4,0.3l0,0
		l-0.3,0.2l0,0l0,0.2l0.8,0.8l0,0l0,0l0.5,0.4h0.1h0.2l0.1,0.1l0.7,0.2l0.7,0.6l0.3,0.4h0.1l0.1,0.1l0.1,0l0.1,0.2h0.1l1.8,1.7
		l0.4,0.2l0,0l0.1,0.1l0.9,0.6l-0.2,0.2l0.1,0.1l0,0v0.1l0,0.1l0,0l0.1,0.1l0.1-0.1l0.1,0l0,0l0,0l-0.1,0l0.1,0.1h-0.1l0.4,0.3
		l0.5,0.4l0.2-0.1l0,0l0.1-0.1v0l-0.1,0.1l0,0l-0.2,0.1h0l0,0l0.1,0l0.3,0.4l0.4,0.1l0.2-0.1l0.1,0.2l-0.1,0.1l0.4,0.4h0.1l0.1,0.1
		l0,0.1v0.2v0.8h0.2l-0.1,0.7l0,0l0.2,0.5v0.3l0,0l0,0l0,0l0,0l0,0l0,0v0.3l0,0v0.3l0,0l0,0v0.4v0.2l0,0v0.1l0,0l0.2,1.2v0.1l0,0
		v0.2h0v0.3h0v0.1v0l-0.2,0.1h0l0-0.1h0v0l-1.4,0.4l-1.2,0.3l-1.2,0.3l-0.7,0.2l0,0H183l-0.1-0.4l0.1-0.1l-0.1-0.3l-0.2-0.5
		l-0.1-0.1l-0.1-0.1l-0.2-0.2l-0.1-0.1h-0.3h-1h-0.2h-0.2h-0.2H180h-0.2h-0.2h-0.2l-0.2,0l-0.1-0.2l-0.2,0.1l-0.1-0.2l0-0.1l0,0
		h-0.1h-0.2l-0.1,0.1l-0.1,0l-0.1,0l-0.2,0.1h-0.1h-0.1h-0.1l0,0h-0.1l-0.7,0.4l0,0.1l0,0.1l0,0l0.1,0.2l0.2,0.2l0,0l0.6,0.5
		l0.2,0.2v0.1h0.1l0.2,0.4l0,0l0.2,0.3h0v0.1h0.1l0.2,0.4v0.1l-0.8,0.2l0-0.1l-0.3,0.1l0,0l-2.4,0.6l-2.1-0.3l-0.8-0.1l-0.3,0
		l-0.3-0.1l-0.2,0v0l-0.2-0.3l-0.1,0.1l-2,0l0.1-0.1l-0.1-0.1l0,0l-0.1,0l-0.8-0.7l-0.3-0.3h0l-0.4-0.5h-0.1l-0.5-0.5h0l-0.1-0.1
		h0.1l0-0.1l0.2-0.1l-0.1-0.1l0.1-0.1l-0.1-0.1l-0.1-0.4l0.1-0.3l0.4-1.1l-0.5-0.1h-0.1l0.3-0.9h-0.1l-0.3,0.9l0.5,0.1v0.1l-0.5-0.1
		l0-0.1l0,0v-0.2l-0.2,0l-0.1,0.2h0l0.1-0.2l0.3,0l0.2-0.7h-0.2l0,0h0.1v-0.1h0.1l0,0.1h0.1l0.2-0.9h0.1l0.3-0.4l-0.1-0.1l0.7-0.5
		l0.1-0.1l0.8-0.4l-0.1-0.3l0.1-0.1h0.1l0.2-0.1l0.1-0.1l0.1-0.1l-0.1-0.3L170,169l-0.2-0.8h0h0.1v-0.2l-0.1,0l0,0l-0.1-0.6l0.1,0
		l1-0.6l0.4-0.3l-0.3-0.3l-0.1,0.1l0,0l0,0h0l0.1-0.1h-0.1h-0.1h-0.2h-0.1h-0.1l-0.1,0h0h0l0,0l0,0v0.1l-0.1,0H170l-0.4,0.3
		l-0.2,0.1l-0.7,0.5l-0.2,0.1l-0.6,0.4l0,0l0.3-0.2l0.3-0.2l0,0l0,0l0.3,0.3l0,0.1v-0.1l-0.3-0.3l-0.4,0.3l0.5,0.4l0.1-0.1l0,0
		l-0.3,0.2l0,0l0.1-0.1l-0.5-0.4l-0.1,0.1l0,0l-0.1,0.1l0.5,0.8l0.1,0l-0.2,0.1l-0.5-0.8l0,0l-0.1-0.1l0,0v0l-0.2,0.1l1.2,2.1
		l-1.4,0.9l0.1,0l0,0l0.1,0l0,0h0l-0.1,0.1l0.1,0l0,0l-0.1-0.1l0,0h-0.1l-1.6,1.1l-0.1,0.1v0.1l0.5,0.4l0,0v0.1l-0.2,0.5h0.1
		l0.1-0.5l0,0l-0.4,1.2l0,0l0.2-0.7h-0.1l-0.2,0.6l0,0l0,0l0,0h0l-0.6,0.5l0.6,0.5l0.1-0.1l-0.2,0.2l0.1-0.1l-0.6-0.5l-0.4,0.3h0
		l0,0l0,0h-0.1l1,0.9l0.1-0.1l0,0l-0.3,0.2l-0.1,0l0.1-0.1l-1-0.9l-0.4,0.3l1.3,1.1l0.1-0.1l0,0l-0.3,0.2l0,0l0.2-0.1l-1.3-1.2
		l-0.1,0h-0.1h0v0.1v0.2l0.4,0.5l0.3,0.2l0.2,0.1l0.3,0.2l0.1,0.2l0,0l0.8,0.8l1.2,1.1l-0.1,0.1l2,1.8h0.1h0.1l0.9,0.8l-0.2,0.1
		l0.6,0.6l0.6,0.1l0,0l0,0l0.1,0.1l0-0.1l0,0v-0.2l0,0l0,0l0,0h0.2l0,0h-0.1l-0.1,0.2l0,0v0.1l0,0l0,0l0.1,0.1l0,0l0.1,0.1l0.4-0.3
		l-0.2-0.2l0,0l0.2,0.2l-0.5,0.4l0,0v0l0,0l0.1,0l0.1,0.1l0.2-0.1l0,0l0,0l0.1-0.1l-0.2-0.1l0.3-0.2l0,0l-0.2,0.2l0.1,0.1l0,0
		l0.3-0.2l0,0l-0.4,0.3l0,0l0,0h0l0,0l0,0.4h0.1l0,0h0.1l0,0h0.2h0.1l0.3-0.3l0,0l0.2-0.3l0,0l-0.2,0.2l0.2,0.1v0l-0.2-0.1v0.1
		l-0.2,0.3h0.1h0.1h0.2h0.1h0.3h0.2h0.2h0.2h0.2h0.3h0.2v-0.1h-0.3l-0.5,0h-0.2l-0.3-0.1l0,0l0,0l0,0l0.3,0.1h0.1v0.1h0.3h0.3h0.2
		l0,0h0.1l0,0l0,0v-0.2H174l-0.6-0.1h-0.2h-0.1l0,0H173h0l0,0l-0.1,0h-0.1l0.1-0.2v0.2h0.1v-0.2l0,0v0.1l0,0h0.1h0.1h0h0.2l0,0h0.3
		l0,0h0.1l0,0h0.1l0,0h0.2l0,0h0.2l0,0h0.3h0.1h0.2v-0.1v0.2l0,0h0.1v-0.2l0,0v0.4h-0.1v-0.1h-0.1h-0.6v0.1v0.2h0l0.5,0.1l0,0l0,0
		h0.1V183l0,0l0,0.1l0,0h-0.2l-0.3,0h-0.3v0.1h0.1l0,0l0.8,0.1h0.2v-0.2v-0.4l0,0l0,0h0.2l0,0h0.2l0,0h0.2l0,0h0.2h0.1h0.2h0.1h0.2
		h0h0.2l0,0h0.2h0h0.2l0,0h0.1v-0.1l0,0v0.2l0,0v-0.1l0,0l-0.7,0l0,0h0h-0.2h0h-0.2l0,0h-0.2l0,0h-0.2h-0.2l0,0H175v0.4l0,0l0,0h0.1
		h0h0.5h0h0.5l0,0h0.5h0.1l0,0v-0.1l0,0v0.1l-1.1,0.1h0h-0.5H175v0.1l0.1,0h0.1h0.5h0.2h0.1h0.1h0.1h0.1h0.1h0.1h0.1h0h0h0l0,0l0,0
		h0.1l0.1,0l0.1,0.1h0l0.1,0.1v0.1l0.1,0.1l0.1,0.1h0.1h0.1h0.1v0l0,0h0.1h0.1h0.1l0.1-0.1l0,0l0-0.1l0.1,0l0.1,0h0.1l0.1-0.1h0.1
		h0.1h0.1v0h0.1h0.1l0,0h0h0.1l0.1,0v0v0h0.1h0.1h0.1h0.1l0,0h0.1l0.1-0.1l0.1-0.1l0.1,0h0.1h0.1h0.2h0h0.1h0.1l0.1-0.1h0.2h0.1h0.1
		h0.1l0.1,0h0.1h0.1h0h0.1h0v0h0.1h0.1h0h0.1h0.1h0h0l0,0h0.1h0.2h0.1h0l0.4,0.1h0.3l0.3-0.1l0.2-0.1h0.1h0.1l0.1,0l0.1,0l0,0h0.1
		h0.2h0.1v0v0.1l0,0v-0.1l0-0.1l0-0.1h0.1h0.1h0h0.2l0.1-0.1h0.1h0.1h0h0.1v0l0.1,0l0.1-0.1l0.1,0h0.1l0.2-0.1l0.1-0.1h0.2h0.1l0,0
		h0.1l0.3-0.1h0.1h0.2h0.1h0.1l0.1,0h0.1h0.2h0.1l0.1-0.1l0.2-0.1h0.2l0.1,0h0.2l0.4-0.1l0.4-0.2h0.3h0.2h0.1l0,0h0.6h0.1h0.1h0.1
		h0.1h0.1h0.1h0.1l0.1,0l0.1,0.1l0.1,0.1l0.1,0.1h0.1l0-0.1l0,0l0,0h0l0,0h0.1l0.1,0h0.1h0.2l0,0l0,0l0,0h0.1l0,0l0,0l0,0l0,0l0,0
		l0,0h0.1l0.1,0.1l0,0l0,0h0h0.1h0.1h0.1h0.1h0.1h0.1h0.4l0,0l0,0l0,0h0.1h0l0,0l0,0h0.1h0.1h0l0,0l0,0l0,0h0.1l0,0h0.1h0.1h0.1h0.1
		h0.1h0.1h0h0.1h0.1h0.1h0h0.1l0,0l0,0v-0.1l0,0l0,0l0,0l0,0l0,0h0.2h0l0,0l0,0h0.1h0l0,0h0h0.1h0h0.1h0.1h0.1h0.6l0.1,0h0.1h0.1
		h0.1h0.1h0.2l0,0l0,0l0,0l0,0l0,0h0l0,0l0,0v0l0.1,0v-0.1h0h0.1l0,0l0,0h0.1l0,0h0h0h0.1h0.1h0h0.1h0.2l0.1,0h0.1h0.1l0,0h0.2h0.1
		h0.8h0l0,0h0h0h0.1h0.1h0.1h0h0h0.1h0h0.2h0.2h0.1l0,0l0,0l0,0l0,0h0h0l0,0h0l0,0l0,0l0,0l0,0l0,0v-0.1l0,0l0,0l0,0l0.1,0l0,0
		l0.1,0l0,0l0,0l0,0l0,0l0,0l0,0h0.1l0,0h0l0,0h0.1h0.1l0,0h0.1l0.1,0h0.1h0.1h0.1h0.1h0.1h0.1h0h0.1h0.1l0,0l0,0h0h0h0.1h0.1h0h0
		h0.1l0.1,0l0,0h0.1h0.9l0,0l0,0l0,0l0.1-0.1h0.1h0l0,0h0.1l0,0l0,0l0,0l0,0v0l0,0l0,0l0,0l0,0h0l0,0h0h0h0l0,0l0,0l0.2-0.1h0.1h0.1
		h0l0,0l0,0h0.1l0,0h0.1l0,0h0l0,0v0l0,0h0l0,0h0h0l0.2-0.1h0.1h0.1h0.1h0.1h0.1h0.1h0.4h0.1h0.1h0.1h0h0.1h0.1h0.1h0.2h0.1h0.1h0.1
		h0.1h0.1h0.2h0.2h0.1h0.4h0.4h0.5h0h0.2h0l0,0h0v0v0l0,0v-2.2l0,0l0,0l0,0l0,0l0.7-0.2l1.3,1.2l0.4,0.6l-0.4,0.6l0.1,0.4L211,182
		v0.2l0,0.2l0,0.2l0.1,0.2l0.1,0.2l0.1,0.2l0.1,0.2l0.1,0.2l0.1,0.2l0,0l0.1,0v0h0v0.1v0.1v0.1v0.1v0.1v0.1v0.1l0,0.1v0.1l0,0.1
		l0.1,0.1v0.1l0,0.1l0,0.1v0.1v0.2v0.1v0.1v0.1v0.1v0.1l0,0.1h0.1l0,0.1l0.1,0.1h0v0l0,0v0.2v0v0.1v0v0l0,0h0l0,0h0v0l0,0v0v0.1v0v0
		v0l0,0v0.1l0,0l0,0h0v0.1v0.2v0.1l0,0v0.4v0.2v0.2v0.2l0.1,0.2v0.2l0.1,0.2l0.1,0.2l0.1,0.2l0.1,0.2l0.1,0.2l0.1,0.2l0.1,0.2
		l0.1,0.1l0,0.1v0.1l0,0.1v0.1v0.1v0.2v0.1v0.1v0.1v0.2v0.2v0.2v0.2v0.2v0.2l0,0.2l1.1,3.5l0.6-0.1l0,0l-0.7,0.1l0.3,0.8l0.5,0.8
		l0.5-0.1l0.1,0.2l-0.5,0.1l0.1,0.3v0.2l0.3,0.3l0,0l0,0v0.1v0.2l-0.1,0.2l-0.1,0.3l0.1,0.4l0,0.2v0.2l0,0.3l0.1,0.3l0.1,0.3
		l0.1,0.3l0.1,0.3l0.1,0.3l0.1,0.3l0.1,0.3l0.1,0.2l0.2,0.3l0.2,0.2v0l0.1,0l0,0v0.1l0,0.1l0,0l1.6,2l-4,6.4l-2.7,0.7l-0.2,0.2
		l0.2,0.4l-0.4,0.1h-0.2h-0.2h1.2h-0.2h-0.2l-0.2,0H212l-0.2,0.1h-0.1l-0.1,0.1l-0.1,0.1l-0.1,0.1l-0.1,0.1l-0.1,0.1l-3,0.6l-2,0.1
		h-0.1h-0.3h-0.1h-0.1h-0.1h-0.1h-0.1h-0.1h-0.1h-0.2h-0.1h-0.1l-0.1,0.1H204l-0.1,0.1l-0.1,0l-0.1,0h-0.1h-0.1h-0.1h-0.1h-0.6h-0.2
		h-0.1l-1-0.1h-0.1h-0.1h-0.1h-0.1l-0.1,0l-0.1,0l-0.1,0h-0.1l0,0.1l-0.1,0.9l-0.2,0.1l-0.2,0.1H200l-0.2,0.1h-0.2l-0.2,0H199h-0.3
		l-0.2,0l-0.2,0l-0.2,0.1l-0.2,0.1l-0.2,0.1l-0.2,0.1l-0.2,0.1l-0.1,0l-0.2,0h-0.1h-0.2h-0.2h-0.1h-0.5h-0.2l-0.1-0.3l-0.1-0.3
		l-0.1-0.3l-0.1-0.3l-0.1-0.3L195,215l-0.1-0.3l-0.1-0.3l-0.1-0.3l-0.2-0.3l-0.2-0.2l-0.1-0.1l-0.1-0.1l-0.1-0.1l-0.1-0.1l-0.1-0.1
		l-0.1-0.1l0-0.1l-0.1-0.2v-0.1v-0.1v-0.2v-0.5v-0.2v-0.1l0-0.2l0-0.1l0.1-0.1l0.1-0.1l0.1-0.1l0.1-0.1l0.1-0.6l0.1-0.5V209v-0.2
		v-0.2l0-0.2l0-0.2l-0.1-0.2l-0.1-0.2l-0.1-0.2l-0.3,0.1l-0.3-0.6v0l0,0v0V207v-0.1l-0.2-0.2l-0.1-0.2l-0.1-0.2l-0.1-0.1l-0.1-0.1
		l-0.2-0.2l-0.1-0.1l-0.1-0.2l0-0.1l0,0l0,0v-0.1l0,0l0.1-0.1l0.1-0.1l0-0.1l0.1-0.2v-0.1v-0.1v0l0,0l-0.1-0.2v-0.1l-0.1-0.1
		l-0.1-0.1l-0.1-0.1v-0.1l0,0v0v0l0,0v0v-0.1v-0.1l0-0.1l-0.1-0.1l-0.1-0.2l-0.1-0.1l-0.1-0.1l0-0.1l-0.1-0.1l-0.1-0.1v0l-0.1-0.1h0
		l-0.2,0.1h0l-0.1,0.1l0,0l-0.1,0.1l0,0l-0.1,0.1l0,0l-0.4,0.2l-0.1-0.1l0.1-0.1l0,0l0.2-0.1l0.2-0.1l0,0l0.1-0.1l0,0l0.1-0.1l0,0
		l0.2-0.1l0,0l0,0l0,0h0H191h-0.1h-0.1l-0.1,0l-0.1,0l-0.1-0.1l0,0l0,0l-0.1,0h-0.1h-0.1h-0.1l0,0l-0.1,0.2h-0.4l0,0l0,0l0.1-0.2
		l0,0h-0.1v0.2l0,0l0,0h-0.1l-0.3,0.1l0-0.1l-0.3,0.1l-0.8,0.3l0.1,0.1h-0.1l0,0l0,0l0.1,0l-0.1-0.1l0.3-0.1l0,0l0.8-0.3l0.1,0.1
		l0.4-0.1l0.1-0.2l0,0l0,0h-0.2h-0.1h-0.1l0,0h-0.1h-0.1h-0.5h-0.1h-0.1h-0.1h-0.1l0,0l-0.1,0h-0.1h0l0,0l-0.1,0l0,0h0l0,0l-0.1,0.1
		l-0.1,0.1h-0.1h-0.1l0,0l0,0h-0.1v0h0l0,0l0,0l0,0h-0.1l0,0l0,0h0l0,0l0,0l0,0l0,0l0,0h-0.3h-0.1h-0.1h-0.2h-0.3l0,0h0h-0.1h0h0h0
		h0l0,0h-0.1h-0.1h0l0,0h-0.1h0l0,0l0,0h0l0,0l0,0v0.1l0,0l0,0h-0.1h-0.3H185h-0.1h0l0,0l0,0l0,0l0,0l0,0l0,0h-0.1l-0.1,0l-0.7-0.2
		l-0.3-0.2h-0.1h-1l-0.8-0.3l0,0l0,0l0,0l0,0l0,0l0,0l0,0l0,0l0,0l0,0l0,0v-0.1V202l0-0.1l-0.1-0.1h-0.2l-0.1-0.1h-0.1h-0.3h-0.1
		h-0.1h-0.1l-0.1,0.1l-0.1,0l-0.1,0.1l-0.1,0.1l-0.1,0.1l0,0.1l0,0.1v0.1v0l0,0h0l0,0h0.1l0,0h0.2l0,0h0.1l0,0h0.1l0,0l0,0l0,0l0,0
		l0,0v0l0.1,0.1v0.1l-0.1,0l0,0v0h0l0,0h-0.2h-0.3l-0.3,0l-0.4,0h-0.2h-0.2h-0.2l-0.2,0l-0.2,0h-0.3l-0.2,0.1l-0.2,0.1l-0.3,0.1
		l-0.1,0l-0.1,0l-0.3,0.1l-0.3,0.1h-0.2l-0.3,0.1l-0.2,0.1h-0.2l-0.2,0.1h-0.1h-0.2H175h-0.1h-0.1h-0.1h-0.1h-0.1h-0.1l-0.1,0h-0.1
		H174l-0.1-0.1h-0.1l-0.1-0.1l-0.1-0.1l-0.1-0.1l-0.1,0v-0.1l0,0l-0.1-0.4v0v-0.1v-0.1v-0.1v-0.1v-0.1l0,0l0,0l0,0l0,0l0,0h0.1l0,0
		l0,0l0,0v-0.1l0,0l0,0v-0.1l0,0v-0.1l0,0l0,0l0,0l0-0.1l0,0v0v-0.1l0-0.1v0v-0.1v-0.1v-0.1v-0.1v-0.1v-0.1v0V201v-0.1v-0.1v-0.1
		v-0.1v-0.1v0.4l0,0l0,0l0,0l0,0l0,0l0,0l0,0l0-0.1v-0.1l0-0.1v-0.1l0-0.1l0,0l0,0l0,0l0,0v0l0,0v-0.5l0,0l0,0l0,0l0,0l0,0v-0.1
		v-0.1l0,0l0,0l0,0l0,0h0l0,0l0,0l0,0l0,0l0,0l0,0l0,0l0,0l0,0l0,0l0,0v0v0h0l0,0l0,0l0,0v-0.1l0,0v-0.6v-0.1v-0.1l0,0l0,0l0,0l0,0
		l0,0v0l0,0l0,0v-0.1v0v-0.2v0V198v-0.1v0l0,0v-0.2l-0.1-0.1l0,0l0,0l0,0l0,0l0,0v-0.1l-0.1-0.1l0,0l0,0l0,0v0v-0.1l0,0v-0.1l0,0
		l0,0v-0.1l0,0l0,0v-0.1v-0.1v0v-0.1v-0.1l0,0l0,0l0,0l0,0h-0.1l0,0l0,0v-0.1l0,0l0,0l0,0l0,0v-0.1l0,0v-0.1l0,0l0,0l0,0v-0.1l0,0
		v-0.2l0,0l0,0l0,0l0,0l0,0v0l0,0l0,0l0,0l0,0v-0.1l0,0l0,0l0,0v-0.1l0-0.1l0,0v-0.1l0,0v-0.1l0,0v-0.2l0,0v0l0,0v-0.1l0,0v-0.1l0,0
		V195l0,0l0,0l0,0v-1.2l0,0l0,0l0,0v0l0,0l0,0l0,0v-0.1l0,0v-0.1v-0.1l0,0v-0.1l0,0l0,0l0,0l0,0l0,0l0,0l0,0l0,0v-0.1l0,0l0,0v0l0,0
		v0l0,0v-0.4l0,0v-0.1l0,0l0,0l0,0l0,0l0,0l0,0l0,0l0,0l0,0l0,0l0,0l0,0v0l0,0l0,0l0,0v-0.1l0,0l0,0l0,0l0,0l0,0l0,0l0,0l0,0l0,0
		l0,0l0,0l0,0v0l0,0l0,0l0,0l0,0l0,0l0,0l-0.1-0.1h0l0,0l0,0l0,0l0,0l0,0l0,0l0,0l0,0l0,0l0,0l0,0l0,0l0,0l0,0l0,0l0,0l0,0l0,0h0
		l0,0l0,0v-0.1l0,0l0,0h0l0,0l0,0l0,0l0,0l0,0l0,0v0l0,0l0,0v-0.1l0,0l0,0l0,0l0,0l0,0v-1.4v0v-0.1l0,0l0,0l0,0l0,0l0,0l0,0l0,0l0,0
		l0,0l0,0l0,0v-0.1l0,0l0,0l0,0l0,0l0,0v0l0,0l0,0l0,0h0l0,0l0,0v0l0,0v0l0,0l0,0l0,0l0,0l0,0l0,0l0,0h-0.1l0,0h0l0,0h0l0,0l0,0
		h-0.1l0,0l0,0l0,0l0,0l0,0l0,0l0,0l0,0l0,0l0,0l0,0l0,0l0,0l0,0l0,0l0,0l0,0v0l0,0l0,0l0,0l0,0l0,0h-0.1l0,0l0,0l0,0l0,0l0,0l0,0
		l0,0l0,0l0,0l0,0v0l0,0l0,0l0,0l0,0l0,0v0l0,0l0,0l0,0l0,0l0,0h0l0,0l0,0l0,0l0,0v0l0,0l0,0l0,0l0,0l0,0v-0.1l0,0l0,0l0,0l0,0l0,0
		l0,0l0,0l0,0l0,0l0,0h-0.1l0,0l0,0l0,0l0,0l0,0l0,0V190l0,0l0,0l0,0v0l0,0l0,0v0l0,0v-0.1l0,0l0,0l0,0l0,0l0,0l0,0l0,0l0,0l0,0l0,0
		l0,0l0,0v-0.1l0,0l0,0l0,0l0,0h0l0,0l0,0h0l0,0l0,0l0,0l0,0l0,0h-0.1l0,0v-0.1l0,0l-0.1-0.1h0l0,0h0h0H172h-0.1l0,0l0,0h0l0,0h0h0
		l-0.1-0.1l0,0h-0.1h-0.1l0,0h-0.1l0,0l0,0l0,0h0l0,0l0,0l0,0h-3.6l0,0h-0.1l0-0.1l0,0l0,0l0,0l0,0l0,0l0,0l0,0l0,0l0,0h-0.1l0,0
		l0,0l0,0v-0.1l0,0h0l0,0l0,0l0,0l0,0h0h0l0,0l0,0l0,0l0,0l0,0l0,0l0,0l0,0l0,0l0,0h-0.1l0,0l0,0l0,0l0,0l0,0h-0.1l-0.1,0h-0.1l0,0
		l0,0l0,0l0,0h-0.1l0,0l0,0l0,0v-0.1v0l0,0l0,0h0l0,0l0,0v-0.1l0,0h-0.1l0,0l0,0l0,0l0,0l0,0l0,0l0,0l0,0h-0.1v-0.1l0,0h-0.1l0,0
		l0,0l0,0v-0.1l0,0h-0.1v0l0,0l-0.1,0l0,0l0,0l0,0l0,0l0,0l0,0l0,0l0,0l0,0h-1.6h-0.1l0,0h0l0,0v0l0,0l0,0l0,0l0,0h-0.1h0h0l0,0l0,0
		h-0.1v0h0.1l0,0h-0.1l0,0l0,0l0,0l0,0l0,0l0,0v0.1h-0.1l0,0h0.1l0,0h-0.2l0,0l0,0l0,0l0,0l0,0H164l0,0h-0.1h-0.1h-0.1l0,0l0,0h0
		l0,0l0,0l0,0l0,0h0l0,0l0,0l0,0l0,0l0,0l0,0l0,0l0,0h-0.1l0,0l0,0h0l0,0l0,0l0,0l0,0h0v0l0,0l0,0l0,0h0l-0.1,0h-0.1l0,0l0,0l0,0
		l0,0l0,0l0,0l0,0l0,0l0,0h0l0,0l0,0l0,0l0,0l0,0h0l0,0v-0.1l0,0l0,0h-0.1l0,0l0,0h-0.1h0l0,0v-4.6l0,0l0,0H163l0,0l0,0l0,0l0,0l0,0
		h-0.1l0,0l0,0l0,0h-0.2l0,0l0,0l0,0l0,0v0l-0.1,0l0,0l0,0h-0.1l0,0v0l0,0h-0.1l0,0l0,0v0l0,0h-1.8l0,0l0,0h-0.1l0,0h0l0,0l0,0h-0.1
		v0h-0.1l0,0l0,0l0,0l0,0l0,0h0v0h0l0,0l0,0h-0.1l0,0l0,0l0,0v0l0,0l0,0l0,0l0,0l0,0l0,0H160l0,0l0,0l0,0l0,0l0,0l0,0h-0.1l0,0l0,0
		v0l0,0l0,0h0l-0.1,0h0l0,0v0l0,0l0,0l0,0v0v0l0,0l0,0l0,0l0,0l0,0h0l0,0l0,0l0,0l0,0l0,0l0,0l0,0l0,0h-1.1l0,0l0,0v0.1l0,0l0,0l0,0
		l0,0v0l0,0l0,0l0,0h0.1v0.6l0,0l0,0l0,0l0,0v0.1l0,0l0,0l0,0l0,0v0.1l0,0h-0.1l0,0l0,0l0,0l0,0l0,0l0,0l0,0v0l0,0l0,0l0,0l0,0l0,0
		l0,0v0h0l0,0h0l0,0v0.1l0,0l0,0l0,0l0,0l0,0v0.1l0,0.1l0,0l0,0l0,0l0,0l0,0l0,0v0.1l0,0l0,0l0,0l0,0l0,0l0,0l0,0l0,0l0,0l0,0l0,0
		l0,0l0,0l0,0h-0.1l0,0l0,0l0,0l0,0h-0.3v0l0,0l0,0l0,0l0,0h0l0,0l0,0l0,0l0,0l0,0l0,0H158l0,0h0v-0.1h0l0,0l0,0l0,0l0,0l0,0l0,0
		l0,0l0,0h0l0,0h-0.1l0,0l0,0l0,0h-0.1h-0.1h0l0,0l0,0v0l0,0h0l0,0l0,0l0,0l0,0l0,0l0,0l-0.1,0h-0.1l-0.1,0l-0.1,0h-0.1l-0.1,0H157
		l-0.1-0.1l0,0l0,0l0,0l0,0l0,0h-0.1l0,0h-0.1l0,0l0,0h-0.1l0,0l0,0h-0.1l0,0l0,0l0,0v0l0,0l0,0l0,0l0,0l-0.1,0v0l-0.1-0.1l0,0l0,0
		v0l-0.1-0.1l0,0l0,0l0,0l0,0h0l0,0h0l0,0l0,0l-0.1-0.1l0,0l-0.1,0l0,0h0l0,0l0,0l0,0l0,0l-0.1-0.1l-0.1-0.1l0,0l0,0l0,0v-0.1l0,0
		l0,0l0,0l0,0h0h-0.1l0,0l0,0l0,0l-0.1-0.1l-0.1-0.1h-0.1l-0.1-0.1h0l0,0l0,0h-0.1l0,0l0,0l0,0l0,0l0,0v0l0,0l0,0l0,0l0,0l0,0l0,0
		l0,0l0,0v-0.1l0,0l0,0l0,0l0,0H155l0,0h-0.4l0,0l0,0l0,0h-0.1l0,0l0,0v0l0,0l0,0v-0.1l0,0l0,0l0,0l0,0l0,0l0,0l0,0h0l0,0l0,0h-0.1
		l0,0h-3.8h-0.1l-0.1-0.1l0,0h0l-0.1,0l0,0l0,0l0,0v0v0l0,0v-0.1v-1.6v0v-0.1v0l0,0v0h0.1h0h0.1l0,0v-0.1l0,0l0,0h0l0,0l0,0l0,0l0,0
		l0-0.1l0.1,0l0.1-0.1h0l0,0v-0.1l0,0l0,0l0,0l0,0h-0.1l0,0l0,0V181l0,0l0,0v0h0l0,0h-0.1h-0.1l0,0l0,0l0,0l0,0l0,0h0l0,0h0h-0.1h0
		h0h0v0l0,0h0l0,0l0,0h-0.4l-0.1,0l0,0l0,0l0,0l0,0v-0.1l0,0l0,0h0l0,0l0,0l0,0l0,0v0l0,0h0l0,0v0l0,0h-0.1h-0.1l0,0h-0.1h-0.5l0,0
		h-0.1l0,0v0h0l0,0l0,0l0,0v0l0,0l0,0l0,0l0,0l0,0l0,0l0,0l-0.1,0l0,0v0l0,0l0,0l0,0v0l-0.1,0.1l-0.1,0.1l0,0l0,0h0l0,0l0,0l0,0
		l-0.1,0.1h0l0,0l0,0l-0.1,0h-0.1l0,0h0l0,0v0v0.2l0,0l0,0.1l0,0.1v0l0,0.1v0.1l0,0h0.1h0.1h0.2l0.1,0l0,0l0,0v0v0.1v0.1v0.1
		l0.1,0.1l0.1,0.1l0,0.1v0v0l0.1,0v0.1h0l0,0l0.1,0.1v0.1l0,0.1l0.1,0.1l0.1,0.1l0.1,0.1h0.1h0.1l0,0h0h0.1l0,0h0.1v0l0,0l0,0l0,0
		l0,0h0l0,0l0,0l0,0l0.1,0.1h0.1l0,0v0.1l0,0l0,0l0,0h0.1l0,0l0,0h0h0.2h0.3h0.1h0h0.1l0,0l0,0l0,0l0,0v0l0,0v0l0,0v0l0,0h0.1h0.1
		l0,0l0,0v0v0l0,0v0v0.1l0,0h0h0h0.1l0,0v0v0l0,0l0,0l0,0l0,0l0,0l0,0l0,0v0l0,0l0,0h0h0.2l0,0l0,0l0,0l0,0h0.1h0.1l0.1,0.1h0.1h0.1
		v-0.1v-0.1l0,0l0,0l0,0l0,0l0,0l0,0h0.4h0h0h0l0,0v0.1l0,0l0,0l0,0l0,0l0,0l0,0l0,0h0.1h0.1l0,0l0,0h0h0.1h0l0,0h0.1h0.1h0.1l0,0
		v0.1l0,0h0l0,0l0,0l0,0l0,0h0.1h0l0,0l0,0h0l0,0h0h0.1h0v0l0,0l0,0l0,0l0,0l0,0l0,0l0,0l0,0l0,0l0,0h0.1l0,0l0.1,0.1l0,0l0,0l0,0v0
		l0,0v0l0,0l0,0l0,0l0,0l0,0l0,0l0,0h0l0,0l0,0l0,0l0,0h0l0,0l0,0h0.1h0l0,0l0,0l0,0l0,0l0,0v0l0,0l0,0l0,0l0,0v0.1l0,0l0,0l0,0h1.4
		l0,0l0,0l0,0h0h0.1l0,0h0.1l0,0l0,0l0.1,0.1l0,0l0,0h0l0,0l0,0l0,0l0,0l0,0h0.1l0,0l0.1,0.1h0l0,0h0l0,0l0,0h0h0.1l0.1,0h0h0l0,0
		l0,0l0.1,0.1l0,0l0,0h0l0.1,0l0.1,0.1v0l0,0l0.1,0.1l0,0l0,0v0.1l0,0l0,0l0,0l0,0l0,0l0,0l0,0l0.1,0.1l0.1,0.1l0,0l0,0l0,0l0,0
		l0.2,0.1l0.1,0.1h0l0,0l0,0l0,0l0.1,0.1l0.1,0.1l0,0l0,0l0,0h0.1l0,0h0.1l0,0l0,0h0l0,0l0,0l0,0l0,0l0,0v0.1v0.1l0,0v0l0,0l0,0l0,0
		l0,0l0,0l0,0h0h0l0,0l0,0l0,0l0.1,0.1l0,0l0.2,0.1h0.1l0.1,0.1l0,0l0,0l0,0h0l0,0l0,0l0.1,0.1l0,0.1l0,0l0,0l0,0l0,0h0l0,0l0,0l0,0
		l0,0l0,0l0,0l0,0l0,0l0,0l0,0l0,0l0,0l0,0v0.1l0,0v0.1l0,0l0,0l0.1,0.1l0,0v0.1l0,0l0,0l0,0l0,0l0,0l0,0l0,0l0,0l0,0v0.1l0,0l0,0
		l0,0l0,0l0,0l0,0l0,0l0,0l0,0l0,0l0,0l0,0l0,0l0,0l0,0l0,0v0v0l0,0l0,0l0,0l0,0l0,0h0.1l0,0l0,0l0,0l0,0l0,0h0.2v0h0l0,0l0,0h0l0,0
		l0,0l0,0h0l0,0l0,0h0.1h0h0.1h0.1h0.1h0h0.1l0,0h0.2l0,0l0,0l0,0l0,0h0l0,0l0,0h0h0h0.1l0,0h0.1l0,0l0,0l0,0l0,0l0,0l0,0l0,0l0,0
		l0,0l0,0l0,0l0,0l0,0l0,0l0,0l0,0l0,0h0l0,0l0,0l0,0l0,0l0,0l0,0l0,0l0,0l0,0l0,0l0,0l0,0l0,0l0,0l0.1,0.1l0,0l0,0l0,0l0,0v0l0,0
		l0.1,0.1l0.1,0.1l0.1,0.1h0l0,0l0,0l0,0l0,0v0l0.1,0l0.1,0.1l0,0l0,0h0l0,0l0,0l0,0l0,0h0l0,0l0,0l0.1,0.1l0,0h0l0,0l0,0l0,0l0,0
		l0,0v0l0,0l0,0l0,0l0,0l0,0l0,0l0,0l0,0l0,0h0h0l0,0l0.1,0l0,0l0,0h0l0,0l0,0l0,0h0h0l0,0l0,0l0,0l0,0l0,0h0l0,0l0,0l0,0.1l0,0l0,0
		l0,0l0,0l0,0l0,0l0,0l0,0l0,0v0l0,0l0.1,0.2l0,0v7.2l0,0l0,0l0.1,0.1l0.1,0.1l0.1,0.1v0.1l0,0l0,0l0,0l0,0l0,0l0,0v0.1v0l0,0l0,0
		l0,0h0l0,0l0,0l0,0l0,0v0h5h0.1h0.1l0,0l0,0l0,0l0,0l0,0l0,0l0,0v0l0,0l0,0l0,0l0,0l0,0l0,0l0,0l0,0h0.1l0,0l0,0v0l0,0l0,0v0l0,0
		l0,0l0,0l0,0l0,0l0,0l0,0l0,0h0l0,0l0,0l0,0l0,0v0.1l0,0l0,0l0,0l0,0v1.1l0,0l0,0l0,0l0,0l0,0l0,0l0,0l0,0l0,0l0,0l0,0h0.1l0,0l0,0
		l0,0l0,0l0,0l0,0l0,0l0,0l0,0l0,0l0,0l0,0l0,0l0,0l0,0l0,0h0.1l0,0v0l0,0l0,0h0.1h0l0,0l0,0l0,0l0,0l0,0l0,0l0,0h0.1h0l0,0h0l0,0
		l0,0l0,0l0,0l0,0l0,0l0,0h0.1l0,0l0,0h0.1h0l0,0h0h0.1h0v0l0,0l0,0l0,0l0,0l0,0l0,0l0,0l0,0l0,0l0,0l0,0l0,0h0l0,0l0,0l0,0l0,0
		l0.1,0.1v0h0.1h0.1l0,0l0,0l0,0h0.1l0,0l0,0l0,0l0,0v0.1l0,0.1v0.1l0,0v0l0,0l0,0l0,0l0,0v1.5v0v0.1l0,0l0,0l0,0l0,0v0.1l0,0l0,0
		l0,0l0,0h0.1l0,0v0.1l0,0l0,0l0,0h0h0h0h0v0l0,0l0,0l0,0l0,0l0,0l0,0v0.1l0,0v0v0.1v0.1l0,0.1l0,0l0,0h0v0.1h0l-0.1,0.1l0,0h-0.1
		l0,0l0,0l0,0h0l-0.2,0.1l-0.1,0.1l-0.2,0.1l-0.1,0.1l-0.2,0.1l-0.2,0.1l-0.2,0.1l-0.2,0l-0.2,0.1l-0.2,0.1l-0.2,0.1l-0.1,0
		l-0.2,0.1h-0.1l0,0l0,0l0,0l0,0l0,0l0,0l0,0l0,0l0,0l0,0l0,0l0,0l0,0l0,0l0,0l-0.1,0h0h0h-0.1h0h-0.1h-0.1l-0.1,0l0,0l-0.1,0
		l-0.1,0L165,202l-0.1,0.1l-0.1,0.1l-0.1,0.1l-0.1,0.1l-0.1,0.1l-0.1,0.1l-0.1,0.1l-0.1,0.1l-0.1,0.1l-0.1,0.1v0.1l0.1,0.1h0l0,0h0
		v0l0,0l0,0h0l0,0l0,0l-0.1,0.1l0,0h-0.1h-0.1v0h-0.1h-0.1l-0.1,0h0l0,0l0,0l-0.1,0h0h0h0l-0.2,0.1l-0.1,0h-0.1l-0.1-0.1l0,0h-0.1
		l0,0l-0.1-0.1h-0.2l-0.1,0h-0.1h-0.1h-0.2v0h1l0,0h0.2l0,0h-0.2l0,0l0,0l0,0l0,0l0,0l0,0v0l0,0h-0.1l0,0h-0.1h-0.1l-0.1,0.1h-0.1
		h-0.1H162h-0.1l0,0h0l0.1,0.1l0,0l0,0l0,0h0l-0.1,0.1h0h0h0l0,0l-0.1-0.1l0,0l0,0l-0.1,0.1l0,0l0.1,0.1l0,0.1h0l0-0.1l-0.1-0.1l0,0
		h0l0,0h-0.5v0l0,0h-0.3l0,0l0,0v0h0l0,0l0,0l-0.1,0.1h0l0.1-0.2h-0.1l0,0h-0.3h0l-0.2-0.2l0,0h-0.4h-0.1h-0.1l-0.1,0.1l0,0
		l-0.1,0.1l-0.1,0l-0.1,0l-0.3,0h-0.3h-0.2l-0.2,0.1l0,0.1l0,0l-0.3,0.9l0-0.1h0l0,0l0,0l0,0l0,0.1l0,0l0,0l-0.3,0.1l-0.5,0.1h-0.1
		h-0.1l-0.1,0h-0.1l0,0l-0.1-0.1H156l0,0v0h-0.1v0l-0.2-0.2v-0.1h-0.1l-0.1-0.1l-0.1-0.1l-0.1-0.1v-0.1h-0.1l-0.2-0.2l-0.1-0.1v0
		h-0.1l-0.1-0.1l-0.1-0.1l-0.1-0.1l0,0h0h-0.1l-0.1-0.1l-0.1-0.1l0.1-0.1h0h-0.1l-0.2-0.1h0l-0.1-0.1h0.1l-0.1,0h-0.1l-0.1-0.1v-0.1
		l-0.1-0.1l0,0h0l0.2,0.2l0,0l-0.3-0.3l0,0l0,0l0,0l0,0l0,0l0,0l-0.1,0l-0.1-0.1h-0.1h-0.1l-0.1,0l-0.4,0.2l0,0l0.4-0.2l0,0l0,0h0
		l0,0h0l0,0l-0.1-0.1l0.1,0l0,0l-0.1-0.1h0l-0.1,0l0,0l0,0l-0.1,0l-0.1,0l0,0l-0.1,0l-0.1,0.1l-0.2,0.1l0.1,0.1l0,0l-0.2-0.2h0.1
		l0.1,0.1l0.1-0.1l0,0l0.2-0.1l0.1,0l0,0l0.2-0.1l0,0l0.1-0.1l-0.1-0.1l0.1,0v0h0h-0.1l-0.2,0.1l-0.2,0.1l-0.2,0.1l0,0l-0.2-0.1l0,0
		l0.1,0.1l0.1,0l0,0h0.1l0,0l0,0l0.1-0.1l0,0l0,0l0.1-0.1l0,0h0.1l0,0h0l0,0l0,0l-0.2-0.2l0,0l0,0l-0.2-0.3l0.9-0.5l0.2-0.1l0.4-0.2
		l0,0l0,0l0.4-0.2l0.4-0.2l0.4-0.3l0.4-0.3l0.4-0.2l0.4-0.3l0.4-0.2l0.4-0.3l0.4-0.3l-0.2-0.1l-0.2-0.1l-0.1,0l0,0l-0.1,0.1l0,0
		l-0.1,0.1l0,0l-0.1,0l0,0l-0.1,0h-0.1l0,0l-0.2,0.1l0,0l-0.2,0.1l0,0h-0.1l0,0l-0.2,0.1l-0.4,0.2l-0.7,0.4l0,0l-0.2,0.1l-0.2,0.1
		l-0.3,0.2l-0.4,0.3l-0.4,0.3l-0.4,0.3l-0.7,0.5v0l-0.5,0.3l-0.3-0.2l-0.1,0l0,0l0,0l0,0l0,0l0,0l0,0l0.2,0.1l0,0l-0.1-0.1h0
		l-0.1,0.1h0l0,0h0l0,0l0,0h-0.1l-0.1,0l0,0l0.1,0l0,0l-0.1-0.1l0,0l0,0l0.1,0l0,0l0,0h0h0l0,0h0l0,0l0,0h0.1l0,0l-0.1-0.1h0l0.1,0
		l-0.1-0.1l-0.2-0.1l0,0l-0.1,0.1l0,0l0,0h0l0,0l-0.1,0.1l0.1,0.1l0,0l-0.1-0.1l0.2-0.1l0,0l0.2-0.1l0,0l0,0h-0.1l-0.1,0.1l-0.5-0.3
		l0,0l0.1-0.1l-0.1-0.1l0,0l0.1,0.1l0.1-0.1l-0.1-0.1l0,0l0.1,0.1l0.1-0.1l-0.1-0.1l0.1,0.1l0.1,0l-0.1-0.1l0.1,0.1l0.1,0l-0.1-0.1
		l0,0l0.1,0.1l0,0l0,0l0,0l0,0l0,0l0,0l0,0h0h0l-0.3-0.1h-0.2l0,0l-0.2,0h-0.2l-0.4-0.1l-0.2,0l-0.2-0.1l-0.1-0.1v0.1v0l0.2,0.1
		l0.1,0l0,0h0.2l0.3,0.1v0l-0.3-0.1h-0.3l-0.4-0.2l-0.2-0.1l-0.2-0.2l-0.1-0.1v0l0,0l-0.2-0.1h0l0.2,0.2h0.1l0.1,0.2v0l0.1,0.1
		l0.1-0.1l-0.1-0.1l-0.2-0.2l-0.1-0.2l0.1-0.1h0h-0.1l0,0l-0.1,0v0.1h0l0-0.4h0v0.3h0.1l-0.1-0.3v-0.1h-0.1l0,0v-0.4h0v0.1h0.1
		l0-0.4v-0.2V198h-0.1l0,0h-0.1v0.4l0,0V198h0.2l0,0l0,0v0h-0.3l0,0h0.3v-0.1h-0.4l0,0h0.3l0,0h0.1l0.1-0.1H149l-0.1,0.1l0,0h-0.1
		l0,0h0v-0.4h0v0.4h0.1l0.1,0l0,0v-0.2l0.1-0.4H149l-0.1,0.3h0l0.1-0.2l0,0v-0.3v-0.3l0,0v0.6h0V197v-0.3v-0.1l0,0v-0.1v-0.1h-0.1
		v0.1h0l0,0v-0.2l0,0v0l0,0v0.2h0.1v0v-0.1l0.1,0.1l0,0l0,0l0,0l0,0l-0.1,0l-0.1-0.1l0,0h0l0,0l0,0l-0.1,0.1l0.1,0l0,0l0,0l0,0h0
		l0.1-0.1l0,0l0.1-0.2l0,0l-0.1,0l0,0l0,0l0,0l-0.1,0.1h0l0,0l0,0v0l0,0l0,0l0,0l0,0l0,0l0.1,0l0,0v-0.1l0.1,0l0,0H149l0,0h-0.1l0,0
		l0,0l0,0l0,0l0,0l0,0l0,0v0l0,0v0l0,0h0.1l0,0h0.7h0.1l0,0l0.1,0l0.2-0.3h-0.1l0,0h-0.1h-0.1v0.1l0,0l0,0l0,0v-0.2l0,0v-0.1l0,0
		l-0.1,0.2h0.1h0.1h0.1v-0.1v-0.1l0-0.1v-0.1h-0.1h-0.2v0h0.2h0.1v0l-0.1-0.1v-0.1v-0.1v-0.1v-0.1l-0.1-0.1l0-0.1v-0.1l-0.1-0.1
		l-0.3,0.2v0l0,0v0.1v0.1v0.1l0,0v0l0,0l0,0v0.1l0,0l-0.1-0.2v-0.1v0l0,0l-0.1-0.1l-0.1,0l0,0l0,0l-0.2,0.1l-0.1-0.1l0.2-0.1l0,0
		l-0.1-0.1l-0.1-0.1h0h0l0,0l0,0l0,0l0.1,0l0,0l0,0l0.1,0.1l0,0l0,0l0,0v0l0.4-0.2l-0.1-0.1l-0.1-0.1l-0.1-0.1l-0.2-0.1l-0.1-0.1
		h-0.1h0l-0.2,0.1l0,0h0.1l0,0l0.1,0.1l0,0h0l0,0l0,0h0l0,0v-0.1l0,0h0l0,0v0l0,0l0,0l0.1-0.1h0h-0.1l-0.1,0l0,0l0,0h-0.1l0,0h0h0
		l0,0H148l-0.1,0.1l-0.1,0.1l0.1,0.1l0,0l-0.1-0.1h0l0,0l0,0h0l0,0l0,0l0.1,0l0,0l0.1-0.1l0,0h0l0,0l0,0H148h-0.2l0,0h-0.1h-0.1
		h-0.1h-0.1h-0.1l0,0.2H147v0.1l0,0v-0.1h0.2v-0.1v-0.1h0.1h0.1h0.1h0.3h0.2h0l0.2,0l0.1,0h0l0,0h0h0l-0.2-0.1h-0.1h-0.2l-0.2,0
		h-0.2h-0.2h-0.2h-0.1h-0.1l-0.1-0.1l0,0l0,0h-0.1h0h-0.1h0h-0.1h-0.1v0.1l0,0v0.1l0,0l0,0l-0.2,0.1l0,0l0.2-0.1l-0.1-0.1h-0.1h-0.1
		h-0.1l-0.2,0.1l0,0.1v0.1v0l0,0v0.1l0.1,0.3v0.1l0.1,0.2l0.1,0.1l0.1,0.1l0.1,0.1l0.3,0.4l0.2,0.4l0.1,0.3l0.1,0.1l0.1,0.2l0,0h0.1
		l-0.1-0.2l0,0h0l0,0l0,0l0,0l0.2,0.4l0,0l-0.1-0.2h0h-0.1l0,0l0.1,0.1l0,0l0,0l0.1,0l0.1,0.1l0,0.1l0,0.2v0l0,0l0,0v0.1h0.2h0
		l0.1,0.1l0.1,0.1l0,0h-0.1h-0.1h-0.1h-0.1l0,0.2l0.5-0.2v-0.1l0,0h-0.1l0,0h-0.1l0,0l0,0l-0.2,0.1l0.1,0.1h-0.1h0l0,0v0l0.2,0l0,0
		h0l0,0h0.1l0,0l0,0l0,0.2l0,0v-0.1l-0.2,0l0,0l-0.1,0.4l0,0l0.1-0.4l-0.2,0l0,0v0.1h-0.1v0.1h0v0.1h0.1v0l0,0v0.2l0,0v-0.1H147v0.1
		v0.1h0.1h0.1v0.5v0.1v0.1h0.1v0.1l0.2,1.3h-0.1l0.1,0.3h0.1h0l0.1,0.1v0.1l0.1,0.2l0.1,0.2v0.2h0.1l0.1,0.1l0.6-0.2l0,0v0l-0.6,0.2
		h0l0,0.1h-0.1l0,0h0.1l0,0l0.1,0.1l0,0.1l0,0l0,0l0.8-0.2l0,0l-0.8,0.2l0,0l0.1,0.2l0.8,0.9l0,0l-0.3,0l-0.4,0.1l-0.7,0.1l-0.8,0.1
		v0.2l0,0v0.1v0v0.2v0.1l0.1,0.1h0.2v-0.1h0.3l0,0l0.3,0l1.2-0.1l0,0l-1.2,0.1l-0.4,0v0h-0.1l0,0h0l0,0h-0.1v0.1l0.6,0l1.1-0.1
		l0.1,0l0.1-0.1h0.4l0.1,0h0.1h0.3h0.1h0.1h0.1h0.1h0.1l0.1,0.1l0.1,0l0,0l0.1,0.1l0,0l0,0.1l0,0v0.2v0.1v0v0v0.1v0h0.1l0,0h-0.1
		l0,0l0,0.1l0,0h0.3v0.1h-0.3v-0.1h0l-0.1,0l0.1,0.3h0.2l0.2-0.1l0.1-0.2h0.1h0.2h0.1h0l0,0l0,0h0l-0.3-0.3H152v-0.2h0.1v0.2
		l0.2,0.2l0.1,0.1v0l0,0h0l0,0l0,0v0l0,0l0,0l0.1,0.1h0.1l0,0l0.2,0.1l0.2,0.1l0.1,0.1l0.1,0.1l0,0.1v0l0.1,0l0.2,0.2l0.1-0.1l0,0
		l-0.4-0.2l0,0l0,0l0.6,0.3l0.7,0.4l0.1,0l0,0.1l-0.2-0.1l-0.8-0.4l-0.1,0.1l0.1,0h0.1h0v0l0.2,0.1l0.3,0.1l0.1,0.1h0.1h0.1l0.1,0.1
		l0,0l0.1,0l0,0v0h0.1l0,0l0,0h0.1h0h0.3l0,0h0.1h0.1l0.1,0l0,0h0.1l0,0l0,0l0,0h0l0,0h0.1h0l0,0h0.4l0,0l0,0l0,0h0h0.1h0h0.2l0,0
		l0,0h0.2l0,0h0h0.3l0,0h1.4l0,0h0h0.1l0,0h0.1h0.1h0.1h0.1h0l0,0l0,0h0l0,0h0h0.1h0.4h0h0.1h0h0.1h0.1h0.1h0.1h0.3h0.1h0.1h0.1h0
		h0.3l0,0l0,0h0.1h0l0,0l0,0h0.1h0.2v0h0.1h0h0.1h0.1l0,0h0h0l0,0l0,0h0.1l0,0h0.1l0,0h0l0,0l0,0l0,0h0.1h0h0h0.1h0h0v0l0,0h0.1l0,0
		l0,0h0h0h0.1l0,0l0,0h0l0,0l0,0l0,0h0.1l0,0h0l0,0h0h0.1l0,0h0.1l0,0l0,0h0.1l0,0l0,0l0,0l0,0h0l0,0l0,0l0,0h0.2l0,0h-0.1l0,0l0,0
		v-0.1h0l0,0l0.1,0l0,0h0.1l0,0h0.1l0,0l0,0h0l0,0h0.1l0,0h0l0,0l0,0l0.1,0l0,0v0l0,0l0,0l0,0l0,0h0h0v0l0,0l0,0l0,0l0,0h0.1h0h0h0
		l0,0l0,0l0,0h0.1l0,0l0,0l0,0l0,0h0l0,0l0,0h0.1h0.1l0.1,0h0h0.1l0,0l0,0l0,0l0,0h1.3v0h0.1l0,0h0l0,0v0l0,0l0,0l0,0l0,0l0,0l0,0
		l0,0l0,0h0.1l0,0h0l0,0h0l0,0l0,0l0,0h0l0,0h0.1h0h0.1h0.1h0.1h0l0,0h0.1h0.1l0,0l0,0l0,0l0,0h0h0h0.1h0h0.1l0,0l0,0v0l0,0l0,0l0,0
		h0.3l0,0h0.2l0,0l0,0h0.1l0,0h0.3l0,0l0,0h0.1l0,0h0.1l0,0h0h0.1h0.1l0,0l0,0l0,0h0.1l0.1,0.1h0l0,0l0,0l0,0h0l0,0l0.1,0l0,0l0,0
		l0,0h0.1v0h0l0,0h0.1h0.1h0.1v-0.1h0.1h0.1h0.1h0.1h0.1h0.1l0.1,0h0.1h0.1l0.1,0l0.1,0.1l0.1,0.1l0.1,0.1l0.1,0.1l0.2,0.2v0.2v0.1
		l0,0v0.1v0.1v0h0v0.2v0v0.2l0,0v0l0,0l0,0h0l0,0h0l0,0v0v0.1h-0.2l0,0l0,0l-0.1,0.1v0.1v0.1v0.1l0,0l0,0l0,0l0,0l0,0l0,0v0l0,0v0.1
		v0.1l0,0l0,0h0h0.1l0,0l0,0l0,0h0h-0.1l0,0l0,0l0,0v0.2l0,0v0l0,0h0l0,0l0,0l0,0l0,0l0,0l0,0l0.1,0.1v0l0,0l0,0v0.1v0l0,0l0,0l0,0
		h-0.1l0,0v0h0l0,0h0v0.1h-0.1l0,0l-0.1,0h-0.1h0l0,0l0,0v0l0.1,0l0,0l0,0l0,0l0,0l0,0l0,0l0,0l0,0l0,0h0H171h-0.2h-0.1h-0.1h0h-0.2
		l-0.1,0l0,0h0H170l0,0h-0.1h0h0l0,0l0,0h-0.1l0,0l0,0l0,0l0,0l0,0l0,0l0,0l0,0l0,0l0,0l0,0l0,0h0h0l0,0h0h0h-0.1h0l0,0h0l0,0l0,0
		l0,0l0,0h-0.1l0,0l0,0v0v0l0,0l0,0l0,0V208h0l0,0h0.5l0,0l0,0l0,0l0,0l0,0l0,0l0,0h-0.1h-0.1l0,0l-0.1,0h-0.1l0,0l0,0h0l0,0l0,0
		l0,0H169l0,0h-0.4l0,0l0,0h-0.3l0,0h0h-0.1l0,0l0,0v-0.1h0l-0.1-0.1h0l0,0h0l0,0l-0.1,0h-0.1h0h-0.2h-0.1h0l0,0h0l0,0l0,0v-0.1l0,0
		h0l0,0H167l0,0l0,0l0,0l0.3,0.2l0.3,0.2h0h0l0,0l0,0l0,0l0,0l0,0h0h0.1h0.1h0.1l0.1-0.1l0.1,0h0l0,0h0h0l0,0v0.1l0,0l0,0l0,0l0,0
		l0.1,0h0.1l0,0l0,0l0,0l0,0l0,0l0,0l0,0l0,0l0,0l0,0l0,0l0,0l0,0l0,0l0,0h0.1l0,0h0l0,0h0l0,0l0,0l0,0l0,0h0.1l0,0l0,0l0,0l0,0l0,0
		h0v0h0.5h0l0,0l0,0l0,0h0h0.1h0h0.1h0.1l0.1,0h0.2h0l0,0l0,0v0v0h0h0l0,0l0,0v0l0,0l0,0l0,0h0h0v0l0,0l0,0l0,0l0,0h0.4l0,0l0-0.1v0
		l0,0l0,0v0l0,0l0,0l0,0v0l0,0h0.1h0.1h0.3l0,0l0,0l0,0l0,0l0,0h0l0.1-0.1l0.1-0.1h0.1l0,0h0h0.2h0h0.2h0l0,0l0,0l0,0l0,0l0,0l0,0
		l0,0v1.1l0,0v0l0,0l0,0l0,0l0,0h0.1l0,0v-0.1l0,0l0,0h0l0,0l0,0v-0.2l0,0h0.1l0,0l0,0h0.4l0,0l0,0l0,0l0,0l0.1,0l0.1,0l0,0l0,0l0,0
		l0,0l0,0l0,0l0,0l0,0h0.1l0,0h0h0.1h0l0,0l0,0h-0.1l0,0h-0.1l0,0l0,0l0,0l0,0h0.2l0,0h0h0l0,0h0.1h0.1h0.2v0l0,0l0,0l0,0h0l0,0l0,0
		h0l0,0h0l0.1,0h0.1l0.1,0l0,0l0,0v0l0,0.1l0.1,0.1l0.1,0.2v0.1l0,0l0,0v0v0.1l-0.1,0.1l-0.1,0.1l-0.1,0.1v0.1l0,0l0,0l0,0l0,0h0
		l0,0h-0.2h-0.1h-0.2h-0.9h-0.3h-0.2l-0.3,0h-0.2h-0.2h-0.1h-0.1l0,0h-0.1H171h-0.2h-0.3h-0.1h-0.1h-0.1h-0.2l-0.4,0.1h-0.1h0
		l-0.3,0H169h-0.1h-0.2l-0.2,0h-0.3H168H168h-0.1h-0.2h-0.1h-0.1h-0.1l-0.1,0h-0.1H167h-0.2h-0.1l-0.2,0l-0.1,0h-0.1h-0.1H166h-0.5
		h-0.1h-0.1h-0.1l-0.3-0.1h-0.1h-0.1l0,0l-0.1,0l-0.1,0l-0.2-0.1h-0.2l-0.2,0l-0.2,0l-0.2,0h-0.2h-0.2h-0.1l-0.2,0h-0.2h-0.2h-0.1
		h-0.1h-0.1H162l-0.2-0.1h-0.2l-0.2,0l-0.3-0.1l-0.1,0h-0.1h-0.1l-0.2-0.1h-0.2h-0.1H160h-0.2l-0.2,0h-0.2h-0.2H159l-0.2,0h-0.2
		h-0.1h-0.1h-0.1h-0.1h-0.1h-0.1h-0.1h-0.1h-0.3h-0.2h-0.6h-0.1h-0.1h-0.2h-0.6l0,0v0l0,0l0,0l0,0h-0.5h-0.4h0l-1.2-1l-1.5,0.1
		l-1.6,0.1v0.1l0,0v0h-0.2l-0.9,0.2H149h-0.1h-0.1h-0.1l-0.1,0l-0.1,0.1l0,0v0v0.1v0.1l0,0l0,0h0.1l0,0l0,0l0,0l0,0l0,0v0h-0.1h-0.1
		l0,0.1h-0.2h-0.1l-0.7-0.1v-0.1h0h0l0,0l0,0v-0.1l0,0l0,0l0,0l0,0l0,0l0,0l0,0h0h-0.1h0l0,0l0,0l0.1,0.3l-0.6-0.1v0l0.5,0h0l0-0.2
		l-0.4,0.1l0,0l0,0l0,0l0,0l0,0h0h-0.1h0h-0.2l0,0l0,0l0,0h0l0,0h-0.2h-0.1h-0.1l-0.2-0.1h-0.1l-0.1,0v0.1H145h-0.7v-0.2h-0.2l0,0
		H144h-0.1v0.1v0.1l-1-0.1v-0.2h-0.2h-0.3l0,0h0v0.1h0.1v0.2h-0.2v-0.2h0.1v-0.2l-0.5,0h-0.1l0,0l0,0l0,0l0,0l0,0v0.1l0,0v0.1l0,0
		v0.1l0,0l0,0h0.2l0,0h0v0.1h-0.2l0,0h-0.4l0,0h0.3l0,0h0v-0.2h-0.3v-0.1l0,0h-0.1h-0.5v0.3h0.1l0,0h0.4l0,0h-0.6v-0.1h-0.8l0,0h0.8
		l0,0h0v0.1l0,0h0v-0.1l0,0v-0.2h0v-0.1h-0.1h-0.2h0v0h-0.7l-0.1,0h-0.3v0.3h-0.7v-0.2l-0.1-0.1h-0.3l0.1,0.2h-0.3l0,0l0,0l0,0l0,0
		l0,0h-0.2l0,0h0.1h0.1l0,0l0,0l0,0v0h-0.8v-0.2h-0.7v0.2h0v-0.2h-1v0.1l0,0v0.2l0,0l0,0h0.1l0,0h0.5l0,0l0,0h-0.1h-0.6l0,0h0.1
		v-0.2h-0.1v-0.2h-0.1v0h-0.3v0.2v0h0.1l0,0h-0.3l0,0h0.1v-0.2v0h-0.3l0,0v0.1l0,0h0l0,0h-0.1l0,0l0,0h0.1l0,0v-0.2v0h-0.1v0h-0.2
		l0-0.3h-0.1v-0.1l-1.3,0.1l0.7,0.5h-0.2l-0.7-0.6h-0.5l0.6,0.5h-0.3l-0.7-0.5h-0.5l0.6,0.5h-0.2l-0.4-0.3l-0.2-0.2h-0.5l0.6,0.5
		h-0.2l-0.6-0.5h-0.5l0.6,0.5h-0.2l-0.6-0.5h-0.5l0.6,0.5h-0.2l-0.7-0.5h-0.5l0.6,0.5h-0.1l-0.7-0.5h-0.5l0.6,0.5h-0.2l-0.7-0.5
		h-0.5l0.6,0.5h-0.2l-0.6-0.5h-0.5l0.6,0.5h-0.2l-0.6-0.5l-1.2,0l-1.6,0.2l-0.9,0.1l-1.2,0.1l-1.7,0.1l-1.4,0.1l0.1,0.4v0.1l0.1,0.8
		l0.6,0l0.7-0.1l0.5,0l1.2-0.1l1.2-0.1l0.5,0l0.4,0.1l1.8,0.3l1.4,0.3l1.3,0.3l1.3,0.2l1.2,0.2l1.4,0.3l0.4,0.1h0.8h1.2h1.2h1.8h1.2
		h1.3h1.2h1.9h1.2V211l0,0h-0.6h-1.1v-0.1l0,0v0.1l0,0h1.6h0.1l0,0l0,0l0,0h0.2v0h0.1l0,0h0.4v0.1h-0.3l0,0h-0.1v0h1v-0.2l0,0v0.2
		h0.1v-0.2h0v0.2h0.1V211v0l0.1,0h0.1h0.1l0,0l0,0.1v0.1l0.1,0.2l0.6,1.9l0,0l0.2,0.7v0.4l0.2,0.7h0.1l0.8,2.5v0.1l-0.5,0.6
		l-0.1,0.1l-2.1,0.1l-0.3,0l-2,0h-0.1h0v0.4h-0.1v-0.3l-0.1-0.1l-0.3-0.1l-0.6-0.2l-0.6-0.2h-0.3l-0.1,0.1l0,0v0.1l0,0.1v0.2l0,0
		h0.1l0,0v-0.1l0,0l0,0h-0.1l-1,0h-1.8l-4.7,0.1l0,0l0,0l0,0v0l0,0l0,0l0,0l0,0h0l0,0l0,0l0,0l0,0l0,0H133l-0.2,0h-0.2l-0.3,0
		l-0.2-0.1h-0.2h-0.2h-0.2h-0.1h-0.2h-0.1h-0.2h-0.1h-0.1h0h0l0,0l0,0l0.1,0.5l0,0l0,0l0,0l0,0l0,0h-0.1l0,0l0-0.3l0,0h0h-0.2h-0.2
		h-0.2h-0.2h-0.1h-0.1h-0.5h-0.1h-0.1h-0.1h-0.1l-0.1,0l0,0.1v0v0.1v0v0.1h0.1l0.3,0h0v0.1v0l-1,0.1h-0.2h-0.1h-0.2l-0.9,0.1
		l-1.2,0.1h-0.4l-0.5,0.1l-0.2,0.1l-0.5,0.1h-0.5h-0.2h-0.3h-0.4l-0.3,0h-0.4h-0.3h-0.3h-0.5l-0.2,0.1l-0.2,0.1l-0.2,0h-0.3
		l-0.2-0.1l-0.2,0h-0.2h-0.2h-0.4h-0.1h-0.1h-0.1h-0.1l0,0l0,0.2l0,0l0,0v-0.2l0-0.1l-0.4,0h-1l-0.7,0.1l-0.7,0.1l-0.2,0.1v0
		l0.1,0.5v0h0h-0.1l-0.1-0.4h-0.1h-0.9l-1,0.1l-0.6,0.1h-0.3l-0.3,0.1l-0.1,0.1v0l0,0.6H111h0l-0.1-0.5l0,0h-0.4h-0.6h-0.5H109h-0.3
		h-0.3l-1.6,0.2l-0.8,0h-0.5l-1.2,0.1l-0.7,0.1l-0.8,0l-1.2,0.1l-1.6,0.1l-0.2,0.1l0,0.1l0.1,0.2v0.1h0l0,0l-0.1-0.2h-0.1h-0.2h-0.7
		h-0.3h-0.2l-0.4,0.1l-0.2,0l-0.1,0l-0.2,0l-0.3,0.1v0l0.3,0.6l0,0h0l-0.4-0.7l-0.3,0h-0.3H96l-0.8,0.1l-0.3,0.1l-0.3,0.1v0.1l0,0.1
		l0.3,0.6v0.1v0h-0.1h0l-0.3-0.7l-0.1-0.1l-0.1-0.1h-0.3l-0.9,0.1l-0.6,0.1l-0.3,0.1l-0.3,0.1v0.1L92,223l0,0.3l-0.1,0.1l0,0l0,0
		v-0.1v-0.1V223v-0.2l0-0.2l0,0h-0.4h-0.4l-0.5,0l-0.6,0.1l-0.6,0.1l-0.2,0.1l0.1,0.6v0.1h-0.1l0,0v-0.1v-0.2l-0.1-0.2l-0.1-0.1
		l-0.3-0.1h-0.4l-0.8,0.1l0,0h-0.2H87l-0.2,0l-0.2,0l-0.2,0l-0.2,0.1l0.1,0.6v0.1h-0.1h-0.5l0,0h0.5v-0.1l0,0l0-0.2v-0.2v0l0,0l0,0
		v0h-0.1h-0.1H86h-0.1l-0.2,0h-0.2h-0.9h-0.2h-0.2l-0.2,0l-0.5,0.1h-0.1l-0.3,0.2l-0.1,0.1v0.1l0.1,0.1l0.1,0.1h0.1l0.3,0l0,0l0,0
		l0,0l0,0l-0.1,0h-0.2h-0.2l-0.3-0.3l0-0.2v-0.1l-0.1,0H82l-0.5,0.1l-0.4,0.1l-0.4,0.1l-0.3,0.1h-0.3l0,0v0.1h0l0.1,0h0.4h0.1l0,0
		l0,0h-0.5h-0.1l-0.1-0.1l-0.1-0.2v-0.1h-0.4h-0.5l-0.3,0l-0.8,0.1l0.4,1.7l0.5-0.1v0.1l-0.5,0.1l0.2,0.8h-0.1l-0.2-0.8l-0.5,0.1
		v-0.1l0.5-0.1l-0.4-1.6l-2.6,0.3H75h-0.7v0.1h0l-0.1-0.1h-0.4h-0.5l-0.3,0h-0.3h-0.3l-0.8,0.1l0.1,0.3h-0.1l0,0l0-0.1v-0.1h-0.3
		l-0.3,0h-0.3l-0.4,0l-0.4,0h-0.3h-0.1l-0.4,0l-0.3,0.1v0.3v0.2h-0.1v-0.2l0-0.2H68l-0.5,0h-0.5l-0.4,0h-0.1h-0.3l-0.3,0l-0.3,0.1
		v0.2v0h0v-0.1v-0.1l-0.1,0h-0.2h-0.4h-0.2h-0.5h-0.5h-0.4H63l-0.3,0.1v0.2v0.1l-0.1,0.1l0,0.7v-0.2v-0.1l-0.3,0H62h-0.4h-0.5h-0.3
		h-0.3h-0.3h-0.2h-0.2l0,0.1v0.1v0.1h-0.1v-0.2l-0.1,0l-0.2-0.1l-0.2,0l-0.2,0h-0.2h-0.2l-0.2,0h-0.2h-0.5h-0.3h-0.5l0,0v0.1h-0.2v0
		v-0.1l0,0h-0.3h-0.8h-0.3H55l-0.2,0h-0.2h-0.2l-0.7,0.2l-0.1,0l-0.1,0.1l0.1,0.7h-0.1l-0.2-1v-0.4l-0.2-0.6l-0.2-0.9l-3.1-1.5
		l-2.5-0.7l-2.8-0.5l-0.8,0l-0.9,0l-0.9-0.3l-0.6-0.2l-1-0.8l-0.1-0.1l-0.4-1l-0.2-1.3l-0.4-1.2l-0.3-0.4v-0.1v0l0.1-0.2l0.1-0.2
		l0-0.2v-0.2l0.6-1l0.1-0.2l0.1-0.2l0.2-0.2l0.2-0.2l0.2-0.2l0.2-0.1l0.2-0.1l0.2-0.1l0.2-0.1l0.2-0.1l0.2-0.1l0.2-0.1l0.2-0.1h0.2
		l0.2,0h0.2h0.2l0.2-0.1l0.2-0.1l0.2-0.1l0.2-0.1l0.1-0.1l0.1-0.1l0.1-0.1l0.1-0.1l0,0l0.2-0.1l0.2-0.1l0.2-0.1l0.2-0.1l0.2-0.1
		l0.2-0.1l0.2-0.1l0.2,0l0.2,0l1.3-0.2l0.6-0.1l1.6,0.2l1.1,0.2l1.4,0.4l1,0.1h0.5h0.9l0.6,0.1h0.1h0.1h1.2l0.2-0.1l0.2,0h0.2l0.2,0
		h0.2h0.2h0.2h0.2h0h0.1h0.1h0.1h0.1l0,0l0,0h0v0.1l0,0v0.1l-0.1,0.5v0v0v0l0,0l0,0l0,0l0,0h0h0l7.6,1.7l0.4,0.1h0.1h0.5h0.1h0.1
		l0.1,0H68l0.5-0.1l0.4-0.1l0.9,0.3H70l0.2,0.2l0.6,0.3h0.7l0.4-0.1l0.2-0.1l0.5-0.1v0.2l-0.3,0.1v0l0.5-0.1h0.1l0,0l0,0h-0.2v0
		l0.1,0h0.1v-0.1l0.9-0.9l-0.1-0.1l-0.1-0.1l-0.1,0h-0.1l-0.1,0l0.3-0.4l0.8-0.9l0.4-0.3V211v-0.1l-0.2-0.6l-1.1,0.6l-0.1,0.1
		l-0.1,0.1l-0.1,0.1l-0.1,0.1l-0.1,0.1l-0.1,0.2l-0.1,0.1l-0.1,0.1l-0.2,0.5l-0.1,0.1v0l0,0.1h0l0,0l0,0l0,0l0,0l0,0l-0.2,0.1l0,0
		l0,0l0,0h-0.1l0,0h0l0,0l0,0h0h-0.1l0,0h-0.1H72h-0.4h-0.1l-0.1,0l-0.4-0.2l-0.3-0.3l-0.6-0.3H70l-0.3-0.3l-1.6-0.5l-0.6-0.1
		l-0.1-0.1l0.1-0.3l-0.1-0.1h-0.1v-0.2v-0.1l0.2-0.2l1.8-3.1V207v-0.2v-0.1v-0.1v-0.1v-0.1l-1,0.4l-2.2,1h-0.1l-0.1,0v0l0,0.1l0,0h0
		h-0.1h-0.1l0,0l0,0l0,0l0,0l0,0v0l0,0h0h0l-0.2,0.1l-0.2,0.1l-0.2,0.1l-0.2,0.1l-0.2,0.1l-0.2,0.1l-0.2,0.1l-0.2,0.1h-0.1h0h-0.1h0
		l-0.1,0l0,0l0,0h0l0,0h-0.1h-0.1H63H63h0h-0.1l0,0v0l0,0h0l0,0l0,0l0,0h-0.1l0,0h0h0l-0.4,0.1l-0.2,0l-0.2-0.1l-0.7-0.1l-0.9-0.2
		l-0.5-0.2l-3.1-0.6l-0.2-0.1l-0.1-0.5v-0.7l0.1-0.2l0.1-0.1l0.2-0.1l0.2-0.1l0.2-0.1l0.1,0l0.1-0.1l0.1-0.1l0.1-0.1l0.1-0.1
		l0.3-0.1l0.2-0.1l0.3-0.2l0.2-0.1l0.2-0.1l0.3,0l0.2-0.1v-0.1H59l-0.5,0l-0.8,0l-0.2-0.2h-0.8v-0.1h0.2l-0.1-0.4l0.1-0.2l0.3-0.2
		l0.5-0.1l0.3-0.1H58h0.5h0.1l0.1,0l2.5-1.2l2.8-1.3l-0.1-0.1l-1.8,0.8l-0.1-0.1l2.1-1l-0.2-0.2l-1,0.5l-0.5,0.2l0,0l-0.2,0.1l0,0
		l-0.1,0l0,0l0.6-0.3v0h0.1l0,0l-0.5,0.3l0,0l-3,1.4l-0.2,0.1v0l3.2-1.5l0.5-0.3l0.4-0.2l0,0l-0.6-0.7l-6.4,3.2v0.5v0.3l-0.1,0.1
		l-0.1,0H56h-0.1l-0.1-0.1v-0.2l0-0.3v-0.1l0.1-0.1l3.3-1.6l0,0h0l-1-1.1l-0.8,0.4l-0.3-0.4l1.4-0.7l0,0l-0.6,0.2v0l0.6-0.3
		l-0.1-0.1l-0.1-0.1l0,0l0,0l-0.1-0.1l-0.1-0.1l0,0V199v0h0h0.1l0,0l0.1,0.1h0.1h0.1l0,0l0.1,0l0-0.1l0.8-0.8l0.9-0.4v-0.1v-0.1
		v-0.1v-0.1v-0.1v-0.1l0,0l-1.1,0.6l-0.1-0.1l1-0.5l0.2-0.1l-0.4-0.3l-1.4,0.6l-0.8,0.5h-0.1h-0.1H57h-0.1h-0.1l-0.1,0h-0.1l0,0
		l-0.1-0.1l0,0v-0.1v-0.1v-0.1v-0.1l0.2-0.2l0.5-0.3l0.5-0.3l0.4-0.2l-0.4-0.3l-0.1-0.1l0-0.1l0-0.1l0-0.1v-0.1v-0.1l0.4-0.3
		l-0.2-0.3l0.8-0.3l-0.2-0.1l-2.2,1l-0.9,0.3l-0.3,0.1l-0.8-1.2l-0.4-0.6l0,0l-0.1-0.2l-0.3-0.4l-0.2-0.3l-0.2-0.3l-0.2-0.3
		l-0.2-0.3l-0.2-0.3l-0.2-0.2l-0.2-0.3l-0.2-0.2l-0.3-0.2l-0.3-0.2l-0.3-0.2l0,0l-0.3-0.2l-1-0.8l-0.6-0.5l-2.9-1.8l-1-0.6l-1-0.6
		l-0.5-0.3l-0.2-0.1l-0.2-0.1l-0.3-0.2l-0.3-0.2l-0.3-0.1l-0.4-0.2l-0.4-0.2l-0.4-0.2l-0.2-0.1l-0.2-0.1l-0.3-0.1l-0.4-0.2l-0.8-0.3
		l0,0l-1.2-0.4l-1.1-0.3l-0.7-0.1l-0.7-0.1l-0.4-0.1l-0.4,0l-0.4,0h-0.4l-0.4,0h-0.4h-0.5l-0.4,0.1h0l-1.1-0.2v0l-0.2-0.2l-0.1-0.1
		l-0.4-0.3l-0.5-0.2l-0.2-0.1l-0.2-0.1l-0.2-0.1l-0.2-0.1h-0.2l-0.2,0H28h-0.2h-0.2l-4.9-0.6l-5.5-0.7l-1-0.2l-1.1-0.6l-0.2-0.1
		l-0.6-0.4l-0.5-0.3l-0.1,0l-0.4-0.1l-0.8-0.6l-1.2-1l-0.3-0.2l-0.6-0.6l-0.1-0.1l-0.1-0.1l-0.1-0.1l-0.1-0.1l-0.1-0.1L10,175
		l-0.1-0.1l-0.1-0.1l-0.1-0.1l-0.1-0.1l-0.1-0.1l-0.1-0.1l-0.1-0.1l0,0H9.1H9.1H9l-0.1,0H8.8l-0.1,0l-0.1-0.4H8.6l-0.3-0.3l-0.1-0.1
		v0L8,173.1l-0.1-0.3l-0.1-0.3l-0.1-0.3L7.7,172l-0.1-0.2l-0.1-0.2l-0.1-0.2l-0.1-0.2l-0.1-0.2l-0.1-0.2l-0.1-0.2l-0.1-0.1l-0.1-0.2
		l-0.2-0.1l-0.2-0.1l-1.7-1.5l-0.3-0.3L3.9,168l-0.3-0.5l-0.5-0.7l-0.5-0.9l-0.2-0.4l-0.1-0.4L2,163.2l-0.2-0.8l-0.2-0.9l-0.1-0.6
		l-0.3-1.6l-0.1-0.1L1,159.1v-0.1v-0.1v-0.1v-0.1V158v-0.2v-0.2v-0.2l-0.1-0.8L0.8,156l0.1-0.5V155v-0.1l-0.1-0.2l-0.1-0.2v-0.2
		l-0.1-0.2V154v-0.2v-0.2v-0.2v-0.1v-0.1l0.2-0.7L1,152l0.1-0.8l0.1-1l0.2-1.8v-0.1l0.1-1.1l0.1-0.2l0.2-0.8v-0.1v-0.1v-0.1v0
		l0.1-0.1v-0.1l0.1-0.1v-0.1l0.1-0.1l0.1-0.1l0.1-0.1l0.1-0.3l0.5-1.1l0.2-0.4l0.3-0.7l0.8-1.8l1.1-2.4l0.4-0.7l0.4-0.9l0.5-1
		l0.4-0.8l0.5-0.9l-2.6-0.8l0.1-0.2l2.6,0.8l0.1-0.3l0.2-0.3l0.2-0.3l0.2-0.3l0.1-0.2l0.2-0.2l0.2-0.2l0.2-0.2l-0.4-0.4L8,131.1
		l-0.5-0.4l0.1-0.3l3-2.9l-0.1-0.1l0.6-0.6l1.6,1l0.3-0.3l0.4,0.3l0.1-0.1l-0.3-0.2h-0.1l0.3-0.3l0.1,0l0.1,0.1l0.3,0.2H14l0.4-0.4
		l1.4-1.4l1.9,1.1l0.1-0.1l-0.2-0.1l0.4-0.4v0l-0.4,0.3l0,0l0.2,0.1l0.6,0.4l0.1-0.1l0.3-0.3l0,0l-0.4,0.4l0.3,0.2l0.6-0.7l1-0.9
		l1.3-1.4l-4.7-2.8l-0.3-0.2l0.5-0.4l0.3,0.1l4.7,2.8l0.4-0.4l0.4,0.2l0.3-0.3l0.2-0.2l0.1-0.1l0.3-0.3l0.3-0.3l-1.3-1l0.2-0.4
		l-0.8-1.6l0.9-1.1l-0.5-0.3l-0.3,0.3l-0.8-0.5l0.2-0.2h-0.1l0.2-0.2h0.1l0.2-0.2l0.8,0.5l-0.2,0.2l0,0l0,0l0.4,0.3l0.3-0.3h0l0,0
		l0.2-0.2l0,0l0,0l-1.7-0.9l0.1-0.1l1.6,1l0.5-0.2l0.2,0.1l0.1-0.1l0.7,0.5l0,0l0.2-0.2l-3.4-2.1l0.2-0.1l3.3,2h0.1l1.4,0.9l0.3-0.2
		l0.1,0h0l0,0l0,0l-0.1-0.1h0l0.1,0.1l0.1-0.1l0.1,0l0.1-0.2l-0.4-0.2l-1.4-0.9l0.1-0.1l1.3,0.9l0.4,0.2l0.1-0.1l0,0l-3.8-2.4
		L25,115l0.1,0.2l0.3,0.2h0.3l0.2,0l0.1,0.1v0.1l1.2,0.7h0.1l0.2-0.1l0.1-0.1l0.5-0.5l0-0.2l-2.8-1.7l0.2-0.2l1.3,0.9H27h0.1
		l0.3-0.1l0.5-0.4l0-0.2l0.1-0.1l-0.9-0.6l0.2-0.3l1,0.6h0.3v0v0.2l0.2,0.1h0.3l0.3,0.1H30l0.3,0.2l0.2,0h0.1l-0.1,0.1l0.1,0.1h0.2
		h0.1l0,0.1l0.1,0.1l0.1,0.1v0.1h0.1l0.7-0.5l-2.9-1.6l0.3-0.3l2.9,1.7l1-0.9l-0.4-0.2l0.1-0.1l-3.2-2l0.1-0.1l3.2,1.9l0.5-0.4
		l0.3,0.2l0.4-0.4l-3.6-2.3l0.3-0.3l0.4-0.4l3.7,2.2l0.6-0.6l-3-1.9l0.1-0.1l-0.3-0.2l0.2-0.2l0.3,0.2v0.1l3.3,1.8l0.1-0.2l0.7-0.7
		l-4-2.5l1-0.7l1.5-1l2,1.3l0.5-0.3l1.6,0.9l0.8,0.5l0.6-0.5l0.4-0.5l-3.9-2.4l1.2-0.6h0.7l3.2,2l2.2,1.2l0,0l1-1l0.4-0.4l-3.9-2.5
		l-0.1-0.3l1.2-0.8l1.1-0.1l3.4,2l0.6-0.6l0.2,0.1l1.7,1l0.1-0.1h0l-0.1-0.1l0,0l0,0l-0.2-0.1l-0.1-0.1l-0.3-0.1l0,0l0,0l0,0
		l-0.2-0.1l-0.2-0.1v0l-0.2-0.1l-0.5-0.3l-0.2-0.1l0,0h0l-0.2-0.1l-0.2-0.1l0,0l0.2-0.2l0.2-0.2l0,0l0.6,0.3l1.1,0.6l0.5,0.3
		l0.4,0.3l0,0h0.1l0,0l0.4-0.4l-0.5-0.3l-0.5-0.2l-0.2-0.1l0,0l-0.1,0l-0.1-0.1l0,0l0,0v0l0,0h0.1l-0.2,0.3l-0.7-0.4l-0.2-0.1
		l0.3-0.2l0.1,0.1l-0.1,0.1l-0.3-0.2l0,0h-0.1l0,0l0,0h0.1l-0.3,0.2l-0.4-0.2l-0.5-0.3l0.3-0.2l0.1,0.1l0.1-0.1l0,0l0,0l-0.4-0.2
		l-0.5-0.3l-0.5-0.4l-0.9-0.5L46,99.5l-0.1,0l0,0l0.1-0.1h0l0.5,0.3l0-0.1l0,0l0,0l-0.1-0.1l0.3-0.2l0.8,0.5l-0.2,0.2l-0.1-0.1
		L47,100l0.3,0.2l0.1-0.1l-0.1-0.1l0.2-0.2l0.8,0.5l-0.2,0.2l-0.1-0.1l-0.1,0.1l0.2,0.1l0.1-0.1h0.1l0,0h0.1l0.1-0.1v-0.1v0h-0.1
		l0.1-0.1l-0.2-0.1l0.2-0.2V100h0h0l-0.1-0.1h0h0l0,0h0.2v0.9h0.1l1.7,1h0l0.8,0.5l0.3-0.3l-1.6-1l0.4-0.4l-1.3-0.8l0.6-0.5l5,2.9
		l0.2-0.2l0,0l0.1,0.1l0.1-0.1l0.3-0.3h0l0.4-0.4l0.3-0.3H56l0,0l0.4-0.3l0.2-0.2l0.2-0.2l-4.5-2.8l0.9-0.4h0.3l0,0H54l0.6-0.3
		l-0.4-0.2l1-0.5l0.9,0.1l0.6-0.6l0.7-0.7l0-0.5l0.1-0.1h-0.1V94v0.1l0,0l0,0.2l-0.1,0.5l0,0h-0.1l0.1-0.5l0.1-0.5l0.1-0.2l0.4-0.5
		l-0.2-0.1l-0.1-0.1V93v-0.1v-0.2l0.2-0.8l0-0.2l0.2-0.9l-0.2-0.3l-0.1-0.1l-0.2,0.2l-0.5,0.9l-0.4,0.8l0,0l-0.4,0.8l-0.5,1l-1-0.3
		l-0.5,0.8l-1.1-0.3l-0.9,1.6l-0.4,0.1L51.3,96l0.1-0.2l-0.5-0.1l-0.6-0.1l-0.9-0.3h-0.5l-0.1,0.1l-0.5-0.1l-0.1,0.1h0l-0.3,0.7h0
		l-0.7,1.5h-0.1l0,0.1l0,0l0,0l0,0v0.1l0,0h0l0,0l0,0l0,0l0,0l0,0l0,0l0,0l0,0l0,0l0,0l0,0l0,0l0,0l0-0.1H47l0.2-0.4l0.6-1.3
		l0.1-0.1l0.3-0.6l1-2l0.8-1.6L49,91.5L48.2,93l-0.8,1.5h-0.2l-1,2l-0.3-0.1l1-1.9l-3.7,0.1l-2.2,4.6l-5.6,0.7l-1.6-0.4L33,98.9
		l-0.6-0.8l-0.9-6l-0.2-0.9l-0.8-0.8l0.6,0l1.9,0.8l1.1,7.5l0.2,0.5l0.1,0.1l0.6,0.1l0.1-0.8l4.9-0.3l1.9-3.8l0.7,0v-0.6l-0.3-0.1
		h-0.5l0-0.7l-0.9-0.1l-0.1-0.5l0.1-0.4l-0.1-0.2L37.5,93h-0.2v-0.2l3.3-1.1v-0.1l0,0h0v0h0l-0.1,0h-0.1h-0.1h-0.1H40h-0.1h-0.1
		h-0.1h-0.1h-0.1l-0.1,0h-0.1l-0.6-0.3L38.2,91h-0.1l-0.1,0H38H38h-0.1h-0.1h-0.1h-0.1l-0.4-0.2l-1,0.9l-0.2-0.1l1.1-0.9l0.3-0.3
		l0.3-0.3l-0.5-0.3l-1.8,1.6l-0.1-0.1l1.9-1.6l0.1,0l1.7-1.5l-0.5-0.4l-0.8,0.6l-1.5,1.3l-1.6-1l2.3-2l-0.5-0.3l-0.6,0.5l-1.7,1.4
		L32,90.1l-0.8-0.4l2-1.8l0,0l-0.6-0.5h0l0,0l-0.1,0.1l0,0l-0.1,0.1h-0.1l0,0l0.1-0.1l0,0l0.1-0.1l0,0l0.1,0l-0.4-0.3l0,0l0,0l0,0
		v-0.1l0.2-0.4v-0.1v-0.1l0,0v0l0,0l0.1-0.1l-0.1,0l0.2-0.2l-0.4-0.3h0l0,0h-0.1l-0.1,0.1l0.1,0.1l0.1-0.1l0.1,0.1L31.8,86l-0.1-0.1
		l0.1-0.1l-0.1-0.1l-0.3,0.3h-0.1l0,0l0,0v0l0.6-0.5l0,0l0,0l0,0l0,0l0,0l-0.1-0.2v-0.5l0,0l0,0l0,0l0,0l0,0h0.5l0.1-0.1l0-0.1v-0.1
		v-0.1v-0.1v-0.2V84V84h-0.1v-0.1h-1.5v-0.1H30l-0.2-0.6l1.2,0l-0.1-0.8h-0.1v0l0,0h0.1l0,0h0h0.8l0,0v-0.6h-0.3l0,0h0l0,0H31l0,0
		l0,0l0,0h-0.6l-0.1,0.1l-0.2-0.1l0,0l0.1-0.1l0,0l0.1,0.1h0.1h0.1l0,0l0,0h0h0.2l0,0l0,0l0,0h0.2l0,0l0,0h0.2h0h0h0.1h0.1v-0.1h0.2
		v-0.2h-0.1l-0.3-0.3l-1.1,0.1h-0.1l0,0l0,0l0,0l0,0v-0.1l0.4-0.8l0.3-0.1l0.2-0.1L31,79.5l1.7-1l0.1,0.1l0.1,0l0.1,0l0.8-0.5l0.1,0
		l2.1-1.3l-0.2-0.2l0.3-0.2l0.3-0.2l2.7-1.7l0.3,0.2l0.7,0.7v0.1l-2.6,1.6l0.6,0.6l-0.3,0.3l0.2,0.1l1,0.7l1.5-1.3l1.7-1.4l1.2-1.1
		l-0.5-0.5L42,73.6l-1.3,0.8l-0.2-0.2l1.3-0.8l3.1-1.9l0.1-0.1l0.1-0.1l0.3-0.2l0.2-0.1h-0.1v0h0.1h0.1h0.1l0.2-0.1l0.7-0.3l0.8,0.3
		l0.8,0.1l0.3-0.6l0-0.1l0.8-1.1l0.5-0.8l1-0.9l0.5-0.9l0.6-1.1l1.4,0.4l0.1-0.3l1.2,0.4l0.4-0.6l-0.8-1.1l-0.9-0.5l0.2-0.5l0,0v0
		l0.1-0.2l0.3-0.5l0.4-0.7l0.4-1l0.2-0.3l0.1-0.1l0.6-0.8l0.5-0.8l0.4-0.6l0.2-0.3l0-0.1l-0.1-0.3l0.1-0.2l0.2-0.1l0.1-0.1l0.3,0.1
		l0.1-0.2h0.1l0.1-0.3h-0.1l0.6-1.2l0.5-0.9v0l0.7-1.1h0.2l0.3-0.2v-0.3v-0.2l-0.1,0l0.7-1l0.1-0.1l0.1-0.2l0.3-0.4l0.1-0.1l1.1-1.5
		l0.2-0.2l0.2-0.2l0.1-0.2l0,0l0,0l0.3-0.2l0.2-0.2l-0.2-0.2L62.7,48l0.1-0.2l0.1-0.2l0.1-0.1L63,47.5l0,0l0,0l0,0l0.1-0.1L63,47.3
		l0.1-0.1l0.1-0.1l0.1-0.1l0.9-0.2h0.1v0.1l0,0h0.1l0,0h0.1v-0.1h0.2h1.1l0.2-0.1h0.3h0.2v0.4l0.2,0.3l0.1,0.1l0.6,0.1l0.6-0.1
		l0.5-0.8l0.2-0.1l0.3-0.6h0l0.1-0.1h0.2l0.8,0.2l0.2,0.1h0.2h0.2h0.1l0.4,0.2h0.4h0.1v-0.7l0.4-0.1h0.9h0.5l0,0h0.1h0.1h0v0.1l0,0
		v0.1l0,0H74l0.1-0.1v-0.4l2.3-0.3l1-0.1h0.8V45v0.1l0,0l0.1-0.1h0.2v-0.1h0.3H79l0,0h0.4l0,0h0.2l1.9,0.2v-0.7l0.2,0.1h1v0.1h0.9
		l0,0h0.3h0v-0.2H84v-0.1h0.2l0.2,0.1h-0.2l-0.2,0.5h0.2h0.2l0.1-0.5h0.1l-0.1,0.5h0.2h0.1l0.1-0.5l0,0l-0.1,0.5l0.1-0.2h0.2v-0.1
		l0,0l0,0h0l0-0.2h0l0,0l0,0v-0.1l0,0l-0.6-0.1l0,0l0.6,0.1l0,0h0l0,0l0,0v0.1l0,0l0,0l0,0v0.2l0,0l0,0h0l0,0.1h0l-0.2,0.8l0.1,0.1
		h0.1l0.2,0.3l0.1,0.2v0.1l0.2,0.2l0.9,0.1v-0.1h0.1h0.1L86.2,48l0.2,0.1l0.1-0.1l0.2,0.2l0.1-0.2l0.3-0.6l0.8-1.5l0.4,0.1L87,48.6
		l0.4,0.4l0.4,0.3l0.3,0.2l0.8-1.2l0.3,0.1l-0.8,1.2l0,0.1l0,0l0.1,0.1h0.1l0.3,0.1l0,0l0,0l0.1,0.1l0.1-0.2l1.1,0.4l-1.4,2.1
		l-0.2,0.4v0.1l0,0l0,0l0,0h0l0,0h0.1h0.1h0l0,0h0h0l0.2-0.4l1.1-1.8l0.3-0.1l0.3,0.3h0.2l0.3,0.3l0,0l0.4,0.3l0.5,0.4l0.5,0.3
		l0.2-0.1l-0.3-0.4l-0.5-0.5l-0.4-0.3h-0.1l-0.3-0.2v0.3l-0.3-0.3l0.8-0.2l0.4,0.4h0l1.7,1.5l0.6,0.5l0.2,0.1l0.3-0.2v-0.1l-2.3-2.1
		h0l-1.1-1l0.6-0.4l0.4,0.3l3.6,3L97,52l-3.5-3l-1-0.8l0.2-0.2l1.1,0.7l3.5,2.1l0.4-0.3l-0.1-0.2l-3.3-2.1l-1.1-0.7l0.2-0.2l0.9,0.6
		l0.5,0.1l0.2-0.2l-0.1-0.3l-3.2-2l-1.6-1l0.4-0.3l1.3,0.8l1.1-0.6l-1-0.6L90,42.4l0.5-0.5l1.5,1.2l1.2,0.8l0.7,0.5l0.6,0.5l0.2-0.1
		l0.1-1.3l-0.1-0.2l-2.1-2.6l0.6-0.3l2.2,2.4l0.2-0.1l0.4,0.6l-0.3,2l0.4,0.1v0.6l3.4,2.1l0.1-0.1l0-0.7l-1.1-0.7l-1.3-0.8l0.1-1.2
		l-0.1-1.5l-0.4-0.7L96.5,42v-0.8l-0.1-1l0.4-1.1v-0.2h-0.1l-0.4-0.1l-0.1-0.1l0.1-0.1h0.1h0.1h0.2l0.1-0.2h-0.1l-0.1-0.1l0-0.1
		l0.1-0.1l0.4-0.1l0-0.1l-0.6-0.3l0,0h0l0.1,0.1h0.1l0.3,0.1l0-0.1l0.1-0.1h-0.1l0.1-0.2h0.1l0-0.1v-0.1l0.3-0.7v-0.1h0.1h-0.1
		l0-0.1l-0.1-0.1l0,0v-0.1l0,0V36l0-0.1l0,0v-0.1v-0.1h0.1l0.1-0.1H98h0h0l0,0v-0.1l0,0h-0.1l0.1-0.2l-0.5-0.2l0.6-1.4l0.5-1.1
		l0.5-1l0.4-0.8l0.1-0.1l0-0.1v-0.1l0.2-0.3l0,0l-0.2-0.1l0.7-1l0.2-0.3v-0.1l0,0l0,0l0,0l0.3-0.4l0.1,0.1l0,0l0.1-0.1l0.1-0.1l0,0
		l0,0v-0.1l0.3-0.3l0,0l0.2-0.2h0.1l0.1,0.1l0.5-0.5l-0.2-0.2l-0.1-0.3v-0.4l0.1-0.3l0-0.1l0.2-0.3l0.1-0.1l0.8,0.5l0.1-0.1l0.1-0.1
		l-0.1-0.1l0.1-0.1l-0.1-0.1l0-0.1l0.1-0.1l0-0.1l0-0.1l0.2-0.2v-0.1l0-0.1l0.6-0.8l0,0h0.1l0,0l0.6-0.6l0.3-0.5l0.7-1.5v-0.1
		l0.2-0.4l0.1-0.1l0.1-0.1l0,0l0.3-1l-0.6-0.4l0.3-0.2l0.2,0.1l0.3,0.2l0.2-0.1l0.3-0.1l1,0.2l0.1,0.1l2.2,0.7l0.6,0.2h0.2h0.1
		l0.1-0.3v-0.5l-0.4-0.2l-0.1-0.1l-0.1-0.3l-2.3,0.1l-0.2-0.8l-1,0.1h-0.8l0-0.5l0-0.6l0.1-0.1l0.1-0.8l0.4-1l0.2-0.8l-0.2-1.1
		l-0.2-0.7v-0.1v-0.1l-0.2-0.9l-0.3-0.7l0-0.1V11l-0.1-0.1l-0.4-0.9l-0.3-0.7l0-0.3l0-0.4l0-0.2l-0.1-0.2l0-0.3V7.7l0.1-0.3l0.1-0.4
		l0.1-0.2l0.1-0.1l0.2-0.2l0.2-0.4l0.5-0.6l0.9-1l0,0l0.1-0.1l0-0.1l0.2-0.2l0.1-0.1l0,0l0,0l0,0l0.1-0.1l0.1-0.1l0,0V4.1l0,0
		l0.1-0.1l0-0.1V3.9l0,0l0,0l0,0l0,0h0.1l0,0l0,0l0,0l0.1-0.1l0,0l0,0l0.1-0.1l0.1-0.1h0l0.1-0.1l0.2-0.1l0,0l0.1-0.1l0,0h0.1h0
		l0.1-0.1l0.1-0.1l0,0l0,0h0h0.1l0-0.1h0l0.2-0.1l0,0h0h0.1L111,3L111,3l0.1-0.1l0.3-0.2h0.1h0l0.1-0.1h0.1l0.1-0.1l0.1-0.1l0.2-0.1
		l0.4-0.2h0.1l0.2-0.1l0,0l0,0l0,0h0.2l1.5-0.2h0l0,0h0.1l0.5-0.1h0.4h0.1h0.5"/>
	<path class="st0" d="M163.1,186.5L163.1,186.5L163.1,186.5L163.1,186.5l0.2,0h0.1l0,0l0,0l0.1,0h0.1l0,0h0.1l0,0h0.1l0,0h0.2l0,0
		h0.1l0,0h0.1l0,0l0,0l0,0l0,0l0,0l0,0l0,0h0.1l0,0l0,0l0,0l0,0l0,0l0,0l0,0h0l0,0h0l0,0v0l0,0l0,0l0,0l0,0l0,0l0,0l0,0l0,0l0,0l0,0
		l0,0l0,0l0,0l0,0v0l0,0h0l0,0l0,0l0,0l0,0l0.1,0l0,0h0l0,0l0,0l0,0l0,0l0,0l0,0h0l0,0h0.1h0h0h0h0l0,0h0.1l0,0l0,0l0,0l0,0l0,0l0,0
		l0,0l0,0l0,0l0,0l0,0l0,0l0,0l0,0l0,0l0,0l0.1,0h0l0,0l0,0l0,0l0,0l0,0l0,0h0.1l0,0l0,0l0,0h0l0,0h0l0,0l0,0h0l0,0l0,0l0,0h0l0,0
		l0,0h0.1l0.1,0h0l0,0l0,0l0,0l0,0l0,0l0,0l0,0l0,0h2.1l0,0h0.1l0,0l0,0l0,0l0,0l0,0l0,0l0,0.1v0.2l0,0v0.1l0,0v1.8l0,0l0,0l0,0l0,0
		v0l0,0l0,0l0,0l0,0l0,0l0,0l0,0l0,0l0,0l0,0l0,0l0.1,0.1l0,0l0,0l0,0l0,0h0.1l0,0h0v0l0,0l0,0l0,0l0.1,0.1l0,0l0,0l0,0l0,0l0,0l0,0
		l0,0l0,0h0l0,0h0l0,0h0l0,0l0,0l0,0l0,0l0,0v0.1v0l0,0l0,0l0,0l0,0l0,0l0,0l0,0l0,0l0,0l0,0l0,0l0,0l0,0l0,0l0,0l0,0l0,0l0,0l0,0
		l0,0v0h0.1l0,0l0,0h1.4l0,0v0l0,0l0,0h0l0,0h0.1l0,0l0,0v0v0l0,0l0,0l0,0l0,0h0.1l0,0l0,0l0,0l0,0l0,0l0,0l0,0l0,0l0,0l0.1,0l0,0
		l0,0l0,0v0l0,0l0,0l0,0l0,0l0,0l0,0l0,0l0,0l0,0l0,0l0,0l0,0l0,0l0,0l0,0.1l0,0v0l0,0v0.1l0.1,0.1l0.1,0.1v0.1l0,0.1v0.1l0,0l0,0
		l0,0l0,0v0.1l0,0l0,0l0,0l0,0l0,0l0,0l0,0l0,0l0,0l0,0l0,0l0,0l0,0l0,0h1.4l0,0l0,0l0,0l0,0l0,0l0,0l0,0l0,0l0,0l0,0l0,0l0,0l0,0
		l0,0l0,0.1v0.1l0,0v0l0,0v0.1l0,0l0,0l0,0l0,0l0,0l0,0l0,0l0,0l0,0h0.1l0,0l0,0l0,0l0,0v0.1l0,0l0,0l0,0v0.2l0,0v0.2l0,0v0v0.1v0
		l0,0v0v0l0,0l0,0l0,0l0,0l0,0l0,0l0,0l0,0l0,0l0,0l0,0v0.1l0,0l0,0l0,0l0,0l0,0l0,0l0,0l0,0v0.1l0,0v0.1l0,0v0.1l0,0v0l0,0v0l0,0
		v0.1l0,0l0,0l0,0l0,0l0,0v0.1l0,0v0.1v0v0l0,0v0.1l0,0v0l0,0l0,0l0,0l0,0l0,0l0,0h0.4l0,0l0,0l0,0h0h0h-0.1h-0.1h-0.1h-0.1h-0.1
		h-0.1h0.1l0,0l0,0h0h-0.1h-0.1l0,0l0,0l0,0l0,0l0,0h-0.1l-0.1,0l-0.1,0h0h-0.1l0,0l-0.1,0h-0.1h-0.1l0,0h0H170h0l0,0l0,0l0,0l0,0
		h-0.4h0h0h-0.2l0,0l0,0l0,0l0,0l0,0l0,0v-0.1l0,0h0l0,0l0,0l0,0l0,0l0,0l0,0l0,0l0,0l0,0l0,0l0,0l0,0l0,0h-0.1h0l0,0l0,0l0,0l0,0h0
		l0,0h0l0,0l0,0h0h0l0,0l0,0l0,0l0,0l0,0l0,0l0,0h0l0,0v-0.1l0,0l0,0l0,0l0,0l0,0l0,0l0,0l0,0l0,0l0,0l0,0l0,0l0,0h0h-0.1l0,0l0,0
		l0,0l0,0l0,0l0,0l0,0l0,0l0,0l0,0v0l0,0l0,0l0,0l0,0l0,0l0,0l0,0l0,0v-0.2l0,0l0,0l0,0l0,0v-0.1v-0.2l0,0l0,0l0,0l0,0l0,0l0,0l0,0
		l0,0l0,0l0,0l0,0l0,0l0,0l0,0v0l0,0l0,0l0,0l0,0l0,0l0,0l0,0l0,0l0,0l0,0l0,0l0,0l0,0l0,0l0,0l0,0l0,0v0l0,0v0l0,0l0,0l0,0l0,0l0,0
		l0,0l0,0l0,0l0,0l0,0l0,0l0,0l0,0l0,0v0h0l0,0l0,0l0,0h0v0l0,0l0,0v0h0l0,0l0,0v0l0,0l-0.1-0.1v-0.1l0,0l0-0.1h0v0l0,0l0,0l0,0l0,0
		l0,0l0,0h-0.1l0,0l0,0l0,0l0,0l0,0l0,0l0,0l0,0l0,0l0,0l-0.1,0l0,0l0,0l0,0l0,0l0,0l0,0l0,0v-0.1v0l0,0l0,0l0,0l0,0h-3.4l0,0l0,0
		l0,0l-0.1-0.1l0,0l0,0l0,0l0,0l0,0l0,0l0,0l0,0l0,0h0l0,0l0,0l0,0l0,0h0l0,0l0,0V191l0,0l0,0l0,0l0,0l0,0l0,0l0,0l0,0l0,0l0,0h-0.1
		l0,0l0,0h0l-0.1-0.1l0,0l0,0l0,0l0,0h-0.6l0,0l0,0l0,0l0,0l0,0l0,0l0,0l0,0l0,0l0,0l0,0l0,0l0,0l0,0l0,0l0,0l0,0l0,0l0,0l0,0l0,0
		l0,0l0,0l0,0h0l0,0h-0.1l0,0h0l0,0l0,0h-0.1v0l0,0l0,0l0,0l0,0h-0.1l0,0l0,0l0,0l0,0h0l0,0l0,0h-0.1l0,0H163l0,0h0l0,0l0,0l0,0l0,0
		l0,0l0,0l0,0l0,0l0,0h-0.1l0,0h0l0,0l0,0l0,0l0,0l0,0l0,0l0,0l0,0l0,0l0,0v0l0,0v-0.1l0,0v-0.1l0,0l0,0l0,0l0,0l0,0l0,0l0,0l0,0
		l0,0h-0.1l0,0l0,0l0,0l0,0h0v0v0l0,0h-0.1l0,0l0,0l0,0h0l0,0l0,0l0,0l0,0v0l0,0l0,0l0,0l0,0l0,0l0,0l0,0h0l0,0l0,0l0,0l0,0l0,0
		h-0.1l0,0v-0.1l0,0l0,0l0,0l0,0l0,0l0,0l0,0l0,0h-0.1l0,0l0,0l0,0l0,0l0,0l0,0l0,0l0,0l0,0v-0.1l0,0v-0.1l0,0l0,0l0,0v0l0,0l0,0
		l0,0V190l0,0l0,0v0l0,0v0l0,0l0,0l0,0l0,0l0,0l0,0l0,0l0,0l0,0l0,0l0,0l0-0.1l0,0l0,0h-0.1l0,0l0,0l0,0l0,0l0,0l0,0v-0.1l0,0v0l0,0
		v0l0,0l0,0l0,0v0l0,0v0v-0.1v0l0,0l0,0l0,0l0,0l0,0l0,0l0,0l0,0l0,0l0,0h0l0,0v0l0,0l0,0l0,0l0,0l0.1-0.1v0l0.1-0.1l0.1-0.1
		l0.1-0.1l0.2-0.1l0.2-0.1l0.1,0l0.2-0.1l0.1,0l0,0v-0.1l0,0v0l0,0l0,0l0,0h0.1l0,0l0,0l0,0h0.1h0.1l0,0h0.3v0l0,0l0,0h-1.5l0,0l0,0
		l0,0l0,0h0h0.1l0,0h0l0,0h0.1l0,0l0,0"/>
	<path class="st0" d="M278.2,154.5L278.2,154.5L278.2,154.5L278.2,154.5L278.2,154.5L278.2,154.5L278.2,154.5l0-0.1l0,0l0,0l0,0l0,0
		v0l0,0l0,0v0l0,0l0,0l0,0h0.1l0,0v0.4l0,0l0,0"/>
</g>
</svg>
