<?xml version="1.0" encoding="utf-8"?>
<!-- Generator: Adobe Illustrator 24.0.2, SVG Export Plug-In . SVG Version: 6.00 Build 0)  -->
<svg version="1.1" id="Layer_1" xmlns="http://www.w3.org/2000/svg" xmlns:xlink="http://www.w3.org/1999/xlink" x="0px" y="0px"
	 viewBox="0 0 160.4 254.5" style="enable-background:new 0 0 160.4 254.5;" xml:space="preserve">
<style type="text/css">
	
		.st0{fill-rule:evenodd;clip-rule:evenodd;fill:#0F26A6;fill-opacity:0.95;stroke:#232323;stroke-width:0.74;stroke-linecap:square;stroke-linejoin:bevel;stroke-opacity:0;}
</style>
<title>manhattan</title>
<g id="Map_2:_NYC_Boroughs_Besides_SI">
	<path class="st0" d="M132,2.4L132,2.4h0.1l0,0v0.1l0,0l0,0l0,0l0,0H132l0,0v0.1v0.1v0.1v0.1v0.1h0l0.1,0.1h0.1h0.1h0.7h0.1h0.1h0.1
		h0.1l0.1-0.1l0.1-0.1V2.6l0,0l0,0l0,0l0,0h0.1h0.1h0.1h0.1h0.5h0.1l0.6,0.1l0.2,0.1h0.3h0.1h0.2h0.4l0.1,0.1h0l0,0l0,0l0,0l0.1,0.1
		l0,0l0,0h0.1l0,0h0.1h0.1l0,0l0,0h0l0,0h0h0.1l0,0l0,0l0,0l0,0l0,0l0,0l0,0l0,0l0,0l0,0h0.1l0,0h0.1l0,0l0,0l0,0l0,0v0.6v0.3V4v0.3
		v0.2v0.1v0.1L137,4.8L137,5v0.2v0.2v0.2v0.3v0.2v0.2v0.2l0,0.2l0.1,0.2l0.1,0.1l0.1,0.1l0.1,0.1l0.1,0.1l0.1,0.1l0.1,0.1l0.1,0.1
		l0.1,0.1l0.2,0.1l0.2,0.1l0.2,0.1l0.2,0.1l0.2,0.1l0.2,0.1h0.1h0.1h0.6l0,0l0,0h0l0,0h0.1h0.1l0,0l0,0l0,0h0l0,0l0,0l0,0l0,0l0,0
		l0,0l0,0l0,0V8.1h0V8.1V8l0,0V8l0,0V7.9l0,0V7.8l0,0l0,0l0,0h0.2V7.8h-0.2l0,0l0,0V7.7l0,0l0,0l0,0v0l0,0l0,0l0,0L140,7.6l0,0l0,0
		l0,0h0l0,0l0,0l0,0l-0.1-0.1h-0.1l-0.1-0.1l0,0h0l0,0h-0.1l0,0l0,0l0,0l-0.2,0.1l0,0l0,0l0,0l0.2-0.1l0,0l0,0l0,0V7.5l0,0l0,0l0,0
		l0,0l0,0l0,0l0,0l0,0l0,0l0,0l0,0l0,0l0,0l0,0l0,0l0,0l0,0l0,0l0,0l0,0l0,0V7.4l0,0l0,0V7.4l0,0l0,0l0,0l0,0l0,0l0,0l0,0l0,0l0,0
		l0,0l0,0V7.3l0,0V7.2l0,0l0,0l0,0l0,0l0,0l0,0l0,0l0,0h0l0,0l0,0V7.2l0,0l0,0l0,0l0,0l0,0h0l0,0l0,0h0.1l0,0l0,0l0,0l0,0h0.1h0.1h0
		l0.1,0.1h0.1h0.1l0.1,0.1h0.1l0.1,0.1v0.1h0.1l0.1,0.1h0.1h0.1h0.1h0.1l0.1,0.1h0.1h0h0h0h0.1l0.2,0.1l0.2,0.1h0.1h0.1h0l0.1,0.1
		l0.1,0.1h0.1v0.1l0,0.1L142.4,8l-0.1,0.1h0v0.1l0,0l0,0v0.1v0.1l0,0.1v0.1l0,0v0.2v0.1l-0.1,0.1V9v0.1l0,0l0,0.1l0,0h0v0.1l0.1,0.1
		l0.1,0.1l0.1,0.1l0.1,0.1h0.4l0,0h0l0,0l0,0l0,0l0,0h0.2l0,0l0,0V9.5l0,0h-0.1h0L143,9.5l0,0l0,0V9.4l0,0l0,0l0,0l0,0h0l0,0l0,0
		l0,0l0,0l0,0l0,0l0,0V9.3l0,0l0,0l0,0l0,0h0h0.1h0.1l0,0l0,0V9.3l0,0h0.1l0,0l0,0l0.1-0.1l0,0l0.2-0.4l0,0l0.3-0.4h0.1l-0.3,0.4
		l0,0l-0.3,0.4l0,0v0.1l0.2-0.2h0.1l0.1-0.1l0.1-0.1l0.1-0.1h0.1l0.1-0.1h0.1l0.1-0.1h0.1V8.7h0.1h0.1h0.1h0.1l0.1-0.1h0.2h0.1h0.1
		h0.2h0.2h0.1h0.6h0.2h0.2l0.2,0.1h0.1l0.5,0.1l0.6,0.2l0,0l0.3,0.1h0.1l0.4,0.1l0.1,0.1l0.2,0.1h0.1h0.1h0.1h0.1h0.1h0.1h0.7h0.1
		h0.2l0.2,0.1l0.2,0.1l0.3,0.1l0.3,0.1l0.6,0.3h0.1l0.1,0.1l0.1,0.1l0.1,0.1l0.1,0.1l0,0h0.1v0.1l0,0l0,0l0,0l0.1,0.1l0,0l0,0l0,0
		l0,0l0,0l0,0l0,0v0.1l0,0l0,0l0,0v0.1l0.1,0.1l0.1,0.1l0.1,0.1v0.1l0,0v0.1l0.1,0.1l0,0.1v0.1l0,0l0,0l0,0v0.1v0.1v-0.7v0.1V11l0,0
		l0,0l0,0v0.1l0,0l0,0l0,0l0,0h-0.1l0,0l0,0l0,0l0,0v0.1l0,0l0,0l0,0v0.1l0,0l0,0l0,0l0,0l0,0l0,0l0,0l0,0l0,0v0.1l0,0l0,0l0,0l0,0
		v0.1v0.1l0,0v0.1v0.1v0.1l0,0l0,0V12l0,0l0,0v0.1v0.1v0.1l0,0v0.1l0,0l0,0v0.1l0,0l0,0l0,0l0,0l0,0v0.1l0,0l0,0v0.1l0,0l0,0l0,0
		l0,0l0,0l0,0v0.1l0,0v0.1l0,0l0,0l0,0l0,0l0,0l0,0l-0.1-0.1h-0.1h-0.1h-0.1h-0.1l0,0h-0.1l0,0l0,0v0.1h0l0,0h0.1l0,0l0.3,0.1l0,0
		l0,0h0l0,0V13V13v0.1l0,0l0,0l0,0v0.1l0,0l0,0l0,0l0,0l0,0l0,0h0h-0.1h0l0,0l0,0v0.1l0,0v0.1l0,0l0,0l0,0l0,0l0,0v0.1l0,0l0,0
		l-0.1,0.1v0.1v0.1l0,0l0,0l0,0l0,0h-0.1l0,0l0,0l0,0l0,0h-0.1l0,0v0.1l0,0l0,0l0,0l0,0l0,0l0,0l0,0l0,0l0,0l0,0l0,0l0,0l0,0l0,0
		l0,0l0,0l0,0l0,0l0,0h0.1l-0.2,0.2l-0.1,0.2l-0.2,0.2l-0.3,0.4l-0.2,0.3l-0.2,0.2l0.3,0.1l0,0l-0.4,0.5l-0.4,0.5l-0.6,0.7l-0.5,0.6
		l-0.1,0.1l0,0h-0.1l-0.2,0.1h-0.1h-0.1H149l-0.8,0.1l0,0l0.5,0.2l0.1,0.1l0.1,0.2l-0.9-0.4l0,0h-0.3h-0.2v0.1l0,0v0.1h-0.2v-0.1
		H147h0l0,0v0.1v0.1l0,0l0,0h0h0.1h0.2h0.1h0.2h0.1h0.2l0,0l0,0l0,0l0,0l0,0v0.3l0,0v0.1l0,0l0,0h0h-0.1l0,0h-0.1l0,0l0,0l-0.1,0.1
		l0,0l-0.1,0.1l0,0v0.1l0,0l0,0l0,0l0,0l0,0l0,0l0.1,0.1l-0.1,0.1l0,0l-0.1,0.1l-0.1,0.1l0,0h-0.1l0,0l0,0l0,0h0h-0.1l0,0l0,0l0,0
		l-0.1,0.1h-0.1l0,0l0,0l0,0l-0.1,0.1l0,0l0,0l-0.2,0.2l-0.1,0.1l0,0l0,0l-0.1,0.1l-0.2,0.1l0,0l0,0l-0.1,0.1h0l0,0h0l0,0l0,0l0,0
		l0,0l-0.1,0.1l0,0l0,0l0,0l0,0l0,0h-0.1l0,0h-0.1l-0.2,0.1l-0.1,0.1l-0.1,0.1l0,0.1l0,0l-0.1,0.1l-0.1,0.1v0.1v0.1l-0.1,0.1v0.1
		l0,0l0,0l0,0l0,0l0,0l0,0l0,0l0,0l-0.1,0.1l0,0l-0.1,0.1L145,21l0,0l0,0l0,0l0,0v0.1l0,0l0,0l0,0l0,0l0,0l0,0l0,0l0,0h0.1l-0.1,0.1
		l0,0l-0.1,0.2l-0.3,0.3l-0.2,0.3h0.1l0,0l0,0v0.1l0,0V22l0,0l0,0l0,0l0,0l0,0l0,0l0,0h0l0,0l0,0v0.1l0,0l0,0l0,0l0,0l0,0l0,0l0,0
		l-0.1,0.1l0,0l-0.1,0.1l0,0l-0.2,0.1l0,0l-0.1,0.1l-0.2,0.2l-0.1,0.1l-1.6,5.8l-0.1,0.1l0,0.1l-0.1,0.1l0,0h-0.1l-0.4-0.2l-0.4-0.2
		l-0.3-0.1l0,0l-0.1-0.1h-0.1l0,0l0,0l0,0l0,0l0.2,0.1h0.1l0,0h0l0,0l0.1,0.1l0,0l0.2,0.1l0,0l0,0h0.1l0.1,0.1l0,0h-0.1h-0.1H141
		l-0.2-0.1l-0.6-0.2l0.1-0.1l0,0l-0.1-0.1l0,0l-0.2-0.1h0l0,0l0,0l0,0l-0.1-0.1l-0.1-0.2l0,0l-0.2-0.3l-0.1-0.2l-0.2-0.2l-0.1-0.1
		h-0.1h-0.1l0,0h0l0,0H139l0,0l0,0l0,0h0l-0.1,0.2v0.1v0.1v0.1v0.1l0,0l0,0l0,0l0,0l0,0l0,0l0,0l0,0l0,0l0,0l0,0l0,0h-0.1l0,0h0l0,0
		l0,0l0,0l0,0l0,0l0,0l0,0l0,0l0,0l0,0l0,0l0,0l0,0l0,0l0,0l0,0l0,0l0,0l0,0l0,0h-0.1l0,0h0l0,0h0l0,0h0l0,0l0,0v0.1v0.1l0,0l0,0h0
		l0,0l0,0l0,0h0.1l0,0h0.1l0,0l0,0l0,0l0,0l0,0l0,0l0,0l0,0l0,0l0,0l0,0h0l0,0l0,0h-0.1l0,0l0,0l0,0h0.1h0.1l0,0v0.1l0,0l0,0v0.1
		l0,0l0,0l0,0l0,0h0.1l0,0l0,0l0,0l0,0V28v0.1l0,0l0,0l0,0v0.1l0,0l0,0l0,0h0.1l0,0h0.1l0,0v0.1v0.1l-0.3,0.8h-0.1l-0.1,0.1h-0.1h0
		h-0.1h-0.1h0l0,0v0.1v0.1v0.1h0l0,0h-0.1h-0.1h0H138h-0.1l0,0l0,0l0,0l-0.1,0.1v0.1h0.2l0,0l0,0h0l-0.1,0.1h-0.1l0,0h-0.1h-0.1
		h-0.1v0.4l0,0l0,0v0.3V31l0,0l0.2-0.2l0,0l0,0l0.1-0.2l0,0l0.2-0.3l0.1-0.2l0,0l0.1-0.1l0,0l0.1-0.1l0,0l0.1-0.1l0.3,0.1l-0.1,0.1
		l0,0l-0.1,0.1l0,0l-0.1,0.1h-0.1l-0.3,0.4l0,0l-0.1,0.2l0,0v0.1l0,0.1l0,0V31l0,0l0,0l0,0l0,0l0,0l-0.2,0.2l-0.4,0.5l-0.2,0.3
		l-0.1,0.1l-0.3,0.4l-0.4,0.5l-0.3,0.4l-0.6,0.8l-0.6,0.8l-0.3,0.5l-0.4,0.6l-0.1,0.1l0,0l-0.1,0.1l0,0.1l0,0.1l0,0l0,0l-0.1,0.1
		l-0.1,0.1v0.1l-0.1,0.1l-0.1,0.2l-0.1,0.1l-0.1,0.1l0,0l-0.1,0.2l0,0l-0.1,0.2l0,0l-0.1,0.2l0,0v0.1l-0.2,0.3l-0.3,0.4l0,0
		l-0.3,0.5l-0.3,0.4l-0.3,0.4l-0.3,0.4l-0.2,0.3l-0.2,0.3l-0.2,0.3l-0.2,0.3l-0.5,0.6l-0.2,0.3l-0.1,0.2l-0.2,0.4l0,0.1V43l-0.5,2.8
		v0.1l-1.1,1.5l-0.1,0.1l-0.1,0.1l-0.1,0.1l-0.3,0.4l-0.1,0.1l-0.1,0.1l-0.1,0.1l-0.1,0.1l-0.1,0.1l-0.1,0.2l-0.1,0.2l-0.1,0.1
		l-0.1,0.1l-0.1,0.1l-0.1,0.2l-0.1,0.2l-0.1,0.2l-0.1,0.3l-0.1,0.2l-0.1,0.2l-0.1,0.2v0.1v0.1l-0.1,0.2l-0.1,0.2v0.1v0.1l-0.1,0.2
		l0,0l0,0v0.1l-0.1,0.2l-0.1,0.2l-0.4,0.7l-0.2,0.4l-0.2,0.4l-0.4,0.8l-0.5,0.8l-0.9,1.6l-0.2,0.5l-0.2,0.3l-0.1,0.2l-0.1,0.2
		l-0.1,0.2l-0.1,0.2l-0.1,0.1l-0.1,0.2l-0.1,0.3l-0.2,0.3l-0.2,0.3l-0.2,0.3l-0.1,0.2l-0.1,0.3l-0.1,0.3v0.1l-0.1,0.2l-0.1,0.3l0,0
		l0,0l0,0l0,0h-0.1v0.1l0,0h-0.1l0,0l0,0l0,0l0,0h0l0,0l0,0l0,0l0,0l0,0v0.1v0.1l0,0h0l0,0l0,0v0.1l0,0v0.2V62v0.2v0.1v0.1l0,0.1
		v0.1l0,0l0,0l0,0l0,0.3v0.2l0,0l0,0.4v0.1l0,0v0.2v0.5l0,0v0.1l0,0v0.1l0,0l0,0v0.2l0,0v0.2l0,0l0,0l0,0v0.3v0.4l0,0l0,0.6l0,0v0.1
		v0.2v0.3l0.2,2l0,0.4l0,0l0,0l0,0l0,0l0,0v0.1l0,0l0,0l0,0l0,0l0,0l0,0v0.1v0.1l0,0l0,0v1.4l0,0l0,0v0.2l0,0l0,0l0,0l0,0l0,0l0,0
		l0,0V71l0,0v0.2l0,0v0.3l0,0l0,0l0,0v0.4l0,0l0,0V72l0,0l0,0l0,0v0.1l0,0v0.3v0.1l0,0v0.1v0.2l0.1,1h-0.1V74l0,0.5l0.1,0.9l0,0
		l0,0.8v0.8v0.2v0.1v0.4v0.5l0.1,1v0.1l0,0v0.3v0.2V80v0.4v1.3v0.5v0.1v0.3v0.1v0.6v0.1v0.5l0,0v0.3h0.2v0.5v1.4v1.7v0.9v1.3h-0.2
		l0,0l0,0l0,0l0,0v0.1l0,0l0,0v0.1l0,0v0.2l0,0v0.1l0,0v0.1v0.1V91l0,0l0,0l0,0l0,0l0,0v0.2v0.1v0.1h0.2v0.6l-0.1,1l-0.1,0.8V94v0.4
		l-0.1,0.5l-0.1,0.4l-0.1,0.4l-0.1,0.8V97v0.2v0.6v1l0.2,0.7l0,0l0.1,0.4v0.1l0.8,1.5l0.3,0.4l0.1,0.1l0.1,0.1l0,0l0.1,0.2l0.2,0.2
		l0.4,0.4l0.4,0.4l1.2,1.3l0.1,0.1l0,0l0,0l0,0l0,0l0,0l0,0l0.1,0.1l0,0.1l0.2,0.2v0.1l0,0l0,0l0,0l0.1,0.1l0,0l0.1,0.1l0,0l0,0l0,0
		v0.1l0.1,0.1v0.1l0.1,0.2l0,0l0,0l0,0l0.1,0.1l0,0l0,0l0,0.1l0,0v0.1l0.1,0.2l0.1,0.1l0.1,0.1l0,0l0,0l0,0.1l0,0l0.1,0.2l0,0
		l0.2,0.3l0.1,0.1l0.1,0.1l0,0l-0.1,0.1l0,0.1v0.1l0.1,0.2v0.1l0.1,0.2l0.1,0.3l0.2,0.4l0.1,0.2l0.1,0.2v0.1l0.1,0.3v0.1v0.1v0.2
		l0.1,0.3h0.1l0.1,0.1v0.2v0.4v0.2l0,0.4v0.2l0,0.4v0.6v0.8v0.9l-0.1,2.1v0.1l-0.3,1.2v0.1l-0.3,0.4l-0.2,0.3l-0.1,0.1l-0.2,0.2l0,0
		l0,0h0.1v0.1h-0.1l0,0l0,0l0,0l0,0l-0.2,0.3l0,0l-0.1,0.2l-0.3,0.2l-1,0.5l-0.4,0.2l-0.3,0.2l-0.2,0.1l-0.1,0.1l-0.2,0.1l-0.1,0.1
		l-0.4,0.2l-0.2,0.1h0l-0.2,0.1l-0.3,0.2l-0.3,0.2l-0.2,0.1l0,0l-0.3,0.2l-0.4,0.2l-0.2,0.2l-0.2,0.2l-0.3,0.2l-0.1,0.1l-0.2,0.2
		l-0.3,0.2l-0.5,0.3H119l-0.1,0.1l-0.1,0.1l0,0l0.1,0.1l-0.4,0.3l-0.1-0.1l-0.4,0.3l-0.3,0.4l-0.4,0.6l-0.5,0.7l-0.5,0.7l0,0v0.1
		l0,0h0.1l1.2,0.5l0,0l0,0l-0.1,0.2l0,0l-1.3-0.5l-0.1,0.2l-0.2,0.5l0,0l-0.2,0.4l-0.1,0.3l-0.1,0.2l0,0l-0.1,0.1v0.1l-0.1,0.1
		l-0.2,0.3l0,0l0,0l-0.2,0.4l0,0l-0.1,0.1l-0.1,0.1l-0.4,0.5l-1,1.2l-0.8,0.9h-0.1l0,0l0,0l0,0l0,0h0l0,0l0,0l0,0l0,0h-0.1h0h0l0,0
		l0,0l0,0l0,0l-0.1,0.1l-0.1,0.1l-0.1,0.1l0,0l0,0l0,0h0h-0.1h-0.1l0,0l0,0l0,0l0,0h-0.1l-0.3,0.1h-0.1l0,0l0,0h0l-0.4,0.2h-0.1
		l-0.2,0.1l-0.2,0.1l-0.2,0.1l-0.2,0.1l-0.2,0.1l-0.1,0.1h-0.1l0,0l-0.1,0.1l0,0l-0.1,0.1l-0.1,0.1l-0.1,0.1l-0.1,0.1l-0.1,0.1
		l-0.1,0.1l-0.1,0l-0.1,0.1l0,0.1h0v0.1l0,0.1l-0.1,0.1l-0.1,0.1l-0.1,0.2l0,0l-0.1,0.3l-0.3,1.6v2.4l0.2,0.9l0.2,0.7l0.2,0.6
		l1.4-0.4h0.1l0,0l0.3,0.7l0,0l0,0l0,0l-0.8,0.2v0.1v0.1v0.1v0.1l0,0.1l-0.1,0.1h-0.1h-0.1h-0.1l0.5,1l0.3,1l0.2,0.1l0,0l-0.1-0.1
		h-0.1l-0.1-0.4l0,0l0,0h0.1l0,0l0,0l0.1,0.4h-0.1l0.1,0.2l0,0l0.2,0.1l-0.1,0.1l-0.2-0.1l0,0l-0.2-0.1l0,0l0.1,0l-0.1,0.1h0.1h0.1
		h0.1l0.1,0l0,0l0,0v0.1v0.1l0.1,1l-0.1,0.3l-0.5,0.3l-0.3,0.7l-0.5,0.8l-0.8,1.1l-0.5,0.5l-0.4,0.4l-0.6,0.6l-0.7,0.8l-1,0.9
		l-1.1,1l-0.7,0.8l-0.8,0.9l-0.8,0.9l-0.8,0.9l-0.6,0.8l-0.4,0.6l-0.3,0.4l-0.7,0.9l-0.8,0.9l-0.8,0.9l-0.8,0.9l-0.8,0.9l-1.5,1.7
		l-1.5,1.6l-1.9,1.6l-0.2,0.2l-0.6,0.6l0,0l-0.9,0.8l-0.5,0.4l-0.4,0.4l0,0l-0.5,0.5l-0.4,0.3l-0.1,0.1l0,0l-0.1,0l0,0l0,0l-0.1,0.1
		l-0.3,0.3l-0.4,0.5l-0.1,0.1l0,0l-0.7,0.9v0.1l-0.5,0.7L84,174l-0.4,0.5l-0.2,0.2l0,0l-0.3,0.3l-0.9,0.6l-0.7,0.8l-0.1,0.1h-0.1
		l-0.6,0.7l-0.3,0.3l0,0l-0.4,0.5l-0.8,0.9l-1.4,1.5l-0.3,0.4l-0.5,0.6l-3.7,4.4l-0.3,0.3l-0.1,0.1l-0.1,0.1l-0.2,0.2l0.2,0.1
		l-0.1,0.1l0,0l0,0l0,0l0,0l0,0l-0.1,0.1l0,0l0,0l0,0l0,0l0,0l0,0l0,0l-0.1,0.1l0,0l0,0l0,0l0,0v0l0,0l0,0l0,0l0,0l-0.1,0.1
		l-0.3,0.3h0l0,0l0,0l0,0l0,0l-0.1,0.1l-0.1,0.1l-0.1,0.1l0,0l0,0l0,0l-0.1,0.1l0,0l0,0l-0.1,0.1l0,0l0,0l0,0l0,0l0,0l-0.1,0.1l0,0
		l-0.1,0.1v0.1l0,0l-0.1,0.1l0,0l-0.3,0.3l0,0l0,0h-0.1l-0.1,0.1l-0.1,0.1l0,0.1l-0.1,0.1l-0.2,0.2l0,0l0,0l-0.1,0.1l-0.1,0.1l0,0
		v0.1l-0.1,0.1l-0.1,0.1l-0.2,0.4H70l0,0h-0.1l-0.1,0.1l0,0.1l-0.1,0.2l0.5,0.2l0,0l0,0h0l0,0l0,0l0,0l0,0l0,0l0,0l0,0h-0.1l0,0h0
		l-0.1-0.1l0,0l-0.3-0.1l0,0v0l-0.1,0.1l-0.1,0.2l0.2,0.1l0,0l-0.1,0.2l-0.1,0.2l-0.2,0.3l-0.2,0.3l-0.1,0.1l-0.3,0.5l0.2,0.1l0,0
		v0.1l-0.3,0.4l-0.1,0.6v0.1l0,0.2l-0.1,0.3l-0.1,0.4l-0.1,0.6l0,0h0.1l0,0l0,0l0,0l-0.1,0.4l0,0v0.1H67l0,0l0,0l-0.1,0.4l0,0l0,0
		h-0.1l-0.3,1.1v0.5v0.1v0.6l0,0l0,0l0,0v0.2l0,0l0,0l0,0v0.4l0,0v0.4v1.3v0.2v0.3l0,0l0.1,0.9l0,0H66l-2.2-0.9l-0.1,0.2h0.1l0,0
		l0.5,0.2l0,0l-0.5-0.2l0,0h0l-0.1,0.3l0,0h0l0,0l0.4,0.1l0,0l-0.4-0.1h-0.1v0.4v-0.1H64v0l0.3,0l0,0l0,0H64l0,0v0.2h0.4l0,0l0,0
		l0,0h0.1l0,0l1,0.4l0,0l0.2,0.1l0.3,0.1l0.4-0.5l-0.2-0.1l0,0l0.2,0.1l-0.3,0.5l0,0h0h0.1l0,0l0,0l-0.1,0.2l0,0l0,0h-0.1l0,0l0,0
		l0,0.1l-0.4-0.2v0l0,0l0,0l0,0v0.1v0l0,0h-0.1h-0.1h-0.1l0,0l-1.3-0.5v0.1v0.1v0.1v0.1v0.1v0.2l0.1,0.2v0.1l0.1,0.2v0.1v0.1v0.1
		l0.1,0.2l0.1,0.3l0,0.2l0,0.1v0.2l0,0v0l0,0l0,0l0,0l0,0l0,0l0,0l0,0l0,0l0,0l0,0l0,0l0,0l0,0l0,0l0,0l0,0l0,0h0.1l0,0l0,0l0,0l0,0
		l0,0l0,0l0,0l0,0l0,0l0,0l0,0l0,0l0.1,0.5l0.1,0.5v0.2v0.1v0.1l0.1,0.4v0.1l0.2,0.6v0.1l0,0v0l0,0l0,0.1l0.1,0.1l0,0.1l0.1,0.1
		l0.1,0.1l0.1,0.1l0.1,0.1l0.1,0.1l0.1,0.1l0.1,0.1l0.1,0.1l0.1,0.1l0.1,0.1l0,0l0.2,0.1l0.1,0.1l0,0l0.2,0.1h0l0.1,0.1l0.1,0.1
		l0.1,0.1l0.1,0.1v0l0.1,0.1l0,0l0.1,0.1l0.1,0.1l0.1,0.1l0.1,0.2l0,0v0.1v0.1v0.1l0,0v0.1v0.4v0.2v0.1v0.2l0,0v0.2l0,0.3l-0.1,0.4
		l0,0v0.1l0,0l0,0h0l0,0.3h0.3l0,0l-0.2,1l-0.1,0.3v0.2v0.2v0.2v0.2l0,0h-0.1l-0.1,0.3v0.1v0.1v0.2v0.2l0,0v0.2l-0.1,0.3v0.2l0,0.2
		l0,0v0.1l0,0v0.1l-0.1,0.4v0l-0.1,0.3v0.1l0,0.2l-0.1,0.4l0,0.2l-0.1,0.2l-0.2,0.6l-0.5,2.3l-0.1,0.6l-0.1,0.6l-0.1,0.6l-0.2,0.6
		l-0.2,0.6l-0.2,0.6l-0.2,0.7l-0.2,0.7l-0.3,0.7l-0.3,0.7l-0.3,0.7l-0.3,0.7L63,230l-0.3,0.7v0.1l0,0v0.1v0.1l0,0v0.1l0,0l-0.8,1.7
		l0,0l-0.2,0.5l-0.1,0.3l-0.1,0.2l-0.1,0.1l-0.2,0.4l-0.2,0.3l-0.1,0.2l-0.1,0.1l-0.2,0.3l-0.1,0.2l-0.2,0.2l-0.1,0.1l-0.2,0.2
		l-0.4,0.3l-0.3,0.2l-0.1,0.1l-0.1,0.1l-0.1,0h-0.1h-0.1h-0.3h-0.4h-0.2h-0.6h-0.1l-1.1,0.1h-0.4h-0.1v0.1h-0.2l-1.1,0.1l0.1,0.5
		l-2.6,0.2l-0.8,0.1l-1.2,0.1l-2.9,0.3l-2.3,0.2l0,0h-0.3H44l0,0l0,0l-0.2-1h-0.1l0,0l0,0h-0.1h-0.1l-0.6,0.1h-0.1h-0.2h-0.2
		l-0.6,0.1l-0.5,0.1l-0.4,0.1h-0.4l-0.4,0l-0.5,0.1h-0.1h-0.2H39h-0.1h-0.3l-0.7,0.1l-1.3,0.2h-0.6l-0.3,0.1l-0.3,0.1l-0.9,0.1
		l-0.9,0.1h-0.3l-0.9,0.1l-0.9,0.1l-1.1,0.3l-0.3,0.1l-0.3,0.1h0l-0.2,0.1l0,0h-0.1l0,0h-0.1l-0.1,0.1l-0.1,0.1l-0.1,0.1l-0.1,0
		l-0.1,0h-0.1l-0.1,0h-0.1h0h-0.1l0,0l0,0h-0.1l0,0l0,0v-0.1l-0.4,0.2H28v0l0,0l0,0l0,0l-0.2,0.1l-0.1,0.1l-0.2,0.1l-0.2,0.1
		l-0.3,0.1l-0.1,0l0,0l-0.4,0.2l0.1,0.1l-0.1,0.1l0,0l0.1,0.1l0,0l0,0l0.3,0.3l-0.6,0.3l0,0l1.1,1.1l-0.4,0.2l-0.9,0.5l-0.9-0.8l0,0
		l-0.1,0h0l-0.6-0.2l-0.2,0.1l0.5,0.4h-0.1h0l0.6,0.5l0,0l-0.1,0.1l-0.2,0.1l0,0l-0.2-0.2l0,0l-0.1,0.1l0,0l-0.1-0.1l0,0l0.1-0.1
		l0,0l-1.3-1.2l-0.4,0.2l-0.1,0l0,0l-0.3,0.2l0.2,0.2l0.1-0.1l0,0l-0.1,0.1l1.4,1.3l-0.3,0.2l-1.7-1.5l-0.4,0.3l-0.4,0.2l-0.4,0.2
		l-0.1,0.1l-0.4,0.2l0,0h-0.1l-0.1,0.1l-0.5,0.3l-0.3,0.2l-0.2,0.1l-0.2-0.1l-0.3,0.2l-0.1,0.1l-0.2,0.2l0.4,0.3l0,0l0,0l0.5,0.5
		l0,0l0,0l0.5,0.4l0.1,0.1h-0.1l0,0h0l0,0l0,0l0.2,0.1l-0.3,0.2l0,0l-0.1-0.1l0,0l0,0l0,0l0,0l0,0l0,0l0,0l0,0h0.1l0,0l-0.2,0.1
		l-0.4-0.4l-0.1-0.1l-0.2-0.2l-0.2-0.1l-0.1-0.1l0,0l-0.1-0.1l0,0l-0.3-0.2l0,0l-0.3,0.2l-0.3,0.2l-0.4,0.2l0,0l-0.1,0.2l-0.1,0.1
		l-0.1,0.1l-0.4,0.2l-0.6,0.4l-1.1,0.6l0,0l-0.2,0.1l0.8,1.1l1.3-0.6l0.2,0.3l-1.3,0.6l0.3,0.4l-0.4,0.2l-1.4-1.8l-2.1,0.5H12
		l0.1,0.2h-0.3l0.1,0.3H12l0.1,0.2v0.1H12v0l0,0l0,0v0.1l0,0v0.1l0,0l0,0l0,0l0,0l0,0l0,0l0,0l0,0l0,0l0,0v0.1h0l0,0v0.1l0,0l0,0
		l0,0l0.2,0.3l0,0l0,0l0-0.1l-0.1-0.2L12,249l-0.1-0.1v-0.1l0-0.1v-0.1l0,0l-0.3,0.1l0.1,0.3v0.1l0,0l0,0h-0.1l0,0l0-0.1l0-0.1
		l0-0.1l-0.3,0.1v0.1l0,0v0.1l0,0.1v0.1l0,0l0,0h-0.1l0,0l0,0V249v-0.1l-0.1-0.1l0,0v-0.1l0,0h-0.2h-0.1l0,0v0.1v0.1l0.1,0.2
		l0.1,0.2l0.1,0.2l-0.1,0.1l0,0h-0.1l-0.1,0l0-0.1l0-0.1l0,0l-0.1-0.1v-0.1l-0.1-0.2l-0.1-0.1v-0.1l-0.3,0.1v0.1v0.2v0.1v0.1l0,0
		l0,0H10h0l0,0l-0.1-0.1l-0.1-0.1l0-0.1l0-0.1v0v-0.1l0,0H9.3v0.2v0.2v0.2l0.1,0.3v0.1l0,0l0,0H9.3l0,0v-0.1v-0.1v-0.2v-0.2l0,0
		v-0.1L9.2,249H8.9v0.3v0.1v0.1H8.8l0,0l-0.1-0.1l0,0l0,0v-0.1h0.1v-0.1l0,0l0,0l0,0v-0.1l0,0v-0.1l0,0l0,0H8.7V249h0v-0.2h0.1
		l-0.1-0.4l-0.6-0.1L8,249v0.1l0,0v0.2l0,0v0.1v0.1L8,249.6H7.8l0,0L8,249l0,0v-0.1l-0.2-0.1l0,0l0,0l0,0l0,0l-0.1,0.1l-0.1,0.1
		l-0.2,0.2l0,0l0,0l-0.1,0.1H7.4l0,0l0,0l0.1-0.1l0,0l0.1-0.1l0.1-0.1l0,0l0.1-0.1l0,0l0,0l0.1-0.1l-0.5-0.2L7,252.8l-0.1,0.1
		l-0.1,0.1L6.8,253l-0.1,0.1l-0.1,0.1l-0.1,0.1l0,0l0.1-0.1l0,0l0,0l0,0l0,0l0,0l0,0l0,0l0,0l0.1-0.1l0.1-0.1l0.1-0.2l0,0v0
		l-0.2-0.1l0,0l-0.3-0.1l-0.2,0.2l-0.8-0.6L5.3,252l-0.2-0.2l-0.3-0.2l0,0l-0.1-0.1l-0.2-0.2l-0.2-0.2l0,0l-0.4-0.4l-0.1-0.1
		l-0.1-0.2l-0.2-0.2l0,0L3.3,250l0,0H3.2v0l-0.1-0.1l0-0.1L3,249.6l-0.1-0.1v-0.1v-0.1v-0.1l0,0v-0.1V249v-0.3H2.8l0,0H2.6v-0.1h0.2
		l0,0h0.1v-0.1l0,0v-0.2v-0.1l0,0v-0.1l0,0l0,0l0,0l0.1-0.2l-0.3-0.1l-0.1,0.2h0.1l-0.1,0.1l0,0l0,0v-0.1H2.5l0,0.1l0,0l0.1-0.4
		L1.8,248l-0.3-0.4l1.6-0.2l0-0.1H3h0H2.7H2.6H2.4l0,0l0,0l0,0l0,0l-0.1,0.1l-1.1-0.2l0,0l-0.1-0.1l-0.6-1.8l0,0l0.2-0.7L1,244l0,0
		l0,0l0,0h0h0.1v-0.1l0,0l0,0l0,0l0,0l0,0h0h0.2h0.1h0l0,0h0h0l0,0H1.2l0,0l0,0l0,0l0,0l0,0l0,0l0,0h0l0,0l0,0l0,0h0.2l0,0l0,0l0,0
		l0,0v0.1h0v0l0.2-0.4l0.3-0.7l0,0v-0.1l-0.6-0.1l0,0H1.1l0,0l0,0l0,0l0,0l0.2-0.6l0.2-0.7l0.2-0.9l0.2-0.7l0.1-0.4l0.2-0.7l0-0.2
		l0.1-0.5l0.1-0.6l0.1-0.4l0.1-0.4l0.1-0.7l0,0l0,0v-0.1l-0.1,0.6l1.7,0.3l0.1-0.4l-0.1-0.1v-0.1v-0.2v-0.2l0-0.1l0,0l0.1-0.1
		l0.1-0.1l0.1-0.4l-0.3,0l-0.5-0.1l-0.9-0.1l-0.1,0.6v0.1H2.6v-0.1l0.1-0.7l0.1-0.6l0.2-1v-0.2l0,0l0.1-0.4l0.1-0.5l0.2-1.1l0.2-1.1
		l0.2-0.9l0.2-1.2l0,0l0,0l0,0l1,0.1l0,0l0.4,0l0,0h0.2l0.8,0.1v-0.1l0,0l0,0h0.3l2.1,0.3l0.2-0.9l0,0l0.1-0.3v-0.1l0.1-0.4l0,0
		l0.1-0.3l-0.8-0.1l0-0.3l-0.8-0.1l0,0H7.3l0,0l-1.9-0.2l0,0H5.2v0l-0.9-0.1l0.1-0.5l2.6,0.3l1.4,0.2l0.7,0.1l0.1-0.8l-4-0.5
		l0.1-0.5l3.5,0.4l0.1-0.3H8.7l0,0l-0.5-0.1v-0.1h0.1l0,0h0.4l0,0h0.2v-0.1l0.8,0.1l0.1-0.4l0.2-0.9l0.2-1l0.2-0.9l0.2-0.9l0.2-1.1
		l0.2-1.1l0,0l-0.4-0.1L10,217l-2.5-0.3l-0.9-0.1l-0.5,0l-0.1-0.1v-0.1v-0.2v-0.2v-0.1l1.2,0.1l1.3,0.1l1.5,0.1l1.1,0.1l0.2-2.5
		l-4.3-0.3l0.1-0.2l0.2-1.3l0.2-1.6l0,0h0.1l0,0l4,0.3l0.1-1.1v-0.3l0.1-1.2l0.1-1H11l-3.6-0.1v-0.4l4.4,0v-0.1h0.1l0,0l0,0l0,0
		v-0.1l0,0l0,0l0,0l0,0l0,0l0,0V206l-1.7-0.1v-0.4l1.7,0.1v-0.4l0.1-1.1l0.1-1h0v-0.4l0,0l0,0l0,0v-0.2l0,0l0,0l0,0v-0.1h0l0.1-0.9
		l0.1-0.9v-0.7h-0.9v-0.3l0,0l0,0l0,0l0,0l0,0h0.1l0.8,0v-0.5l0-0.7h-0.1h-0.1h-0.3l-0.9-0.1l-0.1-0.1h-0.1v-0.3h-0.1v-0.1h0.1v-0.5
		v-0.1l0.1-0.9h-1v-0.1H9.1v-0.1H10l1.6,0.1h0.1h0.9l1.5,0.1l0.2-0.1l0,0l0,0l0,0l0,0l0.1-0.1l0.1-0.4l0.1-0.5l0.1-0.5l0.1-0.6
		l0-0.3l0.1-0.5h-0.2l0,0l-0.5-0.1l0.1-0.4l0,0l-3.6-0.4l0,0l0,0l0.1-0.5l0,0h0.1h0.1l3.5,0.4l0,0l0.1-0.4h0.1l0.5,0h0.2l0.1-0.7
		l0.1-0.6l0,0h-0.3l-0.9-0.1h0l0.1-0.4l-0.5,0l0,0v-0.7v0.1v0.1v0.1v0.1l0,0h0.2l0,0h-0.4l0,0h0.2l0,0V190V190l0,0v-0.1v-0.2l0,0
		l-0.7-0.1l0,0v0.3v0.2l0,0h0.2l0,0h-0.5l0,0h0.2l0,0V190l0,0v-0.1v-0.2l0,0l-0.8-0.1v0.1v0.1v0.3l0,0h0.1l0,0h-0.5l0,0H12V190l0,0
		v-0.1l0,0v-0.1v-0.1l0,0l-0.8-0.1l-0.1,0.5l0,0h0.2l0,0H11l0.1-0.6v-0.1l0,0l0.1-0.5l0,0h0h0.1l1.5,0.1v0l0.6,0.1l0,0h0.3l0,0
		l0.7,0.1v-0.1V189v-0.2v-0.1l0,0v-0.1v-0.1v-0.1l-3.1-0.3h0l0,0l0,0l0.1-0.5l0,0h0.1l3.1,0.3l0.1-0.9l-0.6-0.1l0,0l0,0l0,0l0,0l0,0
		l-0.6,0v0h0.1v0l-2.1-0.2h-0.1l0,0l0.1-0.5l0,0l0,0l0,0l3.1,0.3l0.2-0.9h0l0,0H15l0,0l-0.5,0l0,0h-0.1l0,0l-2.3-0.2l0,0l0,0l0,0
		l0.1-0.5l0,0h0.1l1.6,0.2l0.5-1.5h0.4l0.2-0.5l-2.2-0.9l0.2-0.4l2.2,1l0.4-1.1v-0.1l0.1-0.2h0.1l0.1-0.3l-0.3-0.1l-0.5-0.2l0,0
		l0.5,0.2h0.1l0,0l-0.5-0.2l0,0l-0.1,0l0,0H15l0,0l0.1-0.1h0.1l0,0l0.1,0l0,0l0.4,0.1h0.1l0,0h-0.1l-1-0.4l0,0l1.2,0.5l0.1-0.2
		l-0.5-0.2l0,0h0l0,0l-1.4-0.6l0,0h-0.1l0,0h-0.1l0.1-0.1h-0.1l0.1-0.1l0.2,0.1l-0.1,0.2h0.1l0,0l1.4,0.6l0,0h0.1l0.1-0.2l0.5,0.2
		l0.5-1.3l0.1-0.4l0.2-0.6l0.2-0.4l-0.2-0.1l0.2-0.3l0.2,0.1l0.2-0.4l0,0l-0.2-0.1l0.2-0.3l0.2,0.1l0.3-0.4l0.2-0.3l0.1-0.2l0.2-0.2
		l0.5-0.7l0.1-0.2l0.2-0.3l0.1-0.1l0.2-0.2l0.5-0.8l0.3,0.1l0.6-0.8l-0.2-0.1l-0.4-0.2l0.4-0.5l-2.7-1.1l0,0l0,0l0,0l0.7-0.9l0,0
		h0.1l0.2,0.1l2.6,1.1l0.4-0.6l0.4,0.2l0.1-0.2l-0.4-0.2l-0.2-0.1l0.1-0.1l0.1-0.1l-0.1-0.1l0,0l-0.1,0l0.1-0.1l0.1,0l0,0l0.1,0.1v0
		l0.6,0.3l0.1-0.2l-0.5-0.2l0.1-0.2l0.3-0.5l0.3-0.4l0.4-0.5l0.5,0.2l0.6-0.9l-3.1-1.3l0,0l0,0l0.1-0.2l0,0l0,0l3.1,1.3l0.6-0.8
		l0.4-0.5l-3.1-1.3l0.2-0.3l3.1,1.3l0.6-0.8l-3.1-2.1l0.3-0.4l-0.2-0.1h-0.1l0,0h-0.1l0.1-0.1h0.1l2.9,1.2l0.5,0.2l1.1,0.5l0.4-0.2
		l0,0l0.1-0.2l0.1-0.1l0,0l0.4-0.5l-4.4-1.9v0l0.3-0.5h0l4,1.7l0.1,0.1l0.3,0.1l0.4-0.6v-0.1h-0.1l0,0l0,0v-0.1l0,0h0h0.1H30H30h0
		l0.1-0.1l0.1-0.1l0,0l0,0l-4.6-2l0,0l0,0l0.2-0.3l0,0h0.1l4.4,1.9l0,0l0.1,0l0.5-0.7l0.5-0.7l-4.6-2l0,0l0,0l0.3-0.4h0.1l4.6,2
		l0.5-0.7l0.5-0.7l-4.6-2l0,0l0.2-0.3h0.1h0.1l3.4,1.5l0.1-0.1l-0.2-0.1l0.2-0.3l0.2,0.1l0.5-0.6l-3.5-1.5l0.4-0.5l3.5,1.5l0.6-0.9
		l-0.2-0.1l0.2-0.2l0.2,0.1l0.5-0.7l-0.5-0.2l0.1-0.1l-0.1-0.1l0,0l-0.1-0.1l0,0l-0.1,0l0.1-0.2l0,0l0-0.1h0.1l0,0.1l0.1,0.1l0,0H34
		l0,0l0.5,0.2l0.2-0.4h0.2h0l0,0l0,0l0,0l-0.1-0.1v0l0,0l-3-1.2l0.3-0.4l3,1.2l0.5-0.6l-1.4-0.6l-1.1-0.5l0.1-0.2l2.5,1.1h0.1l0.1,0
		l0.5-0.6h-0.1l0,0h-0.1l-0.1,0.1l-0.2,0l0,0l-0.2-0.1l0,0l-0.1-0.1l0.1-0.1v0l-1-0.5l-0.1,0.1l0,0h0.1l0,0.1l-1.7-0.7l0.1-0.1
		l0.1,0l0,0l0.1-0.1h-0.1l0,0v0l0,0h-0.1l0.1-0.1h0.1l0.7,0.3l2.3,1l0.1-0.1v-0.2l0.1-0.1l0.1-0.1l0.1-0.1l0.1-0.1l0.1-0.1l0,0
		l0.1-0.2l1-1.5h0.1l0.1-0.1h0.1h0.1l0.2-0.1l0.3-0.5h-0.1h-0.1h-0.1l0,0v-0.1l0.4-0.6l0.1-0.1l0.8-1.1l0.7-1h0.3h0.5l0.4-0.6
		l0.6-0.9l0.6-0.9l0,0v0l0.1-0.2l0.3-0.4l0,0H43h-0.1h-0.2h-0.1h-0.1h-0.1h-0.2H42h-0.1h-0.1h-0.1h-0.2h-0.6h-0.2h-0.1h-0.1h-0.1
		h-0.1l0,0h-0.1l0,0l-0.1,0.1h-0.3l0.2-0.2l3.6-0.2l-0.1-0.1v-0.1v-0.1v-0.2l0.8-1.1l0.2-0.4l0,0l0.1-0.2l0,0l0,0l0.1-0.3h-0.1v-0.1
		h0.1l0.1-0.2l0.1-0.1l0.1-0.1l2-2.9l0.3-0.5l0.2-0.3l0.7-1l0.2-0.3l-1-1l-0.4,0.2l-0.9,1h-0.1l0.9-1l0.5-0.2l0-0.2h0.1l-0.1,0.2
		l1,0.9l0.5-0.7l-0.2-0.1v-0.1h-0.1l-0.1,0.1l0,0l0,0l0-0.1l-0.6-0.3l0,0.1h-0.1l0.1-0.2H48v0.1h0.1l0.6,0.2l0,0h0.1v-0.1l0.2,0.1
		l0.1-0.2l0.4-0.6l-1.5,0l-0.2,0.2h-0.1v0l0.2-0.2h1h0.7l1.3-1.9l1.9-2.8l0.6-0.9l0.7-1l0.1-0.2l0.5-0.7l0.6-0.8l0.1-0.2l0.4-0.6
		l0.1-0.2l1.1-1.5l1.4-2l0.7-1l1.3-1.9l0.6-0.9l0.2-0.2l0.6-0.9l0.1-0.1v-0.1v-0.1l0.3-0.4l0.4-0.6l0.3-0.4l0.2-0.2l0.2-0.3l0.2-0.4
		l0.3-0.4l0.5-0.6l0.3-0.4l0.1-0.1l0.2-0.2l0.1-0.2l0.1-0.2l0.1-0.1l0.2-0.4l0.2-0.3l0.1-0.2l0.1-0.1l0,0L66,108l0.1-0.1v-0.1
		l0.5-0.6l0.5-0.7l0.2-0.3l0.1-0.1l0.2-0.1v-0.1l0.1-0.2l0.1-0.2v-0.1l0.2-0.3l0.2-0.3l0.3-0.4l0.9-1.2l0.4-0.4l0.5-0.6l0.2-0.2
		l0.3-0.4l0.6-0.9l0,0l0.2-0.3l0.1-0.2l0.3-0.3l0.1-0.1v-0.1l0.1-0.2l0.1-0.1l0.3-0.4l0.1-0.1h0v-0.1l0.2-0.4l0.1-0.1v-0.5l0.1-0.2
		l0.1-0.1v-0.1l0-0.1h0.1v-0.1l0.1-0.2l0.2-0.4l0.4-0.5l0.1-0.2h0l0.1-0.2l0-0.1l0.2-0.3l0.2-0.2l0.1-0.2l0.2-0.3l0.2-0.2l0.2-0.2
		l0.1-0.1l0.3-0.5l0.1-0.2l0.2-0.2l0.2-0.4l0,0l0.2-0.3l0.3-0.5v-0.1l1.1-1.7l0.3-0.4l1-1.3l0.4-0.4l0-0.1l0.5-0.5l1-1l0.2-0.2
		l0.8-0.9l0.5-0.6l0.7-0.8l0.6-0.7l0.3,0.1l0.6-0.8l0.1-0.1l0.1-0.1l0.2-0.2l-0.1-0.1h-0.1l-0.1,0.1l-0.2-0.1l0.4-0.5l0.2,0.1
		l-0.3,0.3h0.1l0.1,0.1l0.4-0.4l-0.2-0.1l0.1-0.1l0.1-0.2l-0.3-0.8l0-0.1l-0.2-0.1l-0.2,0.2l-1-0.4l0.4-0.6l1,0.4l-0.2,0.2l0.2,0.1
		l0.1,0.1v0.1l0.3,0.7l0,0l0.2,0.1l0.9-0.6l0-0.2l0-0.1l0.1-0.1l0.2-0.2l-0.4-0.2l0,0l0.1-0.1l-1.5-0.6l0,0L85.2,79l0,0h-0.1l0,0
		l0,0l0,0v-0.2l0,0l0.6-0.9l0.2-0.3l0,0l2.2-3.3l0.2-0.4l0.4,0.2l0.9-1.3l0.2,0.1l0,0l0,0l1.7,0.6l0.5-0.7l0.2,0.1l0.1-0.2l0,0v-0.1
		l0.1-0.1l0.1-0.2l0.1-0.1l0.1-0.1l0,0l0.1-0.1l0,0l0,0v-0.1l0.1-0.2l0.5-0.7l0.9-1.4l1.1-1.7l0.4-0.5l0.1-0.3l0.2-0.2l0.1-0.2
		l0.3-0.5l0.2-0.2l0.1-0.2l0.1-0.2v-0.1v-0.2l0.1-0.2l0.1-0.2l0.1-0.1l0.1-0.1l0.1-0.1l0.2-0.2l0.1-0.1v-0.1l0-0.1l0-0.1l0.1-0.1
		l0.1-0.1l0.1-0.1l0.5-1.4l0.1-0.3l0,0l0.1-0.1v-0.1v-0.1v-0.1v-0.1v-0.3l0-0.1l0,0l0,0V61v-0.3v-0.2l0-0.1l0.1-0.1h0.1H99l0,0h-0.1
		l-0.1-0.1l0.5-1.4v-0.1l0.2-0.7l0.1-0.3l0.1-0.3l0.1-0.2l0.1-0.4l0.1-0.4l0.1-0.1l0.1-0.3l0.1-0.2l0.1-0.1l0.1-0.1l0.2-0.5l0.2-0.3
		l0.1-0.3l0.1-0.3l0.1-0.2l0.1-0.2l0.1-0.2l0.1-0.2l0.1-0.3L102,53l0.1-0.1l0.1-0.1l0-0.1l0,0l0,0l0.2-0.3v-0.1l0.1-0.1l0.1-0.2
		v-0.1l0.1-0.1l0.1-0.1l0.1-0.1l0.1-0.2l0.1-0.3l0.1-0.1l0.1-0.2l0.1-0.1l0.1-0.2l0,0v-0.2v-0.1v-0.1V50l0,0v-0.1v-0.1v-0.2l0,0
		v-0.1l0-0.4v-0.1l0,0v-0.1v-0.1v-0.1v-0.1l0,0v-0.1l0-0.1l0,0l0-0.1v-0.2l-0.1-0.2V48l-0.2-0.2l0,0v-0.1h0l-0.1-0.1l0,0l0,0h0.1
		l0,0l0.1-0.1v-0.8l-0.1-0.2l0-0.1l0-0.1l-0.1-0.1l-0.2-0.1l-0.1-0.2l-0.1-0.2l0-0.2v-0.2v-0.1l0-0.1l0.1-0.1v-0.3v-0.2v-0.1v-0.3
		v-0.2v-0.2v-0.4v-0.2l0.1-0.1v-0.1v-0.1l-0.1-0.1v-0.2v-0.1l0,0l-0.1-0.1l0,0v-0.1v-0.2v-0.1V42l0,0l-0.1-0.2v-0.1l-0.1-0.1h0.1
		l0,0l-0.1-0.1l0,0l0,0l0,0l0,0l0,0h-0.1l0,0v-0.1l0,0l0,0l0.1-0.1v-0.1l0-0.1l0-0.1l0.1-0.1l0.1-0.1l0,0l0.4-0.4h0.2h0l0,0l0,0l0,0
		l0,0l0,0l0,0l0,0h0.1l0-0.1h0.1v-0.1l0,0v-0.1l0,0l0,0l0,0v0.1l0,0l0,0l0,0l0,0l0,0l0,0l0,0l-0.1-0.1v-0.1l0,0h0.1h0.1h0h0h0.1h0.1
		h0.1v-0.4h0.1l0,0h0.1l0.1-0.1l0,0v-0.1h0.6v-0.1l0,0l0,0l0,0l0,0h0.1l0,0h0.1l0,0l0,0l0,0h0.1h0.1l0.1-0.1l0,0l0.1-0.1l0,0h0.1
		h0.1l0.1-0.1l0,0h0.1l0,0v-0.6l0,0h0h0.1l0,0h0.1v0.1l0,0l0,0l0,0l0,0h0.1v0.1h0h0.1l0,0l0,0l0.1-0.1h0v-0.1v-0.1h0.1h0.1h0.1v-0.1
		l0-0.1l0.1-0.1h0.1l0.3-0.1l0.2-0.1l0.6-0.4h0l0.3-0.3l0.3-0.3l0.2-0.1l0.6-0.7l0.3-0.3l0.1-0.2l0.1-0.2l0.2-0.3l0.1-0.1l0-0.1l0,0
		l0.1-0.2l0.1-0.2l0.1-0.2l0-0.1l0.3-0.4l0-0.1v-0.1l0.1-0.1l0.1-0.1l0.1-0.3v-0.1h0.1l0.1-0.2l0.2-0.3l0.1-0.2l0.1-0.2l0.1-0.2
		l0.2-0.3h0.1l0.1-0.1l0.1-0.2l0.2-0.2l0.1-0.1l0.1-0.1l0.3-0.4l0-0.1l0.1-0.2h0.1l0.2-0.2l0.1-0.2l0.2-0.3l0.4-0.5v-0.1l0.2-0.3
		l0.1-0.1v-0.1l0.1-0.3l0.6-0.6l0.2-0.1l0.2-0.2l0,0l0,0l0,0h0v-0.1l0.3-0.4l0.3-0.4l0.1-0.2l0.1-0.2l0.1-0.1l0.2-0.2l0,0v-0.1v-0.1
		l0.5-0.8l0.7-0.9l0.5-0.6l1.5-1.7l0.1-0.2l0.2-0.2l0.3-0.3l0.1-0.3l0.2-0.1l0.1-0.1l0.1-0.1l0.1-0.1V20l0.1-0.2l0.1-0.1h0.1
		l0.2-0.4l0.1-0.1v-0.1l0.1-0.1l0.1-0.1v-0.2v-0.1l0.1-0.1h0.1l0.2-0.3l0.1-0.2l0.3-0.6l0.2-0.4h-0.1l0,0l-0.2-0.1l0.1-0.2l0.3,0.1
		l0,0h0.1l0.1-0.1l0,0l0.1-0.2l0-0.2v-0.2V16l0,0l0,0l0,0l0.1-0.6v-0.1l0,0h-0.1l0,0l-0.2-0.1h-0.1l0,0l0,0.1l0,0l0,0.1l0,0l0,0.1
		l0,0l0,0l0,0l0.1-0.2l0,0l0.1-0.1l0,0l0.2,0.1h0.1l0,0h0.1v-0.1l0,0v-0.4v-0.1h-0.1h-0.1h-0.2v-0.1l0.1-0.1l0.2-0.1h0.1l0.1-0.2
		l-0.4-0.2l0.2-0.4h0.1l-0.1,0.3l0.3,0.1V14l0-0.1v-0.1v-0.1v-0.1v-0.1l-0.1-0.1l0,0v-0.4l0.1-0.4l0.1-0.3v-0.2l0.2-0.5l0.2-0.3
		l0.3-0.4l0.2-0.3l0.1-0.4l0.2-0.3l0.2-0.5l0.3-0.3l0.2-0.4l1-1.7l0.2-0.1l0.8-1.2l0.2-0.4l0.2-0.3l0.6-0.5l0.4-0.4l0.3-0.2l0.2-0.1
		l0.1-0.1l0.6-0.1l0.9-0.7l0.4-0.4l0.1-0.1l0.1-0.1h0.1l0,0"/>
	<path class="st0" d="M110.1,156.1l-1.1,0.8l-0.4,0.3l-0.5,0.6l-0.9,1l-0.6,0.8l-0.9,1.2l-2,2.2l-0.5,0.5l-0.1,0.1l-0.3,0.4
		l-0.4,0.5l-1.1,1.3l-0.1,0.1l-0.6,0.7l-0.6,0.8l-0.5,0.6l-0.4,0.5l-0.4,0.3l-0.5,0.4l-0.4,0.3l-1.3,1.5l-0.3,0.2l-0.3,0.3l-0.1,0.1
		l-0.4,0.6l-0.1,0.2l0,0.4l-0.5,0.7l-0.8,0.8l-0.1,0.1l-0.1,0.1l0,0h-0.1l-0.1,0.1l-1,0.9l-1.4,1.2h-0.2l-0.8,0.9l-1.6,1.7l-0.4,0.4
		l-1,0.9l-1,0.7l-0.1,0.1l-0.5,0.3v0.1l-0.8,0.7l-0.5,0.4l-0.7,0.4l-0.6,0.5l0,0l0,0l0,0l0,0l0,0h0l0,0h-0.2l0,0l-0.2,0.2l-0.3-0.2
		l0.2-0.2l0,0l0,0l0,0v-0.1l0,0l0,0l0,0l0,0l0,0l0.3-0.7l0.6-0.9l1-0.9l0.2-0.4l0.5-1l0.1-0.2l0.7-0.9H86l0.7-0.5l1.1-1.2l1.1-1.2
		l0.6-0.7l0.7-0.8l0.5-0.5l0.1-0.2v0v0v-0.1l0-0.1l0,0l0.1-0.2l0.5-0.6l1.5-1.8l0.1,0l0.1-0.1v-0.1l0.1-0.2h0.1l0.4-0.3l-0.1-0.1
		l0.4-0.4l0.2,0.1l0.7-0.7l0.6-0.6l0.3-0.5l0.4-0.6l0.9-1.1l0-0.1l0.3-0.3l0.5-0.6l0.6-0.7l1.1-0.9h0.2l0.4-0.5l1.6-2l1.6-1.9
		l0.9-1.2h0.1v-0.1h0.1h0.1l0.1-0.2l0.2-0.2l-0.2-0.1l0.1-0.1l0.2,0.1l0,0h0.2l0.1-0.5l0.1-0.1l0.5-0.7v-0.1h0.1l0.2-0.1l0.4-0.4
		l0.4-0.2l1.1-1l0.5-0.6l0.3-0.4l0.6-0.5l1.1-0.4l0.7-0.1l0.5-0.4l0.4-0.5h0.1h0.1l0.1,0.1l-0.2,0.4l-0.1,0.4v0.8l0.1,0.8v0.4
		l-0.1,0.3l-0.1,0.2l-0.7,0.8l-0.4,0.7l-0.1,0.1h-0.1L110.1,156.1"/>
	<path class="st0" d="M139.1,111l0.3,0.5l0.1,0.3l0.3,0.4l0.4,0.5l0.3,0.4l0.1,0.1l1.5,0.7l0.1,0.1l0.1,0.1l0.1,0.1l0,0h0.1l1.3,0.5
		h0.1l1.8,0.7l0.3,0.2l1.3,0.9l1.4,2l0.9,1.6v0.9l-1.1,1.5l-0.8,1.1l-0.3,0.2l-0.2,0.1l-1.1,0.9l0.2,0.1l-1,0.9l-0.3-0.1l0,0l-1,0.4
		l-0.4,0.2l-0.4,0.3l-0.2,0.2v0.3l0.1,0.1l-4.8,5.3l-0.1-0.1l-0.3,0.4l-0.3,1l-0.6,1.7l-0.3,0.3l-1.3,1l0,0l-0.1,0.1l-0.1,0.1h-0.2
		l0,0l-0.1,0l-0.2,0.2l-0.3,0.1h-0.3h-0.2h-0.1l0,0h-0.1h-0.2l-0.5,0.1l-2,1.4l-0.3,0.1l-0.3,0h-0.1h-0.1h-0.1l-0.4,0.1l-0.6-0.1
		l-1-0.6l-1.6-0.9l-0.5-0.3l-0.6-0.2l-2.4-0.3l-3.3-0.5l-0.5-0.5l-0.6-0.4l-0.2-0.3l-0.1-0.4v-0.4l0.1-0.2l0.1-0.2l0.2-0.6v-0.3
		l0.1-0.3l3.7-4.3l0.6-0.7l0.4-0.8h0.2l0.2-0.2l0.9-0.9l0.9-0.7l0.2,0.1l1.3-0.5h0.1h0.1l1.3,0.6h0.2l0.7,0.2h1h0.6h0.2h0.2l0.4,0.1
		h0.2h0.2l0.1-0.1V125v-0.1v-0.1l0.1-0.1v-0.1l0-0.1v-0.1l0-0.2v-0.2l-0.2-0.1l-0.2-0.1h-0.1l0,0l0.1-0.1h0.3h0.2h0.3h0.2h0.2h0.1v0
		v-0.1h-0.8l-0.4-0.1h-0.3h-0.1l0,0.1l0.1,0.1h0.1h0.1l0.2,0.2l0,0.2v0.4l-0.1,0.2l-0.1,0.1l-0.1,0.1h-0.2h-0.1h-0.3H131H131h-0.3
		h-0.1h-0.3h-0.2H130l0,0v-0.1v-0.1l0.3-0.4l0.1-0.2l0.4-0.4h0.1h0.1l0.1-0.2l-0.9-0.1l-0.3-0.2l-0.4-0.3l-0.1-0.8V122v-0.1v-0.1
		l1.3-1.8l0.1-0.4v-0.1l0.2-0.5l0.1-0.1l0.1-0.1v-0.1v-0.1v-0.1v-0.2v-0.5v-0.4l0,0l-0.1-0.6l-0.1-0.4l-0.1-0.3l-0.1-0.2l-0.2,0.1
		l0,0l-0.5,0.1l0-0.1l0.5-0.1l0,0l0.2-0.1l0,0h-0.1l-0.2-0.4l0-0.6l0.3-1.1l0.5-1.3v-0.1v-0.1v-0.1l0.1-0.1l0.2-0.2l-0.8-0.4
		l0.2-0.2h0.1l-0.1,0.2l0.7,0.3l0.2-0.2l-0.3-0.1l0,0l0.3,0.1l0-0.1l-0.3-0.1l0.2-0.2l-0.4-0.2l0,0h0l-0.2,0.2h-0.1l0.2-0.3l0.5,0.3
		l0.9-1.3l0.1-0.1l0.1-0.1l0.1-0.1l0.3-0.2l0.3-0.1h1.3l2.5,0.2l0.7,0.4l0.4,0.2l0.8,0.9"/>
	<path class="st0" d="M159.9,5l-0.4,1l-0.2,1l-0.5,1.1l-0.4,1l-1,0.3L157,10l-0.3,0.1l-0.1-0.1l-0.1-0.1l-0.1-0.1l0,0l0,0l0,0V9.8h0
		V9.7V9.7l0-0.1l0,0l0,0l-0.1-0.1l-0.1-0.2l-0.1-0.1l0-0.1l0-0.1l0,0l0,0h-0.1l0,0l0,0V9l0,0l0,0h-0.1l-0.1-0.1l-0.1-0.1l-0.1-0.1
		l-0.1-0.1l-0.1-0.1l0,0l0,0l0,0l-0.1-0.1l0,0l0,0l-0.1-0.1l-0.1-0.1L155,8.2l-0.1-0.1l-0.1-0.1L154.7,8L154.6,8l-0.1-0.1h-0.1
		l-0.1-0.1h-0.1l-0.1-0.1h-0.1H154h0h-0.1l0,0l0,0l0,0h0l-0.2-0.1h-0.2l0,0l0,0l0,0l0,0l0,0h-0.2l0,0H153l0,0l0,0h-0.1h-0.1h-0.1
		l0,0h0H152l0,0h-0.5l0,0h-0.3l0,0H151l-0.8-0.2l0,0l0,0l0,0H150l-0.2-0.1h-0.1l0,0l-0.3-0.1l0,0l-1.8-0.6h-0.1l0,0l0,0l0,0h-0.2
		l0,0h-0.1h0l0,0H147l0.1-0.1h0l1.2-1.2l3.3-1.7l0.6-0.3l0.8-1.3h1.6l1.2,0.4l0.6,0.4l1,0.8l1,0.7l0.9,0.8l0.2,0.2l0.1,0.1l0,0v0.1
		l0.2,1.2"/>
	<path class="st0" d="M78.4,224.6L78.4,224.6l-1-1.1l0.1-0.1L78.4,224.6L78.4,224.6"/>
	<path class="st0" d="M81.6,209.1L81.6,209.1h0.4v0v0.1h-0.5l0,0l-1.3,0.1l0,0h-0.4v0.1h-0.1l0,0l-0.4,0v0.1h-0.2l0-0.3h0.2v0.1h0.4
		v-0.1h0.5l0,0L81.6,209.1"/>
	<path class="st0" d="M82.6,211.1v0.1h-0.2v-0.1H82l-0.3,0.2l0,0l-0.1,0.1h-0.1l0.1-0.1h-0.3l-0.3,0.2l-0.1,0.1h-0.1l0.1-0.1l0,0
		l0.3-0.1v-0.1h0.1l0,0h0.4l0.3-0.2h0.5L82.6,211.1"/>
	<path class="st0" d="M75.4,226.8l0.7,0.4l0,0L75.4,226.8L75.4,226.8l-0.4-0.1l0.1-0.1L75.4,226.8L75.4,226.8"/>
	<path class="st0" d="M77.5,224.4l0.7,0.4l0,0L77.5,224.4l-0.1,0.1l-0.1-0.1l0.1-0.1l0.1-0.1l0.1,0.1L77.5,224.4"/>
	<path class="st0" d="M77.2,225l-0.1,0.1l-0.8-0.5l0.1-0.1L77.2,225"/>
	<path class="st0" d="M81,219.5l0.5,0.3l-0.1,0.2l-0.6-0.4v-0.1l0,0L81,219.5L81,219.5"/>
	<path class="st0" d="M119,152l-0.1,0.2l0.2,0.1l-0.1,0.1l-0.4-0.1l0.1-0.1h0.1L119,152L119,152"/>
	<path class="st0" d="M78.7,224.2v0.1l-0.4-0.3l0.1-0.1L78.7,224.2"/>
	<path class="st0" d="M87.7,185.3l0.2,0.1v0L87.7,185.3l-0.1,0.2l-0.2-0.1l0.2-0.3l0.2,0.1L87.7,185.3"/>
	<path class="st0" d="M83.6,191.4l-0.1,0.1h-0.1v-0.1L83.6,191.4"/>
	<path class="st0" d="M135.9,0.6L135.9,0.6L135.9,0.6v0.1h-0.1L135.9,0.6L135.9,0.6L135.9,0.6L135.9,0.6L135.9,0.6L135.9,0.6
		L135.9,0.6L135.9,0.6"/>
</g>
</svg>
