<svg id="Layer_1" data-name="Layer 1" xmlns="http://www.w3.org/2000/svg" viewBox="0 0 268.02 426.15"><title>manhattan_symbol</title><g id="Map_1:_NYC_Boroughs_Besides_SI" data-name="Map 1: NYC Boroughs Besides SI"><path d="M479.62,42.14l.13.07.13.06,0,0,0,0v.16l0,0,0,0,0,0,0,0-.05,0-.05,0-.06.08-.05.08,0,.08V43l.05.1.06.09.07.08.1.07.11,0,.12,0,.12,0,.13,0h.13l.26,0h.25l.26,0,.25,0,.24-.06.24-.07.23-.08.22-.1.21-.11,0-.07,0-.06.05-.08.06-.07.07-.06h0l.11,0,.16,0,.15,0,.17,0,.2,0H484l.2,0,.19,0,.95.19.34.12.1,0H486l.09,0,.1,0,.09,0h.15L487,43l.25.11.09,0,.07,0,.05,0,.06.06.18.1h0l.07.09.11.06h0l.11,0h.12l0,0,0,0,0,0,0,0h.09l.06,0,.08.05.11,0h.06l.06,0v0h0l0,0,0,0,0,0v0h0v0l0,0,.05,0,.08,0,.1.06,0,0,.13.07v0h.05l0,0h0v.93l0,.46,0,.45-.07.45v.25l0,.12,0,.11-.06.12-.12.26-.11.26-.08.27,0,.27,0,.27,0,.28V49l0,.27.05.28.06.27.1.26.1.27.13.25.15.25.17.25.19.23.2.23.23.21.23.21.26.2.27.18.28.17.3.16.3.14.32.13.33.12h.21l.13,0,.14,0,.15,0h.39v0h.11l.08,0h.11l.08,0,.08,0,.08,0,.07,0,.1,0,.07,0,.06,0,.07,0,0,0,0,0,0,0,.08-.07.07,0h.07l0,0,0,0,0,0,0,0,0,0,.06,0,0-.07.07-.1.07-.07,0-.06,0,0,0,0v-.1l0,0v-.14l0,0v-.09l0,0h.05v0h.27v-.09l-.1,0H495l0,0,0,0v-.1l0,0v-.06l0,0v-.05l0-.06,0,0,0,0h0l-.31-.18,0,0-.06,0,0,0-.1,0,0,0-.07-.05.05,0-.17-.09-.14-.09-.13-.08-.08,0-.08-.07-.06-.06-.11,0-.08-.08-.07-.07,0-.06-.34.13H493l0,0v-.05l.34-.15,0,0,0-.06,0-.06,0-.1h0l0,0,0-.06,0,0,0,0v-.06l0,0,0-.05v0l0,0v0l0,0v0l0,0v0l0,0,0,0v0h0l0,0,0,0V49l0,0,0,0v0l0,0v0h0v0l0,0v0h-.06l0-.06v0l0,0,0,0,0-.08-.05-.06-.06,0-.08-.08-.06-.09,0-.06,0,0,0,0V48h0v-.1h0v0l0,0h0v-.06h0v0l0,0,0,0v0l.06,0,0,0v0l.05-.06,0-.06,0,0,.05,0,0,0,0-.05,0,0,.06,0v0l0,0v0h0l0,0h.05l.16,0,.11.05.09.06.17.08.1,0h.1l.2.1.23.08.21.09.08.09.11,0,.21.09.18.09.18.07h.23l.15,0,.18.11.1.08.09,0h.08l.08.07H496l.27.13.35.14.19,0,.11,0,.08,0,.23.1.13.1.17.07.06.15-.08.14-.14.11-.13.17-.09.06-.07.08-.06.07V50l-.05.08,0,.14-.08.08-.07.1,0,0v.33l0,.2-.1.2v.21l0,.2-.07,0,.08.09h.05l.09,0,.07.11L497,52l.11.14.12.12.17.14,0,0h.12v0h.2l0,0,0,0,0,0h.08l0,0h0v0h0l0,0H498l0,0,0,0v0h.1l0,0,0,0v.06l0,0,.05,0h0l0,0v0h.22l0,0,0,0,0-.09-.08,0-.11-.06-.09,0-.14-.08-.05,0,0-.08v-.08l0-.08,0-.06h.06l0,0,.08,0,.08,0,.06-.06h0l0,0h.06l0,0-.05-.05v-.09l0,0h.06l0,0,.05,0,.06-.06.08,0,.11-.05.12,0,0,0,0,0,0-.07.06,0,0,0h.11v0l0-.08.23-.21h0l.41-.64h0l.46-.7.19.07-.46.7,0,0-.43.64h0l0,.13.34-.28.1,0,.16-.1.12-.09.15-.13.24-.08.25-.08.13,0,.21-.08.16,0,.08-.11.21-.05h.17l.25-.07.23-.08.2-.1.29,0,.12-.06.22,0,.31,0h.28l.19,0h.3l.29,0h.2l.25,0,.42,0,.42,0,.37.09.21.06.83.23,1,.3.06,0,.48.15.22.08.76.16.21.09.36.11.12,0,.11,0L511,51l.12.06.11,0,.13,0h.14l.22,0,.37.07.29.09.26.09.51.22.5.24,1,.53.14.08.15.08.22.13.16.13.13.08.07.07.11.08.09.11h0v0l0,0,0,0,.11.13v.08l0,.06.07.06,0,.07v.06l.06.06,0,.08,0,.07,0,0V54l0,0,.07.08.2.14.16.15.16.21.06.11,0,0v.08l.11.19.08.16.06.14v.06l0,0,0,.08.06.19.06.19,0,.15,0,.08v.08l0,.13,0,.15v.21h0v.05h0v.17l0,0,0,0,0,0,0,.06-.05,0h0l0,0-.06,0,0,.06,0,0,0,0,0,.13,0,0,0,.06,0,0-.07.14v0l0,0,0,0,0,0,0,.05,0,.06,0,.05,0,.07,0,0,.05.07v.07l0,0v0l-.06,0v.06l0,0,0,.09,0,.1,0,.05-.06.11v.1l0,0v.08l0,.11v0l0,.06,0,0v.3l0,0-.05.07v.07l0,.07v.06l-.06.12v.17l0,0v0l0,.09v0h0l0,.07,0,0v0l0,.05v.06h0v0l0,0,0,.06,0,.08h0l0,0,0,.07v.06l.08,0-.06,0,0,0,0,.07,0,0,0,0v0l0,0v0l0,.08,0,.09.06,0-.08.06h-.07l0,0h-.07l0,0-.18-.08-.13,0-.16-.06-.11-.06-.1,0h-.09l-.14.07,0,0,0,0v.1l0,.09.09,0,0,0h0v0l.09,0v.05l.55.24v.08h0l.08,0,.08,0-.06.1-.05.08v.08l0,0v0l-.06,0,0,.08,0,.05,0,0,0,0,0,.06,0,0h0l-.09,0h-.12l-.07,0,0,0-.06.05,0,0v0l0,0v.19l0,0,0,0v.06l0,0,0,0-.06,0,0,.12,0,0-.05,0-.1.16,0,.08v0l0,.12,0,0,0,0h0l0,0-.09.1-.05,0-.06,0-.06,0,0,.05-.1.08,0,.06v.11h0V65l0,0v0l0,0v.07l0,.06,0,0h0l0,0,0,0v.09l0,0,0,0,0,0-.06,0,0,0v.05l-.05.06.15.07-.34.39-.25.32-.31.37-.53.66-.39.47-.28.32.43.19v0l-.67.85-.69.89-.95,1.22-.77,1-.17.24-.05,0-.24.07-.31.1-.2,0-.14,0h-.18l-1.27.1,0,0,.93.37.16.24.14.33-1.5-.62-.07,0h0l-.19,0h-.21l-.42,0v0l0,0h-.05v.12l-.43.06v-.09h-.06l-.12,0h-.11l-.14,0-.1,0-.09,0-.06.07,0,.09V74l0,.07.06.07.07,0h0l.05,0,.1,0H505l.14,0,.12,0,.08,0h.21l.13,0h.25l0,0,0,0,0,0,0,0,0,0h.05l.06.05.06,0,.05.07,0,.12v.51l-.06.07,0,0-.09,0-.1,0,0,0-.08.06,0,0,0,0-.11.2,0,0-.1.16,0,0,0,.11,0,0,0,.06,0,.06,0,0,.08,0h0l.16.07-.16.16.06,0-.15.18-.12.17,0,.06-.11,0,0,0,0,0,0,0,0,0,0,0h0l0,0h0l-.13-.06,0,0,0,0-.06.06-.15.15-.09.09,0,0,0,0h0l-.15.13-.05.05h0l-.36.34-.15.11-.09,0,0,0-.13.1-.27.21,0,0-.06,0-.16.13-.08,0h0l-.08,0-.07,0h0l0,0-.05,0h0l0,0-.15.13h0l0,0v0l0,0,0,0h0l0,0-.13,0-.07,0-.1,0-.4.17-.15.12-.18.17-.1.1-.06,0-.11.14-.08.11-.08.1v.11l-.12.13-.05.07-.05.09,0,0,0,0,0,0,0,0,0,0,0,0-.06,0-.1.1-.07.06-.1.12-.13.12-.06.07,0,0v0l0,.07,0,0v.07l0,0-.05.08v0h0v0l-.06.06v0l-.05,0v0l.09,0-.1.13-.06,0-.24.26-.5.52-.4.43.17.06,0,.06,0,.09,0,.09v0l0,.07,0,0V84l0,.07h0l-.06,0,0,0-.07.07-.07,0-.07,0-.05.07v.12l0,.08-.05,0-.06.07,0,0,0,0h0l0,0,0,0-.13.13,0,0-.19.2.06,0-.26.26,0,0-.24.25-.31.33-.23.23-.25.27-.15.15-.09.11-.1.1-.05,0,0,0-.05,0v0l-.62-.26-.65-.28-.46-.18,0,0L494,86l-.13,0,0,0-.06.06h0l0,0,.32.14.14.06.06,0,.08,0,0,0,.25.1.06,0,.27.12.05,0,.06,0,.15,0,.18.1v0l-.16-.08-.17-.07-.11,0-.27-.11-1-.42.11-.12,0,0v0l-.17-.07v0l-.27-.11h-.08l0-.07-.06-.08v-.06l-.13-.11-.16-.3,0,0-.34-.53-.25-.42-.31-.39-.16-.21-.12-.06h-.11l-.07,0-.08,0-.07,0-.14.08h0l-.06.06h0l-.08.06-.11.26-.06.18-.07.12,0,.18,0,.12,0,0,0,.06h-.06v.06l0,0h.09l0,.06h0l0,0v0h.05v0h-.1l-.1,0,0,0h-.08l0,0h0l0,0h-.08v0h0v0h0v.08l0,0,.06,0h0v0h0v0l0,0v.06l.06.06h0l0,0h0v0h-.1l0,0,0,0-.07,0,0,0,.09,0,0,0h-.07v.06l0,0v0l0,.07,0,.1v0l0,0,.09,0,0,0,0,0,.05,0,.1,0h.09l0,0,0,0h0l0,0,0,0,.05,0h.11l0,0,.06,0,.05,0h0l0,0,.06,0,.05,0,.05,0,0,0h.05l.06,0,0,0h0l0,0,0,0h-.05l-.07,0-.06,0h0l0,0,.09,0h.05l.08,0,.05.06,0,.07v.05l0,0,0,0,0,.06,0,0,0,0H492l.05.06,0,0h.09l.07.06v0l0,0,0,0h0v0h0l-.07.1,0,.1,0,.06h.07l0,0,0,0v0l0,.05,0,.07,0,0,.05,0h-.05l0,0h.06l.16,0,0,0h.11l0,.07,0,.09-.06.23-.48,1.36-.19.06-.19.25-.15,0-.08,0-.14.05-.14,0-.09.06-.07.08,0,.06,0,.07v0l.05.14v.15l-.08.06L491,91l-.07,0,0,0-.09,0-.1,0-.13,0h-.15l-.06,0,0,0,0,0-.06.05-.06.06-.18.13-.07.18-.2,0,0,.07.06,0h.08l-.13.13-.13.06-.06.06-.11,0-.1,0-.1.05v.73l.06.06-.07.09v.56l.07.71h0v0l0,0h0l.31-.4,0,0h.07l.2-.29h0l.3-.42.19-.27h0l.17-.24,0,0,.17-.24h0l.17-.25.43.17-.18.25h0l-.18.24h0l-.17.23-.15-.06-.49.69,0,0-.2.29h-.07l-.07.09-.08.13,0,0,0,.11,0,.06,0,0,0,0h0l0,0,0,0-.29.35-.64.78-.36.45-.19.25-.55.7-.67.87-.45.59-1,1.28-1,1.42-.55.79-.72,1-.12.11,0,.07-.1.12-.08.12-.09.13,0,0,0,0-.11.16-.14.21-.05.1-.12.16-.18.28-.16.22-.1.13,0,.07-.22.35-.06.07-.17.27,0,.07-.23.35-.06.06,0,.09-.32.47-.49.73,0,.07-.56.81-.53.73-.49.67-.46.67-.33.48-.35.49-.29.43-.31.45-.76,1.1-.39.56-.19.26-.41.59-.07.12-.08.12-.09.12-.07.1-1.82,2.58-.09.14-.13.19-.11.17-.46.64-.13.2-.11.14-.11.18-.11.18-.13.22-.13.22-.16.29-.13.26-.13.25-.12.25-.18.4-.12.28-.1.29-.19.51-.13.35-.11.3-.11.3-.06.13,0,.09-.11.31-.12.29-.05.14-.07.2-.11.31,0,0,0,.06,0,.12-.2.42-.19.33-.59,1.12-.32.57-.41.72-.72,1.31-.78,1.38-1.51,2.69-.39.8-.33.58-.16.29-.23.4-.22.39-.14.27-.12.2-.15.29-.26.45-.32.49-.32.57-.25.47-.21.4-.23.46-.2.45-.07.15-.12.28-.21.52,0,.06,0,.05,0,.06-.05.07-.08,0h-.11l0,0v0l0,.05,0,0v.07l0,0-.1,0h-.06l-.05,0v0l0,0-.08.06v.07l-.08.06-.06,0-.05.06v.07l-.06.12v.18l0,.07-.08,0-.06,0-.05,0-.06.19-.05.06,0,.35,0,.13,0,.34-.05.23,0,.09.09.1v.06l0,.06v.07h0v0l-.05,0-.09.49v.34l0,.09L459,146v.09l0,0,0,.36v.07l0,.06,0,.56v.17l0,0,0,0v.11l0,0v0l0,0,0,.07v0l0,0,0,0v0l0,0v.27h0v.05l0,0v0l0,.06v.09h0l0,0-.05,0v.06l0,.4.06.76h0l.08,1h0l0,.2,0,.37.07.54.42,3.37.08.59.08,0v0h0v0l0,0,0,0,0,.05v.1l.05.05v.06l0,0,0,.06,0,0v.06l0,.07,0,.13v.06l0,0,0,.14,0,0,0,0,0,.31-.05,0h-.06l0,.07h0v0h0l0,0v.12l0,0v.15l0,.08v.07h0l.05.51h0v.06h0l0,0v.13l0,.06V159l0,.07v.06l0,0,0,0,0,.05v.1l0,.1,0,0,0,0v0l0,0,0,0v.09h.05l0,.11,0,.16V160l0,.14,0,.15h0l0,.12,0,.2v.09l.22,1.63h-.14l0,.47.09.89.14,1.52h0l.07,1.4.07,1.39v.36l.05.14.06.64.07.88.12,1.71.05.12v0l0,.52,0,.36v.3l0,.76V174l0,.26,0,.45,0,.21V175l0,.32.06.91v.1l0,.43,0,.32.05,1v.14l0,.8v.08l0,.57.34,0v.86l.06,2.39v2.85l0,1.52,0,2.2h-.28v.05l0,0v0l0,0v0l0,0v0l.05,0,0,.07,0,.07,0,0v0l0,0,0,.06v.12l0,.07v.07l0,.08v.11l0,.07v.21l0,.22v.08l0,0v.05l0,.06v.06l0,.09,0,0,0,0,0,0,0,.05,0,0v.18l0,.07,0,.09,0,.08-.06.11h.37v1l-.14,1.7-.12,1.27-.07.48-.07.64-.13.89-.1.6-.14.76-.21,1.36,0,.81,0,.38-.06.93v.87l.29,1.2.05.06.14.7,0,.19,1.32,2.51.56.67.16.2.18.19,0,0,.21.29.36.37.72.75.57.61,2,2.14.11.11.05.05,0,0,0,0,.05,0,.05.09,0,0,.21.24.08.1.26.29.08.11,0,0,0,.05,0,.09.1.12v0l.13.16v0l0,.05.06.08.06.08.19.26.05.08.21.28,0,0,0,0,0,0,.12.15,0,0,.05.06.09.13v0l.07.08.23.32.09.13.13.17.05.07,0,.08.08.12,0,.07.17.29,0,0,.29.5.12.18.09.22h0l-.16.2.08.16.07.13.17.29,0,.08.24.4.23.52.27.62.13.3.17.35,0,.11.19.45.06.17.07.25.06.29.16.54.21.08.2.07,0,.27v.33l0,.14,0,.14,0,.26.07.7,0,.33.09.75-.05.94-.06,1.3-.06,1.55-.15,3.55-.05.17-.53,2-.07.11-.53.71-.36.51-.15.21-.3.41.07,0,0,0,.1,0-.06.08-.13,0,0,0h0l0,.07,0,0-.35.49-.09,0-.21.29-.53.29-1.65.89-.75.4-.54.3-.32.17-.2.11-.32.18-.16.1-.65.36-.37.19-.07,0-.32.16-.49.28-.55.32-.32.2-.07,0-.5.3-.58.41-.38.27-.43.31-.48.33-.17.12-.4.28-.54.35-.75.51-.13.09-.15.11-.23.18h0l.17.13-.65.49-.17-.13-.7.53-.45.63-.71,1-.89,1.22-.87,1.18,0,0-.07.1,0,0,.14.06,2.08.89,0,0v0l-.22.3h-.06l-2.15-.88-.19.41-.4.89,0,.09-.32.71-.2.45-.13.29,0,0-.11.25-.07.17-.11.22-.31.5v0l0,0,0,.06-.35.59,0,0-.14.17-.12.13-.7.79-1.73,1.95-1.33,1.5h0l0,0-.07,0,0,0-.05,0,0,0-.06,0-.08,0,0,0h0l-.06,0,0,0-.12.06-.09,0-.08.05,0,0-.06,0,0,0-.07,0-.22.12-.22.11-.19.11,0,0-.07,0h0l-.08,0-.12.07-.11.05h0l-.06,0,0,0-.06,0-.1.05-.46.22-.14.06-.06,0-.07,0-.08,0-.65.32-.19.1-.35.18-.43.22-.38.2-.39.2-.32.17-.18.1-.11,0-.08.05-.24.17-.08.06-.16.11-.26.18-.21.14-.16.11-.19.14-.23.16-.11.08-.11.1-.08.1-.07.1-.1.13-.09.12-.11.17-.11.15-.26.34,0,.06-.25.53-.55,2.67,0,.61.37,1.53.27,1.12.39.94,2.31-.64h.17l0,0,0,0h0v0l.58,1.22v.11h0v0l0,0h0l-1.4.34,0,.12v.12l0,.11,0,.12-.06.11-.08.1-.1.09-.11.08-.13.06-.13.06.82,1.73.47,1.7.38.18,0,0-.09-.25-.11,0-.22-.72h.07v0h.15v0h.07l.22.71-.1,0,.1.3,0,0,.32.15-.15.22-.3-.13,0-.06-.34-.14,0,0,.21.1-.11.18.14,0,.12.05.12.06.1.08.09.08.07.09.06.1,0,.1.17,1.74-.19.54-.76.55-.44,1.21-.81,1.29-1,1.1-.77.88-.7.74-1,1-1.23,1.28L434,293.22l-1.88,1.6-1.19,1.27-1.39,1.47-1.42,1.53-1.37,1.46-1,1.38-.68.94-.49.6-1.17,1.44L422,306.44l-1.33,1.44-1.28,1.45-1.3,1.45-2.51,2.82-2.5,2.81-3.13,2.75-.32.29-1,.94-.06.05-1.53,1.4-.81.73-.67.59-.09.09-.87.79-.6.53-.25.21-.05.05-.1.09-.07.05-.09.08-.12.12-.56.53-.69.79-.24.18,0,0-1.13,1.42v.11l-.89,1.16-.78,1.08-.69.82-.33.28h0l-.55.47-1.43,1.08-1.2,1.38-.14.16-.09,0-1.08,1.23-.5.57.06,0-.69.79-1.37,1.49-2.31,2.53-.56.61-.9,1L381,350.18l-.49.58-.13.14-.15.18-.31.38.32.15-.15.17v.05h0l0,.05,0,0,0,.06-.09.12-.07.09-.08.08,0,.05-.06.07,0,0-.05.07,0,0-.11.11v0l0,0,0,0v0l-.06,0-.06.08v0l-.05.07,0,0,0,0-.1.11-.45.53-.05,0h0l0,.06h0v0l0,0v0l-.13.14-.13.17-.2.23-.05.05,0,0v0l-.18.22h0l0,0-.1.13,0,0v0l0,0,0,.05-.07.07-.14.18-.07.07-.11.14-.07.08h0l-.14.18v0l-.42.5-.08,0h0l-.05,0v0l-.11-.06-.17.22-.11.12-.09.11-.2.25-.3.36,0,0v0l-.13.17-.15.19,0,0h0l-.08.11-.15.21-.13.18-.39.6-.17-.07,0,0h0l0,0h0l0,0h0l0,0-.1.15-.08.12-.24.37.79.37h0l.05,0,0,0,.07,0,0,0v0l-.05.06,0,.05h0l0,0-.07,0h0l-.09,0h0l-.09,0-.2-.09h0l-.5-.2h0l-.06.08-.16.24-.19.3.29.13.07,0-.18.28-.18.27-.33.48-.34.52-.1.15-.5.78.3.13.06,0-.09.11-.44.66-.21,1.07-.05.24-.07.39-.12.56-.11.58-.21,1v0l.18,0h.07l0,0v0h0l-.12.58,0,0h0v0h.09l-.05.23-.12,0h0l0,0v0l-.12.61,0,0-.05,0-.25,0-.52,1.9v.39l0,.1v.41l0,.13v.78l0,.15h0v0l0,0v.35h0v.45l0,.21,0,.06v0l0,.18,0,.06,0,.31,0,2.13v.29l.05.44,0,0,.17,1.53,0,0-.86,0-3.67-1.52-.11.28.11,0v0h0l.88.38,0,.06-.91-.38h0l-.09,0-.09.51h.07l.08,0h0l.69.23,0,.06-.71-.24h0l-.07,0h-.06l0,.35,0,.23.05-.19.09,0,0,.09.5.08v0l0,0-.5-.08v0h0l0,.15v.14h.65v.05h.07l0,0,.13.07h0l1.6.66-.05.06.38.17.53.22.59-.82-.31-.18,0,0,.4.24-.56.76.08,0,.07-.08.12.06.05-.08.06,0-.26.32-.05,0,.05-.07-.12-.05.06-.07-.07,0-.08.11-.63-.27-.05.09v0l0,0,.05.07,0,.07,0,.1,0,.09-.08.07-.09,0-.12,0h-.1l-.15,0-.05.08-2.13-.89,0,.2,0,.13.05.21,0,.14.05.21.09.33.1.41,0,.15.1.39.07.25,0,.14,0,.18.11.41.1.43.1.35.07.26.07.32,0,0,0,.09.07,0V385l0,0h.05v0l0,0,0,0-.05,0,0,.07h0l0,0,.05,0H367l.06.06,0,0,0,0,.05,0h0l0,0,0,0h0l0,0-.05,0v.05h-.06l0,0,0,0h-.05l-.05,0H367l0,.05h-.05l-.08,0v.07l.23.9.22.9.07.32.05.16.05.15.16.66,0,.18.26,1,.08.11,0,0,.06.08.06.06.08.11.11.13.09.1.13.13.11.11.11.12.11.1.2.17.21.17.21.17.24.2.2.16.19.13.05,0,.3.21.22.16h0l.35.25.08.08.1.1.12.1.14.17.11.13.06.07.2.25h0l.11.17.17.25.12.22.14.28,0,.06.06.18.06.19,0,.17,0,.08,0,.16,0,.28,0,.2v.18l0,.36,0,.19-.06.35v.05l0,.26-.09.49-.11.71,0,0v.12h0l-.07,0h-.07L372,399l.23,0h.12l0,0,0,0h0v.06l-.32,1.72-.11.56-.06.35-.05.29,0,.29-.07.39v0l-.05,0h-.06l-.1.55,0,.19,0,.19-.06.31-.05.28,0,0-.05.28-.1.47-.08.37-.07.3v.05l0,.1V406l0,.1-.14.61,0,.09-.12.48,0,.19-.07.32-.14.6-.09.35-.09.39-.26,1.08-.91,3.82-.23,1-.24,1-.26,1-.28,1-.3,1-.31,1-.4,1.19-.42,1.19-.43,1.19-.46,1.18-.47,1.18-.49,1.17-.5,1.18-.53,1.16,0,.1,0,.07-.06.11-.06.13,0,.06-.05.11h0l-1.32,2.85,0,0-.41.9-.19.45-.18.34-.1.09-.34.72-.28.5-.19.26-.1.15-.39.47-.25.28-.41.39-.16.14-.39.3-.72.54-.46.31-.24.16-.19.11-.23.09-.2.07-.24.06-.17,0-.28,0-.58,0-.38,0-1,.07h0l-.2,0-1.78.11-.58,0h-.13l0,.17-.43,0-1.84.13.09.94-4.31.42-1.38.13-2,.2-4.88.47-3.84.36,0,0-.51.05-.14,0-.08-.05,0,0-.33-1.75h-.07l-.07,0-.05,0-.05-.06h-.14l-.24,0-1.09.13-.25,0-.27,0-.4.06-1,.14-.85.13-.65.11-.66.08-.68.08-.83.14-.16,0-.32.07-.32,0-.13,0-.13,0-.51.09-1.16.19-2.11.32-.64,0h-.32l-.56.1-.48.15-1.41.23-1.5.21-.51.07-1.53.21-1.47.23-1.9.52-.48.19-.58.24-.08,0-.38.18-.08,0-.13.06,0,.06-.14.09-.24.1-.17.15-.19.12-.14.08-.16.08-.16.08-.13.09-.09.05-.09.06-.15.08,0,0,.05.06-.11.07h0l-.05-.05-.09-.1L305,446l-.15.07v.08l0,.07,0,.06-.06,0-.34.21-.22.13-.4.21-.36.18-.52.25-.19.09-.07,0-.73.39.14.15-.22.12,0,0h0l.16.17,0,0,0,0h0v0l.46.5-1,.56h0l1.94,1.83-.6.37-1.45.9-1.43-1.28h0l-.14.09-.08.05-1-.39-.28.18.77.68L299,452l.08.07,1,.86v0l-.14.09-.34.21h0l-.35-.34h0L299,453h0l-.14-.12v0l.22-.14h0l-2.22-2-.62.4-.12.07,0,0-.44.28.4.37.19-.11.07.07-.18.1,2.38,2.14-.57.35-2.82-2.55-.68.44-.58.39-.61.38-.19.12-.63.4-.06,0-.11.08-.22.15-.74.49-.54.34-.31.21-.29-.26-.47.31-.22.14-.39.25.66.53h0l0,0,.93.83,0,0,0,0,.78.7.17.16-.1.07.05.05.08-.06.09.07h0l.29.25-.45.3h0l-.26-.23,0,0v0l0,0v0h0v-.07l.13-.07-.05-.05-.28.19-.73-.65-.26-.22-.35-.31-.3-.25-.23-.2-.08-.07-.13-.16h0l-.47-.42-.07-.07-.5.31-.53.33-.71.42,0,0-.19.29-.09.15-.13.19-.61.37-1,.59-1.78,1.1-.08,0-.35.11,1.4,1.87,2.25-1,.39.53-2.25,1,.45.59-.65.28-2.29-3-3.49.91h-.3l.17.42-.43.06.19.49.19-.05.12.26,0,.1-.1,0,0,.08v0h0l.06.09v0l.05.1,0,0,0,0,0,0h0l0,.05,0,0v0h0l.05.07,0,0,.07.14h0l0,0v0l-.06,0,.07.13,0,0,0,.08,0,0,.28.52,0,.06,0,0-.09-.1-.19-.42-.17-.39-.1-.24-.07-.16-.07-.14-.07-.14,0-.07-.49.11.13.48v.12l0,0-.06,0h-.11l0-.05-.09-.2-.09-.18-.08-.16-.53.11.07.12,0,.06,0,.14.08.19.05.15v0l0,0H277l-.06,0h-.06l-.06-.13-.06-.1-.11-.22,0-.05,0-.1v0l-.33.08-.22,0v0l0,.16.07.17.15.35.17.36.11.29-.17.13-.08,0-.18,0L276,464l-.09-.14-.07-.16,0,0-.15-.21,0-.11-.15-.29-.11-.21-.07-.1-.48.11v.15l.08.36.07.25,0,.16v.09l-.07,0-.17.06h-.08l-.07-.08-.13-.17-.15-.19-.09-.13-.08-.13,0-.08-.06-.13v-.06l-.22,0-.25,0v.35l0,.32,0,.29.13.52,0,.15,0,.06-.06.05h-.16l-.07-.07,0-.1,0-.2,0-.21,0-.2,0-.33,0-.08,0-.14-.12-.39-.51,0v.51l-.05.2-.07.16-.13.07h-.05l-.16-.1,0,0,.05-.06.07-.2.1,0,0-.15h.07v0h-.08v-.13l.07,0v0h-.07v-.14h.08v0h-.13V463h.07l-.05-.34h.15l-.11-.69-.93-.12-.34,1,0,.1h0l-.08.28h0l0,.18-.06.14-.11.36-.22,0v0l.32-1h0l0-.09-.33-.16,0,0h0l-.05,0h0l-.12.15-.19.24-.27.33,0,0,0,0v.06l-.12.2-.09,0v-.07h0l.1-.15v0l.13-.14.14-.15v0h0l.17-.21,0,0h0l.17-.22-.76-.37-.19.24-.11.12-.1.13-.11.13-.17.18-.16.18-.17.2-.07,0,.15-.21h0l0,0h0l.06-.06,0,0,.07,0v0l.05,0v0h0l0,0h0l.14-.14.15-.19.22-.27.06-.06.07-.08-.33-.16,0,0-.46-.24-.28.36-1.28-1-.27-.22-.28-.27-.49-.4-.05,0-.25-.25-.35-.35-.29-.28,0-.05-.68-.71-.18-.2-.26-.32-.31-.37h0l-.26-.3h0l0,0-.09-.1-.06-.07-.19-.24-.1-.14-.13-.18-.11-.2-.08-.17-.05-.12,0-.15h0l-.06-.17,0-.13,0-.1-.24,0v.09l-.26,0,0-.11v-.1l.27,0v.08l.24,0,0-.25h0V455l0-.15,0-.08,0-.13,0,0v0l0,0h0l.14-.38-.53-.12-.15.37.25.06-.1.24-.06,0-.05-.06.07-.17-.24-.05-.08.19h0l.27-.64-1.43.19-.51-.63,2.72-.36.08-.21h-.12l0,0h0l-.08,0-.08,0h-.1l0,0-.07,0,0,0h-.08v0l0,0h-.13l-.15,0,0,0h-.07v0h-.06l0,0,0,0h0l0,0,0,0,0,.05h-.06l-.11.19-1.78-.39-.06,0-.09-.11-1-3.08v-.06l.28-1.14.24-.95.05-.06h0l.06,0h.08l.19,0,0,0,0,0,0,0,0,0,.06-.05.06,0,.07,0,.08,0,.08,0h.31l.12,0,.08,0-.06.07-.09,0h-.08v.06h-.27l0,.06h-.06l-.05,0-.06,0-.05,0,0,0v0h.09l0,0,0,0,.08,0h.27l0,0,0,0v0l0,0,0,0,0,0v0l0,0h0l0,0v-.07l.29-.73.45-1.15v0l.07-.16-1.11-.25,0-.05-.36-.08-.08,0h0l0-.05V445l.25-1,.28-1.09.38-1.54.31-1.23.18-.72.28-1.14.08-.33.16-.75.16-1,.13-.67.12-.66.24-1.23,0,0h.08v.15l-.19,1,2.8.45.19-.71-.12-.22-.06-.24v-.26l.06-.25.09-.16,0-.06.16-.17.2-.17.17-.73-.53-.08-.87-.14-1.59-.23-.18,1,0,.22h-.13l0-.24.21-1.15.2-1,.3-1.69.06-.32h0l.14-.73.15-.8.34-1.86.32-1.8.29-1.56.36-2,0-.06.08,0h.07l1.63.22v0l.66.09v0l.29,0,1.3.17v-.06l0-.08v0l0,0,.06,0,.57.07,3.54.47.35-1.43,0-.05.1-.45.05-.21.13-.64v0l.11-.56-1.29-.15.09-.52-1.38-.16v0l-.63-.06v0l-3.11-.37v0l-.33,0v-.08l-1.58-.17.17-.83,4.3.5,2.32.28,1.24.15.24-1.27-6.65-.8.18-.8,5.85.68.1-.52-.33,0,0,.05-.88-.11,0-.16h.13v0l.73.07v0l.35.05,0-.11,1.34.12.11-.66.29-1.44.33-1.59.33-1.54.31-1.48.36-1.78.37-1.88h0l-.73-.25-.85-.13-4.27-.44-1.58-.15-.91-.09-.1-.1,0-.21,0-.31.06-.31.05-.2,1.94.21,2.12.2,2.54.24,1.91.17.38-4.23-7.15-.55.11-.38L271,394l.34-2.66,0-.05.12-.07,0,0,6.78.55.18-1.9,0-.48.18-2.06.13-1.63-1.24-.05-6-.1V385l7.36.08v-.13H279l.06,0,.05,0,.05,0,0,0,0-.05,0-.05v-.14l0-.05,0,0,0,0-.06-.05-.07,0-.08,0,.08-1-2.82-.13,0-.65,2.82.13.06-.63.19-1.94.16-1.63-.08,0v-.1l0,0,0,0,0,0,0,0v-.14l0,0,0,0,0,0,0,0,.05,0v-.11h.08l.12-1.49.13-1.48.09-1.12-1.45-.06.05-.5-.05,0,0,0,0-.05,0,0v-.05h.2v0l1.42.07.06-.8.08-1.12h-.25l-.13,0-.46,0-1.52-.09-.23-.11h-.25v-.5l-.11-.06,0-.13h.17l.07-.76,0-.23.12-1.45-1.65-.05v-.17l-1.2-.05v-.12h.2v0l2.61.11.24-.09,1.56.1,2.58.09.32-.19v0l-.06-.07v-.08l0-.06.09-.17.12-.6.16-.84.16-.88.2-1,.1-.48.14-.93-.35,0v0l-.9-.1.12-.73h0l-6-.6,0,0,0-.06.14-.8,0-.06.11-.05h.11l5.85.62.06,0,.12-.66h.1l.84.08.34,0,.23-1.24.18-1v-.05l-.5-.07-1.5-.2h-.09l.12-.69-.85-.09,0,0v.12l0,.1,0,.11,0,.12V357l0,.11,0,.1,0,.12,0,0,.27,0v0l-.7-.06v-.05l.27,0,0,0,0-.19,0-.13,0-.08,0-.12v-.09l0-.12,0-.07v0l0,0-1.14-.12-.05,0v.05l0,.07v.09l0,.12,0,.12,0,.09v0l-.05.28,0,0,.27,0v0l-.82-.07v0l.36,0,.05,0,0-.28,0-.07,0-.2,0-.17,0-.1v0l0,0-1.33-.13,0,0,0,.14v.08l0,.13,0,.1,0,.17v.07l0,.16,0,0,.27,0v0l-.81-.07v0l.37,0,.05-.23v-.06l0-.2,0-.09,0-.16,0-.15,0,0-1.36-.14-.13.87,0,.05H277v0l-.4,0,.15-.95v-.13l0-.05.15-.81,0-.05.08,0h.1l2.57.26v-.08l1,.11v0l.43.06v0l1.15.11,0-.16,0-.14,0-.09,0-.15v-.08l0-.16,0-.08,0-.15,0-.08v-.12l0-.18-5.16-.55-.08,0-.06-.05v-.06l.13-.81.05,0h.16l5.23.53.25-1.42-1-.1v0h0v0h0v.08l-1-.09v-.08h.13v-.08l-3.46-.36-.09-.05,0,0,.14-.83,0-.05.07,0H278l5.24.54.27-1.49h-.08v0l-.22,0v0l-.81-.08v0l-.25,0V349l-3.92-.4-.06,0-.05-.05v-.05l.15-.78,0,0,.06,0h.07l2.69.28.92-2.46.73,0,.35-.91-3.73-1.55.26-.71,3.72,1.6.7-1.85-.06-.1.15-.38.11-.06.21-.55-.54-.15-.9-.36,0,0,.9.36.23.06,0,0-.78-.29,0,0-.19-.08h0l-.14-.05h0l.11-.17.15.06,0,0,.19.07,0,0,.58.24.19.08,0,0-.2-.07-1.61-.67,0,0,2,.84.12-.33-.93-.39,0-.06-.09,0,0,0-2.41-1,.05-.05-.1,0,0,.05-.2-.08.16-.23-.12-.05.13-.17.31.13-.24.32.12.05,0,0,2.37,1v0l.1,0,.25-.34.8.34.81-2.15.26-.68.39-1,.28-.74-.3-.13.36-.46.29.13.42-.59,0,0-.31-.13.34-.47.3.13.44-.59.36-.5.25-.34.3-.41.88-1.22.24-.34.33-.47.1-.14.27-.41.93-1.26.49.21,1-1.37-.39-.18-.74-.34.59-.78-4.59-1.91-.07,0,0-.07v-.07l1.13-1.53.05,0h.15l.31.11,4.3,1.8.71-1,.71.3.24-.32-.65-.28-.4-.17.11-.14.13-.18-.23-.12,0,0-.14-.08.12-.12.14.09,0,0,.22.13,0-.08,1.06.45.23-.34-.85-.37.24-.31.57-.76.48-.66.6-.83.82.36,1.08-1.46L294,315.68l0,0v0l.25-.33.06,0h.06l5.22,2.24,1-1.34.61-.84-5.28-2.22.34-.47,5.29,2.21,1-1.36-5.17-2.17.48-.67-.27-.12-.17,0-.07.09-.14-.06.16-.22,0,0h.13l4.82,2,.79.32,1.91.82.68-.38,0,0,.25-.35.17-.24,0,0,.67-.9-7.42-3.14,0-.09.55-.75.07,0,6.71,2.83.22.09.53.22.74-1-.06-.18-.08,0-.08,0-.05-.08,0-.09,0-.08.05-.07.08,0,.11,0,.25-.05.1,0,.09-.08.1-.17.16-.24.05-.07,0,0-7.75-3.27L301,305l0,0,.4-.55.07-.05h.12l.05,0,7.45,3.2,0,0,.2.08.82-1.14.81-1.12-7.72-3.28,0,0V302l.46-.62.09,0,.08,0,7.67,3.27.81-1.12.85-1.18-7.77-3.27,0-.08.43-.58.09,0H306l5.7,2.45.11-.15-.3-.12.34-.43.28.11.76-1.05-5.83-2.47.62-.86,5.82,2.44,1-1.43-.32-.13.27-.38.32.14.81-1.13-.78-.31.11-.15-.21-.14-.05.06-.23-.09,0,.05-.18-.08.24-.34h0l.09-.12.15.05-.08.13.23.1-.05.06.29.07v0l.76.34.43-.61.32,0h.07l.06,0,0,0v-.07l-.2-.22.07-.09v0l-5-2.1.47-.66,5,2.11.78-1.06-2.4-1-1.84-.77.26-.35,4.23,1.78h.22l.2.09.79-1.06-.13-.05h0l-.17,0L319,291l-.26-.1,0,.05-.39-.16.05,0-.23-.11.14-.2.06-.08-1.73-.77-.12.16,0,.06.18.07-.09.14-2.82-1.17.1-.15.21.09h0l.11-.17-.15-.06h0l.06-.08,0,0-.15-.06.2-.24.11,0,1.13.47,3.89,1.65.17-.22.1-.27.13-.24.16-.18.19-.17.22-.2.2-.13.08-.08.12-.29,1.75-2.49.11,0,.12-.11.13-.05.16,0,.33-.24.49-.9-.16,0-.24.06-.24,0-.08-.08-.06-.14.71-1,.17-.21,1.4-1.92,1.19-1.63.47,0,.79-.06.7-1,1.08-1.5,1.06-1.48h0l.06-.09.22-.28.51-.68v-.05l-.82,0-.14-.06-.31,0-.22,0-.23.07-.2,0-.17,0-.21,0-.25,0-.22,0-.24,0-.2,0-.27,0h-.4l-.28,0h-.29l-.3.06-.21,0-.23,0-.24,0h-.2l0,.05-.09,0h-.07l-.09.1-.45,0,.31-.43,6-.29-.13-.19,0-.24,0-.09v-.06l0-.25,1.28-1.79.35-.6,0,0,.16-.33,0,0,0-.05.21-.44-.14,0,0-.11.14,0,.14-.33.1-.15.1-.14,3.33-4.81.53-.76.33-.48,1.18-1.67.36-.52-1.68-1.68-.68.36-1.46,1.73-.11-.05,1.47-1.76.79-.41.09-.27h.14l.1,0-.17.41,1.59,1.53.83-1.21-.28-.11.07-.11-.11,0-.09.13h0l0,0-.08,0,.1-.13-1.05-.44-.08.11-.12-.05.2-.27.11,0-.08.12.13.05,1,.41v0l.12,0,.07-.09.27.11.19-.28.67-1-2.59-.08-.35.34-.12-.06v-.08l.32-.31,1.61.07h1.23l2.19-3.16,3.21-4.6,1.09-1.58L349,247.4l.25-.35.81-1.17,1-1.4.25-.32.72-.95.2-.29,1.8-2.53,2.38-3.34,1.17-1.66,2.24-3.2,1.08-1.53.27-.38,1.08-1.56.11-.15,0-.13.07-.12.52-.64.65-1,.44-.61.29-.43.29-.44.42-.61.42-.58.82-1.09.48-.7.09-.19.3-.37.13-.29.26-.31.16-.14.42-.65.39-.47.18-.35.13-.19.09,0,.27-.42.13-.17v-.08l.75-1.05.91-1.24.29-.5.23-.21.32-.24,0-.16.21-.35.22-.26,0-.13.4-.56.36-.46.44-.63,1.53-2,.59-.74.79-1,.26-.38.51-.64,1.06-1.45.05-.06.41-.47.16-.29.45-.5.25-.26,0-.18.19-.41.09-.18.44-.64.21-.24.08-.1,0-.09.41-.61.18-.24v-.1l.2-.29.17-.16,0-.13.09-.15.12-.08v-.11l.18-.33.33-.6.65-.86.21-.32.09-.07.19-.33.1-.2.31-.5.28-.41.25-.31.32-.44.27-.4.29-.42.12-.11.53-.8.22-.31.31-.4.41-.59h0l.34-.46.56-.8,0-.1,1.83-2.84.44-.61,1.75-2.17.66-.64.1-.12.87-.86,1.63-1.71.37-.41,1.33-1.51.88-1,1.19-1.34,1.06-1.21.44.21,1-1.33.15-.21.1-.12.36-.41-.18-.1-.13-.06-.09.11-.3-.15.67-.76.27.14-.48.56.13.06.21.11.65-.74-.3-.13.21-.25.26-.31-.52-1.35-.09-.08-.26-.11-.28.4-1.62-.68.73-1,1.61.67-.29.41.31.13.12.08.07.11.44,1.16,0,0,.28.14.78-1,.07-.42.09-.17.13-.19.33-.39-.69-.27.05-.08.15-.23-2.42-1-.05,0-.61-.24-.06,0,0,0,0,0h0l-.06-.06v-.06h0l0-.09-.06,0,1-1.48.3-.45.05,0,3.7-5.59.42-.64.74.28,1.5-2.24.28.1h0l-.05.06,2.82,1.09.81-1.2.37.14.18-.27h0L413,160l.19-.26.21-.29.13-.16.11-.13.08-.08.18-.16.07-.07,0,0,.08-.1.07-.09.87-1.22,1.46-2.36,1.88-2.82.64-.81.25-.49.36-.36.25-.38.56-.82.3-.38.1-.34.23-.33,0-.24.07-.28.13-.34.21-.35.14-.19.19-.19.11-.14.27-.33.13-.23.07-.14.08-.23.08-.1.18-.2.13-.21.17-.11.77-2.33.22-.49,0-.07.1-.26v-.18l.06-.17.05-.2,0-.15v-.44l.08-.19,0-.07.06,0,.05-.18,0-.42.09-.29.08-.14.13-.1.16,0h.14l.09,0h0l-.18,0-.15,0h0l-.13-.06-.1-.15.86-2.34.06-.16.35-1.17.18-.52.22-.55.19-.35.24-.66.23-.63.15-.24.16-.46.23-.33.14-.16.1-.12.37-.83.26-.45.25-.57.24-.55.12-.33.25-.34.11-.29.16-.4.26-.58.25-.26.16-.12.1-.13.08-.24,0-.06,0-.06.35-.55.06-.19.16-.2.19-.26.08-.18.1-.13.23-.18.16-.24.21-.32.22-.47.13-.25.15-.27.12-.19.17-.32h0V122l.05-.12v-.1l0-.23v-.07l.06-.16,0-.14.05-.28v-.07l0-.24-.07-.62,0,0v-.07l-.05-.07,0-.21v-.23l-.07-.17,0-.08,0-.07,0-.18.08-.07v-.07l-.08-.16-.06-.27-.11-.28-.07-.11-.31-.35H432l0-.09H432l-.09-.11-.08-.07,0-.08.12-.07h.07l.18-.22v-.2l-.13-.29-.08-.19-.08-.21-.1-.15-.3-.22-.18-.33-.17-.41-.09-.32,0-.37.06-.16.08-.12.12-.22,0-.55.07-.36,0-.14,0-.49v-.31l-.06-.29v-.64l-.07-.4.1-.18,0-.22,0-.1-.1-.11,0-.33,0-.08-.06-.09-.13-.11-.06-.08,0-.1v-.27l-.06-.13,0-.11,0-.08-.15-.33v-.08l0,0V108l-.1-.16.09-.07,0,0h0l-.1-.11v0l0-.05.08,0,.05,0,0,0,0,0-.08,0,0,0,0-.12-.07-.06v-.08l.1-.18v0l0,0,0-.07v0l.08-.16.09-.15.14-.14.13-.15,0,0,.68-.73,0,0,0,0h.22l0,0h0l.08.05,0,.06,0,.05,0,0v.06l0,0,0,0h0l.05,0,.05,0,.07-.11.11,0,.06-.12,0,0v-.13h0l0,0h0l0,0v.05l0,.06,0,0h.05l0,0v-.07l0-.06h0l-.1-.14V105l0,0,.17,0,.2,0,.08,0h.08l.13,0h.18l.1-.07v-.07h.11l.07,0,.09-.07.14-.19h.06l0-.1.09,0,.08-.14h.06l.07,0,0,0,0-.06.16,0,0,0,.07,0h.07l0-.06-.07-.07,0-.06.16,0,.1,0,.21-.13.05-.07.09-.08.07-.07h.11l.13-.06.24-.1h0l.13,0,.05,0v-.2l0,0,.08,0,.11,0,0,0,.18,0,0,.08,0,0v0h.05l.06,0h0l.08,0,.06,0,0,.09.09.07h.1l0-.08.06-.07.11-.09.08,0,0-.11.06-.09.15,0,.14,0,.14,0,.05-.09.08-.19.19-.12.2-.07.46-.07.29-.13,1-.75.08-.06.54-.54.45-.51.32-.25,1-1.15.43-.5.11-.29.22-.28.36-.57.1-.21.09-.16v0l.21-.41.23-.27.11-.35.08-.16.47-.7.08-.13,0-.13.12-.25.25-.24.2-.44.06-.1h.12l.18-.38.31-.46.19-.4.13-.33.14-.3.35-.46.14,0,.16-.23.17-.27.4-.4.23-.13.17-.26.5-.64.09-.17.19-.29.15-.08.26-.35.17-.38.3-.49.61-.77v-.09l.36-.57.15-.15.05-.22.25-.51,1.09-1.07.28-.24.42-.36.07,0v0l-.06,0-.08-.06,0-.13.53-.74.52-.63.1-.34.12-.32.18-.2.37-.27,0,0,0-.09,0-.11.79-1.34L456.9,78l.88-1,1.77-2.37.23-.32.32-.41.44-.55.19-.55.29-.19.1-.15.26-.24.15-.14v-.38l.16-.36.21-.15.17,0,.38-.67.14-.13v-.18l.19-.25.13-.1v-.14l.08-.21.19-.24h.16l.3-.44.13-.31.57-1,.41-.61-.22-.06,0,0-.33-.1.15-.29.46.13,0,.07.14,0,.12-.25h.07l.22-.37.1-.3,0-.41,0-.27V65l0-.07v-.06l.23-1v-.14l0-.07-.13,0v-.07l-.31-.13-.1,0h0l-.09.14v0l-.08.12,0,.05-.08.13,0,0v0h-.06l.25-.42h0l.1-.18.05,0v0h0l.34.13.11,0,0,0,.11,0v-.1l-.06-.07,0-.39-.06-.11-.11-.07-.23,0h-.19l-.08,0v-.15l.14-.2.28-.14.23,0,.25-.4-.67-.26.27-.66.21.05-.22.54.54.22.05-.15.08-.16.05-.09V61.1l0-.14-.07-.14-.2-.15,0-.05,0-.6.2-.67.18-.49,0-.41.28-.89.31-.48.43-.59.32-.51.22-.74.37-.54.37-.79.52-.52.38-.64,1.68-2.81.27-.19,1.29-2.08.34-.62.39-.44,1-.85.62-.61.43-.4.26-.14.17-.08,1-.23,1.5-1.2.69-.69.19-.18.11-.08.16,0,0,0" transform="translate(-258.69 -38.65)" fill="#6073d6" stroke="#0f26a6" stroke-linecap="square" stroke-linejoin="bevel" stroke-width="0.24" fill-rule="evenodd"/><path d="M443,300.1l-1.82,1.29-.69.48-.86,1-1.41,1.59-1,1.32-1.46,2-3.32,3.66-.8.87-.11.13-.49.58-.63.76L428.59,316l-.11.13-.94,1.1-1.08,1.26-.88,1-.67.79-.67.53-.88.66-.59.46-2.2,2.48-.54.35-.54.48-.16.14-.74,1-.2.39-.08.59-.79,1.16-1.38,1.36-.23.23-.12.11-.09.08-.09.08-.14.13-1.64,1.43-2.32,2-.3.05-1.42,1.46-2.68,2.85-.68.58-1.68,1.44-1.64,1.18-.19.1-.82.44v.22l-1.26,1.14L400,344l-1.16.72-1,.84,0,0,0,0,0,0-.06.07-.06.06-.08.05-.05,0-.06,0-.06,0h-.19l-.07,0-.06,0-.05,0-.39.4-.5-.29.36-.37-.05-.05,0,0,0-.05,0-.06v-.09l0,0,0,0,0,0,0,0,0,0,0,0,.57-1.2,1-1.43,1.6-1.49.29-.64.76-1.68.17-.36,1.15-1.52.21.08,1.11-.92,1.85-2.07,1.87-2.1,1-1.15,1.14-1.27.78-.88.15-.3.06-.09.08-.09.07-.09.09-.1.05-.05.25-.29.82-1,2.58-3,.16-.09.14-.21.09-.09.2-.28.11-.05.69-.58-.16-.12.64-.61.34.22,1.17-1.18,1-1,.5-.91.6-1,1.55-1.94.08-.18.49-.45.85-1,.95-1.12,1.83-1.49.28,0,.65-.83,2.64-3.35,2.73-3.2,1.52-2,.15-.08v-.17l.22,0,.12-.06.25-.34.27-.36-.34-.17.15-.25.38.16,0-.07.33,0,.2-.82.16-.22.87-1.24v-.12l.12-.08.27-.16.69-.61.64-.36,1.9-1.66.91-1,.57-.69,1.08-.8,1.79-.65,1.15-.15.76-.57.7-.8.22,0,.25.08.15.2-.41.65-.23.63v1.4l.18,1.39-.07.65-.12.44-.18.41-1.11,1.39-.7,1.18-.24.19-.1.06-1.28.62" transform="translate(-258.69 -38.65)" fill="#6073d6" stroke="#0f26a6" stroke-linecap="square" stroke-linejoin="bevel" stroke-width="0.24" fill-rule="evenodd"/><path d="M491.66,224.54l.48.89.24.5.46.6.62.82.53.58.1.12,2.56,1.17.22.1.19.09.16.07h0l.18.07,2.22.86.18,0,3,1.2.55.41,2.24,1.48,2.42,3.32,1.51,2.74,0,1.61-1.91,2.51-1.31,1.82-.51.4-.39.14-1.87,1.59.32.24-1.65,1.55-.5-.22-.07,0-1.74.7-.68.31-.73.57-.31.25-.06.53.19.12-8,8.84-.24-.13-.47.59-.58,1.73-1,2.91-.51.51-2.24,1.62h0l-.12.16-.14.16-.27.06h0l-.15.09-.4.33-.46.18-.5.05h-.42l-.19-.06h0l-.21-.06H482l-.78.23-3.37,2.33-.45.25-.52.09-.14,0-.22.06-.22.06-.74.16-.93-.21-1.62-.95-2.7-1.59-.78-.43-1-.32-3.84-.71-5.59-.74-.91-.93-1-.75-.41-.55-.21-.65.05-.7.12-.39.19-.31.3-1.07.07-.45.12-.56,6.14-7.2,1-1.11.7-1.28.38.06.32-.34,1.5-1.53,1.51-1.22.26.09,2.25-.92.14-.06.14,0,2.25,1,.3-.06,1.24.34,1.66,0,1.07.06.27.05.34.08.59.09H480l.35-.09.1-.23v-.25l-.05-.16v-.21l.1-.21v-.21l-.09-.21-.07-.14-.09-.32,0-.17v-.23l-.27-.09-.4-.1-.25-.07,0-.07.13-.1.56.05.31.07.52-.07.39,0,.31.08h.11l0-.08-.07-.09h-1.33l-.62-.14-.47,0H479l-.17,0,.09.23.14.09h.15l.17.05.33.26.08.38,0,.61-.19.32-.15.21-.18.1-.33,0h-.08l-.22,0-.27,0h-.18l-.23,0-.12,0h-.18l-.18,0-.15,0-.14.09h-.51l-.31,0-.2,0-.06-.06,0-.07,0-.07,0-.12.56-.61.19-.27.61-.67.11-.06.1-.06.23-.32-1.58-.17-.47-.32-.64-.46-.16-1.26,0-.14v-.15l0-.14,0-.15.07-.14.07-.12,2.16-3,.22-.64.05-.11.34-.78.11-.17.1-.19.07-.18.06-.2,0-.19,0-.2v-.19l0-.77,0-.59v0l-.15-1.09-.21-.66-.19-.52-.16-.34-.4.08,0,.05-.77.18-.09-.19.77-.19,0,.08.39-.1,0-.07-.14,0-.39-.72-.09-1,.51-1.89.82-2.18,0-.12,0-.13.07-.11.11-.11.27-.27-1.31-.58.31-.41.12.05-.25.33,1.2.53.26-.32-.44-.21v0h0l.43.19.09-.1-.44-.19.32-.36-.7-.32,0-.06-.08,0-.3.35-.13,0,.38-.45.9.44,1.49-2.13.14-.21.11-.21.19-.19.49-.35.51-.1,2.18,0,4.1.28,1.13.58.58.29,1.37,1.55" transform="translate(-258.69 -38.65)" fill="#6073d6" stroke="#0f26a6" stroke-linecap="square" stroke-linejoin="bevel" stroke-width="0.24" fill-rule="evenodd"/><path d="M526.55,46.58l-.63,1.66L525.51,50l-.89,1.85L524,53.49l-1.72.53-.6.93-.51.17L521,55l-.09-.15-.1-.12-.07-.08,0,0v-.05l-.09-.11-.08,0,0-.07,0-.13-.08-.09,0-.07v-.07l-.2-.26-.2-.26-.17-.23-.08-.09-.09-.11h0l0-.06-.09,0,0,0,0,0-.09-.08v-.06l-.08,0-.09-.07-.14-.15-.15-.17-.12-.11-.13-.12-.14-.13h0l0,0h0l-.16-.14h0v0l0,0-.2-.15-.19-.17-.21-.14-.15-.1-.19-.13-.16-.1-.13-.09-.24-.17-.1-.06-.16-.08-.17-.08-.19-.1-.1,0-.11-.06-.08,0-.14-.06,0,0h0v0l-.08,0-.41-.18h-.21l-.06,0h-.06v0h0l0,0h0v0h-.07l-.07,0h0l-.07,0h-.09l-.07,0-.05,0-.06,0H514v0h0v0h-.05v0l-.15,0-.13,0-.16,0-.06,0-.09,0v0l0,0v0h-.12v0h0l0,0h0l0,0h0l0,0v0h0v0h-.07l0,0h-.16l0,0h0v0h-.07l0,0v0h-.06l-.08,0-.07,0h-.18l0,0h-.08l0,0h0l0,0,0,0h-.05l-.06,0,0,0h0l0,0v0h0l0,0h-.07l0,0-1.32-.4,0,0h-.05v0h-.06l0,0h-.05l0,0v0h-.15l-.28-.09-.22-.07h-.05l-.46-.13,0-.06L505.88,47h-.12l-.06,0-.07,0,0,0h0l-.06,0h0l-.06,0h0l0,0-.08,0-.13,0-.09,0,0,0h-.16l.1-.11.08-.08,2.05-2.07,5.57-2.93,1.06-.52,1.35-2.14,2.75,0,2,.63,1,.68,1.68,1.36,1.67,1.16,1.46,1.27.27.33.17.22.06.07,0,.11.4,2" transform="translate(-258.69 -38.65)" fill="#6073d6" stroke="#0f26a6" stroke-linecap="square" stroke-linejoin="bevel" stroke-width="0.24" fill-rule="evenodd"/><path d="M486.28,39.11l0,.1,0,.1-.1,0,0-.09h0l.05-.12h0l0-.12.1,0-.05.12,0,0h0" transform="translate(-258.69 -38.65)" fill="#6073d6" stroke="#0f26a6" stroke-linecap="square" stroke-linejoin="bevel" stroke-width="0.24" fill-rule="evenodd"/></g></svg>