<svg id="Layer_1" data-name="Layer 1" xmlns="http://www.w3.org/2000/svg" xmlns:xlink="http://www.w3.org/1999/xlink" viewBox="0 0 206.54 204.94"><defs><pattern id="Polka_Dots" data-name="Polka Dots" width="18" height="18" patternUnits="userSpaceOnUse" viewBox="0 0 18 18"><rect width="18" height="18" fill="none"/><circle cx="18" cy="13.5" r="2.53" fill="#0f26a6"/><circle cx="9" cy="18" r="2.53" fill="#0f26a6"/><circle cy="13.5" r="2.53" fill="#0f26a6"/><circle cx="18" cy="4.5" r="2.53" fill="#0f26a6"/><circle cx="9" cy="9" r="2.53" fill="#0f26a6"/><circle cy="4.5" r="2.53" fill="#0f26a6"/><circle cx="9" r="2.53" fill="#0f26a6"/></pattern></defs><title>queens_symbol</title><g id="Map_1:_NYC_Boroughs_Besides_SI" data-name="Map 1: NYC Boroughs Besides SI"><path stroke-linejoin="bevel" d="M112.3.4l.1.3h1.8l.3.1.2-.3h0l-.2.2h.1l.2-.2h0l.4,1.4.2.1.2.2h0l.2-.3h0l-.3.3h.3v.1h0v.1h0v.1h0L116,2h.1l-.1.3-.1.2.1.1.2-.2h.2V2.3h0v.1h0V2.2h0V2.1h0V2h0V1.9h.5V2h0v.2h0v.1l.2.1h2.6l.3.1.5.1h0V2.4h0V2.2h0v.3h0V2.4h.4V4h2.4v.2h.3V4.1h0v.2h.2V4.1h0V3.9h0V4h0v.2h.1V4h0V3.9h0V4h0v.2h.3V3.9h0v.3h0V4.1h0v.1h0V4h0v.1h0V3.9h0V4h0v.1h.1V3.7h0V4h.2v.1h1.1V4h0v.1h.7v.1h.3v.1h.5V4.1h0v.2h.4V4.1h.1v.1h1l.2-.3h0l-.2.3h1l.2-.3h0l-.2.3h1.3v.1h.3v.1h-.1v.2h0v.1h0V5h0V6h0v.1h0v.1h0v.1h0V7H131v.2h0v.1h0v.1h0v.1h0v.1h0V8l.2.4v.2l.1.2.1.2h0v.1h0V9h0v.1h0v.1h.1l.2-.3V8.7h.1v.1h0l-.2.4h1.1l.1-.1h0V9h0V8.9h0l.1-.1,1-.7h3.7l1.5-.2.5-.2.5-.3h0l-1.5-.2h0l1.6.3.4.2V7.6h.1l.1-.1.1-.1.1-.1.1-.4.1-.6V6.1h0l-.6-.1h0V5.9h0l.6.2h.1V5.9l-.1-.3-.2-.3-.3-.2,2-.1-.2-.1-.1-.1h0l.1-.1.1-.3V4.3l.1-.1,1.3-.4h.1l.3-.3h.8l.6.1.5.1.5.3.3.2.6.6h.2l.1.1h0l.2.2h0v.4h0V6h0v.6l.1.1V7h0l.1.1.1.1h.1l.1.1.1.1h0l.1.1h0v.1h.1l.1.4h0v.5h0v.1h0v.2h.1v.3l.2.2.2.3.2.2.2.2-.1.4-.3.2h0v.1l-.1.1h-.1l-.1.1-.1.1h1.1l-1.2.4h-.3v-.1h-.1l-.1-.1-.5-.2-1-.9h0l.4.4.6.6.1.1v.2h.1v-.2h.2l.1.3v.3L150,13l.4.5.4.4.8.7.6.6.4.4.2.2h0l.4.5.2.2h.2v.1l-.1.1h0l.8-.3v-.1l.1-.1v-.1h0l.1.1h0v.1h-.2l-.8.3.1.1.2.4.2.4v.2l.1.3.3.6v.1l.1.1.3.4.2.3v.1l.1.2.1.3.2.4.5.6.3.4.3.2.1.2.3.2,1.2,1,.8.6.3.3.2.2.1.1.1.1.3.3.3.3.2.1.2.1.1.1.1.1v.5l.1.1.2.1.3.1.1.1h.2l.1-.1h.1v.1l.1.1.1.1h.1l.2.1.2.1h0v.1h.7l.4.2.5.4.1.1h.2v.1h0v.1h.1l.1.1.1.1V28h.1l.1.1.1.1.1.1h.1l.2.1h.1l.1.1.1.1h.1v.3h0v.2l.1.1v.1l.1.2.1.2.1.1.1.1.1.1.1.1h0v.1h.2l.1-.1.1.1.1.1.2.1.2.1.4.1h.3l.4.2h0l.1.1h0V31l.1.2.2.2h.1l.1.1v.2l.1.1.1.1.1.1.1.1.2.1.2.1.1.1.1.1.1.1v.3h0V33h0v.1h0v.3h0v.1h.1v.1h.1v.1h0V33h.1v-.2h0v-.1h-.1v-.4l.1-.1V32h0l-.1-.1-.1-.1-.1-.1-.1-.1-.1-.1-.1-.1-.2-.1-.1-.1h0V31h-.1l-.1-.1-.1-.1-.1-.1-.1-.1v-.1h0v-.3h0l-.1-.1H169V30l-.1-.1v-.1h-.2v.1h-.1v.2h0l-.2-.1h-.1l-.1-.1h-.3l-.1-.1-.1-.1-.1-.1v-.1l-.2-.1-.1-.1-.1-.1-.1-.1L167,29l-.1-.1-.1-.1v-.1h0v-.1l-.1-.1-.1-.1-.1-.1h-.1v-.1h-.1V28H166v-.1h-.1V28h0v-.1h0v-.1h0v-.1h0v-.2h0v-.1h0v-.1h0v-.1h0l-.1-.1v-.3h0v-.1h-1.4v-.1h-.2v-.1h0v-.1h0v-.1h0v-.5h0V25h0v-.1h0l-.2-.5-.1-.2h0v-.1h0v-.3h.2v-.1h0v.1h0l.1-.1h.1l.3-.1h0l.1-.1.1-.1h0l.1-.1h.1V23h0l-.1-.2v-.2h0v-.1l-.1-.1v-.1h0l-.1-.1h0V22h0l-.1-.1v-.4l-.1-.1h0l-.1-.1-.1-.1v-.1h0V21h0v-.2h-.1l-.1-.1h0V21h0v-.1h0v-.1h0v-.1h0l.1-.1v-.2h0v-.1h-.6v-.1h.6l.1-.1h-.1l.2-.1h0v-.3h0v-.1l.1-.2V19l.1-.2.1-.1h0l.3-.4.4-.5V16l.2-.2.2-.2.1-.1v-.1l.1-.1.1-.1.1-.1h.2l.3-.1.2-.1h.4l.2.1h.1v.1l.1.1.1.1v.2h.1l.2.1.2.2v.1l.1.1.1.1v.1l.2.1.2.1h.1l.1.1.1.1.1.1v.2h0l.1.1.1.1V17h.1v.1l.1.1.1.1h0l-.1.1h-.2l-.1.1.1.1h.2l.1.1.1.1h.1v-.1h0l-.1.1.1.1.2.2V18l.1.1h0v.1h.1v.4h.5v.1h0l.1.1v.1h0V19h.1l.1.1v.1h0v-.1h0v-.2l-.1-.1v-.1l-.1-.1v-.7l-.1-.1h-.1v-.1l.1-.1v.3h.5l.1.1.1.1v.1h0l.1.1v.1h.2l.1.1h0v.1h0l-.1.1h-.2v.4h0v.1h0v.1h.1v.3h.1v-.1l-.1-.1v-.6h.1l.1-.1h0l.1-.1v.2h.2v-.1h-.1v-.4h.2l.1-.1h0v-.1h-.2V18h.1l.5.3,1.5.9.6.3.3.2.2.1.6.1.2.2.2.1.9.6.6.4,2.4,1.4.7.5.8.5.6.4.6.4.8.5.5.3.8.5.8.5.8.5,1.6,1,.7.4.5.3.6.4.4.1.1.1h0v.1h.1l.3.2,2.9,1.9,1.9,1.2.2.1.2.1.1.1.2.1.7.4,1.3.8.2.2,2.1,1.4,2,1.1,1.4.9.6.3.4.3.4.3h0v.1l.2,1.3.1,1.5.2,1.4V43l.1,1.6.2,1.5.2,1.7.2,1.3v.1h0l-.2.2-.4.4-.5.7-.5.8-.2.3-.3.5-.5.7-.2.3-.3.5-.5.7-.3.5-.2.3-.5.8-.5.8-.5.8-.5.7-.7.1-1.5.3h-.1l-2.8.4-.7.1-.7.1-.8.1-1.1.3-1.6.4-.6.2-.5.1h-.2l-.4.1-.3.1h-.3l-.6.2h-.6l-.5.1-.6.2-.7.3-.5.2-.2.1-.3.1-.2.1-.3.1-.2.1-.1.1h-.1l-.2.1-.2.1h0l.5,1.3.3.9v.1l.3,1,.2.8h0v.1h0l.9,3.4h0l.1.5.2.7h0v.5h0l-.1.4.1,1.5v5.1l.1,1.7V82l.2,4.8v1.9l.1,1.2v.6l.1,1.5v1.4l.1.8v.5l.1.5v.5l-.2.6-.1.5-.1.5v.3l-.1.1-.1.2-.1.3-.2.5-.1.3-.2.5-.2.5h0v.2l-.2,1.9.5.8V104l-.1.5V107l.2.2v.3h0v1.2l-.4.1.1.5h.1l.1.5.3.5.3.5.3.5.3.5.2.5.1.4.1.2.2.6.1.2v1l.4,1-.1.6v.9l-.1.3-1,.3-3,1h-.2l-1.2.2-1.5.2-.9.1-1.3.5-1.8.7-1.9,1v1.2l-.1,2v.4l-.3.6.5.8-.7.3.8,1,.7,1.3.6,1.1.1.1-.3.4-.1.1v-.1h-.7l-.5.1h-.1v.1h.1v-.1h-.2v-.1h0v-.1h0l-.1.2h0l.1-.2h0v-.3h0v-.1h.1l.1-.1h0l.1-.1h0l.1-.1h0l.1-.1h0v-.1h0l.1-.1-.1-.2h0v.1h0l-.1-.3v-.1h-1.5l-.1.1-.2.1-.2.1v-.1l.2-.3.1-.2.1-.2h-.1l-.1.2h0v.1h0v.1h0v.2l-.2.2v.1h0l-.1.1h0l.1-.2H172l-.1-.1h0v-.1h0l.1-.1V129l.1-.1h.3l.2-.1.1-.1h0l.1-.1h0v-.1h-.1l-.2.1.1.1-1.3-.4h0l-.2.1h-.3v-.1h-.1v.1h0v-.1h.1V128h0v-.2h0v-.1l.1-.3v-.1h0v-.1h0v-.9h0v-.1h0v-.1h0V126h0v-.1h-.1v-.2h0v-.1h0v.4h-.4v-.1h0l-.1-.2V125h0v-.1h0l-.1-.1h0v-.5H170v.1h0l-.1-.1-.1-.1h0l-.1-.1-.1-.1h-1.7l-.3-.2h0l-.1-.1h0l-.1-.1H167l-.1-.1-.2-.1-.2-.1-.2-.1h0l-.1-.1-.1.1.1.1h0l-.2-.1h.1l.1-.1H165l-.1-.2-.2-.1h-.2l-.2.1-.1.1v.1l.2.3.6.4.1-.1H165l.3.1h0l-.1-.1-.1.1,2.5,1.5.1.1.1.1.1.1.8.6h0l.1.1h.2l.1.1v.1l.1.1.1.1.1.1.1.1.1.1.2.2v.3h0v.1h0v.5h0v.6h0v.1h0v.1h0v.1h0v.2h0v.2h0v.1h0v.3h0v.3h0v.1h0l-.1.1h0v.5h0v.4h-1.2l-.1.1-.1.1H155.9l-.2.1h0l-.1.1h0l-.1.1v.1h-.1v.2h0v.1h0v.1h0l-.1.2h0v.2l-.1.1v.1l-.2.2h0v4.9h0v.1h0v.1h0v.1h0v.1h0l.1.1h0l.1.1v.1h0v.2h0v.1h0l-.2.1h0v-.1h0v.1h0v.1h0v1.4l.2.2v.2l-.1.1-.1.1-.1.1-.1.2v.2h-1.3l-.1-.1h-.1v-.1h0V141l.1-.3v-.2h.1l.1-.1v-.1l.1-.1.1-.1V140h0v-.2h0V141h0v-.1h0v-.1h0v.1h-.3l-.1-.1v.1H153l-.1.2h0l-.1.2h0l-.4.5-.3.4-.3.4-.1.2-.4.5-.4.5-.4.5-.1.1h0l.1-.1h0l.1-.2h-2.4l.1-.2h0l.1-.2h0l.1-.2h0l.1-.2h0l.1-.2h0l.1-.2h0l.2-.6h0l.1-.2h0l.1-.2h0l.1-.2h0l.1-.2h0l.1-.2h0l.1-.2h0l.1-.2-.1-.1h0l.2.1h0l.1-.1h0l.1-.2h0l.1-.1-.1-.1-.5-.5-.1-.1-.3-.2-.2-.1h-.1l-.2.1h0l.4-.3h0l-.3-.4-2-1.6-2.3.3-1.5,1.9-2.2,3.1h-.6l-.2.3.1.1v.5h0v.1h0v.4l.1.1.1.1.1.1v.2h.3v.1h0v.1h0v.1h0l.1.1h.2v.1h.2v.9l.1.1h.1v.1h.1l.1.1v.2h.8v.2h.3v-.1h.1l.1.1h.4v.1h.1l.1.1h.1v.1h0v.1h0v.1l-.1.1h-.2v.1h0v.1H143v.1h0l-.1.1h.1l-.1.1-.1.2-.3.2h0l-.2.1h-.2v.1h-.4v-.1h-.1l-.2.1h-.2l-.1-.1h-.4l-.1.1h0l-.2.1h0l-.2.1h-.4l-.2.2-.3-.1h0l-.2.1H139v.1h-.8v-.1h0v.2h-.3v.2h-1.1v1.8h-.3v.1h.1l-.1.1h-.2v.1h0v.1h-.5l-.1-.1h0l.1-.3.1-.1h.2V152l-.1-.1h-.2v-.1h-1.5v-.1h-.7v-.1h0l-.1-.1h-.6l-.1-.1-.1-.1H132l-.2-.1h-.3l-.1-.1-.2-.1h-.1v-.1h-1.8l-.1-.1v-.3h-.4l-.1.1h-.1l.1-.1h0V150h0v-.2h.3v-.1h-.1V148h.1v-.2h.1v-.1l.1-.1.1-.1h0v-.1h.1v-.1h.2V147h.5v-.1H130v-.1h.1v-.2h.2V146h0v-.1h0v-.1h0v-.1h0l.1-.1h.1v-.1l.3-.3v-.4h.1V142h.2v-.1h.2v-.1h0v-.2h.7l.4.1h.2l.3.1H134l.1-.1h.6l.1-.1h.1l.1-.1h.1l.1-.1v-.1l.1-.1.3-.2.1-.1,1.8-1.6.5-.7.3.1.1-.1,1-1.2.3-.6-.1-.4-.1-.6-.2-.4-.5-.6-.5-.3-.5-.3h-.2l.4-.2h-.3l-.4-.2-.3-.4-.4-.3-.7-.4h0v-.1h-1v-.1h0l-2.2.9-1.7.7-1.8.8.1.1-.1.1-.1-.2.1-.1v.1l1.8-.7,1.7-.7,1.9-.8.3-.1-.2.1h-.1l-.1-.1v-.3l-.4-.5-.1-.1h-.1l-.2-.2-.5-.1h-.4l-.1-.1-.1-.1-.1-.1h0l-.1-.1-.1-.1H132l-.1-.1h0l-.2-.1-.2-.1H131l-.2-.1-.1-.1h-.1l-.2-.1-.2-.1h-.3v-.1l-.1-.1h.5l-.2-.1-.1-.1-.2-.1h-.7l-.4-.2-.3-.1-.2-.2h0l-1-.5-1-.4-1.3-.5-.9-.8h-.8l-.6-.3-.9-.5-.4-.2-.6-.2h-.1l-.5-.1-.3-.2-.3-.2-.5-.3-.6-.2H118l-.3-.1-.3-.1-.3-.2-.4-.2-.3-.1-.3-.1h-.2l-.2-.1-.4-.1h-.4l-.8-.2-.4-.3-.2-.3-.1-.2-.1-.1-.1-.1-.1-.2-.1-.1-.1-.1-.2-.1h-.1l-.1-.1-.1-.1-.1-.1-.1-.1-.1-.1-.1-.1-.1-.1-.1-.1-.1-.1-.3-.4-.2-.2v-1.9l-.1-.4-.1-.4-.1-.4v-.3l-.3-.5-.2-.5-.1-.6v-1l.4-1.3.3-1.2h0l.3-.3h.1v-.1h0l.1.1,1.4-.6h0l.5-.2h.5l.6.1h1.3V111h.8l.4.1h.1l.4.1h2l.1-.1V111h-.8l-.5-.1h0l-.9-.2h0l-.6-.1h-.2l-.4-.1h-2.3v.1h-.1l-.6.2-.2.1h-.2l-.8.3h-1l-.1.1-.3.1h-.5l-.1.1-.4,1.1h0v.1h0v.2h0l-.3,1v.6l.3.9.1.1.1.3.1.2v.4l.1.4.1.2v.3l.1.3.1.5v.9l.1.2h.1l.2.8h-.1l-.2-.2h-.1v-.1h0v-.1H110l-.1-.1h-.2l-.1-.1h-.1v.1h0v.5h0v-.2h0v.1h-.1v.1h0v.1h0v.4h-.5l-.1-.1-.1-.1-.2-.1-.3-.1H108l-.3-.1h-.3l-.4-.2-.1-.1h-.2l-.1-.1-.1-.1-.1-.1-.2-.3.1-.1-.1-.4-.3-.2-.1-.1h-.1l-.1-.1-.1-.1V118l-.1-.4-.2-.4v-.6H105l-.1-.1h0v-.1h0l.3-.3h0l.5-.5h0l.2-.1h0l.1-.1.5-.3.1-.1.1-.1v-.1h-.1l-.1.1h0v.1h0l-.2.2H106l-.1.1h0v.1h0v-.2h0v.1h0v.2h0l-.3.2-.3.3h-.1l-.2.1-.2-.1h0l-.1-.2.1-.1h-.1v-.1h.1l.1-.1h0l.2-.2h0l.1-.2v-.3l.1-.2h0l.1-.1h.1l.1-.1h.1l.1-.1h.3v-.1h0V114h0v-.2l-.1-.1v-.2h-1.3l-.1-.1h0v-.1h.2v-.2h0V113h0v-.2h0v-.1h0v.1h0v.1h0v.1h0v.1h0v.1h-.2v.1h.1l.1.1h.1v.2h-.1l.1.1.1.1v.2l-.1.1h0l-.1.1-.1.1v.1h0v.1h0l-.1.1v.1l-.1.1-.5.2h-.1v.2h0v.1h0v.2l-.1.1h-.4v-.1l-.2-.6-.2-.7h0l-.1-.5h.1l.5,1.1h.1l-.5-1.3.5-.2.7-.1v-.1h-.6l-.7.1-.4.1.3,1,.2.7.2.6.2.6.2.7.1.5.1.4.1.4.1.4.3.3.1.5.2.9-.5.8-2.4-.1h-1.2v-.1h0v-.2l-.1-.2-.3-1.3-.3-1.3-.3-1.3-.3-1.3L99,114l-.3-1.3-.3-1.2.1-.1h-.2v-.1h0v-.1l.3-.1.3-.1v-.4l-.1-.1-.2-.1h-.2l-.8.1v.2l-.3.1.2.8.1.4.3,1,.3,1.3.4,1.3.1.1.3,1.2.3,1.3.3,1.3.3,1.3.7,3-.3.1h-4l-3.5.6H89.9l-2-1.6v-1.8h0V121h0v-.1h0v-.1h0v-.1h0v-.1h0v-.1H88v-.1h0V120h1v-.1h.3l-.2-.1H89l-.1.1h-.8l-.2.3H85.6v-.3h0v-.1h-.4l-.1-.1-.2-.1h-.1L84,119l-.1-.1v-.3l-.1-.1v-.2h-.2l-.1-.1-.1-.2h0v-.1h0l-.1-.2-.6-.4-.1-.1h-.2l-.1-.1H80.5V117h.2v-3h0v-.1h.4v-.1l-.1-.2h.1V113h0v-.1H81v-.1h0v.1h-.1v-.1h0v.1h-.1l-.1.1h0v.1h0v.1h.8V113h0l-.1.1H81v.1h0v.2h-.2v.1h0l-.3-.1h-.3v-.1h0v-.5h0l-.8.3-.4-.5,1.1-.5.4-.3.7-.3.7-.1.7-.1.7-.2-.2-1-.1-.3-.1-.2-.2-1.1.7-.1.8-.1h.7l-.3-1.3-.1-.3-.2-.9-.2-.7V105l-.1-.5-.3-1.2h0v-.1h0v-.1l-.3-1-.7.1-.7.1-.7.1-.3-1.2-.2-1V100l-.1-.5-.1-.3-.2-1-.2-1-.2-.8-.1-.3h-.7v-.2l-.3-1.4-.2-.6-.1-.4-.6.2-.3.1-.8.2-.2-1h0v-.1l-.1-1-.1-.6-.2-.8-.1-.5-.2-.7-.1-.5v-.2l-.1-.3-.1-.5-.1-.5-.1-.2v-.3L75,84.5l-.1-.1.2-.5-.4-.3-1.4.4-3.1.6L65.9,87h-.1l-1.3,1-.9.6-1.2.9-.6.9-2.2.8-.6.2v.3l-.6.4-.4.3-.4-.6-.4.2-.8.5-.7.5-.1-.1-.6-.6-.4-.5h0l-.1-.1h0l-.6.6-.1.1-.2.2-.2.2h0l-.1.2-.2.2-.1.2-.1.1v.1h0v.1h0v.1h0L49,89.6l.6-.3L48.5,87l.4-.4h-.1l-.2-.1-.2-.2-.6-.3-.6-.3-.3-.1-.3-.2-.6-.3-.6-.3L46,84h.1l.4-.4-.3-.2-.2-.2-.4-.2-.3-.1-.3-.2-.3-.2-.3-.1-.3-.2-.2-.2-.3-.2-.6-.3-.6-.3-1.2-.7-.6-.3.9-.9-.6-.3-.6-.4-.6-.3.9-.8L40,77l-.6-.3-.6-.3-.5-.4-.6-.3-.3-.2-.3-.2-.3-.1h0l-.3-.2-.3-.2-.3-.2-.3-.2h0l-.3-.2H35l-.3-.2-.3-.2-.3-.2-.6-.3L33,73l-.4-.2.9-.9-.3-.2h-.1l-.2-.2-.2-.6-.3-.9-.7-.4-.7-.4v-.1h.3V69l-.3-.5v-.2h0l.1-.1h.2l.6-.1.4-.2,1.3.2.1-.2h0l-.4-.1h-.5l-.4-.1h0v-.2h0v-.2h0l-.2-.3v-.1l-.1-.2-.2-.2-.1-.1-.1-.1h0v-.1h0v-1h0v-.5h0v-.1h0v-.1h0v-.1h0v-.1h0v-.1h-.1V62h1.7v-.1H30.5l-.2-.1h-.2l-.1-.1h-.1l-.1-.1-.5-.6h0l-.3-.2h0l-.2-.3-.1-.1h0l-.1-.1h0l-.4-.4h-.1l-.2-.2-.1-.2-.1-.2-.1-.1h-.2l-.1-.1h-.2l-.4-.1-.4-.1H24.5l-1.6-.2h-.3l-1.1-.3h0l-.1-.1-.2-.1H21l-.6-.4-.4-.3-.2-.1-.6-.4-.2-.2-.1-.1v-.1h0l-.1-.2v-.1h0v-.1h.1v-.3l-.1-.2-.1-.1h0l-.1-.1v-.1h-.1v-.2h.1v-.1h0V55h0l-.2-.3-.1-.2-.2-.3L18,54l-.3-.3-.3-.3h0l-.1-.1-.1-.1h-.1l-.1-.1h-.3l-.1-.1H16l-.1-.1h-.1l-.4.1-.3-.1-.5-.2h-.1l-.2-.1h-.1v-.1h.2v-.1h.1l.4-.1,1.1-.4h-.2l.2-.1h.3l.5-.1h0v-.1l.3-.2.2-.2.2-.1.1-.2h-.2l.2-.3.3-.4.2-.3.4-.7.3.1.1-.3-.5-.1-.4-.1-.2-.1.4.3.4.1-.3.5h0v.1l-.5.8-.4.5-.4.3h0l-.1.1h-.2L16.3,49h0l-.1.1h-.4l-.2.1h-.4l-.3.1h-.2l-.2.1-.3.1v.1H14l-.4.1-.9.2L10.2,49h0l-.3-.1-.5-.1h0L9,48.5H4.2l-.1.1H4l-.1.1H3.8l-.1.1h0v.1h0l-.1.1H2.9v.1h0L2.4,49l-.8-.1H1.3v-.2H1.1v-.2l.1-.5.2-.3H2v-.1h.1v-.1H2l-.2-.1H1.7l-.1-.1v-.1l.1-.2H1.5l.1-.3v-.1h0v-.1H1.5v-.1l-.3-.1.3-.5.1-.1h.1v-.1l.2-.4h.7v-.1h0V45H2.4l.1.1L2.4,45H2.3l.1.1h0L2.3,45h.2l.2.1.1-.1.2-.1H3v-.1H2.8l-.3-.1v-.1h.4v-.1H3l.4.1.1-.3-.7-.1h0l.4.1.3.1h.1v-.1H3v-.1h.3L3,44l.3-.4v-.1h0l.1-.1.1-.1h.1v-.2H3.5l.7-.9h0l.4-.5,1.7.7h.1l.2.1h.3l.9.2.1-.3-1.4-.3-1.2-.5.1-.1.1-.1h0l-.1-.1h0l.1.1h0l.2-.2-.3-.1h0l.1-.1h0l.4.1H6l.1-.1h.3v.2h.1l.4-.8-.1-.2.1-.2h0l.5-.5h0v-.1l.1-.1h.1l.5-.6h0l.1-.1.2-.1.5-.5h0l.2-.2.1-.1.2-.2.2-.4.1-.1h0l.1-.1L11,35.4l1-1.3,1.5-1.8.1-.1h.1l.8-1.1h0l.9-1.2,1.5-1.7.2-.2.7-.5.1-.1.4-.2.2-.1.1-.1.3.1.6-.6h.1l.1.1.1-.1-.1-.1v-.1l.4-.1h.5l.1-.2v-.1l.2-.2.2-.1.3.1.4-.2.3-.3.2-.3-.3.2.1-.5h0v-.1l.3.1v-.1l-.3-.1h0l.3.1v-.1l-.3-.1v-.1l-.2-.2h-.4l-.4-.1L20,23.5l-.3-.8v-.4l.2-.8.5-.6h0l.5-.8.2-.2h.2l.6-.6.3-.1h.7l.7.1h.1l.6.1h0l.6.3v.1l.1.2.2.3.6.3.7-.2.3-.1.2-.1.1-.1L28.6,19l.4-.1h.2l.5-.1.5-.4.8-.9.2-.1.3-.1.4-.2.9-.7.8-.7.7-.6.5-.3.2-.1.4-.1.4-.1h0v-.3l.3-.5L37,13h.4l-.3-.2,1.1-1.1,1.3-1.2.2.1-.2.2.4-.1.1-.1.1-.1-.1-.1.2-.1.1.1.4-.1h.2V10l.5-.3.3-.4,2.3.4.2.1,3.1.6.1-.1h.3v.1l.3.1.8.1.3.1.2.1.4.3.3.2,1.1.7.5.4.2.1h0l.4.4.1-.1h0l-.1.1.1.1.1-.1h0l.1.2h-.1l.1.1.1-.1h0v.1h0l-.1.1.2.3-.8.6h.3l-.2.3h0l-.1.1-.1.1.1.1h-.1l-.1.1-.1.1v.1h0l.1.1-.8.7h-.1L49,15.7l-.5.4h-.2v.2h0l-.1.2-.2.3-.1.2-.1.2v.2l.1.1.2.1.1-.1v-.4l.1-.3.6-.5h0l.4-.1.3-.1V16h.7l.6.1,1.1-.6.1.1h.1l.1-.1h0l.1-.1h0l.1-.1h.4l.3-.2h0l.1-.1h.8v.1h0l-.1.1h0l-.1.1h0l-.3.2h-.1l-.1.1H53l-.1.1H53v.1h0v.1h.2l.5.4-.5.4h0l.5-.4h0l-.5.4h0v-.1H54l.6-.5v-1l-.4-.3h0l.5.3.4.3h0l-.1-.1-.4-.3h-.1l-.6.5h1.4l.1-.1h0v-.1h0l-.1.1v.1h.1v.1h.1v.1h0v.1h0v.1H56l.1.1.1.3.2.1.1.3-.8.7-.3.2v.1l.2.1.1.1.1.1.2.2v.1h.1l.1.1.1.1h0V19h-.2l-.1.1v.4l.1-.1v-.2l.1-.2.1-.1.1-.3v-.3l.1-.3.1-.1v-.2l.1-.1h.2l.1-.1h0v-.2l.1-.1h.1v.1l.1.4.4,1V19l-.1.2v.1h0V21h0l-.1.5v.2h-.1l-.1.3h.1l.1-.1h.2l.1.1h1.5l.1-.1,1.5-.2H61v-.1h0v-.1h0v.1h0v.1h-.1l1.1-.1.2.1h0l-.4-.2-.1-.1-.1-.2v-.4H62v-.2l-.2-1.1v-.4l-.1-.3v-.5h0v-.1l-.1-.2v-.2l-.1-.1v-.1h0l-.2-.1h0l.2.1h0l-.1-.1v-.1h0l.1.1h0v-.3h0l.1-.1.3-.1.5-.1h.5v-.1h.3v.1h.1l.1-.1.3-.1h.1v-.1h.3l.1-.1h1.3l.1-.1h0v-.1h.1V17h0l.1.1V17h.1v.1h.3l.2.1-.3-.9-.1-.2.4-.4h0l-.2-.1h0l-.5-.2h0l.2.1h0l.2.1v0l.2.1h0l.4-.4,2.5,1.2.2-.1L72.2,13l1.1.6.4-.5.8-1h0l.1-.1.2.1-.1.1h-.1l-.8,1-.4.5-.1.2.3,1.1.6-.1h.1V15h-.1l-.5.1-.8,1-.8.1-.7.8.2.1,1.4-.2h0l-1.4.3-.2-.1-.1-.1.1.1.1.2.8.4.8.4V18l1.5.8.3.1,1.2.6h.1l.3.2.5.3.3.2,2.9,1.4,1.5.7H82v.1h.1l.2.1.2.1.3.2.2.1.4.2.3.1.1.1h.1l.5.2.3.1.4.2v.3H85l-.4.5-.6.5h-.1l-.4-.1h-.1v.1h0l-.1.2h0l.2-.1.3.1.4.5.2.1.3.1v.2l-.1.1h-.2l-.4-.1-.2-.1h0v.2l-.1.1-.3.4-.2.1h-.1l-.2.1-.1.1-.1.1-.1.2-.1.1-.1.1-.4.1-.2.1H80.5v-.1h0v-.1h-.1v.1l-.1.1H79.2V28l.4.3V28l.1.1.2.2.2.2.2.3.6.9.3.5.2.3.2.3H82l.1.1L82,31h0l.1-.1.1-.2h0l-.1.2V31h0l.1-.1h0l-.1.1.2.1v-.2h0v-.1h0v-.1l.1-.1v-.1h0v-.1l.1-.1v-.1h0v-.1h0V30h-.6v.1h0L82,30v.1h.1l.1.1h0v.1h0l.1.1h0l.6-.7-.1-.1.2.1-.1-.1v.2h0v.1h0V30h0v.1h.2l.2.1.1.1h.2l.1-.1-.1.2h0l.1-.1h0l-.1-.1h-.1v-.1h-.4v.1h0v.1h0v.1h0l-.1.1h0l.3.1h.4l.1.1h.1l.1.1h0l.1.1h0l-.1-.1h-.5l-.1-.1H83l-.3-.1v.1l-.1.1-.1.1v.2l1.1.6.7.2.7.2h0l.2.2.3.2h.1l.2-.1h.4l.4.1.2.1h.3v-.1l-.1-.4h0l.2.1h0v.1h.1l.1-.1h0l.2.1h0l-.2-.1h0l-.1.1.4.2.1.1h.1l.1.1h.5l.2-.1h.4l.2-.1.2-.1.1-.1h0l-.4-.7-1.5.6v.1h-.1l-.2-.3,1.8-.7.5.8h.2l.2.1h.1l.3-.2.2-.1,1-.6.8-.6.3-.2.4-.3h.1l.3-.2.1-.1.3-.1h.1l-.1-.1h0v-.1h0l.1.1h0l.1.1.2-.1h0v-.8l.2-.2h.1l.2-.1.1-.1.2-.1.6-.2.4-.1v.1h1.1l.1-.1.2-.4h-.1l-.2-.1v-.1l-.1-.1v-.2h0v-.1l.1-.1h0l-.1-.1h-.1V27H97v.2l-.1.1h-.1v.3h-.4v-.1h-.1v.1h-.1v-.1H96V28h0v-.1h-.4V28h0v-.1h-.2V28h0l-.3.1h.1V28H95v.1h0V28h-.3l-.3.1-.1.1H94l-.2.1h-.4l-.4-.1-.3-.1-.4-.1h-.2v-.1l-.2-.1h-.5l-.1-.1-.2-.2-.1-.1v-.2l-.1-.1v-.2l-.1-.2v-.1l-.1-.1h0l-.1-.2h.1l.2-.1h0v-.1h-.3l-.6-.3.1-.2.2-.1h0l-.1-.7h0v-.1h0l-.1-.1H90l-.2-.1-.1-.1-.1-.1h0l-.1-.2h0V24h-.4v.1h0V24h-.7v.1h.7V24h.3v-.1l.1-.1h-.1v-.1h.2l-.3-.7.1-.1.3-.4.2-.4V22l-.1-.4-.1-.2V21h0l.1-.2h0v-.1h0v-.3l-.1-.1h-.1v-.1h.1v-.8h-.1v-.1h.1V19h0v-.4h-.2v-.1h0v-.1h-.3v-.2h.2V18h-.1v.1l-.3.1h0v.1l-.5.1h0l-.2.1v.1h-.2l-.2.1h.3v-.1h0v-.1h.3l.5-.1h.3v-.1h-.2l-1.9.1v.2h0v-.3h0l1.9-.1h.1V18h.1v-.1h-.6V18h-.9v-.1h0V18h.9V17h.8v-.2h-.1v-.3h0v-.4h.5V16H88.5l-.4.1H87v.2H85.4v-.8h-.2v-.1h-.1v0h0v-.1h-.4v.1h-.2v.1h0v.1h0v-.2H83.4v-.1H83V15h0v-.1h.1V15h0v-.1H83l-.1-.1h0l-.1-.1h-.4v-.2h0v.1h0v-.1h-.1v.1h0v-.1h-.1l.1.4h0l-.1-.4h.5v-.1h-.1v-.1h0l-.1-.1h0l.1.1v-.1h0v-.1h-.3V14h0v-.1h0v-.1h0v-.1h.3v.1h.2v-.1l.2-.1h.1v-.2h3.5v-.1h.1v-.1H85.5V13h0v-.1h0V9h0l.2-.1h.2l.1-.1h.4l.1-.1h0V8.6h0V8.5h-.1l-.1-.1h0l-.1-.1h0l-.1-.1H86V8.1h0v.1h0V8.1h0V7.9h0V7.5h0V6h0l.1-.1h.1l.1-.1h.3V5.7h0V5.5h.1v.3H87l.1.1.1.1h.3l.1.1h.1l.1.1h.5l.1.1h.7l.1.1h.4V6.2h0V5.7l.1-.1.1-.1h0V5.2h0V5l.1-.1.1-.1h1.4V4.7h.1l.1.1h.5V5h.1v.1l.1.1h0l.1.1v.3h0l.1.1h.9V5.2h.1v.2h.1V5.2l-.3-.6h.1l.3.6.6-.2-.5-1h0l.5,1h.1l.1.1.1.1.1.1h.1V4.8l-.1-.1H95l.5-.5.4-.1-.2-.6h0l.9-.2h0l.7-.3h0l.4-.1h0l-.4.1-.6.4-.8.1h0l.2.5h.7l.5.2h0l.8,2h0l.1.1v.1l.1.1v.2l.2.5.2.4V8h0v.1l-.1.1v.1h-.1l-.1.2v.1h0v.1h0v.2h.5V9h0v.2h0v.1h0v.2h0v.1h0V9.2h0V9.1h0V9H100v.1h.8v.1h0v.1h2.1V9.2h0V9h0V8.9h0V8.8h0V8.7h0l.1-.1h1l.1-.1V8.4h1.3l.1-.1h0V8.2h.1V8.1h0l.1-.1h-.1l-.5-.3v.1l.6.3h.1L106,8h0V7.9l.1-.2V7.4h0V7.3h0V6h0V5.9h0V5.6h0V5.5h0V5.4h0V5.3H106V5.1h0V5h-.1l-.3-.2h0v.1l-.2.2h0l-.1.1-.1-.1h0V5h0l-.2-.1h0l.2.1v.1h0v.1h.1V5.1h0v.2l-.2-.1h.1V5h0l.1.1.1-.1V4.9h-.1l.1.1.1-.1-.1-.1h.1l.2.1.4.2h.2l.1-.1h.8v.1h0V5h0V4.9h0V4.8H109V4.7h.1l-.2-.4h0l.2.4h0l-.3-.4h0l.2.4h0l-.2-.2h0l.2.3h.1l-.2-.3h0l.2.3h0l-.2-.3h0l.2.3h0V4.7l.1-.1h0V4.5h0l.1-.1h0V4.3h.1V4.2h.1l.1-.1h.1l.1-.1h0v.1h.2l-.1-.3h0" fill-opacity="0.95" stroke="#232323" stroke-linecap="square" transform="translate(-0.73 0.07)" stroke-opacity="0" stroke-width="0.74" fill-rule="evenodd" fill="url(#Polka_Dots)"/><path stroke-linejoin="bevel" d="M154.7,147.6h.7v.1h0v.2h0v.9h0v.1h1.9l.5-.4.5.4.6.4-.4.5h.4l-.1.1h0l-.1.1-.5.5.2.1h0v-.2h0l.1-.1.1-.1.2-.2.1-.2.1-.1.2-.2.3-.3h.4l-.2.5h2.5l-.1-.2h.7l.1.1h.4l1-.1,2.7-.9.8-.1.7-.2.2-.2.3.3.3-.1.2.4v.1l.9-.3.1.2.2.4.6.8.5,1,.4.6.2.3-.2.1h-.1l.2.2,1.5,1.4.7.8.9.4.6.7v.3l.1.2v.8l-.1,2.5v.2h0v.4l-.2.2h0v-.1h0l.1-.2h0v.8l-.1.2h-.1v.1h-.1l-.1.1h-.2v-.1h0l-.1-.2h-1v.1h1v.2h.4l.1-.1.2-.1v.1l.1-.1v-.1h-.1l.1.1h0l.1-.1h.2v.1h.1l.2.1h.1l.4-.3v1.3l.3.9h0v.1H177v.1h0v.1h0v-.2h-.6v.1h0v-.1h0v.1h-.2v-.1h-.1v.2h-.6v.1h0V163H175v.1h-1.2v.1h-1.3l-.3.1h-1.9l-.1.1h-.3l-.1.1h-.3l-.4.1-.2.1h0l-.1.1h0l-.1.1h-.3l-.1.1-.2.1-.1.1-.2.2-.1.1-.1.1-.1.1-.1.1-.1.1-.1.1h-9.3l-.3.1H142l-.2.1-.1.1h-3.4l-.4.1-.2.1h-5.9l-1.5.4h-.7l-.3.1h-2.1l-.1.1h-1.4l-.3.1h-2.7l-.2.1h-.1l-.2.1H121l-1.4.1-.6.1h-1.2l-.3.1-.2,4h-.1l-.4.1-.2.1h-.2l-.2.1h-.4l-.3.1-.2.1h-.1l-.2.1h-.2l-.5.1H114l-.4.1h-.1l-.2.1h-.4l-.6.1h-.1l-.7.2-.5.1h-.1l-.2.1-.4.2-.4.1-.2.1h-.6l-.2.1h-.2l-.4.1-.5.1-.4.1h-.1l-.2.1-.3.1-.3.1-.3.1-.2.1h-.1l-.3.1h-.1l-.2.1h-.7l-.1.1-.2.1h-.6l-.1.1h-.3l-.3.1-.2.1h-.1l-.3.1H102l-.2.1-.3.1h-.1l-.4.1-.3.1-.2.1H100l-.5.2h0l-.4.2-.1.1h-.4l-.1.1h-.1L98,177l-.6.2-.6.2-.7.3-.5.2-.6.2-.7.2-.6.2-.6.2-.7.2h-.1l-.6.2-.6.2-.8.3h-.9l-.2.1h-.4l-.2.1h-.2l-.2.1-.1.1H88l-.3.1-.4.1-.3.1h-.2l-.2.1h-.4l-.1.1h-.2l-.2.1h-.3l-.2.1h-.6l-.2.1h-.5l-.2.1-.1.1h0l-.2.1h-.1l-.3.1-.2.1-.5.2h-.6l-.1.1-.7.3-.7.3H80l-.1.1-.1.1h-.3l.1.2h0l-.1-.2h0l-.2-.1h-.6l-.4.1h-.9l-.4.2h-.2l.1.1.2.3h0l-.2-.3v-.1h-.4l-.1.1H76l.1.1.1.2h0l-.1-.2-.1-.2H73.9l-.2.1h-.1l-.1.1h-.1l-.2.1H73l.1.1.2.3h0l-.2-.4-.1-.1H72l-.1.1-.3.1h-.2v.1l.2.3h0l-.1-.2h0v-.1H70.1v0h-2l-.1.1H64v.1H60.8v-.1H59v.1h0v-.1H56.2v.1H54.7v.1h0v-.1H52.2v8.8h0V192H49.9v.1H47l-.3.1-.3.1-.3.1-.3.1-.3.1-.3.1-.3.1-.3.1-.3.1-.3.1v.9l-.3.1-.2.1-.2.1-.2.1-2.3.9-3.6,1.4-.6.3-.6.3-.7.2-.6.3-5.5,2-1,.4-.9.4-1.3.5-1.6.6-1.2.4-.3.1-.3.1-.3.1-.3.1-.3.1-.3.1-.3.1-.2.1-.3.1-.2.1-.2.1-.2.1-.1.1-.1.1-.1.1-.1.1H18.3l-.1.8h-.1l.5-4.8v-4.3l.1-.2-.1-.2.1-.2.1-.1.1-.1.1-.1.1-.1.1-.1.1-.1.1-.1.1-.1,1.4-.9H21l.1-.1H24l.4-.2.6-.8,2-1.4.4-.2.1-.1.1-.1.1-.1.1-.1.1-.1.1-.1.1-.1.1-.1.6-.4.3-.3h.6l.3-.1.4-.1.7-.1h1.8l.5-.1.1-.2h.1l-.1.2h.1l.4-.1.4-.1,1.1-.3.3-.1.3-.2.2-.1.3-.2.3-.2H37l.3-.2.3-.1.2-.1.5-.2h.4l.7-.3v.1h.2v-.5h0v.5h0l.3-.1h1l.2-.3h0l-.2.3h0v.1h0l.1.2v.2h0l.1.1.1.1h2l.1-.1h0v.1h0v.1h.2l.1.1h3.1l.1-.1.1-.1H47l.1-.1h.1l.1.3h1.8l.2.5h.2l.1-.1h.1l.1-.1,2.8-1.6.4.1.1-.2.2-.2.1-.1-.1-.2-.2-.3h0l.1.1h.2l.1-.1.1-.1h0l.1-.1.2-.1h0l.2-.1.1-.1.2-.1.2-.1.1-.1h.1l.3-.1h1.1l.2.1h.1l.2.1h.7l.2.1h.7l.2-.1v-.1H59l.3-.1.5-.2h0l.3-.1h1.1l.5-.2h0l-.5.2.1.1h.1v-.1h0l.2-.1h0l-.2.1h-.1l.2.3.2-.1h0v-.1h0l.1.1H62v-.1h0v.1h.1l-.1-.3h0l.1.3h.1l-.1-.1h.2l-.2-.3h0l.2.3.1.1h4.3l.2-.1.2-.1.2-.1h.2l.2-.1h.2l.3-.2.2-.1h0l.2-.1.3-.2.4-.2.6-.3.5-.2,4.2-2.1.4-.2.9-.4.7-.4.9-.5.5-.2,1.8-1,.6-.3.6-.3.6-.3.6-.3.6-.3.6-.3.6-.3.6-.3.6-.3.6-.3.7-.2.6-.2.7-.2h1.4l.3.1.7.1.8.1.8.1h4.6v-.5h2.7l3.6-1h0l.6-.2.3-.1h.3l.3-.1h0l.5-.1v-.2h0l.1-.2.1-.2V170h.1l.9-.3,1.1-.3.2-.1h.1v-.1h0v.1h0l1.1-.3h.5l.4.2.4.2.2-.1.6-.3.3-.1.3-.1.3-.1h.1l.2-.2h.7l.4-.2V168l-.1-.1v-.1h.1v.1h.6l.5-.2h0v-.1h3l.3-.2-.3-.5h0l.3.5.1-.1h.8l.1-.1v-.3h0V166h0v.9h.2v-.1h.1v-.1h0v-.1h-.3v-.4h0l.2-.1h-.2v.1h.4l-.4.1v.2h.3v.1h0v-1.5h0l.5-.1h.1l-.1-.6h.1l.1.5h0v-.2h0v.2h.1l.1-.2v-.2l-.1-.4h.9l.2.1h1.1v.4h0v.3h0v.7l-.1-.3V165h0l.5.2h0l.1.1h.2V165h.7l-.2-.1h-.2l-.2-.1h-.8v-.1h.1v-.1h.1V163h0v-.1h2.2v.5h0v.2h.1l.3.1.2.1h1.7v-.5h.1l-.1-.5v.2H126v-.1h.4v-.2h-.5v-.1h0v.1h.7v-.1h-.3v-.1H126l-.2.1h0l.2-.1-.1-.1h0l-.2.1v-.1h0v.1h.1v-.1h-.3l.2-.1h0l-.5-.5h0l-.1-.1v-.1H125v-.1h0l-.1-.1h0v-.1l-.1-.2h0l.1-.1.1-.1h1.9v-.1h0v.2h.2v-.1h0v.1h7.6l.1-.1h.1l.1-.1h.2l.1-.1.1-.1h.1l.1-.1h2.9l-.1.1h-.1l-.1.1-.1.1-.1.1h0l-.1.2h0v.1l-.2.1-.1.1h-.1l-.1.1h-.1l-.1.1h-.4v.1h0l-.2.4h0v.1h0v.1h0v.1h0v.2h0v.2h0v.1h0v.1h.1v-.1h-.1v-.2h0v-.3h0v-.2h0v.1h0v.2h0v.4h0v.1h.1v.1h.1V162h0v-.1h0v.2h0V162h0v.1l.1.5h0v.2h0v.1h.1v.1h0v.1h0V163h0v.1h0V163h0v-.1h0v-.3h0V162h-1.3v.7h0v.2h0v.1l.2-.1h.1v-.1h0v-.1h0v-.1h0v-.1h0V162h0v-.2h0v-.1h0v-.1h0v-.3h0v-.1l.1-.1h.5l-.2-.1h0l.3.1h0l-.3-.1h0l.2.1h0V161h2.9l.1-.1h0v-.2h0v-.1h0v-.1h0v-.1h0v-.2h0v-.1h0V160h0v-5h0v-.1h.2v-.1h.2l.1-.1.1-.1h0l.1-.1h0l.2-.2h0l.5-.4.1-.1.6-.5.1-.1.4-.2h3.1l.1.1.1.1h0l.1.1.1.1.1.1.1.1h0V152h-.3v.2h0l.2.2h0v.1h-.2v-.1h0l-.1-.2h-.2l-.1-.1h-.1l.1.1h0v.1h0l.1.1h0l.1.2v.1h0v.1h0v.3h0v.2l-.1.1h0v.6h0v.1h0v.1h0v.4h0v.1l-.1.4h0v.1h2.7l-.1.1h0v.1h0l-.1.1h0v.2h0v.2h0v.1h0l-.1.1h-.1v.1h0l-.2.1h-.1v.1h-1.6v.1l-.2.2h-.2l-.1.1h0v.1h0v.3h0l.1.1.1.1h0v.1l.2.1.1.1.2.1h.2v.1h0v.1h.1l.3-.3h.3l.2-.1h.2l.1-.1h0v-.4l.1-.2h0v-.1h0l.1-.2.1-.3h0v-.1l.1-.2h.6v.1h0v1.5h-.4v.1h0v.1h0v.1h0v.1h0v.1h0v.1h0v.1h.1v.3h1.3l.1-.1h1.6v-.2h0v-.1h0v-.9h0v-.1l.1-.3h0v-.1l.1-.2h0v.4h.1v-.4h0v-.1h.1v-.1h0v-1h0v-.1h0V155h0v-.2h0v-.1h0v-.3h0v-.8h0v-.1h0v-.1h0v-.1h0l.1-.1h0l.1-.2h0v-.1h0v-.1h0v-.1h-.2l-.1-.1h-.1v-.1h0V150h0v-.1h-.5v.1h0l.1.1h0l.1.1h-.1v-.1l-.7-.1h0v-.1h-.1v-.3h0v-.2h0v-.1h0V149h0v-.3h0v-.1h0v-.2h.2l.2-.1.2-.1.2-.1.2-.1h1.6l.2-.1H154" fill-opacity="0.95" stroke="#232323" stroke-linecap="square" transform="translate(-0.73 0.07)" stroke-opacity="0" stroke-width="0.74" fill-rule="evenodd" fill="url(#Polka_Dots)"/><path stroke-linejoin="bevel" d="M110.1,128.1l.5,2.7.1.1.1.2.1.2.1.2.1.2v.2l.1.2v1.7l.6,1.8.2.3.1.4.3.4.1.1v.4l.1.1.2.1,1.2.5v.4l.3.4.5.4.8.5v.2l-.4.3.1.1-.9-.1-.6.5v.4l.9.6v.3l.7.1.1-.3.3-.1.6.5v.6l-.1.5-.7.4-.3.1-.3.1-.2.3v.6l-.1.4-.1.1v.1l.1.3.1.5.3.4v.5l.5.3h0v.1h0v.1h1.2l.1-.1.1-.1h.2l.1.1v.2h0l-.2.2-.2.1h-.1v-.2h-.1l-.2.1-.1.1.1.1v.1l.1.1.2.1.1.2v.1h0l-.1.1h-.1v-.1h0l-.1-.1h-.2v.1H116l-.1.1.1.1v.4l.1.1v.4l.1.2v.4l.1.2.1-.1.2-.2.2-.1.2-.1.1-.1v.2l-.5.7.1.4.1.2.1.2v.7l-.1.2v.1l-.1.2-.1.2h0l-.1.1-.2.2-.1.2h.1v.2h0v-.2h-.1v.1h0l-.1.1h0v.1h0v.1h0v.1H116l-.3.4h-.8l.1.7v.2l-.2.9-.1.5-.5.7-.1,1v.5l-.4.9-.2.6-.2.2-.5.3v.1h0v.1h0v.2h0v.5h0v.1h-.1v.3h-.2l-.1.1v.1l-.1.1h-2.4l-1.1-.4-.2.1h-.3l-.5.1-.4.1h-.3l-.5.1-.4-.1-.3.1-1,.1h-1.1l-.5.1h-.5l-.4-.1-.4-.2-.4-.3-.1-.4.3-.5V161l.1-.2.6-.2.1-.3.7-.3.1-.2.7-.1h.2l.1.1.1.1.1.1h.2v-.1l.1-.1h.5l.1-.1.1-.1h.2l.1.1v.1h.4l.1.1h.4l.1-.1.1-.1v-.1l.2-.1.2-.1.1-.1.1-.1V159h-.2v-.1h.2l.1-.1h.3v.1h0v.1h.5l.1-.2v-.1h.3v.1h0v.2h0v-.1h0v.1h.4l-.1-.1v-.1h.1v-.1l.2-.3v-.1h.4v-.1h.1v-.1h.1v.1H110l-.9-.1v-.4h.2l.1-.1.1-.1v.5l.1-.1h0l.1-.1.1-.1v-.3h0v-.3h.5v-.5h0v-1.2h0l-.1-.1v-.2h.1v-.5h0l-.1-.1H110l-.1-.1.2-.2.2-.3h.2l.3-.2v.3l.1-.1.2-.1v-.1h0l.1-.1h0l.1-.1.1-.2v-.1h0l.5-.6.2-.3v-.5l.1-.2.1-.5-.3-.4v-.8h.1v-.1h0l-.1-.1h-.2l-.1.1v.1h0v.1h0v.1l-.1.2h0v.2l.1.2.1.1.2.1.1.1v.6l-.1.2v.2l-.2.1v.1l-.1.1v.1h-.2l.1-.7h0v-.1l-.1-.1v-.1l.1-.1v-.1l-.1-.1V151l-.2-.2-.2-.1h-.2l-.1-.1h-.1l-.2-.5-.2-.1-.2-.2-.1-.1-.1-.1v-.1l.1-.1-.1-.4H109v-.1l.1-.3v-.1l-.2-.1-.2-.2V148l-.1-.1-.1-.2h-.3l-.1.1v.1l-.1.1h-.2l-.1.1-.2.2h-.6l-.1-.1h0l-.1-.1h0l-.1-.1.1-.1h.4l-.2-.1h-.8l-.4-.1-.3-.1-.2-.1-.4-.1-.4-.1h-1.3l-.3.2-.7.2-.5.1v-1.1l.1-2.4.1-1.7h.5V142h0v-.1h.6v-.1h.2l.1.1.1.1h0v.1h.1v-.4h0v-.1h0l-.1-.1h0v-.1h0v.1h0v-.1h.1v-1h.1v-.1h-.3v.1h0v.1h0v.1h0v.1h0v.1h.1v.5h-.2v-.1h0v.1h0v.1h-.7v-.1l.1-.1h0l.1-.1h0l.1-.1v-.2h.2l.1-.1v-.1h0l.1-.1v-.2h-.3v-.1l.1-.1h.3V140h0v-.1h0v-1.3H103v-.2h-.1V137h0v-.1h0v-.1h.6v-.1h0v-.1h0v.1h.1v.1h-.2v.1h-.3v-.1h-.3v.1h0v.1h-.1v-.1h0l.1-.1v-.1h0v-.2l.2-.1h0l.2-.1.1-.2.2-.2V135l.1-.5v-.3l.1-.1.1-.1v-.1l.1-.1v-1.6l-.2-.2-.1-.1-.2-.2v-.3h0v-.3l-.1-.1-.1-.1-.1-.2v-.2l-.1-.4-.2-.5-.1-.4-.3-.8.4-.3h.6l2.2,1.4.6.4.5.6h2.8l.2-2-.4-.4.3-.5.6.8h0" fill-opacity="0.95" stroke="#232323" stroke-linecap="square" transform="translate(-0.73 0.07)" stroke-opacity="0" stroke-width="0.74" fill-rule="evenodd" fill="url(#Polka_Dots)"/><path stroke-linejoin="bevel" d="M154.7,147h0l-1.2-.3-2.1-.4,1.8-3.7h.9l.6,4.4" fill-opacity="0.95" stroke="#232323" stroke-linecap="square" transform="translate(-0.73 0.07)" stroke-opacity="0" stroke-width="0.74" fill-rule="evenodd" fill="url(#Polka_Dots)"/><path stroke-linejoin="bevel" d="M83.4,119.2,82,117.3l-.7-.9-.1-.1-.4-.5h0l-.2-.3-.1-.1h.2l.2.1.1.1h0l.3.3v.3l.2.1.1.1h0v.2l.1.1.1.2.1.1H82v.3l.2.1.1.1.1.1.2.3.1.1.1.1.1.1.2.1.2.1v.1l.1.1.1.1v.1h-.1v.1h0" fill-opacity="0.95" stroke="#232323" stroke-linecap="square" transform="translate(-0.73 0.07)" stroke-opacity="0" stroke-width="0.74" fill-rule="evenodd" fill="url(#Polka_Dots)"/><path stroke-linejoin="bevel" d="M103.3,139.8v.1h0l-.1.1v.2l-.1.4.1.1h-.3v.1h0v.2h.1v.1h-.1l-.1.1v-1h.3V140h0v-.1h.2v.2h0V140h0v.1h-.1v.1h0" fill-opacity="0.95" stroke="#232323" stroke-linecap="square" transform="translate(-0.73 0.07)" stroke-opacity="0" stroke-width="0.74" fill-rule="evenodd" fill="url(#Polka_Dots)"/><path stroke-linejoin="bevel" d="M170.4,16.8l.9.6h-.2l-.1.1h-.2l-.2.1-.1.1h-.2l-.1-.1-.1-.1v-.1h0v-.1l-.1-.1V17h.4" fill-opacity="0.95" stroke="#232323" stroke-linecap="square" transform="translate(-0.73 0.07)" stroke-opacity="0" stroke-width="0.74" fill-rule="evenodd" fill="url(#Polka_Dots)"/><path stroke-linejoin="bevel" d="M172.1,17.8l.3.1h0v-.1h0l-.1.1-.1.1v-.1l-.1-.2-.1-.2h0l.1.3h0" fill-opacity="0.95" stroke="#232323" stroke-linecap="square" transform="translate(-0.73 0.07)" stroke-opacity="0" stroke-width="0.74" fill-rule="evenodd" fill="url(#Polka_Dots)"/><path stroke-linejoin="bevel" d="M104.6,115.4h0v-.1h.3v.1h-.1l-.2.2h0" fill-opacity="0.95" stroke="#232323" stroke-linecap="square" transform="translate(-0.73 0.07)" stroke-opacity="0" stroke-width="0.74" fill-rule="evenodd" fill="url(#Polka_Dots)"/><path stroke-linejoin="bevel" d="M71.1,12.3h0" fill-opacity="0.95" stroke="#232323" stroke-linecap="square" transform="translate(-0.73 0.07)" stroke-opacity="0" stroke-width="0.74" fill-rule="evenodd" fill="url(#Polka_Dots)"/></g></svg>