<?xml version="1.0" encoding="utf-8"?>
<!-- Generator: Adobe Illustrator 24.0.2, SVG Export Plug-In . SVG Version: 6.00 Build 0)  -->
<svg version="1.1" id="Layer_1" xmlns="http://www.w3.org/2000/svg" xmlns:xlink="http://www.w3.org/1999/xlink" x="0px" y="0px"
	 viewBox="0 0 207.6 205" style="enable-background:new 0 0 207.6 205;" xml:space="preserve">
<style type="text/css">
	
		.st0{fill-rule:evenodd;clip-rule:evenodd;fill:#0F26A6;fill-opacity:0.95;stroke:#232323;stroke-width:0.74;stroke-linecap:square;stroke-linejoin:bevel;stroke-opacity:0;}
</style>
<title>queens</title>
<g id="Map_1:_NYC_Boroughs_Besides_SI">
	<path class="st0" d="M112.3,0.4l0.1,0.3l0,0l0,0l0,0l0,0l0,0h0l0,0h0.1l0,0l0,0l0,0l0,0l0,0h0.1h0.1l0,0l0,0l0,0l0,0l0,0h0.1l0,0
		l0,0h0l0,0l0,0l0,0h0.1l0,0l0,0l0,0l0,0l0,0h0l0,0l0,0l0,0l0,0l0,0l0,0l0,0l0,0l0,0l0,0l0,0l0,0l0,0l0,0l0,0l0,0l0,0l0,0h0l0,0l0,0
		l0,0l0,0l0,0l0,0l0,0l0,0l0,0l0,0l0,0l0,0l0,0l0,0l0,0l0,0l0,0l0,0l0,0l0,0l0,0l0,0l0,0l0,0l0,0l0,0l0,0l0,0l0,0l0,0h1.3l0,0l0,0
		l0,0l0,0l0,0l0,0l0,0l0,0h0l0,0l0,0l0,0l0,0l0,0l0,0l0,0l0,0l0,0l0,0l0,0l0,0l0,0l0,0l0,0l0,0l0,0l0,0l0,0l0,0l0,0l0,0l0,0l0,0
		l0.3,0.1l0.2-0.3l0,0l-0.2,0.2h0.1l0.2-0.2l0,0l0.4,1.4l0.2,0.1l0.2,0.2l0,0h0l0,0l0,0l0.2-0.3l0,0l-0.3,0.3l0,0l0,0l0,0l0,0l0,0
		l0,0l0,0h0.1l0,0l0,0l0,0l0,0l0,0l0,0l0,0h0l0,0l0,0l0,0l0,0l0,0l0,0l0,0l0,0l0,0h0l0,0l0,0l0,0h0l0,0h0l0,0h0l0,0l0,0l0,0h0.1l0,0
		l0,0l0,0l0,0l0,0h0l0,0h0l0,0h0l0,0h0l0,0h0.1l0,0l0,0l0,0l0,0l0,0l0,0l0,0l0,0l0,0l0,0l0,0l0,0l0,0h0l0,0h0l0,0l0,0l0,0v0.1l0,0
		v0.1l0,0l0,0l0,0v0.1l0,0l0,0l0,0l0.2-0.5h0.1l-0.1,0.3l-0.1,0.2l0.1,0.1l0.2-0.2h0.2l0-0.1l0,0v0.1l0,0l0,0l0,0l0,0V2.2l0,0l0,0
		l0,0l0,0l0,0V2.1l0,0V2l0,0V1.9l0,0l0,0l0,0l0,0l0,0l0,0l0,0l0,0l0,0l0,0l0,0l0,0h0.1l0,0h0.1l0,0h0h0.3V2V2v0.1v0.1l0,0v0.1
		l0.2,0.1h0.1h0.1l0,0h0.1l0,0h0.2l0,0h0.2l0,0h0.2l0,0h0.1l0,0h0.1l0,0h0l0,0h0.1l0,0h0.1l0,0h0.1l0,0h0.1l0,0h0.1l0,0h0l0,0l0,0
		l0,0h0l0,0h0l0,0h0.1l0,0h0.1l0,0h0.2l0,0h0.1l0,0l0,0h0.2h0.1h0.2h0l0.3,0.1l0.5,0.1l0,0l0,0V2.4l0,0V2.3V2.2l0,0v0.1v0.1v0.1l0,0
		V2.4h0.2h0h0.1l0,0l0,0l0,0h0l0,0h0.1l0,0l0,0l0,0l0,0l0,0l0,0l0,0V2.3V4h2.4v0.1v0.1l0,0l0,0l0,0l0,0h0.1l0,0l0,0l0,0h0.2V4.1l0,0
		v0.2h0.1l0,0l0,0l0,0h0.1l0,0l0,0V4.1l0,0V3.9l0,0v0.1l0,0l0,0.2h0.1l0,0l0-0.2l0,0V3.9l0,0V4l0,0v0.2l0,0l0,0h0.3V4.1V3.9h0v0.1
		v0.2l0,0h0l0,0l0,0V4.1l0,0l0,0l0,0v0.1l0,0l0,0l0,0l0,0l0,0l0-0.2l0,0l0,0l0,0v0.1l0,0l0,0h0l0,0l0,0V4V3.9l0,0V4l0,0v0.2V4.1h0.1
		V3.9V3.7l0,0v0.1V4h0.2V4v0.1l0,0h0.1l0,0h0.4l0,0l0,0l0,0l0,0l0,0h0.1l0,0h0.4l0,0h0.1l0,0V4l0,0l0,0v0.1h0.2l0,0h0.2l0,0h0.1l0,0
		l0,0l0,0l0,0l0,0h0.1l0,0h0.1v0.1l0,0l0,0l0,0l0,0h0.1l0,0l0,0l0,0l0,0l0,0l0,0l0,0l0,0l0,0l0,0l0,0l0,0h0.1V4.2h0.1l0,0.1l0,0l0,0
		h0.5V4.1l0,0l0,0l0,0v0.1v0.1h0l0,0h0.1l0,0h0.1l0,0h0.2l0,0l0,0l0,0V4.1h0.1l0,0l0,0l0,0l0,0l0,0l0,0l0,0l0,0v0.1l0,0l0,0l0,0l0,0
		h0.1l0,0h0.5l0,0h0.1l0,0h0.1l0,0h0l0,0l0,0l0,0l0,0l0,0l0,0l0,0l0,0l0,0l0,0l0,0l0,0h0l0,0l0,0l0,0h0l0,0h0.1l0,0h0.1l0.2-0.3l0,0
		l0,0l0,0l-0.2,0.3h0.1l0,0h0.5l0,0h0.1l0,0h0.2l0,0l0,0l0,0l0,0h0l0,0h0.1l0,0h0l0,0h0l0,0l0.2-0.3V3.9l0,0l0,0l0,0l0,0l-0.2,0.3
		l0,0h0l0,0l0,0l0,0h0.4l0,0h0.1l0,0h0.1l0,0h0h0.1h0.2h0.1h0.1h0.1h0l0,0h0.1v0.1l0,0h0h0.2l0,0l0,0h0.1v0.1l0,0l0,0h-0.1l0,0l0,0
		l0,0v0.1v0.1h0l0,0v0.1l0,0v0.1v0.1v0.1l0,0V6l0,0l0,0l0,0l0,0l0,0l0,0l0,0l0,0l0,0V6l0,0v0.1l0,0v0.1l0,0l0,0l0,0l0,0l0,0l0,0l0,0
		l0,0l0,0l0,0l0,0l0,0l0,0l0,0l0,0l0,0l0,0l0,0l0,0l0,0l0,0v0.1l0,0l0,0l0,0l0,0l0,0l0,0l0,0V7l0,0l0,0l0,0h-0.1l0,0l0,0l0,0l0,0
		l0,0l0,0v0.2l0,0v0.1l0,0v0.1l0,0v0.1l0,0v0.1l0,0l0,0l0,0l0,0l0,0l0,0v0.1l0,0.1v0.1l0,0.1l0,0.1V8l0.2,0.4v0.1v0.1l0.1,0.2
		l0.1,0.2l0,0l0,0l0,0l0,0l0,0l0,0v0.1l0,0l0,0l0,0V9l0,0V9l0,0l0,0l0,0v0.1l0,0l0,0l0,0v0.1l0,0l0,0l0,0l0,0l0,0l0,0h0.1l0.2-0.3
		V8.7l0,0h0.1v0.1h0l-0.2,0.4h0.1l0,0h0.1l0,0l0,0l0,0l0,0l0,0l0,0l0,0h0l0,0l0,0h0h0.8l0,0l0,0l0,0l0,0h0.1l0.1-0.1l0,0l0,0h0h0V9
		l0,0l0,0l0,0l0,0l0-0.1l0,0l0.1-0.1l1-0.7h0.3h0.5h0.4h0.4h0.3h0.4h1.4l1.5-0.2l0.5-0.2l0.5-0.3V7.4l-1.5-0.2l0,0h0l1.6,0.3
		l0.4,0.2l0-0.1h0.1l0.1-0.1l0.1-0.1l0.1-0.1l0.1-0.4l0.1-0.6V6.1h0l0,0l-0.6-0.1l0,0l0,0V6h0l0-0.1l0,0l0,0h0l0,0l0.6,0.2l0,0h0.1
		V5.9l-0.1-0.3l-0.2-0.3l-0.3-0.2L142.7,5l-0.2-0.1l-0.1-0.1h-0.5h-0.1h-0.1h-0.2l0,0l0,0l0,0h0l0,0l0,0l0,0l0,0l0,0V4.8l0,0l0,0
		l0,0h0.2h0.4h0.3l0.1-0.1l0.1-0.3V4.3l0.1-0.1l1.3-0.4h0.1l0.3-0.3l0,0l0,0h0.1l0,0l0,0h0.5l0,0l0,0l0,0l0,0l0,0l0,0h0.1l0,0h0.1
		l0.6,0.1l0.5,0.1l0.5,0.3l0.3,0.2l0.6,0.6h0.1h0.1l0.1,0.1l0,0l0.2,0.2h0l0,0.1v0.1v0.1l0,0.1l0,0l0,0l0,0l0,0l0,0l0,0V6l0,0v0.1
		v0.1v0.1l0,0.1v0.1l0,0.1l0.1,0.1v0.1l0,0.1l0,0.1h0V7l0.1,0.1l0.1,0.1h0.1l0.1,0.1l0.1,0.1l0,0l0.1,0.1l0,0v0.1h0.1h0l0,0h0l0,0
		l0.1,0.4V8v0.1v0.3v0.1l0,0l0,0.1l0,0v0.1v0.1h0.1l0,0l0,0l0,0h0l0,0v0.1v0.1v0.1l0.2,0.2l0.2,0.3l0.2,0.2l0.2,0.2l-0.1,0.4
		l-0.3,0.2h0h0l0,0.1l-0.1,0.1h-0.1l-0.1,0.1l-0.1,0.1h-0.1h-0.1H149h1.3l-1.2,0.4H149h-0.3l0,0l0,0h0.1h0v-0.1l0,0h-0.1l-0.1-0.1
		l-0.5-0.2l-1-0.9l0,0l0.4,0.4l0.6,0.6l0.1,0.1l0,0.1l0,0.1h0.1l0,0V11l0,0.1v0.1h0.1h0.1l0.1,0.3v0.3L150,13l0.4,0.5l0.4,0.4
		l0.8,0.7l0.6,0.6l0.4,0.4l0.2,0.2h0l0.4,0.5l0.2,0.2h0.1h0.1v0.1l-0.1,0.1l0,0l0.8-0.3v-0.1l0.1-0.1v-0.1l0,0l0.1,0.1l0,0l0,0.1
		h0.1l0,0h-0.1l0,0h-0.2l0,0l-0.8,0.3l0.1,0.1l0.2,0.4l0.2,0.4v0.2l0.1,0.3l0.3,0.6v0.1l0.1,0.1l0.3,0.4l0.2,0.3v0.1l0.1,0.2
		l0.1,0.3l0.2,0.4l0.5,0.6l0.3,0.4l0.3,0.2l0.1,0.2l0.3,0.2l1.2,1l0.8,0.6l0.3,0.3l0.2,0.2l0.1,0.1l0.1,0.1l0.3,0.3l0.3,0.3l0.2,0.1
		l0.2,0.1l0.1,0.1l0.1,0.1v0.1v0.1v0.1v0.1l0,0.1l0.1,0.1l0.2,0.1l0.3,0.1l0.1,0.1h0.2l0.1-0.1h0.1v0.1l0.1,0.1l0.1,0.1h0.1l0.2,0.1
		l0.2,0.1l0,0l0,0l0,0l0,0v0.1h0.2l0,0l0,0l0,0l0,0l0,0h0.1h0.1h0.3l0.4,0.2l0.5,0.4l0.1,0.1h0.1l0,0h0.1l0,0l0,0h0v0.1l0,0v0.1h0.1
		l0.1,0.1l0.1,0.1l0,0.1h0.1l0.1,0.1l0.1,0.1l0.1,0.1h0.1l0.2,0.1l0,0l0,0h0.1l0.1,0.1l0.1,0.1h0.1l0,0.1v0.1v0.1l0,0v0.1v0.1
		l0.1,0.1v0.1l0.1,0.2l0.1,0.2l0.1,0.1l0.1,0.1l0.1,0.1l0.1,0.1l0,0l0,0v0.1l0,0h0.1h0h0.1l0.1-0.1l0.1,0.1l0.1,0.1l0.2,0.1l0.2,0.1
		l0.4,0.1h0.3l0.4,0.2h0l0.1,0.1h0v0.1l0.1,0.2l0.2,0.2h0.1l0.1,0.1l0,0.1l0,0.1l0.1,0.1l0.1,0.1l0.1,0.1l0.1,0.1l0.2,0.1l0.2,0.1
		l0.1,0.1l0.1,0.1l0.1,0.1v0.1v0.1v0.1l0,0h0v0.1l0,0v0.1l0,0v0.1v0.1v0.1l0,0l0,0l0,0v0.1l0,0l0,0l0,0l0,0l0,0l0,0l0,0h0.1l0,0l0,0
		h0l0,0h0l0,0l0,0l0,0h0l0,0h0l0,0.1h0.1l0,0l0,0l0,0l0,0l0,0l0,0l0,0h0l0,0l0,0l0,0l0,0l0,0h0h0l0,0l0,0l0,0l0,0l0,0l0,0l0,0l0,0
		l0,0l0,0l0,0l0,0l0,0l0,0l0,0v0.1l0,0l0,0l0,0l0,0V33l0,0l0,0l0,0l0,0l0,0V33h0.1l0,0l0,0V33v-0.2l0,0l0,0l0,0l0,0l0,0l0,0l0,0l0,0
		l0,0l0,0l0,0l0,0l0,0h0l0,0l0,0l0,0h0l0,0l0,0l0,0l0,0l0,0l0,0l0,0l0,0l0,0l0,0l0,0h0l0,0l0,0l0,0l0,0l0,0l0,0l0,0l0,0l0-0.1l0,0
		l0,0l0,0h-0.1h0l0,0l0,0l0,0l0,0h0l0,0l0,0l0,0l0,0l0,0l0,0l0,0l0,0l0,0l0,0l0,0v-0.2v-0.1v-0.1l0.1-0.1v-0.1l0-0.1V32l-0.1-0.1
		l-0.1-0.1l-0.1-0.1l-0.1-0.1l-0.1-0.1l-0.1-0.1l-0.2-0.1l-0.1-0.1l0,0l0,0l0-0.1v-0.1h-0.1l-0.1-0.1l-0.1-0.1l-0.1-0.1l-0.1-0.1
		v-0.1l0,0v-0.1v-0.1v-0.1l0,0l-0.1-0.1h0h-0.1l0-0.1l-0.1-0.1v-0.1h-0.2v0.1h-0.1l0,0l0,0l0,0.1v0.1l0,0l-0.2-0.1h-0.1l-0.1-0.1
		h-0.2h-0.1l-0.1-0.1l-0.1-0.1l-0.1-0.1v-0.1l-0.2-0.1l-0.1-0.1l-0.1-0.1l-0.1-0.1l-0.1-0.1l-0.1-0.1l-0.1-0.1v-0.1V29v-0.1v-0.1
		v-0.1l0,0l0,0v-0.1l-0.1-0.1l-0.1-0.1l-0.1-0.1h-0.1l0,0l0,0v-0.1l0,0h-0.1h0v-0.1v-0.1l0,0l0,0h-0.1l0,0H166v-0.1h-0.1h0v-0.1
		v-0.1V28l0,0l0,0l0,0l0,0l0,0h0l0,0l0,0l0,0l0,0l0,0l0,0l0,0l0,0l0,0l0,0l0,0l0,0l0,0l0,0l0,0v-0.1l0,0l0,0l0,0l0,0l0,0l0,0h0l0,0
		h0l0,0l0,0l0,0l0,0l0,0v-0.1l0,0l0,0l0,0l0,0l0,0l0,0l0,0l0,0l0,0l0,0l0,0l0,0l0,0v-0.1l0,0v-0.1v-0.1l0,0v-0.1l0,0l0,0l0,0l0,0
		l0,0v-0.1l0,0l0,0h0v-0.1l0,0l0,0l0,0l0,0l0,0l0,0l-0.1-0.1v-0.1v-0.1l0-0.1l0,0l0,0l0,0l0,0l0,0v-0.1l0,0l0,0l0,0l0,0l0,0l0,0l0,0
		l0,0l0,0l0,0l0,0l0,0l0,0h-1.4l0,0l0,0l0,0l0,0v-0.1l0,0l0,0h-0.1h-0.1v-0.1l0,0v-0.1l0,0v-0.1l0,0v-0.1v-0.1v-0.1v-0.1v-0.1l0,0
		l0,0l0,0V25l0,0l0,0l0,0v-0.1l0,0l-0.2-0.5l-0.1-0.2l0,0l0,0h-0.1l0,0h0.1l0,0v-0.1l0,0l0-0.1v-0.1v-0.1l0,0h0h0.1h0.1v-0.1l0,0
		v0.1l0,0l0.1-0.1h0.1l0.3-0.1h0l0.1-0.1l0.1-0.1l0,0h0l0,0l0,0l0.1-0.1h0.1l0-0.1v-0.1l0-0.1l0-0.1v-0.1V23l0,0l-0.1-0.2l0-0.1
		l0-0.1l0,0v-0.1l-0.1-0.1l0-0.1l0,0l-0.1-0.1l0,0v-0.1v-0.1l0,0l-0.1-0.1v-0.2v-0.1v-0.1l-0.1-0.1l0,0l-0.1-0.1l-0.1-0.1v-0.1h0
		l0,0v-0.1h0h0l0,0l0,0v-0.1v-0.1l0,0l0,0l0,0l0,0h-0.1l-0.1-0.1l0,0V21l0,0l0,0l0,0l0,0l0,0v-0.1l0,0v-0.1l0,0l0,0v-0.1l0,0l0,0
		l0,0l0,0l0.1-0.1l0-0.2l0,0v-0.1l0,0h-0.5l0,0h-0.1v-0.1h0.1l0,0h0.5l0,0l0,0l0,0l0,0l0,0l0,0l0,0l0.1-0.1h-0.1l0.2-0.1V20l0-0.1
		v-0.1v-0.1l0,0l0,0v-0.1l0.1-0.2v-0.1v-0.1v-0.2l0.1-0.2l0.1-0.1l0,0l0.3-0.4l0.4-0.5V16l0.2-0.2l0.2-0.2l0.1-0.1v-0.1l0.1-0.1
		l0.1-0.1l0.1-0.1h0.1h0.1l0.3-0.1l0.2-0.1h0.2h0.1h0.1l0.2,0.1h0.1v0.1l0.1,0.1l0.1,0.1v0.1v0.1h0.1l0.2,0.1l0.2,0.2l0,0.1l0.1,0.1
		l0.1,0.1v0.1l0.2,0.1l0.2,0.1h0.1l0.1,0.1l0.1,0.1l0.1,0.1v0.1l0,0.1h-0.1h0.1l0.1,0.1l0.1,0.1V17h0.1v0.1l0.1,0.1l0.1,0.1h0
		l-0.1,0.1h-0.1h-0.1l-0.1,0.1l0.1,0.1h0.1h0.1l0,0l0,0l0.1,0.1l0.1,0.1h0.1h0l0,0l0-0.1l0,0l-0.1,0.1l0.1,0.1l0.2,0.2V18l0.1,0.1h0
		h0l0,0v0.1h0.1l0,0l0,0l0,0.1v0.1v0.1l0,0.1l0,0h0.5v0.1l0,0l0,0l0,0l0.1,0.1v0.1l0,0l0,0.1h0h0.1l0,0h0l0.1,0.1v0.1l0,0v-0.1l0,0
		h0l0-0.1v-0.1l-0.1-0.1v-0.1l-0.1-0.1v-0.1l0-0.1v-0.1V18l0-0.1l-0.1-0.1h0h-0.1h0v-0.1l0.1-0.1V18v-0.1h0.1h0.2h0.1h0h0.1l0,0
		l0.1,0.1l0.1,0.1v0.1l0,0l0.1,0.1l0,0.1h0.1h0.1l0.1,0.1l0,0v0.1H172l-0.1,0.1l0,0h-0.2v0.1v0.1V19v0.1l0,0v0.1l0,0v0.1h0.1l0,0.1
		v0.1v0.1h0.1v-0.1l-0.1-0.1v-0.1l0-0.1V19v-0.1v-0.1h0.1l0.1-0.1l0,0l0.1-0.1v0.1v0.1h0.1h0.1l0,0l0,0l0,0v-0.1h-0.1v-0.1l0-0.2
		v-0.1l0,0h0.2l0.1-0.1l0,0v-0.1l0,0h-0.2l0,0v-0.1h0.1l0,0h0l0,0l0.5,0.3l1.5,0.9l0.6,0.3l0.3,0.2l0.2,0.1l0.6,0.1l0.2,0.2l0.2,0.1
		l0.9,0.6l0.6,0.4l2.4,1.4l0.7,0.5l0.8,0.5l0.6,0.4l0.6,0.4l0.8,0.5l0.5,0.3l0.8,0.5l0.8,0.5l0.8,0.5l1.6,1l0.7,0.4l0.5,0.3l0.6,0.4
		l0.4,0.1l0.1,0.1h0v0.1h0.1l0.3,0.2l2.9,1.9l1.9,1.2l0.2,0.1l0.2,0.1l0.1,0.1l0.2,0.1l0.7,0.4l1.3,0.8l0.2,0.2l2.1,1.4l2,1.1
		l1.4,0.9l0.6,0.3l0.4,0.3l0.4,0.3l0,0v0.1l0.2,1.3l0.1,1.5l0.2,1.4V43l0.1,1.6l0.2,1.5l0.2,1.7l0.2,1.3v0.1l0,0l-0.2,0.2l-0.4,0.4
		l-0.5,0.7l-0.5,0.8l-0.2,0.3l-0.3,0.5l-0.5,0.7l-0.2,0.3l-0.3,0.5l-0.5,0.7l-0.3,0.5l-0.2,0.3l-0.5,0.8l-0.5,0.8l-0.5,0.8l-0.5,0.7
		l-0.7,0.1l-1.5,0.3h-0.1h0l-2.8,0.4l-0.7,0.1l-0.7,0.1l-0.8,0.1l-1.1,0.3l-1.6,0.4l-0.6,0.2l-0.5,0.1h-0.2l-0.4,0.1l-0.3,0.1h0
		h-0.1l-0.2,0l-0.6,0.2h-0.2h-0.1h-0.1h0l0,0l0,0h-0.1l-0.1,0l-0.5,0.1l-0.6,0.2l-0.7,0.3l-0.5,0.2l-0.2,0.1l-0.3,0.1l-0.2,0.1
		l-0.3,0.1l-0.2,0.1l-0.1,0.1h-0.1l-0.2,0.1l-0.2,0.1v0l0.5,1.3l0.3,0.9v0.1l0.3,1l0.2,0.8v0v0.1l0,0l0.9,3.4l0,0l0.1,0.5l0.2,0.7v0
		v0v0.5l0,0l-0.1,0.4l0.1,1.5v1.4v1.1l0,1l0,0.7l0,0.2l0,0.4l0,0.3l0.1,1.7v0.6v0.4v0.7l0.2,4.8v0.4l0,1v0.3v0.2l0.1,1.2v0.4v0.1
		v0.1l0.1,1.5v0.1l0,0.8l0,0.5l0.1,0.8v0.2v0.3l0.1,0.5l0,0.5l-0.2,0.6l-0.1,0.5l-0.1,0.5v0.1l0,0.1v0.1l-0.1,0.1l-0.1,0.2l-0.1,0.3
		l-0.2,0.5l-0.1,0.3l-0.2,0.5L185,100l0,0v0.2l-0.2,1.9l0.5,0.8l0,0.5l0,0.6l-0.1,0.5l0,0.5v0.6v0.5v0.1l0,0.4l0,0.3v0.1l0.2,0.2
		v0.3l0,0v0.4l0,0.1v0.6v0.1l-0.4,0.1l0.1,0.5h0.1l0.1,0.5l0.3,0.5l0.3,0.5l0.3,0.5l0.3,0.5l0.2,0.5l0.1,0.4l0.1,0.2l0.2,0.6
		l0.1,0.2v0.3v0.7l0.4,1l-0.1,0.6v0.9l-0.1,0.3l-1,0.3l-3,1l-0.2,0l-1.2,0.2l-1.5,0.2l-0.9,0.1l-1.3,0.5l-1.8,0.7l-1.9,1v0.6v0.1
		v0.3v0.2l-0.1,2v0.4l-0.3,0.6l0.5,0.8l-0.7,0.3l0.8,1l0.7,1.3l0.6,1.1l0.1,0.1l-0.3,0.4l-0.1,0.1v-0.1h-0.1l0,0h-0.4h-0.1l0,0l0,0
		H175l0,0h-0.1l0,0l0,0l0,0l0,0h0.1l0,0l0,0l0,0h0.1l0,0l0,0l-0.5,0.1l0,0l0,0v0v0l0,0l0,0h-0.1h0v0.1h0.1l0,0l0,0l0,0l0,0l0,0l0,0
		l0,0l0,0l0,0l0,0l0,0h0l0,0l0,0h0l0,0l0,0l0,0l0,0v-0.1v0h0l0,0l0,0l0,0h-0.1v0l0,0l0,0h0l0,0l0,0l0,0l0,0l0,0h-0.1l0,0l0,0h0h0
		l0,0l0,0l0,0l0,0l0,0l0,0l0,0l0,0l0,0l0,0l0,0l0,0l0,0l0,0l0,0v-0.1l0,0l0,0l0,0v-0.1v0l0,0l0,0l0,0l0,0l-0.1,0.2l0,0l0.1-0.2l0,0
		l0,0l0,0l0,0l0,0l0,0l0,0l0,0l0,0v0l0,0l0,0l0,0l0,0h0v0l0,0l0,0l0,0v-0.1l0-0.1l0-0.1l0,0v-0.1h0.1l0.1-0.1l0,0l0,0l0,0l0.1-0.1h0
		l0,0l0,0l0.1-0.1l0,0l0,0l0,0l0,0l0,0l0,0l0,0l0,0l0,0l0,0l0.1-0.1l0,0l0,0l0-0.1l0,0l0,0l0,0l0,0l0,0l0.1-0.1l-0.1-0.2l0,0l0,0.1
		l0,0l0,0l-0.1-0.3v-0.1l0,0l0,0l0,0l0,0l0,0l0,0l0,0h0l0,0l0,0l0,0h-0.1l0,0h0l0,0h-0.1h-0.1h-0.1h-0.1h0h-0.1h-0.1h-0.1h-0.1h-0.1
		l0,0h-0.1h-0.1h-0.1h-0.1h-0.1l-0.1,0.1l-0.2,0.1l-0.2,0.1v-0.1l0.2-0.3l0.1-0.2l0.1-0.2v0h-0.1l0,0l0,0l0,0l0,0v0l-0.1,0.2l0,0h0
		l0,0v0v0.1l0,0v0l0,0v0.1l0,0l0,0.1v0.1l-0.2,0.2v0.1h0l0,0l0,0l0,0l0,0l0,0l0,0l0,0l0,0l0,0l0,0l0,0l-0.1,0.1l0,0l0.1-0.2l0,0l0,0
		l0,0l0,0l0,0h-0.1l0,0l0,0l0,0h-0.1l0,0h0l0,0l0,0l0,0l0,0l0,0l0,0l0,0l-0.1,0h-0.1l0,0l0,0l0,0l-0.1,0h0v0l0,0l0,0l0,0l0,0l0,0
		l0,0l0,0l0,0l0,0l0,0l0,0l0,0H172l0,0l0,0h0h0l-0.1-0.1l0,0l0,0v-0.1l0,0l0.1-0.1v-0.1l0.1-0.1l0,0l0,0h0.1l0.1,0h0l0,0l0.1,0l0,0
		l0,0l0.2-0.1l0.1-0.1l0,0h0l0.1-0.1l0,0l0,0l0,0l0,0l0,0v-0.1l0,0l0,0l0,0l0,0l0,0l0,0l0,0h-0.1l-0.2,0.1l0.1,0.1l-1.3-0.4l0,0
		l-0.2,0.1l-0.1,0h0h-0.1h0l0,0l0,0l0,0l0,0l0,0l0,0l0,0l0,0l0,0l0,0l0,0v0l0,0l0,0l0,0h-0.1l0,0l0,0v-0.1l0,0l0,0l0,0l0,0h-0.1v0.1
		l0,0v0v-0.1l0,0v0h0.1v-0.2l0-0.1h-0.1l0,0h0.1v-0.1v-0.1h0v0l0,0l0,0l0,0l0,0l0,0v0l0,0l0,0l0,0v0v0l0,0h0l0,0l0,0v-0.1l0.1-0.3
		v-0.1v0v0l0,0l0,0l0,0v-0.1l0,0l0,0l0,0l0,0l0,0v0l0,0v-0.4v-0.1v-0.1v-0.1v-0.1l0-0.1l0,0h0l0,0l0,0l0,0l0,0l0,0v-0.1l0,0l0,0l0,0
		l0,0l0,0v0l0,0l0,0l0,0v0v-0.1l0,0v-0.1l0,0v-0.1v0h-0.1l0,0v-0.1v-0.1v0v-0.1v0V126l0,0l0,0l0,0h-0.4v-0.1l0,0l0,0l0,0h0l0,0l0,0
		l-0.1-0.2V125v0v0l0,0l0,0v0v0l0,0l0,0l0,0l0,0v0l0,0l0,0l0,0v0l0,0l0,0h0l0,0l0,0l0,0l0,0l0,0l0,0v0l0,0l0,0l0,0l0,0h0l0,0l0,0
		v-0.1l0,0l0,0l0,0l0,0l0,0l0,0l0,0l0,0l0,0l0,0l0,0l0,0l0,0h0l0,0l-0.1-0.1v0v-0.1v-0.2v-0.1v-0.1l0,0h0l0,0h-0.2l0,0l0,0l0,0l0,0
		l0,0l0,0l0,0v0.1h0l0,0l0,0l0,0l0,0l0,0v0l0,0h0l0,0h0h0l0,0l0,0l0,0l-0.1-0.1l-0.1-0.1l0,0l-0.1-0.1l-0.1-0.1v0h0l0,0h-0.1h-1.6
		l-0.3-0.2h0l-0.1-0.1h0l0,0l0,0l0,0l0,0l0,0h0h0l0,0l0,0l0,0l-0.1-0.1h-0.3l-0.1,0l-0.1-0.1l-0.2-0.1l-0.2-0.1l-0.2-0.1l0,0
		l-0.1-0.1l-0.1,0.1l0.1,0.1l0,0l-0.2-0.1l0,0h0.1l0.1-0.1h0l0,0h0h0l0,0l0,0l0,0H165l0,0l0,0l-0.1-0.2l-0.2-0.1h-0.1h-0.1l-0.2,0.1
		l-0.1,0.1v0.1l0.2,0.3l0.6,0.4l0.1-0.1h-0.1l0,0l0.3,0.1l0,0l-0.1-0.1l-0.1,0.1l2.5,1.5l0.1,0.1l0.1,0.1l0.1,0.1l0.8,0.6l0,0
		l0.1,0.1h0.1l0.1,0l0,0l0.1,0.1v0.1l0.1,0.1l0.1,0.1l0.1,0.1l0.1,0.1l0.1,0.1l0.2,0.2l0,0.1v0.1l0,0.1l0,0l0,0v0v0l0,0v0l0,0v0.1
		l0,0l0,0l0,0l0,0l0,0l0,0l0,0l0,0v0.5l0,0l0,0l0,0v0.1v0.1v0.1v0.1v0.1v0.1l0,0l0,0v0.1l0,0v0l0,0l0,0l0,0v0.1l0,0v0l0,0v0.1l0,0
		l0,0l0,0v0.1v0.1l0,0l0,0l0,0v0.2l0,0v0v0.1l0,0v0.1v0.2v0l0,0v0.1v0.1v0.1l0,0v0.1l0,0l0,0l0,0l0,0l0,0h0l-0.1,0.1v0v0.3v0.1v0.1
		l0,0v0.1v0.2v0.1l0,0l0,0l0,0l0,0l0,0l0,0l0,0v0l0,0l-0.1,0l-0.1,0h0h-0.1h0l0,0l0,0l0,0h-0.1h0h-0.1H169H169h0l0,0h-0.1h-0.1h-0.1
		l0,0h-0.1l-0.1,0l0,0l0,0l0,0l0,0l0,0l-0.1,0.1l-0.1,0.1h0l-0.1,0h0l0,0h0l-0.1,0l0,0l0,0l0,0l0,0h0l-0.2,0h0h-0.1h0l0,0h0l0,0
		h-0.1h0h0l0,0l0,0h-0.1h-0.4h-0.1l-0.2,0h-0.1l0,0l0,0l0,0l0,0h0h0h-0.1l0,0l0,0h-0.1h0l-0.1,0h0l0,0l0,0l0,0l0,0l0,0l0,0h-0.2l0,0
		l0,0l0,0l0,0l0,0h0l0,0l0,0h0h-0.1l0,0h-0.1l0,0l0,0l0,0l0,0h-0.1l0,0l0,0l0,0l0,0h0l0,0l0,0l0,0l0,0l0,0l0,0h-2.1l0,0h-0.1l0,0
		h-0.1l0,0H163l0,0l0,0l0,0l0,0l0,0h0l0,0l0,0h0h-0.1l0,0h0l0,0l0,0h-0.1h-0.1l0,0l0,0l0,0l0,0h0l0,0h-0.1l0,0h-0.1l0,0l0,0l0,0v0
		l0,0v0l0,0h0l0,0l0,0l0,0l0,0h-0.2l0,0H162l0,0h-0.7l0,0l0,0h0l0,0l0,0l0,0l0,0l0,0h-0.2h0h-0.1h0l0,0l0,0l0,0h-0.1l0,0h0l0,0l0,0
		l0,0v0l0,0l0,0l0,0l0,0h-0.5l0,0v0h-0.1l0,0l0,0l0,0h-0.1l0,0l0,0l0,0l0,0l0,0l0,0l0,0l0,0l0,0l0,0l0,0l0,0l0,0l0,0l0,0l0,0l0,0
		h-0.8l0,0l0,0l0,0l0,0l0,0l0,0l0,0l0,0l0,0h-0.1l0,0l0,0l0,0l0,0l0,0h-0.1l0,0H159l0,0l0,0l0,0h-0.1l0,0l0,0l0,0l0,0h-0.1l0,0v0
		l0,0l0,0h0l0,0l0,0h-0.1h0h0l0,0h0h0l0,0l0,0l0,0l0,0l0,0l0,0l0,0h0l0,0l0,0l0,0l0,0h-0.2l0,0l0,0v0h0l0,0H158l0,0l0,0h0h0h0l0,0
		l0,0l0,0l0,0l0,0l0,0l0,0l0,0l0,0l0,0h-0.1l0,0l0,0l0,0h-1.4l0,0l0,0l0,0l0,0l0,0h-0.1v0l0,0l0,0l0,0l0,0l0,0l0,0h0l0,0l0,0l0,0
		l0,0l0,0h-0.1l0,0l0,0l0,0l0,0l0,0l0,0h-0.1l0,0l0,0l0,0l0,0l0,0l0,0l-0.1,0h-0.1l0,0h0l0,0h0l0,0h0l0,0l0,0l0,0l0,0h-0.1h0h0
		l-0.2,0.1v0l0,0v0l-0.1,0.1l0,0l0,0v0l0,0l0,0l0,0l0,0l-0.1,0.1v0.1l0,0h-0.1l0,0l0,0v0.2l0,0l0,0l0,0l0,0l0,0l0,0v0l0,0l0,0v0.1v0
		l0,0.1v0l0,0l0,0l0,0v0l0,0l0,0l0,0l-0.1,0.2v0v0.1v0.1l-0.1,0.1v0.1l-0.2,0.2l0,0h0l0,0l0,0v4.9l0,0l0,0l0,0l0,0l0,0l0,0h0l0,0
		l0,0v0.1l0,0v0.1v0l0,0l0,0l0,0l0,0v0.1l0,0l0,0l0,0l0,0l0,0v0.1l0,0l0,0l0.1,0.1l0,0l0,0l0.1,0.1v0.1l0,0h0v0v0v0.2l0,0l0,0l0,0v0
		l0,0v0.1l0,0l0,0l0,0l0,0l0,0v0l0,0l0,0l0,0l0,0h0l0,0l-0.2,0.1l0,0l0,0h0l0,0l0,0l0,0l0,0l0,0l0,0l0,0l0,0l0,0l0,0l0,0l0,0v-0.1
		l0,0l0,0l0,0l0,0v0l0,0v0.1l0,0l0,0l0,0l0,0l0,0l0,0v0.1l0,0l0,0l0,0l0,0v1.4l0.2,0.2v0.1l0,0.1l-0.1,0.1l-0.1,0.1l-0.1,0.1
		l-0.1,0.2l0,0.1v0.1h0h0l0,0h0H154h-0.1l-0.1,0l-0.2,0h-0.1l-0.1-0.1l-0.1,0h0l0-0.1l0,0l0-0.2v-0.2l0.1-0.3l0-0.2h0.1l0.1-0.1
		l0-0.1l0.1-0.1l0.1-0.1v-0.1l0,0l0,0l0,0v-0.1v-0.1v0v0v0V141l0,0l0,0l0,0v0v-0.1l0,0v-0.1l0,0l0,0h0l0,0l0,0l0,0l0,0v0.1h0l0,0h0
		h-0.2h-0.1l0,0v0l-0.1-0.1v0.1h0.1l0,0H153l0,0l-0.1,0.2h0.1l0,0l-0.1,0l-0.1,0.2h0.1l0,0h-0.1l0,0l-0.4,0.5l-0.3,0.4l-0.3,0.4
		l-0.1,0.2l-0.4,0.5l-0.4,0.5l-0.4,0.5l-0.1,0.1h0l0,0l0,0l0,0l0.1-0.1l0,0l0,0l0,0l0.1-0.2l0,0h-2.4l0.1-0.2l0,0l0,0l0,0l0.1-0.2h0
		l0,0h0l0.1-0.2h0h0l0.1-0.2h0h0l0.1-0.2h0l0,0h0l0.1-0.2l0,0l0,0l0,0l0.2-0.6l0,0h0l0,0h0l0.1-0.2h0h0l0.1-0.2l0,0l0,0l0,0l0.1-0.2
		h0l0,0l0,0l0.1-0.2h0h0l0.1-0.2l0,0l0,0l0,0l0.1-0.2h0l0,0l0,0l0.1-0.2l-0.1-0.1l0,0l0.2,0.1l0,0l0.1-0.1l-0.1,0l0,0l0,0h0.1
		l0.1-0.2l-0.1,0l0,0h0.1l0,0l0.1-0.1l-0.1-0.1l-0.5-0.5l-0.1-0.1l-0.3-0.2l-0.2-0.1l-0.1,0h0h0l0,0l-0.2,0.1l0,0l0.4-0.3l0,0l0,0
		l0,0l0,0l0,0l0,0l-0.3-0.4l-2-1.6l-2.3,0.3l-1.5,1.9l-2.2,3.1l0,0h-0.1l0,0l-0.1,0h-0.1h-0.1h-0.1l-0.1,0l0,0l-0.2,0.3l0.1,0.1
		l0,0.1v0.1v0.2v0.1l0,0v0.1l0,0v0.2v0.1v0.1l0.1,0.1l0.1,0.1l0.1,0.1v0.2v0l0,0h0.2l0,0l0,0h0l0,0l0,0h0.1h0l0,0v0h-0.1l0,0l0,0
		h0.1v0.1l0,0l0,0v0.1l0,0v0.1v0v0l0.1,0.1l0.1,0h0.1v0.1v0l0,0h0l0,0l0.1,0h0.1v0v0.9l0.1,0.1h0.1l0,0v0.1h0.1l0,0h0l0.1,0.1l0,0.1
		v0.1h0h0.1h0.1h0.2h0.1h0.1h0.1l0.1,0l0,0l0,0v0.1v0.1h0.1h0.1l0,0h0v0l0.1,0v-0.1l0,0l0,0h0.1l0.1,0.1l0,0v0l0,0v0v0h0.4h0v0.1
		h0.1l0.1,0.1h0.1v0.1l0,0v0v0.1l0,0l0,0v0v0.1l-0.1,0.1h-0.1h-0.1l0,0v0.1l0,0h0l0,0l0,0.1l0,0h-0.1h0h-0.1h0v0.1v0l0,0v0l-0.1,0.1
		H143l-0.1,0.1l-0.1,0.2l-0.3,0.2l0,0l-0.2,0.1h-0.1h0l-0.1,0v0l0,0l0,0.1h0h-0.1h0h-0.1h0h-0.1l0,0l0,0l-0.1,0l0,0l0-0.1h-0.1
		l-0.2,0.1h-0.1l-0.1,0l-0.1-0.1l0,0h0h-0.1l0,0l0,0h-0.3l0,0l0,0l0,0l0,0v0l0,0l-0.1,0.1l0,0v0l-0.2,0.1h0l0,0l-0.2,0.1l-0.4,0
		l-0.2,0.2l-0.3-0.1l0,0l-0.2,0.1h-0.1v0v0.1v0l0,0l0,0h-0.1h-0.1l0,0l0,0l-0.1,0l-0.1,0h0l0,0v0h-0.3h0l0,0l0,0l0,0h-0.1l0-0.1h0
		v0.1v0.1h0l0,0v0l0,0h-0.1l0,0h-0.1h-0.1l0,0v0.1v0.1h0l0,0l-0.1,0h-0.1h-0.1H137h0h0l0,0h-0.2l-0.1,0l0,0l0,0l0,0l0,0l0,0h0.1v1.8
		l0,0l-0.1,0l-0.1,0h-0.1v0l0,0l0,0v0.1l0.1,0l-0.1,0.1h-0.1h0h-0.1v0.1l0,0l0,0l0,0v0.1H136l0,0h0h-0.1h-0.1l0,0v0v0l-0.1-0.1l0,0
		l0.1-0.3l0.1-0.1h0.2v0V152l-0.1-0.1h-0.1l0,0h-0.1v-0.1h-0.1h-0.1h-0.1h-0.1l-0.3,0h-0.3h-0.1v0h0h0h-0.1h0l0,0v0l-0.1,0h-0.2
		l0-0.1l0,0l0,0l0,0l0,0l-0.1,0l0,0h-0.6l0,0v-0.1h0h0l-0.1-0.1h-0.1l0,0h0H133l-0.1,0l-0.1,0l0,0l0.1,0l0,0v0l0,0l0,0l-0.1-0.1
		l-0.1-0.1v0l0,0l0,0l0,0v0h-0.1h0l-0.1,0h-0.1h0l0,0h-0.1h-0.1H132l-0.2-0.1h-0.2h-0.1l-0.1-0.1l-0.2-0.1h-0.1v-0.1l0,0h-0.3h0l0,0
		l0,0l-0.1,0h0h-0.3h-0.2h-0.4h-0.1v0v0h0h-0.2h-0.1h-0.1l0,0l-0.1-0.1v-0.3l0,0h-0.1h0l0,0h0l-0.1,0h-0.1l0,0h-0.1l0,0l-0.1,0.1
		l0,0h-0.2l0,0v0l0,0l0,0l0,0h-0.1v0l0,0l0,0h0l0,0l0,0l0,0h0h0l0,0l0,0h0.1h0h0h0.1l0,0l0,0v0l0,0l0.1-0.1l0,0l0,0l0,0l0,0l0,0l0,0
		V150l0,0l0,0l0,0l0,0v-0.1l0-0.1l0,0h0.1v0h0.1l0,0h0.1l0,0v0l0-0.1l0,0l0,0h-0.1l0,0V148v0h0l0,0l0.1,0v-0.2l0,0l0,0l0,0h0l0,0h0
		l0,0v0l0,0h0l0,0h0.1v0v-0.1l0.1-0.1l0.1-0.1l0,0v-0.1l0,0l0,0l0,0l0,0l0,0l0,0l0,0l0,0l0,0l0,0l0,0l0,0l0,0h0.1l0,0l0,0v-0.1l0,0
		h0l0,0h0l0,0v0l0,0h0.1v0l0,0l0,0l0,0h0.1h0l0,0l0,0l0,0l0,0l0,0l0,0l0,0h0l0,0l0,0V147v0l0,0l0,0v0l0,0l0,0l0,0h0h0.1l0.1,0h0.1
		l0.1,0h0h0.1l0,0l0,0l0,0l0,0l0,0v-0.1l0,0H130l0,0l0,0l0,0l0,0l0,0l0,0v0l0,0v-0.1h0v0l0,0h0l0,0l0,0v0l0,0v0l0,0l0,0l0,0l0,0l0,0
		l0,0l0,0l0,0l0,0l0,0l0,0l0,0h0.1l0,0h0l0,0l0,0l0,0l0,0l0,0l0,0l0,0v-0.2l0,0v0l0,0l0,0l0,0h0l0,0v0l0,0h0.2l0,0h0h0l0,0h0l0,0
		l0,0l0,0h0l0,0v0V146l0,0l0,0h0l0,0l0,0l0,0l0,0l0,0l0,0v-0.1l0,0v-0.1l0,0l0,0l0,0v0l0,0l0-0.1l0,0v0l0,0v0l0.1-0.1h0.1v-0.1
		l0.3-0.3v-0.1v-0.1l0-0.1v-0.1l0,0l0,0l0,0l0,0l0,0l0,0l0,0h0.1l0,0l0,0l0,0l0,0v0l0,0l0,0l0,0l0,0l0,0l0,0v0V142l0,0l0,0l0,0l0,0
		h0l0,0l0,0l0,0l0,0h0.1h0h0h0.1l0-0.1l0,0h0.1l0,0l0,0l0,0l0,0h0.1l0,0l0,0l0,0v-0.1v0l0,0l0,0l0,0l0,0h0h0l0,0l0,0l0,0l0,0v-0.2
		l0,0l0,0l0,0v0h0l0,0h0l0,0h0.1h0.1h0.1h0.3h0.1l0.4,0.1h0.2l0.3,0.1h0.3h0.2h0.1h0.5l0.1-0.1l0.1,0h0.1h0.3h0h0.1l0.1-0.1l0.1,0
		l0.1-0.1l0.1,0l0.1-0.1v-0.1l0.1-0.1l0.3-0.2l0.1-0.1l1.8-1.6l0.5-0.7l0.3,0.1l0.1-0.1l1-1.2l0.3-0.6l-0.1-0.4l-0.1-0.6l-0.2-0.4
		l-0.5-0.6l-0.5-0.3l-0.5-0.3h-0.2L138,134h-0.3l-0.4-0.2l-0.3-0.4l-0.4-0.3l-0.7-0.4h0l0,0l0,0h0l0,0l0,0v-0.1l0,0v0l0,0l0,0l0,0h0
		l0,0h0h-0.1h-0.2h-0.1h-0.1h0H135h0l0,0h-0.1l0,0l0,0v0l0,0l0,0l0,0v-0.1l0,0l0,0h0l0,0l-2.2,0.9l-1.7,0.7l-1.8,0.8l0.1,0.1
		l-0.1,0.1l-0.1-0.2l0.1-0.1v0.1l1.8-0.7l1.7-0.7l1.9-0.8l0.3-0.1l-0.2,0.1l-0.1,0l-0.1-0.1v-0.1v-0.1v-0.1l-0.4-0.5l-0.1-0.1h-0.1
		l-0.2-0.2l-0.5-0.1h-0.2h-0.1h-0.1l-0.1-0.1l-0.1-0.1l-0.1-0.1l0,0l-0.1-0.1l-0.1-0.1h-0.1l0,0h-0.1l-0.1,0l-0.1-0.1l0,0l-0.2-0.1
		l-0.2-0.1H131l-0.2-0.1l-0.1-0.1l-0.1,0l-0.2-0.1l-0.2-0.1h0H130h-0.1v-0.1l-0.1-0.1l-0.1,0h-0.2h0.8l-0.2-0.1l-0.1-0.1l-0.2-0.1
		h-0.2l0,0l-0.1,0h-0.1h-0.1l-0.1,0l-0.1,0l-0.4-0.2l-0.3-0.1l-0.2-0.2l0,0l-1-0.5l-1-0.4l-1.3-0.5L124,127h-0.1h-0.2h-0.1l-0.2,0
		h-0.2l-0.6-0.3l-0.9-0.5l-0.4-0.2l-0.6-0.2h-0.1l-0.5-0.1l-0.3-0.2l-0.3-0.2L119,125l-0.6-0.2H118l-0.3-0.1l-0.3-0.1l-0.3-0.2
		l-0.4-0.2l-0.3-0.1l-0.3-0.1h-0.2v0l-0.2-0.1l-0.4-0.1l-0.4,0l-0.8-0.2l-0.4-0.3l-0.2-0.3l-0.1-0.2l-0.1-0.1l-0.1-0.1l-0.1-0.2
		l-0.1-0.1l-0.1-0.1l-0.2-0.1h-0.1l-0.1-0.1l-0.1-0.1l-0.1-0.1l-0.1-0.1l-0.1-0.1l-0.1-0.1l-0.1-0.1l-0.1-0.1l-0.1-0.1l-0.3-0.4
		l-0.2-0.2V119v-0.3l-0.1-0.4l-0.1-0.4l-0.1-0.4v-0.3l-0.3-0.5l-0.2-0.5l-0.1-0.6l0-0.4v-0.6l0.4-1.3l0.3-1.2h0v0l0,0h0h0v0l0.3-0.3
		l0,0h0l0,0l0,0l0,0l0.1,0v0l0,0l0,0l0,0v-0.1l-0.1,0l0,0h0v0h0.1l0.1,0.1l1.4-0.6v0l0,0l0,0l0,0l0,0l0,0l0,0l0,0h0l0.5-0.2l0,0h0.1
		h0.1h0h0.1h0.1h0.1l0,0l0.6,0.1v0h0l0,0l0,0l0,0h0.1l0,0h0v0l0.3,0h0.1h0.1h0.1h0.1h0.1h0.1h0.2v0l0,0v0h0.1v0h0V111h0.5h0.1h0.1
		h0.1l0.4,0.1l0,0l0,0v0l0,0l0,0h0.1v0l0,0l0,0l0.4,0.1h0.2h0.1l0.1,0l0.3,0h0.1l0.4,0l0,0h0.2h0.6l0,0l0,0h0l0,0l0.1-0.1v-0.1V111
		h0l0,0l0,0l0,0h0h-0.2H119h-0.2l-0.5-0.1h0l-0.9-0.2l0,0l0,0l-0.6-0.1h-0.1h-0.1l-0.4-0.1l-0.4,0h-0.3h-0.2l0,0h-0.1h-0.1h-0.1
		h-0.1h-0.1h-0.1h-0.1l0,0h-0.1h-0.2h-0.1h-0.2h0H114l0,0l0,0h-0.1l0,0.1l0,0h0v0h-0.1l-0.6,0.2l-0.2,0.1h-0.1l0,0l0,0h-0.1
		l-0.8,0.3l0,0h0l0,0l0,0l0,0l0,0h-0.1l0,0h-0.4h-0.1h-0.1l-0.1,0H111l-0.1,0.1l-0.3,0.1l0,0l0,0h-0.1l-0.1,0l-0.1,0h-0.1l-0.1,0v0
		l-0.1,0.1l-0.4,1.1l0,0v0l0,0v0v0l0,0v0.1v0v0l0,0v0l0,0l0,0v0l0,0h0.1l0,0h0v0l0,0h-0.1l0,0v0v0.1v0.1v0v0l0,0l-0.3,1l0,0.2v0.2
		l0,0.2l0.3,0.9l0.1,0.1l0.1,0.3l0.1,0.2l0,0.2v0.2l0.1,0.4l0.1,0.2v0.3l0.1,0.3l0.1,0.5v0.2v0.4v0.3l0.1,0.2h0.1l0.2,0.8l0,0l0,0
		l0,0l0,0l0,0h-0.1l0,0l-0.2-0.2l0,0l0,0l0,0l0,0l0,0h0v0l-0.1,0v-0.1h0v0l0,0l0,0v-0.1l0,0l0,0l0,0l0,0l0,0l0,0h0l0,0h-0.1l-0.2,0
		l-0.1-0.1h-0.1v0l0,0l0,0h0h0h-0.1h0l0,0h0v0l0,0l-0.1-0.1h-0.1v0.1l0,0l0,0l0,0h0h0l0,0h0h0l0,0l0,0l0,0l0,0V120l0,0l0,0l0,0v0
		v-0.2l0,0l0,0h0l0,0l0,0l0,0l0,0l0,0l0,0l0,0l0,0v0h0v0.1l0,0l0,0l0,0l0,0l0,0l0,0l0,0l0,0l0,0h-0.1l0,0l0,0l0,0l0,0v0.1l0,0v0.1
		l0,0v0l0,0l0,0v0.2v0.2H109h-0.1l-0.1-0.1l-0.1-0.1l-0.2-0.1l-0.3-0.1h-0.2l-0.3-0.1h-0.1h-0.2l-0.4-0.2l-0.1-0.1h-0.2l-0.1-0.1
		l-0.1-0.1l-0.1-0.1l-0.2-0.3l0.1-0.1l-0.1-0.4l-0.3-0.2l-0.1-0.1l-0.1,0l-0.1-0.1l-0.1-0.1V118l-0.1-0.4l-0.2-0.4v-0.4v-0.2H105
		l-0.1-0.1v0v-0.1v0l0.3-0.3h0l0.5-0.5l0,0l0.2-0.1l0,0l0,0l0,0l0,0l0,0h0v0l0,0l0.1-0.1l0.5-0.3l0.1-0.1l0.1-0.1v-0.1h-0.1l0,0l0,0
		l0,0l-0.1,0.1l0,0v0.1l0,0l-0.2,0.2h-0.1h-0.1l0,0h-0.1H106l0,0h0l-0.1,0.1l0,0v0v0.1l0,0v-0.2l0,0l0,0v0.3v-0.2l0,0v0.2l0,0l0,0v0
		l-0.3,0.2l-0.3,0.3l-0.1,0l0,0l-0.2,0.1l-0.2-0.1l0,0v0l-0.1-0.2l0.1-0.1l0,0h-0.1v0l0,0l0-0.1h0.1l0.1-0.1l0,0l0.2-0.2v0v0
		l0.1-0.2V115v-0.1v-0.1l0.1-0.2l0,0l0.1-0.1h0.1l0,0l0.1-0.1h0.1h0l0,0l0,0h0l0,0l0,0l0.1-0.1l0,0l0,0l0,0l0,0l0,0h0.1h0l0,0h0h0.1
		l0,0h0l0,0l0,0h0h0.1h0l0,0l0,0l0,0l0,0v-0.1v0V114l0,0l0,0l0,0h0l0,0l0,0l0,0l0,0h0l0,0l0,0v-0.1v-0.1l-0.1-0.1v-0.1v-0.1l0,0h0
		l0,0h-1.3h0l0,0l0,0l-0.1-0.1l0,0l0,0l0,0l0,0l0,0l0,0l0,0l0,0l0,0v0h0l0,0l0,0l0,0v-0.1h0l0,0h0.1l0,0h0.1l0,0l0,0l0,0l0,0l0,0
		v-0.1l0-0.1l0,0v0l0,0v0l0-0.1v0l0,0l0,0v0v0v-0.1v-0.1l0,0l0,0v-0.1l0,0l0,0l0,0l0,0l0,0l0,0l0,0l0,0l0,0l0,0v0l0,0v0.1l0,0v0.1
		l0,0l0,0l0,0l0,0l0,0l0,0v0.1l0,0v0.1l0,0v0.1h-0.1h-0.1h0h0l0,0h0l0,0l0,0h0v0.1h0.1l0,0l0.1,0.1h0.1l0,0h0v0.1v0.1l0,0l0.1,0
		h-0.2l0.1,0.1l0.1,0.1l0,0.1v0.1l-0.1,0.1h0l-0.1,0.1l-0.1,0.1l0,0.1l0,0v0.1l0,0l0,0l0,0l-0.1,0H105H105h-0.2h-0.1l0,0l-0.1,0.1
		l0,0.1l-0.1,0.1l-0.5,0.2l0,0l0,0h-0.1l0,0v0l0,0v0l0,0l0,0v0.1l0,0.1l0,0v0.1l0,0l0,0.1v0.1l-0.1,0.1h-0.3h-0.1h0h0l0,0v-0.1
		l-0.2-0.6l-0.2-0.7v0l-0.1-0.5h0.1l0.5,1.1l0.1,0l-0.5-1.3l0.5-0.2l0.7-0.1v-0.1h-0.1h-0.5l-0.7,0.1l-0.4,0.1l0.3,1l0.2,0.7
		l0.2,0.6l0.2,0.6l0.2,0.7l0.1,0.5l0.1,0.4l0.1,0.4l0.1,0.4l0.3,0.3l0.1,0.5l0.2,0.9l-0.5,0.8l-2.4-0.1h-0.1h-0.1h-0.1H101h-0.1
		l-0.1,0h-0.1l-0.1,0l0,0h0h0v0l0,0v0l0,0v-0.1v0v0l0,0v-0.2l-0.1-0.2l-0.3-1.3l-0.3-1.3l-0.3-1.3l-0.3-1.3l-0.3-1.3l-0.3-1.3
		l-0.3-1.2l0.1-0.1l0,0h-0.1h-0.1v0h0v-0.1l0,0v0v-0.1l0.3-0.1l0.3-0.1v-0.2v-0.2l-0.1-0.1l-0.2-0.1h-0.2l-0.8,0.1l0,0.2l-0.3,0.1
		l0.2,0.8l0.1,0.4l0.3,1l0.3,1.3l0.4,1.3l0.1,0.1l0.3,1.2l0.3,1.3l0.3,1.3l0.3,1.3l0.7,3l-0.3,0.1h-0.1l0,0h-1h-0.8h-0.3l-0.2,0
		l-0.3,0h-0.1h-0.1h-0.1h-0.1h-0.1l0,0h-0.1h0h-0.7l-3.5,0.6h-2.9l-2-1.6l0-0.1l0-0.1v-0.1v-0.1v-0.1v-0.1v-0.1v-0.4v-0.1v-0.1v-0.1
		v-0.1v-0.1v-0.1l0-0.1l0,0l0-0.1V121v-0.1l0,0v0v0l0-0.1v0h0v0l0,0l0,0l0,0l0,0l0,0l0,0l0,0l0,0l0,0l0,0h0l0,0h0v0h0v0l0,0h0l0,0h0
		h0l0,0l0,0l0,0l0,0l0,0l0,0v-0.1l0,0l0,0l0,0l0,0l0,0l0,0l0,0v-0.1l0,0v-0.1h0h0.1l0,0v-0.1l0,0l0,0v0V120l0,0l0,0h0l0,0l0,0l0,0
		l0,0l0,0l0,0V120l0,0l0,0h0h0l0,0v0l0,0h0h0l0,0l0,0l0,0h0h0h0h0l0,0l0,0H89l0,0H89l0,0l0,0l0,0h0h0l0,0l0,0l0,0l0,0l0,0l0,0v0h0
		v-0.1l0,0l0,0l0,0l0,0l0,0h0h0.3l-0.2-0.1H89l0,0l-0.1,0.1h-0.1l0,0l0,0h-0.1l0,0l0,0l0,0l0,0h0l0,0l0,0h-0.1h-0.1h-0.1l-0.1,0
		h-0.1l-0.1,0v0l-0.2,0.3l0,0l0,0h-0.1l0,0l0,0l0,0l0,0h0l0,0l0,0l0,0l0,0l0,0l0,0h0l0,0h-0.2l0,0h-0.1h-0.1h-0.1H87h-0.2h0h-0.2h0
		h0h-0.1h-0.1l-0.1,0h-0.1h-0.1H86h-0.1h-0.1l0,0l0,0l0,0l0,0v0l0,0v0l0,0h0l0,0h0h0l0,0h-0.1h0l0,0l0,0h-0.1l0,0l0,0h0l0,0l0,0h0h0
		h0v0h0l0,0v0l0,0v-0.3l0,0v0l0,0v0l0,0l0,0v-0.1l0,0v0v0v0l0,0h0h0l0,0h-0.2l0,0l0,0l0,0l0,0l0,0h-0.2h0h0h0l0,0l-0.1-0.1l-0.2-0.1
		l-0.1,0L84,119l-0.1-0.1v-0.2v-0.1l-0.1-0.1l0-0.1v-0.1h-0.1h-0.1h0l-0.1-0.1l-0.1-0.2l0,0v-0.1l0,0l0,0l0,0l0,0l0,0l0,0l0,0l0,0
		l0,0l0,0l0,0h0v0h0l-0.1-0.2l-0.6-0.4l-0.1-0.1l-0.2,0l-0.1-0.1H82l0,0l0,0l0,0l0,0l0,0l0,0h-1.7l0,0h0.1l0,0l0,0l0,0l0,0h0.1v0
		l0,0l0,0v-0.1l0,0h0.1l0,0l0,0l0,0l0,0l0,0l0,0l0.1,0l0,0l0,0l0,0l0,0l0,0h0l0,0V114l0,0l0,0h0l0,0v-0.1l0,0h0.5l0,0l0,0h0h-0.1
		l0,0l0,0l0,0l0,0l0,0v0l0,0l0,0l0,0v0v-0.1l-0.1-0.2l0,0l0,0l0,0h0.1h0l0,0l0,0l0,0v0l0,0l0,0l0,0V113v0v0v-0.1v0l0,0l0,0h0l0,0
		l0,0H81h0l0,0l0,0l0,0h0v-0.1v0l0,0l0,0l0,0l0,0l0,0l0,0l0,0h0l0,0l0,0l0,0l0,0l0,0v0l0,0v0l0,0l0,0l0,0l0,0l0,0l0,0l0,0l0,0h0l0,0
		l0,0l0,0.1h-0.1h-0.1l0,0l0,0l0,0l0,0l0,0l0,0v0l0,0l0,0l0,0v0l0,0l0,0h0.1h0l0,0l0,0l0,0l0,0l0,0l0,0v0v-0.1l0,0l0,0h0v0l0,0l0,0
		l0,0l0,0l0,0l0,0l0,0v0.1l0,0l0,0h-0.1h0l-0.1,0.1h0v0l0,0v0v0.1l0,0v0.1l0,0l0.1,0l0.1,0l0,0h0l0,0l0,0h0h0.2h0l0,0l0,0l0,0l0,0
		l0.1,0l0,0h0.3l0,0h0V113l0,0l0,0l0,0l0,0l0,0l-0.1,0.1h0l0,0l0,0v0h-0.1l0,0l0,0v0l0,0H81l0,0h0l0,0l0,0l0,0l0,0l0,0l0,0l0,0v0.1
		v0l0,0h0v0.1v0.1l0,0h-0.1l0,0l0,0h0l0,0v0v0l0,0l0,0l0,0l0,0h-0.1l0,0v0.1l0,0l0,0l-0.3-0.1h-0.3l0,0v0v-0.1l0,0V113v-0.1v-0.1
		l0,0l0,0l0,0l-0.8,0.3l-0.4-0.5l1.1-0.5l0.4-0.3l0.7-0.3l0.7-0.1l0.7-0.1l0.7-0.2l-0.2-1l-0.1-0.3l-0.1-0.2l-0.2-1.1l0.7-0.1
		l0.8-0.1l0.4,0l0.3,0l-0.3-1.3l-0.1-0.3l-0.2-0.9l-0.2-0.7v-0.1l-0.1-0.5l-0.3-1.2l0,0v-0.1l0,0v-0.1l-0.3-1l-0.7,0.1l-0.7,0.1
		l-0.7,0.1l-0.3-1.2l-0.2-1l0-0.2l-0.1-0.5l-0.1-0.3l-0.2-1l-0.2-1l-0.2-0.8l-0.1-0.3h-0.4h-0.3v-0.1l0-0.1l-0.3-1.4l-0.2-0.6
		l-0.1-0.4L78,93.7l-0.3,0.1l-0.8,0.2L76.7,93v0v-0.1l-0.1-1l-0.1-0.6l-0.2-0.8L76.2,90l-0.2-0.7l-0.1-0.5l0-0.2l-0.1-0.3l-0.1-0.5
		l-0.1-0.5l-0.1-0.2v-0.3L75,84.5l-0.1-0.1l0.2-0.5l-0.4-0.3L73.3,84l-3.1,0.6L65.9,87h-0.1v0l-1.3,1l-0.9,0.6l-1.2,0.9l-0.6,0.9
		l-2.2,0.8l-0.6,0.2L59,91.7l-0.6,0.4l-0.4,0.3l-0.4-0.6l-0.4,0.2l-0.8,0.5l-0.7,0.5l-0.1-0.1l-0.6-0.6l-0.4-0.5l0,0l-0.1-0.1l0,0
		l-0.6,0.6l-0.1,0.1l-0.2,0.2l-0.2,0.2l0,0l-0.1,0.2l-0.2,0.2l-0.1,0.2l-0.1,0.1l0,0.1l0,0v0.1l0,0v0.1l0,0L49,89.6l0.6-0.3
		l-1.1-2.3l0.4-0.4l0,0h-0.1l-0.2-0.1l-0.2-0.2l-0.6-0.3l-0.6-0.3l-0.3-0.1l-0.3-0.2l-0.6-0.3l-0.6-0.3L46,84l0.1,0l0.4-0.4
		l-0.3-0.2L46,83.2L45.6,83l-0.3-0.1l-0.3-0.2l-0.3-0.2l-0.3-0.1l-0.3-0.2L43.9,82l-0.3-0.2L43,81.5l-0.6-0.3l-1.2-0.7l-0.6-0.3
		l0.9-0.9l-0.6-0.3l-0.6-0.4l-0.6-0.3l0.9-0.8L40,77l-0.6-0.3l-0.6-0.3L38.3,76l-0.6-0.3l-0.3-0.2l-0.3-0.2l-0.3-0.1h0L36.5,75
		l-0.3-0.2l-0.3-0.2l-0.3-0.2l0,0l-0.3-0.2L35,74.2L34.7,74l-0.3-0.2l-0.3-0.2l-0.6-0.3L33,73l-0.4-0.2l0.9-0.9l-0.3-0.2h-0.1
		l-0.2-0.2l-0.2-0.6l-0.3-0.9l-0.7-0.4L31,69.2v-0.1h0.3V69L31,68.5l0-0.2v0l0,0l0.1-0.1l0,0l0.1,0l0,0h0.1l0,0h0l0,0l0.6-0.1
		l0.4-0.2l1.3,0.2l0.1-0.2l0,0l0,0l-0.4-0.1h-0.1H33h-0.2l0,0l-0.4-0.1h0l0-0.1v-0.1v0l0,0v-0.1l0-0.1v0L32.2,67l0-0.1l-0.1-0.2
		l-0.2-0.2l-0.1-0.1l-0.1-0.1l0,0v0l0,0l0,0l0,0l0,0l0,0l0,0l0,0v-0.1l0,0v0l0,0l0,0l0,0l0,0l0,0v0l0,0l0,0l0,0l0,0l0,0l0,0l0,0l0,0
		l0,0l0,0l0,0l0,0l0,0v-1l0,0v-0.5l0,0l0,0l0,0l0,0l0,0v0l0,0v0l0,0v-0.1l0,0l0,0l0,0l0,0l0,0l0,0l0,0v0l0,0v0l0,0v0l0,0v0l0,0l0,0
		l0,0l0,0l0,0l0,0l0,0l0,0v-0.1l0,0v-0.1l0,0l0,0l0,0v0l0,0l0,0l0,0v-0.1l0,0l0,0l0,0l0,0l0,0l0,0l0,0l0,0l0,0l0,0l0,0l0,0l0,0l0,0
		v-0.1l0,0l0,0l0,0l0,0l0,0l0,0l0,0l0,0h-0.1l0,0l0,0l0,0l0,0l0,0l0,0l0,0l0,0l0,0l0,0l0,0l0,0l0,0l0,0l0,0l0,0l0,0l0,0l0,0v0l0,0
		l0,0l0,0l0,0l0,0v0l0,0v0l0,0l0,0l0,0l0,0l0,0l0,0l0,0l0,0l0,0l0,0l0,0V62l0,0l0,0l0,0l0,0l0,0l0,0l0,0l0,0l0,0v0l0,0l0,0l0,0v0
		l0,0l0,0l0,0l0,0l0,0l0,0l0,0l0,0l0,0h0h0.3l0,0h-0.5l0,0h0.3l0,0l0,0l0,0h0.1l0,0h0.1l0,0l0,0l0,0H32l0,0l0,0l0,0l0,0l0,0h0.3l0,0
		h0.1l0,0h0.1l0,0h0.1l0,0h0l0,0h0l0,0h0.1l0,0l0,0l0,0h0l0,0l0,0l0,0h0.1l0,0H33l0,0h0.1l0,0h0.1l0,0l0,0l0,0v0l0,0l0,0l0,0h0.1
		l0,0l0,0l0,0v-0.1l0,0l0,0h0l0,0h-0.1l0,0h-0.3l0,0h-0.1l0,0h0l0,0h0l0,0h-0.1l0,0l0,0l0,0l0,0l0,0l0,0l0,0l0,0l0,0l0,0h-0.2l0,0
		h-0.1l0,0h-0.1l0,0h-0.2l0,0h0l0,0h-0.1l0,0h-0.7l0,0h-0.4l0,0h-0.1h-0.1l-0.1,0l0,0h-0.1l0,0l-0.2-0.1l0,0h-0.1h0l0,0l-0.1,0l0,0
		l-0.1-0.1l-0.1,0l0,0l-0.1-0.1L29.3,61l0,0L29,60.8l0,0h0l-0.2-0.3l-0.1-0.1l0,0l-0.1-0.1l0,0l-0.4-0.4l-0.1,0l-0.2-0.2l-0.1-0.2
		l-0.1-0.2l-0.1-0.1l0,0l0,0l0,0h-0.1l0,0l-0.1,0l0,0l-0.1-0.1h-0.1l-0.1,0l-0.4-0.1l-0.4-0.1l-0.2,0h-0.6h-0.2h0h0H25l-0.5,0
		l-1.6-0.2l-0.3,0l-1.1-0.3h0l-0.1-0.1l-0.2-0.1H21l0,0l-0.6-0.4L20,57.5l-0.2-0.1L19.2,57L19,56.8l-0.1-0.1l0-0.1v0l-0.1-0.2v-0.1
		l0,0v-0.1v0v0h0.1l0,0V56v-0.1l-0.1-0.2l-0.1-0.1v0l-0.1-0.1v-0.1h-0.1l0,0v-0.1v-0.1h0.1h0v-0.1l0,0V55l0,0l-0.2-0.3l-0.1-0.2
		l-0.2-0.3L18,54l-0.3-0.3l-0.3-0.3l0,0l0,0l0,0l-0.1-0.1l-0.1-0.1h0h0l0,0l0,0h0h-0.1l0,0l0,0l-0.1-0.1h-0.1h0l0,0h-0.1h-0.1h0
		l-0.1-0.1h-0.1h-0.1l0,0h-0.1l0,0l0,0H16l0,0l-0.1-0.1h-0.1L15.4,53l-0.3-0.1l-0.5-0.2h-0.1l-0.2-0.1h-0.1l0,0v-0.1l0,0l0,0l0,0h0
		h0l0,0l0,0l0,0l0,0l0,0l0,0h0l0,0l0,0l0,0h0.1h0.1h0l0,0l0,0h0l0,0l0,0l0,0l0,0l0-0.1l0,0l0,0l0,0h0.1l0,0l0,0l0,0l0.4-0.1l1.1-0.4
		h-0.2l0,0l0.2-0.1h0.3l0.5-0.1l0,0v-0.1l0.3-0.2l0.2-0.2l0.2-0.1l0.1-0.2h-0.2l0.2-0.3l0.3-0.4l0.2-0.3l0.4-0.7l0.3,0.1l0.1-0.3
		l-0.5-0.1l-0.4-0.1l-0.2-0.1L18.2,49l0.4,0.1l-0.3,0.5l0,0l0,0.1l-0.5,0.8L17.4,51L17,51.3l0,0l-0.1,0.1h-0.2l0,0h0L16.3,49l0,0h0
		h-0.1l0,0V49l0,0l0,0l0,0l0,0l0,0h0.1l0,0l-0.1,0.1h-0.1h-0.3l-0.2,0.1h-0.3h0h-0.1h0l0,0l0,0l0,0l0,0l-0.3,0.1h-0.2l-0.2,0.1
		l-0.3,0.1v0.1h0H14l-0.4,0.1l-0.9,0.2l-2.5-0.9l0,0l-0.3-0.1l-0.5-0.1l0,0L9,48.5H8.8l0,0H8.7H8.6H8.3h0l0,0l0,0h0h0H8.1H8H7.8H7.7
		h0H7.5H7.4H7.2l0,0H6.7h0h0l0,0H6.3h0H5.9l0,0H5.7H5.6H5.4l0,0H5.1h0l0,0H5H4.8l0,0H4.8l0,0h0l0,0h0h0H4.5l0,0l0,0l0,0l0,0l0,0h0
		H4.4l0,0l0,0l0,0H4.3l0,0l0,0H4.2l0,0l-0.1,0.1H4.1H4l-0.1,0.1H3.8l-0.1,0.1l0,0h0l0,0l0,0.1h0l-0.1,0.1h0l0,0l0,0l0,0H3.4H3.3H3.2
		H3.1h0l0,0H2.9l0,0l0,0v0.1l0,0l0,0h0l0,0h0l0,0L2.4,49l-0.8-0.1H1.5H1.3h0l0,0v-0.1v-0.1l0,0H1.2H1.1h0l0,0l0,0l0,0l0,0l0,0l0,0
		l0,0l0,0l0,0l0,0v-0.2L1.2,48l0.2-0.3h0.3L2,47.7L2,47.6l0,0h0.1v-0.1l0,0H2l-0.2-0.1H1.7l-0.1-0.1v-0.1L1.7,47h0.1H1.3h0.2
		l0.1-0.3v-0.1l0,0v-0.1H1.5l0,0H1.3l0,0l0,0l0,0h0.2v-0.1l-0.3-0.1l0.3-0.5l0.1-0.1l0,0h0.1l0-0.1l0.2-0.4l0,0l0,0l0,0l0,0H2h0.3
		h0.3v-0.1l0,0l0-0.1h0H2.4l0,0l0.1,0.1L2.4,45H2.3l0.1,0.1l0,0l0,0L2.3,45l0,0H2.1l0,0V45L2.4,45l0,0h0.1l0,0l0.2,0.1L2.8,45
		L3,44.9l0,0v-0.1l0,0l0,0H2.8l0,0l-0.3-0.1v-0.1h0.1l0,0h0.2l0,0H3l0,0h0.1h0l0,0l0,0l0,0h0l0,0h0.1h0.1l0,0l0,0H3l0,0H2.9l0,0l0,0
		l0,0v-0.1h0.1l0.4,0.1l0.1-0.3l-0.7-0.1l0,0l0,0l0,0l0.4,0.1l0.3,0.1h0.1v-0.1l0,0H3.5H3.4L3,44.3l0,0l0,0l0,0l0,0l0,0l0,0l0,0
		v-0.1l0,0l0,0l0,0l0,0l0,0l0,0h0h0.2h0.1l0,0l0,0l0,0l0,0l0,0h0L3,44l0.3-0.4v-0.1h0l0.1-0.1l0.1-0.1h0.1l0,0v-0.1l0-0.1H3.5
		l0.7-0.9l0,0l0.4-0.5l1.7,0.7h0.1l0,0l0.2,0.1h0.1l0,0l0,0l0,0h0.2l0,0l0,0l0,0h0l0,0l0.9,0.2l0.1-0.3l-1.4-0.3l-1.2-0.5l0.1-0.1
		l0.1-0.1l0,0l0,0l-0.1-0.1l0,0l0.1,0.1l0,0l0.2-0.2l-0.3-0.1l0,0l0,0l0.1-0.1l0,0l0.4,0.1H6L6.1,41h0.1V41h0.2l0,0.2h0.1l0.4-0.8
		l-0.1-0.2l0.1-0.2V40l0.5-0.5l0,0l0-0.1l0.1-0.1h0.1l0.5-0.6l0,0l0,0l0.1-0.1l0.2-0.1l0.5-0.5h0l0.2-0.2l0.1-0.1l0.2-0.2l0.2-0.4
		L9.7,37l0,0V37l0,0l0,0l0.1-0.1l1.2-1.5l1-1.3l1.5-1.8l0.1-0.1h0.1l0.8-1.1l0,0l0,0l0.9-1.2l1.5-1.7l0.2-0.2l0.7-0.5l0.1-0.1
		l0.4-0.2l0.2-0.1l0.1-0.1l0.3,0.1l0.6-0.6h0.1l0.1,0.1l0.1-0.1l-0.1-0.1v-0.1l0.4-0.1h0.5l0.1-0.2v-0.1l0.2-0.2l0.2-0.1l0.3,0.1
		l0.4-0.2l0.3-0.3l0.2-0.3L22,25.1l0.1-0.5l0,0v-0.1l0.3,0.1v-0.1l-0.3-0.1l0,0H22l0,0h0.1l0,0l0.3,0.1v-0.1l-0.3-0.1v-0.1L21.9,24
		L21.5,24l0,0l0,0l0,0l-0.4-0.1L20,23.5l-0.3-0.8l0-0.4l0.2-0.8l0.5-0.6l0,0l0.5-0.8l0.2-0.2h0.2l0.6-0.6l0.3-0.1h0.7l0.7,0.1h0.1
		l0,0l0,0l0,0l0.6,0.1h0l0.6,0.3v0.1l0.1,0.2l0.2,0.3l0.6,0.3l0.7-0.2l0.3-0.1l0.2-0.1l0.1-0.1l1.5-1.1l0.4-0.1h0.1h0.1h0l0.5-0.1
		l0.5-0.4l0.8-0.9l0.2-0.1l0.3-0.1l0.4-0.2l0.9-0.7l0.8-0.7l0.7-0.6l0.5-0.3l0.2-0.1l0.4-0.1l0.4-0.1l0,0v-0.3l0.3-0.5l0.9-0.7h0.3
		V13h0.1l-0.3-0.2l1.1-1.1l1.3-1.2l0.2,0.1l-0.2,0.2l0.4-0.1l0.1-0.1l0.1-0.1l-0.1-0.1l0.2-0.1l0.1,0.1l0.4-0.1h0.2V10l0.5-0.3
		l0.3-0.4L44,9.7l0.2,0.1l3.1,0.6l0.1-0.1h0.3v0.1l0.3,0.1l0.8,0.1l0.3,0.1l0.2,0.1l0.4,0.3l0.3,0.2l1.1,0.7l0.5,0.4l0.2,0.1l0,0
		l0.4,0.4l0.1-0.1l0,0l0,0l0,0l0,0l0,0l-0.1,0.1l0.1,0.1l0.1-0.1l0,0h0l0.1,0.2l0,0l0,0h-0.1l0.1,0.1l0.1-0.1l0,0h0v0.1l0,0l0,0
		l-0.1,0.1l0.2,0.3l-0.8,0.6h0h0.3l0,0l0,0l0,0h0l0,0l0,0l0,0L52,14.5h0.1l0,0l0,0h0l0,0H52l-0.1,0.1l-0.1,0.1l0.1,0.1l0,0l0,0l0,0
		l0,0l0,0h-0.1l-0.1,0.1l-0.1,0.1l0,0.1l0,0l0,0l0,0l0,0l0,0l0,0h0l0,0l0.1,0.1l-0.8,0.7h-0.1L49,15.7l-0.5,0.4l0,0h-0.2l0,0l0,0
		l0,0l0,0l0,0h0v0.1l0,0.1l0,0l-0.1,0.2L48,16.8L47.9,17l-0.1,0.2v0.2l0.1,0.1l0.2,0.1l0.1-0.1v-0.1v-0.3l0.1-0.3l0.6-0.5h0l0.4-0.1
		l0.3-0.1V16h0.7l0.6,0.1l1.1-0.6l0.1,0.1h0l0,0l0,0l0,0h0.1l0,0l0,0l0,0l0,0l0,0l0,0h0l0,0l0,0l0,0l0,0h0l0,0h0l0,0l0,0l0,0l0,0
		l0,0l0,0l0,0l0,0h0l0,0l0,0l0.1-0.1l0,0l0,0l0,0l0,0l0.1-0.1l0,0l0,0l0,0l0.1-0.1l0,0l0,0h0.4l0.3-0.2l0,0l0,0l0,0h0l0.1-0.1l0,0h0
		l0,0l0,0l0,0h0L54,15l0,0l0,0l0,0h0.1l0,0l0,0v0.1h0l0,0l0,0l0,0l0,0l-0.1,0.1l0,0l0,0l0,0l0,0h0l-0.1,0.1l0,0l0,0l0,0l0,0
		l-0.3,0.2l0,0h-0.1l-0.1,0.1l0,0l0,0L53,15.6l0,0l0,0l0,0l0,0l-0.1,0.1l0,0l0,0H53v0.1H53l0,0l0,0l0,0h0v0.1h0.1l0,0l0,0l0,0l0,0
		l0,0l0,0h0.1l0.5,0.4l-0.5,0.4l0,0l0,0l0,0l0,0l0.5-0.4l0,0l-0.5,0.4l0,0l0,0l0,0l0,0l0,0l0,0l0,0l0,0l0,0l0,0l0,0l0,0l0,0l0,0l0,0
		v-0.1l0,0l0,0l0,0l0,0h0l0,0l0,0l0,0l0,0l0,0l0,0l0,0l0,0l0,0l0,0l0,0l0,0l0,0l0,0l0,0l0,0l0,0l0,0l0,0h0l0,0l0,0l0,0h0l0,0l0,0h0
		l0,0l0,0l0,0l0,0l0,0l0,0l0,0l0,0l0,0l0,0h0.1l0,0l0,0l0,0h0.1l0,0l0,0l0,0l0,0l0,0l0,0l0,0l0,0h0l0,0l0,0l0,0h0l0,0l0,0l0,0l0,0
		l0,0l0,0l0,0h0l0,0h0.1l0,0l0,0l0,0l0,0H54l0.6-0.5v-1l-0.4-0.3l0,0l0.5,0.3l0.4,0.3h0l-0.1-0.1L54.6,15h-0.1l-0.6,0.5l0,0l0,0l0,0
		h1.4l0,0l0,0l0,0l0,0l0,0l0,0l0,0h0l0,0l0,0l0,0l0,0l0,0l0,0l0,0l0,0l0,0l0,0l0,0l0,0l0,0h0l0,0l0.1-0.1l0,0v-0.1l0,0l-0.1,0.1v0.1
		h0.1l0,0l0,0l0,0l0,0l0,0l0,0l0,0l0,0l0,0v0.1l0,0l0,0l0,0l0,0h0.1l0,0h0l0,0l0,0v0.1l0,0l0,0l0,0l0,0v0.1l0,0l0,0l0,0l0,0l0,0l0,0
		l0,0l0,0l0,0l0,0l0,0l0,0l0,0l0,0l0,0l0,0l0,0l0,0l0,0l0,0l0,0l0,0l0,0l0,0l0,0l0,0l0,0l0,0h0l0,0l0,0l0,0l0,0l0,0l0,0l0,0l0,0l0,0
		h0l0,0l0,0l0,0l0,0l0,0l0,0l0,0l0,0l0,0l0,0v0.1l0,0h0l0,0l0,0h0.1l0,0h0.1h0h0H56l0.1,0.1l0.1,0.3l0.2,0.1l0.1,0.3l-0.8,0.7
		l-0.3,0.2v0.1l0.2,0.1l0.1,0.1l0.1,0.1l0.2,0.2v0.1h0.1l0.1,0.1l0.1,0.1l0,0v0.2l0,0.1v0.2L56.1,19L56,19.1v0.1v0.1v0.2l0.1-0.1
		v-0.1v-0.1l0.1-0.2l0.1-0.1l0.1-0.3v-0.2l0-0.1l0.1-0.3l0.1-0.1v-0.1v-0.1l0.1-0.1h0.2l0.1-0.1h0v-0.1v-0.1l0.1-0.1h0.1v0.1
		l0.1,0.4l0.4,1l0,0.1V19l-0.1,0.2v0.1l0,0V21V21l-0.1,0.5v0.1v0.1h-0.1L57.3,22h0.1l0.1-0.1h0.1h0.1l0.1,0.1h0.1h0l1.4,0l0.1-0.1
		l1.5-0.2l0,0l0,0l0,0l0,0l0,0H61v-0.1l0,0l0,0l0,0l0,0l0,0v-0.1h0v0.1l0,0v0.1l0,0h-0.1l0,0l0,0l1.1-0.1l0.2,0.1h0.1l0,0h-0.1
		l-0.4-0.2l-0.1-0.1l-0.1-0.2v-0.1V21v-0.1l0-0.1h0.1h0.1l0,0h0.1h0.1l0,0H62v-0.1v-0.1l-0.2-1.1l0-0.2l0-0.2l-0.1-0.3l0-0.2v-0.1
		v-0.1l0-0.1h-0.1l0,0l0,0l0,0h0.1v-0.1l-0.1-0.2l0-0.2l-0.1-0.1l0-0.1h0l0,0l-0.2-0.1l0,0l0.2,0.1h0h0.1h-0.1h0l-0.1-0.1v-0.1l0,0
		l0.1,0.1l0,0l0,0v-0.1l0-0.2l0,0l0.1-0.1l0.3-0.1l0.5-0.1h0.5v-0.1h0.3v0.1h0h0.1l0.1-0.1l0.3-0.1h0.1l0,0v-0.1l0,0H64h0.1l0.1-0.1
		h0.1h0.2h0.2h0.3h0.1h0.4l0.1-0.1l0,0v-0.1h0.1V17l0,0l0.1,0.1v-0.1h0.1l0,0.1h0.3l0.2,0.1l-0.3-0.9L66,16.1l0.4-0.4l0,0l-0.2-0.1
		l0,0l0,0l-0.5-0.2l0,0l0,0l0,0l0.2,0.1h0l0,0l0.2,0.1l0-0.1l0,0.1l0.2,0.1l0,0l0.4-0.4l2.5,1.2l0.2-0.1l2.8-3.4l1.1,0.6l0.4-0.5
		l0.8-1h0l0.1-0.1l0.2,0.1l-0.1,0.1h-0.1l-0.8,1l-0.4,0.5l-0.1,0.2l0.3,1.1l0.6-0.1l0,0l0,0l0,0h0.1l0,0l0,0l0,0l0,0v0.1l0,0l0,0
		l0,0l0,0h-0.1l0,0l0,0l0,0l-0.5,0.1l-0.8,1l-0.8,0.1l-0.7,0.8l0.2,0.1l1.4-0.2l0,0l-1.4,0.3l-0.2-0.1L71.3,17l0.1,0.1l0.1,0.2
		l0.8,0.4l0.8,0.4V18l1.5,0.8l0.3,0.1l1.2,0.6h0.1l0.3,0.2l0.5,0.3l0.3,0.2l2.9,1.4l1.5,0.7h0.1H82v0.1h0.1l0.2,0.1l0.2,0.1l0.3,0.2
		l0.2,0.1l0.4,0.2l0.3,0.1l0.1,0.1h0.1l0.5,0.2l0.3,0.1l0.4,0.2v0.2v0.1l0,0l0,0H85l-0.4,0.5L84,25.1l0,0l0,0l0,0l0,0h-0.1l0,0
		l-0.4-0.1l0,0l0,0l0,0h-0.1l0,0h0l0,0h0l0,0h0l0,0l0,0l0,0l0-0.1v0.2l0,0l-0.1,0.2l0,0l0,0l0,0l0,0l0.2-0.1l0.3,0.1l0.4,0.5
		l0.2,0.1l0.3,0.1l0,0.1v0.1l-0.1,0.1h0h-0.1h-0.1L84,26.2l-0.2-0.1l0,0l0,0.1l0,0.1l-0.1,0.1l-0.3,0.4l-0.2,0.1h-0.1L82.9,27
		l-0.1,0.1l-0.1,0.1l-0.1,0.2l-0.1,0.1l-0.1,0.1L82,27.7l-0.2,0.1h-0.5h-0.1h-0.1h-0.1h-0.2h-0.2h-0.1l0,0l0-0.1l0,0v-0.1l0,0l0,0
		h-0.1v0.1l-0.1,0.1h-0.1H80h-0.1h-0.2h-0.2l0,0l0,0h-0.1h-0.1h-0.1v0.1v0.1l0.4,0.3l0,0.1V28l0.1,0.1l0.2,0.2l0.2,0.2l0.2,0.3
		l0.6,0.9l0.3,0.5l0.2,0.3l0.2,0.3l0,0H82h0h0l0.1,0.1l-0.1,0.1V31V31l0.1-0.1l0.1-0.2l0,0l-0.1,0.2L82.1,31l0,0l0.1-0.1l0,0
		L82.1,31l0.2,0.1v-0.1l0-0.1l0,0v-0.1l0,0l0-0.1l0.1-0.1l0-0.1l0,0l0-0.1l0.1-0.1l0-0.1h0l0,0l0-0.1l0,0l0,0l0,0v-0.1l0,0h-0.1
		h-0.1h-0.1h-0.1h-0.1l0,0h0l0,0h-0.1l0,0l0,0.1l0,0l0.1-0.1l0,0.1l0,0l0,0h0.1l0.1,0.1l0,0l0,0l0,0l0,0.1l0,0h0l0,0h0l0,0l0.1,0.1
		l0,0l0.6-0.7l-0.1-0.1l0.2,0.1l-0.1-0.1v0.1l0,0.1l0,0l0,0l0,0l0,0h0l0,0.1l0,0v0.1l0,0l0,0l0,0v0.1h0h0h0l0,0l0,0l0,0h0.1h0.1
		l0.2,0.1l0.1,0.1h0.1l0,0h0l0,0h0.1l0,0l0.1-0.1l-0.1,0.2l0,0l0.1-0.1l0,0l0,0h0l0,0l-0.1-0.1h-0.1l0,0l0-0.1l0,0h-0.1h-0.1h-0.1
		l0,0h-0.1l0,0l0,0l0,0.1l0,0l0,0l0,0.1h0v0.1l0,0l-0.1,0.1l0,0l0,0l0,0l0,0l0.3,0.1h0.1l0,0h0.1h0.1h0.1l0.1,0.1h0.1l0,0l0.1,0.1h0
		l0.1,0.1l0,0l0,0l-0.1-0.1h-0.1h-0.1l0,0h-0.1l0,0h-0.1h-0.1l-0.1-0.1l0,0h-0.1l0,0h-0.1l0,0h-0.1h-0.1l0,0l-0.3-0.1v0.1l-0.1,0.1
		l-0.1,0.1l0,0.1v0.1l1.1,0.6l0.7,0.2l0.7,0.2l0,0l0.2,0.2l0.3,0.2h0.1l0.2-0.1h0.2h0.2l0.4,0.1l0.2,0.1H87h0.1l0,0v-0.1L87,32.1
		l0,0l0.2,0.1h0l0,0v0.1h0.1l0.1-0.1l0,0l0,0l0.2,0.1l0,0l-0.2-0.1h0l-0.1,0.1l0.4,0.2l0.1,0.1h0.1l0.1,0.1h0.1h0.1h0.1h0.2l0.2-0.1
		h0.1h0.1H89h0.1h0l0.2-0.1l0.2-0.1l0.1-0.1l0,0l0,0l-0.4-0.7l-1.5,0.6v0.1h-0.1L87.4,32l1.8-0.7l0.5,0.8l0,0h0.2l0.2,0.1h0.1
		l0.3-0.2l0.2-0.1l1-0.6l0.8-0.6l0.3-0.2l0.4-0.3h0.1l0.3-0.2l0.1-0.1l0.3-0.1h0.1l-0.1-0.1h0l0-0.1l0,0l0.1,0.1l0,0l0.1,0.1
		l0.2-0.1h0v-0.1v-0.1v-0.1v-0.1V29l0-0.1l0.2-0.2h0.1l0.2-0.1l0.1-0.1l0.2-0.1l0.6-0.2l0.4-0.1v0.1h0.2H97h0.2h0.1l0.1-0.1l0.2-0.4
		h-0.1l-0.2-0.1v-0.1l-0.1-0.1v-0.2l0,0v-0.1l0.1-0.1V27l0,0l-0.1-0.1h-0.1l0,0v0.1H97h0V27h0v0.1L97,27.2l-0.1,0.1h-0.1v0.1v0.1
		v0.1h-0.2h-0.2l0,0l0,0l0,0v-0.1h-0.1v0.1h-0.1v-0.1l0,0H96V28l0,0v-0.1h-0.2h-0.2V28l0,0l0,0l0,0v-0.1h-0.2V28h0l0,0l0,0h0l0,0
		l-0.3,0.1h0l0,0h0.1V28l0,0h-0.2v0.1l0,0h0V28h-0.1h-0.2l-0.3,0.1l-0.1,0.1h-0.1H94l-0.2,0.1h-0.1h-0.1h-0.2L93,28.2l-0.3-0.1
		L92.3,28h-0.1h-0.1l0-0.1l-0.2-0.1h-0.1h-0.1h-0.1h-0.1h-0.1l-0.1-0.1l-0.2-0.2l-0.1-0.1l0-0.1v-0.1l-0.1-0.1v-0.1l0-0.1l-0.1-0.2
		l0-0.1l-0.1-0.1h0h0l-0.1-0.2h0.1l0.2-0.1l0,0l0,0l0,0v-0.1l0,0l0,0l0,0l0,0l0,0h-0.2l0,0h-0.1L90,25.8l0.1-0.2l0.2-0.1l0,0l0,0
		l0,0l-0.1-0.7l0,0l0,0l0,0v-0.1h0l-0.1-0.1h-0.1H90l-0.2-0.1l-0.1-0.1l-0.1-0.1l0,0l-0.1-0.2l0,0v-0.1l0,0l0,0h-0.1l0,0h-0.3l0,0
		l0,0v0.1l0,0v-0.1h-0.7l0,0l0,0V24l0,0v0.1h0.7v-0.1l0,0V24h0.3v-0.1l0.1-0.1h-0.1v-0.1h0.2L89.3,23l0.1-0.1l0.3-0.4l0.2-0.4v-0.1
		l-0.1-0.4l-0.1-0.2V21V21l0.1-0.2l0,0v-0.1l0,0v-0.1v-0.1v-0.1l-0.1-0.1l0,0h-0.1v-0.1h0.1v-0.8h-0.1v-0.1h0.1l0,0v-0.2v-0.1V19
		v-0.1v-0.1v-0.1v-0.1l0,0l0,0l0,0l0,0l0,0h-0.1l0,0h-0.1l0,0l0,0l0,0l0,0l0,0l0,0l0,0h-0.2l0,0h0.2v-0.1l0,0l0,0l0,0l0,0v-0.1l0,0
		l0,0l0,0h-0.2l0,0h-0.1l0,0h-0.1l0,0h0.1v-0.2l0,0l0,0h0.1h0.1v-0.2l0,0l0,0l0,0h-0.1v0.1l-0.3,0.1l0,0h0v0.1l-0.5,0.1l0,0
		l-0.2,0.1v0.1h-0.2l0,0l-0.2,0.1l0,0h0.2l0,0h0.1v-0.1l0,0v-0.1l0,0l0,0h0.1l0,0h0.2l0,0l0.5-0.1l0,0l0,0l0,0h0.1h0.2v-0.1h-0.1
		l0,0h-0.1l-1.9,0.1v0.2l0,0v-0.3l0,0l0,0l1.9-0.1h0.1V18h0l0,0l0,0h0.1l0,0l0,0v-0.1h0l0,0l0,0l0,0h-0.2l0,0h-0.4l0,0l0,0l0,0l0,0
		V18l0,0V18h-0.9V18h0v-0.1l0,0V18h0.9v-1h0.8l0,0l0,0l0,0l0,0v-0.2l0,0l0,0l0,0h-0.1l0,0l0,0l0,0v-0.1v-0.1v-0.1l0,0l0,0l0,0l0,0
		l0,0l0,0h-0.8l0,0h0.8v-0.4l0,0h0.5v-0.1l0,0l0,0h-0.1l0,0l0,0l0,0l0,0l0,0l0,0l0,0l0,0l0,0l0,0l0,0l0,0l0,0l0,0l0,0l0,0l0,0l0,0
		l0,0l0,0l0,0l0,0l0,0l0,0h-0.1h0h-0.1l0,0h-0.2h-0.1h-0.3l0,0l0,0l0,0l0,0l0,0l0,0l0,0l0,0h-0.1h-0.1l0,0h-0.1h-0.1h-0.1l0,0l0,0
		l-0.4,0.1h-0.7h0H87v0.2H87h-0.1h-0.1H86h-0.1h-0.5l0,0l0,0l0,0l0,0l0,0v-0.8h-0.2v-0.1h-0.1v-0.1v0.1h0v-0.1l0,0h-0.1h-0.3v0.1
		h-0.2l0,0v0.1l0,0v0.1l0,0l0,0h0l0,0l0,0v-0.1v-0.1l0,0l0,0l0,0l0,0l0,0h-0.1h-0.1h-0.9l0,0h0l0,0h0l0,0l0,0l0,0l0,0l0,0v-0.1l0,0
		l0,0l0,0h0H83l0,0h0l0,0l0,0l0,0v-0.1v-0.1v-0.1l0,0v-0.1l0,0l0,0l0,0l0,0l0,0h0l0,0h0.1V15l0,0l0,0v-0.1l0,0l0,0l0,0l0,0l0,0H83
		l0,0l-0.1-0.1l0,0l0,0l-0.1-0.1l0,0l0,0l0,0l0,0h-0.4l0-0.2l0,0v0.1l0,0v-0.1l0,0l0,0h-0.1l0,0l0,0v0.1l0,0l0-0.1h-0.1l0.1,0.4l0,0
		l-0.1-0.4h0.1h0.3l0,0l0,0l0,0h0.1l0-0.1h-0.1l0,0l0,0l0,0v-0.1l0,0l0,0l0,0l0,0l-0.1-0.1l0,0l0.1,0.1v-0.1l0,0v-0.1l0,0l0,0l0,0
		l0,0l0,0h0l0,0h0h0l0,0h-0.3l0,0l0,0v-0.1l0,0l0,0l0,0l0,0l0,0v-0.1l0,0l0-0.1l0,0l0,0h0l0,0l0,0l0,0l0,0l0-0.1h0l0,0l0,0l0,0l0,0
		l0,0l0,0h0.1l0,0l0,0h0h0h0.1h0.1l0,0l0,0l0,0l0,0l0,0.1l0,0l0,0h0l0,0h0.1l0,0l0,0l0,0l0,0h0.1l0-0.1l0.2-0.1l0,0l0,0l0,0l0,0l0,0
		l0,0h0.1l0,0l0,0l0,0l0,0h0l0,0l0,0v-0.2l0,0l0,0l0,0l0,0l0,0l0,0l0,0l0,0l0,0h0.1H84h0.1h0.1h0.1h0.2h0.1H85h0.1l0,0h0.2h1h0.1
		h0.1l0,0h0.1l0,0v-0.1h0.1l0,0l0,0h0l0,0l0,0v-0.1H86h-0.1h-0.4l0,0l0,0l0,0l0,0l0,0l0,0l0,0l0,0l0,0l0,0l0,0v-0.2v-0.1v-0.1v-0.1
		V13V13l0,0l0,0v-0.1l0,0l0,0l0,0l0,0v-0.1v-0.1v-0.1v-0.2v-0.1V9l0,0l0,0l0,0l0,0l0.2-0.1h0.1h0.1h0l0.1-0.1h0.1l0,0h0.1l0,0h0l0,0
		h0.1l0,0l0,0h0.1l0.1-0.1h0l0,0l0,0l0,0l0,0l0,0l0,0l0,0l0,0l0,0l0,0l0,0V8.7l0,0l0,0l0,0l0-0.1l0,0l0,0l0-0.1h-0.1l-0.1-0.1l0,0
		l0,0l-0.1-0.1h0l0,0l-0.1-0.1H86l0-0.1l0,0V8.2l0,0V8.1l0,0V8V7.9l0,0l0,0l0,0V7.9V7.5V7.5V7.4V7.3V6h0l0.1-0.1h0h0.1l0.1-0.1h0.1
		h0.1h0.1l0,0l0-0.1h0V5.6V5.5l0,0h0.1l0,0v0.1l0,0.1v0.1L87,5.8l0,0l0.1,0.1l0.1,0.1h0l0,0h0.1L87.4,6L87.5,6l0.1,0.1h0.1l0.1,0.1
		L88,6.2h0.1h0.1h0.1l0.1,0.1h0.1h0.1h0.1H89h0.1l0.1,0.1h0.1h0.2h0.1l0,0l0,0l0,0V6.2l0,0l0,0l0-0.1V6l0-0.2V5.7l0.1-0.1l0.1-0.1
		l0,0l0,0l0,0V5.3V5.2V5.2V5.1V5l0.1-0.1l0.1-0.1L90,4.8h0.1h0.1h0.1h0.1h0.1h0.1h0.1H91h0.2l0,0l0,0h0.1h0.1h0l0-0.1l0,0h0.1
		l0.1,0.1h0.1h0.4l0,0v0.1v0.1l0,0h0L92.2,5l0,0.1l0.1,0.1h0l0.1,0.1v0.1v0.1v0.1l0,0l0,0l0.1,0.1l0,0h0.1h0.6h0.1h0.1h0l0,0l0,0
		V5.4V5.3V5.2l0,0h0.1l0,0l0,0l0,0.1v0.1h0.1l0,0l0,0V5.2l-0.3-0.6h0.1l0.3,0.6L94.3,5l-0.5-1h0l0.5,1h0h0.1l0.1,0.1l0.1,0.1
		l0.1,0.1h0l0,0h0.1l0,0l0-0.1V4.9V4.8l-0.1-0.1l0,0l0,0H95V4.7l0,0l0,0l0.5-0.5l0.4-0.1l-0.2-0.6h0l0,0l0.9-0.2l0,0L97.3,3l0,0
		l0.4-0.1l0,0L97.3,3l-0.6,0.4l-0.8,0.1l0,0l0.2,0.5L96.8,4l0.5,0.2l0,0l0.8,2h0l0.1,0.1l0,0.1l0.1,0.1v0.1l0,0.1l0.2,0.5l0.2,0.4
		v0.2l0,0.2V8v0.1l-0.1,0.1l0,0.1h0h0l0,0h0h-0.1l0,0h0l0,0l0,0l-0.1,0.2l0,0.1l0,0l0,0l0,0l0,0l0,0l0,0l0,0v0.1h0l0,0l0,0v0.2l0,0
		h0.1l0,0h0.4l0,0h0.7H99l0,0h-0.1l0,0l0,0l0,0l0,0l0,0v0.1V9v0.2l0,0l0,0l0,0l0,0v0.1l0,0l0,0l0,0l0,0l0,0l0,0l0,0l0,0l0,0v0.1v0.1
		l0,0l0,0v0.1l0,0l0,0V9.3l0-0.1l0,0V9.1l0,0l0,0V9h0.3l0,0l0,0h0.1l0,0h0.2h0l0,0l0,0h0.1l0,0h0h0.1h0.1h0.2l0,0l0,0l0,0l0,0l0,0
		l0,0v0.1l0,0l0,0h0l0,0h0.1h0l0,0h0.1h0.1h0.2h0.3l0,0h0l0,0h0l0,0l0,0l0,0v0.1l0,0l0,0v0.1l0,0l0,0l0,0l0,0l0,0h0.1l0,0h0.1l0,0
		l0,0l0,0l0,0l0,0h0h0.9h0h0.1l0,0l0,0l0,0h0l0,0h0.2l0,0h0h0h0.1l0,0l0,0l0,0h0.1l0,0l0,0l0,0l0,0l0,0l0,0l0,0l0,0l0,0V9.3l0,0l0,0
		l0,0l0,0l0,0h0l0,0h0.1l0,0l0,0l0,0l0,0l0,0l0,0l0,0l0,0h-0.1H103l0,0h-0.1l0,0l0,0l0,0l0,0l0,0l0,0V9.2l0,0l0,0V9.1V9l0,0V9l0,0v0
		l0,0l0,0l0,0V8.9h0l0,0l0,0l0,0l0,0V8.9l0,0V8.8l0,0V8.7l0,0l0,0l0,0l0,0l0,0l0,0l0.1-0.1l0,0l0,0h0V8.6l0,0l0,0l0,0l0,0h0h0.1l0,0
		h0l0,0h0h0.1h0.1l0,0l0,0h0.1l0,0h0.1l0,0h0.1h0.1l0,0h0.1h0.1h0.1h0l0,0l0.1-0.1l0-0.1h1.1h0.1h0.1l0,0l0,0l0,0l0.1-0.1l0,0l0-0.1
		h0.1l0-0.1h0l0.1-0.1h-0.1l-0.5-0.3V7.8l0.6,0.3h0.1l0,0l0.2-0.1l0,0l0,0l0,0h0h0V7.9l0.1-0.2V7.6V7.5V7.4l0,0V7.3l0,0V6l0,0V5.9
		V5.9V5.6l0,0l0,0l0,0l0,0l0,0l0,0V5.5l0,0l0,0V5.4l0,0l0,0l0,0l0,0l0,0l0,0l0,0l0,0l0,0l0,0l0,0l0,0l0,0V5.4l0,0V5.3l0,0V5.3l0,0
		l0,0l0,0l0,0l0,0l0,0l0,0l0,0h-0.1V5.1l0,0l0,0l0,0l0,0l0,0l0,0l0,0V5.1l0,0l0,0V5l0,0l0,0h-0.1l0,0l0,0l0,0l0,0l0,0l0,0l0,0l0,0
		l0,0l-0.3-0.2l0,0l0,0.1l-0.2,0.2l0,0l-0.1,0.1l-0.1-0.1l0,0l0,0h0l0,0l0,0l0,0l0,0l0,0l0,0l0,0h0l0,0l0,0l0,0l0,0l0,0h0l0,0l0,0
		l0,0l0,0l0,0l0,0l0,0l0,0l0,0l0,0l0,0l0,0l0,0l0,0l0,0l0,0l0,0l0,0l0,0h0l0,0l0,0l0,0l0,0l0,0h0l0,0l0-0.1l0,0l0,0l-0.2-0.1l0,0
		l0,0l0,0h-0.1l0,0l0,0h0.1l0,0l0,0l0,0l0,0l0,0l0,0l0,0L105.2,5v0.1l0,0l0,0.1l0,0l0,0l0,0l0,0h0.1l0,0h0l0,0l0,0l0,0h0l0,0h-0.1
		l0,0l0,0l0,0h0.1l0,0l0-0.1l0,0v0.1l0,0.1l-0.2-0.1h0.1l0,0l0,0l0,0L105.2,5l0,0l0.1,0.1l0.1-0.1l0-0.1h0l0,0h0l0,0l0,0h0l0,0h-0.1
		h0.1l0,0h0l0,0h-0.1l0,0l0.1,0.1l0.1-0.1l-0.1-0.1l0,0h0.1l0,0l0,0h0l0,0l0.2,0.1l0.4,0.2h0h0.1h0l0,0h0l0,0h0h0.1h0l0.1-0.1h0.1
		h0.1h0.1h0.1h0.1h0.2l0,0l0,0h0.1l0,0l0,0l0,0l0,0l0,0l0,0l0,0l0,0V5.1h0l0,0h0l0,0l0,0l0,0l0,0l0,0l0,0V5l0,0l0,0l0,0V4.9l0,0l0,0
		l0,0l0,0l0,0l0,0l0,0l0,0l0,0l0,0l0,0V4.8l0,0l0,0l0,0l0,0l0,0l0,0l0,0l0,0l0,0h0h0l0,0h0.1h0l0,0l0,0l0,0l0,0l0,0l0,0l0,0l0,0l0,0
		l0,0l0,0l0,0l0,0l0,0l0,0l0,0h0.4h0h0.2l0,0l0,0l0,0l0,0l0,0l0,0l0,0l0,0l0,0l0,0h0l0,0l0,0l0,0l0,0l0,0l0,0l0,0l0,0l0,0l0,0l0,0
		l0,0h0l0,0l0,0l0,0l0,0l0,0l0,0l0,0l0,0l0,0h1.1l0,0l0,0l0,0l0,0l0,0l0,0l0,0l0,0l0,0l0,0l0,0l0,0l0,0l0,0l0,0l0-0.1h0h0.1
		l-0.2-0.4l0,0l0.2,0.4l0,0l0,0l0,0l0,0h0l0,0l0,0l0,0l0,0l0,0l0,0l0,0l0,0l0,0l0,0l0,0l0,0l0,0l0,0l0,0l0,0l0,0h0l-0.3-0.4l0,0
		l0.2,0.4l0,0l0,0l0,0h0l0,0l0,0l0,0l0,0l0,0l0,0l0,0l0,0l0,0l0,0l0,0l0,0l-0.2-0.2l0,0l0.2,0.3h0.1l0,0l0,0l0,0l0,0l0,0l0,0l0,0
		l0,0l0,0l0,0l0,0l0,0l0,0l0,0l0,0l0,0l0,0l0,0l-0.2-0.3l0,0l0.2,0.3l0,0l0,0l0,0l0,0l0,0l0,0l-0.2-0.3l0,0l0.2,0.3h0V4.7l0.1-0.1
		l0,0l0,0l0-0.1l0,0l0,0V4.5l0.1-0.1l0,0l0,0l0-0.1h0.1l0-0.1h0.1l0.1-0.1h0.1l0.1-0.1h0V4.1l0,0h0l0,0l0,0h0.1h0h0h0.1l0,0h0
		l-0.1-0.3l0,0l0,0"/>
	<path class="st0" d="M154.7,147.6L154.7,147.6L154.7,147.6L154.7,147.6L154.7,147.6L154.7,147.6h0.1h0l0,0l0,0v0l0,0l0,0l0,0l0,0
		l0,0l0,0h0h0.4l0,0l0,0h0h0.1h0h0l0,0l0,0l0,0l0,0l0,0l0,0l0,0l0,0l0,0h0.1l0,0l0,0h0l0,0l0,0l0,0l0,0l0,0l0,0v0l0,0l0,0l0,0v0.1
		l0,0l0,0l0,0v0v0v0.2l0,0v0.9l0,0l0,0l0,0l0,0v0l0,0l0,0l0,0l0,0v0.1l0,0l0,0l0,0h0.1h0h0.1h0l0,0h0.1l0,0h0.1h0.1h0.1h0.1h0.2h0
		h0.6l0,0l0,0l0,0l0,0h0.1l0,0h0l0.1,0l0,0l0,0l0,0h0l0,0l0,0h0.1h0.1l0.5-0.4l0.5,0.4l0.6,0.4l-0.4,0.5h0.4l-0.1,0.1l0,0l-0.1,0.1
		l-0.5,0.5l0.2,0.1l0,0l0-0.1l0-0.1l0,0l0.1-0.1l0.1-0.1l0.2-0.2l0.1-0.2l0.1-0.1l0.2-0.2l0.3-0.3l0.4,0l-0.2,0.5h0.1l0,0l0,0l0,0
		l0,0l0,0l0,0h0.1h0.2l0,0h0.2l0,0h0.1l0,0h0.4l0,0h0.3l0,0h0.4l0,0h0.4l0,0h0.1l0,0l0,0l0,0l0,0l0,0l0,0l0,0l0,0l0,0l0,0l0,0h0.1
		l0,0h0.1l0,0l0,0l0,0l0,0v0l0,0l0,0l0,0h0l0,0l0,0l0,0l0,0l0,0l0,0l0,0l0,0l0,0l0,0l0,0l0,0l-0.1-0.2h0.7l0,0h0l0,0l0.1,0.1h0.2
		l0,0h0.1l0,0h0.1l0,0l0,0l0,0h0l0,0v0l0,0l1-0.1l2.7-0.9l0.8-0.1l0.7-0.2l0.2-0.2l0.3,0.3l0.3-0.1l0.2,0.4v0.1l0.9-0.3l0.1,0.2
		l0.2,0.4l0.6,0.8l0.5,1l0.4,0.6l0.2,0.3l-0.2,0.1l-0.1,0l0.2,0.2l1.5,1.4l0.7,0.8l0.9,0.4l0.6,0.7v0.3l0.1,0.2v0.8l-0.1,2.5v0.2v0
		v0.4l-0.2,0.2l0,0l0,0v-0.1l0,0l0,0l0,0l0,0l0,0l0,0l0,0l0,0l0,0v0l0,0l0,0l0,0l0.1-0.2l0,0l0,0v0.8l-0.1,0.2l0,0l0,0h0l0,0h0v0h0
		h-0.1h0h-0.1l0,0H176h-0.1h-0.1h0l-0.1,0h0v0l0,0l0,0l0,0v0.1l0,0v0l0,0l0,0l0,0h0l0,0h0l0,0h-0.1l-0.1,0.1l0,0l0,0h-0.1l0,0h-0.1
		v0l0,0l0,0l0,0v-0.1v0l-0.1-0.2l0,0l0,0l0,0h-0.1v0l0,0l0,0l0,0l0,0l0,0h-0.1l0,0h0l0,0h-0.1l0,0h0l0,0l0,0l0,0l0,0h-0.3l0,0l0,0
		l0,0l0,0l0,0l0,0l0,0l0,0h-0.1l0,0l0,0l0,0l0,0l0,0l0,0h-0.3l0,0l0,0v0.1l0,0l0,0l0,0l0,0h0.1l0,0h0l0,0h0.3h0.2l0,0l0,0l0,0h0.1
		l0,0h0.3l0,0l0,0l0,0v0v0.2l0,0l0,0l0,0l0,0l0,0l0,0l0,0h0.1l0,0h0.1l0,0h0.2l0,0l0.1-0.1l0.2-0.1V161v-0.2l0.1-0.1v-0.1l0,0h0l0,0
		l-0.1,0l0,0l0,0h0l0,0v0l0.1,0.1l0,0h0h0l0,0h0l0,0l0,0l0,0l0,0l0,0l0,0l0.1-0.1h0.1l0,0l0,0l0,0l0,0h0.1h0.1l0,0l0,0h0l0,0h0.1
		l0,0l0,0h-0.1h0h0l0,0l0,0h0h-0.1v0.1h0.1l0.2,0.1l0,0h0.1l0,0l0,0l0.4-0.3v0.2v1.1l0.3,0.9l0,0l0,0.1h-0.1h-0.2H177l0,0l0,0l0,0
		l0,0v0.1l0,0l0,0l0,0l0,0l0,0H177l0,0h0l0,0v0.1l0,0v-0.1v-0.1h0h0h-0.1h-0.4h0l0,0l0,0l0,0l0,0l0,0l0,0l0,0l0,0l0,0h-0.1l0,0l0,0
		l0,0l0,0v0.1l0,0v-0.1l0,0l0,0l0,0l0,0l0,0v0.1h-0.2v-0.1h-0.1l0,0l0,0l0,0l0,0l0,0V163l0,0l0,0h0h-0.1l0,0h-0.4h-0.1h0l0,0l0,0
		l0,0l0,0l0,0v0.1l0,0l0,0V163l0,0l0,0l0,0l0,0l0,0h0l0,0l0,0l-0.1,0l0,0l0,0h-0.2l0,0l0,0l0,0v0h0l0,0l0,0l0,0h0h0l0,0h0h0h0h-0.1
		h-0.1v0.1h-0.2h-0.1l0,0l0,0l0,0h0h-0.7l0,0l0,0l0,0h-0.1l0,0h-0.1l0,0l0,0l0,0v0.1l0,0l0,0l0,0l0,0h-0.3h-0.1h-0.3h-0.1l-0.3,0h0
		h-0.1h-0.1l-0.3,0.1h-0.1h-0.1H171h-0.1h-0.1l0,0l0,0h-0.1h-0.1v0l0,0h0h-0.1l0,0h-0.1h0h-0.1l-0.1,0.1h0l0,0H170h-0.1v0l-0.1,0.1
		l0,0h-0.1l-0.2,0l-0.4,0.1l-0.2,0.1l0,0l-0.1,0.1h0l-0.1,0.1l-0.1,0h-0.1l-0.1,0l-0.1,0.1l-0.2,0.1l-0.1,0.1l-0.2,0.2l-0.1,0.1
		l-0.1,0.1l-0.1,0.1l-0.1,0.1l-0.1,0.1l-0.1,0.1l0,0l-0.1,0h0l0,0H167h-0.3h-0.1h-0.2l0,0h-0.1l0,0h-0.1h0l0,0l0,0h-0.1l0,0H166l0,0
		l0,0h-0.1l0,0h-0.1h0h-0.1h-0.2h-0.3l0,0H165h-0.1h-0.2h-0.1h-0.1h0H164l0,0l0,0l0,0h-0.1l0,0h0l0,0h0l0,0h-0.1l0,0h-0.2h-0.1h-0.1
		h-1.1l0,0l0,0h0h0l0,0h-0.1l0,0h0l0,0H162h0l0,0h0h-0.1h0h-0.2h-0.1h-0.2h-0.1h0h0h-0.2l0,0l0,0h-0.1h-0.1h-0.1l0,0h-0.1h-0.1H160
		h0h-0.2h-0.1h-0.1h-0.1h-0.1h-0.1h-0.1H159h-0.1h-0.5h-0.1h-0.2h-0.2l0,0l-0.3,0.1h0h-0.2H157h-0.1l-0.3,0l-0.3,0h-0.1H156h-0.1
		h-0.1l-0.3,0l-0.1,0h-0.1h-0.1H155H155h-0.2h-0.4h-0.1h-0.1l-0.1,0h-0.1h-0.1h-0.1h-0.1v0h-0.2h-0.1H153l0,0h-0.2h-0.2l-0.2,0h-0.1
		h0l0,0h-0.1l0,0l0,0l-0.3,0h-0.1l0,0h-0.1l0,0l0,0l0,0H151h-0.1h-0.2h-0.1l0,0h-0.1h-0.4h-0.1h-0.1h-0.3h-0.1l0,0h-0.2l0,0h-0.1
		l0,0l0,0h-0.1l0,0l0,0l0,0h-0.7h-0.1h-0.1H148l0,0h-0.1l0,0h0l0,0l0,0h-0.1h-0.1h-0.2h-0.1l0,0l0,0l0,0l0,0h0l0,0h-0.1h-0.1h-0.1
		h-0.1h-0.1h-0.2h-0.1h-0.1l0,0h-0.1h-0.1l0,0l-0.1,0l0,0h-0.1h-0.1H146h0l-0.1,0h-0.1l-0.1,0h-0.2l0,0h-0.1h-0.2h0h0h-0.1l0,0h-0.2
		l0,0h-0.1h-0.1l0,0h0h-0.1l0,0h-0.1l0,0h0h0h-0.9l-0.1,0h0h-0.3h-0.1l-0.1,0h-0.1l0,0l0,0h0h0h-0.1l0,0h-0.1l0,0h-0.1h-0.1H142
		l-0.2,0.1l-0.1,0.1h-0.2h-0.1h-0.1l-0.1,0l-0.2,0h-0.1h-0.1h-0.1h-0.1h-0.2h0h-0.1h-0.1H140h-0.1h-0.1h-0.1h-0.2h-0.1l-0.1,0h-0.1
		h-0.1h-0.1h-0.1h-0.1h-0.1h-0.1h-0.1h-0.1h-0.1l-0.4,0.1l-0.2,0.1l0,0l0,0l0,0h0l0,0l0,0l0,0h-0.1h-0.1h-0.1l0,0l0,0l0,0l0,0l0,0
		l0,0l0,0h-0.2h0h-0.1l0,0h-0.1l0,0h-0.1h0h-0.1h-0.1h-0.1h-0.1h0l-0.2,0h0h-0.1l0,0l0,0h0l0,0h-0.1h-0.5l0,0h-0.1l0,0h-0.1h0h-0.1
		h-0.1h-0.1h-0.1h-0.1l0,0l0,0l0,0h-0.1h-0.1h-0.2h-0.1h-0.1l0,0h-0.2h-0.1l0,0l0,0h0h-0.1h-0.1l0,0l0,0l0,0l0,0h-0.2h0h-0.1l0,0
		H133l0,0l0,0v0l0,0l0,0l0,0l0,0h-0.1h-0.1h-0.1l0,0h-0.3l0,0h0l0,0h0l0,0h-0.2l0,0h-0.3l0,0h-0.1l-1.5,0.4H130h-0.1h-0.2h-0.1h0
		l0,0l-0.3,0.1h-1l0,0h0l-0.1,0h0h0l-0.1,0l-0.3,0h-0.1h-0.1h-0.2h-0.1h-0.1l0,0h0h0l-0.1,0.1h-0.2h-0.1h-0.1l-0.2,0l-0.1,0H126h0
		h-0.1l-0.1,0l0,0l0,0l0,0l0,0l0,0h-0.1l-0.3,0.1h-0.1h-0.1h-0.1h-0.1l-0.1,0h-0.1h0h-0.1l-0.2,0h0h-0.1l-0.2,0H124h-0.1h0l0,0h-0.1
		h-0.4h-0.1h0h-0.1h0H123l0,0l-0.1,0l0,0l-0.2,0l-0.2,0.1l0,0h-0.1l-0.2,0.1h-0.1h-0.3h-0.4l0,0h-0.2h0l0,0h0h-0.1l0,0l0,0H121H121
		l-1.4,0.1l-0.6,0.1l-0.4,0l-0.4,0H118h-0.1l-0.1,0l-0.3,0.1l-0.2,4h-0.1l-0.4,0.1l-0.2,0.1l-0.2,0l-0.2,0.1l-0.1,0H116l0,0l-0.2,0
		l-0.3,0.1l-0.2,0.1h-0.1l-0.2,0.1h-0.2l-0.5,0.1H114l-0.4,0.1h-0.1l-0.2,0.1h-0.1h-0.1l-0.2,0l-0.6,0.1h-0.1l0,0l-0.7,0.2l-0.5,0.1
		h-0.1H111h0h-0.1l-0.2,0.1l-0.4,0.2l-0.4,0.1l-0.2,0.1h-0.2h-0.1l-0.2,0l-0.1,0l-0.2,0.1h-0.2l-0.4,0.1l-0.5,0.1l-0.4,0.1l-0.1,0
		l-0.2,0.1l-0.3,0.1l-0.3,0.1l-0.3,0.1l-0.2,0.1h-0.1l-0.3,0.1h-0.1l-0.2,0.1l0,0h0l0,0H105h-0.1h-0.1l-0.1,0h-0.1l-0.1,0.1
		l-0.2,0.1h-0.1H104h-0.2h-0.1l-0.1,0.1h-0.2h-0.1h0l-0.3,0.1l-0.2,0.1h-0.1l-0.3,0.1l-0.2,0l-0.2,0l-0.2,0.1l-0.3,0.1l0,0l-0.1,0
		l-0.4,0.1l-0.3,0.1l-0.2,0.1l-0.1,0h-0.1h-0.1h0H100l-0.5,0.2h0l-0.4,0.2l-0.1,0.1l-0.2,0l-0.2,0l-0.1,0.1l-0.1,0L98,177l-0.6,0.2
		l-0.6,0.2l-0.7,0.3l-0.5,0.2l-0.6,0.2l-0.7,0.2l-0.6,0.2l-0.6,0.2l-0.7,0.2h-0.1l-0.6,0.2l-0.6,0.2l-0.8,0.3h-0.1h-0.1l0,0h0l0,0
		l-0.1,0h-0.1l0,0h-0.1h-0.1h-0.1h-0.1l-0.1,0l-0.2,0.1l-0.1,0h-0.1h-0.1l-0.1,0l-0.2,0.1h-0.1h-0.1l-0.2,0.1l-0.1,0.1H88h0
		l-0.3,0.1l-0.4,0.1l-0.3,0.1h-0.2l-0.2,0.1h-0.2l0,0h-0.1l-0.1,0l-0.1,0.1l-0.2,0l-0.2,0.1h-0.1l0,0h0v0l-0.2,0l-0.2,0.1h-0.2h-0.1
		h-0.1h-0.1h-0.1l-0.2,0.1h-0.2H84h-0.1l-0.2,0.1l-0.1,0.1h0l-0.2,0.1h0l0,0h-0.1l-0.3,0.1l-0.2,0.1l-0.5,0.2l-0.1,0h-0.2l0,0H82
		h-0.1h0h-0.1h-0.1l-0.1,0.1l-0.7,0.3l-0.7,0.3H80l-0.1,0.1l-0.1,0.1h-0.1h-0.2l0.1,0.2l0,0v0l-0.1-0.2l0,0l-0.2-0.1h-0.1h-0.2h-0.1
		h-0.1l-0.1,0l-0.4,0.1h-0.1H78h0h-0.3h-0.1h-0.1l0,0h0h-0.1h0h0l-0.4,0.2l0,0h-0.1h-0.1l0.1,0.1l0.2,0.3l0,0l-0.2-0.3l0-0.1h-0.2
		l0,0h-0.1l0,0l0,0l-0.1,0h0h0l0,0l-0.1,0.1l0,0l0,0l0,0h-0.1l0,0l0,0h0h-0.1l0,0h0h0h-0.1l0,0h-0.1l0,0l0,0l0.1,0.1l0.1,0.2l0,0
		l-0.1-0.2l-0.1-0.2h-1.1h-0.2H74h0h-0.1l-0.2,0.1h0h-0.1l-0.1,0.1l-0.1,0l-0.2,0.1h0h-0.1l-0.1,0l0.1,0.1l0.2,0.3l0,0l-0.2-0.4
		l-0.1-0.1h-0.1h-0.1h-0.1l-0.1,0l0,0h-0.1l0,0h-0.1h-0.1h-0.1H72l-0.1,0.1l-0.3,0.1l-0.1,0h-0.1h0l0,0l0,0.1l0.2,0.3l0,0l-0.1-0.2
		v0l0-0.1l0,0l0,0l0,0l0,0h-0.2l0,0H71h-0.1l0,0h-0.1h0l0,0l0,0h0h0h0h-0.3l0,0h0h0l0,0l0,0l0,0h-0.1l0,0h-0.1h0l0,0l0,0h0l0,0l0,0
		h0l0,0l0,0l0,0l0,0l0,0l0,0l0,0h0l0,0h-0.1l0,0h-0.1h0l0,0h0h0l0,0h0v0.1v-0.1l0,0h-0.1l0,0h-0.1l0,0l0,0l0,0h0l0,0l0,0l0,0l0,0
		l0,0h-0.1l0,0v0v0l0,0l0,0h-0.1h0l0,0l0,0l0,0l0,0l0,0l0,0l0,0l0,0l0,0l0,0l0,0h0v0l0,0l0,0l0,0l0,0l0,0l0,0h0l0,0h0l0,0h0l0,0l0,0
		l0,0l0,0l0,0l0,0l0,0h-0.1h-0.1h-0.1h-0.1h-0.1h-0.1h-0.1l0,0h-0.1h-0.1h-0.1l-0.1,0l-0.1,0h-0.1l-0.1,0h-0.1h-0.1l-0.1,0.1l-0.1,0
		h-0.1l0,0h-0.1l0,0h-0.1l0,0l0,0h0l0,0h0l0,0H67l0,0h0l0,0h0l0,0l0,0l0,0h0l0,0l0,0l0,0v0l0,0l0,0l0,0l0,0l0,0l0,0l0,0h-0.2l0,0
		h-0.2l0,0h-0.2l0,0h-0.1l0,0h-1.8l0,0l0,0l0,0l0,0l0,0l0,0l0,0l0,0l0,0l0,0l0,0l0,0l0,0h0l0,0h0l0,0l0,0l0,0h-0.1l0,0l0,0l0,0h0
		l0,0H64l0,0l0,0v0.1l0,0l0,0l0,0l0,0v0h-0.6l0,0h0l0,0h0l0,0l0,0l0,0l0,0l0,0h0l0,0l0,0l0,0l0,0l0,0l0,0l0,0l0,0l0,0l0,0l0,0l0,0
		h-0.1l0,0l0,0l0,0l0,0l0,0l0,0l0,0l0,0l0,0h0l0,0l0,0l0,0l0,0l0,0l0,0l0,0l0,0l0,0h0l0,0l0,0v0l0,0l0,0l0,0v0l0,0l0,0l0,0h-1.8l0,0
		h-0.1l0,0h-0.1l0,0H61l0,0h-0.1l0,0h-0.1l0,0l0,0l0,0l0,0l0,0l0,0l0,0l0,0l0,0h0l0,0l0,0l0,0l0,0l0,0l0,0l0,0l0,0l0,0l0,0l0,0l0,0
		l0,0l0,0l0,0h0l0,0l0,0l0,0l0,0l0,0l0,0l0,0l0,0l0,0v-0.1h-1.4l0,0l0,0l0,0l0,0l0,0l0,0l0,0h0l0,0h-0.1l0,0h0l0,0l0,0l0,0l0,0l0,0
		l0,0l0,0l0,0l0,0l0,0l0,0l0,0l0,0h0l0,0H59l0,0l0,0l0,0l0,0l0,0l0,0l0,0h0l0,0l0,0l0,0l0,0l0,0l0,0l0,0l0,0l0,0h0l0,0l0,0v0.1l0,0
		l0,0v-0.1h-0.1l0,0h-0.3l0,0l0,0l0,0h-0.1l0,0h0l0,0h0l0,0l0,0l0,0h-0.1l0,0l0,0l0,0h0l0,0l0,0l0,0h0l0,0H58l0,0l0,0l0,0h0l0,0
		h-0.1l0,0h0l0,0h-1.6l0,0l0,0l0,0h0l0,0l0,0l0,0l0,0l0,0h-0.1l0,0l0,0l0,0l0,0h0l0,0v0.1v0l0,0v0l0,0v0l0,0H56l0,0l0,0h0l0,0h-0.1
		l0,0h-0.6l0,0h-0.1l0,0h-0.1l0,0H55l0,0h-0.1l0,0h-0.1l0,0l0,0l0,0l0,0l0,0l0,0l0,0l0,0l0,0h-0.1l0,0h0l0,0l0,0l0,0l0,0l0,0l0,0
		l0,0l0,0l0,0l0,0l0,0l0,0l0,0h0l0,0l0,0l0,0l0,0l0,0l0,0l0,0l0,0l0,0l0,0l0,0l0,0l0,0h0l0,0h0l0,0l0,0.1v0l0,0l0,0l0,0v-0.1l0,0
		l0,0l0,0l0,0l0,0l0,0l0,0l0,0h0l0,0h-1.3l0,0h-0.2l0,0h-0.1l0,0l0,0l0,0l0,0l0,0l0,0l0,0H53l0,0h0l0,0h-0.1l0,0l0,0l0,0l0,0l0,0
		l0,0l0,0l0,0l0,0h-0.6l0,0h0l0,0l0,0l0,0h0l0,0h-0.1l0,0l0,0l0,0l0,0l0,0l0,0v8.8l0,0l0,0l0,0v-0.1l0,0v0l0,0l0,0l0,0l0,0l0,0l0,0
		l0,0l0,0l0,0l0,0h-0.1l0,0h-0.2l0,0h-0.3l0,0h-0.1l0,0l0,0l0,0h-0.1l0,0h-0.1l0,0h0l0,0l0,0l0,0h-0.1l0,0h-0.1l0,0h-0.1l0,0l0,0
		l0,0v0l0,0l0,0h-0.7l0,0l0,0h-0.1h-0.1H50l0,0H50h-0.1l0,0v0.1l0,0l0,0l0,0l0,0l0,0h-0.3h-0.1h-0.1h-0.1l0,0l0,0l0,0l0,0l0,0l0,0
		l0,0l0,0l0,0l0,0l0,0h-0.1h-0.1h-0.1H49h-0.1h-0.2h-0.4h-0.2h-0.2h-0.2h-0.2h-0.2l-0.2,0H47l-0.3,0.1l-0.3,0.1l-0.3,0.1l-0.3,0.1
		l-0.3,0.1l-0.3,0.1l-0.3,0.1l-0.3,0.1l-0.3,0.1l-0.3,0.1L44,194l-0.3,0.1l-0.2,0.1l-0.2,0.1l-0.2,0.1l-2.3,0.9l-3.6,1.4l-0.6,0.3
		l-0.6,0.3l-0.7,0.2l-0.6,0.3l-5.5,2l-1,0.4l-0.9,0.4l-1.3,0.5l-1.6,0.6l-1.2,0.4l-0.3,0.1l-0.3,0.1l-0.3,0.1l-0.3,0.1l-0.3,0.1
		l-0.3,0.1l-0.3,0.1l-0.2,0.1l-0.3,0.1l-0.2,0.1l-0.2,0.1l-0.2,0.1l-0.1,0.1l-0.1,0.1l-0.1,0.1l-0.1,0.1h-0.1l-0.1,0l-0.1,0h-0.2
		l-0.1,0h-0.2h-0.1h-0.2h-0.2l-0.1,0.8h-0.1l0.5-4.8v-1.2v-0.8l0-0.2v-0.1l0-0.2v-0.2v0.1v-0.2v-0.3v-0.2v-0.2V196v-0.1v-0.2v-0.2
		l0-0.1l0.1-0.2l-0.1-0.2l0.1-0.2l0.1-0.1l0.1-0.1l0.1-0.1l0.1-0.1l0.1-0.1l0.1-0.1l0.1-0.1l0.1-0.1l1.4-0.9l0.1,0l0.1-0.1l0.1,0
		h0.1l0.1,0h0.2h0.2l0.1,0H22h0.2h0.1h0.3h0.1h0.4h0.1h0.1h0.1h0.1h0.1l0.1,0l0.1,0l0.1,0h0.1l0.4-0.2L25,192l2-1.4l0.4-0.2l0.1-0.1
		l0.1-0.1l0.1-0.1l0.1-0.1l0.1-0.1l0.1-0.1l0.1-0.1l0.1-0.1l0.6-0.4l0.3-0.3l0.1,0h0.1h0.1l0.1,0h0.2l0.3-0.1l0.4-0.1l0.7-0.1h0.4
		h0.6h0.8l0.5-0.1l0.1-0.2l0,0l0,0v0h0.1l0,0l0,0l0,0l-0.1,0.2h0.1l0.4-0.1l0.4-0.1l1.1-0.3l0.3-0.1l0.3-0.2l0.2-0.1l0.3-0.2
		l0.3-0.2l0.1,0l0.3-0.2l0.3-0.1l0.2-0.1l0.5-0.2h0.5h-0.1l0.7-0.3l0,0.1h0.2l0,0v0l0,0v-0.5l0,0h-0.1l0,0h0.1h0.2v0h-0.2v0v0.5l0,0
		v0l0,0l0.3-0.1h0.1h0.1h0.1l0.2,0v0h0.2h0.2v0h0.1l0,0l0,0l0,0l0,0l0,0l0,0h0l0,0l0.2-0.3l0,0h0l0,0l0,0l-0.2,0.3l0,0v0.1l0,0
		l0.1,0.2v0.1v0.1h0h0l0,0l0.1,0.1l0.1,0.1l0.1,0h0.1h0.1h0.1h0.2h0.1H43h0.1h0.1v0l0.1-0.1h0l0,0l0,0v0.1h0l0,0v0v0v0v0v0.1l0,0
		l0,0v0h0l0,0v0h0.1h0h0h0.1h0l0.1,0.1h0.1l0.1,0H44H44l0.1,0h0.1h0.1h0.1h0.1h0.1h0.2h0.5h0.2h0.1h0.2H46l0.2,0h0.1h0.2l0.1,0h0.1
		l0.1-0.1l0.1-0.1l0.1,0l0.1-0.1l0,0l0,0h0.1l0.1,0.3l0,0l0,0v0h0.1l0,0h0.1h0.1h0.1H48H48h0.3h0.1h0.1h0.1h0.1h0.2l0.1,0h0.1
		l0.2,0.5h0.1l0.1,0l0.1-0.1l0.1,0l0.1-0.1l2.8-1.6L53,186l0.1-0.2l0.2-0.2l0.1-0.1l-0.1-0.2l-0.2-0.3l0,0l0,0l0,0l0,0l0,0l0,0
		l0.1,0.1l0,0h0.1h0.1v0l0,0l0.1-0.1l0.1-0.1h0l0.1-0.1l0.2-0.1l0,0l0.2-0.1l0.1-0.1l0.2-0.1l0.2-0.1l0.1-0.1l0.1,0l0.3-0.1h0.2l0,0
		l0,0h0.2h0.1h0.1h0.1H56h0.2l0.2,0.1h0.1l0.2,0.1H57h0.3h0.1l0,0l0,0l0,0l0,0l0.2,0.1h0h0.1l0,0h0.4h0.1h0.1l0.2-0.1v-0.1l0,0l0,0
		l0,0h0.1h0.1H59H59l0.3-0.1l0.5-0.2l0,0l0.3-0.1h0.2h0.2h0.1h0.2h0.1H61h0l0,0h0.1h0h0h0.1l0.5-0.2l0,0l-0.5,0.2l0.1,0.1l0.1,0
		l0-0.1l0,0h0l0.2-0.1v0l-0.2,0.1l0,0l-0.1,0l0,0l0.2,0.3l0.2-0.1l0,0l0-0.1l0,0l0.1,0.1l0,0l0,0H62l0,0l0-0.1l0,0l0,0.1l0,0h0.1
		l0,0l0,0l-0.1-0.3l0,0l0.1,0.3l0,0l0,0l0,0h0.1l-0.1-0.1h0.2l-0.2-0.3h-0.2l0,0l0.2,0l0.2,0.3l0.1,0.1h0.2l0,0l0,0l0,0H63l0,0l0,0
		l0,0l0,0l0,0l0,0l0,0h0l0,0l0,0l0,0l0,0l0,0h0.1l0,0v0l0,0h0l0,0l0,0l0,0l0,0l0,0h0.1l0,0h0.1l0,0h0.4l0,0h0.1l0,0h0.2l0,0h0.6l0,0
		h0.1l0,0h0.8l0,0h0.1h0.2H66l0.2,0h0.1h0.1h0.1l0,0l0.1,0h0h0.1l0.2-0.1l0.2-0.1l0.2-0.1h0l0.1,0h0.1l0.2-0.1l0,0l0.1,0h0.1
		l0.3-0.2l0.2-0.1h0l0.2-0.1l0.3-0.2l0.4-0.2l0.6-0.3l0.5-0.2l4.2-2.1l0.4-0.2l0.9-0.4l0.7-0.4l0.9-0.5l0.5-0.2l1.8-1l0.6-0.3
		l0.6-0.3l0.6-0.3l0.6-0.3l0.6-0.3l0.6-0.3l0.6-0.3l0.6-0.3l0.6-0.3l0.6-0.3l0.7-0.2l0.6-0.2l0.7-0.2h0.9h0.5l0.3,0.1l0.7,0.1
		l0.8,0.1l0.8,0.1h0.1h0.7l0.7,0h0.7h0.1l0.7,0h0.8h0.8h0v-0.1v-0.1l0-0.1v-0.1l0-0.1v0l0,0l0,0l0,0l0,0l0,0h0l0,0h0.1l0,0l0,0H97
		l0,0h0.1v0h0.1l0,0h0.1l0,0h0.5l0.8,0h0.5l3.6-1l0,0h0l0.6-0.2l0.3-0.1h0.3l0.3-0.1l0,0l0.5-0.1v-0.1v-0.1l0,0l0.1-0.2l0.1-0.2V170
		l0,0l0,0l0,0l0,0l0,0l0,0l0,0l0,0h0.1h0l0.9-0.3l1.1-0.3l0.2-0.1h0.1l0,0l0-0.1l0,0v0.1l0,0l1.1-0.3l0,0h0h0.2l0,0h0.1h0h0.1l0,0
		h0.1l0.4,0.2l0.4,0.2l0.2-0.1l0.6-0.3l0.3-0.1l0.3-0.1l0.3-0.1l0,0h0.1v0h0l0.2-0.2h0h0h0.1h0l0,0h0.1l0.1,0h0.1h0.1l0.1,0h0.1
		l0.4-0.2V168l-0.1-0.1v-0.1l0,0h0l0,0h0.1l0,0.1h0.1l0,0h0.1h0.1h0.1h0h0l0,0h0h0l0,0l0,0l0,0l0,0l0,0h0l0,0l0,0l0,0l0,0l0,0l0,0
		l0.1,0h0.1h0l0,0l0,0h0l0.5-0.2l0,0h0l0,0l0,0v-0.1l0,0l0,0h0v0l0,0l0,0l0.1,0l0,0l0.1,0h0.2l0,0l0,0l0,0h2.4l0,0h0.1h0.1l0,0l0,0
		h0l0,0l0.3-0.2l-0.3-0.5l0,0l0.3,0.5l0.1-0.1l0,0h0.1h0.1h0.1h0.1l0,0l0,0h0l0,0h0h0h0.1l0,0l0.1,0l0,0h0h0.1l0.1,0l0.1-0.1l0-0.1
		v-0.1v-0.1l0,0h0v0l0,0v-0.1l0-0.2V166h0l0,0v0.1v0.1v0.1v0.2v0.1v0.1v0.2h0.1h0.1v0l0,0v-0.1l0,0v0h0.1l0,0l0,0v-0.1v0l0,0v-0.1
		l0,0h-0.1l0,0l0,0h-0.1h-0.1v-0.3v-0.1h0l0,0l0.2-0.1l0,0l0,0l0,0h-0.1l0,0l0,0h-0.1v0.1h0.1h0h0.1l0,0h0.1l0,0h0.1l0,0h0l-0.4,0.1
		v0.2h0.1l0,0l0,0h0.2l0,0l0,0v0.1l0,0v0l0,0V165v0.1l0,0l0,0l0.5-0.1l0,0l0,0h0.1h0l0,0l0,0l-0.1-0.6h0.1l0.1,0.5l0,0v-0.2l0,0v0h0
		v0.2h0.1l0.1-0.2v-0.1v-0.1l-0.1-0.4l0,0h0.1l0,0l0,0l0,0l0,0l0,0l0,0l0,0l0,0h0.1l0,0h0.7l0,0l0,0l0,0l0,0l0,0l0,0l0.2,0.1h0.1
		h0.1l0.1,0l0,0l0,0l0,0h0.1l0,0h0l0,0l0,0l0,0l0,0h0h0.1l0,0l0,0l0.1,0l0,0l0,0l0,0l0,0l0,0h0l0,0l0,0l0,0l0,0h0.1l0.1,0l0,0l0,0
		l0,0h0.1l0,0h0.1l0,0l0,0h0h0l0,0h0h0.1h0l0,0h0h0l0,0l0,0l0,0l0,0l0,0l0,0l0,0v0.1v0.1v0.2v0l0,0l0,0l0,0v0v0.3l0,0v0.9v-0.1v-0.1
		l-0.1-0.3v-0.3l0,0l0,0l0,0l0.5,0.2h0h0l0,0l0.1,0.1h0l0,0h0.1l0,0l0,0l0,0h0l0.1,0l0,0l0,0l0,0l0,0v0l0,0l0,0v-0.1v-0.1v-0.1l0,0
		l0,0l0,0h-0.1l0,0h-0.1l0,0h-0.1l0,0l-0.1,0h-0.1h0l-0.1,0l0,0l0,0h-0.1h0l0,0l0,0H123h0h0l-0.1,0l0,0l-0.2-0.1h0l-0.1,0l0,0h0l0,0
		h-0.1l-0.2-0.1H122l-0.1,0l0,0h-0.1l0,0h-0.1h0l0,0l0,0l0,0l0,0h-0.1h0l0,0l-0.1,0l0,0l0,0v0v0v0l0,0v0l0,0l0,0l0,0l0,0l0,0l0,0
		l0,0l0,0l0,0l0,0l0,0l0,0v-0.1l0,0l0,0l0,0l0,0l0,0l0,0l0,0l0,0h0l0,0h0.1v-0.1l0,0h0l0,0l0,0l0,0v0l0,0h0.1h0l0,0l0,0V163l0,0l0,0
		l0,0l0,0l0,0l0,0v0l0,0l0,0l0,0l0,0l0,0l0,0l0,0l0,0v0v0l0,0l0,0l0,0l0,0v-0.1h0.1l0,0l0,0l0,0l0,0l0,0l0,0h0.2l0,0h1.5h0h0.1l0,0
		l0,0h0.1l0,0l0,0l0,0l0,0h0l0,0l0,0h0l0,0l0,0h0.1l0,0h0.1h0l0,0l0,0h0l0,0l0,0l0,0h0l0,0l0,0l0,0h0l0,0h0h0l0,0l0,0l0,0l0,0h0l0,0
		l0,0l0,0l0,0h0h0l0,0l0,0l0,0l0,0l0,0l0,0l0,0l0,0l0,0l0,0l0,0l0,0l0,0v0l0,0l0,0l0,0l0,0v0l0,0v0.5l0,0l0,0l0,0v0.1v0.1l0,0l0,0v0
		l0,0l0,0l0,0h0l0,0l0,0l0,0v0l0,0l0,0l0,0l0,0h0.1l0,0l0,0l0.3,0.1l0.2,0.1l0,0h0.1l0,0h1.3h0.3l0-0.4v-0.1h0.1l-0.1-0.5V163h-0.1
		h-0.1h-0.1h-0.1h-0.1H126l0,0l0,0l0,0v-0.1v-0.1v0.1h0.1h0.1h0h0.1h0h0.1l0-0.2h-0.2h0h-0.1h-0.2v0.1v-0.2l0,0v0.1l0.3,0l0,0h0.1
		l0,0h0.1h-0.1l0,0h0.1v0h0.2v-0.1h-0.3v-0.1h-0.2h0l0,0l-0.1,0l0,0l-0.2,0.1l0,0v0l0,0l0,0l0,0l0.2-0.1l-0.1-0.1l0,0l-0.2,0.1v-0.1
		l0,0v0.1h0h0l0,0h0l0,0l0,0l0,0l0,0h0.1v0h-0.1l0,0h0.1v0l0,0v-0.1h-0.1l0,0l0,0l0,0h-0.2l0,0h0l0,0l0,0l0,0l0,0l0.2-0.1l0,0h0.3
		h-0.1h-0.1h-0.1l0,0l-0.5-0.5l0,0l0,0l0,0h0l-0.1-0.1l0-0.1l0,0l-0.1,0l0,0v-0.1l0,0l0,0l-0.1-0.1l0,0l0-0.1l-0.1-0.2v0l0,0l0,0
		l0,0l0,0l0,0l0,0l0.1-0.1l0.1-0.1l0,0v0v0l0,0l0,0h0.1l0,0h0.1l0,0l0,0l0,0h0.1l0,0h0l0,0l0,0l0,0h0.1l0,0l0,0l0,0v0l0,0l0,0l0,0
		l0,0l0,0l0,0l0,0l0,0l0,0l0,0h0.1l0,0v0l0,0l0,0h0l0,0l0,0l0,0l0,0v0l0,0l0,0l0,0l0,0l0,0l0,0l0,0l0,0l0,0l0,0l0,0l0,0l0,0l0,0h0.1
		l0,0l0,0l0,0l0,0l0,0l0,0l0,0l0,0l0,0l0,0v0l0,0l0,0l0,0l0,0h0l0,0h0.1l0,0l0,0h0h0.2h0.1h0.1l0,0h0.1h0.1h0.1l0,0l0,0h0l0,0l0.1,0
		l0.1,0l0,0h0.2h0.1l0,0h0v-0.1l0,0l0,0l0,0l0,0l0,0v0.1v0.1l0,0l0,0l0,0h0.1l0,0h0.1v-0.1l0,0v0v0.1h0.4h0.6l0,0l0,0v0h0.1v0l0,0
		l0,0h0.4l0,0l0,0l0,0l0,0h0h0.1h0h0.1l0,0h0l0,0h1.5l0.7,0h0.1l0.8,0l0,0l0,0l0,0l0,0h0.1l0,0h0.2h0.1h0.1h0.3h0.1h0.1h0.1h0.1h0.1
		h0.1h0.1h0.1l0.1,0l0,0l0,0l0,0l0,0l0,0l0,0l0,0l0,0l0,0l0,0h0.3h0.1l0,0l0,0l0,0l0,0l0,0h0l0,0h0.5l0,0l0,0l0,0l0,0l0,0l0,0l0,0
		l0,0l0,0l0,0l0,0l0,0l0,0l0,0l0,0l0,0h0v0l0,0l0,0l0,0l0,0l0,0v0l0,0h0.1l0,0l0,0l0,0h0.1l0,0h0l0,0l0,0l0,0l0,0l0,0l0,0l0,0
		l0.1-0.1l0,0v0l0,0l0,0l0,0l0,0l0,0l0,0l0,0l0,0l0,0l0,0l0,0l0,0l0,0l0,0l0,0l0,0l0,0l0,0h0l0,0h0.1l0,0l0,0l0,0l0,0l0,0l0.1-0.1
		l0.1,0l0,0l0,0l0,0l0,0l0,0l0,0l0,0l0,0h0.1l0.1-0.1l0.1-0.1h0l0.1,0l0.1-0.1l0,0h0h0l0,0l0,0h0l0.1,0l0,0v0h0l0,0l0,0l0,0h0l0,0
		l0,0h0l0,0l0,0l0,0h0l0,0l0,0v0h0h0.2h0l0,0h0l0,0h0l0,0h0.6l0.1,0h0l0,0h1.9l0,0h0l0,0l0,0l0,0l0,0l0,0h0l0,0l0,0v0l0,0l0,0
		l-0.1,0.1l0,0h-0.1l-0.1,0.1l-0.1,0.1l-0.1,0.1l0,0l0,0l0,0l0,0l0,0l0,0l0,0l0,0l0,0l0,0l0,0l0,0l0,0l0,0l0,0l0,0l0,0l0,0l0,0l0,0
		l0,0l0,0l0,0l0,0l0,0l0,0l0,0l0,0l0,0l0,0v0l0,0l0,0l0,0l-0.1,0.2l0,0l0,0l0,0.1l-0.2,0.1l-0.1,0.1l-0.1,0l-0.1,0.1l-0.1,0
		l-0.1,0.1h-0.1l0,0l0,0l0,0l0,0l0,0l0,0l0,0h-0.1l0,0h-0.1l0,0l0,0l0,0l0,0l0,0l0,0l0,0h0l0,0l0,0l0,0l0,0l0,0l0,0l0,0l0,0l0,0l0,0
		l0,0l0,0h-0.1l0,0l0,0l0,0h0l0,0l0,0l0,0v0l0,0v0.1l0,0v0l0,0l0,0l0,0l0,0l0,0l-0.2,0.4l0,0v0l0,0l0,0v0v0l0,0l0,0v0.1l0,0l0,0l0,0
		l0,0l0,0l0,0l0,0l0,0l0,0l0,0l0,0v0l0,0v0v0.1l0,0l0,0v0.1l0,0v0.1v0.1l0,0l0,0l0,0l0,0l0,0l0,0l0,0l0,0l0,0l0,0l0,0l0,0l0,0l0,0
		l0,0v0.2l0,0v0.1v0l0,0l0,0v0v0v0l0,0l0,0v0v0v0l0,0l0,0v0.1l0,0l0,0l0,0l0,0l0,0l0,0l0,0l0,0l0,0l0,0v0l0,0h0h0h0.1l0,0v0v-0.1
		h-0.1l0,0v-0.2v0l0,0l0-0.3l0,0v-0.2v0h-0.1h0.2l0,0h-0.1v0.1l0,0v0.2l0,0v0.1v0.1v0.2v0v0.1l0,0h0.1v0.1h0.1l0,0h-0.1v0l0,0l0,0
		h0.1l0,0v-0.1v-0.1v-0.1v-0.1V162v0v-0.1v0v0.2l0,0v-0.1l0,0v0.1l0.1,0.5v0v0.2l0,0v0.1l0,0v0l0,0h0.1l0,0v0.1l0,0l0,0l0,0v0.1l0,0
		h0l0,0v-0.1l0,0v0.1l0,0l0,0l0,0l0,0l0,0l0,0v-0.1l0,0l0,0v-0.1l0,0v-0.1v-0.1v-0.1v0v-0.1v-0.2V162h-1.4h0.2l0,0h-0.1v0l0,0v0.2
		v0.1v0.1v0.1v0.2v0v0.2l0,0v0.1l0.2-0.1l0,0l0,0l0,0l0,0l0,0v0v0l0,0l0,0h0.1v-0.1l0,0v0v-0.1l0,0l0,0l0,0v0l0,0l0,0l0,0l0,0l0,0
		l0,0l0,0l0,0l0,0l0,0l0,0l0,0l0,0v-0.1l0,0v-0.1l0,0l0,0l0,0l0,0l0,0V162l0,0l0,0l0,0l0,0v0l0,0l0,0l0,0l0,0v-0.2l0,0v-0.1l0,0l0,0
		l0,0v-0.1l0,0l0,0l0,0v0l0,0l0,0l0,0v-0.1v-0.2l0,0l0,0l0-0.1l0.1-0.1l0.1,0l0,0l0,0l0,0l0,0l0,0l0,0l0,0h0.1l0,0l0,0l0,0l0,0l0,0
		l0,0l0,0l0,0l0,0l0,0l0,0l0,0l0,0l0,0l0,0l0,0l0,0l0,0l0,0l0,0l0,0l0,0l0,0l0,0l0,0l0,0l0,0l0,0l0,0l0,0l0,0l0,0l0,0l0,0l0,0l0,0
		l0,0l0,0l0,0l0,0l0,0l0,0l0,0l0,0l0,0h0l0,0l0,0v0h0l0,0l0,0h0.1l0,0l0,0l0,0l0,0v0l0,0l0,0l0,0l0,0l0,0h0l0,0l0,0l0,0l0,0l0,0l0,0
		l0,0l0,0l0,0l0,0l0,0l0,0l0,0l0,0l0,0l0,0l0,0l0,0h0.1h0l0,0l0,0l0,0l0,0l0,0h0.1l0,0l0,0l0,0l0,0l0,0l0,0h0l0,0v0l-0.2-0.1l0,0
		l0,0v0l0.3,0.1v0l0,0l0,0l0,0l0,0v0l-0.3-0.1l0,0h0l0,0l0.2,0.1l0,0l0,0l0,0l0,0v-0.1l0,0l0,0l0,0v0l0,0l0,0l0,0l0,0l0,0v0l0,0l0,0
		l0,0l0,0l0,0h0.1l0,0h2.7l0,0l0,0l0,0l0,0h0l0,0l0,0h0.1l0,0l0,0l0,0l0,0l0,0h0l0,0l0,0l0,0h0h0l0,0h0v0l0,0l0,0l0,0l0,0l0,0l0,0
		l0,0l0.1-0.1h0l0,0v0l0,0v-0.1v-0.1l0,0l0,0l0,0l0,0v-0.1v0l0,0h0v-0.1l0,0v0v0v-0.1l0,0v-0.2l0,0l0,0l0,0l0,0l0,0l0,0l0,0l0,0l0,0
		l0,0l0,0h0l0,0l0,0v-0.1l0,0l0,0l0,0l0,0l0,0l0,0l0,0v0l0,0l0,0l0,0l0,0l0,0v0l0,0l0,0l0,0v-0.1l0,0l0,0l0,0l0,0V155l0,0v0l0,0l0,0
		l0,0l0,0l0,0l0,0l0,0l0,0l0,0v0l0,0v0l0,0v-0.1v0l0,0l0,0l0,0l0,0l0,0l0,0h0.1l0,0l0,0l0,0h0.1l0,0l0,0l0,0v-0.1l0,0l0,0l0,0l0,0h0
		l0,0l0,0l0,0l0,0l0,0l0,0l0,0l0,0l0,0l0,0l0,0l0,0l0,0l0,0l0,0l0,0l0,0l0,0l0,0l0,0h0.1l0,0h0.1l0,0l0,0h0l0,0l0.1-0.1l0.1-0.1v0
		l0,0l0.1-0.1v0l0,0l0,0l0,0l0,0l0,0v0l0,0l0,0l0,0l0,0l0,0l0,0l0,0l0,0l0,0l0,0l0,0l0.2-0.2l0,0l0.5-0.4l0.1-0.1l0.6-0.5l0.1-0.1
		l0.4-0.2h0.1h0.1h0.2l0.2,0h0.2h0.2h0.1h0.2h0.1h0.1h0.1h0.1h0.1h0.1h0.1h0.1h0.2h0.1h0.3h0.1h0.1l0,0h0.1l0.1,0l0.1,0.1l0.1,0.1
		l0,0l0.1,0.1l0.1,0.1l0.1,0.1l0.1,0.1v0l0,0l0,0v0V152l0,0h0l0,0v0l-0.1,0l0,0l0,0h0l0,0h-0.1h-0.1l0,0v0l0,0.1v0.1l0,0l0,0l0,0
		l0.2,0.2l0,0l0,0l0,0l0,0l0,0l0,0l0,0l0,0v0v0.1l0,0l0,0l0,0l0,0l0,0l0,0h-0.2l0,0l0,0l0,0v0v0v0h0l0,0l0,0l0,0l0,0l0,0l0,0l0,0
		v-0.1h0v0l0,0l0,0l0,0l-0.1-0.2l0,0l0,0l0,0l0,0l-0.1,0l0,0l0,0l0,0l0,0l0,0l0,0l0,0l0,0l0,0l-0.1,0l-0.1-0.1l0,0l0,0l0,0h-0.1l0,0
		l0,0l0,0l0.1,0.1v0l0,0l0,0v0.1l0,0l0,0l0,0l0,0l0.1,0.1l0,0l0,0l0.1,0.2v0.1l0,0l0,0l0,0l0,0v0.1v0l0,0l0,0l0,0l0,0h0v0l0,0l0,0
		l0,0l0,0l0,0l0,0l0,0h0l0,0l0,0v0.1v0.1v0.1v0v0.1v0.1l-0.1,0.1l0,0v0v0.6l0,0v0.1l0,0v0.1l0,0l0,0v0.2v0.1v0.1l0,0l0,0l0,0.1
		l-0.1,0.4l0,0v0.1l0,0h0.2l0,0h1.8l0,0l0,0l0,0l0,0v0l0,0l0,0l0,0l0,0h0l0,0h-0.2l0,0H148h-0.1l0,0l0,0l0,0l0,0l-0.1,0.1l0,0l0,0.1
		v0l-0.1,0.1v0l0,0l0,0v0v0.1v0.1l0,0l0,0l0,0v0.1v0.1l0,0h0l0,0l0,0l0,0l0,0l0,0l0,0l0,0V156l0,0l0,0h0l0,0l0,0h0l0,0v0l0,0l0,0
		l0,0l0,0l0,0l-0.1,0.1l0,0l0,0l0,0l0,0l0,0l0,0l0,0l0,0h-0.1l0,0h-0.1l0,0l0,0l0,0l0,0l0,0l0,0l0,0v0l0,0l0,0l0,0l0,0h0.1v0l0,0
		l0,0l0,0l0,0l0,0l0,0l0,0l0,0l0,0l0,0l0,0.1l0,0v0l0,0l0,0l0,0l-0.2,0.1l0,0l0,0l0,0l0,0l0,0l0,0l0,0l0,0l0,0h0l0,0l0,0l0,0v0l0,0
		l0,0l0,0l0,0v0l0,0h0l0,0l0,0h0l0,0h-0.1H147l0,0l0,0l0.2,0l0,0l0,0l0,0v0.1l0,0l0,0l0,0l0,0l0,0l0,0H147l0,0H147l0,0h-0.2h-0.1
		h-0.1h-0.2h0h0h0h0h-0.1l0,0h-0.1H146l0,0h-0.2l0,0h0h-0.1l-0.1,0v0.1l-0.2,0.2v0l0,0l0,0l0,0h0l0,0l-0.1,0h-0.1l0,0v0l-0.1,0.1
		l0,0h0l0,0v0.1v0l0,0l0,0l0,0l0,0l0,0l0,0l0,0h0l0,0l0,0v0l0,0v0.2l0,0.1l0,0l0,0l0,0l0,0l0,0l0,0l0,0l0.1,0.1l0.1,0.1l0,0l0,0l0,0
		l0,0l0,0l0,0l0,0v0.1l0.2,0.1l0.1,0.1l0.2,0.1l0,0h0.1l0,0l0,0h0.1l0,0l0,0v0.1v0v0.1h0.1l0,0l0.3-0.3l0,0l0,0v0l0,0l0,0l0,0h0.1h0
		h0l0.1,0h0.1l0,0l0,0l0,0l0,0l0,0l0,0l0,0l0,0l0.2-0.1l0,0l0,0l0,0l0,0l0,0l0,0l0,0l0,0l0,0l0,0h0l0,0h0.1l0,0l0,0l0,0l0,0l0,0l0,0
		l0,0v0l0,0l0,0l0,0h0l0,0h0.1l0,0l0,0l0,0h0h0l0,0l0.1-0.1l0,0l0,0l0,0l0,0v0v-0.2v-0.1v-0.1l0.1-0.2v0l0,0h0l0,0l0,0l0,0l0,0
		l0-0.1l0,0l0.1-0.2l0.1-0.3v0v-0.1l0.1-0.2l0,0v0l0,0l0,0h0l0,0v0l0,0l0,0v0l0,0l0,0l0,0l0,0l0,0l0,0l0,0l0,0l0,0l0.1,0l0,0h0
		l0.1,0h0.2h0h0h0.1h0.1v0.1l0,0l0,0l0,0l0,0l0,0l0,0v0l0,0l0,0l0,0v0l0,0l0,0l0,0l0,0l0,0v0v1.5l0,0h0.1l0,0h0.1l0,0h-0.1l0,0l0,0
		l0,0h-0.5v0.1l0,0v0.1l0,0l0,0l0,0l0,0l0,0l0,0v0.1l0,0l0,0l0,0l0,0l0,0l0,0l0,0l0,0l0,0l0,0l0,0l0,0l0,0l0,0v0.1l0,0l0,0l0,0l0,0
		l0,0l0,0v0.1l0,0l0,0l0,0l0,0l0,0l0,0l0,0v0.1l0,0v0l0,0v0l0,0l0,0v0.1l0,0l0,0l0,0l0,0l0,0l0,0v0l0,0l0,0l0,0l0,0l0,0h0.1l0,0l0,0
		l0,0l0,0l0,0v0v0.3l0,0h0l0,0h0l0,0h0.2l0,0h0l0,0l0,0l0,0l0,0l0,0l0,0h0.1l0,0h0.2l0,0h0.1h0.1h0.3l0,0h0.1h0.1h0l0,0l0,0l0,0h0
		l0,0l0.1,0l0.1-0.1h0l0,0h1.2l0,0h0.1l0,0l0,0h0l0,0h0h0.1l0,0l0,0l0,0h0.3h0.1h0.3l0,0l0,0l0,0l0,0l0,0h0.1l0,0h0l0,0h0h0h0h0.1h0
		l0,0l0.1,0h0h0.1l0,0l0,0h0.4l0,0h0.1h0.1l0,0h0.1l0,0l0,0v0l0,0l0,0l0,0l0,0l0,0l0,0l0,0l0,0l0,0l0,0h0l0,0l0,0l0,0l0,0l0,0l0,0
		l0,0l0,0h0h-0.2h-0.1h-0.1l0,0l0,0h0l0,0l0,0l0,0h-0.1h0l0,0l0,0l0,0h-0.1h-0.1l0,0h-0.4h-0.1h-0.1l0,0h0l0,0l0,0l0,0h0l-0.1,0l0,0
		h-0.1l0,0l0,0v0l0,0l0,0l0,0l0,0l0,0l0,0l0,0h-0.1l0,0l0,0l0,0l0,0l0,0l0,0v-0.2l0,0l0,0l0,0l0,0v-0.1l0,0v-0.1v-0.3v-0.1v-0.4l0,0
		v-0.1l0.1-0.3v0v-0.1l0.1-0.2l0,0v0l0,0l0,0l0,0V157v0l0,0h0.1l0,0v0l0,0l0,0l0,0l0,0v0l0-0.1l0-0.1v-0.1l0-0.1v0l0,0l0,0v-0.1h0v0
		h0v0l0,0l0,0l0,0l0,0l0,0l0,0l0,0h0.1l0,0v0v0v0v-0.1l0,0l0,0V156v-0.1l0-0.5l0,0v-0.1l0,0l0,0v0l0,0v0V155l0,0l0,0l0,0l0,0h0l0,0
		h0l0,0l0,0l0,0l0,0l0,0l0,0l0,0l0,0l0,0v0l0,0l0,0v-0.2v0h0v0v-0.1v0l0,0v-0.3v0v-0.1v-0.1V154v-0.1v-0.1v-0.1v-0.1l0,0l0,0l0,0
		l0-0.1h0l0,0v-0.1l0,0l0,0l0,0v-0.1v0l0,0l0,0l0,0l0,0h0l0.1-0.1l0,0l0,0l0,0l0,0l0,0l0,0h0l0,0l0,0l0,0l0,0l0,0v0l0,0l0,0l0,0l0,0
		l0,0l0.1-0.2v0l0,0l0,0l0,0l0,0v-0.1l0,0v-0.1l0,0l0,0v-0.1l0,0l0,0l0,0l0,0l0,0l0,0h0l0,0h-0.1h0l0,0h0l0,0l0,0h0l0,0l0,0h-0.1
		h-0.1l-0.1,0H152l0,0l0,0h-0.1l0,0h-0.1l0,0l0,0l0,0l0,0l0,0l0,0l0,0h0l0,0h0l0,0l0,0h-0.2l0,0l0,0h-0.1l0,0l-0.1,0h-0.1l-0.1-0.1
		l-0.1,0l0,0l0,0l0,0v-0.1l0,0v0v-0.1V150l0,0l0,0v-0.1l0,0l0,0l0,0l0,0H151h-0.1h-0.1l-0.1,0h-0.1h0h0h0l0,0h0l0,0l0,0v0.1l0,0l0,0
		v0l0.1,0.1v0v0l0,0l0.1,0.1l0,0v0v0l0,0l0,0v0h-0.1l0,0l0-0.1L150,150l0,0l0,0l0-0.1l0,0v0l0,0l0,0l-0.1,0l0,0l0,0l0,0l0,0l0,0
		v-0.3l0,0v0l0,0v-0.1v-0.1l0,0l0,0l0,0l0,0l0,0l0,0l0,0l0,0l0,0l0,0v0l0,0l0,0l0,0l0,0v0l0,0l0,0v0v-0.1l0,0v-0.1V149l0,0v0v-0.1
		v-0.1v-0.1l0,0v0v0l0-0.1v0v0l0-0.1v-0.1v0l0,0l0,0l0,0l0,0l0,0l0,0l0,0h0.1l0,0l0,0l0,0l0,0l0,0h0.1l0.2-0.1l0.2-0.1l0.2-0.1
		l0.2-0.1h0.1h0.1h0.3h0.1h0.1l0,0l0,0l0,0h-0.3l0,0l0,0l0,0l0,0h0h0.1h0.2h0.3h0.1h0.2l0,0h0l0,0h0.1h0h0.1h0.1h0l0,0l0,0l0.2-0.1
		l0.1,0h0.1l0,0h0l0,0h0.1l0,0l0,0l0,0h0.4h0.1h0h0.1l0,0l0,0h0.3h0.1l0,0l0,0"/>
	<path class="st0" d="M110.1,128.1l0.5,2.7l0.1,0.1l0.1,0.2l0.1,0.2l0.1,0.2l0.1,0.2l0,0.2l0.1,0.2l0,0.2v0.2l0,0.2v0.2v0.2v0.2v0.5
		l0.6,1.8l0.2,0.3l0.1,0.4l0.3,0.4l0.1,0.1v0.2l0,0.2l0.1,0.1l0.2,0.1l1.2,0.5v0.4l0.3,0.4l0.5,0.4l0.8,0.5l0,0.2l-0.4,0.3l0.1,0.1
		l-0.9-0.1l-0.6,0.5v0.4l0.9,0.6v0.3l0.7,0.1l0.1-0.3l0.3-0.1l0.6,0.5l0,0.6l-0.1,0.5l-0.7,0.4l-0.3,0.1l-0.3,0.1l-0.2,0.3v0.6
		l-0.1,0.4l-0.1,0.1v0.1l0.1,0.3l0.1,0.5l0.3,0.4v0.5l0.5,0.3v0l0,0v0v0.1v0v0v0v0.1l0,0l0,0h0.1h0.1h0.1l0.1,0h0.1h0.1l0.1,0h0.1
		h0.1h0.1h0.2l0.1-0.1l0.1-0.1l0.2,0l0.1,0.1v0.1v0.1v0l-0.2,0.2l-0.2,0.1h-0.1v-0.2h-0.1l-0.2,0.1l-0.1,0.1l0.1,0.1v0.1l0.1,0.1
		l0.2,0.1l0.1,0.2l0,0.1h0l0,0l-0.1,0.1h-0.1l0,0v-0.1l0,0l-0.1-0.1h-0.1l-0.1,0v0.1l-0.1,0H116l-0.1,0.1l0.1,0.1v0.3l0,0.1l0.1,0.1
		v0.1l0,0.1v0.1v0.1l0.1,0.2v0.3v0.1l0.1,0.2l0.1-0.1l0.2-0.2l0.2-0.1l0.2-0.1l0.1-0.1v0.2l-0.5,0.7l0.1,0.4l0.1,0.2l0.1,0.2v0.2
		v0.1l0,0.2v0.2l-0.1,0.2v0.1l-0.1,0.2l-0.1,0.2l0,0l-0.1,0.1l-0.2,0.2l-0.1,0.2l0,0l0,0h0.1l0,0l0,0v0.2h0l0-0.2h-0.1v0.1l0,0l0,0
		l0,0l-0.1,0.1h0v0.1h0l0,0l0,0l0,0l0,0v0.1l0,0l0,0.1h-0.1l-0.3,0.4l-0.8,0l0.1,0.7l0,0.2l-0.2,0.9l-0.1,0.5l-0.5,0.7l-0.1,1l0,0.5
		l-0.4,0.9l-0.2,0.6l-0.2,0.2l-0.5,0.3v0.1h0l0,0.1l0,0l0,0.1v0.1l0,0v0l0,0v0.5v0l0,0l0,0v0.1l0,0l0,0l0,0h-0.1v0.1v0.1v0.1v0l0,0
		h-0.1h-0.1l-0.1,0.1v0.1l-0.1,0.1h-0.2h-0.4h-0.3h-0.2l-0.5,0h-0.2h-0.6l-1.1-0.4l-0.2,0.1l-0.3,0l-0.5,0.1l-0.4,0.1h-0.3l-0.5,0.1
		l-0.4-0.1l-0.3,0.1l-1,0.1h-0.6l-0.5,0l-0.5,0.1h-0.5l-0.4-0.1l-0.4-0.2l-0.4-0.3l-0.1-0.4l0.3-0.5l0-0.2l0.1-0.2l0.6-0.2l0.1-0.3
		l0.7-0.3l0.1-0.2l0.7-0.1h0.2l0.1,0.1l0.1,0.1l0.1,0.1h0.1h0.1v-0.1l0.1-0.1h0.1h0.2h0.2l0.1-0.1l0.1-0.1h0.1h0.1l0.1,0.1l0,0.1
		l0.1,0h0.3l0.1,0.1h0.2h0.2l0.1-0.1l0.1-0.1v-0.1l0.2-0.1l0.2-0.1l0.1-0.1l0.1-0.1v-0.1v-0.1v0h0.1l0,0h-0.3l0,0l0,0l0,0l0-0.1
		l0.1,0h0.1l0.1-0.1h0.1h0.1v0l0,0v0h0l0,0l0,0l0,0l0,0h0.1l0,0v0l0,0v0v0.1l0,0v0l0,0l0,0v0v0v0l0,0.1l0,0l0,0h0v0l0.1,0l0,0h0.1
		l0,0l0,0h0h0h0l0,0h0.1h0.1h0h0.1h0v0h0l0,0l0,0v0l0,0l0.1-0.2v-0.1h-0.1h-0.1h0.6h-0.1l0,0l0,0.1l0,0l0,0v0l0,0l0,0l0,0l0,0l0,0
		l0,0l0,0l0,0v0.2l0,0l0,0l0,0v0l0,0l0,0v0l0,0v0v0v-0.1l0,0l0,0l0,0l0,0l0,0l0,0v0.1l0,0h0.2h0.1h0.1v0l-0.1-0.1v-0.1v0h0.1l0-0.1
		l0.2-0.3v-0.1h0.1l0.3,0v-0.1h0l0,0l0,0v0l0.1,0v-0.1l0,0l0,0h0.1l0,0v0.1h0.3l0,0h0.2l0,0h0.1l0,0l0,0h0.1l0,0h0.1l0.1,0l0,0h0.1
		h0.1v0h-0.1h-0.1v0h-0.5v0h-0.1l0,0h-0.1h-0.4l0,0H110l0,0l-0.9-0.1v-0.2l0-0.2h0.1l0,0l0.1,0l0.1-0.1l0.1-0.1V158l0.1-0.1l0,0
		l0.1-0.1l0.1-0.1v-0.1v-0.1v-0.1h0v-0.1l0-0.2h0.3h0.2v-0.1l0-0.1v-0.2v-0.1l0,0l0,0v-0.2l0-0.5v-0.2v-0.3l0,0l-0.1-0.1v-0.1v-0.1
		h0.1h0v-0.1l0-0.1v-0.2l0-0.1l0,0l-0.1-0.1h-0.1h-0.1l-0.1-0.1l0.2-0.2l0.2-0.3h0.1h0.1l0.3-0.2V154l0.1-0.1l0.2-0.1l0-0.1l0,0
		l0.1-0.1l0,0l0.1-0.1l0.1-0.2v-0.1v0l0.5-0.6l0.2-0.3v-0.1l0-0.1V152v-0.1v-0.1l0.1-0.2l0.1-0.5l-0.3-0.4L112,150v-0.1h0.1v-0.1h0
		l-0.1-0.1h-0.1h-0.1l0,0l0,0l-0.1,0.1v0.1h0v0v0.1l0,0v0.1l-0.1,0.2v0h0h0v0.1v0.1l0.1,0.2l0.1,0.1l0.2,0.1l0.1,0.1l0,0.1l0,0.2
		v0.1v0.1l0,0.1l-0.1,0.2l0,0.1l0,0.1l-0.2,0.1l0,0.1l-0.1,0.1l0,0.1h-0.2l0.1-0.7l0,0v-0.1l-0.1-0.1l0-0.1l0.1-0.1v-0.1l-0.1-0.1
		v-0.2V151l-0.2-0.2l-0.2-0.1h-0.2l-0.1-0.1h-0.1l-0.2-0.5l-0.2-0.1l-0.2-0.2l-0.1-0.1l-0.1-0.1v-0.1l0.1-0.1l-0.1-0.4h-0.3h-0.1
		H109v-0.1l0.1-0.3l0-0.1l-0.2-0.1l-0.2-0.2V148l-0.1-0.1l-0.1-0.2l-0.1,0h-0.1l-0.1,0l-0.1,0.1v0.1l-0.1,0.1h-0.2l-0.1,0.1
		l-0.2,0.2H107h-0.1l-0.1-0.1l0,0l-0.1-0.1h0h0l-0.1-0.1l0.1-0.1l0.1,0h0.2l0.1,0l-0.2-0.1h-0.2h-0.3h-0.3l-0.4-0.1l-0.3-0.1
		l-0.2-0.1l-0.4-0.1l-0.4-0.1l-0.3,0h-0.5l-0.2,0h-0.3l-0.3,0.2l-0.7,0.2l-0.5,0.1v-1.1l0.1-2.4l0.1-1.7l0.1,0l0,0h0l0,0h0l0,0l0,0
		l0,0h0.2l0,0h0.1l0,0l0,0l0,0l0.1,0l0,0l0,0l0,0l0,0v0l0,0l0,0l0,0l0,0v0h0l0,0h0h0l0,0l0,0h0.1l0,0l0,0l0,0l0,0h0.1l0,0l0,0l0,0
		l0,0h0l0,0h0l0,0l0,0l0,0l0,0l0,0l0,0l0,0h0l0,0l0,0h0l0,0l0,0h0l0,0l0,0h0h0h-0.1l0,0l0,0h0l0,0l0,0h-0.1l0,0V142l0,0v0l0,0h0l0,0
		v-0.1v0l0,0h0.1v0l0,0l0,0l0,0l0,0l0,0l0,0l0,0l0,0l0,0l0,0l0,0h0l0,0l0,0l0,0l0,0l0,0h0.1l0,0l0,0l0,0h0h0.1h0l0.1,0l0,0h0.1l0,0
		l0,0l0,0h0.1l0,0h0h0l0,0v0l0-0.1l0,0h0.1l0,0l0,0l0,0l0,0h0.1l0,0l0.1,0.1l0.1,0.1l0,0l0,0v0.1l0,0l0,0v0l0,0h0.1l0,0v-0.1v-0.2
		v-0.1l0,0h0v-0.1l0,0l0,0l-0.1-0.1v0l0,0h0l0,0v0v-0.1v0h0v0l0,0l0,0v0.1v0l0,0v-0.1l0,0l0,0l0,0h0l0,0v0h0.1l0,0l0,0h0v-1h0.1v0
		l0,0v-0.1l0,0l0,0l0,0h-0.1l0,0h0l0,0h-0.2v0h0l0,0l0,0v0.1l0,0v0h0l0,0h0l0,0v0.1l0,0l0,0l0,0v0.1l0,0l0,0l0,0v0v0.1l0,0l0,0l0,0
		l0,0l0,0v0.1l0,0l0,0l0,0v0l0,0h0.1v0l0,0l0,0l0,0v0.5h-0.1l0,0h0l0,0l-0.1,0l0,0l0,0h0l0,0l0,0l0,0l0,0l0,0l0,0l0,0h0l0,0h0l0,0h0
		v0l0,0l0,0l0,0l0,0l0,0l0,0l0,0v0v-0.1l0,0v0h0h0l0,0l0,0l0,0l0,0h0v0l0,0l0,0h0v0l0,0l0,0l0,0l0,0h0h0l0,0v0l0,0l0,0l0,0l0,0l0,0
		v0.1l0,0l0,0.1v0l0,0l0,0h-0.1l0,0l0,0v0l0,0v0h-0.1h-0.3l0,0l0,0l0,0l0,0l0,0h-0.1l0,0l0,0v0l0,0l0,0l0,0v0l0,0l0,0v0l0,0l0,0l0,0
		v0l0,0v0v0h-0.1v0l0,0l0,0h0l0,0v0v0v-0.1l0.1-0.1l0,0l0.1-0.1v0l0,0l0.1-0.1v-0.1v-0.1l0.1,0h0.1l0.1-0.1l0-0.1l0,0l0.1-0.1v-0.1
		l0-0.1v0l0,0l0,0h-0.1h-0.1l-0.1,0l0-0.1l0.1-0.1h0.1h0h0.1h0.1l0,0v-0.1l0,0h0h0v-0.1h0v0h0h0h0v-0.1v-0.1v-0.1V139v-0.1l0-0.1
		v-0.1v-0.1v0H104h-0.1h-0.1h0h0h-0.1h-0.1l-0.1,0h0h0h-0.1l-0.1,0h-0.1h-0.1h0H103l0,0v-0.1v-0.1h0v0l0,0v0h0h-0.1l0,0l0,0V137l0,0
		v-0.1l0,0l0-0.1l0,0l0,0h0h0.1h0.1h0.2h0.1h0.1l0-0.1l0,0v0l0,0v0l0,0l0,0v-0.1l0,0v0h0l0,0h0h-0.1l0.1,0l0,0v0l0,0v0.1l0.1,0v0.1
		v0h-0.1h-0.1l0,0l0,0.1h-0.1h-0.1h-0.1v-0.1l0,0v0H103h-0.1h0h-0.1v0.1l0,0h0h0v0l0,0.1h0l-0.1,0l0,0v-0.1v0l0,0v0l0.1-0.1v-0.1v0
		v-0.2l0.2-0.1l0,0l0.2-0.1l0.1-0.2l0.2-0.2v-0.3v-0.2V135l0.1-0.5v-0.1l0-0.1l0-0.1l0.1-0.1l0.1-0.1l0-0.1l0.1-0.1v-0.1v-0.1v-0.1
		V133v-0.1v-0.1v-0.1v-0.1v-0.1v-0.1l0-0.2l-0.2-0.2l-0.1-0.1l-0.2-0.2v-0.3v0v-0.3l-0.1-0.1l-0.1-0.1l-0.1-0.2v-0.2l-0.1-0.4
		l-0.2-0.5l-0.1-0.4l-0.3-0.8l0.4-0.3l0,0h0.1h0.5l2.2,1.4l0.6,0.4l0.5,0.6l0.8,0h0.3h0.1h0.1h0.1h0.4h0.1h0.1h0.1h0.1h0.1l0.1,0
		l0.1,0h0.1h0.1l0.1,0l0.2-2l-0.4-0.4l0.3-0.5l0.6,0.8l0,0"/>
	<path class="st0" d="M154.7,147L154.7,147l-1.2-0.3l-2.1-0.4l1.8-3.7h0.9L154.7,147"/>
	<path class="st0" d="M83.4,119.2l-1.4-1.9l-0.7-0.9l-0.1-0.1l-0.4-0.5l0,0l0,0l0,0l-0.2-0.3l-0.1-0.1h0.2l0.2,0.1l0.1,0.1l0,0l0,0
		l0,0l0,0l0.3,0.3v0.3l0.2,0.1l0.1,0.1l0,0v0.2l0.1,0.1l0.1,0.2l0.1,0.1l0.1,0v0.1v0.2l0.2,0.1l0.1,0.1l0.1,0.1l0.2,0.3l0.1,0.1
		l0.1,0.1l0.1,0.1l0.2,0.1l0.2,0.1v0.1l0.1,0.1l0.1,0.1v0.1h-0.1l0,0l0,0l0,0v0.1l0,0"/>
	<path class="st0" d="M103.3,139.8l0,0.1v0h0l0,0l-0.1,0.1v0.2l-0.1,0.4l0.1,0.1H103h0l0,0l0,0l0,0h-0.1l0,0l0,0l0,0l0,0l0,0l0,0
		l0,0h0v0.1v0l0,0l0,0v0.1v0.1l0,0h0l0,0l0,0l0,0h0.1l0,0l0,0v0.1l0,0l0,0v0l0,0h0l0,0h0l0,0h-0.1l0,0l-0.1,0.1l0-1h0.1h0.1h0h0
		l0.1,0v0v-0.1v-0.1l0,0v0h0v-0.1v0l0,0l0,0l0,0h0l0.1,0v0l0,0l0,0l0,0l0,0l0,0l0,0l0,0l0,0l0,0h0.1l0,0l0,0v0.2l0,0l0,0l0,0v-0.1h0
		v0.1l0,0l0,0l0,0l0,0l0,0l0,0l0,0l0,0l0,0l0,0l0,0h0v0l0,0l0,0l0,0h-0.6l0,0l0,0l0,0l0,0l0,0l0,0l0,0l0,0l0,0l0,0l0,0l0,0l0,0l0,0
		l0,0l0,0h-0.1l0,0l0,0v0l0.1,0h0l0,0l0,0l0,0h0l0,0v0l0,0l0,0l0,0h0.1h0.1h0.1h0.1h0l0,0l0,0l0,0h0l0,0h0l0,0v0l0,0v0v0h0h0.1l0,0
		l0,0l0,0l0,0l0,0h0l0,0v0.1l0,0l0,0h0l0,0h0l0,0l0,0"/>
	<path class="st0" d="M170.4,16.8l0.9,0.6h-0.1h-0.1l-0.1,0.1h-0.1h-0.1l-0.2,0.1l-0.1,0.1h-0.2l0,0l-0.1-0.1l-0.1-0.1v-0.1l0,0
		v-0.1l-0.1-0.1v-0.1V17h0.1h0.2l0,0h0.1h0"/>
	<path class="st0" d="M172.1,17.8l0.3,0.1l0,0h0l0-0.1h0l-0.1,0.1l-0.1,0.1v-0.1l-0.1-0.2l-0.1-0.2h0L172.1,17.8L172.1,17.8"/>
	<path class="st0" d="M104.6,115.4L104.6,115.4L104.6,115.4v-0.1l0,0l0,0h0l0.1,0h0h0.1h0.1l0,0l0,0.1h-0.1l-0.2,0.2l0,0"/>
	<path class="st0" d="M71.1,12.3L71.1,12.3L71.1,12.3L71.1,12.3L71.1,12.3L71.1,12.3L71.1,12.3L71.1,12.3L71.1,12.3"/>
</g>
</svg>
